<?xml version="1.0" standalone="no"?>
<!DOCTYPE svg PUBLIC "-//W3C//DTD SVG 1.1//EN" "http://www.w3.org/Graphics/SVG/1.1/DTD/svg11.dtd" >
<svg xmlns="http://www.w3.org/2000/svg" xmlns:xlink="http://www.w3.org/1999/xlink" version="1.1">
<metadata></metadata>
<defs>
<font id="odinson_lightlight" horiz-adv-x="569" >
<font-face units-per-em="1000" ascent="800" descent="-200" />
<missing-glyph horiz-adv-x="355" />
<glyph horiz-adv-x="0" />
<glyph unicode="&#xd;" horiz-adv-x="500" />
<glyph unicode=" "  horiz-adv-x="355" />
<glyph unicode="&#x09;" horiz-adv-x="355" />
<glyph unicode="&#xa0;" horiz-adv-x="355" />
<glyph unicode="!" horiz-adv-x="215" d="M-4 48q0 36 23.5 49.5t59.5 13.5q39 0 53 -18t14 -45q0 -9 -5 -22t-14 -25t-21.5 -20t-28.5 -8h-10q-31 6 -51 27t-20 48zM53 266q0 2 1 6t1 9v10l34 318q3 14 16 21t30 7q10 0 12 -8t2 -17v-22l-5 -96q-4 -11 -5.5 -35l-3.5 -56q-2 -30 -4 -63t-5.5 -60.5t-9 -45.5 t-12.5 -18q-1 0 -0.5 0.5t-0.5 0.5q-24 5 -37 18.5t-13 30.5z" />
<glyph unicode="&#x22;" horiz-adv-x="314" d="M164 578q2 0 8 2q1 0 1.5 1t1.5 1v-4h-11zM11 575h2q2 1 3 1q2 0 3 1q1 0 1.5 0.5t1.5 0.5v-3h-11zM115 685q-1 -5 -5 -11.5t-9 -15.5q-15 -22 -38 -46t-41 -34l13 109v3q0 6 1 10.5t3 8.5q0 2 0.5 2.5t0.5 1.5q4 8 11 12.5t17 6.5h3q2 0 2.5 0.5t2.5 0.5h7q11 0 20 -6 l0.5 -0.5t1.5 -0.5q2 -3 4.5 -6t3.5 -8q1 -1 1 -4q1 -5 1.5 -9t0.5 -9q0 -4 -1 -5zM190 592q-4 -3 -7.5 -5.5t-7.5 -4.5l13 109v2v5v4q0 3 1 4q3 13 12 21q4 2 5 2q1 3 4 3v0q0 1 1 1q3 0 4 1q3 0 5 1h4q2 0 2.5 0.5t2.5 0.5h7h3q8 -1 13 -3q5 -3 9 -8q2 -2 2 -4q1 -1 1 -2 l2 -1q0 -2 0.5 -3.5t0.5 -2.5t0.5 -2t0.5 -2v-3q1 -4 1 -12v-2l-0.5 -0.5t-0.5 -2.5v-1q-3 -6 -7.5 -14.5t-12.5 -18.5q-1 -2 -2.5 -4t-3.5 -4t-4 -5t-4 -7l-22 -22q-5 -5 -11 -10t-11 -10z" />
<glyph unicode="#" horiz-adv-x="731" d="M257 286q-1 -1 -1 -4zM265 418q-1 -9 -2.5 -30.5t-3 -44t-2.5 -40.5t-1 -21q-1 -5 -1 -8v-6v-7q0 -3 -1 -9l11 -14q21 -2 61.5 -2.5t88.5 -0.5l12 11l15 172l-13 13h-26l-5 -1q-12 -5 -15 -5h-10q-3 0 -1.5 0.5t-0.5 0.5q-1 2 -33 4h-11q-9 0 -16 -0.5t-14 -0.5h-19z M25 481q-2 1 5 2.5t21 2t34 1t44 0.5h65l12 11l15 111q2 14 13 21t25 7q8 0 10 -8t2 -17v-63q0 -4 0.5 -7t0.5 -5v-16v-8t-1 -10l11 -14q13 -1 29.5 -1.5t37.5 -0.5h90l12 11l15 111q2 14 13 21t25 7q8 0 9.5 -8t1.5 -17v-63q0 -4 0.5 -6.5t0.5 -4.5v-20v-8t-1 -11l13 -14 q31 0 59 -0.5t49.5 -2t35 -3t15.5 -4.5q0 -7 -6.5 -16t-16 -16.5t-20 -12.5t-17.5 -5h-9h-3q0 1 -2 1q-2 2 -27 3.5t-63 1.5l-13 -11q-1 -8 -2.5 -29.5t-3 -45t-2.5 -42t-1 -20.5q-1 -4 -1 -16v-9q0 -4 -1 -10l12 -14h14q31 -1 59 -2t49 -2.5t34 -3t15 -4.5q0 -7 -6.5 -15.5 t-15.5 -16t-19.5 -13t-17.5 -5.5h-9q-3 0 -3 1t-2 1q-2 2 -20 2.5t-46 0.5h-37l-12 -12q-3 -35 -6.5 -65t-9 -52.5t-12.5 -35.5t-17 -13h-4l-1 1q-20 5 -31 18.5t-11 30.5q0 2 0.5 6t0.5 8v10l15 87l-13 15q-3 0 -5 -0.5t-4 -0.5h-7l-4 -2h-16l-4 2q-16 0 -30.5 -1t-28.5 -2 q-15 -1 -26 -1h-20l-12 -11q-3 -33 -6 -62t-8.5 -51t-12.5 -34.5t-17 -12.5h-4l-1 1q-20 5 -30.5 18.5t-10.5 30.5q0 2 0.5 6t0.5 8v10l14 87l-12 15q-57 -3 -95.5 -4t-49.5 -1l2 60q-4 2 23.5 3.5t68.5 1.5h60l13 11l14 172l-12 13q-17 0 -32.5 -0.5t-30.5 -0.5h-48 q-17 0 -29.5 -0.5t-20.5 -0.5z" />
<glyph unicode="$" horiz-adv-x="626" d="M14 166q0 20 8 32.5t31 12.5q20 0 39 -9t39 -20q23 -13 46 -24t51 -11q16 0 29 26.5t23.5 63.5t18 77t12.5 67q2 8 2.5 14t1.5 11v1q1 6 3.5 20t6.5 32t8 38.5t8 39.5q4 17 7 31.5t5 21.5q1 2 1 13t-3.5 27.5t-8.5 33.5q-5 18 -9 35t-4 25q0 3 -0.5 9.5l-0.5 6.5l68 -6h2 q-2 0 -2 -9v-20q0 -8 -0.5 -15t-0.5 -14v-24q0 -24 4.5 -40.5t18.5 -16.5h2q2 0 2.5 0.5t1.5 0.5q8 0 24 -13.5t34.5 -34t38 -44.5t35.5 -45t26 -35.5t10 -15.5q0 -15 -6 -21t-22 -6q-20 0 -34 14.5t-28 31.5q-16 20 -34 38t-46 18q-2 0 -2.5 -0.5t-1.5 -0.5h-3l-9 -5 q-15 -18 -25 -40t-16.5 -45.5t-10.5 -47.5t-8 -46q-3 -20 -6 -36q-2 -6 -4 -20.5t-5 -32.5t-6 -36.5t-6 -33.5q-2 -9 -2.5 -15.5t-1.5 -9.5v-3q0 -2 -0.5 -3.5t-0.5 -3.5q0 -11 2.5 -29.5t5.5 -39.5q4 -24 7 -47t3 -34q0 -23 -7 -29t-19 -6h-25h-1q0 2 0.5 3.5t0.5 3.5 q0 3 0.5 5.5t0.5 5.5q0 5 0.5 10.5t0.5 10.5v21q0 26 -6.5 45.5t-32.5 21.5q-13 1 -35.5 5.5t-48 11.5t-51.5 17t-47 22.5t-34.5 28.5t-13.5 35z" />
<glyph unicode="%" horiz-adv-x="570" d="M149 626q0 -2 -0.5 -1t-0.5 2zM441 313q0 -2 -0.5 -1t-0.5 2zM439 317q-1 1 1 -3q-1 1 -1 2v1zM54 478q0 -9 6 -26.5t15 -34t19.5 -29t19.5 -12.5t21 14t23 32.5t18.5 38t7.5 30.5q0 9 -7 22t-17 25.5t-21 21t-18 8.5q-6 0 -17 -12t-22.5 -27t-19.5 -30t-8 -21zM345 165 q0 -9 6 -26.5t15 -34t20 -29t20 -12.5t21 14t23 33t18.5 38.5t7.5 30.5q0 9 -7 22t-17 25.5t-21 21t-18 8.5q-6 0 -17.5 -12t-22.5 -27.5t-19.5 -30.5t-8.5 -21zM76 380q-5 17 -17 31t-23 27q-9 10 -17 18.5t-11 16.5v1q0 2 0.5 0t0.5 0q2 2 12 13.5t21 22.5q5 5 8 9.5 t6 6.5h1q5 6 12 18t15 24h1q12 22 26 42t28 20h5q1 0 4 -3q-2 4 -1 3q5 -25 12.5 -48t19.5 -42h2q3 -4 6.5 -8t7.5 -9q11 -11 19.5 -21.5t8.5 -19.5q0 -4 -3 -6l-99 -150zM367 68q-4 17 -16 30.5t-23 27.5q-9 9 -17.5 18t-10.5 16v1q0 2 0.5 0t0.5 0q2 2 12 13.5t21 22.5 q9 12 13 16h1q5 6 12.5 18t15.5 25h1q12 22 25.5 41.5t27.5 19.5h6q2 0 3 -1q5 -24 12.5 -47t19.5 -41h1l15 -18q11 -11 19 -21.5t8 -19.5q0 -4 -2 -6l-99 -149zM88 47q1 3 4 10.5t6 10.5l1 1l283 536q11 17 26 24.5t30 7.5q3 0 3 -1q0 -6 -3.5 -15.5t-8.5 -17.5 q-1 -2 -1.5 -4t-1.5 -4v-1l-17 -41q-6 -15 -20.5 -47t-30 -65.5t-29.5 -61.5t-19 -36l-1 -1q-3 -5 -7 -13t-9 -19q-10 -22 -25 -54t-32 -66.5t-35 -68.5t-35.5 -61t-33.5 -44t-27 -17q-2 0 -1 0.5t0 0.5q-22 4 -22 24q0 7 5 20z" />
<glyph unicode="&#x26;" horiz-adv-x="626" d="M250 148l13 -13v-212q0 -2 3 -2h9q4 0 6 0.5t4 0.5h6q2 0 4 -0.5t5 -0.5h9t4 2v200q0 4 6 16.5t11 16.5l3 3q3 2 4 2h7q23 0 39.5 -7t28.5 -19t22 -27t19 -31q15 -26 32 -47t47 -21q12 0 16 4.5t4 15.5q0 12 -5 20.5t-12 16.5l-1 1q-8 10 -15 21.5t-7 27.5q0 23 11 39.5 t25 32.5q11 13 20 26.5t9 30.5q0 23 -11 36t-25 25q-15 14 -28 30t-13 45v7t1 10l3 8l84 96q1 6 1 7t0 -1q0 10 -5 25t-14 15q-1 0 -1.5 -0.5t-2.5 -0.5h2l-109 -108q-6 -8 -16 -24q-9 -16 -20.5 -31.5t-28.5 -21.5q-3 -3 -11 -3t-15.5 2t-14.5 4q-3 1 -7.5 1.5t-8 1.5 l-3.5 1q0 1 6 1l-12 13q0 14 1.5 26t3.5 24q2 11 4 23t2 23q0 17 -6 30t-26 13h-6q-10 -4 -24 -12t-14 -18v-5l12 -88v-14q0 -3 -1.5 -14t-5 -23t-9.5 -22.5t-16 -14.5l-12 2q-23 16 -43 37q-16 15 -34.5 32.5t-36.5 32t-33.5 24t-26.5 9.5q-14 0 -30.5 -5.5t-16.5 -20.5 q0 -20 14 -27t31 -11q23 -6 40.5 -16t17.5 -39v-7l-1 -4q-6 -17 -20.5 -27.5t-28.5 -21.5q-15 -10 -27 -19.5t-12 -20.5q0 -9 6.5 -19.5t16 -20.5t19.5 -19t17 -16q5 -3 7.5 -5t5.5 -6l4 -8v-3q0 -2 0.5 -4.5t0.5 -4.5q0 -20 -11.5 -34.5t-24.5 -28.5q-11 -10 -19 -20.5 t-8 -22.5q0 -9 11.5 -14t19.5 -5h2l71 71q13 12 34 30t37 31q8 6 9.5 8t7.5 7l8 3h12zM324 246q0 15 13 30.5t31 29t37.5 22t31.5 8.5q37 0 57 -26t20 -63q0 -5 -6.5 -21t-15.5 -33.5t-19.5 -31.5t-18.5 -14q-6 0 -7 1l-116 77l-6 8q-1 5 -1 6v7zM113 229q0 15 7 27.5 t17.5 22t24 14.5t27.5 5q28 0 45 -21.5t17 -47.5q0 -18 -7.5 -31t-20 -21.5t-28.5 -12.5t-32 -4q-15 0 -24.5 7.5t-15 18t-8 22.5t-2.5 21z" />
<glyph unicode="'" horiz-adv-x="184" d="M13 576q5 0 13 4v-4h-13zM134 692q0 -8 -11.5 -23.5t-28 -33t-35 -33t-33.5 -22.5l15 109v3q0 25 15.5 34t39.5 9q23 0 30.5 -12.5t7.5 -30.5z" />
<glyph unicode="(" horiz-adv-x="235" d="M14 239q0 19 7.5 47.5t20.5 60t30 62.5t37.5 56t42.5 40.5t44 15.5q0 -13 -12 -34t-28 -48q-25 -39 -47.5 -87t-22.5 -109q0 -39 3 -69.5t13 -57t28.5 -50t49.5 -47.5v1q0 -2 0.5 -3.5t0.5 -3.5q0 -8 -9.5 -11t-20.5 -3q-18 0 -35.5 14.5t-32.5 37t-28 50t-22 54.5 t-14 49.5t-5 34.5z" />
<glyph unicode=")" horiz-adv-x="235" d="M196 239q0 19 -7.5 47.5t-20.5 60t-30.5 62.5t-37.5 56t-42 40.5t-44 15.5q0 -13 11.5 -34t28.5 -48q24 -39 46.5 -87t22.5 -109q0 -39 -3 -69.5t-12.5 -57t-28 -50t-49.5 -47.5v1q-1 -3 -1 -7q0 -8 9.5 -11t20.5 -3q18 0 35 14.5t32.5 37t28 50t22 54.5t14.5 49.5 t5 34.5z" />
<glyph unicode="*" horiz-adv-x="397" d="M348 720h1l-1 -1v1zM173 414q-2 3 -3 3h3v-3zM193 417q-2 0 -2 -3v3h2zM73 566q0 -14 8 -27.5t28 -13.5q21 0 39 9t18 32q0 15 -11.5 28t-30.5 13q-17 0 -34 -11.5t-17 -29.5zM198 569l7 -11l67 -38l6 -2q1 0 1 -1h1q5 0 12 8t13 18.5t10.5 20t4.5 12.5q0 21 -12.5 36 t-37.5 15q-8 0 -20.5 -5t-24 -13t-19.5 -17t-8 -17v-6zM173 417v101l-13 13h-7l-7 -2q-14 -10 -22 -15.5t-13 -9.5t-8.5 -6.5t-8.5 -6.5l-1 -1l-40 -34h1q-3 0 -8 0.5t-5 1.5q0 5 4 8.5t9 8.5h1q8 6 15.5 14.5t7.5 22.5v6l-5 9l-3.5 3t-5.5 5q-9 7 -20.5 15.5t-11.5 15.5 q0 2 5.5 5t13.5 8h1q10 5 18.5 11t13.5 17l1 6v3q0 20 -12 25.5t-26 9.5h-1q-8 2 -14.5 4t-6.5 9q0 3 7.5 4.5t13.5 1.5q5 0 13 -4.5t17.5 -11t19.5 -15t19 -15.5q10 -8 18.5 -14t14.5 -9h9q7 3 12 9.5t7 13.5t3 12.5t1 7.5v9l-7 44v1q0 2 7.5 4.5t12.5 4.5q8 0 11 -4.5 t3 -10.5q0 -5 -1 -10.5t-3 -11.5q-3 -12 -3 -27l13 -13q-1 0 7 -2h1l16 -4q7 0 8 2q14 3 21.5 11.5t12.5 17.5q3 3 5.5 7l2.5 4l61 53q3 -1 4.5 -5.5t1.5 -6.5l-48 -48l-4 -6q-1 -5 -1 -6v-5q0 -19 9 -27.5t19 -16.5h1q7 -4 11.5 -9.5t4.5 -13.5t-4.5 -14t-10.5 -11 q-9 -9 -15.5 -18t-6.5 -23q0 -11 2.5 -15.5t6.5 -9.5q5 -5 9.5 -11t4.5 -8q0 -3 -6 -3q-16 0 -25 10t-17 22q-11 17 -25.5 31t-42.5 14q-6 0 -7.5 -0.5t-5.5 -5.5q-5 -4 -8.5 -10.5t-3.5 -10.5v-95h-18z" />
<glyph unicode="+" horiz-adv-x="481" d="M281 115q0 6 -1 14t-3 30q-2 25 -2.5 56t-2.5 64l13 13q13 0 24 0.5t20 0.5q40 0 43 -3q-1 0 5.5 -0.5t14.5 -1.5t16 -1.5t10 -0.5q12 0 21.5 16t9.5 31q0 5 -2 7q-2 3 -15.5 5.5t-36 5t-52 5t-62.5 4.5l-12 12q-1 16 -1.5 30.5t-0.5 25.5q0 39 4 43v6q0 2 0.5 4.5 t0.5 4.5q0 7 -5.5 17.5t-13 19.5t-16.5 16t-16 7q0 1 -3 -2q-2 -2 -4.5 -15.5t-4.5 -36t-4.5 -52t-4.5 -62.5l-13 -12q-6 0 -13 0.5t-13 0.5h-1q-32 2 -59 3.5t-47 1.5q-19 0 -28.5 -1t-6.5 -4l4 -74h3t11 -1q18 -2 47 -3.5t63 -1.5q8 0 16.5 0.5t17.5 0.5l13 -14 q-1 -12 -1.5 -23.5t-1.5 -22.5q-2 -25 -3.5 -47t-2.5 -38t-0.5 -23t3.5 -2z" />
<glyph unicode="," horiz-adv-x="215" d="M-1 -115q0 -1 -4 0q3 0 4 1v-1zM54 42q0 24 14.5 33t37.5 9q22 0 29 -12t7 -30q0 -8 -17 -32t-40.5 -50.5t-47.5 -48.5t-38 -25q0 13 9.5 36t20.5 46t18 43t7 31z" />
<glyph unicode="-" horiz-adv-x="481" d="M65 324q25 1 55 2t61.5 2t62 1.5t55.5 0.5q32 0 53 -1t22 -4q2 0 0 -0.5t1 -0.5h9q7 0 17.5 6.5t20.5 15.5t16.5 19.5t6.5 19.5q-3 4 -30 8.5t-67 8.5t-88 7.5t-94 6.5q-48 5 -88.5 7t-62.5 7l-2 -109q5 0 16 0.5t36 2.5zM16 449l-19 -12q2 -4 18 -7z" />
<glyph unicode="." horiz-adv-x="238" d="M60 47q0 27 16 37.5t41 10.5q24 0 32 -14t8 -34q0 -8 -3 -18t-8.5 -20t-13.5 -16.5t-18 -6.5h-2q-23 6 -37.5 23t-14.5 38z" />
<glyph unicode="/" horiz-adv-x="462" d="M34 47q1 3 4.5 10.5t5.5 10.5l1 1l289 536q11 17 26 24.5t31 7.5q3 0 3 -1q0 -6 -4 -15.5t-8 -17.5q-1 -2 -1.5 -4t-1.5 -4v-1l-17 -41q-6 -15 -21 -47t-31 -65.5t-30.5 -61.5t-19.5 -36l-1 -1q-2 -5 -6.5 -13t-9.5 -19q-11 -22 -26 -54t-32 -66.5t-36 -68.5t-36.5 -61 t-33.5 -44t-28 -17q-2 0 -1 0.5t0 0.5q-22 4 -22 24q0 7 5 20z" />
<glyph unicode="0" d="M263 309q0 22 12.5 30t32.5 8q19 0 25.5 -10.5t6.5 -27.5q0 -6 -2.5 -15t-7 -16.5t-10.5 -13t-14 -5.5h-2q-19 5 -30 19t-11 31zM175 311q0 -18 11.5 -51t28 -66t36 -57t36.5 -24q10 0 24 13t28 33.5t27.5 46t24.5 50.5t17.5 47.5t6.5 36.5q0 16 -13 40.5t-31 47.5 t-38 39.5t-34 16.5q-11 0 -31.5 -22.5t-41 -52t-36 -58t-15.5 -40.5zM193 103q-8 39 -30.5 67t-47.5 53q-19 20 -35 38.5t-21 36.5v7l2 6q4 2 14.5 13.5t24 26.5t27 31t23.5 27v1l8 10h1q13 14 26 36t27 47q14 24 28.5 48t29.5 43.5t31.5 32t34.5 12.5h11h10q6 0 7 -2 q8 -50 22.5 -97.5t43.5 -90.5q7 -8 15.5 -17.5t18.5 -20.5q20 -23 38.5 -47t18.5 -45q0 -5 -1 -10t-5 -10l-213 -324z" />
<glyph unicode="1" horiz-adv-x="211" d="M13 49q0 -17 12.5 -30.5t36.5 -18.5q2 0 1.5 -0.5t1.5 -0.5q12 0 21 16.5t15.5 42.5t11 59t7.5 67t5.5 65t3.5 53q0 7 0.5 15t1 14.5t1 9t0.5 -1.5q1 9 3.5 37t4.5 61.5t4 65t2 46.5v63q0 9 -2 17t-11 8q-17 0 -30 -7t-15 -21l-73 -535v-11q0 -4 -1 -8t-1 -6z" />
<glyph unicode="2" horiz-adv-x="492" d="M47 302h8q-3 -11 -3 -16v-9t-1 -10q-1 -6 -1.5 -11.5t-0.5 -9.5q0 -3 0.5 -7t2 -11.5l4 -20t7.5 -32.5q5 -27 14 -68t23 -105q5 -12 12 -14.5t18 -2.5q9 0 15 0.5t12 2t12 4t14 6.5q4 2 22 4.5t42.5 5t52 5t51 4.5t39 3.5l15.5 1.5q0 7 -0.5 17t-2.5 19t-5.5 15t-10.5 6 q-24 0 -53.5 -3t-60.5 -7q-29 -5 -58 -7.5t-55 -2.5l-13 11q-1 4 -1 5t-2 8q-3 12 -7.5 32t-11 41t-14 41t-14.5 33l3 15q11 14 23.5 25.5t35.5 11.5q5 0 8.5 -0.5t7.5 -1.5l7 -4q5 -5 12.5 -6t18.5 -1h50q15 -3 31 -3q26 0 43.5 4.5t26.5 9.5h1q5 2 6 2h4h3q2 0 5.5 2 t10.5 8.5t19 19t32 34.5l-76 52l-51 32q-1 0 -10 6.5t-22.5 17t-30.5 23.5l-34 26t-32.5 25t-26.5 20h-1q-18 15 -27 24q-7 6 -13 11t-14.5 8.5t-20 5t-30.5 1.5h-2q-5 -2 -14 -8t-11 -8v-1q0 -19 17.5 -37.5t46.5 -35.5q11 -7 26.5 -15.5t39.5 -21.5v-1q16 -8 56.5 -36 t87.5 -68l-1 -18q-17 -13 -35.5 -18t-38.5 -5t-38.5 3.5t-35.5 8.5q-24 6 -41 6t-31 -7t-23 -27z" />
<glyph unicode="3" horiz-adv-x="492" d="M55 297q-1 2 -1 15q0 20 30 30l1 1q10 3 23 3t28 -3.5t32 -7.5t33 -7t35 -3q14 0 29 3l24 -4l13 19q-17 28 -39 50t-45.5 39.5t-47 30.5t-44.5 24q-26 13 -43 23.5t-17 16.5q0 14 7.5 25.5t30.5 11.5q62 0 131 -52t150 -168l62 -90l-77 -53l-51 -33q-2 0 -20.5 -14 t-43 -33t-50.5 -39t-42 -33h-1q-5 -5 -11.5 -10t-15.5 -15q-6 -6 -12 -10.5t-14.5 -8t-20.5 -5t-31 -1.5h-2q-5 2 -14 8.5t-11 8.5v1q0 19 17.5 37.5t46.5 35.5q11 7 26.5 15.5t39.5 20.5v1q16 10 47.5 33.5t79.5 64.5l-1 19q-35 26 -76 26q-23 0 -49 -8q-14 -3 -26.5 -5 t-20.5 -2q-17 0 -31 7t-23 27l-11 8h6z" />
<glyph unicode="4" horiz-adv-x="507" d="M23 428q0 5 -1 8q-2 6 -3.5 15t-3.5 17t-3 14t-1 7q0 14 6 26t19 12t22 -20.5t16 -54.5t11.5 -76.5t9.5 -87.5l21 -8q32 25 64 35t63 16q35 6 66 17t57 42l3 9q-2 28 -3.5 55t-1.5 54v28q0 5 0.5 8.5t0.5 8.5v11q11 0 21 -13t18.5 -35.5t16 -52t13.5 -63.5l4 -7 q11 -9 19 -18.5t8 -16.5q0 -3 -15 -18l-5 -11q6 -42 10.5 -83.5t7.5 -77.5t4 -63.5t1 -41.5v-13q0 -5 -1 -9.5t-1 -9.5v-27q-1 -1 -5.5 -2.5t-6.5 -1.5q-15 0 -24.5 7t-15.5 18.5t-8 25t-2 26.5v20q0 17 -1 19q-3 40 -8 79.5t-11 81.5l-16 10q-41 -10 -88.5 -24.5t-91 -29 t-77.5 -27.5t-47 -20z" />
<glyph unicode="5" horiz-adv-x="492" d="M55 283q-3 10 -3 16v7q0 5 -1 10q-1 7 -1.5 12.5t-0.5 10.5q0 19 6 21q2 0 4 0.5t7 4.5l3 13l-8 22q1 4 3.5 18t6 32t8 39t9.5 40q4 18 7 32t5 22q5 11 12 13.5t18 2.5q17 0 26.5 -2.5t26.5 -9.5q4 -2 22 -4.5t42.5 -5t52 -5t51 -4.5t39 -3.5l15.5 -1.5q0 -8 -0.5 -17.5 t-2.5 -18.5t-5.5 -15t-10.5 -6q-24 0 -53.5 3t-60.5 7q-29 4 -58 7t-55 3l-13 -11q-1 -4 -1 -5t-2 -8q-3 -12 -7.5 -32t-11 -41t-14 -41t-14.5 -33l3 -15q11 -14 23.5 -25.5t35.5 -11.5q5 0 8.5 0.5t7.5 1.5l7 4q5 5 12.5 6t18.5 1h50q8 1 16 1.5t15 0.5q26 0 43.5 -4 t26.5 -9h1q5 -2 6 -2h4h3q2 0 5.5 -2t10.5 -8.5t19 -19t32 -34.5l-76 -52l-51 -32q-2 0 -20.5 -14t-43 -33t-50.5 -39t-42 -33h-1q-5 -5 -11.5 -10t-15.5 -15q-6 -6 -12 -10.5t-14.5 -7.5t-20.5 -5t-31 -2h-2q-5 3 -14 9t-11 8v1q0 19 17.5 37.5t46.5 35.5q11 7 26.5 15.5 t39.5 20.5v1q16 9 56.5 36.5t87.5 68.5l-1 18q-17 13 -35.5 18t-38.5 5q-19 0 -37.5 -3.5t-36.5 -9.5l-20 -4t-21 -2q-17 0 -31 7.5t-23 27.5l-11 7h8z" />
<glyph unicode="6" horiz-adv-x="460" d="M304 116q2 1 5 16t5.5 34t4.5 39t2 32q0 7 0.5 25.5t2.5 39.5q1 21 1.5 40t0.5 27l-13 12q-6 0 -20.5 -7t-33 -17.5t-39 -23.5t-38.5 -25t-31 -22.5t-18 -15.5v-17q10 -11 27 -30.5t36.5 -41t40.5 -42.5t38 -36l17 1zM411 608q-1 -3 -2 -16.5t-2.5 -33t-3 -41.5t-2.5 -41 t-2 -33t-1 -17q-1 -7 -2.5 -29t-3 -52t-2.5 -63.5t-2.5 -63.5t-2 -52t-0.5 -29q0 -2 -0.5 -4.5t-0.5 -4.5q-1 -18 -3 -40.5t-8 -42t-18.5 -33t-33.5 -13.5h-12q-5 0 -6 0.5t-3 0.5l-137 134q-9 6 -24 18v1q-17 12 -38.5 28t-41 32.5t-33 31t-13.5 23.5q0 15 15 29.5 t39.5 28.5t55 27t61.5 25q28 11 53.5 21.5t46 22t34 23t16.5 25.5q2 10 2.5 25t0.5 35v7q0 19 0.5 38t4.5 35t11 26t21 10q11 0 17 -5t14 -19l3 -3l3 -3v-8z" />
<glyph unicode="7" horiz-adv-x="435" d="M395 51q-2 34 -9 68t-16 69q-10 38 -17.5 77t-7.5 81q0 35 -2.5 81t-11.5 87.5t-26.5 70t-48.5 28.5q-11 0 -33.5 -10t-49.5 -26t-55.5 -36t-52 -41t-38.5 -40t-15 -32q0 -21 8 -37t32 -16q23 0 39.5 16t33.5 36v1q19 23 40 42.5t53 19.5q2 0 4.5 -0.5t4.5 -0.5h3l12 -9 q6 -17 11.5 -56.5t12.5 -92.5q7 -55 15 -116.5t17 -113.5t20 -86t24 -34q30 0 41.5 22t11.5 48z" />
<glyph unicode="8" d="M401 263q-7 1 -16 1h-20q-29 0 -67 -1t-73 -3q-6 0 -10 -0.5t-9 -0.5l-12 -18q11 -20 25.5 -41t29.5 -38.5t28 -29t22 -11.5q13 0 30 13t33.5 32.5t30 41t18.5 39.5zM395 341q-10 27 -23.5 54t-28.5 48.5t-29.5 35.5t-26.5 14t-26 -12.5t-27 -32.5t-25 -44t-19 -47 l10 -17q22 -2 48 -3q32 -2 67.5 -5t67.5 -7zM302 631l213 -324q4 -5 5 -10.5t1 -10.5q0 -21 -18.5 -44.5t-38.5 -46.5q-10 -11 -18.5 -20.5t-15.5 -17.5q-29 -43 -43.5 -91t-22.5 -97q-1 -2 -7 -2h-10h-11q-18 0 -34.5 12t-31.5 31.5t-29.5 44t-28.5 48.5q-14 25 -27 47 t-26 36q-5 6 -19 22t-29.5 33t-29.5 32t-20 19v1q0 2 -2 7v8q5 18 21 36.5t35 38.5q25 25 47.5 53t30.5 67z" />
<glyph unicode="9" horiz-adv-x="459" d="M423 29v5q-1 4 -5.5 24.5t-9 44t-8 44.5t-3.5 26q-1 7 -2.5 29t-2.5 52t-2.5 63.5t-2.5 63.5t-1.5 52t-0.5 29q0 3 -1 5t-1 4q-1 18 -3 40.5t-8.5 42.5t-18 33.5t-32.5 13.5q-2 0 -5.5 -0.5t-7.5 -0.5h-8l-137 -134q-9 -8 -24 -18v-1q-17 -12 -38.5 -28.5t-41 -33 t-33 -31t-13.5 -23.5q0 -15 15 -29.5t39.5 -28.5t55 -27t61.5 -25q27 -11 52.5 -21.5t46 -22t33.5 -23.5t16 -26q4 -11 5 -21.5t2 -21.5q1 -15 3 -30t6.5 -27.5t13.5 -20.5t24 -8q12 0 17.5 5t13.5 19l3 3zM291 496l13 -13q1 -2 4 -16t6 -33.5t5 -39.5t2 -32q0 -7 0.5 -26 t1.5 -40t1.5 -39.5t0.5 -26.5l-13 -12q-6 0 -20 7t-32.5 17.5t-39 23.5t-38.5 25t-31 22.5t-18 15.5v17q9 11 26 30.5t36.5 41t40.5 43t38 36.5z" />
<glyph unicode=":" horiz-adv-x="236" d="M59 39q0 -17 14.5 -31.5t37.5 -19.5h3q10 0 17.5 5.5t13 13.5t8.5 17t3 15q0 17 -8 28.5t-32 11.5q-25 0 -41 -8.5t-16 -31.5zM62 348q0 -18 14.5 -32t37.5 -19h2q10 0 18 5.5t13 13.5t8 17t3 15q0 17 -8 28t-31 11q-25 0 -41 -8t-16 -31z" />
<glyph unicode=";" horiz-adv-x="215" d="M54 39q0 -10 -7 -28.5t-18 -39.5q-11 -22 -20.5 -42.5t-9.5 -33.5q14 4 38 24t47 44.5t40 46.5t17 29q0 17 -7 28t-29 11q-23 0 -37 -8.5t-14 -30.5zM56 344q0 -17 13 -31.5t34 -19.5h2q9 0 16 5.5t12.5 13.5t8 17t2.5 15q0 17 -7 28t-29 11q-23 0 -37.5 -8.5 t-14.5 -30.5zM-1 -105q-1 0 -2 -0.5t-2 -0.5q4 -1 4 0v1z" />
<glyph unicode="&#x3c;" horiz-adv-x="458" d="M389 503v-2v2zM389 501q0 -1 0.5 -2l0.5 -1zM12 231v3v-2h1zM12 231q-1 -2 -3 -4zM390 498q0 -7 -10.5 -19t-26.5 -26t-34.5 -28t-33.5 -25v-1q-11 -9 -19.5 -15t-13.5 -11l-115 -113l-5 -9v-3q0 -2 -0.5 -4.5t-0.5 -4.5q0 -18 8 -35.5t20.5 -33.5t28.5 -31.5t32 -30.5 q26 -25 46.5 -47t20.5 -42q0 -8 -5 -12t-12 -6t-15 -2.5t-14 -0.5q-9 0 -28 11.5t-41.5 29.5t-47 41t-44 46t-32.5 43.5t-13 34.5q0 4 -3 8t-7 8q-9 7 -12 12l4 7v5q0 2 -0.5 5.5t-0.5 7.5l-1.5 0.5t-3.5 0.5q17 2 42.5 28.5t58.5 64.5q25 29 53 60.5t56.5 58t56.5 43.5 t53 17q20 0 35 -4.5t24 -27.5z" />
<glyph unicode="=" horiz-adv-x="481" d="M15 357q5 0 9 0.5t20 0.5q35 0 84.5 0.5t98.5 0.5h53q26 0 45.5 -1t31.5 -2t13 -2q2 0 0 -0.5t2 -0.5h9q7 0 17.5 5.5t20.5 13.5t16.5 17t6.5 16q-3 4 -30 8t-67 7.5t-88 6.5t-94 6q-48 3 -88 5t-62 7zM62 182q25 1 55.5 2t62 2t61.5 1.5t55 0.5q33 0 54 -1t22 -4 q2 0 -0.5 -0.5t1.5 -0.5h9q7 0 17.5 5.5t20.5 13.5t16.5 17t6.5 17q-3 4 -29 7.5t-65.5 6t-87 4t-93.5 3.5q-50 2 -91 3.5t-63 5.5l-3 -85q5 0 16 0.5t35 1.5zM13 461l-19 -11q3 -3 19 -5v16zM15 280l-19 -11q4 -2 18 -4z" />
<glyph unicode="&#x3e;" horiz-adv-x="458" d="M12 27q0 -1 0.5 -1.5l0.5 -0.5zM390 296v-3l-1 1zM390 296q0 3 0.5 3.5t2.5 1.5zM12 29q0 7 10.5 19.5t26.5 26.5t34 28t33 25v1q11 8 19 14t14 12l116 113l4 8v4q0 2 0.5 4.5t0.5 4.5q0 18 -8 35.5t-20.5 33.5t-28 31.5t-31.5 30.5q-26 24 -47 46.5t-21 42.5q0 8 5 12 t12 6t15 2.5t14 0.5q9 0 28 -11.5t41.5 -29.5t47 -41t44 -46t32.5 -43.5t13 -34.5q0 -3 3.5 -8t8.5 -10q2 -2 5.5 -6t5.5 -6l-5 -5v-5q0 -2 0.5 -6t0.5 -8h5q-17 -2 -42.5 -28.5t-58.5 -64.5q-25 -29 -53 -61t-56.5 -58t-56.5 -43t-53 -17q-19 0 -34.5 4t-23.5 27z" />
<glyph unicode="?" horiz-adv-x="492" d="M49 265h8q-3 -11 -3 -16v-8t-1 -9q-1 -7 -1.5 -13t-0.5 -11q0 -8 0.5 -13t2.5 -6q5 -2 10.5 -2.5l5.5 -0.5q11 0 18 7t15 16v1q11 12 24 23.5t34 11.5q6 0 9.5 -0.5t6.5 -1.5l6 -4q8 -8 31 -8q6 0 11 0.5t10 0.5h29q8 -1 16 -1.5t15 -0.5q26 0 43.5 4t26.5 9h1q5 2 6 2h4 h4q1 0 4.5 2t10.5 8.5t19 19t32 34.5l-76 52l-51 32q-2 0 -20.5 14t-43 33t-50.5 39.5t-42 32.5h-1q-8 8 -15 13.5t-12 10.5q-7 6 -13 11t-14 8.5t-20 5t-31 1.5h-2q-5 -2 -14 -8t-11 -8v-1q0 -19 17.5 -37.5t46.5 -35.5q11 -8 26.5 -16t39.5 -21v-1q16 -8 56.5 -36 t87.5 -68l-1 -19q-17 -13 -35.5 -18t-38.5 -5q-17 0 -34.5 3.5t-32.5 8.5q-14 2 -26.5 4.5t-21.5 2.5q-17 0 -31 -7.5t-23 -27.5zM48 39q0 -17 11.5 -31t29.5 -19h2q8 0 14 5.5t10.5 13t7 16.5t2.5 15q0 17 -6 27.5t-26 10.5t-32.5 -8t-12.5 -30z" />
<glyph unicode="@" horiz-adv-x="523" d="M298 301q0 9 15 16t34 11t35.5 6t18.5 2h1v25q-2 0 -0.5 0.5t13.5 5.5q5 22 5 65q0 20 -4.5 32.5t-17.5 12.5q-2 0 -5 -0.5t-5 -2.5q-11 -7 -26.5 -15.5t-39.5 -20.5q-33 -19 -167 -134l-4 -13q11 -45 34.5 -79t52.5 -59.5t60.5 -44t58.5 -32.5q26 -14 42.5 -23.5 t16.5 -15.5q0 -14 -7.5 -25.5t-30.5 -11.5q-61 0 -130 52t-150 168l-62 90l76 53l52 33q1 0 19.5 14t43.5 33t50.5 39t41.5 33h1q9 7 15.5 13t12.5 11q6 6 12 11t14 8.5t20 5t31 1.5h2q2 -1 16 -1h24t14 2l-17 -267q-1 -11 -1 -19v-13v-26q0 -3 0.5 -6.5t0.5 -8.5 q0 -6 -14 -15t-33 -17t-39 -14t-32 -6h-2q-9 3 -17.5 19.5t-14.5 36.5t-10 40t-4 31z" />
<glyph unicode="A" horiz-adv-x="477" d="M374 217l-98 357q-2 -2 -9 -4t-16 -5q-68 -196 -135 -325q-35 -67 -57 -105.5t-29 -49.5q-13 -20 -13 -47v-3q2 -2 8 -7.5t8 -7.5h1q23 0 32.5 8t18.5 21q5 6 10.5 13.5t13.5 15.5q8 9 22 38.5t30 67t31.5 77.5t27.5 69v1q10 24 17.5 39.5t12.5 15.5l12 -6l17 -31l1 -3 l82 -342l1 -1q-2 3 1 3h24q17 0 33.5 10t16.5 29q0 2 -0.5 4.5t-0.5 4.5q-5 7 -13.5 30t-17.5 51q-10 26 -17.5 48.5t-12.5 29.5zM276 574q6 2 0 2v-2z" />
<glyph unicode="B" horiz-adv-x="418" d="M40 23q1 -11 3.5 -20.5t7.5 -17t14.5 -12t25.5 -4.5q11 0 36.5 13t57 32.5t65 43t61.5 45t46 38t18 21.5q0 22 -19 36.5t-41 25.5q-24 14 -43 27.5t-19 39.5q0 25 20 37.5t45 24.5q21 8 38.5 19t17.5 28q0 9 -14 29.5t-35 45.5t-46.5 51.5t-49 48t-42 35.5t-25.5 14 q-26 0 -41.5 -18t-24.5 -45.5t-13 -59.5t-7 -60q-3 -34 -6 -52v-1q-5 -18 -11 -36t-12 -35q-13 -41 -23 -81t-10 -84v-12q0 -5 0.5 -11.5t0.5 -14.5v-12q0 -5 1 -10v-2v-5q12 -14 16.5 -30t7.5 -32zM84 144v37q1 7 4 20t7 25.5t7 21.5t4 9l25 11l5 1h1q3 0 15 -5.5t25.5 -13 t26.5 -15.5t19 -13v-1q2 -2 6 -8t8.5 -13.5t9 -14.5t7.5 -11l1 -6v-11l-4 -9l-7 -6l-8 -5l-1 -2l-91 -66l-8 -3h-27q-1 0 -5 9t-8 21.5t-7.5 26t-4.5 21.5zM122 388q0 3 -0.5 7.5t-0.5 9.5q0 7 -0.5 14.5t-0.5 15.5q0 14 1.5 28.5t7 26t15 18.5t24.5 7h7l6 -2q6 -3 18 -13 t25 -21.5t24.5 -21.5t15.5 -14q3 -3 10 -15t7 -15q0 -10 -17 -23t-38.5 -25t-43 -21t-30.5 -11l-5 -1q-17 2 -21.5 14t-4.5 25q0 5 0.5 9t0.5 6v2zM14 87l3 -8q0 1 -0.5 2.5t-0.5 3.5q-2 0 -2 2z" />
<glyph unicode="C" horiz-adv-x="492" d="M36 310l63 -90q81 -116 150 -168t131 -52q22 0 30 11.5t8 25.5q0 6 -17 15.5t-43 23.5q-27 14 -58.5 32.5t-60.5 44t-52.5 59.5t-34.5 79l4 13q134 115 167 134q36 18 66 36q29 17 47 35.5t18 37.5v1q-2 2 -11.5 8.5t-14.5 8.5h-2q-19 0 -30.5 -1.5t-20 -5t-14 -8.5 t-12.5 -11q-6 -5 -12.5 -11t-15.5 -13h-1q-16 -13 -41.5 -33t-50.5 -39t-43.5 -33t-20.5 -14l-52 -33z" />
<glyph unicode="D" horiz-adv-x="522" d="M195 482q-13 6 -24 12t-22 13l-19 -9q-1 -8 -1 -18q0 -9 -2 -20q-1 -22 -2.5 -46t-2.5 -44.5t-2 -36t-2 -21.5q-1 -11 -3 -46q-2 -29 -4 -70t-8 -83l19 -12q8 5 18.5 9.5t21.5 11.5q28 15 61.5 33.5t63.5 44t52 60t28 79.5l-5 10q-133 115 -166 133h-1zM16 22q0 2 0.5 6 t0.5 8v11l50 504l-2 8q-1 1 -1 6v4q0 3 1 8q1 3 1 7v7v1q3 2 12 8.5t14 8.5h13l6 1h8q4 0 6 -2l5 -2q15 -3 23.5 -10t18.5 -15q5 -5 12 -11t15 -12q16 -12 41.5 -32t50 -39t43 -32.5t20.5 -13.5l51 -33l77 -53l-63 -89q-80 -116 -149 -167.5t-130 -51.5q-8 0 -15 -4.5 t-12 -8.5q-2 -2 -3 -2.5l-1 -0.5q-2 0 -2.5 0.5t-1.5 0.5l-12 -10q-7 -29 -13.5 -39.5t-15.5 -10.5h-5l-1 1q-20 5 -31 18.5t-11 30.5z" />
<glyph unicode="E" horiz-adv-x="492" d="M435 297l-12 -8q-9 -20 -23 -27t-31 -7q-8 0 -21 2t-26 5q-26 8 -48 8q-41 0 -77 -26l-1 -19q48 -41 79.5 -64.5t47.5 -33.5v-1q24 -12 39.5 -20.5t26.5 -15.5q29 -17 47 -35.5t18 -37.5v-1q-2 -2 -11.5 -8.5t-14.5 -8.5h-2q-19 0 -31 1.5t-20 5t-14 8t-12 10.5 q-9 8 -15 14t-13 11h-1q-16 13 -41.5 33t-50.5 39t-43.5 33t-20.5 14l-52 33l-76 53l63 90q81 116 150 168t131 52q22 0 30 -11.5t8 -25.5q0 -6 -17.5 -16.5t-43.5 -23.5q-21 -11 -44.5 -24t-47 -30.5t-45.5 -39.5t-39 -50l13 -19l24 4q7 -2 14 -2h14q19 0 35.5 2.5 t33.5 6.5q16 4 31.5 7.5t28.5 3.5q12 0 24 -3l1 -1q29 -10 29 -30q0 -13 -1 -15h7z" />
<glyph unicode="F" horiz-adv-x="602" d="M11 42q0 -43 39 -43q9 0 15 5t10.5 13t6.5 17.5t4 18.5v1q1 3 1 4q0 2 1 4q1 7 3 25t4 38t3.5 37.5t1.5 24.5l1 7q11 20 20 26t30 6q15 0 28.5 -12t25 -28t20 -31.5t11.5 -22.5l1 -5q0 -1 0.5 3.5t0.5 5.5h7q8 0 18 6t18.5 15t14.5 19t6 18q0 2 -10.5 11t-26 21.5 t-35 26.5t-37 27t-31 22.5t-18.5 12.5l-6 10v125q0 7 3.5 10.5t9.5 8.5l12 6h6q9 0 21 -6.5t24.5 -17t25 -22.5t22.5 -23q7 -7 15 -16t6 -7l60 -58h8l8 6t18.5 15t21.5 19t19 18l1 1q9 7 30 27t44 43t43.5 44t26.5 29q-3 10 -7.5 17t-15.5 7q-32 0 -55.5 -18.5t-45.5 -41.5 q-18 -19 -37.5 -36.5t-46.5 -28.5l-7 -1q-12 3 -25.5 12.5t-27.5 24t-29 31.5t-29 34q-23 29 -42.5 50t-29.5 23q-24 -5 -43 -37.5t-34 -80.5t-26 -106t-18.5 -113.5t-12 -102.5t-6.5 -74l-9 -11q-4 -1 -5 -6t-1 -11q0 -4 0.5 -7.5t0.5 -5.5v-3z" />
<glyph unicode="G" horiz-adv-x="624" d="M97 369v1q20 33 47 71t61.5 71t77 55t92.5 22q22 0 30 -11.5t8 -25.5q0 -6 -16.5 -15.5t-42.5 -23.5q-27 -15 -58.5 -33.5t-58 -44t-44.5 -58.5t-18 -77q0 -29 14.5 -52.5t38 -43t53 -36t59.5 -32.5q8 -5 16.5 -8.5t16.5 -8.5l15 2l1 1q0 1 1 2l3 3l3 7l4 6q0 6 1 18.5 t2 25.5l2 22t2 21v1v6q0 5 -1 9q0 4 -1 6t-1 3l-12 12q-11 0 -21 -3l-20 -6q-8 -2 -15.5 -4t-15.5 -2h-8q-10 0 -11 -5v44q0 2 10 4.5t22 4.5t22.5 3.5t11.5 1.5l8 3l81 78l4 10l0.5 -4.5t2.5 -3.5q4 2 6.5 3t4.5 2h4q7 0 12 -7t9 -16.5t6.5 -20.5t4.5 -20q1 -5 4.5 -12.5 l3.5 -7.5q1 -5 6 -13.5t11 -17t11 -16.5t8 -11v-6l1 -1q0 -7 -10 -10t-19 -3q-14 0 -18 4.5t-6 12.5l-1 1q-2 7 -4.5 14.5l-2.5 7.5l-12 8h-4q-22 0 -27.5 -23t-5.5 -57v-32q0 -10 0.5 -18.5t0.5 -18.5q0 -31 -6 -52l1 -11q8 -13 8 -22v-1q-3 -2 -12 -8.5t-14 -8.5h-2 q-21 0 -36.5 3.5t-27.5 9.5t-22.5 14t-22.5 17l-1 1l-10 8t-12 9q-32 26 -61 44t-49 32h-1q-8 5 -14 8.5t-5 2.5l-1 2l-65 48l-58 55z" />
<glyph unicode="H" horiz-adv-x="526" d="M401 -1h2l34 67q3 89 9 181.5t29 181.5q0 4 1 6q3 14 7.5 33t4.5 21q0 14 -6.5 26t-19.5 12t-22.5 -20.5t-16 -54.5t-11.5 -76.5t-9 -87.5l-21 -8q-32 25 -63.5 35t-63.5 16q-35 6 -66 17t-57 42l-3 9q2 27 3.5 54.5t1.5 54.5v11q0 3 -0.5 7.5t-0.5 9.5v28q-11 0 -21 -13 t-18.5 -35.5t-16 -52t-13.5 -63.5l-4 -7q-11 -9 -19 -18.5t-8 -16.5q0 -3 16 -18l4 -11q-6 -42 -10.5 -83.5t-7 -77.5t-3.5 -63.5t-1 -41.5v-32q0 -5 0.5 -9.5t0.5 -8.5v-9q1 -1 5.5 -2.5t6.5 -1.5q15 0 24.5 7t15.5 18.5t8 25t2 26.5v20q0 17 1 19q3 40 8.5 79.5t10.5 81.5 l16 10q80 -21 126 -39t78 -36l2 -2l19 -16l29 -7l10 -14q-6 -54 -13 -91t-20 -51q3 -32 40 -32zM361 38l-7 -12q5 3 7 5v7z" />
<glyph unicode="I" horiz-adv-x="255" d="M44 49q0 2 0.5 6t0.5 8v11l73 535q3 14 15.5 21t29.5 7q9 0 11.5 -8t2.5 -17v-63q0 -15 -2 -46.5t-4 -65t-5 -61.5t-4 -37q0 4 0 1q0 -2 -0.5 -8.5t-1 -14.5t-0.5 -15q-2 -22 -4 -53t-5.5 -65t-8 -67t-11 -59t-15.5 -42.5t-21 -16.5q-2 0 -1 0.5t-1 0.5q-24 5 -36.5 18.5 t-12.5 30.5z" />
<glyph unicode="J" horiz-adv-x="435" d="M342 613q30 0 41.5 -21.5t11.5 -47.5q-2 -34 -9 -68.5t-16 -69.5q-10 -38 -17.5 -76.5t-7.5 -81.5q0 -23 -1 -51.5t-4 -58.5t-9 -58t-15.5 -50t-24.5 -35.5t-35 -13.5q-11 0 -33.5 10t-49.5 26t-55.5 36t-52 41t-38.5 40t-15 32q0 21 8 37t32 16q22 0 39 -16.5t34 -36.5 q18 -23 39.5 -42t53.5 -19q2 0 4.5 0.5t4.5 0.5h3l12 8q6 17 11.5 56.5t12.5 93.5q7 55 15 116.5t17 113t20 85.5t24 34z" />
<glyph unicode="K" horiz-adv-x="483" d="M13 544q0 27 13.5 36t38.5 9q12 0 19.5 -8t11.5 -21t6 -30t3 -34q1 -21 3.5 -40.5t8.5 -34.5t17 -24.5t31 -9.5q2 0 5 0.5t5 0.5h3l7 2q22 15 43 33t43 35q32 26 63.5 50.5t62.5 41.5h3q46 0 46 -43q0 -9 -12.5 -21.5t-33 -26.5t-46.5 -29.5t-53 -31.5 q-44 -26 -83.5 -50.5t-56.5 -45.5v-16q17 -19 53.5 -42.5t78.5 -47.5q28 -17 55 -33.5t49 -31.5t35.5 -28t13.5 -22q0 -43 -46 -43h-2q-32 16 -61.5 39t-58.5 46q-24 20 -48.5 39.5t-53.5 36.5l-19 -11q2 -13 4 -25.5t4 -24.5q5 -26 9.5 -51t4.5 -51q0 -20 -3.5 -29 t-23.5 -9q-18 0 -30 4.5t-20 25.5q-2 16 -3.5 31t-3.5 31q-9 94 -21 183.5t-36 179.5q-2 7 -4.5 14.5t-7.5 19.5t-9 25.5t-4 31.5z" />
<glyph unicode="L" horiz-adv-x="571" d="M14 508v-3q0 -2 -0.5 -5.5t-0.5 -8.5q0 -6 1 -10.5t3 -5.5l10 -12q2 -27 7 -73.5t12.5 -102t18.5 -113.5t26 -106t34 -80.5t43 -37.5h-1q9 0 25.5 20.5t35.5 46.5q13 16 26 33t26.5 31.5t27 24t27.5 11.5l8 -1q26 -11 44 -28.5t35 -36.5q19 -22 40.5 -39t51.5 -17 q11 0 15.5 7t8.5 17q-7 9 -27 29.5t-43 43t-44.5 42.5t-30.5 27h-1q-13 11 -22.5 24t-17.5 23q-9 11 -6 12h-5l-53 -53l-1 -1q1 1 -7.5 -7.5l-14.5 -14.5q-10 -11 -22.5 -23t-25 -22.5t-24.5 -17t-21 -6.5h-6l-13 6q-5 4 -9 8t-4 10q-6 47 -10.5 80.5t-8.5 57.5t-7 40.5 t-6 29.5q-3 16 -5.5 29.5t-5 32.5t-4.5 46.5t-3 71.5q0 8 -2 19t-6.5 21t-11.5 17t-18 7q-38 0 -38 -43zM287 166h-1h1z" />
<glyph unicode="M" horiz-adv-x="638" d="M461 232l5 -12l-16 -196q0 -3 5.5 -7.5t13 -8t14.5 -6.5t11 -3q18 0 29 26.5t16.5 64t7 78.5t1.5 69q0 15 0.5 24.5t1.5 14.5l10 44t10 45q11 45 20.5 90.5t9.5 87.5q0 16 -14.5 24t-28.5 8q-4 0 -8 -0.5t-6 -0.5q-52 -40 -109.5 -77.5t-114.5 -70.5l-6 -2h-3 q-3 0 -5.5 -0.5t-4.5 -0.5q-21 0 -39 11.5t-34.5 30.5t-32 42.5t-29.5 47.5q-21 35 -41 62.5t-36 27.5q-18 0 -30.5 -23t-21 -61t-13.5 -87.5t-7.5 -101.5t-3.5 -103t-1 -93v-117q0 -4 1 -7t1 -6v-4q10 -11 17 -14.5t20 -3.5q14 0 21 7.5t17 21.5v22v28t-1 26q-2 10 -2 20 v20q0 39 11 72t47 65l2 1q9 6 28.5 14t41.5 16t42.5 13.5t31.5 5.5l7 -2zM330 383l160 127l16 -1l12 -13l4 -8v-2q0 -3 0.5 -9t0.5 -13q0 -5 0.5 -9t0.5 -9v-28q0 -8 -0.5 -15.5t-0.5 -16.5t-7 -23.5t-15 -28.5q-10 -16 -12 -23q-2 10 -11 10v-25h-26q-29 2 -44.5 3.5 t-25 4.5t-15 8.5t-14.5 15.5q-2 2 -6.5 8t-9 12.5t-8 13t-4.5 9.5zM95 507l4 8l13 13q7 7 13.5 5t13.5 -10t14 -20t16 -23h1q12 -16 22.5 -29.5t13.5 -15.5t6.5 -4.5t7.5 -4.5q14 -8 25.5 -18t11.5 -22q0 -15 -18 -24.5t-42.5 -14t-49 -6t-37.5 -1.5l-12 12z" />
<glyph unicode="N" horiz-adv-x="495" d="M125 25q-1 1 -7 -4t-12 -11v-1q-5 -4 -7 -5.5t-5 -4.5h-1q-12 0 -24 10t-20 20q1 16 1 29v28q0 100 -10.5 195t-28.5 195v4q0 16 9 24.5t22 8.5q9 0 22 -7t28 -18.5t30.5 -25t29.5 -25.5q13 -12 23.5 -21l17.5 -15q12 -9 32 -22t39.5 -25.5t34.5 -21t16 -8.5h20l13 13 q0 7 0.5 24.5t1.5 37.5t2 37.5t1 25.5v1q-2 17 -5.5 30t-8.5 27l-1 1q-5 15 -8.5 31t-3.5 33q0 19 9 29t37 10q15 0 20 -9t10 -23l1 -1q1 -2 0.5 -4.5t0.5 -4.5q10 -40 19.5 -85t17 -90.5t11.5 -89t4 -80.5q0 -23 -9 -37t-33 -14q-35 0 -67.5 22.5t-65.5 48.5l-36 28 t-36.5 25t-38.5 18t-41 7l-13 -13l-2 -8v-1q-1 -4 -2 -8.5t-1 -12.5q0 -11 3 -18.5t11 -9.5v-239z" />
<glyph unicode="O" d="M302 -25l213 324q4 5 5 10t1 10q0 21 -19 45t-39 47q-9 10 -17.5 20t-15.5 18q-29 43 -43.5 90.5t-22.5 97.5q-1 2 -7 2h-10h-11q-18 0 -34.5 -12.5t-31.5 -32t-29.5 -43.5t-28.5 -48q-14 -25 -27 -47t-26 -36q-5 -6 -19 -22t-29.5 -33.5t-29.5 -32.5t-20 -19v-2t-2 -6 v-7q5 -18 21 -36.5t35 -38.5q24 -25 46 -52.5t32 -67.5zM175 311q0 12 15.5 40.5t36 58t41 52t31.5 22.5q14 0 34 -16.5t38 -39.5t31 -47.5t13 -40.5q0 -14 -6.5 -36.5t-17.5 -47.5t-24.5 -50.5t-27.5 -46t-28 -33.5t-24 -13q-17 0 -36.5 24t-36 57t-28 66t-11.5 51z M191 106l3 -6q0 1 -0.5 1.5t-0.5 1.5z" />
<glyph unicode="P" horiz-adv-x="459" d="M13 34v-5q2 -2 2.5 -3t2.5 -3q9 -14 14.5 -19t17.5 -5q15 0 23.5 8t13.5 20.5t6.5 27.5t3.5 30q1 13 2 24t3 19q4 14 17.5 26t34 23t46 21.5t52.5 21.5q31 12 61.5 25.5t55 27t39.5 28.5t15 30q0 9 -11 21.5t-28 27t-37 29.5t-37 27q-12 9 -22.5 17t-15.5 13v1l-136 133 h-9q-4 0 -7 0.5t-5 0.5q-21 0 -33.5 -13.5t-18.5 -33.5t-8 -42.5t-3 -40.5q0 -2 -0.5 -4t-0.5 -5q0 -7 -0.5 -29t-2 -52t-2.5 -63.5t-2.5 -63.5t-3 -52t-2.5 -29q0 -5 -3.5 -25.5t-8 -44.5t-8.5 -44.5t-5 -24.5zM144 496l17 1q17 -15 38 -36.5t40.5 -43t36.5 -41t27 -30.5 v-17q-5 -5 -18 -15.5t-31 -22.5t-38.5 -25t-39 -23.5t-33 -17.5t-20.5 -7l-13 12q0 8 1 26.5t2 39.5t1.5 40t0.5 26q0 12 2 32t4.5 39.5t5.5 33.5t5 16z" />
<glyph unicode="Q" horiz-adv-x="566" d="M8 -37q0 -17 16 -25.5t31 -8.5h6t6 2q41 43 89.5 85t98.5 75l9 2q32 -6 54.5 -26t42.5 -44q10 -12 21 -24.5t23.5 -22t27.5 -15.5t34 -6h14q11 0 20 1t14 6q1 2 1.5 11.5t0.5 14.5q0 9 -11.5 21t-28.5 26t-38 28l-39 26q-14 11 -24.5 17.5t-21.5 14.5v1l-12 13l-4 8 q0 25 24.5 40.5t58.5 31.5q19 8 38 17.5t34.5 21t25 26t9.5 32.5q0 28 -18.5 47.5t-39.5 36.5q-13 10 -23.5 19.5t-17.5 17.5l-1 1q-29 39 -43 83t-23 89q0 -2 -6 -2h-11h-11q-18 0 -34.5 -11t-32 -28t-29.5 -39t-27 -43q-14 -22 -27 -41t-27 -33q-5 -6 -19 -21.5t-30 -32 t-29.5 -29.5t-17.5 -16q0 -2 -0.5 -1t-0.5 -1v-3q-1 -4 -1 -6q0 -23 16.5 -38t36.5 -28q25 -15 44.5 -33t19.5 -50q0 -16 -7 -29.5t-19 -24.5t-27.5 -21.5t-31.5 -20.5q-15 -9 -30 -19t-27 -20.5t-19 -23.5t-7 -28zM174 311q0 7 7 21.5t18.5 32t25.5 35.5t27.5 33.5t26 25 t19.5 9.5q14 0 33.5 -15t37.5 -36t31 -43.5t13 -37.5q0 -19 -16 -40t-38.5 -39t-46 -29.5t-39.5 -11.5q-17 0 -34.5 8.5t-31.5 22t-23.5 30.5t-9.5 34z" />
<glyph unicode="R" horiz-adv-x="489" d="M236 483l-8 4h-25q-2 0 -8 -9.5t-12.5 -23t-12 -28t-6.5 -24.5v-2q0 -5 -0.5 -16t-2.5 -24q-1 -13 -2 -23.5t-1 -13.5l13 -13q12 0 20 0.5t14 2t12.5 5t16.5 9.5l64 37l6 11v37l-4 8zM24 36q0 37 10.5 75t23.5 76q11 30 19 58.5t11 52.5v1q1 14 3.5 42.5t7.5 63.5 t12.5 72t18 67t25.5 49.5t34 19.5q16 0 39 -13.5t49 -35.5t51.5 -49t46 -53.5t33 -49.5t12.5 -38q0 -20 -18.5 -32t-40.5 -21q-13 -6 -25.5 -12.5t-22.5 -14.5t-16 -18.5t-6 -25.5q0 -2 0.5 -4.5t0.5 -5.5v-3l4 -8l114 -112v-1q14 -11 22 -15.5t12 -6.5q1 0 1 -2v-9 q0 -26 -14 -36.5t-39 -10.5q-17 0 -31 7t-26 19t-22 27t-19 30q-12 18 -24 35t-26.5 30.5t-32 21.5t-40.5 8q-11 0 -18.5 -0.5t-12.5 -4.5t-8 -11.5t-6 -20.5q-2 -9 -5.5 -30.5t-7.5 -44.5t-7.5 -43.5t-4.5 -29.5l-30 -29h-1q-21 0 -33.5 8t-12.5 28z" />
<glyph unicode="S" horiz-adv-x="505" d="M372 10q-7 6 -12.5 11t-6.5 4v239q8 2 10.5 9t2.5 18q0 14 -1 15.5t-2 6.5q-2 4 -2.5 7.5t-0.5 1.5l-12 13q-21 0 -41 -7t-38.5 -18t-36.5 -25l-36 -28q-33 -26 -66 -48.5t-68 -22.5q-23 0 -31.5 14t-8.5 37q0 38 3.5 82t10.5 89.5t16.5 90t20.5 83.5q1 2 1 4q0 3 1 5 l1 1q4 14 9.5 23t20.5 9q27 0 36 -10t9 -29q0 -16 -4.5 -32.5t-9.5 -33.5q-4 -14 -7 -26.5t-5 -29.5v-1q0 -8 0.5 -25.5t1.5 -37.5t2 -37.5t1 -24.5l13 -13h16q1 -1 16 7.5t35 21t41 26t33 22.5v1q11 10 20.5 17.5t17.5 15.5q14 13 30 26.5t31.5 25t29 19t22.5 7.5 q13 0 22.5 -8.5t9.5 -24.5v-4q-18 -97 -29 -187.5t-11 -187.5q0 -19 0.5 -35.5t1.5 -36.5q-8 -10 -20.5 -20t-23.5 -10h-2l-11 10v1z" />
<glyph unicode="T" horiz-adv-x="459" d="M166 56q0 -23 13.5 -40t36.5 -17q12 0 19.5 2.5t13 8.5t9 15t8.5 22v1q0 2 2 4q1 12 3 41.5t4 62.5t3.5 63t1.5 42v22q0 19 7 36t31 17q2 0 4.5 -0.5t4.5 -0.5h8l51 -12h3q16 0 25 8.5t9 22.5q0 12 -5 20t-13 12.5t-17.5 7t-19.5 4.5q-24 5 -43 13.5t-19 35.5v236 q0 -1 -6.5 4t-13.5 12v1q-5 4 -7 5.5t-4 3.5h-1q-4 0 -12.5 -4t-17 -10t-15 -12.5t-6.5 -11.5v-182l-13 -13q-27 0 -46.5 12.5t-37.5 27.5q-14 11 -27.5 20.5t-28.5 9.5q-8 0 -17.5 -5.5t-18.5 -13t-15 -16t-6 -14.5q0 -7 10 -15t24.5 -16t30.5 -15t28 -12q5 -2 8 -3t5 -2 l4 -3q-2 2 2 0h1q7 -4 19 -9t24.5 -10t22.5 -9.5t15 -5.5l10 -12v-12q0 -5 0.5 -8t0.5 -5q0 -16 -3 -24t-5 -16q-2 -5 -3 -11.5t-3 -13.5q-2 -12 -5.5 -42t-7.5 -63t-8 -62.5t-5 -41.5l-4 -7q-2 -2 -4.5 -9.5l-3.5 -10.5v-3zM268 51v1v-1z" />
<glyph unicode="U" horiz-adv-x="517" d="M7 214v2v-1v-1zM115 573v-44l-15 -236v-1q0 -12 14 -30.5t36.5 -40t49.5 -43.5t53.5 -40t48.5 -29t34 -11q7 0 14.5 5.5t14 13.5t11 16.5t4.5 14.5v400q0 14 13.5 20t25.5 6t19.5 -7.5t11.5 -18t5.5 -23t1.5 -21.5v-2q3 -23 4 -57t1 -74q0 -51 -1 -103.5t-2 -94.5 q-1 -24 -1.5 -42.5t-0.5 -29.5q0 -12 -5 -29.5t-14 -34t-22.5 -28t-29.5 -11.5q-5 0 -25.5 11t-49 28.5t-61.5 38t-63 39.5q-32 20 -57.5 36t-34.5 21h-2q-2 1 -10 4t-18 6.5t-19.5 6.5t-15.5 5q-10 2 -12.5 3.5t-4.5 3.5q0 8 -6 14l25 92v278q0 9 13.5 11.5t23.5 2.5 q32 0 45 -19z" />
<glyph unicode="V" horiz-adv-x="477" d="M82 366l97 -358q6 4 26 12q66 194 134 323q35 67 57 105.5t29 50.5v1q14 21 14 46v2l-16 16h-2q-23 0 -32 -8t-18 -20q-2 -3 -3 -5t-3 -5t-6 -7.5t-13 -13.5q-6 -8 -18.5 -34.5t-27.5 -61.5t-30.5 -73t-27.5 -69q-12 -30 -22.5 -49.5t-14.5 -19.5l-12 8l-17 33l-81 335 q-2 3 -4 3h-23q-17 0 -33.5 -9.5t-16.5 -28.5q0 -2 0.5 -5t0.5 -5q2 -3 8.5 -21.5t14.5 -42.5q10 -30 21 -58t17 -36zM180 7l-1 1q-1 -1 1 -1z" />
<glyph unicode="W" horiz-adv-x="626" d="M588 503q0 5 -1.5 15.5t-5.5 21t-9.5 18.5t-12.5 8h-1q-5 -3 -12 -10t-14 -15t-12 -16.5t-7 -14.5q-1 -10 -2.5 -31.5t-2.5 -48.5t-2.5 -56.5t-2.5 -56.5t-1.5 -48t-0.5 -31q0 -2 0.5 -3.5t0.5 -5.5q1 -6 1 -14v-15q0 -23 -7 -43.5t-32 -20.5q-17 0 -31 7.5t-26 20 t-22 28t-20 31.5q-9 15 -17.5 29t-18.5 25t-21.5 18t-25.5 7q-15 0 -28.5 -7.5t-25.5 -19t-23 -26t-21 -27.5q-6 -7 -10.5 -13t-14.5 -17l-9 -4h-3q-2 0 -4.5 -0.5t-4.5 -0.5q-13 0 -21.5 2.5t-15.5 19.5l-1 5q2 33 7.5 64t11.5 61q7 36 13.5 72t6.5 72q0 15 -1 30 t-5.5 26.5t-14 18.5t-25.5 7q-11 0 -18 -2.5t-12 -14.5q0 -13 -1.5 -46.5t-4 -71t-4.5 -71.5t-3 -47q0 -8 -1.5 -25t-3.5 -35.5t-4 -34.5t-3 -20q-3 -11 -5.5 -22.5t-5.5 -22.5q-5 -23 -10.5 -45.5t-5.5 -44.5v-17q0 -8 2.5 -14.5t10.5 -6.5q2 0 4.5 0.5t4.5 0.5h1q3 1 13 4 t22 6.5t22 7t13 5.5q6 7 23.5 25t37.5 38t38.5 37.5t26.5 23.5q12 11 23.5 14t23.5 3h6q2 0 7 -1l6 -4l188 -188q-1 1 0.5 1.5t3.5 0.5q23 0 39.5 31t27.5 79t17.5 107t10 115t4.5 102.5t1 70.5zM558 566h1h-1z" />
<glyph unicode="X" horiz-adv-x="590" d="M12 29q8 -23 23 -27t34 -4q11 0 28 12t37.5 30.5t42.5 41t43 44.5q23 24 41.5 43.5t32.5 29.5l12 1q30 -12 44.5 -37t25.5 -53q5 -14 11 -27.5t14.5 -23.5t20 -16t28.5 -6q20 0 24 7t4 27q0 23 -15 42.5t-32 39.5q-20 22 -38 47t-18 58v7t1 10q0 5 0.5 8.5t0.5 5.5l3 8 q7 8 20.5 20t30.5 25h1q19 15 40.5 33t39.5 35.5t30 34t12 30.5t-3 27.5t-16 13.5q-15 0 -28 -7t-23.5 -18t-20.5 -24.5t-19 -27.5q-11 -17 -22.5 -33t-24.5 -28t-28.5 -19.5t-35.5 -7.5q-16 0 -28 7.5t-22 19.5t-18.5 28t-17.5 33q-8 16 -17 32.5t-19.5 29.5t-24 21 t-29.5 8q-6 0 -14 -0.5t-14.5 -2.5t-11.5 -6t-5 -12q0 -20 20 -42.5t46 -46.5q16 -15 31.5 -30.5t28 -31.5t20 -33.5t7.5 -35.5q0 -2 -0.5 -4.5t-0.5 -4.5v-4l-5 -8l-113 -113q-10 -10 -32 -26v-1q-15 -11 -33 -25t-33 -28t-25.5 -26.5t-10.5 -19.5zM13 25l-0.5 0.5 t-0.5 1.5z" />
<glyph unicode="Y" horiz-adv-x="483" d="M445 544q0 27 -13.5 36t-38.5 9q-13 0 -20.5 -8t-11.5 -21t-5.5 -30t-2.5 -34q-2 -21 -4.5 -40.5t-8.5 -34.5t-17.5 -24.5t-30.5 -9.5q-2 0 -4.5 0.5t-4.5 0.5h-4l-7 2q-20 15 -40.5 31t-40.5 32q-33 27 -66 52.5t-65 44.5h-3q-45 0 -45 -43q0 -9 13 -22t34.5 -28t49 -32 t55.5 -34q22 -14 43.5 -27t40.5 -25t33 -23t22 -21l2 -7v-22q0 -8 0.5 -14t0.5 -8q0 -28 -4.5 -53.5t-9.5 -51.5t-9.5 -51.5t-4.5 -51.5q0 -20 3.5 -29t23.5 -9q18 0 30 4.5t21 25.5q2 17 3.5 32t3.5 32q10 94 21 183.5t35 177.5q2 7 4.5 14.5t7.5 19.5t9.5 25.5t4.5 31.5z " />
<glyph unicode="Z" horiz-adv-x="626" d="M589 143q0 -20 -7 -31t-19 -16t-27 -6t-31 -1h-4h-20t-19 -1q-23 -2 -39.5 -16.5t-33.5 -31.5q-15 -16 -30 -28.5t-35 -12.5q-24 0 -30.5 10.5t-6.5 24.5q0 5 0.5 9.5t0.5 9.5q0 4 0.5 8t0.5 9q0 4 -0.5 8.5t-0.5 9.5l-1 3q-1 3 -4.5 28.5t-8.5 53.5q-3 22 -6 40.5 t-5 26.5v1q-3 12 -5 25t-4 27q-8 42 -18.5 86.5t-38.5 79.5l-9 4h-1l-5 1q-29 0 -47 -18t-34 -38q-14 -18 -28 -32.5t-34 -14.5q-16 0 -22 5t-6 19q54 69 83.5 107t44 56t19.5 22t10 6q17 8 26 10.5t26 2.5q11 0 18 -2.5t12 -14.5q2 -11 7.5 -37t11.5 -55q7 -30 12 -57.5 t7 -37.5q1 -5 1.5 -11t2.5 -14q5 -28 12.5 -68t17.5 -77.5t23 -64t30 -26.5q27 0 51 11t47 24q19 11 38 20.5t39 9.5q23 0 31 -13t8 -33z" />
<glyph unicode="[" horiz-adv-x="255" d="M222 572q0 -12 -10.5 -14.5t-22.5 -2.5q-11 -1 -22 -2.5t-22 -7.5q-13 -9 -22 -44.5t-16 -86t-11.5 -108t-7.5 -110t-4 -93.5t-1 -56q0 -14 6.5 -22t18 -12.5t25.5 -6.5t29 -3q22 -2 40 -5t18 -16q0 -6 -1 -13t-7 -7h-7q-4 0 -16 5q-8 2 -15 4.5t-9 2.5h-16q-8 0 -20 0.5 t-24 0.5h-23q-8 0 -15.5 -0.5t-15.5 -0.5q-10 0 -18.5 -0.5t-14.5 -0.5l-8 15q5 48 8 92.5t7 90.5q8 104 16.5 206t25.5 214q4 5 22.5 6t35.5 1h22q10 0 23 -0.5t24.5 -3t19.5 -7.5t8 -15z" />
<glyph unicode="\" horiz-adv-x="462" d="M388 44q6 -12 6 -20q0 -19 -23 -24q-1 0 0 -0.5t-1 -0.5q-12 0 -27.5 17t-33.5 44t-36.5 61t-36 68.5t-32.5 66.5t-25 54q-6 11 -10 19t-6 13l-1 1q-5 8 -19.5 36t-30.5 61.5t-31 65.5t-21 47l-17 41v1q-1 2 -1.5 4t-1.5 4q-5 8 -8.5 17.5t-3.5 15.5q0 1 3 1 q15 0 30 -7.5t26 -24.5l290 -536l1 -1q2 -3 5 -10.5t4 -10.5z" />
<glyph unicode="]" horiz-adv-x="255" d="M10 -10q0 11 10 13t23 3q11 1 22 2.5t22 8.5q13 8 22.5 44t16.5 86t11.5 107.5t7 110t3.5 93.5t1 56q0 28 -24 35t-55 9q-22 1 -40 4.5t-18 16.5q0 6 1 13.5t7 7.5h7q1 0 5.5 -2t10.5 -4q17 -7 25 -7h15q9 0 21 -0.5t23 -0.5h23q8 0 16 0.5t16 0.5t16.5 0.5t14.5 0.5 l9 -14q-4 -48 -7.5 -93t-7.5 -91q-8 -103 -16 -205t-25 -215q-5 -4 -23.5 -5t-36.5 -1h-20q-10 0 -23 0.5t-25 3t-20 7.5t-8 15z" />
<glyph unicode="^" horiz-adv-x="477" d="M80 217l-4 -4q-4 -5 -12.5 -28.5t-16.5 -49.5q-10 -29 -18.5 -53.5t-11.5 -28.5q0 -2 -0.5 -4t-0.5 -4q0 -19 16 -29t34 -10h24v0q1 0 1 -1l83 341l1 3l17 31l23 -2q2 -6 3 -8l6 -12v-1q6 -16 15.5 -41t21 -54t24 -59t24 -55.5t20.5 -44.5t15 -25q14 -13 17.5 -18.5 t7.5 -10.5q9 -13 18.5 -21t32.5 -8h1q2 2 8 7.5t8 7.5v3q0 27 -13 47q-7 11 -29 49.5t-57 105.5q-34 66 -68 146t-67 177l-4 1q0 1 -3 2l-1 1q-13 4 -15 6.5l-2 2.5zM91 3v2v-2z" />
<glyph unicode="_" horiz-adv-x="389" d="M0 -168q5 0 16.5 0.5t36.5 1.5t55.5 2.5t61.5 2.5t61.5 1.5t55.5 0.5q32 0 53 -1t22 -4q2 0 0 -1t1 -1h9q8 0 18.5 7t20 17t16 21.5t6.5 20.5q-2 4 -21.5 6.5t-50 4t-69 2.5t-78.5 1h-106q-36 0 -65 1t-46 3zM-4 -62l-19 -15q2 -1 7 -2.5t13 -2.5z" />
<glyph unicode="`" horiz-adv-x="217" d="M189 883q-6 18 -22 37t-35 34.5t-38.5 25.5t-33.5 10h-12q-22 0 -26 2l5 -5q9 -11 25.5 -29.5t36 -36.5t38 -31t30.5 -13h1zM22 992q-1 1 -1 2v1q0 -3 1 -3z" />
<glyph unicode="a" horiz-adv-x="516" d="M120 37q0 5 0.5 9t0.5 9v12q0 11 -0.5 21.5t-1.5 21.5v1q0 7 -0.5 12.5t-0.5 11.5l6 11l44 27l1 1q4 2 11.5 6t20.5 12q17 9 39.5 21.5t45.5 25.5t44.5 25.5t36.5 22.5l20 -10v-229q0 -14 13.5 -20.5t25.5 -6.5t19 7.5t11.5 18.5t6 23t1.5 22v28q0 19 0.5 48t1 62.5 t1 69.5t0.5 69q0 44 -1 77t-2 47v1q0 12 -5 29.5t-14.5 34t-22.5 28.5t-29 12q-13 0 -39 -13.5t-58.5 -34.5t-68.5 -46.5t-69 -49.5q-36 -26 -65 -45t-42 -26l-3 -1q-8 -2 -10 -21t-2 -38q0 -9 0.5 -16t0.5 -12v-285q0 -9 13.5 -11.5t23.5 -2.5q31 0 46 19v22zM110 220 q-2 21 -3 41.5t-1 42.5q0 11 14 30t36.5 40.5t49.5 43.5t53.5 40t48.5 29t34 11q7 0 14.5 -5.5t14.5 -13.5t11.5 -16.5t4.5 -14.5v-83l-6 -11q-28 -20 -61 -42.5t-66.5 -43t-66.5 -37t-61 -23.5zM120 10l2 8q-2 -2 -2 -3v-5z" />
<glyph unicode="b" horiz-adv-x="418" d="M40 23q1 -11 3.5 -20.5t7.5 -17t14.5 -12t25.5 -4.5q11 0 36.5 13t57 32.5t65 43t61.5 45t46 38t18 21.5q0 22 -19 36.5t-41 25.5q-24 14 -43 27.5t-19 39.5q0 25 20 37.5t45 24.5q21 8 38.5 19t17.5 28q0 9 -14 29.5t-35 45.5t-46.5 51.5t-49 48t-42 35.5t-25.5 14 q-26 0 -41.5 -18t-24.5 -45.5t-13 -59.5t-7 -60q-3 -34 -6 -52v-1q-5 -18 -11 -36t-12 -35q-13 -41 -23 -81t-10 -84v-12q0 -5 0.5 -11.5t0.5 -14.5v-12q0 -5 1 -10v-2v-5q12 -14 16.5 -30t7.5 -32zM84 144v37q1 7 4 20t7 25.5t7 21.5t4 9l25 11l5 1h1q3 0 15 -5.5t25.5 -13 t26.5 -15.5t19 -13v-1q2 -2 6 -8t8.5 -13.5t9 -14.5t7.5 -11l1 -6v-11l-4 -9l-7 -6l-8 -5l-1 -2l-91 -66l-8 -3h-27q-1 0 -5 9t-8 21.5t-7.5 26t-4.5 21.5zM122 388q0 3 -0.5 7.5t-0.5 9.5q0 7 -0.5 14.5t-0.5 15.5q0 14 1.5 28.5t7 26t15 18.5t24.5 7h7l6 -2q6 -3 18 -13 t25 -21.5t24.5 -21.5t15.5 -14q3 -3 10 -15t7 -15q0 -10 -17 -23t-38.5 -25t-43 -21t-30.5 -11l-5 -1q-17 2 -21.5 14t-4.5 25q0 5 0.5 9t0.5 6v2zM14 87l3 -8q0 1 -0.5 2.5t-0.5 3.5q-2 0 -2 2z" />
<glyph unicode="c" horiz-adv-x="492" d="M36 310l63 -90q81 -116 150 -168t131 -52q22 0 30 11.5t8 25.5q0 6 -17 15.5t-43 23.5q-27 14 -58.5 32.5t-60.5 44t-52.5 59.5t-34.5 79l4 13q134 115 167 134q36 18 66 36q29 17 47 35.5t18 37.5v1q-2 2 -11.5 8.5t-14.5 8.5h-2q-19 0 -30.5 -1.5t-20 -5t-14 -8.5 t-12.5 -11q-6 -5 -12.5 -11t-15.5 -13h-1q-16 -13 -41.5 -33t-50.5 -39t-43.5 -33t-20.5 -14l-52 -33z" />
<glyph unicode="d" horiz-adv-x="447" d="M157 458q-13 0 -20.5 -9.5t-11.5 -23.5t-6 -30t-3 -29q-1 -3 -1 -6v-4v-6l-28 -249v-1q0 -11 5.5 -12t15 4t22 16t27.5 24q16 13 34 28.5t34.5 29t29.5 23.5t20 14h1q11 7 17 12t9 10.5t4 13t1 18.5q0 16 -18 45.5t-42.5 59t-49.5 51t-40 21.5zM12 -31q0 26 6 55t14 60 q6 25 11.5 50.5t7.5 51.5q4 35 8 69t7 68q8 75 15.5 146.5t20.5 147.5q11 13 20 16t25 3q14 0 17 -6t3 -20v-5q0 -6 -2 -11t-4 -9q-7 -8 -7 -23t12 -23q5 -5 12 -10t16 -12q22 -18 52.5 -43.5t62 -57t59 -68t42.5 -75.5v-4l-1 -5v3q-10 -11 -26 -25t-33.5 -29t-35 -29.5 t-29.5 -24.5q-48 -38 -80 -61t-54 -38q-23 -16 -35 -25.5t-18.5 -20t-10 -27t-10.5 -45.5q-1 -4 -6 -4h-21q-17 0 -27.5 7t-10.5 24z" />
<glyph unicode="e" horiz-adv-x="447" d="M416 250q-1 0 -1 -1q0 1 1 1zM20 -7q3 -12 14.5 -26.5t24.5 -14.5q28 0 32.5 7t4.5 19q0 9 0.5 19t4.5 24q2 10 14 18.5t30.5 17t43 16.5t50.5 17q30 10 61 20.5t56 21.5t41 23.5t16 26.5v8q0 6 0.5 16t0.5 18q0 24 1 25q-18 -7 -39 -19l-42 -24q-45 -25 -89 -46.5 t-84 -21.5q-30 0 -35 14.5t-5 37.5q0 24 7 39t19 24.5t27 15t32 10.5l2 1q14 4 26 9t22 10v1q8 4 27.5 16t41 25.5t42 26t29.5 18.5h1q5 3 12 8t7 6v3q1 5 1.5 8.5t0.5 4.5q0 8 -8 9.5t-18 1.5q-28 0 -51.5 -15t-46.5 -34q-25 -20 -51 -36.5t-58 -16.5q-24 0 -30.5 11 t-6.5 40q0 16 5 31l10 30q9 20 12 46l8 11q30 11 61.5 22.5t57 23.5t41.5 25t16 27v8v11q0 6 -1 6q-15 -5 -39.5 -19t-50.5 -28q-27 -16 -55 -30.5t-56 -25.5l-12 3q3 -3 -2 -3q-12 0 -23 -8l-7 -3h-2l-7 -15v-1q-5 -11 -8.5 -19.5t-6.5 -16.5q-2 -4 -3 -7.5t-3 -8.5l-4 -11 l2 -1q-9 -39 -13 -81.5t-7 -84.5q-4 -39 -6.5 -70.5t-8.5 -48.5q0 -5 -2.5 -8.5t-6.5 -8.5l-4 -8v-2q-2 -7 -4 -23t-4 -34.5t-3.5 -35.5t-1.5 -25v0z" />
<glyph unicode="f" horiz-adv-x="602" d="M11 42q0 -43 39 -43q9 0 15 5t10.5 13t6.5 17.5t4 18.5v1q1 3 1 4q0 2 1 4q1 7 3 25t4 38t3.5 37.5t1.5 24.5l1 7q11 20 20 26t30 6q15 0 28.5 -12t25 -28t20 -31.5t11.5 -22.5l1 -5q0 -1 0.5 3.5t0.5 5.5h7q8 0 18 6t18.5 15t14.5 19t6 18q0 2 -10.5 11t-26 21.5 t-35 26.5t-37 27t-31 22.5t-18.5 12.5l-6 10v125q0 7 3.5 10.5t9.5 8.5l12 6h6q9 0 21 -6.5t24.5 -17t25 -22.5t22.5 -23q7 -7 15 -16t6 -7l60 -58h8l8 6t18.5 15t21.5 19t19 18l1 1q9 7 30 27t44 43t43.5 44t26.5 29q-3 10 -7.5 17t-15.5 7q-32 0 -55.5 -18.5t-45.5 -41.5 q-18 -19 -37.5 -36.5t-46.5 -28.5l-7 -1q-12 3 -25.5 12.5t-27.5 24t-29 31.5t-29 34q-23 29 -42.5 50t-29.5 23q-24 -5 -43 -37.5t-34 -80.5t-26 -106t-18.5 -113.5t-12 -102.5t-6.5 -74l-9 -11q-4 -1 -5 -6t-1 -11q0 -4 0.5 -7.5t0.5 -5.5v-3z" />
<glyph unicode="g" horiz-adv-x="624" d="M97 369l-62 -91l58 -55l65 -48l1 -2q-1 1 5 -2.5t14 -8.5h1q20 -14 49 -32t61 -44q7 -5 12 -9l10 -8l1 -1q12 -9 22.5 -17t22.5 -14t27.5 -9.5t36.5 -3.5h2q5 2 14 8.5t12 8.5v1q0 9 -8 22l-1 11q6 19 6 52q0 10 -0.5 20t-0.5 19v31q0 33 5.5 56t27.5 23h4l12 -8 l2.5 -7.5t4.5 -14.5l1 -1q2 -8 6 -12.5t18 -4.5q9 0 19 3t10 10l-1 1v6l-9 12t-12 17.5t-11 18t-6 13.5q-2 4 -6.5 12.5t-11.5 17.5t-16.5 15.5t-19.5 6.5h-4q-2 -1 -4 -1.5t-7 -2.5q-2 -1 -2.5 3l-0.5 4l-5 -9l-65 -50l-7 -3q-1 0 -11.5 -1.5t-22.5 -3.5t-22 -4.5t-10 -4.5 v-44q1 5 11 5h8q8 0 15.5 2t15.5 4l20 6t21 3l12 -12q0 -1 1 -3t1 -6q1 -4 1 -9v-6v-1q-1 -10 -2 -21l-2 -22q-1 -13 -2 -25.5t-1 -18.5l-4 -6l-3 -7l-3 -3q-1 -1 -1 -2l-1 -1l-15 -2q-8 5 -16.5 8.5t-16.5 8.5q-30 16 -59.5 32.5t-53 36t-38 43t-14.5 52.5q0 44 18 77 t44.5 58.5t58 44t58.5 33.5q26 14 42.5 23.5t16.5 15.5q0 14 -8 25.5t-30 11.5q-50 0 -92.5 -22t-77 -55t-61.5 -71t-47 -71v-1z" />
<glyph unicode="h" horiz-adv-x="631" d="M25 32q10 -12 19 -22t23 -10q12 0 21 11t14.5 28.5t9 38.5t5 40t2 33.5t0.5 20.5l6 10q15 9 36.5 19t45 18.5t47 14t41.5 5.5q2 0 4.5 -0.5t4.5 -0.5h3l8 -2q8 -6 25.5 -12.5t37.5 -11.5q17 -6 32 -10.5t25 -9.5h1q18 -13 25 -37.5t13 -51.5q4 -26 10.5 -50t18.5 -28 q9 -3 13 -3q10 0 17 12t11 32t5.5 46.5t1.5 56.5v69q0 27 0.5 51.5t2 45t5.5 35.5t10 21v171q0 -1 -6.5 4t-13.5 12v1q-4 4 -6 5.5t-5 3.5h-1q-5 0 -12 -5.5t-14.5 -13.5t-12.5 -17t-5 -15v-150q0 -9 -23.5 -24t-53.5 -29.5t-58.5 -25t-38.5 -10.5q-22 0 -56.5 10.5 t-67.5 28t-56.5 38.5t-23.5 42l6 46q3 22 6 41.5t3 21.5v6q0 4 0.5 8.5t0.5 6.5q0 15 -9 23t-23 8q-12 0 -24.5 -4t-20.5 -14q0 -9 0.5 -15.5t0.5 -14.5q0 -67 -6 -130.5t-13 -127.5q-7 -57 -12.5 -114t-6.5 -115q3 -6 8 -11zM342 255q0 18 14.5 29.5t34.5 18t41.5 9 t35.5 2.5l13 -11l10 -57l-7 -14l-27 -13q-8 -2 -22 -2q-10 0 -24 1.5t-27.5 5t-24.5 8.5t-14 11l-2 4q-1 5 -1 8zM115 303l13 14h3q2 0 4.5 0.5t4.5 0.5q32 0 59.5 -9t41.5 -26l2 -15q-14 -21 -36.5 -28.5t-47.5 -7.5h-27l-13 12zM15 46l2 -7v4q-2 2 -2 3z" />
<glyph unicode="i" horiz-adv-x="236" d="M27 49q0 2 0.5 6t0.5 8v11l73 535q3 14 15.5 21t29.5 7q9 0 11.5 -8t2.5 -17v-63q0 -15 -2 -46.5t-4 -65t-5 -61.5t-4 -37q0 4 0 1q0 -2 -0.5 -8.5t-1 -14.5t-0.5 -15q-2 -22 -4 -53t-5.5 -65t-8 -67t-11 -59t-15.5 -42.5t-21 -16.5q-2 0 -1 0.5t-1 0.5q-24 5 -36.5 18.5 t-12.5 30.5z" />
<glyph unicode="j" horiz-adv-x="435" d="M345 610q30 0 41.5 -21.5t11.5 -47.5q-2 -35 -10 -69t-17 -69q-11 -38 -19 -75.5t-8 -79.5q0 -23 -1 -51.5t-4 -58.5t-8.5 -58t-15.5 -50t-24.5 -35.5t-34.5 -13.5q-11 0 -33.5 10t-49.5 26t-55.5 36t-52 41t-38.5 40t-15 32q0 21 8 37t32 16q22 0 39 -16.5t34 -36.5 q18 -23 39.5 -42t53.5 -19q2 0 4.5 0.5t4.5 0.5h3l12 8q7 18 12 56.5t13 89.5q7 55 15.5 116.5t18 113.5t21 86t23.5 34z" />
<glyph unicode="k" horiz-adv-x="483" d="M13 44q0 18 4 30.5t9 26.5q5 12 7.5 19.5l4.5 13.5q24 88 35.5 178t20.5 184q2 17 4 32t4 32q8 21 20 25.5t30 4.5q20 0 23.5 -9.5t3.5 -29.5q0 -25 -4.5 -50t-9.5 -51q-2 -12 -4 -24.5t-4 -25.5l19 -11q29 17 53.5 36.5t48.5 39.5q29 23 58.5 45.5t61.5 39.5h2 q46 0 46 -43q0 -9 -13.5 -22t-35 -28t-48.5 -31.5t-55 -32.5q-42 -25 -78.5 -48t-54.5 -43v-16q17 -22 56.5 -46.5t83.5 -49.5q27 -16 53 -31.5t46.5 -30t33 -26.5t12.5 -21q0 -43 -46 -43h-3q-30 17 -62 42t-64 51q-22 17 -43 34t-43 33l-7 2h-3q-2 0 -5 0.5t-5 0.5 q-20 0 -31 -9.5t-17 -25t-8.5 -35t-3.5 -39.5q-1 -18 -3 -34.5t-6 -29.5t-11.5 -21t-19.5 -8q-25 0 -38.5 9t-13.5 36z" />
<glyph unicode="l" horiz-adv-x="435" d="M38 405l-16 70t-10 69q0 27 10.5 49.5t41.5 22.5q12 0 23.5 -35t21.5 -88t18.5 -115.5t15.5 -118.5q7 -53 13 -92.5t11 -56.5l12 -8h3q3 0 5.5 -0.5t4.5 -0.5q30 0 51 19t41 43q16 20 33 36.5t40 16.5q24 0 32.5 -16t8.5 -38q0 -14 -15 -32.5t-38.5 -39.5t-52.5 -41 t-56 -36t-49 -26t-33 -10q-32 0 -50 29t-26.5 70.5t-10.5 87.5t-2 80q0 42 -8 81.5t-19 79.5z" />
<glyph unicode="m" horiz-adv-x="626" d="M13 61q0 -5 1.5 -15.5t5.5 -21t9 -18.5t13 -8h1q5 3 11.5 10t13.5 15t12.5 16.5t7.5 14.5q1 10 2.5 31.5t2.5 48t2.5 56.5t2.5 56.5t1.5 48t0.5 31.5q0 2 -0.5 3.5t-0.5 5.5q-1 5 -1 12v16q0 24 7 44.5t32 20.5q17 0 31 -7.5t26 -20t22 -28.5l20 -32q9 -14 17.5 -28 t18.5 -25t21.5 -18t25.5 -7q15 0 28.5 7.5t26 19t23.5 25.5t20 27q5 8 10 14t15 17l9 4h3q2 0 4.5 0.5t4.5 0.5q13 0 21.5 -2.5t15.5 -19.5l1 -5q-2 -33 -7.5 -64t-11.5 -62q-7 -36 -13.5 -72t-6.5 -72q0 -15 1 -29.5t5.5 -26t13.5 -18.5t26 -7q11 0 18 2.5t12 14.5 q0 9 0.5 27.5t1.5 42t2.5 49.5t3 49t3 41.5t2.5 27.5q0 7 1.5 24t3.5 35t4 33t3 20v1q3 11 5.5 22.5t5.5 22.5q5 23 10.5 46t5.5 45v17q0 7 -3 14t-10 7q-2 0 -4.5 -0.5t-4.5 -0.5h-4q-2 -1 -10.5 -3.5t-21.5 -7.5q-13 -4 -22 -7t-13 -5q-6 -7 -23.5 -25t-37.5 -38 t-38.5 -37.5t-26.5 -23.5q-12 -11 -23.5 -14t-23.5 -3h-7q-1 0 -6 1l-6 4l-188 188q1 -1 -0.5 -1.5t-3.5 -0.5q-23 0 -39.5 -31t-27.5 -79t-17.5 -107t-10 -115t-4.5 -102.5t-1 -70.5zM41 -3q1 0 2 0.5t0 0.5q-1 -1 -2 -1v0z" />
<glyph unicode="n" horiz-adv-x="602" d="M13 36q0 -16 18 -26.5t33 -10.5q5 0 8 1.5t3 8.5v3q0 10 1.5 34t3.5 51t4 50.5t4 31.5q1 11 4.5 27t7.5 31t8 26t5 11h38q1 0 18 -8t43 -20t57.5 -26.5t60.5 -28.5t52 -25.5l33 -16.5h1q10 -7 15.5 -21t10.5 -30q3 -12 6.5 -22t5.5 -12h72l1 61v1q6 85 11 144.5t8 101.5 t5.5 71t4.5 54.5t4 51.5t5 62v7q0 14 -7 17t-19 3q-18 0 -29.5 -4.5t-20.5 -24.5q1 -17 1.5 -33t0.5 -33q0 -47 -3.5 -92.5t-10.5 -90.5l-13 -11q-2 0 -5 -0.5t-7 -0.5h-13q-4 0 -10.5 0.5t-10.5 0.5h-4l-4 1q-38 12 -86 36t-94 50q-27 15 -50.5 28t-46.5 23l-3 3 q-16 16 -16 39v29q0 17 -4.5 28.5t-21.5 11.5q-10 0 -19 -9t-16 -21t-11 -24.5t-4 -19.5q0 -3 1 -9.5t2.5 -13t3 -12.5t3.5 -8l2 -9q-6 -48 -13 -103t-12 -112t-8.5 -113.5t-3.5 -107.5zM100 399q0 19 14 22.5t24 3.5q13 0 43 -12.5t68 -32t78 -43.5t73.5 -46.5t55 -40.5 t21.5 -26q0 -4 -6.5 -16.5t-10.5 -16.5l-5 -4q-4 -1 -9 -1l-22 10t-54 25l-53 26.5t-57 28t-54 25.5t-44 21h-1q-12 6 -19 10t-11 6.5t-6.5 5l-6.5 6.5l-2 2q-6 11 -11 24.5t-5 22.5z" />
<glyph unicode="o" d="M302 -25l213 324q4 5 5 10t1 10q0 21 -19 45t-39 47q-9 10 -17.5 20t-15.5 18q-29 43 -43.5 90.5t-22.5 97.5q-1 2 -7 2h-10h-11q-18 0 -34.5 -12.5t-31.5 -32t-29.5 -43.5t-28.5 -48q-14 -25 -27 -47t-26 -36q-5 -6 -19 -22t-29.5 -33.5t-29.5 -32.5t-20 -19v-2t-2 -6 v-7q5 -18 21 -36.5t35 -38.5q24 -25 46 -52.5t32 -67.5zM175 311q0 12 15.5 40.5t36 58t41 52t31.5 22.5q14 0 34 -16.5t38 -39.5t31 -47.5t13 -40.5q0 -14 -6.5 -36.5t-17.5 -47.5t-24.5 -50.5t-27.5 -46t-28 -33.5t-24 -13q-17 0 -36.5 24t-36 57t-28 66t-11.5 51z M191 106l3 -6q0 1 -0.5 1.5t-0.5 1.5z" />
<glyph unicode="p" horiz-adv-x="459" d="M13 34v-5q2 -2 2.5 -3t2.5 -3q9 -14 14.5 -19t17.5 -5q15 0 23.5 8t13.5 20.5t6.5 27.5t3.5 30q1 13 2 24t3 19q4 14 17.5 26t34 23t46 21.5t52.5 21.5q31 12 61.5 25.5t55 27t39.5 28.5t15 30q0 9 -11 21.5t-28 27t-37 29.5t-37 27q-12 9 -22.5 17t-15.5 13v1l-136 133 h-9q-4 0 -7 0.5t-5 0.5q-21 0 -33.5 -13.5t-18.5 -33.5t-8 -42.5t-3 -40.5q0 -2 -0.5 -4t-0.5 -5q0 -7 -0.5 -29t-2 -52t-2.5 -63.5t-2.5 -63.5t-3 -52t-2.5 -29q0 -5 -3.5 -25.5t-8 -44.5t-8.5 -44.5t-5 -24.5zM144 496l17 1q17 -15 38 -36.5t40.5 -43t36.5 -41t27 -30.5 v-17q-5 -5 -18 -15.5t-31 -22.5t-38.5 -25t-39 -23.5t-33 -17.5t-20.5 -7l-13 12q0 8 1 26.5t2 39.5t1.5 40t0.5 26q0 12 2 32t4.5 39.5t5.5 33.5t5 16z" />
<glyph unicode="q" horiz-adv-x="566" d="M8 -37q0 -17 16 -25.5t31 -8.5h6t6 2q41 43 89.5 85t98.5 75l9 2q32 -6 54.5 -26t42.5 -44q10 -12 21 -24.5t23.5 -22t27.5 -15.5t34 -6h14q11 0 20 1t14 6q1 2 1.5 11.5t0.5 14.5q0 9 -11.5 21t-28.5 26t-38 28l-39 26q-14 11 -24.5 17.5t-21.5 14.5v1l-12 13l-4 8 q0 25 24.5 40.5t58.5 31.5q19 8 38 17.5t34.5 21t25 26t9.5 32.5q0 28 -18.5 47.5t-39.5 36.5q-13 10 -23.5 19.5t-17.5 17.5l-1 1q-29 39 -43 83t-23 89q0 -2 -6 -2h-11h-11q-18 0 -34.5 -11t-32 -28t-29.5 -39t-27 -43q-14 -22 -27 -41t-27 -33q-5 -6 -19 -21.5t-30 -32 t-29.5 -29.5t-17.5 -16q0 -2 -0.5 -1t-0.5 -1v-3q-1 -4 -1 -6q0 -23 16.5 -38t36.5 -28q25 -15 44.5 -33t19.5 -50q0 -16 -7 -29.5t-19 -24.5t-27.5 -21.5t-31.5 -20.5q-15 -9 -30 -19t-27 -20.5t-19 -23.5t-7 -28zM174 311q0 7 7 21.5t18.5 32t25.5 35.5t27.5 33.5t26 25 t19.5 9.5q14 0 33.5 -15t37.5 -36t31 -43.5t13 -37.5q0 -19 -16 -40t-38.5 -39t-46 -29.5t-39.5 -11.5q-17 0 -34.5 8.5t-31.5 22t-23.5 30.5t-9.5 34z" />
<glyph unicode="r" horiz-adv-x="479" d="M225 483l-9 4h-25q-2 0 -7.5 -9.5t-12 -23t-12 -28t-6.5 -24.5v-2q0 -5 -0.5 -16t-2.5 -24t-3 -23.5t-1 -13.5l13 -13q12 0 20 0.5t14 2t12.5 5t17.5 9.5l63 37l7 11v37l-5 8zM13 36q0 37 10.5 75t23.5 76q10 30 18 58.5t11 52.5v1q1 14 4 42.5t7.5 63.5t12 72t18.5 67 t25.5 49.5t33.5 19.5q16 0 39.5 -13.5t49 -35.5t51 -49t46 -53.5t33 -49.5t12.5 -38q0 -20 -18 -32t-41 -21q-13 -6 -25.5 -12.5t-22.5 -14.5t-16 -18.5t-6 -25.5q0 -2 0.5 -4.5t0.5 -5.5v-3l4 -8l115 -112v-1q14 -11 21.5 -15.5t12.5 -6.5q1 0 1 -2v-9q0 -26 -14 -36.5 t-39 -10.5q-18 0 -32 7t-25.5 19t-21.5 27l-20 30q-12 18 -24 35t-26 30.5t-32 21.5t-41 8q-11 0 -18.5 -0.5t-12 -4.5t-7.5 -11.5t-6 -20.5q-2 -9 -6 -30.5t-8 -44.5t-7.5 -43.5t-4.5 -29.5l-30 -29h-1q-20 0 -32.5 8t-12.5 28z" />
<glyph unicode="s" horiz-adv-x="642" d="M16 143q0 20 8 33t31 13q20 0 39.5 -9.5t39.5 -20.5q22 -13 45 -24t52 -11q16 0 29 26.5t23 64t17.5 78t12.5 68.5q2 8 2.5 14t1.5 11v1q1 6 3.5 20t6.5 32.5t8 39t8 39.5q4 18 7 32.5t5 21.5q5 12 12 14.5t18 2.5q16 0 25 -2.5t26 -10.5q5 -3 10 -7t20 -22t44.5 -55.5 t83.5 -106.5q0 -14 -6 -19t-21 -5q-21 0 -35 14.5t-28 32.5q-16 20 -34 38t-46 18q-1 0 -1.5 -0.5t-2.5 -0.5h-3l-9 -5q-15 -18 -25 -40.5t-16.5 -46t-10.5 -48t-8 -47.5q-2 -9 -3 -18.5t-3 -17.5q-2 -6 -4 -21t-5 -33t-6 -36.5t-6 -33.5q-2 -10 -2.5 -16t-1.5 -9v-1 q-1 -5 -1 -10v-9v-10t1 -9q0 -5 0.5 -8.5t0.5 -8.5q0 -14 -6.5 -25t-30.5 -11q-19 0 -34.5 12.5t-30.5 28.5q-17 17 -33.5 31.5t-39.5 16.5q-9 1 -19 1h-20h-4q-16 0 -31 1t-27 6t-19 16t-7 31z" />
<glyph unicode="t" horiz-adv-x="710" d="M299 398v-385q0 -10 11.5 -12t19.5 -2q15 0 24 3t20 16q1 11 3 39t4 59t3.5 58.5t1.5 38.5v43q0 27 -1 60t-2 61q-1 19 -1 34v23l12 12q20 0 37.5 -11t34.5 -24t35 -25t41 -12q22 0 42 14.5t36.5 35t30 42.5t21.5 37v2v4q-5 6 -14 17.5t-10 11.5l-5 1h-5q-16 0 -26 -12.5 t-18 -27.5q-12 -19 -26 -34.5t-38 -15.5q-17 0 -31.5 7t-27 18t-24 24.5t-22.5 27.5q-17 25 -35.5 44t-41.5 19q-12 0 -26.5 -17t-31.5 -40q-12 -17 -25.5 -33.5t-28.5 -30t-32 -22t-36 -8.5q-24 0 -35 18t-20 40q-8 20 -19 38t-31 18q-19 0 -30 -4t-17 -18q12 -9 25 -27.5 t26 -38.5q12 -17 23.5 -33t24 -28.5t27 -20.5t32.5 -8q14 0 26.5 5.5t24.5 12.5q14 8 28 13.5t33 5.5zM673 507q0 -1 -1 -1v-1q1 -2 1 2z" />
<glyph unicode="u" horiz-adv-x="517" d="M7 214v2v-1v-1zM115 573v-44l-15 -236v-1q0 -12 14 -30.5t36.5 -40t49.5 -43.5t53.5 -40t48.5 -29t34 -11q7 0 14.5 5.5t14 13.5t11 16.5t4.5 14.5v400q0 14 13.5 20t25.5 6t19.5 -7.5t11.5 -18t5.5 -23t1.5 -21.5v-2q3 -23 4 -57t1 -74q0 -51 -1 -103.5t-2 -94.5 q-1 -24 -1.5 -42.5t-0.5 -29.5q0 -12 -5 -29.5t-14 -34t-22.5 -28t-29.5 -11.5q-5 0 -25.5 11t-49 28.5t-61.5 38t-63 39.5q-32 20 -57.5 36t-34.5 21h-2q-2 1 -10 4t-18 6.5t-19.5 6.5t-15.5 5q-10 2 -12.5 3.5t-4.5 3.5q0 8 -6 14l25 92v278q0 9 13.5 11.5t23.5 2.5 q32 0 45 -19z" />
<glyph unicode="v" horiz-adv-x="477" d="M82 366l97 -358q6 4 26 12q66 194 134 323q35 67 57 105.5t29 50.5v1q14 21 14 46v2l-16 16h-2q-23 0 -32 -8t-18 -20q-2 -3 -3 -5t-3 -5t-6 -7.5t-13 -13.5q-6 -8 -18.5 -34.5t-27.5 -61.5t-30.5 -73t-27.5 -69q-12 -30 -22.5 -49.5t-14.5 -19.5l-12 8l-17 33l-81 335 q-2 3 -4 3h-23q-17 0 -33.5 -9.5t-16.5 -28.5q0 -2 0.5 -5t0.5 -5q2 -3 8.5 -21.5t14.5 -42.5q10 -30 21 -58t17 -36zM180 7l-1 1q-1 -1 1 -1z" />
<glyph unicode="w" horiz-adv-x="638" d="M153 349l-4 11l12 191q0 3 -5.5 7.5t-13 8.5t-14.5 7t-11 3q-12 0 -21.5 -14t-16.5 -37t-11.5 -52t-7.5 -58t-4 -56t-1 -46q0 -28 -4 -43q-4 -21 -7.5 -39t-8.5 -37q-9 -42 -17 -81t-8 -84q0 -16 14.5 -24t29.5 -8h7t7 1q52 40 109.5 77.5t114.5 71.5l6 2h3q2 0 5 0.5 t5 0.5q20 0 37 -8t32 -21t28 -28.5t26 -31.5q18 -25 36 -43.5t35 -18.5q22 0 37.5 29.5t26 76.5t16.5 104t9 112t4 101t1 71v9q0 3 -0.5 6t-0.5 7v18q-10 11 -17 14.5t-20 3.5q-14 0 -21.5 -7.5t-16.5 -21.5q-2 -43 -5.5 -82.5t-14.5 -74.5t-32.5 -65.5t-60.5 -54.5l-1 -1 q-2 -1 -3.5 -2t-3.5 -2q-15 -10 -28 -14.5t-35 -4.5h-3q-5 0 -10 0.5t-10 0.5h-6l-9 3zM280 190l-125 -88l-15 2l-13 13l-1 2l-2 1q-3 4 -7.5 12.5t-4.5 17.5v71l1 4q1 2 0.5 4.5t0.5 5.5q3 16 7.5 32.5t15.5 16.5h25l9 -5q2 -2 11 -6.5t21 -9.5q24 -11 49 -25t33 -34z M505 112l-6 -7l-21 -12l-6 -2h-1q-3 0 -10.5 4.5t-16.5 11t-18 14t-15 13.5v1q-2 2 -4 3t-4 3q-13 10 -13 18v13q0 14 17 26.5t40 21.5t46.5 14.5t35.5 5.5l11 -17zM126 119l-3 6q0 -3 3 -6z" />
<glyph unicode="x" horiz-adv-x="506" d="M169 328h-1v-1h1l1 -2q14 -19 29 -35.5t41 -16.5q25 0 45 19.5t20 44.5q0 28 -22 46t-49 18t-44 -18.5t-24 -41.5zM64 11q-22 0 -37 8.5t-15 30.5q0 2 0.5 4t0.5 4q6 7 23 24.5t36.5 36.5t37 36t25.5 23v1q5 5 8 6t5 1q19 0 19 18v21q0 13 -5 22t-12.5 15t-18 10t-20.5 8 q-17 6 -33 14t-16 30q0 23 24 45.5t51 41.5q15 11 28 21.5t22 20.5l1 15q-7 11 -24.5 27t-37.5 33q-14 11 -27.5 23t-24.5 22.5t-18 19t-7 14.5q0 15 15.5 20t29.5 5q13 0 29 -13t32 -32t30.5 -39t24.5 -34q3 -4 7 -10l8 -5q3 -1 10.5 -1.5t11.5 -0.5q19 0 33.5 7t27 18 t22.5 25t20 29q15 23 31 41.5t37 18.5q10 0 18 -7.5t8 -17.5q0 -15 -7.5 -28.5t-19.5 -26t-27 -24t-31 -22.5q-18 -12 -35 -25t-30 -28l1 -16l101 -100q-2 -1 -2 -4v-6q0 -11 -8 -21t-20 -18.5t-25.5 -15.5t-24.5 -12l-5 -3l-7 -12v-37l4 -8l165 -162l0.5 -6t0.5 -11 q0 -14 -4.5 -20.5t-16.5 -6.5q-5 0 -10 0.5t-12 1.5q-20 3 -37.5 24t-33.5 44q-6 7 -10 13.5t-11 14.5q-9 9 -23.5 23t-29 26.5t-25.5 21.5t-12 8h-21q-2 0 -15.5 -12t-31 -28.5t-35.5 -34t-29 -29.5q-2 -2 -6 -8.5t-9 -13.5q-8 -13 -17.5 -25.5t-20.5 -12.5z" />
<glyph unicode="y" horiz-adv-x="554" d="M327 446l-5 9l16 157q0 -1 -11 4t-17 8h-3q-2 0 -4 0.5t-3 0.5q-13 0 -25.5 -13.5t-12.5 -25.5q0 -3 -0.5 -8t-0.5 -11v-1q-1 -10 -1 -21v-21v-27t1 -27v-1q0 -8 0.5 -14t0.5 -8l-2 -7q-4 -5 -12 -9.5t-12 -5.5h-1q-5 -1 -8 -1q-18 0 -32.5 7.5t-26 19.5t-21 27t-18.5 30 q-15 26 -30 46.5t-38 20.5q-15 0 -33 -9.5t-18 -28.5q0 -18 12.5 -36t32.5 -35.5t44.5 -34.5t48.5 -33q32 -21 58 -40.5t38 -37.5l2 -7v-21l3 -28q1 -7 1.5 -14t0.5 -15v-23q0 -26 -2.5 -49t-5.5 -45q-4 -22 -6 -42t-2 -40q0 -9 4 -14t15 -13q3 -3 15 -10q5 0 12.5 3.5 t14.5 9t12 12t5 13.5v250q0 22 25.5 47t59.5 54q21 17 41.5 35.5t37.5 37.5t27.5 38t10.5 37q0 39 -41 39q-6 0 -15 -8t-19.5 -21t-21.5 -28.5t-21 -30.5q-12 -17 -22.5 -31.5t-19.5 -22.5l-16 1zM270 -2q-1 0 -1 1q-2 0 1 -1z" />
<glyph unicode="z" horiz-adv-x="626" d="M589 143q0 -20 -7 -31t-19 -16t-27 -6t-31 -1h-4h-20t-19 -1q-23 -2 -39.5 -16.5t-33.5 -31.5q-15 -16 -30 -28.5t-35 -12.5q-24 0 -30.5 10.5t-6.5 24.5q0 5 0.5 9.5t0.5 9.5q0 4 0.5 8t0.5 9q0 4 -0.5 8.5t-0.5 9.5l-1 3q-1 3 -4.5 28.5t-8.5 53.5q-3 22 -6 40.5 t-5 26.5v1q-3 12 -5 25t-4 27q-8 42 -18.5 86.5t-38.5 79.5l-9 4h-1l-5 1q-29 0 -47 -18t-34 -38q-14 -18 -28 -32.5t-34 -14.5q-16 0 -22 5t-6 19q54 69 83.5 107t44 56t19.5 22t10 6q17 8 26 10.5t26 2.5q11 0 18 -2.5t12 -14.5q2 -11 7.5 -37t11.5 -55q7 -30 12 -57.5 t7 -37.5q1 -5 1.5 -11t2.5 -14q5 -28 12.5 -68t17.5 -77.5t23 -64t30 -26.5q27 0 51 11t47 24q19 11 38 20.5t39 9.5q23 0 31 -13t8 -33z" />
<glyph unicode="{" horiz-adv-x="235" d="M14 281q0 -20 7.5 -48t20.5 -59.5t30 -62.5t37.5 -56t42.5 -40.5t44 -15.5q0 13 -12 34t-28 48q-25 39 -47.5 87t-22.5 109q0 38 3 69t13 57.5t28.5 50t49.5 47.5q0 2 0.5 3t0.5 3q0 8 -9.5 11t-20.5 3q-18 0 -35.5 -14.5t-32.5 -37t-28 -50t-22 -54.5t-14 -49.5 t-5 -34.5z" />
<glyph unicode="|" horiz-adv-x="212" d="M22 -110q0 2 0.5 6t0.5 8v11l70 809q3 15 15.5 22t29.5 7q10 0 12 -8t2 -17v-62q0 -11 -1 -38t-3 -62t-4 -73.5t-4.5 -71.5t-4.5 -57t-3 -29l-0.5 -19t-1.5 -42q-1 -33 -2.5 -77.5t-4 -92.5t-6.5 -95t-10.5 -84t-15 -60t-20.5 -23q-24 5 -36.5 18t-12.5 30z" />
<glyph unicode="}" horiz-adv-x="235" d="M196 281q0 -20 -7.5 -48t-20.5 -59.5t-30.5 -62.5t-37.5 -56t-42 -40.5t-44 -15.5q0 13 11.5 34t28.5 48q24 39 46.5 87t22.5 109q0 38 -3 69t-12.5 57.5t-28 50t-49.5 47.5v-3q0 2 -0.5 4.5t-0.5 4.5q0 8 9.5 11t20.5 3q18 0 35 -14.5t32.5 -37t28 -50t22 -54.5 t14.5 -49.5t5 -34.5z" />
<glyph unicode="~" horiz-adv-x="379" d="M36 293q1 0 8.5 7.5l17.5 17.5q10 11 22 22t26 21l4 3l11 3l3 2l14 -4l3 -4q3 -6 9.5 -14.5t15 -17.5t17 -17t14.5 -11q6 -2 7 -2l-4 -4l5 4l9 3q10 4 26 15t32 26.5t29 32.5t17 33l-20 6q-9 3 -14 4t-9 1q-13 0 -21.5 -9.5t-16.5 -23.5q-3 -5 -8.5 -14l-5.5 -9l-14 -4 q-12 5 -21 13t-17 18l-24 22t-26 11q-2 0 -6 -2h-3q-1 0 0 -0.5t0 -0.5q-9 -3 -24 -14.5t-30.5 -28t-29.5 -36t-21 -37.5zM0 311l8 -17l3 11z" />
<glyph horiz-adv-x="355" />
<glyph unicode="&#xa1;" horiz-adv-x="215" d="M153 368q0 26 -18.5 46.5t-53.5 27.5h-4q-1 0 -2.5 0.5t-2.5 0.5q-19 0 -30 -18.5t-17 -48t-8 -64.5t-3 -68q-2 -35 -3.5 -61.5t-6.5 -36.5l-2 -4l-4 -97v-23q0 -19 7.5 -34.5t35.5 -15.5q26 0 48.5 12t27.5 37v1l34 319v12q0 4 1 8.5t1 6.5zM150 586q0 17 -13.5 31 t-34.5 19h-2q-9 0 -16.5 -5.5t-12.5 -13.5t-8 -16.5t-3 -14.5q0 -17 7 -27.5t30 -10.5t38 8t15 30z" />
<glyph unicode="&#xa2;" horiz-adv-x="492" d="M152 288q9 -42 30 -72.5t48 -56.5l21 8l24 204l-21 10q-20 -16 -44.5 -35.5t-53.5 -44.5zM229 -53q0 2 0.5 6.5t0.5 8.5v10l9 81l-5 10q-32 26 -66 65t-69 90l-63 89l76 52l52 32l12 8.5t29.5 21t38.5 28t39 30.5l4 8l16 142q2 14 13.5 21t25.5 7q8 0 10 -8t2 -17v-70 l19 -11q8 5 20 6.5t33 1.5h2q5 -2 14.5 -8.5t11.5 -8.5v-1q0 -19 -18 -37t-47 -35h-1q-5 -3 -8.5 -5.5t-7.5 -5.5q-4 -2 -8.5 -5t-8.5 -5l-6 -9q-2 -28 -3.5 -57t-3.5 -55q-2 -33 -3 -57.5t-2 -30.5q-2 -6 -2.5 -21t-1.5 -37q-1 -17 -2 -37.5t-3 -43.5l6 -12q9 -5 16.5 -9 t15.5 -8v-1q23 -11 37.5 -20t14.5 -14q0 -13 -8 -24.5t-30 -11.5q-15 0 -27.5 2t-22.5 5l-17 -9q-8 -42 -18 -70.5t-23 -28.5h-1q-20 5 -31 18t-11 30z" />
<glyph unicode="&#xa3;" horiz-adv-x="694" d="M411 166h1h-1zM24 394q-6 4 1 5t23 0.5t38.5 -2.5t47.5 -3h1q3 0 5.5 -0.5t5.5 -0.5l13 14q-2 12 -2 22t-1 20q0 4 -0.5 7t-0.5 6l-11 13q-2 1 -3 5.5t-1 10.5q0 5 0.5 8.5t0.5 5.5v3q0 43 39 43q10 0 17.5 -7t11.5 -17t6 -21t2 -19q1 -41 3 -66q0 -6 0.5 -11t0.5 -10 l13 -13q5 0 9 -0.5t9 -0.5q37 -3 71 -5.5t61 -5t43.5 -5t18.5 -5.5q0 -7 -6.5 -16t-16 -16.5t-20 -12.5t-17.5 -5h-9q-3 0 -1.5 0.5t-0.5 0.5q-2 2 -20 3t-47 1q-14 0 -29 -0.5t-32 -0.5l-12 -16q3 -13 6 -29.5t6.5 -40.5t8.5 -56.5t11 -78.5q0 -8 12 -17l13 -6h6 q9 0 21 6.5t24.5 17t25 22.5t22.5 23l14.5 14.5t6.5 7.5l2 1l51 53h6q-4 -1 5 -12q8 -10 18.5 -23t21.5 -24h1q9 -7 30 -27t44 -42.5t43 -43t27 -29.5q-3 -10 -7.5 -17t-15.5 -7q-31 0 -52 17t-40 39q-16 19 -34 36.5t-44 28.5l-8 1q-14 -2 -27 -11.5t-26.5 -24t-26.5 -31.5 t-26 -33q-19 -26 -35 -45.5t-25 -21.5q-24 5 -43.5 40t-34.5 86.5t-26.5 112t-18.5 116.5l-13 12q-54 -3 -90 -4t-46 -1z" />
<glyph unicode="&#xa4;" horiz-adv-x="590" d="M240 282q0 -11 7 -29.5t17.5 -37t22.5 -32t23 -13.5q10 0 23.5 15.5t25.5 36.5t20.5 42.5t8.5 33.5q0 9 -7.5 23t-19 27.5t-23.5 23.5t-21 10q-7 0 -20 -13t-25.5 -30t-22 -33.5t-9.5 -23.5zM201 282q0 8 9 26t23 41l-1 14q-11 15 -25 28.5t-28 27.5q-26 24 -46.5 47 t-20.5 43q0 8 5 12t11.5 6t14.5 2.5t14 0.5q16 0 29.5 -8.5t24 -22t19.5 -30.5l18 -34q2 -6 5 -11t5 -10l21 -3q29 35 40 35q12 0 31.5 -17t37.5 -40h19q11 12 20.5 25t18.5 27v1q18 29 38.5 51.5t50.5 22.5q13 0 16 -13.5t3 -27.5t-12.5 -31t-31.5 -35.5t-41 -36.5t-41 -33 l-3 -13q2 -8 2 -12q0 -17 -10 -45t-25 -59l1 -11q11 -17 20.5 -28t19.5 -22q17 -19 31 -38t14 -40q0 -20 -4 -27t-24 -7q-17 0 -29 6.5t-20.5 17t-14.5 24.5t-11 28q-2 4 -3.5 7.5t-3.5 7.5l-22 3q-13 -19 -24 -29.5t-18 -10.5q-9 0 -22 13.5t-27 35.5l-20 2 q-21 -23 -45.5 -48.5t-47 -46.5t-42 -35t-31.5 -14q-20 0 -34.5 4t-21.5 24q0 1 -0.5 1.5t-0.5 1.5q0 7 10.5 19.5t25.5 26.5t33 28t33 25v1q22 16 32 26l63 63l3 12q-11 33 -11 52z" />
<glyph unicode="&#xa5;" horiz-adv-x="554" d="M270 -2q-3 1 -1 1q0 -1 1 -1zM235 452q6 6 8 6q-2 -1 -5 -6h-3zM233 443l1.5 3t3.5 6h14v-1q0 -9 -1.5 -10.5t-10.5 -1.5zM114 293q-4 3 2 4t19 1.5t31.5 0t40.5 -0.5h26l13 13v3l-2 7q-12 18 -38 37.5t-58 41.5q-24 16 -48.5 32.5t-44.5 34t-32.5 35.5t-12.5 36 q0 19 18 29t33 10q23 0 38 -20.5t30 -46.5q9 -16 18.5 -31t21 -27t26 -19t32.5 -7q3 0 8 1q2 0 8 2q4 -4 13.5 -8t23.5 -4t28 5t27 17l4 -4l16 -1q9 8 19.5 22.5t22.5 31.5q10 15 21 31t21 29t19 21t16 8q41 0 41 -40q0 -18 -11 -37t-28.5 -38t-38.5 -38t-41 -36 q-23 -20 -42.5 -37t-30.5 -33l11 -20q51 -1 86.5 -2t37.5 -3q1 -2 1 -5q0 -7 -5 -15.5t-12 -16t-15 -12.5t-14 -5q-2 0 -4.5 0.5t-4.5 0.5h-3q-2 2 -22.5 3.5t-53.5 1.5l-12 -12v-65l12 -13h32q42 0 70.5 -1.5t31.5 -5.5q0 -7 -5 -15.5t-12.5 -16t-15.5 -12.5t-14 -5h-9h-2 q0 1 -1 1q-2 2 -23 3t-52 1l-12 -12v-54q0 -7 -5 -14t-12 -12.5t-14.5 -9t-12.5 -3.5q-12 7 -15 10q-11 8 -15 13t-4 15q0 25 3 51l-13 13q-47 -2 -77 -3t-39 -1l2 48q-7 5 3 6.5t30 1.5h39q12 0 25.5 0.5t27.5 0.5l13 13v3q1 11 1.5 21.5t0.5 21.5v20l-13 12 q-32 0 -62 -0.5t-50 -1.5h-12v50z" />
<glyph unicode="&#xa6;" horiz-adv-x="212" d="M22 -110q0 2 0.5 6t0.5 8v11l70 809q3 15 15.5 22t29.5 7q10 0 12 -8t2 -17v-62q0 -11 -1 -38t-3 -62t-4 -73.5t-4.5 -71.5t-4.5 -57t-3 -29l-0.5 -19t-1.5 -42q-1 -33 -2.5 -77.5t-4 -92.5t-6.5 -95t-10.5 -84t-15 -60t-20.5 -23q-24 5 -36.5 18t-12.5 30z" />
<glyph unicode="&#xa7;" horiz-adv-x="619" d="M132 -102q19 -16 36 -16t33.5 14.5t31.5 31.5q6 7 12.5 13.5l13.5 13.5q17 16 38 19t45 5q21 2 41 5.5t33 16.5q12 13 12 24q0 9 -9 18.5t-21 19.5q-6 5 -13 10.5t-13 13.5q-2 2 -4 4.5l-6 7.5q-2 1 -4 5l3 13q5 5 9 10.5t9 10.5q8 9 15.5 17.5t13.5 13.5q15 14 32 20 t34 10q15 4 30.5 9.5t28.5 19.5q21 24 21 33q0 5 -4.5 10.5t-11.5 11.5q-6 5 -10 9t-7 8v1q-4 4 -11.5 13t-18.5 22q-9 12 -19.5 25t-20.5 24.5t-17.5 20t-10.5 11.5q-5 9 -8.5 12t-8.5 8q-15 18 -32 38t-31.5 41.5t-25.5 44.5t-15 47l12 14q-3 0 -7 -2l1 2q14 16 31 21 t37 5h13t14 -1q8 -1 14 -1h15q14 0 26.5 3t22.5 13q11 14 11 19q0 6 -11 15q-73 4 -112.5 6t-61.5 3t-35 1h-33h-10q-14 -8 -22 -13.5t-19 -17.5q-12 -15 -12 -19q0 -7 4 -15q6 -7 13.5 -18.5t17.5 -27.5q11 -19 24 -39.5t27 -36.5l-11 -20q-12 1 -24.5 1.5t-26.5 0.5 q-22 0 -42 -1t-36.5 -2.5t-27.5 -3t-14 -2.5q-17 -8 -25 -13.5t-19 -16.5q-10 -10 -10 -19q0 -7 4 -16q2 -3 4 -5.5t4 -4.5h1q10 -13 26 -33.5l32 -41t30 -38t20 -24.5v-1q3 -4 7 -8t9 -10q16 -19 38.5 -46.5t43 -56t35 -54t14.5 -40.5q0 -11 -7 -18q-20 -21 -43.5 -32 t-47.5 -19q-21 -7 -40.5 -15.5t-31.5 -22.5q-14 -15 -14 -26q0 -14 22 -33zM273 205q-5 6 -9.5 11.5t-9.5 12.5q-15 17 -32 36.5t-31 40t-25 43t-14 45.5v3q0 2 3.5 9.5t5.5 7.5q17 19 40 26.5t50 7.5q44 0 86 -19l5 -3q17 -20 35 -42t32.5 -42.5t24 -38t9.5 -29.5 q0 -9 -7 -17l-6 -6q-26 -27 -50 -48.5t-58 -21.5q-14 0 -33 6l-8 7q-1 2 -2 2l-1 2q-4 4 -5 7z" />
<glyph unicode="&#xa8;" horiz-adv-x="411" d="M41 917q0 27 13.5 37t33.5 10t26 -13.5t6 -33.5q0 -8 -2.5 -18t-7 -20t-10.5 -16.5t-14 -6.5h-3q-18 5 -30 22.5t-12 38.5zM272 917q0 27 13.5 37t33.5 10t26 -13.5t6 -33.5q0 -8 -2.5 -18t-7 -20t-10.5 -16.5t-14 -6.5h-3q-19 5 -30.5 22.5t-11.5 38.5z" />
<glyph unicode="&#xa9;" horiz-adv-x="1606" d="M572 419h-4l-6 -2t-6 -1q-58 -31 -58 -132q7 -18 49 -18q2 0 5.5 0.5t8.5 1.5q4 1 15 1q41 0 56 104q-12 46 -60 46zM625 349q0 -29 -18 -56l-4 -4q-31 -16 -54 -16q-42 0 -42 54q0 15 2 17q25 60 64 60q29 0 44 -28q8 -8 8 -27zM1050 280l-3 107q-12 43 -35 43 q-10 0 -14 -2q-63 -80 -69 -146h17q22 39 52 39q29 0 50 -40zM374 585l-14 -4l-111 37h-5q-34 0 -34 -123l-13 -12l22 -1l19 122l18 8q64 -41 95 -41q3 0 7 1t10 3l109 111l15 2l-7 4q-21 -8 -48.5 -34.5t-62.5 -72.5zM797 412l-11 3l-4 -101l-21 -7l-82 85l3 -124h3v71 l21 8q27 -33 49 -52.5t42 -24.5v142zM1220 420l-8 2l-5 -102l-21 -7l-82 85l4 -124l3 1v70l21 8q53 -67 88 -77v144zM1039 349l-11 -16h-58l-10 19l37 57l21 -3zM1286 576q34 7 34 39l-15 13h-239l-12 15l8 44l-17 2l12 -15l-16 -51h259l7 -23l-57 -40l36 -8v24zM506 78 l11 -16l-8 -39l19 -11l249 38l15 -13v-28l6 25l-23 27l-247 -47l-13 18l23 50l-193 7zM811 -18l189 94l13 -2l56 -54l43 9l97 101l10 1l-16 5l-96 -107l-16 -2l-86 53l-198 -92l-15 12v-12zM38 323l106 -46l2 -22l-43 -34l87 37l-148 74l4 22l-15 -2zM458 421 q-105 -17 -105 -83q0 -7 1 -12v-3v-2q1 0 1 -2q2 -7 3.5 -13t3.5 -11q-1 3 -1 11q0 43 30 76h1q26 27 56 27h10q5 0 -1 2zM1323 95q19 0 27 12l11 111l14 11l-23 4l-8 -122l-15 -12l-99 29q29 -17 52.5 -25t40.5 -8zM309 416l-9 -1l-15 -145l16 5zM881 423l-9 -1l-15 -145 l16 5zM278 142l-27 -25v-21l18 -2l-6 21l58 38l-49 10zM1312 419l-20 4l-5 -103l6 -1zM1422 460q61 8 61 42v2l-17 4l9 -15l-10 -19h-8l-70 -19l32 -16zM568 419q28 4 35.5 8.5t2 8t-18.5 5.5t-25 2v-24h6zM1535 369l-9 -19l-69 -5h70l16 32l1 1q-6 16 -100 49l76 -35l5 -5z M845 662l194 27l-33 4zM108 191h2l154 -27l-158 33l-3 24l-14 -10q0 -20 19 -20zM1286 551l180 -43l-2 4l-8 6l-170 34v-1zM750 717h-5l-172 -78l9 -1zM57 355l96 8l-18 21l-6 -16zM1473 212q22 4 22 27v8v3l-23 28q8 -14 13 -23.5t5 -17.5q0 -11 -5 -17l-13 -5l-97 14z M80 452l16 -18l-11 40l14 16l68 -5l-80 7zM412 253q4 0 11.5 2t17.5 4h3q1 0 -4.5 0.5t-4.5 0.5v1q-3 -1 -9 -1h-14q-13 0 -21.5 2.5t-15.5 7.5q14 -17 37 -17zM1435 324l8 20l-24 -2q5 -5 8.5 -9t7.5 -9zM500 683l67 -47l6 3h-2zM96 434l3 -5l36 -45l1 5zM786 702l-27 19 l-9 -4h4l20 -8l8 -9l1 -7zM787 663l-4 30l-4 -10l3 -14zM345 89l-76 5l1 -2zM1220 262l13 13q-9 0 -13 1v-14zM797 256l12 13q-8 0 -12 1v-14zM1435 324l37 -46q-7 10 -16 21.5t-21 24.5zM845 662l-46 -6l5 -1zM1444 427l-25 12v-3zM787 663l2 -8l10 1l-5 2zM375 270 q-9 11 -13 25q3 -16 13 -25zM1286 248l-3 1l-6 -4l2 -3zM1230 128q-2 1 -3 2t-3 2l-5 -1zM792 9l-3 -7l3 -2v9zM197 483l-30 2zM1457 345h-13l-1 -1zM57 355h-11v-1zM1492 502l-9 2q4 -2 9 -2zM500 683l-7 5h-1zM1045 689l-1 1l-5 -1h6zM1497 249h1l-3 1zM633 371v5 q0 -1 -0.5 -1.5t-0.5 -1.5v-1q1 0 1 -1zM1546 380l-2 -2v-1q0 1 2 3zM1483 504v1v-1z" />
<glyph unicode="&#xaa;" horiz-adv-x="347" d="M78 504q17 4 37.5 13.5t42.5 21t43.5 24.5t40.5 24l6 11v47q0 9 -11 21t-22 12q-12 0 -37.5 -14.5t-52 -33.5t-46.5 -38t-20 -29q0 -21 3 -42v-4zM68 400q-5 -5 -24 -5h-12t-7 2v160q0 2 -0.5 6t-0.5 9q0 10 1 19.5t4 10.5l3 1q6 2 24.5 13.5t43.5 27.5q21 13 43.5 27 t43 26t36.5 19.5t24 7.5q9 0 16.5 -6t13 -14.5t8.5 -17.5t3 -15q0 -3 0.5 -8t0.5 -10v-1q1 -10 1 -24v-28t-0.5 -27t-0.5 -26v-48q0 -17 -0.5 -30.5t-0.5 -19.5v-6q0 -10 -3.5 -22t-16.5 -12q-5 0 -12.5 2.5t-7.5 7.5v129l-19 11q-13 -8 -32.5 -18.5t-39 -20t-34 -16.5 t-17.5 -8l-4 -1l-28 -15l-7 -12v-12t1 -11q0 -5 0.5 -8t0.5 -8v-6q0 -3 -0.5 -5.5t-0.5 -4.5v-13z" />
<glyph unicode="&#xab;" horiz-adv-x="346" d="M279 198q0 9 -7.5 22t-18.5 28t-24.5 29t-25.5 25v19q12 12 25.5 26.5t24.5 29.5t18.5 28t7.5 21l-6 30q-16 -6 -34.5 -22.5t-34 -36.5t-26 -40t-10.5 -35q0 -2 0.5 -1.5t0.5 -1.5l4 -13q3 -13 12.5 -32t23.5 -38.5t30.5 -37.5t33.5 -28zM142 195q0 8 -7.5 21.5t-19 28.5 t-25 29t-25.5 25v18q12 12 25.5 27t25 30t19 28t7.5 21l-6 29q-16 -6 -34.5 -22t-34 -36t-26 -40t-10.5 -35v-2q1 0 1 -2l3 -13q3 -12 13 -31t24 -39t30.5 -38t33.5 -28zM133 150l18 10q-4 1 -7.5 2.5t-7.5 3.5zM270 153l18 10q-4 1 -7.5 3t-7.5 4z" />
<glyph unicode="&#xac;" horiz-adv-x="488" d="M440 144l-96 2q11 35 14 62t5 47q1 4 1 8t1 7l-11 17q-8 1 -19 1h-27q-24 0 -54.5 -0.5t-63 -1t-64 -1t-57.5 -1.5t-38 -1.5t-18 -0.5l2 89q-3 2 8 2t32 -1t50 -3t61 -4q46 -3 94 -6t88 -6.5t67 -7.5t30 -8q2 -4 2 -19q0 -8 -1 -16t-4 -10l-4 -9q0 -6 0.5 -12.5 t0.5 -12.5q1 -23 1 -43v-35v-36z" />
<glyph unicode="&#xad;" horiz-adv-x="339" d="M15 423q-4 3 3 3t21 -0.5t33.5 -2.5t40.5 -4q29 -3 60.5 -6t57.5 -6t44 -7t20 -9q0 -9 -6.5 -19.5t-16.5 -19.5t-20.5 -15.5t-18.5 -6.5h-10q-3 0 -1.5 0.5t-0.5 0.5q-1 4 -23 4q-9 0 -23 -0.5t-30 -1.5t-33.5 -2.5t-33.5 -2.5q-26 -2 -40.5 -4.5t-24.5 -2.5z" />
<glyph unicode="&#xae;" horiz-adv-x="1464" d="M1293 439l2 24q56 8 56 40v2l-179 44v25q29 7 29 40l-11 11h-218l-12 14l7 42l-51 6l-183 -36l-10 3l-12 9l-3 15l7 17l-23 19l-161 -80l-11 1l-78 51q-36 -13 -99 -103l-14 -5l-100 37h-5q-29 0 -29 -119l-13 -13l-100 8l-7 -38l50 -60l-7 -21l-87 -14l6 -28l96 -44 l3 -21l-52 -44q0 -18 15 -18h2l148 -27l6 -22l-24 -24v-19l230 -19l11 -14l-7 -39l16 -9l228 35l15 -12v-48l14 -4l171 90l14 -2l53 -52l37 7l88 100l15 2q54 -35 89 -35q17 0 23 12l10 106l14 11l90 -18q19 6 19 27v6q0 2 -0.5 3t-0.5 4l-54 70l9 20h76l13 31h1 q-5 17 -112 56zM750 265l-12 -13q-49 0 -90 55v-42l-11 -13l-25 -3l-14 13l-2 84q-20 -94 -70 -94q-3 0 -11 -2h-1q-5 -1 -15 -1q-54 0 -67 38l-1 4q0 112 67 151l2 1q8 4 13 4h9q52 0 72 -47v25l22 9l75 -82l3 84l15 12l32 -9l9 -13v-161zM291 448l14 -13l-3 -60 q19 59 126 76l15 -13l-4 -41l-19 -9q-4 2 -11 2q-18 0 -33 -20q-23 -24 -23 -56q0 -20 24 -20q18 0 26 3l17 -11l1 -28l-6 -11q-11 -7 -19.5 -8t-18.5 -1q-61 0 -77 81l-2 -46l-8 -10l-39 -13l-16 13l16 167l11 12zM1135 271l-12 -12q-47 0 -88 56v-43l-11 -12l-25 -3 l-13 12l-4 162l21 9l76 -81l4 84l16 10l28 -10l8 -12v-160zM979 272l-16 -11l-19 7l-7 5q-15 30 -28 30q-16 0 -31 -30l-10 -6h-33l-13 13q6 84 70 168l6 4q16 6 24 6q45 0 55 -61v-2zM813 454l14 -13l-8 -162l-9 -11l-39 -11l-15 13l16 167l11 11zM1211 444l9 -15l-20 -120 l-14 -10l-26 4l-10 14l6 126l15 11zM548 356q0 9 -4 13q-7 14 -20 14q-20 0 -38 -41v-8q0 -29 15 -29t35 13q8 9 10 18t2 20zM1198 273l3 -21l-27 -24h-16l-20 19l1 20l22 15l12 2zM601 377q-2 -9 -2.5 -16.5t-2.5 -14.5l-2 54q4 -6 7 -18v-5zM300 322q0 3 -0.5 4t-0.5 3 q-1 4 -1 16q0 17 4 30l-2 -56v3zM921 364l-6 15l-9 -15h15zM1416 390q-8 0 -11 -7z" />
<glyph unicode="&#xaf;" horiz-adv-x="389" d="M-11 976q-4 3 27.5 4.5t84.5 1.5h105q40 0 78.5 -1t69 -2.5t50 -4t21.5 -6.5q0 -9 -6.5 -20.5t-16 -21.5t-20 -17t-17.5 -7h-9q-4 0 -2 1t0 1q-1 3 -21.5 4t-53.5 1q-25 0 -55 -0.5t-61.5 -1.5t-62 -2.5t-55.5 -2.5q-24 -1 -35.5 -1.5t-16.5 -0.5z" />
<glyph unicode="&#xb0;" horiz-adv-x="292" d="M164 711q0 -2 -0.5 -1t-0.5 2zM63 557q0 -10 6.5 -27.5t16 -35t20.5 -30.5t21 -13q9 0 22 14.5t24.5 34t19.5 40t8 31.5q0 9 -7.5 23t-18 26.5t-22 21.5t-19.5 9q-6 0 -18 -12.5t-24 -28.5t-20.5 -31.5t-8.5 -21.5zM86 456q-5 18 -17.5 32t-24.5 28q-10 10 -18.5 19 t-10.5 17v1q0 2 0.5 0t0.5 0q2 2 12.5 14t21.5 24q5 5 8.5 9.5t6.5 6.5h1q5 7 13 19t16 25h1q13 23 27.5 43.5t29.5 20.5h6q1 0 4 -3q-2 4 -1 3q6 -26 13.5 -49.5t21.5 -43.5h1q3 -4 7 -8.5t8 -9.5q11 -11 20 -22.5t9 -19.5q0 -5 -2 -7l-106 -155z" />
<glyph unicode="&#xb1;" horiz-adv-x="500" d="M34 73q-3 1 8.5 1.5t32.5 0.5t49.5 -0.5t60.5 -0.5q45 -1 92.5 -1.5t87 -2t65.5 -4t29 -5.5q0 -7 -6.5 -16t-16 -16.5t-20 -13t-17.5 -5.5h-10q-3 0 -1 0.5t0 0.5q-1 3 -22 4t-53 1q-25 0 -55.5 -0.5t-61.5 -1.5t-61.5 -2t-55.5 -2q-24 -1 -34.5 -1.5t-15.5 -0.5z M185 160q-3 -5 -3.5 2t0.5 22.5t2 37t3 46.5q1 11 1.5 22.5t1.5 23.5l-12 14q-9 0 -17.5 -0.5t-16.5 -0.5q-35 0 -63.5 1.5t-46.5 3.5q-9 1 -11 1h-3l-4 73q-4 3 6 3.5t29 0.5q20 0 47 -1.5t58 -2.5h2q6 0 12.5 -0.5t13.5 -0.5l13 11q2 32 4 61t4.5 51.5t5 36t4.5 15.5 q3 3 3 2q7 0 16 -6.5t16.5 -15.5t13 -19.5t5.5 -17.5q0 -2 -1 -4.5t-1 -5.5v-5q-4 -4 -4 -43q0 -11 0.5 -25t1.5 -30l12 -11q33 -2 62.5 -4.5t52 -5t36 -5t15.5 -5.5q2 -2 2 -7q0 -14 -9.5 -30t-21.5 -16q-1 0 -9 0.5t-18 1.5q-8 1 -14.5 1.5t-4.5 0.5q-3 3 -42 3 q-10 0 -21 -0.5t-24 -0.5l-12 -14q2 -32 2.5 -62.5t2.5 -55.5q1 -21 2 -29t1 -13z" />
<glyph unicode="&#xb2;" horiz-adv-x="351" d="M29 519h8v-4q0 -2 -0.5 -5t-0.5 -7v-3q-1 -4 -1 -11q0 -2 1.5 -8.5t7.5 -28.5q4 -16 10.5 -43.5t16.5 -69.5q2 -5 6.5 -6t9.5 -1q12 0 18 0.5t15 5.5q4 3 9 4.5t19.5 3t43.5 3.5t82 5q0 7 -1 16.5t-9 9.5q-17 0 -37 -2l-40 -4q-21 -2 -41.5 -4t-38.5 -2l-12 8 q-3 8 -3.5 10t-1.5 5q-5 17 -13 43.5t-17 43.5l3 15l3 2q8 8 17 15t24 7h5q4 0 9 -2l6 -4q2 -2 17 -2h36q6 -1 10 -1h9q17 0 29 2.5t19 5.5l5 1h7q2 0 9.5 5.5t30.5 28.5l-48 29l-35 20q-1 0 -7.5 4t-16.5 10.5t-21.5 14.5t-23.5 17q-11 8 -24.5 17.5t-20.5 14.5 q29 -17 31.5 -17.5t-7.5 5.5t-23.5 14.5t-16.5 10.5h-1q-8 7 -17 10.5t-32 3.5h-2l-7 -3.5t-6 -3.5q1 -10 12 -20t30 -20h1q21 -14 43 -22h2q9 -5 35.5 -22t64.5 -45v-21q-24 -14 -55 -14q-14 0 -27 2.5t-27 6.5q-6 1 -11.5 2t-13.5 1q-10 0 -18.5 -4.5t-15.5 -15.5z" />
<glyph unicode="&#xb3;" horiz-adv-x="381" d="M40 536l11 -7q7 -11 16.5 -15t21.5 -4q8 0 16.5 1t16.5 3q10 3 19.5 5t17.5 2q26 0 56 -19l1 -21q-34 -25 -57.5 -39.5t-39.5 -22.5l-6 -3t-7 -3l-1 -1q-8 -4 -14.5 -7t-14.5 -7v-1q-19 -10 -31.5 -20t-14.5 -18q2 -2 7 -4.5t9 -3.5h1q25 0 35.5 4t21.5 13l1 1q4 2 8 5.5 t9 7.5q11 8 30 20.5t37.5 24.5t32 20.5t14.5 8.5l38 19l52 30l-41 51q-61 72 -110.5 104.5t-94.5 32.5q-14 0 -19 -6t-5 -12q0 -2 11.5 -7t29.5 -13q15 -7 32.5 -15.5t35.5 -19.5t34.5 -24.5t29.5 -31.5l-12 -21l-18 2q-5 -1 -10 -1h-9q-14 0 -27 2t-25 5h-1l-22 4t-19 2 t-18 -2l-1 -1q-19 -5 -19 -13v-5h-8z" />
<glyph unicode="&#xb4;" horiz-adv-x="217" d="M56 879h2q11 0 29.5 13t38 31t36.5 36.5t25 29.5q0 2 0.5 2.5l0.5 0.5h-6h-29q-14 0 -31.5 -9.5t-35.5 -24.5t-34 -34.5t-26 -38.5zM8 889l11 -20q2 8 7 16zM194 998q-1 -1 -2.5 -2t-3.5 -4q6 2 6 6z" />
<glyph unicode="&#xb5;" horiz-adv-x="549" d="M14 -3q0 2 0.5 6t0.5 8v11l50 429v133q0 8 13.5 10.5t23.5 2.5q32 0 45 -19l1 -7v-44l-14 -235v-1q0 -12 14 -30.5t36 -40t49 -43.5t53 -39.5t48 -28.5t34 -11q7 0 14.5 5.5t14.5 13.5t11.5 16t4.5 14v399q0 14 13.5 20t25.5 6t19 -7.5t11 -18t5.5 -22.5t1.5 -21v-3 q4 -23 5 -56.5t1 -73.5q0 -51 -1 -103.5t-2 -94.5q-2 -24 -2.5 -42.5t-0.5 -28.5q0 -12 -5 -29.5t-14 -34t-22 -28t-29 -11.5q-5 0 -25.5 11t-49 28t-61.5 37.5t-63 39.5q-32 20 -57.5 36t-34.5 21l-6 1h-1l-13 -11q-3 -36 -7.5 -74t-10.5 -69t-14 -51t-18 -20q-2 0 -1 0.5 t-1 0.5q-21 5 -31.5 18.5t-10.5 30.5z" />
<glyph unicode="&#xb6;" horiz-adv-x="471" d="M229 487l-8 -4l-64 -63l-4 -8v-37l6 -11l64 -37l1 -1q-1 0 -1 -9v-13q0 -6 -1 -15q-1 -11 -1.5 -23t-0.5 -24v-25q0 -10 2 -14q-13 -3 -24 -11.5t-20 -21t-17.5 -27.5t-15.5 -31q-7 -14 -14.5 -28t-16.5 -24.5t-21 -17t-28 -6.5q-25 0 -39 10.5t-14 36.5q0 11 -2 10l1 1 q5 2 14 6t22 16v1l114 112l4 8v3q0 3 0.5 5.5t0.5 4.5q0 29 -21.5 43.5t-47.5 27.5q-23 9 -41.5 21t-18.5 32q0 14 12.5 37.5t33 50t46 53.5t51.5 49t49 35.5t39 13.5q19 0 33.5 -19.5t25.5 -49.5t18.5 -67t12.5 -72t7.5 -63.5t3.5 -42.5v-1q3 -24 11 -52.5t19 -58.5 q13 -38 23.5 -76t10.5 -75q0 -20 -12.5 -28t-33.5 -8h-1l-30 29q-1 9 -4.5 30t-7.5 44.5t-7.5 44.5t-5.5 30q-3 14 -9 49t-12 73q-5 32 -9.5 61.5t-7.5 43.5q-1 9 -6.5 23t-12 27t-12 22.5t-7.5 9.5h-26z" />
<glyph unicode="&#xb7;" horiz-adv-x="182" d="M24 381q0 -21 14.5 -38.5t37.5 -22.5h2q10 0 18 6.5t13.5 16.5t8.5 20t3 18q0 20 -8 33.5t-32 13.5q-25 0 -41 -10t-16 -37z" />
<glyph unicode="&#xb8;" horiz-adv-x="133" d="M56 -62q0 11 4.5 26.5t10.5 33.5q3 11 6 20.5t5 17.5q-1 -2 -1 -4t-1 -4q-5 -15 -12.5 -32t-19 -31.5t-29 -24t-42.5 -9.5q-15 0 -30.5 2.5t-30.5 10.5l-26 -46q0 -1 -3 -4q5 -1 20 -1h32q12 0 23 0.5t22 0.5h24q20 0 34 9.5t14 32.5v2zM88 54q-4 1 -4 -2q0 -6 -2 -16 q2 8 4.5 13t1.5 5zM-114 -106q0 -3 0 -2l1 2h-1z" />
<glyph unicode="&#xb9;" horiz-adv-x="204" d="M14 391q0 2 0.5 4.5t0.5 4.5v1l63 285q2 6 11.5 8.5t22.5 2.5q6 0 7.5 -2.5t1.5 -4.5v-34q0 -8 -1.5 -24t-3.5 -33.5t-4.5 -32t-3.5 -19.5q2 5 2 3q0 -1 -1 -6t-2 -11.5t-2 -11.5q-2 -18 -5 -43.5t-8.5 -49t-14.5 -40.5t-22 -17h-4q-37 3 -37 20z" />
<glyph unicode="&#xba;" horiz-adv-x="292" d="M164 711q0 -2 -0.5 -1t-0.5 2zM63 557q0 -10 6.5 -27.5t16 -35t20.5 -30.5t21 -13q9 0 22 14.5t24.5 34t19.5 40t8 31.5q0 9 -7.5 23t-18 26.5t-22 21.5t-19.5 9q-6 0 -18 -12.5t-24 -28.5t-20.5 -31.5t-8.5 -21.5zM86 456q-5 18 -17.5 32t-24.5 28q-10 10 -18.5 19 t-10.5 17v1q0 2 0.5 0t0.5 0q2 2 12.5 14t21.5 24q5 5 8.5 9.5t6.5 6.5h1q5 7 13 19t16 25h1q13 23 27.5 43.5t29.5 20.5h6q1 0 4 -3q-2 4 -1 3q6 -26 13.5 -49.5t21.5 -43.5h1q3 -4 7 -8.5t8 -9.5q11 -11 20 -22.5t9 -19.5q0 -5 -2 -7l-106 -155z" />
<glyph unicode="&#xbb;" horiz-adv-x="346" d="M33 198v2q0 9 8 22t19.5 27.5t25 28.5t24.5 24v19q-11 11 -24.5 25.5t-25 29t-19.5 28t-8 21.5v1l6 30q16 -6 34.5 -22.5t34 -36.5t26 -40t10.5 -35q0 -2 -0.5 -1.5t-0.5 -1.5l-4 -13q-3 -14 -13.5 -35t-24.5 -42t-30.5 -37.5t-31.5 -22.5zM170 195v2q0 9 8 22t19.5 27.5 t25 28.5t24.5 24v18q-11 11 -24.5 26t-25 29.5t-19.5 28t-8 21.5v1l6 29q16 -6 34.5 -22t34 -36t26 -40t10.5 -35q0 -2 -1 -2v-2l-3 -13q-3 -14 -14 -35t-25 -42t-30.5 -37.5t-31.5 -22.5z" />
<glyph unicode="&#xbc;" horiz-adv-x="686" d="M48 44q-5 -13 -5 -20q0 -20 22 -24q1 0 0 -0.5t1 -0.5q11 0 26.5 17t33 44t36 61t35 68.5t31.5 66.5t25 54q5 11 9 19t6 13l1 1q5 8 19 36t29.5 61.5t30 65.5t20.5 47l17 41v1q1 2 1.5 4t1.5 4q4 8 8 17.5t4 15.5q0 1 -3 1q-15 0 -30 -7.5t-26 -24.5l-282 -536l-1 -1 q-2 -3 -5 -10.5t-4 -10.5zM367 126q8 3 29 10t48.5 15.5t57.5 16.5t57 14l15 -12l2 -14t2 -15q2 -15 4 -30.5t4 -31.5v-22q0 -14 5.5 -26.5t22.5 -12.5q2 0 3 -0.5l1 -0.5v13q0 3 0.5 5.5t0.5 6.5v7q0 16 -3 60t-12 93l6 12l8 4q0 2 -5 6t-11 9l-5 8q-8 35 -16.5 60 t-19.5 29q0 -3 -0.5 -6t-0.5 -5v-16q0 -14 1 -29t4 -31l-5 -10q-19 -19 -38.5 -24.5t-40.5 -10.5q-20 -4 -40.5 -9t-40.5 -21l-20 9q-3 25 -6.5 49t-7.5 43t-9 30.5t-12 11.5q-5 0 -8 -6t-3 -11q0 -2 2.5 -14.5t4.5 -17.5l1 -2zM43 324q0 -15 30 -19h3q11 0 18 16t11.5 39 t7 48t4.5 42q0 4 1 10.5t2 11t0.5 6t-1.5 -2.5q1 4 3 18.5t3.5 31t2.5 32t1 23.5v32q0 7 -7 7q-10 0 -18 -2.5t-9 -7.5l-51 -274v-1q0 -3 -0.5 -5.5t-0.5 -4.5zM561 330v6q-3 -5 -4 -5q3 0 4 -1z" />
<glyph unicode="&#xbd;" horiz-adv-x="696" d="M43 324q0 2 0.5 4.5t0.5 5.5v1l51 274q1 5 8.5 7.5t18.5 2.5q7 0 7 -7v-32q0 -8 -1 -23.5t-2.5 -32t-3.5 -31t-3 -18.5q1 4 1.5 2.5t-0.5 -6t-2 -11t-1 -10.5q-2 -17 -4.5 -42t-7 -48t-11.5 -39t-18 -16h-3q-30 4 -30 19zM371 183l12 6q11 20 32 20q7 0 12 -1t12 -2 q12 -4 25 -6.5t26 -2.5q14 0 27 3t25 11v20q-35 27 -60.5 43.5t-34.5 21.5h-1q-12 5 -22.5 11t-19.5 11h-1q-38 19 -40 38q1 1 5.5 4t6.5 4h2q23 0 31 -4t16 -10h1q2 -2 8.5 -6.5t12 -9t8.5 -7t-1 0.5q7 -5 14.5 -11t16.5 -12l22 -16t20 -14t15.5 -10t7.5 -4l34 -19l45 -28 q-11 -11 -18 -17.5t-11 -10t-6 -4.5t-3 -1h-6l-6 -1q-6 -3 -17.5 -6t-27.5 -3h-9t-9 1h-35q-13 0 -16 3l-5 4q-5 2 -9 2h-5q-14 0 -23 -7t-17 -15l-2 -2l-3 -15q4 -8 8.5 -19t8 -23t6.5 -23t5 -19l1.5 -4.5t4.5 -9.5l11 -9q17 0 36.5 2t39.5 5q20 2 38.5 4t35.5 2 q8 0 9 -9.5t1 -16.5q-51 -3 -79 -5t-41.5 -3.5t-18 -3t-8.5 -4.5q-9 -4 -15 -4.5t-17 -0.5q-5 0 -9 0.5t-6 5.5q-11 46 -17 72.5t-10 42.5q-5 17 -6.5 23.5t-1.5 8.5q0 6 1 10v3q0 3 0.5 6.5t0.5 5.5q0 5 -1 4h-6zM49 47q1 3 4 10.5t5 10.5l1 1l282 536q10 17 25 24.5 t30 7.5q3 0 3 -1q0 -6 -3.5 -15.5t-7.5 -17.5q-1 -2 -1.5 -4t-1.5 -4v-1l-17 -41q-6 -15 -20.5 -47t-30.5 -65.5t-29.5 -61.5t-18.5 -36l-1 -1q-2 -5 -6 -13t-10 -19q-10 -22 -24.5 -54t-31.5 -66.5t-35 -68.5t-35.5 -61t-33 -44t-26.5 -17q-2 0 -1 0.5t0 0.5q-22 4 -22 24 q0 7 5 20z" />
<glyph unicode="&#xbe;" horiz-adv-x="817" d="M185 44q-5 -13 -5 -20q0 -20 22 -24q1 0 0 -0.5t1 -0.5q11 0 26.5 17t32.5 44t35 61t35 68.5t31.5 66.5t24.5 54q5 11 9 19t6 13l1 1q5 8 19 36t29.5 61.5t30 65.5t20.5 47l16 41v1q1 2 1.5 4t1.5 4q4 8 8 17.5t4 15.5q0 1 -3 1q-15 0 -30 -7.5t-25 -24.5l-279 -536 l-2 -1q-2 -3 -5 -10.5t-4 -10.5zM36 476l11 -6q6 -11 15 -15t21 -4q8 0 15.5 1t15.5 3q18 6 35 6q14 0 27 -4.5t27 -12.5l1 -21q-33 -23 -55.5 -37.5t-36.5 -21.5q-4 -2 -6.5 -3t-6.5 -4l-1 -1q-8 -4 -14 -6.5t-14 -6.5v-1q-17 -10 -29 -19.5t-14 -17.5q2 -2 6.5 -4.5 t7.5 -3.5h1q26 0 35 4t20 13l1 1q3 2 7 5.5t9 6.5q11 8 29 20t35 23.5t30 20t14 8.5l37 19l49 29l-39 49q-58 69 -105 100.5t-90 31.5q-13 0 -17.5 -6t-4.5 -11q0 -2 10.5 -7t27.5 -13q29 -14 65 -33.5t61 -54.5l-11 -20l-18 2q-4 -1 -9 -1h-8q-14 0 -26.5 2t-23.5 4h-1 q-11 3 -21 5t-18 2q-9 0 -17 -2l-1 -1q-19 -7 -19 -13v-5h-7zM502 126q8 3 29 10t48 15.5t57 16.5t56 14l14 -12q1 -7 2.5 -14t2.5 -15q2 -15 4 -30.5t4 -31.5v-22q0 -14 5 -26.5t22 -12.5q2 0 3 -0.5l1 -0.5v13q0 3 0.5 5.5t0.5 6.5v7q0 16 -3 60t-12 93l7 12q4 2 5.5 3 l1.5 1q0 2 -4.5 6t-11.5 9l-5 8q-7 35 -15.5 60t-19.5 29q0 -3 -0.5 -6t-0.5 -5v-16q0 -14 1 -29t3 -31l-4 -10q-19 -19 -38.5 -24.5t-40.5 -10.5q-19 -4 -39.5 -9t-40.5 -21l-20 9q-3 25 -6.5 49t-7.5 43t-9 30.5t-11 11.5q-5 0 -8 -6t-3 -11q0 -2 2.5 -14.5t4.5 -17.5 l1 -2zM694 330v6q-3 -5 -4 -5q3 0 4 -1z" />
<glyph unicode="&#xbf;" horiz-adv-x="492" d="M433 284h-9q3 10 3 16v7q0 5 1 10q1 7 1.5 12.5t0.5 10.5q0 18 -3 20q-6 1 -11 2l-5 1q-10 0 -17.5 -7t-15.5 -16v-1q-10 -13 -23 -24t-35 -11q-5 0 -8.5 0.5t-7.5 1.5l-6 4q-4 5 -12 6t-19 1h-50q-8 1 -16 1.5t-14 0.5q-26 0 -44 -4t-26 -9h-1q-5 -2 -7 -2h-4h-3 q-2 0 -5 -2t-10.5 -8.5t-20 -19.5t-31.5 -34l75 -52l52 -33q1 0 20 -14t44 -33t50.5 -39t41.5 -32h1q7 -5 13 -11.5t15 -14.5q6 -6 12 -10.5t14 -7.5t20 -5t31 -2h2q5 2 14 8.5t12 8.5v1q0 19 -18 37.5t-47 35.5q-11 8 -26.5 16t-39.5 21v1q-16 8 -56 36t-88 68l1 19 q17 13 35.5 18t38.5 5q36 0 73 -14q23 -5 42 -5q17 0 31 7.5t23 27.5zM434 510q0 17 -11.5 31t-30.5 19h-1q-8 0 -14.5 -5.5t-11 -13.5t-7 -16.5t-2.5 -14.5q0 -17 6.5 -27.5t25.5 -10.5q20 0 33 8t13 30z" />
<glyph unicode="&#xc0;" horiz-adv-x="477" d="M201 787q-1 0 -1 2v-1zM326 693h-2q-11 0 -27.5 11t-34 25.5t-33 29.5t-23.5 24l-5 4q4 -2 24 -2h11q13 0 30.5 -8t35 -20.5t32 -28t20.5 -30.5zM374 215l2 -5q5 -7 12.5 -29t17.5 -48q9 -27 17.5 -50t13.5 -29q0 -2 0.5 -5t0.5 -5q0 -18 -16.5 -28t-33.5 -10h-24 q-2 0 -2 -2l-82 338l-1 3l-17 31l-12 6q-5 0 -12.5 -15.5t-17.5 -39.5v-1q-12 -29 -27.5 -68t-31.5 -76.5t-30 -66.5t-22 -38q-8 -8 -13.5 -15t-10.5 -14q-9 -12 -18.5 -20t-32.5 -8h-1q-2 2 -8 7.5t-8 7.5v2q0 27 13 47q7 11 29 49t57 104q34 66 68 144.5t67 174.5 q4 1 3.5 1.5t3.5 1.5l1 1q13 4 15 7l2 3z" />
<glyph unicode="&#xc1;" horiz-adv-x="477" d="M374 215l-98 355l-2 -2.5t-15 -6.5l-1 -1q-4 -1 -3.5 -1.5t-3.5 -1.5q-33 -96 -67 -175t-68 -145q-35 -66 -57 -104t-29 -49q-13 -20 -13 -47v-2q2 -2 8 -7.5t8 -7.5h1q23 0 32.5 8t18.5 21q5 6 10.5 13t13.5 15q8 9 22 38t30 66.5t31.5 76.5t27.5 68v1q10 24 17.5 39.5 t12.5 15.5l12 -6l17 -31l1 -3l82 -338q0 2 2 2h24q17 0 33.5 10t16.5 28q0 2 -0.5 5t-0.5 5q-5 6 -13.5 29t-17.5 50q-10 26 -17.5 48t-12.5 30zM199 674h2q10 0 27 11t35 25.5t33 29.5t23 24q0 1 0.5 1.5l0.5 0.5h-5h-27q-12 0 -28.5 -7.5t-33 -20t-31 -28t-23.5 -31.5z M156 683l9 -17q1 3 3 6t4 7zM326 771q-4 -2 -6 -5q6 2 6 5z" />
<glyph unicode="&#xc2;" horiz-adv-x="477" d="M373 689q-5 0 -13.5 6.5t-18 16.5t-20 22t-20.5 23q-6 8 -11.5 14.5t-10.5 11.5l-16 2q-26 -14 -49 -34t-40 -37q-14 -13 -22.5 -21t-13.5 -8l-29 5q6 16 25 37t42.5 40.5t47 33t38.5 13.5h1l13 -3q13 -3 32.5 -15.5t38 -30t34 -36.5t21.5 -34zM374 214l2 -4 q5 -7 12.5 -29t17.5 -48q9 -27 17.5 -50t13.5 -29q0 -3 0.5 -5.5t0.5 -4.5q0 -18 -16.5 -28t-33.5 -10h-24q-3 0 -1 -3l-1 1l-82 337l-1 3l-17 31l-12 6q-5 0 -12.5 -15t-17.5 -39v-1q-12 -29 -27.5 -68.5t-31.5 -76.5t-30 -66t-22 -38q-8 -8 -13.5 -15t-10.5 -14 q-9 -12 -18.5 -20t-32.5 -8h-1q-2 2 -8 7.5t-8 7.5v2q0 27 13 46q7 12 29 50t57 104q34 66 68 144.5t67 173.5q4 2 3.5 2.5t3.5 1.5l1 1q13 4 15 6.5l2 2.5z" />
<glyph unicode="&#xc3;" horiz-adv-x="477" d="M374 215l-98 354l-2 -2.5t-15 -6.5l-1 -1q-4 -1 -3.5 -1.5t-3.5 -1.5q-33 -96 -67 -174.5t-68 -144.5q-35 -66 -57 -104t-29 -49q-13 -20 -13 -47v-2q2 -2 8 -7.5t8 -7.5h1q23 0 32.5 8t18.5 20q5 7 10.5 14t13.5 15q8 9 22 38t30 66.5t31.5 76.5t27.5 68v1 q10 24 17.5 39.5t12.5 15.5l12 -7l17 -31l1 -3l82 -337q0 2 2 2h24q17 0 33.5 10t16.5 28q0 2 -0.5 5t-0.5 5q-5 6 -13.5 29t-17.5 50q-10 26 -17.5 48t-12.5 29zM128 694q5 0 13.5 7t19 17.5t21 22.5t18.5 22l21 -1l12 -18q12 -15 29.5 -30.5t31.5 -20.5q3 -1 4 -1.5 t3 -0.5l-3 -3l4 3l10 3q9 3 24.5 12.5t31.5 22.5t29 27.5t17 27.5l-21 5h-1q-14 0 -34.5 -11.5t-37.5 -31.5l-14 -3q-11 4 -19.5 10.5t-18.5 14.5q-11 11 -22 19.5t-25 8.5q-2 0 -10 -2q-9 -3 -23.5 -12.5t-29.5 -23t-28.5 -29.5t-20.5 -31zM95 702l10 -15q1 2 1.5 5t2.5 6z " />
<glyph unicode="&#xc4;" horiz-adv-x="477" d="M110 717q0 22 13 30t33 8q19 0 25.5 -10.5t6.5 -27.5q0 -6 -2.5 -15t-7 -16.5t-10.5 -13t-14 -5.5h-2q-19 5 -30.5 19t-11.5 31zM336 717q0 22 13 30t33 8q19 0 25.5 -10.5t6.5 -27.5q0 -6 -2.5 -15t-7 -16.5t-10.5 -13t-14 -5.5h-2q-19 5 -30.5 19t-11.5 31zM374 215 l2 -4q5 -8 12.5 -30t17.5 -48q9 -27 17.5 -50t13.5 -29q0 -2 0.5 -4.5t0.5 -5.5q0 -18 -16.5 -28t-33.5 -10h-24q-2 0 -2 -2l-82 338l-1 3l-17 31l-12 6q-5 0 -12.5 -15t-17.5 -40v-1q-12 -29 -27.5 -68t-31.5 -76.5t-30 -66.5t-22 -38q-8 -8 -13.5 -15t-10.5 -13 q-9 -13 -18.5 -21t-32.5 -8h-1q-2 2 -8 7.5t-8 7.5v2q0 27 13 47q7 11 29 49.5t57 104.5q34 65 68 144t67 175q4 1 3.5 1.5t3.5 1.5l1 1q13 4 15 6.5l2 2.5z" />
<glyph unicode="&#xc5;" horiz-adv-x="477" d="M275 817l1 -3h-1v3zM180 731q-1 -1 -2 -1v0v3zM205 736q0 -6 5 -16.5t12 -20.5t15.5 -17.5t15.5 -7.5t16.5 8.5t18.5 19.5t15.5 23t6.5 18t-5.5 14.5t-13.5 16t-17 13t-15 5.5q-4 0 -13 -7.5t-18 -17t-16 -18.5t-7 -13zM226 686q-3 11 -12 18.5t-19 14.5q-9 6 -15 12 q6 4 17 13.5t15 14.5q7 6 10.5 10t6.5 9q9 13 20 24.5t22 11.5h4q3 -11 8.5 -23t17.5 -25h1q6 -5 8 -7.5t4 -3.5q6 -5 12.5 -9.5t6.5 -6.5h-1l-73 -80zM374 214l2 -4q5 -7 12.5 -29t17.5 -48q9 -27 17.5 -50t13.5 -29q0 -3 0.5 -5.5t0.5 -4.5q0 -18 -16.5 -28t-33.5 -10h-24 q-2 0 -2 -2l-82 337l-1 3l-17 31l-12 6q-5 0 -12.5 -15t-17.5 -39v-1q-12 -29 -27.5 -68.5t-31.5 -76.5t-30 -66t-22 -38q-8 -8 -13.5 -15t-10.5 -14q-9 -12 -18.5 -20t-32.5 -8h-1q-2 2 -8 7.5t-8 7.5v2q0 27 13 46q7 12 29 50t57 104q34 66 68 144.5t67 173.5q4 2 3.5 2.5 t3.5 1.5l1 1q13 4 15 6.5l2 2.5z" />
<glyph unicode="&#xc6;" horiz-adv-x="810" d="M762 253q-1 0 -1 -1v0q0 1 1 1zM123 207q27 7 59 23.5t65.5 37t65.5 43t59 42.5l5 10v83q0 6 -4 14.5t-10.5 16.5t-14 13.5t-14.5 5.5q-12 0 -33.5 -11t-47 -29t-52.5 -40t-48.5 -43t-35.5 -40t-14 -30q0 -22 1 -42.5t4 -41.5zM377 -4v8t1 12v1q0 4 0.5 8t0.5 9v2 q-2 10 -2 12v228l-18 10q-15 -10 -36.5 -22.5t-44 -25.5t-44 -25.5t-38.5 -21.5q-12 -7 -19.5 -11.5t-11.5 -6.5l-1 -1l-43 -27l-6 -10q0 -6 0.5 -12t0.5 -12v-1q1 -11 1.5 -21.5t0.5 -22.5v-11q0 -5 -0.5 -9t-0.5 -9v-22q-7 -11 -18.5 -15t-26.5 -4q-9 0 -22.5 2.5 t-13.5 11.5v284q0 5 -0.5 12t-0.5 16q0 19 2 38t10 21l3 1q12 6 40.5 25t63.5 45q32 24 67.5 49t67.5 46t57.5 34.5t37.5 13.5t22 -7.5t18.5 -19t14.5 -25.5t10 -27l12 -10h6l8 3q8 8 21 8q6 0 2 3l13 -3q26 11 53.5 25.5t53.5 30.5q25 14 49 28t38 19q1 0 1 -6v-11v-8 q0 -14 -15.5 -27t-40 -25t-55 -23.5t-59.5 -22.5l-9 -10q-1 -26 -11 -47q-5 -15 -9.5 -30t-4.5 -31q0 -29 6.5 -40t29.5 -11q30 0 55.5 16.5t49.5 36.5q22 19 45.5 34.5t49.5 15.5q11 0 18.5 -1.5t7.5 -10.5q0 -1 -0.5 -4.5t-1.5 -8.5v-2q0 -1 -7 -6.5t-12 -8.5h-1 q-8 -6 -27.5 -19t-40.5 -26.5t-40 -25t-27 -15.5v-1q-19 -11 -48 -19l-1 -1q-16 -5 -31 -10.5t-26 -15t-18 -24.5t-7 -39q0 -12 0.5 -21.5t4 -16t11.5 -10.5t22 -4q39 0 82.5 21.5t85.5 47.5q20 11 40.5 23t38.5 19q-1 -2 -1 -25q0 -8 -0.5 -18t-0.5 -16v-8 q0 -14 -15.5 -26.5t-39.5 -23.5t-54 -21.5t-60 -20.5q-26 -8 -49 -16.5t-41.5 -16.5t-30 -17t-13.5 -19q-4 -14 -4.5 -24t-0.5 -19q0 -12 -4.5 -19t-31.5 -7q-13 0 -23.5 14.5t-14.5 26.5z" />
<glyph unicode="&#xc7;" horiz-adv-x="492" d="M78 -93q-1 -2 -1 -3t0 3h1zM235 -57q0 -20 -12.5 -28t-31.5 -8h-22q-10 0 -21 -0.5t-22 -0.5h-31q-13 0 -17 1l3 3l24 40q23 -10 49 -10q21 0 34.5 7.5t22 19t14 26t9.5 28.5l1 1q2 5 3 9t3 9l1 2l2 7l-5 13q-18 13 -34.5 28t-33 34t-34 42t-38.5 53l-63 89l76 53l52 32 q2 0 20.5 14t43.5 33t50.5 39t41.5 33h1q16 12 28 24q7 6 12.5 11t14 8t20 5t30.5 2h2q5 -3 14.5 -9t11.5 -8v-1q0 -19 -18 -37.5t-47 -35.5q-11 -7 -26.5 -15.5t-39.5 -20.5q-17 -10 -58.5 -43t-108.5 -90l-4 -12q11 -45 34.5 -79t52.5 -59.5t60.5 -43.5t58.5 -32 q26 -14 43 -23.5t17 -16.5q0 -13 -8 -24.5t-30 -11.5q-52 0 -103 32l-18 -7q-3 -7 -4.5 -13t-6.5 -19q-5 -15 -9 -27.5t-4 -20.5v-2z" />
<glyph unicode="&#xc8;" horiz-adv-x="492" d="M173 778q-1 0 -1 2v-1zM297 684h-1q-11 0 -28 11t-34.5 25.5t-33 29.5t-23.5 24l-4 4q3 -2 23 -2h12q13 0 30.5 -8t35 -21t31.5 -28t20 -30zM435 293l-12 -7q-9 -20 -23 -27t-31 -7q-19 0 -41 5q-14 5 -28 7.5t-26 2.5q-41 0 -77 -26l-1 -19q48 -40 79.5 -63.5 t47.5 -32.5v-1q24 -13 39.5 -21t26.5 -15q29 -17 47 -35.5t18 -36.5v-2q-2 -2 -11.5 -8t-14.5 -8h-2q-19 0 -31 1.5t-20 5t-14 8t-12 10.5q-9 8 -15 13.5t-13 10.5h-1q-16 13 -41.5 33t-50.5 39t-43.5 32.5t-20.5 13.5l-52 32l-76 53l63 88q81 115 150 166.5t131 51.5 q22 0 30 -11t8 -25q0 -6 -17.5 -16.5t-43.5 -23.5q-21 -11 -44.5 -23.5t-47 -30t-45.5 -39.5t-39 -50l13 -18l24 4q15 -3 29 -3q19 0 35.5 3t33.5 7q16 4 31 7.5t28 3.5t24 -4l1 -1q29 -8 29 -28q0 -14 -1 -16h7z" />
<glyph unicode="&#xc9;" horiz-adv-x="492" d="M435 293h-7q1 2 1 16q0 21 -29 29l-1 1q-12 3 -24 3q-13 0 -28 -3t-31 -7q-17 -5 -33.5 -8t-35.5 -3q-14 0 -29 3l-24 -4l-13 19q17 28 39 50t45.5 39t47 30t44.5 23q26 14 43.5 24t17.5 17q0 13 -8 24.5t-30 11.5q-62 0 -131 -51.5t-150 -166.5l-63 -89l76 -53l52 -32 q2 0 20.5 -13.5t43.5 -32.5t50.5 -39t41.5 -32h1q7 -5 13 -11t15 -14q6 -6 12 -10.5t14 -8t20 -5t31 -1.5h2q5 2 14.5 8t11.5 8v2q0 18 -18 36.5t-47 35.5q-11 7 -26.5 15t-39.5 21v1q-16 9 -47.5 32.5t-79.5 63.5l1 20q38 26 77 26q24 0 54 -11q22 -5 41 -5q17 0 31 7 t23 27zM217 657h2q10 0 27 11t35 25.5t33 29.5t23 24q0 1 0.5 1.5l0.5 0.5h-5h-27q-12 0 -28.5 -7.5t-33 -20t-31 -28t-23.5 -31.5zM174 665l9 -16q1 3 3 6t4 7zM343 754l-2 -2l-3 -3q5 2 5 5z" />
<glyph unicode="&#xca;" horiz-adv-x="492" d="M338 667h-3q-9 0 -22.5 5.5t-28.5 14t-30 18.5t-27 19l-18 -2q-10 -13 -23 -28t-25.5 -27.5t-24 -21t-18.5 -8.5l-29 1q4 16 18 36t32 37.5t36.5 29.5t31.5 12h1l10 -1q13 -2 35 -9t44.5 -17.5t41 -23.5t26.5 -27zM435 293l-12 -7q-9 -20 -23 -27t-31 -7q-19 0 -41 5 q-30 11 -54 11q-39 0 -77 -26l-1 -20q48 -40 79.5 -63.5t47.5 -32.5v-1q24 -13 39.5 -21t26.5 -15q29 -17 47 -35.5t18 -36.5v-2q-2 -2 -11.5 -8t-14.5 -8h-2q-19 0 -31 1.5t-20 5t-14 8t-12 10.5q-9 8 -15 14t-13 11h-1q-16 12 -41.5 32t-50.5 39t-43.5 32.5t-20.5 13.5 l-52 32l-76 53l63 89q81 115 150 166.5t131 51.5q22 0 30 -11.5t8 -24.5q0 -7 -17.5 -17t-43.5 -24q-21 -11 -44.5 -23.5t-47 -29.5t-45.5 -39t-39 -50l13 -19l24 4q15 -3 29 -3q19 0 35.5 3t33.5 8q16 4 31 7t28 3q12 0 24 -3l1 -1q29 -8 29 -29q0 -14 -1 -16h7z" />
<glyph unicode="&#xcb;" horiz-adv-x="492" d="M106 721q0 22 13 30t33 8q19 0 25 -10.5t6 -27.5q0 -6 -2 -14.5t-6.5 -16t-11 -13t-14.5 -5.5h-2q-18 5 -29.5 18.5t-11.5 30.5zM333 741q0 22 12.5 30t32.5 8t26 -11t6 -27q0 -6 -2 -15t-6.5 -16.5t-11 -13t-14.5 -5.5h-2q-18 5 -29.5 19t-11.5 31zM435 293l-12 -7 q-9 -20 -23 -27t-31 -7q-19 0 -41 5q-14 5 -28 7.5t-26 2.5q-41 0 -77 -26l-1 -19q48 -40 79.5 -63.5t47.5 -32.5v-1q24 -13 39.5 -21t26.5 -15q29 -17 47 -35.5t18 -36.5v-2q-2 -2 -11.5 -8t-14.5 -8h-2q-19 0 -31 1.5t-20 5t-14 8t-12 10.5q-9 8 -15 13.5t-13 10.5h-1 q-16 13 -41.5 33t-50.5 39t-43.5 32.5t-20.5 13.5l-52 32l-76 53l63 88q81 115 150 166.5t131 51.5q22 0 30 -11t8 -25q0 -6 -17.5 -16.5t-43.5 -23.5q-21 -11 -44.5 -23.5t-47 -30t-45.5 -39.5t-39 -50l13 -18l24 4q15 -3 29 -3q19 0 35.5 3t33.5 7q16 4 31 7.5t28 3.5 q7 0 12.5 -1t11.5 -3l1 -1q29 -8 29 -29q0 -13 -1 -15h7z" />
<glyph unicode="&#xcc;" horiz-adv-x="208" d="M29 798q-6 0 -6 5q0 1 6 -5zM157 712h-1q-11 0 -29 10t-37 23.5t-35.5 27.5t-23.5 23l-1 1h-1v1h4h28q14 0 33 -7.5t37.5 -19t33.5 -26t21 -28.5zM13 48q0 3 0.5 7t0.5 8v10l69 531q3 14 15 21t28 7q8 0 10.5 -7.5t2.5 -17.5v-63q0 -15 -2 -46t-4 -64t-4.5 -61t-3.5 -37 q0 4 0 1q0 -2 -0.5 -8t-1 -14t-1.5 -15q-1 -22 -3 -53t-5 -64.5t-7.5 -66.5t-11 -59t-15 -42t-19.5 -16q-2 0 -1 0.5t-1 0.5q-23 5 -34.5 18t-11.5 30z" />
<glyph unicode="&#xcd;" horiz-adv-x="202" d="M13 48q0 -17 12 -30t35 -18q2 0 1 -0.5t1 -0.5q11 0 19.5 16t15 42t11 59t7.5 66.5t5 64.5t4 53q0 7 0.5 15t1 14t0.5 8q0 3 0 -1q1 9 3.5 37t4.5 61t4 64t2 46v63q0 10 -2 17.5t-11 7.5q-16 0 -28.5 -7t-14.5 -21l-70 -531v-10q0 -4 -0.5 -8t-0.5 -7zM49 715h1 q11 0 29 10t36.5 23.5t35 28t23.5 22.5v1v1h-4h-27q-12 0 -29.5 -7t-35 -18.5t-33 -26t-24.5 -29.5zM3 723l11 -17q2 8 7 14zM181 806q0 2 -7 -5q7 0 7 5z" />
<glyph unicode="&#xce;" horiz-adv-x="188" d="M12 48q0 -17 11 -30t32 -18q2 0 1.5 -0.5t1.5 -0.5q10 0 18 16t14 42t10 59t7 66.5t5 64.5t3 53q0 6 0.5 14.5t1 14.5t1 8.5t0.5 -1.5q1 9 3 37t4.5 61t4 64t1.5 46v63q0 9 -2 17t-10 8q-15 0 -26.5 -7t-14.5 -21l-65 -531v-10q0 -4 -0.5 -8t-0.5 -7zM270 715 q-6 14 -22.5 29t-37.5 28.5t-42 23.5t-35 13l-13 3h-2q0 1 -2 1q-15 0 -35.5 -9.5t-40 -24.5t-35.5 -32t-22 -32l29 -5h1q8 0 21.5 7t28 18t29.5 23t26 23h18q9 -11 23.5 -23t29.5 -23t28.5 -18t21.5 -7h1z" />
<glyph unicode="&#xcf;" horiz-adv-x="190" d="M-23 767q0 22 13.5 30t33.5 8t26.5 -11t6.5 -27q0 -6 -2.5 -15t-7 -16.5t-11 -13t-14.5 -5.5h-2q-20 5 -31.5 19t-11.5 31zM159 765q0 22 13 30t34 8q20 0 26.5 -11t6.5 -27q0 -6 -2.5 -15t-7 -16.5t-11 -13t-14.5 -5.5h-3q-19 5 -30.5 19t-11.5 31zM12 48q0 3 0.5 7 t0.5 8v10l66 531q3 14 14.5 21t26.5 7q8 0 10 -8t2 -17v-63q0 -15 -1.5 -46t-4 -64t-4.5 -61t-3 -37q0 4 0 1q0 -2 -0.5 -8t-1 -14.5t-0.5 -14.5q-2 -22 -3.5 -53t-4.5 -64.5t-7.5 -66.5t-10.5 -59t-14 -42t-19 -16q-2 0 -1 0.5t-1 0.5q-21 5 -32.5 18t-11.5 30z" />
<glyph unicode="&#xd0;" horiz-adv-x="631" d="M304 435q-13 7 -24 12.5t-22 12.5l-19 -9q-2 -16 -2.5 -36t-1.5 -41q-1 -20 -2 -38.5t-2 -34.5l11 -13q48 -2 82 -3.5t35 -3.5l2 -5q0 -7 -6.5 -15.5t-16 -16t-19.5 -12.5t-17 -5h-10h-3q0 1 -2 1q-4 4 -50 4l-13 -13q-1 -29 -3.5 -69t-7.5 -84l19 -12q8 5 18 9.5 t21 11.5q28 15 61.5 33.5t63 44t51 60t27.5 79.5l-4 10q-66 57 -107 90.5t-58 42.5h-1zM21 289q-2 1 7 2t26 1q18 0 41 -0.5t49 -0.5l13 11l20 202l-2 8q-1 1 -1 6q0 7 1 12q1 3 1 7v7v1q3 3 11.5 9t13.5 8h14l8 4q-3 -3 -2 -3h13l5 -4q15 -3 23.5 -10t18.5 -15 q5 -5 11.5 -10.5t15.5 -12.5q16 -12 41 -32t49.5 -39t42.5 -32.5t20 -13.5l50 -32l77 -53l-62 -90q-79 -116 -147.5 -167.5t-129.5 -51.5q-8 0 -14.5 -4t-12.5 -8l-3 -3l-1 -1q-1 0 -1.5 0.5t-1.5 0.5l-13 -10q-6 -28 -12.5 -39t-15.5 -11h-5l-1 1q-20 5 -31 18.5t-11 30.5 q0 2 0.5 6t0.5 9v10l21 216l-13 14q-45 -2 -74.5 -3.5t-40.5 -1.5z" />
<glyph unicode="&#xd1;" horiz-adv-x="495" d="M125 262q-8 2 -11 9t-3 18q0 8 1 12.5t2 8.5v1l2 8l13 13q21 0 41 -7t38.5 -18t36.5 -25l36 -28q33 -26 65.5 -48t67.5 -22q24 0 33 14t9 37q0 37 -4 80.5t-11.5 88.5t-17 89.5t-19.5 83.5q-1 2 -0.5 4t-0.5 4l-1 1q-5 15 -10 23.5t-20 8.5q-28 0 -37 -9.5t-9 -28.5 t4 -35.5t9 -31.5q11 -30 14 -55v-1q0 -8 -1 -25t-2 -37q-1 -19 -1.5 -36.5t-0.5 -24.5l-13 -13h-20q-1 0 -16 9t-34.5 21t-39.5 25.5t-32 22.5q-9 8 -19.5 15.5t-18.5 14.5q-15 13 -31 27t-31 25.5t-28.5 19t-22.5 7.5q-13 0 -22 -8.5t-9 -23.5v-4q18 -100 28.5 -193.5 t10.5 -193.5v-28t-1 -28q8 -11 20 -20.5t24 -9.5h1q3 3 5 4.5t7 5.5v1q6 6 12 11t7 4v237zM87 726q4 0 13 7t19 17.5t20.5 22.5t19.5 22l20 -1l12 -19q12 -14 29.5 -29.5t31.5 -20.5q3 -1 4 -1.5t3 -0.5l-3 -3l4 3l10 3q9 3 24.5 12.5t31 22.5t28.5 27.5t17 27.5l-20 5h-1 q-14 0 -34.5 -11.5t-37.5 -31.5l-14 -4q-11 5 -19.5 11.5t-18.5 14.5q-11 11 -22 19.5t-25 8.5q-2 0 -10 -2q-9 -3 -23 -12.5t-29 -23t-28.5 -29.5t-20.5 -31zM54 734l9 -15q1 3 5 11z" />
<glyph unicode="&#xd2;" d="M245 812q-1 0 -1 2v-1zM368 718h-1q-11 0 -27.5 11t-34 25.5t-33 29.5t-23.5 24l-4 4q3 -2 23 -2h11q13 0 30.5 -8t35 -20.5t32 -27.5t20.5 -30zM175 309q0 -18 11.5 -51t28 -65.5t36 -56.5t36.5 -24q10 0 24 13t28 33t27.5 45.5t24.5 50.5t17.5 47.5t6.5 36.5 q0 15 -13 39.5t-31 47.5t-38 39.5t-34 16.5q-7 0 -19 -10.5t-26 -27t-28 -36.5t-25.5 -39t-18.5 -35t-7 -24zM193 102q-8 38 -30.5 66t-47.5 53q-19 20 -35 38.5t-21 35.5v8l2 6q4 2 14.5 13.5t24 26.5t27 30.5t23.5 26.5v1l8 10h1q13 14 26 35.5t27 46.5q14 24 28.5 48 t29.5 43.5t31.5 31.5t34.5 12h11h10q6 0 7 -2q8 -49 22.5 -96.5t43.5 -89.5q7 -9 15.5 -18t18.5 -20q20 -23 38.5 -46.5t18.5 -44.5q0 -11 -6 -21l-213 -321z" />
<glyph unicode="&#xd3;" d="M302 -25l213 322q4 5 5 10t1 10q0 21 -18.5 44.5t-38.5 46.5q-10 11 -18.5 20t-15.5 18q-29 42 -43.5 89.5t-22.5 96.5q-1 2 -7 2h-10h-11q-18 0 -34.5 -12t-31.5 -31.5t-29.5 -43.5t-28.5 -48q-14 -25 -27 -46.5t-26 -35.5h-1l-8 -10v-1q-10 -11 -23.5 -26.5t-27 -30.5 t-24 -26.5t-14.5 -13.5l-2 -6v-8q5 -17 21 -35.5t35 -38.5q24 -25 46 -52.5t32 -66.5zM175 309q0 8 7 24t18.5 35t25.5 39t28 36.5t26 27t19 10.5q14 0 34 -16.5t38 -39.5t31 -47.5t13 -39.5q0 -14 -6.5 -36.5t-17.5 -47.5t-24.5 -50.5t-27.5 -45.5t-28 -33t-24 -13 q-17 0 -36.5 24t-36 56.5t-28 65.5t-11.5 51zM264 712h2q10 0 27 11t34.5 25.5t32.5 29.5t23 24q0 1 0.5 1.5l0.5 0.5h-5h-27q-12 0 -28.5 -7.5t-33 -19.5t-31 -27.5t-23.5 -31.5zM220 721l10 -17q1 4 6 14zM389 809l-2 -2l-3 -3q5 2 5 5zM191 105l3 -6q0 1 -0.5 1.5 t-0.5 1.5z" />
<glyph unicode="&#xd4;" d="M422 710h-2q-8 0 -21 7t-27 18t-27.5 23t-23.5 23h-18q-11 -11 -25 -23t-28.5 -23t-27.5 -18t-21 -7h-1l-28 5q6 15 21.5 32t35 32t39.5 24.5t34 9.5q2 0 1.5 -0.5t1.5 -0.5l12 -3q13 -3 33.5 -13t41 -23.5t37 -28.5t21.5 -29zM175 309q0 -18 11.5 -51t28 -65.5t36 -56.5 t36.5 -24q10 0 24 13t28 33t27.5 45.5t24.5 50.5t17.5 47.5t6.5 36.5q0 15 -13 39.5t-31 47.5t-38 39.5t-34 16.5q-7 0 -19 -10.5t-26 -27t-28 -36.5t-25.5 -39t-18.5 -35t-7 -24zM193 102q-8 38 -30.5 66t-47.5 53q-19 20 -35 38.5t-21 35.5v8l2 6q4 2 14.5 13.5t24 26.5 t27 30.5t23.5 26.5v1l8 10h1q13 14 26 35.5t27 46.5q14 24 28.5 48t29.5 43.5t31.5 31.5t34.5 12h11h10q6 0 7 -2q8 -49 22.5 -96.5t43.5 -89.5q7 -9 15.5 -18t18.5 -20q20 -23 38.5 -46.5t18.5 -44.5q0 -11 -6 -21l-213 -321z" />
<glyph unicode="&#xd5;" d="M302 -25l213 321q4 5 5 10t1 11q0 20 -18.5 43.5t-38.5 46.5q-10 11 -18.5 20.5t-15.5 17.5q-29 43 -43.5 90.5t-22.5 95.5q-1 2 -7 2h-10h-11q-18 0 -34.5 -12t-31.5 -31.5t-29.5 -43t-28.5 -47.5q-14 -25 -27 -47t-26 -36h-1l-8 -10v-1q-10 -11 -23.5 -26.5t-27 -30.5 t-24 -26t-14.5 -14l-2 -6v-7q5 -18 21 -36t35 -38q24 -25 46 -52.5t32 -66.5zM175 308q0 8 7 24t18.5 35t25.5 39t28 36.5t26 27t19 10.5q14 0 34 -16.5t38 -39.5t31 -47.5t13 -39.5q0 -14 -6.5 -36t-17.5 -47t-24.5 -50.5t-27.5 -45.5t-28 -33t-24 -13q-17 0 -36.5 24 t-36 56.5t-28 65t-11.5 50.5zM196 739q5 0 13.5 7t19 17.5t21 22.5t18.5 22l20 -1l13 -18q11 -15 28.5 -30.5t31.5 -20.5q3 -1 4 -1.5t3 -0.5l-3 -3l4 3l10 3q9 3 24.5 12.5t31 22.5t28.5 27.5t17 27.5l-20 5h-1q-14 0 -34.5 -11.5t-37.5 -31.5l-14 -3q-11 4 -19.5 10.5 t-18.5 14.5q-11 11 -22 19.5t-25 8.5l-10 -2q-9 -3 -23 -12t-29 -22.5t-28.5 -29.5t-20.5 -32zM163 748l10 -16q1 2 1.5 5t2.5 6zM191 105l3 -6q0 1 -0.5 1.5t-0.5 1.5z" />
<glyph unicode="&#xd6;" d="M161 771q0 22 13 30t33 8q19 0 25 -10.5t6 -27.5q0 -6 -2 -14.5t-6.5 -16t-10.5 -13t-14 -5.5h-3q-18 5 -29.5 18.5t-11.5 30.5zM386 771q0 22 12.5 30t32.5 8t26 -10.5t6 -27.5q0 -6 -2.5 -14.5t-7 -16t-10.5 -13t-14 -5.5h-2q-18 5 -29.5 18.5t-11.5 30.5zM175 309 q0 -18 11.5 -51t28 -65.5t36 -56.5t36.5 -24q10 0 24 13t28 33t27.5 45.5t24.5 50.5t17.5 47.5t6.5 36.5q0 15 -13 39.5t-31 47.5t-38 39.5t-34 16.5q-7 0 -19 -10.5t-26 -27t-28 -36.5t-25.5 -39t-18.5 -35t-7 -24zM193 102q-8 38 -30.5 66t-47.5 53q-19 20 -35 38.5 t-21 35.5v8l2 6q4 2 14.5 13.5t24 26.5t27 30.5t23.5 26.5v1l8 10h1q13 14 26 35.5t27 46.5q14 24 28.5 48t29.5 43.5t31.5 31.5t34.5 12h11h10q6 0 7 -2q8 -49 22.5 -96.5t43.5 -89.5q7 -9 15.5 -18t18.5 -20q20 -23 38.5 -46.5t18.5 -44.5q0 -11 -6 -21l-213 -321z" />
<glyph unicode="&#xd7;" horiz-adv-x="426" d="M23 130q0 1 -1 1.5t-1 1.5v2zM21 135q1 4 7.5 10.5t16 14.5t20.5 16t21 16q8 5 14.5 10.5t9.5 8.5l76 74l4 8q1 5 1 10q0 26 -18.5 48t-40.5 42q-17 15 -30 29.5t-13 25.5q0 6 9 7t16 1q21 0 33.5 -19t23.5 -40q12 -23 25 -40.5t36 -17.5q29 0 46 18t32 41 q12 18 25.5 33.5t32.5 15.5q6 0 7 -7t1 -15q0 -9 -7.5 -19t-18.5 -21t-25 -21.5t-26 -20.5q-14 -10 -23.5 -18t-13.5 -13l-4 -9q0 -1 -0.5 -2t-0.5 -4q-1 -3 -1 -8v-7q0 -23 12.5 -40t26.5 -31q11 -12 20.5 -24.5t9.5 -26.5q0 -11 -2 -14.5t-12 -3.5q-21 0 -29.5 14 t-15.5 31q-8 20 -17.5 37t-31.5 25l-11 -1q-11 -8 -25 -21.5t-30 -29.5q-13 -14 -27 -28t-27 -25.5t-24 -19t-18 -7.5q-12 0 -20.5 2t-13.5 16z" />
<glyph unicode="&#xd8;" d="M175 311q0 -12 4.5 -33t14.5 -44l23 -2l119 222l-4 16q-19 14 -33 14q-11 0 -31.5 -22.5t-41 -52t-36 -58t-15.5 -40.5zM334 329q-3 -7 -9 -20t-15 -31q-12 -26 -28 -59.5t-35 -69.5l2 -14q19 -22 38 -22q10 0 24 13t28 33.5t27.5 46t24.5 50.5t17.5 47.5t6.5 36.5 q0 11 -6 27t-17 33l-22 -1q-1 -2 -1.5 -3.5t-1.5 -3.5q-11 -23 -19 -39.5t-13 -21.5zM113 34q1 3 4 11t5 10l1 1l48 88l-1 13q-11 17 -25.5 33.5t-29.5 31.5q-17 19 -32.5 37.5t-23.5 41.5v4l2 6q4 2 14.5 13.5t24 26.5t27 31t23.5 27v1l8 10h1q13 14 26 36t27 47 q14 24 28.5 48t29.5 43.5t31.5 32t34.5 12.5h11h11q6 0 7 -2q2 -15 4.5 -30.5t5.5 -28.5l24 -3l9 16q11 17 26 24.5t30 7.5q3 0 3 -1q0 -6 -3.5 -15.5t-7.5 -17.5q-1 -2 -2 -3.5t-2 -3.5v-1l-14 -37q1 3 -2.5 -5t-5.5 -13t-6.5 -14.5t-11.5 -23.5v-10l3 -6l2 -1 q5 -8 8.5 -14.5t4.5 -8.5q5 -5 14 -15t20 -22q20 -23 38.5 -47t18.5 -45q0 -5 -1 -10t-5 -10l-213 -324l-81 93l-20 -2q-21 -34 -39.5 -56.5t-30.5 -22.5l-2 1q-22 4 -22 23q0 8 5 20z" />
<glyph unicode="&#xd9;" horiz-adv-x="517" d="M176 775q-1 0 -1 2v-1zM7 212v2v-1v-1zM300 681h-1q-11 0 -28 11t-34 25.5t-32.5 29.5t-23.5 24l-5 4q2 -2 8 -2h16h11q13 0 30.5 -8t34.5 -21t31.5 -28t20.5 -30zM115 568v-44l-15 -234v-1q0 -11 14 -29.5t36.5 -40t49.5 -43.5t53.5 -39.5t48.5 -28.5t34 -11 q7 0 14.5 5.5t14 13.5t11 16.5t4.5 14.5v396q0 13 13.5 19.5t25.5 6.5t19.5 -7.5t11.5 -18t5.5 -23t1.5 -21.5v-2q3 -23 4 -56.5t1 -73.5q0 -50 -1 -102t-2 -94q-1 -24 -1.5 -42t-0.5 -29q0 -12 -5 -29.5t-14 -33.5t-22.5 -27.5t-29.5 -11.5q-5 0 -25.5 11t-49 28 t-61.5 37.5t-63 39.5q-32 20 -57.5 35.5t-34.5 20.5h-2q-2 1 -10 4t-18 6.5t-19.5 6.5t-15.5 5q-10 2 -12.5 3.5t-4.5 3.5q0 8 -6 14l25 91v276q0 8 13.5 10.5t23.5 2.5q31 0 45 -18z" />
<glyph unicode="&#xda;" horiz-adv-x="517" d="M114 574q-13 19 -45 19q-10 0 -23.5 -2.5t-13.5 -11.5v-275l-25 -92q6 -5 6 -13q2 -2 4.5 -3.5t12.5 -3.5q6 -2 15.5 -5t19.5 -6.5t18 -6.5t10 -4h2q9 -5 34.5 -21t57.5 -36q30 -18 63 -38.5t61.5 -37.5t49 -28t25.5 -11q16 0 29.5 11.5t22.5 27.5t14 33.5t5 29.5 q0 10 0.5 28.5t1.5 42.5q1 42 2 94t1 102q0 40 -1 73.5t-4 56.5v2q0 9 -1.5 21t-5.5 22.5t-11.5 18t-19.5 7.5t-25.5 -6t-13.5 -20v-396q0 -6 -4.5 -14t-11 -16t-14 -13.5t-14.5 -5.5q-12 0 -34 11t-48.5 28.5t-53.5 39t-49.5 43t-36.5 40.5t-14 30v1l15 234v43zM235 703h3 q10 0 27 11t34.5 25.5t32.5 29.5t23 24q0 1 0.5 1.5l0.5 0.5h-6h-26q-12 0 -28.5 -7.5t-33 -20t-31 -28t-23.5 -31.5zM192 711l10 -16q1 5 6 13zM361 800l-2 -2l-3 -3q5 2 5 5zM7 212v1v-2v1z" />
<glyph unicode="&#xdb;" horiz-adv-x="517" d="M7 211v2v-1v-1zM346 709h-2q-8 0 -21 7t-27 18t-27.5 23t-23.5 23h-18q-11 -11 -25 -23t-28.5 -23t-27 -18t-20.5 -7h-1l-29 5q6 15 21.5 32t35 32t39.5 24.5t34 9.5q2 0 1.5 -0.5t1.5 -0.5l13 -3q13 -3 33.5 -13t41 -23.5t36.5 -28.5t22 -29zM115 567v-44l-15 -233v-1 q0 -12 14 -30.5t36.5 -40t49.5 -43t53.5 -39t48.5 -28.5t34 -11q7 0 14.5 5.5t14 13.5t11 16t4.5 14v396q0 13 13.5 19.5t25.5 6.5t19.5 -7.5t11.5 -18t5.5 -22.5t1.5 -21v-2q3 -23 4 -57t1 -73q0 -50 -1 -102t-2 -94q-1 -24 -1.5 -42.5t-0.5 -28.5q0 -12 -5 -29.5 t-14 -33.5t-22.5 -27.5t-29.5 -11.5q-5 0 -25.5 11t-49 28t-61.5 37.5t-63 38.5q-32 20 -57.5 36t-34.5 21h-2q-2 1 -10 4t-18 6.5t-19.5 6.5t-15.5 5q-10 2 -12.5 3.5t-4.5 3.5q0 8 -6 13l25 92v275q0 8 13.5 10.5t23.5 2.5q31 0 45 -18z" />
<glyph unicode="&#xdc;" horiz-adv-x="517" d="M7 211v2v-1v-1zM333 769q0 22 12.5 30t32.5 8q19 0 25.5 -11t6.5 -27q0 -6 -2.5 -15t-7 -16.5t-10.5 -13t-14 -5.5h-2q-19 5 -30 19t-11 31zM108 769q0 22 12.5 30t32.5 8q19 0 25.5 -11t6.5 -27q0 -6 -2.5 -15t-7 -16.5t-10.5 -13t-14 -5.5h-2q-18 5 -29.5 19t-11.5 31z M115 567v-43l-15 -234v-1q0 -12 14 -30.5t36.5 -40t49.5 -43t53.5 -39t48.5 -28.5t34 -11q7 0 14.5 5.5t14 13.5t11 16t4.5 14v396q0 14 13.5 20t25.5 6t19.5 -7.5t11.5 -18t5.5 -22.5t1.5 -21v-2q3 -23 4 -57t1 -73q0 -50 -1 -102t-2 -94q-1 -24 -1.5 -42.5t-0.5 -28.5 q0 -12 -5 -29.5t-14 -33.5t-22.5 -27.5t-29.5 -11.5q-5 0 -25.5 11t-49 28t-61.5 37.5t-63 38.5q-32 20 -57.5 36t-34.5 21h-2q-2 1 -10 4t-18 6.5t-19.5 6.5t-15.5 5q-10 2 -12.5 3.5t-4.5 3.5q0 8 -6 13l25 92v275q0 9 13.5 11.5t23.5 2.5q31 0 45 -19z" />
<glyph unicode="&#xdd;" horiz-adv-x="483" d="M445 539q0 26 -13.5 35t-38.5 9q-13 0 -20.5 -8t-11.5 -21t-5.5 -29.5t-2.5 -33.5q-2 -20 -4.5 -39.5t-8.5 -34.5t-17.5 -24.5t-30.5 -9.5q-2 0 -4.5 0.5t-4.5 0.5h-4l-7 2q-22 16 -43 32.5t-43 33.5q-32 26 -63.5 51t-62.5 42h-3q-45 0 -45 -43q0 -9 13.5 -22.5 t35 -28.5t49 -32t55.5 -33q44 -26 82.5 -50t54.5 -44l3 -7v-22q0 -4 0.5 -7t0.5 -6v-9q0 -27 -4.5 -52.5t-9.5 -51.5t-9.5 -51t-4.5 -50q0 -20 3.5 -29t23.5 -9q18 0 30 4.5t21 25.5q2 16 3 30.5t3 30.5q10 94 21.5 182t35.5 178l4.5 13.5t7.5 19.5t9.5 25.5t4.5 31.5z M218 680h2q10 0 27 11t35 25.5t33 29.5t23 24q0 1 0.5 1.5l0.5 0.5h-6h-26q-12 0 -28.5 -7.5t-33 -20t-31 -28t-23.5 -31.5zM175 688l9 -16q2 6 7 13zM344 777l-2 -2l-3 -3q5 2 5 5z" />
<glyph unicode="&#xde;" horiz-adv-x="447" d="M12 -31q0 -17 10.5 -24t27.5 -7h20q-2 1 0 9.5t4 17.5q2 5 3 9t2 7v1q1 0 1 1v1l13 13q-8 0 -10 -1q2 11 3 21t3 18q5 24 9 40t21 21q11 4 14.5 5.5l3.5 1.5q1 0 0 -0.5t1 0.5q9 2 21.5 5.5t30 10.5t41.5 17t57 26q14 7 31 20t33.5 28.5t31.5 30.5t25 26v-1q0 2 0.5 3 t0.5 3v1q-13 33 -35.5 58.5t-48 45t-52.5 33l-49 24.5q-18 8 -32.5 15.5t-22.5 14.5q-11 8 -11 24q0 6 1 20.5t3 31.5q2 19 3 37t1 28v5q0 14 -2.5 20t-17.5 6q-16 0 -25 -3t-20 -16q-16 -95 -25.5 -184t-17.5 -183q-2 -16 -3 -31.5t-3 -32.5q-2 -24 -7 -47.5t-12 -46.5 q-8 -32 -15 -63.5t-7 -59.5zM162 383q14 0 38.5 -9.5t48.5 -24.5t41.5 -33t17.5 -35q0 -11 -1 -18.5t-4 -13t-9.5 -10.5t-17.5 -12h-1q-15 -8 -42.5 -20.5t-55 -24t-48 -17.5t-20.5 0v1q6 58 10 96t7 62q4 40 7 53t14 13q4 0 6.5 -2t5.5 -4l0.5 -0.5t2.5 -0.5z" />
<glyph unicode="&#xdf;" horiz-adv-x="562" d="M234 324v2q1 0 1 -2h-1zM234 323q-3 0 -2.5 0.5t2.5 0.5v-1zM21 -23q0 2 0.5 6t0.5 9v10l63 535q2 14 13.5 21t25.5 7q6 0 11 -0.5t10 -1.5t12 -1.5t20 -0.5q61 0 130 -51.5t149 -167.5l63 -92l-63 -63l-1 -1l-31 -43q3 0 -1 -4.5t-11 -11.5h-1q-12 -14 -33 -35t-42 -38 q-5 -5 -11.5 -10t-15.5 -15q-6 -6 -12 -10.5t-14 -7.5t-20 -5t-31 -2h-2q-5 2 -14 8.5t-11 8.5v1q0 19 17.5 37.5t46.5 35.5q11 7 26 15t39 21v1q17 9 21 26.5t6 46.5q1 6 1 12q0 7 1 15l-5 11q-7 4 -7 6l-3 -3l-9 21q-6 0 -7 -1q-1 0 0.5 -0.5t0.5 -0.5h-3q-11 -2 -25 -5 t-25 -3q-18 0 -31.5 12t-13.5 47v8h8q12 0 20 1l16 2t13.5 1.5t13.5 0.5q10 0 28 -3l27 -4l13 19q-18 28 -40 50t-45.5 39.5t-47 30t-43.5 23.5q-13 8 -24 13.5t-20 10.5l-19 -10v-21q0 -15 -1.5 -46.5t-3.5 -65t-4 -61.5t-3 -37q0 5 0 2q0 -2 -0.5 -8.5t-1 -15t-0.5 -14.5 q-1 -23 -3 -54t-4.5 -65t-7 -67t-10 -59t-13.5 -42.5t-18 -16.5q-2 0 -1 0.5t-1 0.5q-20 5 -31 18.5t-11 30.5z" />
<glyph unicode="&#xe0;" horiz-adv-x="516" d="M124 773q-1 0 -1 2v-1zM248 679h-1q-11 0 -28 11t-34.5 25.5t-33 29.5t-23.5 24l-4 4q2 -2 8 -2h15h12q13 0 30.5 -8t35 -21t31.5 -28t20 -30zM126 206q28 7 61 23.5t66.5 36.5t66.5 42.5t61 42.5l6 10v83q0 6 -4.5 14t-11.5 16t-14.5 13.5t-14.5 5.5q-12 0 -34 -11 t-48.5 -28.5t-53.5 -39.5t-49.5 -43.5t-36.5 -40t-14 -29.5q0 -22 1 -42t3 -41zM120 14q-14 -18 -46 -18q-10 0 -23.5 2.5t-13.5 11.5v282q0 5 -0.5 12.5t-0.5 15.5q0 19 2 38t10 21l3 1q13 6 42 25t65 45q33 23 69 48t68.5 46t58.5 34.5t39 13.5q16 0 29 -11.5t22.5 -28 t14.5 -34t5 -29.5v-1q1 -13 2 -46t1 -77q0 -33 -0.5 -68.5t-1 -68.5t-1 -61.5t-0.5 -47.5v-28q0 -10 -1.5 -22t-6 -22.5t-11.5 -18t-19 -7.5t-25.5 6t-13.5 20v227l-20 11q-15 -10 -36.5 -22.5t-44.5 -25.5t-45.5 -25.5t-39.5 -21.5q-13 -7 -20.5 -11.5t-11.5 -6.5l-1 -1 l-44 -27l-6 -10q0 -6 0.5 -11.5t0.5 -12.5v-1q1 -11 1.5 -21t0.5 -22v-11q0 -5 -0.5 -9.5t-0.5 -8.5v-23z" />
<glyph unicode="&#xe1;" horiz-adv-x="516" d="M120 37q0 4 0.5 8.5t0.5 9.5v11q0 12 -0.5 22t-1.5 21v1q0 7 -0.5 12.5t-0.5 11.5l6 10l44 27l1 1q4 2 11.5 6.5t20.5 11.5q17 9 39.5 21.5t45.5 25.5t44.5 25.5t36.5 22.5l20 -11v-227q0 -14 13.5 -20t25.5 -6t19 7.5t11.5 18t6 22.5t1.5 22v28q0 19 0.5 47.5t1 61.5 t1 68.5t0.5 68.5q0 44 -1 77t-2 46v1q0 12 -5 29.5t-14.5 34t-22.5 28t-29 11.5q-13 0 -39 -13.5t-58.5 -34.5t-68.5 -46t-69 -48q-36 -26 -65 -45t-42 -25l-3 -1q-8 -2 -10 -21t-2 -38q0 -8 0.5 -15.5t0.5 -12.5v-282q0 -9 13.5 -11.5t23.5 -2.5q31 0 46 18v23zM110 218 q-2 21 -3 41t-1 42q0 11 14 29.5t36.5 40t49.5 43.5t53.5 39.5t48.5 28.5t34 11q7 0 14.5 -5.5t14.5 -13.5t11.5 -16t4.5 -14v-83l-6 -10q-28 -20 -61 -42.5t-66.5 -42.5t-66.5 -36.5t-61 -23.5zM206 682h3q10 0 27 11t34.5 25.5t32.5 29.5t23 24q0 1 0.5 1.5l0.5 0.5h-5 h-27q-12 0 -28.5 -7.5t-33 -20t-31 -28t-23.5 -31.5zM163 690l10 -16q1 5 6 13zM333 779q-4 -2 -6 -5q6 2 6 5zM120 10l2 8q-2 -2 -2 -4v-4z" />
<glyph unicode="&#xe2;" horiz-adv-x="516" d="M333 684q-3 -1 -8 -1q-9 0 -22 3.5t-26.5 9t-26.5 13t-23 15.5l-18 -2q-11 -13 -27 -32.5t-32.5 -38t-31 -31.5t-20.5 -13l-28 1q4 17 21 41.5t38.5 47.5t43.5 39.5t35 16.5l10 -1q13 -2 34.5 -7t43 -12.5t39.5 -18t24 -22.5zM126 207q28 7 61 23t66.5 36t66.5 42.5 t61 42.5l6 10v83q0 6 -4.5 14.5t-11.5 16.5t-14.5 13.5t-14.5 5.5q-12 0 -34 -11t-48.5 -29t-53.5 -39.5t-49.5 -43t-36.5 -40t-14 -29.5q0 -22 1 -42.5t3 -41.5zM120 14q-14 -18 -46 -18q-10 0 -23.5 2.5t-13.5 11.5v282q0 5 -0.5 12.5t-0.5 15.5q0 19 2 38t10 21l3 1 q13 6 42 25t65 45q33 23 69 48.5t68.5 46.5t58.5 34.5t39 13.5q16 0 29 -11.5t22.5 -28t14.5 -34.5t5 -30v-1q1 -13 2 -46t1 -76q0 -33 -0.5 -68.5t-1 -69t-1 -62t-0.5 -47.5v-28q0 -10 -1.5 -22t-6 -22.5t-11.5 -18t-19 -7.5t-25.5 6.5t-13.5 20.5v227l-20 10 q-15 -10 -36.5 -22.5t-44.5 -25.5t-45.5 -25.5t-39.5 -21.5q-13 -7 -20.5 -11.5t-11.5 -6.5l-1 -1l-44 -26l-6 -11q0 -6 0.5 -11.5t0.5 -12.5v-1q1 -11 1.5 -21t0.5 -22v-11q0 -5 -0.5 -9.5t-0.5 -8.5v-23z" />
<glyph unicode="&#xe3;" horiz-adv-x="516" d="M120 37q0 4 0.5 8.5t0.5 9.5v11q0 12 -0.5 22t-1.5 21v1q0 7 -0.5 12.5t-0.5 11.5l6 10l44 27l1 1q4 2 11.5 6.5t20.5 11.5q17 9 39.5 21.5t45.5 25.5t44.5 25.5t36.5 22.5l20 -11v-227q0 -14 13.5 -20t25.5 -6t19 7.5t11.5 18t6 22.5t1.5 22v28q0 19 0.5 47.5t1 61.5 t1 68.5t0.5 68.5q0 44 -1 76.5t-2 46.5v1q0 12 -5 29.5t-14.5 34t-22.5 28t-29 11.5q-13 0 -39 -13.5t-58.5 -34.5t-68.5 -46t-69 -48q-36 -26 -65 -45t-42 -25l-3 -1q-8 -2 -10 -21t-2 -38q0 -8 0.5 -15.5t0.5 -12.5v-282q0 -9 13.5 -11.5t23.5 -2.5q31 0 46 18v23z M110 218q-2 21 -3 41t-1 42q0 11 14 29.5t36.5 40t49.5 43.5t53.5 39.5t48.5 28.5t34 11q7 0 14.5 -5.5t14.5 -13.5t11.5 -16t4.5 -14v-83l-6 -10q-28 -20 -61 -42.5t-66.5 -42.5t-66.5 -36.5t-61 -23.5zM154 696q9 14 18.5 26t14.5 19h21l12 -19q12 -14 29.5 -29.5 t31.5 -20.5q3 -1 4 -1.5t3 -0.5l-3 -3l4 3l10 3q9 3 24.5 12.5t31.5 22t28.5 27t16.5 27.5l-20 6h-1q-14 0 -34.5 -12t-37.5 -32l-14 -3q-11 4 -19.5 11t-18.5 15q-11 10 -22 19t-25 9q-2 0 -10 -2q-9 -3 -27.5 -21t-38.5 -42.5t-38 -51t-27 -45.5l18 -4q3 1 10 9.5t17 21 t20.5 27.5t21.5 29zM53 617l9 -15q2 2 2.5 5t2.5 6zM120 10l2 8q-2 -2 -2 -4v-4zM84 609h2h-1h-1z" />
<glyph unicode="&#xe4;" horiz-adv-x="516" d="M105 685q0 22 12.5 30.5t32.5 8.5t26 -11t6 -28q0 -6 -2.5 -14.5t-7 -16t-10.5 -13t-14 -5.5h-2q-18 5 -29.5 18.5t-11.5 30.5zM327 729q0 22 13 30t33 8q19 0 25.5 -11t6.5 -27q0 -6 -2.5 -15t-7 -16.5t-10.5 -13t-14 -5.5h-2q-19 5 -30.5 19t-11.5 31zM126 206 q28 7 61 23.5t66.5 36.5t66.5 42.5t61 42.5l6 10v83q0 6 -4.5 14t-11.5 16t-14.5 13.5t-14.5 5.5q-12 0 -34 -11t-48.5 -28.5t-53.5 -39.5t-49.5 -43.5t-36.5 -40t-14 -29.5q0 -22 1 -42t3 -41zM120 14q-14 -18 -46 -18q-10 0 -23.5 2.5t-13.5 11.5v282q0 5 -0.5 12.5 t-0.5 15.5q0 19 2 38t10 21l3 1q13 6 42 25t65 45q33 23 69 48t68.5 46t58.5 34.5t39 13.5q16 0 29 -11.5t22.5 -28t14.5 -34t5 -29.5v-1q1 -13 2 -46t1 -77q0 -33 -0.5 -68.5t-1 -68.5t-1 -61.5t-0.5 -47.5v-28q0 -10 -1.5 -22t-6 -22.5t-11.5 -18t-19 -7.5t-25.5 6 t-13.5 20v228l-20 10q-15 -10 -36.5 -22.5t-44.5 -25.5t-45.5 -25.5t-39.5 -21.5q-13 -7 -20.5 -11.5t-11.5 -6.5l-1 -1l-44 -27l-6 -10q0 -6 0.5 -11.5t0.5 -12.5v-1q1 -11 1.5 -21t0.5 -22v-11q0 -5 -0.5 -9.5t-0.5 -8.5v-23z" />
<glyph unicode="&#xe5;" horiz-adv-x="516" d="M273 795l1 -3h-1v3zM179 708q-1 -1 -2 -1v0v3zM203 714q0 -6 5 -16.5t12.5 -20.5t16 -17.5t15.5 -7.5t16.5 8t18.5 19.5t15 23t6 18.5q0 6 -5.5 14t-13.5 15.5t-17 13t-15 5.5q-4 0 -13 -7t-18 -16.5t-16 -18.5t-7 -13zM225 664q-4 10 -13 18t-18 15q-9 5 -15 11 q5 5 16 14.5t16 13.5q6 6 9.5 10.5t7.5 9.5q8 12 19.5 24t22.5 12h3q3 -12 9 -23.5t18 -25.5h1q9 -9 11 -10q7 -5 13 -9.5t6 -6.5h-1l-73 -81zM126 206q28 7 61 23.5t66.5 36.5t66.5 42.5t61 42.5l6 10v82q0 6 -4.5 14.5t-11.5 16.5t-14.5 13.5t-14.5 5.5q-12 0 -34 -11 t-48.5 -29t-53.5 -39.5t-49.5 -43t-36.5 -40t-14 -29.5q0 -22 1 -42.5t3 -40.5zM120 14q-14 -18 -46 -18q-10 0 -23.5 2.5t-13.5 11.5v282q0 5 -0.5 12t-0.5 16q0 18 2 37t10 21l3 1q13 7 42 26t65 45q33 23 69 48t68.5 46t58.5 34.5t39 13.5q16 0 29 -11.5t22.5 -28 t14.5 -34t5 -29.5v-1q1 -14 2 -46.5t1 -76.5q0 -33 -0.5 -68.5t-1 -68.5t-1 -61.5t-0.5 -47.5v-28q0 -10 -1.5 -22t-6 -22.5t-11.5 -18t-19 -7.5t-25.5 6t-13.5 20v227l-20 11q-15 -10 -36.5 -22.5t-44.5 -25.5t-45.5 -25.5t-39.5 -21.5q-13 -8 -20.5 -12t-11.5 -6l-1 -1 l-44 -27l-6 -10q0 -6 0.5 -11.5t0.5 -12.5v-1q1 -11 1.5 -21.5t0.5 -21.5v-11q0 -5 -0.5 -9.5t-0.5 -8.5v-23z" />
<glyph unicode="&#xe6;" horiz-adv-x="810" d="M762 253q-1 0 -1 -1v0q0 1 1 1zM123 207q27 7 59 23.5t65.5 37t65.5 43t59 42.5l5 10v83q0 6 -4 14.5t-10.5 16.5t-14 13.5t-14.5 5.5q-12 0 -33.5 -11t-47 -29t-52.5 -40t-48.5 -43t-35.5 -40t-14 -30q0 -22 1 -42.5t4 -41.5zM377 -4v8t1 12v1q0 4 0.5 8t0.5 9v2 q-2 10 -2 12v228l-18 10q-15 -10 -36.5 -22.5t-44 -25.5t-44 -25.5t-38.5 -21.5q-12 -7 -19.5 -11.5t-11.5 -6.5l-1 -1l-43 -27l-6 -10q0 -6 0.5 -12t0.5 -12v-1q1 -11 1.5 -21.5t0.5 -22.5v-11q0 -5 -0.5 -9t-0.5 -9v-22q-7 -11 -18.5 -15t-26.5 -4q-9 0 -22.5 2.5 t-13.5 11.5v284q0 5 -0.5 12t-0.5 16q0 19 2 38t10 21l3 1q12 6 40.5 25t63.5 45q32 24 67.5 49t67.5 46t57.5 34.5t37.5 13.5t22 -7.5t18.5 -19t14.5 -25.5t10 -27l12 -10h6l8 3q8 8 21 8q6 0 2 3l13 -3q26 11 53.5 25.5t53.5 30.5q25 14 49 28t38 19q1 0 1 -6v-11v-8 q0 -14 -15.5 -27t-40 -25t-55 -23.5t-59.5 -22.5l-9 -10q-1 -26 -11 -47q-5 -15 -9.5 -30t-4.5 -31q0 -29 6.5 -40t29.5 -11q30 0 55.5 16.5t49.5 36.5q22 19 45.5 34.5t49.5 15.5q11 0 18.5 -1.5t7.5 -10.5q0 -1 -0.5 -4.5t-1.5 -8.5v-2q0 -1 -7 -6.5t-12 -8.5h-1 q-8 -6 -27.5 -19t-40.5 -26.5t-40 -25t-27 -15.5v-1q-19 -11 -48 -19l-1 -1q-16 -5 -31 -10.5t-26 -15t-18 -24.5t-7 -39q0 -12 0.5 -21.5t4 -16t11.5 -10.5t22 -4q39 0 82.5 21.5t85.5 47.5q20 11 40.5 23t38.5 19q-1 -2 -1 -25q0 -8 -0.5 -18t-0.5 -16v-8 q0 -14 -15.5 -26.5t-39.5 -23.5t-54 -21.5t-60 -20.5q-26 -8 -49 -16.5t-41.5 -16.5t-30 -17t-13.5 -19q-4 -14 -4.5 -24t-0.5 -19q0 -12 -4.5 -19t-31.5 -7q-13 0 -23.5 14.5t-14.5 26.5z" />
<glyph unicode="&#xe7;" horiz-adv-x="492" d="M78 -93q-1 -2 -1 -3t0 3h1zM235 -57q0 -20 -12.5 -28t-31.5 -8h-22q-10 0 -21 -0.5t-22 -0.5h-31q-13 0 -17 1l3 3l24 40q23 -10 49 -10q21 0 34.5 7.5t22 19t14 26t9.5 28.5l1 1q2 5 3 9t3 9l1 2l2 7l-5 13q-18 13 -34.5 28t-33 34t-34 42t-38.5 53l-63 89l76 53l52 32 q2 0 20.5 14t43.5 33t50.5 39t41.5 33h1q16 12 28 24q7 6 12.5 11t14 8t20 5t30.5 2h2q5 -3 14.5 -9t11.5 -8v-1q0 -19 -18 -37.5t-47 -35.5q-11 -7 -26.5 -15.5t-39.5 -20.5q-17 -10 -58.5 -43t-108.5 -90l-4 -12q11 -45 34.5 -79t52.5 -59.5t60.5 -43.5t58.5 -32 q26 -14 43 -23.5t17 -16.5q0 -13 -8 -24.5t-30 -11.5q-52 0 -103 32l-18 -7q-3 -7 -4.5 -13t-6.5 -19q-5 -15 -9 -27.5t-4 -20.5v-2z" />
<glyph unicode="&#xe8;" horiz-adv-x="447" d="M416 248q-1 0 -1 -1v0q0 1 1 1zM53 423v-1v1zM129 781q-1 0 -1 2v-1zM77 418v1l-24 4q2 4 7 9l19 -11l-1 -4q0 -4 -1 -5v2l-24 8zM253 687h-1q-11 0 -28 11t-34.5 25.5t-33 29.5t-23.5 24l-4 4q3 -2 23 -2h12q13 0 30.5 -8t35 -21t32 -28t20.5 -30zM20 -7q0 8 1.5 25 t3.5 35t4 34t4 23v2l4 8q4 5 6.5 8.5t2.5 8.5q6 17 8.5 48.5t6.5 69.5q3 41 7 84t13 81l-2 1l4 11q2 5 3 8.5t3 7.5q3 8 6.5 16t8.5 19v1l7 15h2l7 4q10 7 23 7q5 0 2 3l12 -3q28 11 56 25.5t55 29.5q26 14 50.5 28.5t39.5 19.5q1 0 1 -7v-11v-7q0 -14 -16 -27t-41.5 -25 t-57 -23.5t-61.5 -22.5l-8 -10q-3 -26 -12 -46l-10 -30t-5 -31q0 -29 6.5 -40t30.5 -11q32 0 58 16.5t51 36.5q23 19 46.5 34t51.5 15q10 0 18 -1.5t8 -9.5q0 -1 -0.5 -4.5t-1.5 -8.5v-2q0 -1 -7 -6.5t-12 -8.5h-1q-9 -6 -29 -18.5t-42 -26t-41.5 -25t-27.5 -15.5v-1 q-9 -6 -21.5 -10.5t-26.5 -8.5l-2 -1q-17 -5 -32 -10.5t-27 -15t-19 -24.5t-7 -39q0 -23 5 -37t35 -14q40 0 84.5 21.5t88.5 46.5q21 11 42 23t39 19q-1 -2 -1 -25q0 -8 -0.5 -17.5t-0.5 -16.5v-8q0 -14 -16 -26t-41 -23t-56 -21t-61 -20q-26 -9 -50.5 -17t-43 -16.5 t-30.5 -17.5t-14 -18q-4 -14 -4.5 -24t-0.5 -19q0 -12 -4.5 -18.5t-32.5 -6.5q-13 0 -24.5 14t-14.5 26z" />
<glyph unicode="&#xe9;" horiz-adv-x="447" d="M20 -7q3 -12 14.5 -26t24.5 -14q28 0 32.5 6.5t4.5 18.5q0 9 0.5 19t4.5 24q2 9 14 18t30.5 17.5t43 16.5t50.5 17q30 10 61 20t56 21t41 23t16 26v8q0 7 0.5 16.5t0.5 17.5q0 23 1 25q-18 -7 -39 -19t-42 -23q-44 -25 -88.5 -46.5t-84.5 -21.5q-30 0 -35 14t-5 37 q0 24 7 39t19 24.5t27 15t32 10.5l2 1q14 4 26.5 8.5t21.5 10.5v1q8 4 27.5 15.5t41.5 25t42 26t29 18.5h1q5 3 12 8t7 7v2q1 5 1.5 8.5t0.5 4.5q0 8 -8 9.5t-18 1.5q-28 0 -51.5 -15t-46.5 -34q-25 -20 -51 -36.5t-58 -16.5q-24 0 -30.5 11t-6.5 40q0 16 5 31l10 30 q9 20 12 46l8 10q30 11 61.5 22.5t57 23.5t41.5 25t16 27v7v11q0 7 -1 7q-15 -5 -39.5 -19.5t-50.5 -28.5q-27 -15 -55 -29.5t-56 -25.5l-12 3q3 -3 -2 -3q-13 0 -23 -7l-7 -4h-2l-7 -15v-1q-5 -11 -8.5 -19t-6.5 -16q-2 -4 -3 -8t-3 -9l-4 -10l2 -1q-9 -38 -13 -81t-7 -84 q-4 -38 -6.5 -69.5t-8.5 -48.5q0 -5 -2.5 -8.5t-6.5 -8.5l-4 -8v-2q-2 -7 -4 -23t-4 -34t-3.5 -35t-1.5 -25zM195 690h2q10 0 27 11t35 25.5t33 29.5t23 24q0 1 0.5 1.5l0.5 0.5h-5h-27q-12 0 -28.5 -7.5t-33 -20t-31.5 -28t-24 -31.5zM77 419v-1l-24 4l24 -8v-2q1 1 1 5 l1 4l-19 10q-5 -3 -7 -8zM151 698l10 -16q1 5 6 13zM321 787l-2 -2l-3 -3q5 2 5 5zM53 422v1v-1zM416 248q-1 0 -1 -1v0q0 1 1 1z" />
<glyph unicode="&#xea;" horiz-adv-x="447" d="M416 248q-1 0 -1 -1v0q0 1 1 1zM53 423v-1v1zM77 418v1l-24 4q2 5 7 8l19 -10l-1 -4q0 -4 -1 -5v2l-24 8zM328 692h-2q-9 0 -22 7t-27 18t-27.5 23t-23.5 23h-18q-14 -14 -22.5 -23.5t-18.5 -21.5q-12 -14 -24 -27.5t-22.5 -25t-19 -18.5t-12.5 -8l-28 5q6 16 24.5 41.5 t41 49.5t45 41.5t37.5 17.5h1l12 -3q14 -3 34.5 -13t41 -23.5t37 -28.5t21.5 -29zM20 -7q0 8 1.5 25t3.5 35t4 34t4 23v2l4 8q4 5 6.5 8.5t2.5 8.5q6 17 8.5 48.5t6.5 69.5q3 41 7 84t13 81l-2 1l4 10q2 5 3 9t3 8q3 8 6.5 16t8.5 19v1l7 15h2l7 3q11 8 23 8q5 0 2 3l12 -3 q28 11 56 25.5t55 29.5q26 14 50.5 28t39.5 19q1 0 1 -6v-11v-7q0 -14 -16 -27t-41.5 -25t-57 -23.5t-61.5 -22.5l-8 -10q-3 -26 -12 -47q-5 -14 -10 -29t-5 -31q0 -29 6.5 -40t30.5 -11q32 0 58 16.5t51 36.5q23 18 46.5 33.5t51.5 15.5q10 0 18 -1.5t8 -9.5q0 -1 -0.5 -5 t-1.5 -9v-2q0 -1 -7 -6t-12 -8h-1q-9 -6 -29 -18.5t-42 -26t-41.5 -25.5t-27.5 -16v-1q-9 -5 -21.5 -9.5t-26.5 -8.5l-2 -1q-17 -5 -32 -10.5t-27 -15t-19 -24.5t-7 -39q0 -23 5 -37t35 -14q40 0 84.5 21.5t88.5 46.5q21 11 42 23t39 19q-1 -2 -1 -25q0 -8 -0.5 -17.5 t-0.5 -16.5v-8q0 -14 -16 -26t-41 -23t-56 -21t-61 -20q-26 -9 -50.5 -17t-43 -16.5t-30.5 -17.5t-14 -18q-4 -14 -4.5 -24t-0.5 -19q0 -12 -4.5 -18.5t-32.5 -6.5q-13 0 -24.5 14t-14.5 26z" />
<glyph unicode="&#xeb;" horiz-adv-x="447" d="M416 248q-1 0 -1 -1v0q0 1 1 1zM53 423v-1v1zM77 418v1l-24 4q2 5 7 8l19 -10l-1 -4q0 -4 -1 -5v2l-24 8zM298 748q0 21 13 29.5t33 8.5q19 0 25.5 -11t6.5 -27q0 -6 -2.5 -15t-7 -16.5t-10.5 -13t-14 -5.5h-3q-18 5 -29.5 19t-11.5 31zM71 748q0 21 13 29.5t33 8.5 t26 -11t6 -27q0 -6 -2.5 -15t-7 -16.5t-10.5 -13t-14 -5.5h-2q-19 5 -30.5 19t-11.5 31zM20 -7q0 8 1.5 25t3.5 35t4 34t4 23v2l4 8q4 5 6.5 8.5t2.5 8.5q6 17 8.5 48.5t6.5 69.5q3 41 7 84t13 81l-2 1l4 10q2 5 3 9t3 8q3 8 6.5 16t8.5 19v1l7 15h2l7 3q9 8 23 8q5 0 2 3 l12 -3q28 11 56 25.5t55 29.5q26 14 50.5 28t39.5 20q1 0 1 -7v-11v-7q0 -14 -16 -27t-41.5 -25t-57 -23.5t-61.5 -22.5l-8 -10q-3 -26 -12 -47q-5 -14 -10 -29t-5 -31q0 -29 6.5 -40t30.5 -11q32 0 58 16.5t51 36.5q23 19 46.5 34t51.5 15q10 0 18 -1.5t8 -9.5 q0 -1 -0.5 -4.5t-1.5 -8.5v-3q0 -1 -7 -6t-12 -8h-1q-9 -6 -29 -18.5t-42 -26t-41.5 -25t-27.5 -15.5v-1q-9 -6 -21.5 -10.5t-26.5 -8.5l-2 -1q-17 -5 -32 -10.5t-27 -15t-19 -24.5t-7 -39q0 -23 5 -37t35 -14q40 0 84.5 21.5t88.5 46.5q21 11 42 23t39 19q-1 -2 -1 -25 q0 -8 -0.5 -17.5t-0.5 -16.5v-8q0 -14 -16 -26t-41 -23t-56 -21t-61 -20q-26 -9 -50.5 -17t-43 -16.5t-30.5 -17.5t-14 -18q-4 -14 -4.5 -24t-0.5 -19q0 -12 -4.5 -18.5t-32.5 -6.5q-13 0 -24.5 14t-14.5 26z" />
<glyph unicode="&#xec;" horiz-adv-x="208" d="M29 798q-6 0 -6 5q0 1 6 -5zM157 712h-1q-11 0 -29 10t-37 23.5t-35.5 27.5t-23.5 23l-1 1h-1v1h4h28q14 0 33 -7.5t37.5 -19t33.5 -26t21 -28.5zM13 48q0 3 0.5 7t0.5 8v10l69 531q3 14 15 21t28 7q8 0 10.5 -7.5t2.5 -17.5v-63q0 -15 -2 -46t-4 -64t-4.5 -61t-3.5 -37 q0 4 0 1q0 -2 -0.5 -8t-1 -14t-1.5 -15q-1 -22 -3 -53t-5 -64.5t-7.5 -66.5t-11 -59t-15 -42t-19.5 -16q-2 0 -1 0.5t-1 0.5q-23 5 -34.5 18t-11.5 30z" />
<glyph unicode="&#xed;" horiz-adv-x="202" d="M13 48q0 -17 12 -30t35 -18q2 0 1 -0.5t1 -0.5q11 0 19.5 16t15 42t11 59t7.5 66.5t5 64.5t4 53q0 7 0.5 15t1 14t0.5 8q0 3 0 -1q1 9 3.5 37t4.5 61t4 64t2 46v63q0 10 -2 17.5t-11 7.5q-16 0 -28.5 -7t-14.5 -21l-70 -531v-10q0 -4 -0.5 -8t-0.5 -7zM49 715h1 q11 0 29 10t36.5 23.5t35 28t23.5 22.5v1v1h-4h-27q-12 0 -29.5 -7t-35 -18.5t-33 -26t-24.5 -29.5zM3 723l11 -17q2 8 7 14zM181 806q0 2 -7 -5q7 0 7 5z" />
<glyph unicode="&#xee;" horiz-adv-x="188" d="M12 48q0 -17 11 -30t32 -18q2 0 1.5 -0.5t1.5 -0.5q10 0 18 16t14 42t10 59t7 66.5t5 64.5t3 53q0 6 0.5 14.5t1 14.5t1 8.5t0.5 -1.5q1 9 3 37t4.5 61t4 64t1.5 46v63q0 9 -2 17t-10 8q-15 0 -26.5 -7t-14.5 -21l-65 -531v-10q0 -4 -0.5 -8t-0.5 -7zM270 715 q-6 14 -22.5 29t-37.5 28.5t-42 23.5t-35 13l-13 3h-2q0 1 -2 1q-15 0 -35.5 -9.5t-40 -24.5t-35.5 -32t-22 -32l29 -5h1q8 0 21.5 7t28 18t29.5 23t26 23h18q9 -11 23.5 -23t29.5 -23t28.5 -18t21.5 -7h1z" />
<glyph unicode="&#xef;" horiz-adv-x="190" d="M-23 767q0 22 13.5 30t33.5 8t26.5 -11t6.5 -27q0 -6 -2.5 -15t-7 -16.5t-11 -13t-14.5 -5.5h-2q-20 5 -31.5 19t-11.5 31zM159 765q0 22 13 30t34 8q20 0 26.5 -11t6.5 -27q0 -6 -2.5 -15t-7 -16.5t-11 -13t-14.5 -5.5h-3q-19 5 -30.5 19t-11.5 31zM12 48q0 3 0.5 7 t0.5 8v10l66 531q3 14 14.5 21t26.5 7q8 0 10 -8t2 -17v-63q0 -15 -1.5 -46t-4 -64t-4.5 -61t-3 -37q0 4 0 1q0 -2 -0.5 -8t-1 -14.5t-0.5 -14.5q-2 -22 -3.5 -53t-4.5 -64.5t-7.5 -66.5t-10.5 -59t-14 -42t-19 -16q-2 0 -1 0.5t-1 0.5q-21 5 -32.5 18t-11.5 30z" />
<glyph unicode="&#xf0;" horiz-adv-x="601" d="M299 116q1 1 4 16t6 34t5 39t2 32q0 7 0.5 25.5t1.5 39.5t1.5 40t0.5 27l-13 12q-6 0 -20 -7t-32 -17.5t-38 -23.5t-37.5 -25t-30.5 -22.5t-18 -15.5v-17q9 -11 25.5 -30.5t36 -41t40 -42.5t37.5 -36l17 1zM137 558l182 -7l13 13q0 15 1.5 29.5t5.5 26.5t10.5 19t17.5 7 q12 0 17.5 -5t13.5 -19l3 -3l3 -3v-8l-0.5 -4t-1.5 -9v-1q-1 -6 -1.5 -14.5t-2.5 -18.5l12 -15q61 -4 103 -8.5t47 -9.5q0 -7 -6.5 -16t-16 -16.5t-20 -12.5t-17.5 -5h-9h-4q0 1 -2 1q-2 2 -23.5 3t-55.5 1l-13 -13v-2q-1 -8 -1.5 -14.5t-0.5 -14.5v-13q-1 -7 -2.5 -29 t-2.5 -52t-2.5 -63.5t-2.5 -63.5t-1.5 -52t-0.5 -29q0 -2 -0.5 -4.5t-0.5 -4.5q-2 -18 -4 -40.5t-8 -42t-17.5 -33t-32.5 -13.5h-13q-4 0 -5 0.5t-3 0.5l-134 133v1q-5 4 -13 9.5t-17 13.5q-17 12 -37.5 27.5t-38.5 31t-30 29.5t-12 23q0 16 14.5 31t38.5 28.5t54 26.5 t60 25q25 10 49 20t43.5 20.5t33.5 21t19 22.5l-11 18q-33 -1 -62.5 -2t-53.5 -1.5t-41 -1t-23 -0.5z" />
<glyph unicode="&#xf1;" horiz-adv-x="602" d="M13 36q0 -17 18 -27t33 -10q5 0 8 1.5t3 8.5v3q0 10 1.5 34t3.5 50t4 49.5t4 31.5q1 11 4.5 27t7.5 31t8 26t5 11h38q1 0 18 -8t43 -20t57.5 -26.5t60.5 -28.5t52 -25.5l33 -16.5h1q10 -6 15.5 -20t10.5 -30q3 -12 6.5 -21.5t5.5 -11.5h72l1 60v1q6 84 11 142.5t8 100 t5.5 70.5t4.5 54t4 51t5 62v8q0 13 -7 16t-19 3q-18 0 -29.5 -4.5t-20.5 -24.5q1 -17 1.5 -32.5t0.5 -32.5q0 -45 -3.5 -91t-10.5 -91l-13 -10q-2 0 -5 -0.5t-7 -0.5h-13q-4 0 -10.5 0.5t-10.5 0.5h-4l-4 1q-19 6 -41 15t-45.5 20.5t-47 24t-46.5 25.5q-27 15 -50.5 28 t-46.5 23l-3 3q-16 15 -16 38v29q0 17 -4.5 28.5t-21.5 11.5q-10 0 -19 -8.5t-16 -20.5t-11 -24.5t-4 -20.5q0 -3 1 -9t2.5 -13t3 -12.5t3.5 -8.5l2 -9q-6 -47 -13 -101t-12 -110.5t-8.5 -112.5t-3.5 -107zM100 395q0 19 14 22.5t24 3.5q13 0 43 -12.5t68 -32t78 -43 t73.5 -45.5t55 -40t21.5 -26q0 -4 -6.5 -16t-10.5 -17l-5 -4q-4 -1 -9 -1q-3 0 -32 14t-70 34q-24 12 -49 24t-49.5 24t-46 22t-37.5 17h-1q-12 6 -19 10t-11 6.5t-6.5 5l-6.5 6.5l-2 2q-6 11 -11 24t-5 22zM176 731q4 0 13 7t19 17.5t20.5 22.5t18.5 22l20 -1l12 -19 q12 -14 29 -29.5t31 -20.5q3 -1 4 -1.5t3 -0.5l-3 -3l4 3l9 3q10 3 25.5 12.5t31 22.5t28 27.5t16.5 27.5l-20 5h-1q-14 0 -34 -11.5t-37 -31.5l-14 -4q-11 5 -19.5 11.5t-17.5 14.5q-11 11 -22.5 19.5t-24.5 8.5q-2 0 -10 -2q-9 -3 -23 -12.5t-28.5 -23t-28 -29.5 t-20.5 -31zM143 739l10 -15q1 2 1.5 5t2.5 6z" />
<glyph unicode="&#xf2;" d="M245 812q-1 0 -1 2v-1zM368 718h-1q-11 0 -27.5 11t-34 25.5t-33 29.5t-23.5 24l-4 4q3 -2 23 -2h11q13 0 30.5 -8t35 -20.5t32 -27.5t20.5 -30zM175 309q0 -18 11.5 -51t28 -65.5t36 -56.5t36.5 -24q10 0 24 13t28 33t27.5 45.5t24.5 50.5t17.5 47.5t6.5 36.5 q0 15 -13 39.5t-31 47.5t-38 39.5t-34 16.5q-7 0 -19 -10.5t-26 -27t-28 -36.5t-25.5 -39t-18.5 -35t-7 -24zM193 102q-8 38 -30.5 66t-47.5 53q-19 20 -35 38.5t-21 35.5v8l2 6q4 2 14.5 13.5t24 26.5t27 30.5t23.5 26.5v1l8 10h1q13 14 26 35.5t27 46.5q14 24 28.5 48 t29.5 43.5t31.5 31.5t34.5 12h11h10q6 0 7 -2q8 -49 22.5 -96.5t43.5 -89.5q7 -9 15.5 -18t18.5 -20q20 -23 38.5 -46.5t18.5 -44.5q0 -11 -6 -21l-213 -321z" />
<glyph unicode="&#xf3;" d="M302 -25l213 322q4 5 5 10t1 10q0 21 -18.5 44.5t-38.5 46.5q-10 11 -18.5 20t-15.5 18q-29 42 -43.5 89.5t-22.5 96.5q-1 2 -7 2h-10h-11q-18 0 -34.5 -12t-31.5 -31.5t-29.5 -43.5t-28.5 -48q-14 -25 -27 -46.5t-26 -35.5h-1l-8 -10v-1q-10 -11 -23.5 -26.5t-27 -30.5 t-24 -26.5t-14.5 -13.5l-2 -6v-8q5 -17 21 -35.5t35 -38.5q24 -25 46 -52.5t32 -66.5zM175 309q0 8 7 24t18.5 35t25.5 39t28 36.5t26 27t19 10.5q14 0 34 -16.5t38 -39.5t31 -47.5t13 -39.5q0 -14 -6.5 -36.5t-17.5 -47.5t-24.5 -50.5t-27.5 -45.5t-28 -33t-24 -13 q-17 0 -36.5 24t-36 56.5t-28 65.5t-11.5 51zM264 712h2q10 0 27 11t34.5 25.5t32.5 29.5t23 24q0 1 0.5 1.5l0.5 0.5h-5h-27q-12 0 -28.5 -7.5t-33 -19.5t-31 -27.5t-23.5 -31.5zM220 721l10 -17q1 4 6 14zM389 809l-2 -2l-3 -3q5 2 5 5zM191 105l3 -6q0 1 -0.5 1.5 t-0.5 1.5z" />
<glyph unicode="&#xf4;" d="M422 710h-2q-8 0 -21 7t-27 18t-27.5 23t-23.5 23h-18q-11 -11 -25 -23t-28.5 -23t-27.5 -18t-21 -7h-1l-28 5q6 15 21.5 32t35 32t39.5 24.5t34 9.5q2 0 1.5 -0.5t1.5 -0.5l12 -3q13 -3 33.5 -13t41 -23.5t37 -28.5t21.5 -29zM175 309q0 -18 11.5 -51t28 -65.5t36 -56.5 t36.5 -24q10 0 24 13t28 33t27.5 45.5t24.5 50.5t17.5 47.5t6.5 36.5q0 15 -13 39.5t-31 47.5t-38 39.5t-34 16.5q-7 0 -19 -10.5t-26 -27t-28 -36.5t-25.5 -39t-18.5 -35t-7 -24zM193 102q-8 38 -30.5 66t-47.5 53q-19 20 -35 38.5t-21 35.5v8l2 6q4 2 14.5 13.5t24 26.5 t27 30.5t23.5 26.5v1l8 10h1q13 14 26 35.5t27 46.5q14 24 28.5 48t29.5 43.5t31.5 31.5t34.5 12h11h10q6 0 7 -2q8 -49 22.5 -96.5t43.5 -89.5q7 -9 15.5 -18t18.5 -20q20 -23 38.5 -46.5t18.5 -44.5q0 -11 -6 -21l-213 -321z" />
<glyph unicode="&#xf5;" d="M302 -25l213 321q4 5 5 10t1 11q0 20 -18.5 43.5t-38.5 46.5q-10 11 -18.5 20.5t-15.5 17.5q-29 43 -43.5 90.5t-22.5 95.5q-1 2 -7 2h-10h-11q-18 0 -34.5 -12t-31.5 -31.5t-29.5 -43t-28.5 -47.5q-14 -25 -27 -47t-26 -36h-1l-8 -10v-1q-10 -11 -23.5 -26.5t-27 -30.5 t-24 -26t-14.5 -14l-2 -6v-7q5 -18 21 -36t35 -38q24 -25 46 -52.5t32 -66.5zM175 308q0 8 7 24t18.5 35t25.5 39t28 36.5t26 27t19 10.5q14 0 34 -16.5t38 -39.5t31 -47.5t13 -39.5q0 -14 -6.5 -36t-17.5 -47t-24.5 -50.5t-27.5 -45.5t-28 -33t-24 -13q-17 0 -36.5 24 t-36 56.5t-28 65t-11.5 50.5zM196 739q5 0 13.5 7t19 17.5t21 22.5t18.5 22l20 -1l13 -18q11 -15 28.5 -30.5t31.5 -20.5q3 -1 4 -1.5t3 -0.5l-3 -3l4 3l10 3q9 3 24.5 12.5t31 22.5t28.5 27.5t17 27.5l-20 5h-1q-14 0 -34.5 -11.5t-37.5 -31.5l-14 -3q-11 4 -19.5 10.5 t-18.5 14.5q-11 11 -22 19.5t-25 8.5l-10 -2q-9 -3 -23 -12t-29 -22.5t-28.5 -29.5t-20.5 -32zM163 748l10 -16q1 2 1.5 5t2.5 6zM191 105l3 -6q0 1 -0.5 1.5t-0.5 1.5z" />
<glyph unicode="&#xf6;" d="M166 780q0 22 12.5 30t32.5 8q19 0 25.5 -10.5t6.5 -27.5q0 -6 -2.5 -14.5t-7 -16t-10.5 -13t-14 -5.5h-2q-19 5 -30 18.5t-11 30.5zM390 780q0 22 13 30t33 8q19 0 25 -10.5t6 -27.5q0 -6 -2 -14.5t-6.5 -16t-11 -13t-14.5 -5.5h-2q-18 5 -29.5 18.5t-11.5 30.5z M175 309q0 -18 11.5 -51t28 -65.5t36 -56.5t36.5 -24q10 0 24 13t28 33t27.5 45.5t24.5 50.5t17.5 47.5t6.5 36.5q0 15 -13 39.5t-31 47.5t-38 39.5t-34 16.5q-7 0 -19 -10.5t-26 -27t-28 -36.5t-25.5 -39t-18.5 -35t-7 -24zM193 102q-8 38 -30.5 66t-47.5 53 q-19 20 -35 38.5t-21 35.5v8l2 6q4 2 14.5 13.5t24 26.5l27 30t23.5 26v1l8 11h1q13 14 26 35.5t27 46.5q14 24 28.5 48t29.5 43.5t31.5 31.5t34.5 12h11h10q6 0 7 -2q8 -49 22.5 -96.5t43.5 -89.5q7 -9 15.5 -18.5t18.5 -20.5q20 -22 38.5 -45.5t18.5 -44.5q0 -11 -6 -21 l-213 -321z" />
<glyph unicode="&#xf7;" horiz-adv-x="481" d="M180 135q0 23 13 31t33 8q19 0 25 -11t6 -28q0 -6 -2 -15t-6.5 -16.5t-11 -13t-14.5 -5.5h-2q-18 5 -29.5 19t-11.5 31zM180 488q0 23 13 31.5t33 8.5q19 0 25 -11.5t6 -28.5q0 -6 -2 -15t-6.5 -16.5t-11 -13t-14.5 -5.5h-2q-18 5 -29.5 19t-11.5 31zM15 352q-3 2 8 2 t32.5 -1t50 -2.5t60.5 -3.5q46 -3 94 -6t88 -6.5t67 -7t30 -7.5q0 -7 -6.5 -16t-16.5 -16.5t-20.5 -12.5t-17.5 -5h-9q-3 0 -1 0.5t0 0.5q-1 2 -22 3t-53 1q-25 0 -55.5 -0.5t-62 -1.5t-61.5 -1.5t-55 -1.5t-36 -2t-16 -1z" />
<glyph unicode="&#xf8;" d="M175 311q0 -12 4.5 -33t14.5 -44l23 -2l119 222l-4 16q-19 14 -33 14q-11 0 -31.5 -22.5t-41 -52t-36 -58t-15.5 -40.5zM334 329q-3 -7 -9 -20t-15 -31q-12 -26 -28 -59.5t-35 -69.5l2 -14q19 -22 38 -22q10 0 24 13t28 33.5t27.5 46t24.5 50.5t17.5 47.5t6.5 36.5 q0 11 -6 27t-17 33l-22 -1q-1 -2 -1.5 -3.5t-1.5 -3.5q-11 -23 -19 -39.5t-13 -21.5zM113 34q1 3 4 11t5 10l1 1l48 88l-1 13q-11 17 -25.5 33.5t-29.5 31.5q-17 19 -32.5 37.5t-23.5 41.5v4l2 6q4 2 14.5 13.5t24 26.5t27 31t23.5 27v1l8 10h1q13 14 26 36t27 47 q14 24 28.5 48t29.5 43.5t31.5 32t34.5 12.5h11h11q6 0 7 -2q2 -15 4.5 -30.5t5.5 -28.5l24 -3l9 16q11 17 26 24.5t30 7.5q3 0 3 -1q0 -6 -3.5 -15.5t-7.5 -17.5q-1 -2 -2 -3.5t-2 -3.5v-1l-14 -37q1 3 -2.5 -5t-5.5 -13t-6.5 -14.5t-11.5 -23.5v-10l3 -6l2 -1 q5 -8 8.5 -14.5t4.5 -8.5q5 -5 14 -15t20 -22q20 -23 38.5 -47t18.5 -45q0 -5 -1 -10t-5 -10l-213 -324l-81 93l-20 -2q-21 -34 -39.5 -56.5t-30.5 -22.5l-2 1q-22 4 -22 23q0 8 5 20z" />
<glyph unicode="&#xf9;" horiz-adv-x="517" d="M176 775q-1 0 -1 2v-1zM7 212v2v-1v-1zM300 681h-1q-11 0 -28 11t-34 25.5t-32.5 29.5t-23.5 24l-5 4q2 -2 8 -2h16h11q13 0 30.5 -8t34.5 -21t31.5 -28t20.5 -30zM115 568v-44l-15 -234v-1q0 -11 14 -29.5t36.5 -40t49.5 -43.5t53.5 -39.5t48.5 -28.5t34 -11 q7 0 14.5 5.5t14 13.5t11 16.5t4.5 14.5v396q0 13 13.5 19.5t25.5 6.5t19.5 -7.5t11.5 -18t5.5 -23t1.5 -21.5v-2q3 -23 4 -56.5t1 -73.5q0 -50 -1 -102t-2 -94q-1 -24 -1.5 -42t-0.5 -29q0 -12 -5 -29.5t-14 -33.5t-22.5 -27.5t-29.5 -11.5q-5 0 -25.5 11t-49 28 t-61.5 37.5t-63 39.5q-32 20 -57.5 35.5t-34.5 20.5h-2q-2 1 -10 4t-18 6.5t-19.5 6.5t-15.5 5q-10 2 -12.5 3.5t-4.5 3.5q0 8 -6 14l25 91v276q0 8 13.5 10.5t23.5 2.5q31 0 45 -18z" />
<glyph unicode="&#xfa;" horiz-adv-x="517" d="M114 574q-13 19 -45 19q-10 0 -23.5 -2.5t-13.5 -11.5v-275l-25 -92q6 -5 6 -13q2 -2 4.5 -3.5t12.5 -3.5q6 -2 15.5 -5t19.5 -6.5t18 -6.5t10 -4h2q9 -5 34.5 -21t57.5 -36q30 -18 63 -38.5t61.5 -37.5t49 -28t25.5 -11q16 0 29.5 11.5t22.5 27.5t14 33.5t5 29.5 q0 10 0.5 28.5t1.5 42.5q1 42 2 94t1 102q0 40 -1 73.5t-4 56.5v2q0 9 -1.5 21t-5.5 22.5t-11.5 18t-19.5 7.5t-25.5 -6t-13.5 -20v-396q0 -6 -4.5 -14t-11 -16t-14 -13.5t-14.5 -5.5q-12 0 -34 11t-48.5 28.5t-53.5 39t-49.5 43t-36.5 40.5t-14 30v1l15 234v43zM235 703h3 q10 0 27 11t34.5 25.5t32.5 29.5t23 24q0 1 0.5 1.5l0.5 0.5h-6h-26q-12 0 -28.5 -7.5t-33 -20t-31 -28t-23.5 -31.5zM192 711l10 -16q1 5 6 13zM361 800l-2 -2l-3 -3q5 2 5 5zM7 212v1v-2v1z" />
<glyph unicode="&#xfb;" horiz-adv-x="517" d="M7 211v2v-1v-1zM346 709h-2q-8 0 -21 7t-27 18t-27.5 23t-23.5 23h-18q-11 -11 -25 -23t-28.5 -23t-27 -18t-20.5 -7h-1l-29 5q6 15 21.5 32t35 32t39.5 24.5t34 9.5q2 0 1.5 -0.5t1.5 -0.5l13 -3q13 -3 33.5 -13t41 -23.5t36.5 -28.5t22 -29zM115 567v-44l-15 -233v-1 q0 -12 14 -30.5t36.5 -40t49.5 -43t53.5 -39t48.5 -28.5t34 -11q7 0 14.5 5.5t14 13.5t11 16t4.5 14v396q0 13 13.5 19.5t25.5 6.5t19.5 -7.5t11.5 -18t5.5 -22.5t1.5 -21v-2q3 -23 4 -57t1 -73q0 -50 -1 -102t-2 -94q-1 -24 -1.5 -42.5t-0.5 -28.5q0 -12 -5 -29.5 t-14 -33.5t-22.5 -27.5t-29.5 -11.5q-5 0 -25.5 11t-49 28t-61.5 37.5t-63 38.5q-32 20 -57.5 36t-34.5 21h-2q-2 1 -10 4t-18 6.5t-19.5 6.5t-15.5 5q-10 2 -12.5 3.5t-4.5 3.5q0 8 -6 13l25 92v275q0 8 13.5 10.5t23.5 2.5q31 0 45 -18z" />
<glyph unicode="&#xfc;" horiz-adv-x="517" d="M7 211v2v-1v-1zM333 769q0 22 12.5 30t32.5 8q19 0 25.5 -11t6.5 -27q0 -6 -2.5 -15t-7 -16.5t-10.5 -13t-14 -5.5h-2q-19 5 -30 19t-11 31zM108 769q0 22 12.5 30t32.5 8q19 0 25.5 -11t6.5 -27q0 -6 -2.5 -15t-7 -16.5t-10.5 -13t-14 -5.5h-2q-18 5 -29.5 19t-11.5 31z M115 567v-43l-15 -234v-1q0 -12 14 -30.5t36.5 -40t49.5 -43t53.5 -39t48.5 -28.5t34 -11q7 0 14.5 5.5t14 13.5t11 16t4.5 14v396q0 14 13.5 20t25.5 6t19.5 -7.5t11.5 -18t5.5 -22.5t1.5 -21v-2q3 -23 4 -57t1 -73q0 -50 -1 -102t-2 -94q-1 -24 -1.5 -42.5t-0.5 -28.5 q0 -12 -5 -29.5t-14 -33.5t-22.5 -27.5t-29.5 -11.5q-5 0 -25.5 11t-49 28t-61.5 37.5t-63 38.5q-32 20 -57.5 36t-34.5 21h-2q-2 1 -10 4t-18 6.5t-19.5 6.5t-15.5 5q-10 2 -12.5 3.5t-4.5 3.5q0 8 -6 13l25 92v275q0 9 13.5 11.5t23.5 2.5q31 0 45 -19z" />
<glyph unicode="&#xfd;" horiz-adv-x="554" d="M339 430l-12 12l-5 10l16 155q0 -1 -11 3.5t-17 8.5h-3q-2 0 -4 0.5t-3 0.5q-13 0 -25.5 -13.5t-12.5 -25.5q0 -3 -0.5 -8t-0.5 -11v-1q-1 -10 -1 -20v-21v-28q0 -14 1 -26v-1q0 -8 0.5 -14t0.5 -8l-2 -7q-4 -5 -12 -9t-12 -5h-1q-5 -1 -8 -1q-18 0 -32.5 7t-26 19 t-21 27t-18.5 30q-15 26 -30 46t-38 20q-15 0 -33 -9.5t-18 -28.5q0 -18 12.5 -36t32.5 -35t44.5 -33.5t48.5 -32.5q32 -21 58 -40.5t38 -36.5l2 -8v-20l3 -28q1 -7 1.5 -14t0.5 -15v-23q0 -26 -2.5 -49t-5.5 -45q-4 -20 -6 -40t-2 -40q0 -9 4 -14t15 -13q3 -3 15 -10 q5 0 12.5 3.5t14.5 9t12 12t5 13.5v248q0 21 25.5 46t59.5 54q21 17 41.5 35t37.5 37t27.5 37.5t10.5 36.5q0 39 -41 39q-7 0 -16 -8t-19 -20.5t-21 -28.5t-21 -31q-12 -17 -22.5 -31t-19.5 -22zM239 709h2q10 0 27 11t34.5 25.5t32.5 29.5t23 24q0 1 0.5 1.5l0.5 0.5h-5 h-26q-12 0 -28.5 -7.5t-33 -20t-31 -28t-23.5 -31.5zM196 717l10 -16q1 5 6 13zM364 806l-2 -2l-3 -3q5 2 5 5zM270 -2q-1 0 -1 1q-2 0 1 -1z" />
<glyph unicode="&#xfe;" horiz-adv-x="447" d="M12 -31q0 -17 10.5 -24t27.5 -7h20q-2 1 0 9.5t4 17.5q2 5 3 9t2 7v1q1 0 1 1v1l13 13q-8 0 -10 -1q2 11 3 21t3 18q5 24 9 40t21 21q11 4 14.5 5.5l3.5 1.5q1 0 0 -0.5t1 0.5q9 2 21.5 5.5t30 10.5t41.5 17t57 26q14 7 31 20t33.5 28.5t31.5 30.5t25 26v-1q0 2 0.5 3 t0.5 3v1q-13 33 -35.5 58.5t-48 45t-52.5 33l-49 24.5q-18 8 -32.5 15.5t-22.5 14.5q-11 8 -11 24q0 6 1 20.5t3 31.5q2 19 3 37t1 28v5q0 14 -2.5 20t-17.5 6q-16 0 -25 -3t-20 -16q-16 -95 -25.5 -184t-17.5 -183q-2 -16 -3 -31.5t-3 -32.5q-2 -24 -7 -47.5t-12 -46.5 q-8 -32 -15 -63.5t-7 -59.5zM162 383q14 0 38.5 -9.5t48.5 -24.5t41.5 -33t17.5 -35q0 -11 -1 -18.5t-4 -13t-9.5 -10.5t-17.5 -12h-1q-15 -8 -42.5 -20.5t-55 -24t-48 -17.5t-20.5 0v1q6 58 10 96t7 62q4 40 7 53t14 13q4 0 6.5 -2t5.5 -4l0.5 -0.5t2.5 -0.5z" />
<glyph unicode="&#xff;" horiz-adv-x="554" d="M270 -2q-3 1 -1 1q0 -1 1 -1zM372 761q0 22 12.5 30t32.5 8q19 0 25 -11t6 -27q0 -6 -2 -15t-6.5 -16.5t-10.5 -13t-14 -5.5h-2q-19 5 -30 19t-11 31zM148 761q0 22 12.5 30t32.5 8q19 0 25.5 -11t6.5 -27q0 -6 -2.5 -15t-7 -16.5t-10.5 -13t-14 -5.5h-2q-18 5 -29.5 19 t-11.5 31zM322 452l5 -10l12 -12l16 -1q9 8 19.5 22t22.5 31q10 15 21 31t21 28.5t19 20.5t16 8q41 0 41 -39q0 -18 -10.5 -36.5t-27.5 -37.5t-37.5 -37t-41.5 -35q-34 -29 -59.5 -54t-25.5 -46v-248q0 -7 -5 -13.5t-12 -12t-14.5 -9t-12.5 -3.5q-12 7 -15 10q-11 8 -15 13 t-4 14q0 20 2 40t6 40q3 22 5.5 45t2.5 49v23q0 8 -0.5 15t-1.5 14l-3 28v20l-2 8q-12 17 -38 36.5t-58 40.5q-24 16 -48.5 32.5t-44.5 34t-32.5 35t-12.5 35.5q0 19 18 28.5t33 9.5q23 0 38 -20t30 -46q9 -15 18.5 -30t21 -27t26 -19t32.5 -7q3 0 8 1h1q4 1 12 5t12 9l2 7 q0 2 -0.5 8t-0.5 14v1q-1 12 -1 26v28v21t1 20v1q0 6 0.5 11t0.5 8q0 12 12.5 25.5t25.5 13.5q1 0 3 -0.5t4 -0.5h3q6 -4 17 -8.5t11 -3.5z" />
<glyph unicode="&#x152;" horiz-adv-x="756" d="M683 292h-6q1 2 1 16q0 21 -29 29l-1 1q-11 3 -23 3t-27 -3t-31 -7q-17 -4 -32.5 -7.5t-34.5 -3.5q-8 0 -14.5 1t-13.5 3l-24 -5l-12 19q16 28 37.5 50.5t44.5 39.5t46.5 30t43.5 24q26 14 42.5 24.5t16.5 16.5q0 14 -7.5 25.5t-30.5 11.5q-60 0 -128 -52t-146 -169 l-62 -89l75 -54l51 -32q1 0 19.5 -14t42.5 -33t49.5 -39.5t40.5 -32.5h1q7 -5 13 -11l14 -14q6 -6 12 -10.5t14 -8t19.5 -5t30.5 -1.5h2q5 2 14 8t11 8v2q0 19 -17.5 37.5t-45.5 35.5q-11 7 -26 15t-38 21v1q-16 10 -47 33.5t-78 63.5l1 20q35 26 75 26q26 0 53 -10 q22 -5 40 -5q17 0 31 7t22 27zM110 363l-75 -53l61 -90q79 -116 147 -168t128 -52q22 0 30 11.5t8 25.5q0 6 -16.5 15.5t-41.5 23.5q-27 14 -58 32.5t-59.5 44t-51.5 59.5t-34 79l4 13q134 116 164 133q23 13 38.5 21.5t26.5 15.5q28 17 45.5 35.5t17.5 37.5v1q-2 2 -11 8.5 t-14 8.5h-2q-18 0 -30 -2t-20 -5t-13.5 -8t-12.5 -11q-10 -11 -27 -24h-1q-15 -13 -40.5 -33t-49.5 -39t-42.5 -33t-19.5 -14z" />
<glyph unicode="&#x153;" horiz-adv-x="756" d="M683 292h-6q1 2 1 16q0 21 -29 29l-1 1q-11 3 -23 3t-27 -3t-31 -7q-17 -4 -32.5 -7.5t-34.5 -3.5q-8 0 -14.5 1t-13.5 3l-24 -5l-12 19q16 28 37.5 50.5t44.5 39.5t46.5 30t43.5 24q26 14 42.5 24.5t16.5 16.5q0 14 -7.5 25.5t-30.5 11.5q-60 0 -128 -52t-146 -169 l-62 -89l75 -54l51 -32q1 0 19.5 -14t42.5 -33t49.5 -39.5t40.5 -32.5h1q7 -5 13 -11l14 -14q6 -6 12 -10.5t14 -8t19.5 -5t30.5 -1.5h2q5 2 14 8t11 8v2q0 19 -17.5 37.5t-45.5 35.5q-11 7 -26 15t-38 21v1q-16 10 -47 33.5t-78 63.5l1 20q35 26 75 26q26 0 53 -10 q22 -5 40 -5q17 0 31 7t22 27zM110 363l-75 -53l61 -90q79 -116 147 -168t128 -52q22 0 30 11.5t8 25.5q0 6 -16.5 15.5t-41.5 23.5q-27 14 -58 32.5t-59.5 44t-51.5 59.5t-34 79l4 13q134 116 164 133q23 13 38.5 21.5t26.5 15.5q28 17 45.5 35.5t17.5 37.5v1q-2 2 -11 8.5 t-14 8.5h-2q-18 0 -30 -2t-20 -5t-13.5 -8t-12.5 -11q-10 -11 -27 -24h-1q-15 -13 -40.5 -33t-49.5 -39t-42.5 -33t-19.5 -14z" />
<glyph unicode="&#x178;" horiz-adv-x="483" d="M84 740q0 22 12.5 30t32.5 8t26 -11t6 -27q0 -6 -2.5 -15t-7 -16.5t-10.5 -13t-14 -5.5h-2q-18 5 -29.5 19t-11.5 31zM309 740q0 22 13 30t33 8q19 0 25 -11t6 -27q0 -6 -2 -15t-6.5 -16.5t-10.5 -13t-14 -5.5h-3q-18 5 -29.5 19t-11.5 31zM445 539q0 -18 -4.5 -31.5 t-9.5 -25.5t-7.5 -19.5l-4.5 -13.5q-24 -90 -35.5 -178t-21.5 -182q-2 -16 -3 -31t-3 -30q-9 -21 -21 -25.5t-30 -4.5q-20 0 -23.5 9t-3.5 29q0 25 4.5 50t9.5 51t9.5 51.5t4.5 52.5v9q0 3 -0.5 6t-0.5 7v22l-3 7q-16 20 -54.5 44t-82.5 50q-28 16 -55.5 33t-49 32t-35 28 t-13.5 22q0 44 45 44h3q31 -17 62.5 -42t63.5 -51q22 -17 43 -33.5t43 -32.5l7 -2h4q2 0 4.5 -0.5t4.5 -0.5q19 0 30.5 9t17.5 24t8.5 34.5t4.5 40.5q1 17 2.5 33.5t5.5 29.5t11.5 21t20.5 8q25 0 38.5 -9t13.5 -35z" />
<glyph unicode="&#x2c6;" horiz-adv-x="360" d="M304 859q-6 16 -23 34.5t-38 34.5t-42 28t-35 16l-13 3q-2 0 -1.5 0.5t-1.5 0.5q-15 0 -35.5 -11.5t-40 -29t-36 -38t-22.5 -38.5l30 -6h1q8 0 21.5 8.5t28 21.5t29 28t25.5 27h19q9 -12 23.5 -27t29.5 -28t28.5 -21.5t21.5 -8.5h1z" />
<glyph unicode="&#x2dc;" horiz-adv-x="379" d="M23 836q4 16 17 34.5t29.5 35t32.5 28.5t26 15q6 3 9 3q14 0 25.5 -10t22.5 -22q9 -11 18 -19t22 -13l14 5q17 24 38.5 37t35.5 13h1l20 -6q-4 -16 -17 -33t-29 -32.5t-32 -26.5t-26 -15l-9 -4l-5 -4l4 4q-5 0 -8 3q-14 6 -31.5 24.5t-30.5 35.5l-13 22l-20 1 q-9 -11 -19.5 -25.5t-21 -27t-19.5 -21t-14 -8.5z" />
<glyph unicode="&#x2000;" horiz-adv-x="499" />
<glyph unicode="&#x2001;" horiz-adv-x="998" />
<glyph unicode="&#x2002;" horiz-adv-x="499" />
<glyph unicode="&#x2003;" horiz-adv-x="998" />
<glyph unicode="&#x2004;" horiz-adv-x="332" />
<glyph unicode="&#x2005;" horiz-adv-x="249" />
<glyph unicode="&#x2006;" horiz-adv-x="166" />
<glyph unicode="&#x2007;" horiz-adv-x="166" />
<glyph unicode="&#x2008;" horiz-adv-x="124" />
<glyph unicode="&#x2009;" horiz-adv-x="199" />
<glyph unicode="&#x200a;" horiz-adv-x="55" />
<glyph unicode="&#x2010;" horiz-adv-x="481" d="M65 324q25 1 55 2t61.5 2t62 1.5t55.5 0.5q32 0 53 -1t22 -4q2 0 0 -0.5t1 -0.5h9q7 0 17.5 6.5t20.5 15.5t16.5 19.5t6.5 19.5q-3 4 -30 8.5t-67 8.5t-88 7.5t-94 6.5q-48 5 -88.5 7t-62.5 7l-2 -109q5 0 16 0.5t36 2.5zM16 449l-19 -12q2 -4 18 -7z" />
<glyph unicode="&#x2011;" horiz-adv-x="481" d="M65 324q25 1 55 2t61.5 2t62 1.5t55.5 0.5q32 0 53 -1t22 -4q2 0 0 -0.5t1 -0.5h9q7 0 17.5 6.5t20.5 15.5t16.5 19.5t6.5 19.5q-3 4 -30 8.5t-67 8.5t-88 7.5t-94 6.5q-48 5 -88.5 7t-62.5 7l-2 -109q5 0 16 0.5t36 2.5zM16 449l-19 -12q2 -4 18 -7z" />
<glyph unicode="&#x2012;" horiz-adv-x="481" d="M65 324q25 1 55 2t61.5 2t62 1.5t55.5 0.5q32 0 53 -1t22 -4q2 0 0 -0.5t1 -0.5h9q7 0 17.5 6.5t20.5 15.5t16.5 19.5t6.5 19.5q-3 4 -30 8.5t-67 8.5t-88 7.5t-94 6.5q-48 5 -88.5 7t-62.5 7l-2 -109q5 0 16 0.5t36 2.5zM16 449l-19 -12q2 -4 18 -7z" />
<glyph unicode="&#x2013;" horiz-adv-x="481" d="M65 324q25 1 55 2t61.5 2t62 1.5t55.5 0.5q32 0 53 -1t22 -4q2 0 0 -0.5t1 -0.5h9q7 0 17.5 6.5t20.5 15.5t16.5 19.5t6.5 19.5q-3 4 -30 8.5t-67 8.5t-88 7.5t-94 6.5q-48 5 -88.5 7t-62.5 7l-2 -109q5 0 16 0.5t36 2.5zM16 449l-19 -12q2 -4 18 -7z" />
<glyph unicode="&#x2014;" horiz-adv-x="599" d="M15 423q-2 1 12.5 1.5t41 -0.5t62.5 -2.5t77 -3.5q58 -3 118.5 -6.5t110.5 -7t83.5 -8t36.5 -9.5q0 -9 -6.5 -19.5t-16 -19.5t-20 -15.5t-17.5 -6.5h-9q-4 0 -2 1t0 1q-1 2 -23.5 3.5t-60.5 1.5q-34 0 -76.5 -1t-87.5 -2t-87.5 -3t-76.5 -3q-29 -2 -42.5 -2.5t-18.5 -0.5 z" />
<glyph unicode="&#x2018;" horiz-adv-x="184" d="M143 734q-3 -1 -6.5 -2t-7.5 -3l1 5h13zM22 619q0 7 11 22.5t27.5 33t35 33t33.5 21.5l-14 -108v-2q0 -25 -15.5 -34.5t-39.5 -9.5q-23 0 -30.5 12.5t-7.5 31.5z" />
<glyph unicode="&#x2019;" horiz-adv-x="184" d="M13 576q5 0 13 4v-4h-13zM134 692q0 -8 -11.5 -23.5t-28 -33t-35 -33t-33.5 -22.5l15 109v3q0 25 15.5 34t39.5 9q23 0 30.5 -12.5t7.5 -30.5z" />
<glyph unicode="&#x201a;" horiz-adv-x="227" d="M57 43q0 -15 -3 -28t-6 -30q-4 -20 -7 -38.5t-3 -31.5q0 -2 -2 -2q11 0 30.5 17t38 39t32 43.5t13.5 29.5v1q0 18 -7.5 30.5t-30.5 12.5q-24 0 -39.5 -9.5t-15.5 -33.5z" />
<glyph unicode="&#x201c;" horiz-adv-x="314" d="M124 731q-1 0 -1.5 -1t-1.5 -1t-2.5 -0.5t-3.5 -0.5q-1 -1 -2 -1l-1 -1l1 5h11zM277 734q-1 0 -2 -0.5t-2 -0.5q-4 0 -9 -4l2 5h11zM242 713l3.5 3.5t3.5 2.5q7 6 15 10l-12 -107v-3q0 -7 -1 -9v-5q-1 -2 -1 -4q0 -1 -1 -3t-1.5 -3.5t-1.5 -2.5q-2 -2 -3.5 -4t-3.5 -3 q-1 -1 -2 -1l-2 -2q-2 0 -5 -3h-1q-1 -1 -3 -1q-4 -1 -7.5 -1.5t-8.5 -0.5h-5h-9q-6 2 -8 3q-1 0 -1.5 0.5t-1.5 0.5q-6 5 -9 10q0 1 -0.5 2t-0.5 3q-1 1 -1 3q-1 2 -1 5q0 1 -0.5 1.5t-0.5 1.5v13v1q0 3 2 7q0 2 1 3q2 6 6.5 13t9.5 15q2 2 3 3.5t3 3.5q2 4 5 6.5t5 5.5 t5 6l5 5q13 15 25 25zM96 715q3 3 5.5 4t4.5 3t3.5 2.5t2.5 1.5l-12 -108v-2q0 -10 -2 -14q-2 -6 -4 -11t-5.5 -7.5t-6.5 -5.5q-1 0 -5 -2l-6 -2t-8 -2h-11q-18 0 -27 11q-4 9 -6 20v6v7v3q1 1 1 2q0 2 1 3q0 1 1 2q10 22 32 47q5 6 10.5 12.5t10.5 11.5l7 7q3 3 8 5 q3 4 6 6z" />
<glyph unicode="&#x201d;" horiz-adv-x="314" d="M164 578q2 0 8 2q1 0 1.5 1t1.5 1v-4h-11zM11 575h2q2 1 3 1q2 0 3 1q1 0 1.5 0.5t1.5 0.5v-3h-11zM115 685q-1 -5 -5 -11.5t-9 -15.5q-15 -22 -38 -46t-41 -34l13 109v3q0 6 1 10.5t3 8.5q0 2 0.5 2.5t0.5 1.5q4 8 11 12.5t17 6.5h3q2 0 2.5 0.5t2.5 0.5h7q11 0 20 -6 l0.5 -0.5t1.5 -0.5q2 -3 4.5 -6t3.5 -8q1 -1 1 -4q1 -5 1.5 -9t0.5 -9q0 -4 -1 -5zM190 592q-4 -3 -7.5 -5.5t-7.5 -4.5l13 109v2v5v4q0 3 1 4q3 13 12 21q4 2 5 2q1 3 4 3v0q0 1 1 1q3 0 4 1q3 0 5 1h4q2 0 2.5 0.5t2.5 0.5h7h3q8 -1 13 -3q5 -3 9 -8q2 -2 2 -4q1 -1 1 -2 l2 -1q0 -2 0.5 -3.5t0.5 -2.5t0.5 -2t0.5 -2v-3q1 -4 1 -12v-2l-0.5 -0.5t-0.5 -2.5v-1q-3 -6 -7.5 -14.5t-12.5 -18.5q-1 -2 -2.5 -4t-3.5 -4t-4 -5t-4 -7l-22 -22q-5 -5 -11 -10t-11 -10z" />
<glyph unicode="&#x201e;" horiz-adv-x="357" d="M50 43q0 -15 -3 -28t-5 -30q-4 -20 -6.5 -38.5t-2.5 -31.5q0 -2 -2 -2q10 0 26.5 17t32.5 39t28 43.5t12 29.5v1q0 18 -6.5 30.5t-26.5 12.5q-21 0 -34 -9.5t-13 -33.5zM212 43q0 -15 -3 -28t-5 -30q-4 -20 -6.5 -38.5t-2.5 -31.5q0 -2 -2 -2q10 0 26.5 17t32.5 39 t28 43.5t12 29.5v1q0 18 -6.5 30.5t-26.5 12.5q-21 0 -34 -9.5t-13 -33.5z" />
<glyph unicode="&#x2022;" horiz-adv-x="182" d="M24 381q0 -21 14.5 -38.5t37.5 -22.5h2q10 0 18 6.5t13.5 16.5t8.5 20t3 18q0 20 -8 33.5t-32 13.5q-25 0 -41 -10t-16 -37z" />
<glyph unicode="&#x2026;" horiz-adv-x="504" d="M199 48q0 27 13 37.5t33 10.5q19 0 25.5 -14t6.5 -34q0 -8 -2.5 -18t-7 -20t-11 -16.5t-14.5 -6.5h-2q-18 6 -29.5 23t-11.5 38zM48 47q0 27 13 37t33 10t26 -13.5t6 -33.5q0 -8 -2.5 -18t-7 -20t-10.5 -16.5t-14 -6.5h-2q-19 6 -30.5 23t-11.5 38zM346 48q0 27 13 37.5 t33 10.5t26 -14t6 -34q0 -8 -2.5 -18t-7 -20t-10.5 -16.5t-14 -6.5h-2q-19 6 -30.5 23t-11.5 38z" />
<glyph unicode="&#x202f;" horiz-adv-x="199" />
<glyph unicode="&#x2039;" horiz-adv-x="214" d="M158 198q0 9 -8 22t-21 28t-28 29.5t-28 25.5v18q13 12 28 27t28 30t21 28t8 21l-6 29q-18 -6 -38.5 -22t-38 -36t-29 -40.5t-11.5 -35.5q0 -2 0.5 -1.5t0.5 -1.5l4 -13q3 -13 14 -32t26.5 -38.5t34.5 -37.5t37 -28zM149 153l19 10q-4 1 -8 3l-8 4z" />
<glyph unicode="&#x203a;" horiz-adv-x="214" d="M37 198v2q0 9 8.5 22t21.5 27.5t28 28.5t28 25v18q-13 11 -28 25.5t-28 29.5t-21.5 28t-8.5 21v2l6 29q18 -6 39 -22t38.5 -36t29 -40.5t11.5 -35.5q0 -2 -0.5 -1.5t-0.5 -1.5l-4 -13q-4 -14 -15.5 -35t-27.5 -42t-34.5 -37.5t-35.5 -22.5z" />
<glyph unicode="&#x205f;" horiz-adv-x="249" />
<glyph unicode="&#x20ac;" horiz-adv-x="556" d="M510 393v-1v1zM15 390q-5 3 13 4t50 1q29 0 65.5 0.5t76.5 1.5h12l6 2q3 2 13 9.5t24 18.5t30 23.5t31 24.5t28.5 22t22.5 18q9 7 15.5 13t12.5 11q6 6 12 11t14 8.5t20 5t30 1.5h2q5 -2 14 -8.5t12 -8.5v-1q0 -19 -18 -37.5t-46 -35.5q-11 -7 -26.5 -15.5t-39.5 -20.5 q-3 -2 -8 -5.5t-16 -11.5l8 -22q54 0 92 -1.5t45 -5.5q0 -7 -8 -15t-19.5 -15t-23.5 -12t-21 -5h-11q-3 0 -3.5 0.5t-2.5 0.5q-2 2 -26 3.5t-61 1.5h-51l-8 -4q-3 -3 -6.5 -6t-7.5 -6q-8 -8 -16.5 -15.5t-19.5 -15.5l-6 -9v-4q1 -4 2 -8.5t6 -12.5l10 -6q25 1 49 1h50h66 t54.5 -1t38 -2t16.5 -3q0 -7 -8 -15t-19 -15.5t-23 -12.5t-21 -5q-2 0 -6 0.5t-7 0.5h-5q-2 2 -32 2.5t-75 0.5h-39l-10 -20q17 -22 37.5 -40t41.5 -32.5t41 -26t38 -20.5q26 -14 42.5 -24t16.5 -15q0 -14 -8 -25.5t-30 -11.5q-60 0 -126 49t-144 159l-10 5 q-60 -2 -100.5 -3t-51.5 -1l2 48q-8 4 45 4q12 0 25 0.5t28 0.5l11 20l-19 28l24 17l-7 23q-31 0 -56 -0.5t-42 -0.5h-8z" />
<glyph unicode="&#x2122;" horiz-adv-x="868" d="M378 663v1q1 0 1 1v-2h-1zM180 602l-13 13q-10 0 -19 -4t-17 -9q-5 -4 -11.5 -6.5t-14.5 -2.5q-19 0 -31.5 16t-23.5 34q-9 12 -15.5 23t-11.5 14q2 5 6.5 5.5t13.5 0.5q8 0 12.5 -9t9.5 -20q5 -15 12.5 -26.5t23.5 -11.5q23 0 40.5 18t31.5 39q10 12 17.5 21.5t11.5 9.5 q11 0 20 -10.5t18 -23.5h1q14 -17 27.5 -32.5t35.5 -15.5q15 0 23 9.5t16 22.5h1q4 8 9 14.5t11 6.5h5q-1 0 2.5 -5.5t6.5 -9.5q-5 -9 -12 -21t-16 -23t-19.5 -18.5t-21.5 -7.5q-9 0 -18 6.5t-19 14.5q-11 8 -21 14.5t-24 6.5l-12 -13v-14q0 -8 1 -19q1 -17 1.5 -36t0.5 -34 v-26q0 -7 -0.5 -23t-1.5 -34t-2.5 -33.5t-2.5 -21.5q-7 -7 -19 -7h-1h-7t-4 2v226zM424 412q0 14 0.5 41.5t2.5 60.5t6 68t11 63.5t17.5 46.5t25.5 18q1 0 2 -0.5t3 -0.5h-2l122 -111l8 -3h8q9 0 17.5 2t16.5 10q5 4 16 14t24 21t24 21.5t16 15.5q2 0 10.5 3t19.5 7 q5 2 10 3.5l5 1.5h2q2 0 3.5 0.5t3.5 0.5q6 0 6 -7v-11q0 -15 -4 -29.5t-8 -28.5l-6 -21l-1 -4q0 -2 -0.5 -8.5t-2.5 -16.5q-2 -12 -3.5 -24t-1.5 -18q-1 -8 -2.5 -28t-2.5 -42.5t-2 -42.5t-1 -28q-3 -5 -6.5 -5.5t-9.5 -0.5q-20 0 -23.5 13.5t-3.5 30.5q0 20 4.5 41.5 t9.5 42.5q4 19 7.5 37t4.5 42l-1 5q-5 11 -11 13t-17 2h-9l-8 -4q-8 -8 -11 -11.5t-5 -5.5q-12 -16 -28 -32t-36 -16q-17 0 -29 14t-23 31q-14 20 -29 37.5t-41 17.5q-17 0 -22.5 -13t-5.5 -30q0 -5 0.5 -9.5t0.5 -7.5v-6q0 -9 -1 -33t-2.5 -50.5t-3.5 -50.5t-3 -34 q-2 -5 -10.5 -13.5t-13.5 -10.5h-2q-4 0 -6.5 4.5t-4.5 10t-3 10.5t-1 7z" />
<glyph unicode="&#x25fc;" horiz-adv-x="635" d="M0 635h635v-635h-635v635z" />
</font>
</defs>
</svg>
