<?xml version="1.0" standalone="no"?>
<!DOCTYPE svg PUBLIC "-//W3C//DTD SVG 1.1//EN" "http://www.w3.org/Graphics/SVG/1.1/DTD/svg11.dtd" >
<svg xmlns="http://www.w3.org/2000/svg" xmlns:xlink="http://www.w3.org/1999/xlink" version="1.1">
<metadata></metadata>
<defs>
<font id="odinsonregular" horiz-adv-x="540" >
<font-face units-per-em="1000" ascent="800" descent="-200" />
<missing-glyph horiz-adv-x="355" />
<glyph horiz-adv-x="0" />
<glyph unicode="&#xd;" horiz-adv-x="500" />
<glyph unicode=" "  horiz-adv-x="355" />
<glyph unicode="&#x09;" horiz-adv-x="355" />
<glyph unicode="&#xa0;" horiz-adv-x="355" />
<glyph unicode="!" horiz-adv-x="173" d="M43 268q0 -21 12.5 -37.5t36.5 -21.5q12 -4 19.5 12t11.5 43.5t6 62t3 66.5t3 57.5t5 35.5l4 94q0 7 0.5 16.5t-1 18.5t-6.5 15.5t-16 6.5q-17 0 -31.5 -9t-17.5 -28l-28 -307q0 -3 -0.5 -12t-0.5 -13zM21 58q0 28 15.5 38.5t39.5 10.5q25 0 33.5 -14t8.5 -35 q0 -8 -3.5 -19t-10 -21t-15.5 -16t-20 -4q-21 5 -34.5 22t-13.5 38z" />
<glyph unicode="&#x22;" horiz-adv-x="284" d="M32 600q0 28 15.5 38.5t39.5 10.5q25 0 33.5 -14t8.5 -35q0 -8 -13.5 -27t-31.5 -38t-37 -33t-29 -12zM170 603q0 28 15.5 38.5t39.5 10.5q25 0 33.5 -14t8.5 -35q0 -8 -13.5 -27t-31.5 -38t-37 -33t-29 -12zM170 603q0 28 15.5 38.5t39.5 10.5q25 0 33.5 -14t8.5 -35 q0 -8 -13.5 -27t-31.5 -38t-37 -33t-29 -12z" />
<glyph unicode="#" horiz-adv-x="705" d="M23 413q5 0 21 0.5t39 0.5t50.5 0.5t56.5 0.5l-14 -165h-58q-27 0 -48 1t-35 2t-17 3l-4 -92q5 0 19.5 0.5t35 1t46 1t52.5 1.5l-14 -84q0 -3 -0.5 -12t-0.5 -13q0 -21 12.5 -37.5t36.5 -21.5q15 -4 26 7.5t18 34t11 54t7 68.5q15 0 42 1t59 2q4 -1 7 -1h6q6 0 10 1 q4 0 7.5 0.5t8.5 0.5l-14 -84q0 -3 -0.5 -12t-0.5 -13q0 -21 12.5 -37.5t36.5 -21.5q16 -4 26.5 8t18 35t11.5 56t7 71q39 1 66 0t29 -3q3 0 9 -0.5t9 -0.5q10 0 23.5 7.5t24.5 18.5t17.5 22t1.5 19q-3 4 -18 7t-39 4.5t-54.5 2.5t-63.5 2q1 11 1 20t1 14q0 2 1.5 20t3 40.5 t2.5 43t2 28.5q35 0 58 -1.5t25 -3.5q3 0 9 -0.5t9 -0.5q10 0 23.5 7.5t24.5 18.5t17.5 22t1.5 19q-3 4 -17 6.5t-36 4.5t-50.5 3t-59.5 1q1 13 1 20v11q0 5 -0.5 8.5t-0.5 9.5v40q0 7 0.5 16.5t-1 18.5t-6.5 15.5t-16 6.5q-17 0 -31.5 -9t-17.5 -28l-14 -107h-86t-64 2 q1 12 1 18v10t-0.5 7.5t-0.5 9.5v40q0 7 0.5 16.5t-1 18.5t-6.5 15.5t-16 6.5q-17 0 -31.5 -9t-17.5 -28l-14 -107h-63t-53.5 1t-39 2t-18.5 3zM271 283q0 2 1.5 19t3 38.5t2.5 42.5t2 30q9 0 21 0.5t26 0.5q15 -1 25 -1.5t11 -2.5q3 0 9 -0.5t9 -0.5q8 0 20 6h25l-14 -165 q-46 0 -84.5 0.5t-58.5 2.5q1 10 1 17q0 8 1 13z" />
<glyph unicode="$" horiz-adv-x="600" d="M13 173q0 -31 28.5 -54t67 -39t77.5 -24.5t59 -10.5q13 -1 18.5 -11t7 -24t0.5 -30t-1 -29q0 -6 -1 -11.5t-0.5 -9.5t3 -6.5t9.5 -2.5q15 0 26 -0.5t19 3t12 13.5t4 30q0 13 -3 36.5l-6 47t-5.5 43.5t-1.5 26q1 7 4 27t7 43.5t7.5 44.5t5.5 29q4 23 8 50.5t10 55t16 53 t26 45.5q1 0 3 0.5t3 0.5q23 0 38 -15.5t29 -34t30 -34t40 -15.5q22 0 30 8.5t8 29.5q0 2 -11 17.5t-28 38t-38 48t-40.5 46.5t-35.5 34t-23 10q-6 -2 -8.5 7t-3 23.5t0 32.5t0 34t-3 27t-7.5 11l-66 5q-3 0 -7.5 -10.5t-4.5 -16.5q0 -12 5 -31l10 -38t8 -35t0 -23 q-2 -10 -7.5 -35.5t-11.5 -54t-11 -54.5t-6 -36q-2 -11 -5.5 -33t-8.5 -49t-11 -55t-13 -51t-15.5 -38t-17.5 -15q-24 0 -45 9.5t-41 21.5t-40 21.5t-42 9.5q-29 0 -39.5 -15.5t-10.5 -40.5z" />
<glyph unicode="%" horiz-adv-x="543" d="M84 59q-9 -21 -3.5 -37.5t27.5 -21.5q14 -4 34 16.5t41.5 54.5t43 76t40 80.5t32 68.5t18.5 40q3 5 10.5 19.5t16.5 34t19.5 42t20 43t17.5 38t12 27.5l16 40q3 7 7.5 16.5t6.5 18.5t-0.5 15.5t-13.5 6.5q-17 0 -34.5 -9t-28.5 -28l-271 -516q-2 -3 -6 -12t-5 -13z M72 373l56 -67l104 157q6 9 3 19.5t-10.5 20t-16.5 19t-15 17.5q-13 19 -19 40.5t-11 43.5q-2 5 -5.5 6t-8.5 1h-5q-14 0 -26 -12.5t-22.5 -29t-20 -34.5t-18.5 -28q-3 -3 -9.5 -10.5t-14 -15.5t-14.5 -15.5t-10 -9.5q0 -2 -0.5 -5t-0.5 -4q4 -12 13 -22.5t19 -21t19 -22 t13 -27.5zM75 472q0 5 6.5 17.5t15 25t17 22.5t13.5 10q6 0 14 -7t15.5 -17t13 -20.5t5.5 -17.5q0 -9 -6 -26t-14.5 -33t-17.5 -28t-16 -12t-15 10.5t-15 24.5t-11.5 28.5t-4.5 22.5zM350 72l56 -67l104 157q6 9 3 19.5t-10.5 20t-16.5 19t-15 17.5q-13 19 -19 40.5 t-11 43.5q-2 5 -5.5 6t-8.5 1h-5q-14 0 -26 -12.5t-22.5 -29t-20 -34.5t-18.5 -28q-3 -3 -9.5 -10.5t-14 -15.5t-14.5 -15.5t-10 -9.5q0 -2 -0.5 -5t-0.5 -4q4 -12 13 -22.5t19 -21t19 -22t13 -27.5zM353 171q0 5 6.5 17.5t15 25t17 22.5t13.5 10q6 0 14 -7t15.5 -17 t13 -20.5t5.5 -17.5q0 -9 -6 -26t-14.5 -33t-17.5 -28t-16 -12t-15 10.5t-15 24.5t-11.5 28.5t-4.5 22.5z" />
<glyph unicode="&#x26;" horiz-adv-x="600" d="M252 142h-12l-10 -8.5t-23.5 -19.5t-28 -23.5t-22.5 -20.5l-72 -72h-6q-5 0 -12 2t-14 6t-11.5 9.5t-4.5 12.5q0 16 9.5 27.5t21 23t21 23.5t9.5 28q0 3 -0.5 7t-0.5 5q-4 4 -16 13.5t-24.5 22t-22.5 27t-10 27.5q0 15 11.5 25.5t26 20t28.5 20t19 24.5v6q0 23 -15.5 30 t-33.5 11.5t-33.5 13.5t-15.5 35q0 10 5.5 17.5t14 11.5t18.5 6t19 2q17 0 41.5 -17.5t50 -40.5t47.5 -44.5t34 -30.5q7 3 11.5 12t7.5 18.5t4 18t1 11.5v6v6l-12 84v7q0 7 5 13.5t12.5 12t16 9.5t14.5 6h6q26 0 34.5 -16t8.5 -37q0 -25 -5.5 -46.5t-5.5 -46.5q3 0 9.5 -2 t13.5 -4.5t13.5 -4t9.5 0.5q11 4 19.5 13t15 19.5t12.5 21t13 18.5l108 108q1 0 3 0.5t3 0.5q7 0 13 -5.5t10 -13.5t6 -16.5t2 -14.5q0 -3 -0.5 -7l-0.5 -4l-84 -96l-0.5 -6t-0.5 -10q0 -24 11.5 -38t25.5 -26t25.5 -26.5t11.5 -39.5q0 -19 -9.5 -34t-21.5 -28.5t-21.5 -28 t-9.5 -33.5q0 -13 6 -22.5t13 -18.5t13 -19t6 -24q0 -18 -6.5 -24.5t-24.5 -6.5q-23 0 -38 11t-27 27t-22 35t-22.5 35t-29 27t-41.5 11q-3 0 -4.5 -0.5l-1.5 -0.5q-3 -3 -7.5 -12t-4.5 -12v-192q0 -6 -5 -9t-11 -4t-12 -0.5t-8 0.5t-8 -0.5t-12 0.5t-11 4t-5 9v204z M335 249q0 -3 0.5 -7l0.5 -4l108 -72q6 -4 14.5 7t16 26.5t13 30.5t5.5 20q0 30 -16.5 51.5t-45.5 21.5q-11 0 -27 -7t-31.5 -18t-26.5 -24t-11 -25zM132 232q0 -8 1.5 -17t6 -17.5t11 -14t17.5 -5.5q13 0 26 3t23.5 10t17 17t6.5 24q0 21 -13 38t-35 17q-10 0 -21 -4 t-20 -11.5t-14.5 -17.5t-5.5 -22z" />
<glyph unicode="'" horiz-adv-x="144" d="M32 600l-14 -110q11 -2 29.5 12t36.5 33t31.5 38t13.5 27q0 21 -8.5 35t-33.5 14q-24 0 -39.5 -10.5t-15.5 -38.5z" />
<glyph unicode="(" horiz-adv-x="204" d="M12 240q0 -12 5 -34.5t13.5 -49.5t21 -55t27 -50.5t31 -37t33.5 -14.5q14 0 26 5t12 20q0 3 -0.5 7t-0.5 5q-27 23 -43 45t-24.5 46.5t-11 53t-2.5 63.5q0 49 15 88.5t32.5 72.5t32.5 61t15 55q-22 0 -44 -15.5t-42.5 -40.5t-37.5 -56t-30 -62t-20.5 -59.5t-7.5 -47.5z " />
<glyph unicode=")" horiz-adv-x="204" d="M194 240q0 -12 -5 -34.5t-13.5 -49.5t-21 -55t-27 -50.5t-31 -37t-33.5 -14.5q-14 0 -26 5t-12 20q0 3 0.5 7t0.5 5q27 23 43 45t24.5 46.5t11 53t2.5 63.5q0 49 -15 88.5t-32.5 72.5t-32.5 61t-15 55q22 0 44 -15.5t42.5 -40.5t37.5 -56t30 -62t20.5 -59.5t7.5 -47.5z " />
<glyph unicode="*" horiz-adv-x="368" d="M160 489v-98q0 -7 9 -7h12h11t9 7v92q0 2 2.5 6t4.5 6l1 0.5t3 0.5q21 0 32 -11t20 -24.5t19.5 -24.5t30.5 -11q11 0 14.5 3t3.5 12q0 7 -3.5 11.5t-7.5 9t-7.5 9.5t-3.5 11q0 9 5.5 16t12 13.5t12 13.5t5.5 17q0 12 -6.5 19t-14.5 12.5t-14.5 12t-6.5 18.5q0 2 0.5 5 l0.5 3l47 47l0.5 1.5t0.5 3.5q0 6 -4.5 15t-13.5 9h-3l-61 -53q-8 -8 -14.5 -19t-20.5 -15q-2 -2 -12 1t-14 3q0 12 3.5 22.5t3.5 22.5q0 11 -5 18.5t-20 7.5h-3q-8 -2 -18 -7.5t-10 -12.5v-3l7 -41v-3v-3q0 -2 -2.5 -14t-10.5 -15q-7 4 -19.5 14.5t-27 22t-29 20t-23.5 8.5 q-10 0 -21 -4t-11 -14q0 -13 8.5 -17t19 -6.5t19.5 -6t9 -14.5v-3q-3 -7 -11 -12t-16.5 -9.5t-15 -9.5t-6.5 -12t5.5 -14t13 -13t14.5 -10.5t9 -6.5v-6q0 -8 -5.5 -13.5t-11.5 -11t-11.5 -11.5t-5.5 -13t9 -10.5t15 -3.5h3l41 34q6 5 18 14t20.5 14.5t9.5 6.5h6zM208 541 q0 6 6 12t15 11.5t18 9t15 3.5q17 0 26 -10.5t9 -24.5q0 -2 -3 -9.5t-7 -15t-9 -13t-8 -3.5l-62 35v5zM92 533q0 11 11.5 18.5t23.5 7.5t19.5 -8t7.5 -18q0 -14 -13 -20t-28 -6q-12 0 -16.5 9t-4.5 17z" />
<glyph unicode="+" horiz-adv-x="454" d="M289 109l-119 2q2 3 3.5 17t3 35.5t3 49.5t3.5 59q-29 -1 -55.5 -0.5t-47.5 2t-36 2.5t-21 1l-6 107q3 -2 18 -3.5t38.5 -3.5t53.5 -3.5t62 -3.5q2 32 4.5 61t6 52t7 37.5t7.5 17.5q7 5 18.5 -1t22 -17.5t18.5 -25t8 -23.5q0 -3 -0.5 -9t-0.5 -9q-3 -2 -3.5 -26.5 t1.5 -62.5q32 -2 61 -4.5t51.5 -5.5t36.5 -6.5t17 -7.5q5 -8 3.5 -19.5t-7.5 -23t-14.5 -19.5t-18.5 -8q-2 0 -9 0.5t-15 1.5t-15.5 1.5t-8.5 0.5q-2 2 -23.5 2.5t-54.5 -0.5q1 -29 2.5 -56.5t2.5 -50t2 -38.5t1 -22z" />
<glyph unicode="," horiz-adv-x="179" d="M45 49q0 -11 -10 -34.5t-20 -48.5t-15 -44.5t6 -22.5q11 -2 33.5 18.5t45.5 47t40 51.5t17 33q0 21 -8.5 35t-33.5 14q-24 0 -39.5 -10.5t-15.5 -38.5z" />
<glyph unicode="-" horiz-adv-x="454" d="M15 366q5 -3 37.5 -5.5t78.5 -5.5t98.5 -6t98.5 -7t78 -9t36 -11q5 -8 -1.5 -19t-17.5 -22t-24.5 -18.5t-23.5 -7.5q-3 0 -9 0.5t-9 0.5q-1 2 -25 3t-60 0.5t-78 -1.5t-80 -2t-66 -2t-36 -1z" />
<glyph unicode="." horiz-adv-x="179" d="M45 49q0 -21 13.5 -38t34.5 -22q11 -2 20 4t15.5 16t10 21t3.5 19q0 21 -8.5 35t-33.5 14q-24 0 -39.5 -10.5t-15.5 -38.5z" />
<glyph unicode="/" horiz-adv-x="432" d="M32 59q-9 -21 -3.5 -37.5t27.5 -21.5q14 -4 34 16.5t41.5 54.5t43 76t40 80.5t32 68.5t18.5 40q5 8 18 35.5t28.5 60t29.5 63t20 45.5l16 40q3 7 7.5 16.5t6.5 18.5t-0.5 15.5t-13.5 6.5q-17 0 -34.5 -9t-28.5 -28l-271 -516q-2 -3 -6 -12t-5 -13z" />
<glyph unicode="0" d="M184 106l115 -138l211 325q13 20 6.5 41t-21.5 41.5t-34 40t-31 36.5q-26 39 -39 83.5t-21 89.5q-3 10 -11.5 12.5t-17.5 2.5h-10q-29 0 -53.5 -25.5t-46 -60.5t-40.5 -71.5t-37 -57.5q-5 -6 -18.5 -21.5t-29 -33t-29 -32.5t-19.5 -19q0 -4 -1.5 -11t-0.5 -9 q8 -25 26 -46t38.5 -42.5t38.5 -46.5t25 -58zM190 312q0 11 13 36.5t30.5 52t35.5 46.5t27 20q12 0 29 -14.5t32 -35t26 -42t11 -35.5q0 -20 -12 -54.5t-29.5 -68.5t-36.5 -59t-32 -25q-14 0 -30.5 22t-30.5 51.5t-23.5 59.5t-9.5 46zM249 310q0 -21 13.5 -38t34.5 -22 q11 -2 20 4t15.5 16t10 21t3.5 19q0 21 -8.5 35t-33.5 14q-24 0 -39.5 -10.5t-15.5 -38.5z" />
<glyph unicode="1" horiz-adv-x="173" d="M11 59q0 4 0.5 13t0.5 12l60 516q3 19 17.5 28t31.5 9q11 0 16 -6.5t6.5 -15.5t1 -18.5t-0.5 -16.5v-40q0 -15 -1.5 -45.5t-3 -63t-4 -60t-3.5 -35.5q-1 -11 -2.5 -40.5t-4 -68t-7 -80.5t-12 -75.5t-19 -54.5t-27.5 -17q-24 5 -36.5 21.5t-12.5 37.5z" />
<glyph unicode="2" horiz-adv-x="464" d="M56 314q16 34 43.5 38t60.5 -4q32 -11 67 -12t62 19q-45 38 -82.5 64.5t-51.5 34.5q-17 9 -32.5 18t-29.5 18q-29 18 -48 38t-19 42v5q4 4 16 13t17 11h5q26 0 40 -3.5t23.5 -10t18.5 -16t25 -21.5q15 -12 38.5 -30.5t46.5 -36.5t40 -31t18 -13l52 -33l83 -58 q-32 -36 -48 -51.5t-24 -20.5t-10.5 -3.5t-7.5 -0.5q-11 -5 -37.5 -11t-63.5 -1q-9 1 -21.5 0.5t-24.5 -0.5t-22 2t-16 9q-23 5 -36 -5.5t-24 -24.5q9 -17 17.5 -43.5t15 -52t11 -44l4.5 -18.5q23 0 50 3t55.5 6.5t56.5 6.5t52 3q11 0 17 -8.5t9 -20.5t3.5 -26t0.5 -24 q-2 0 -21.5 -1.5t-51 -4t-62 -5.5t-54 -6t-27.5 -5q-17 -8 -27.5 -10.5t-27.5 -2.5q-14 0 -23.5 3.5t-17.5 21.5q-16 78 -25.5 122.5t-14.5 68t-6.5 32t-1.5 14.5q0 10 1.5 21t1.5 18q0 9 5 27h2z" />
<glyph unicode="3" horiz-adv-x="464" d="M58 284q7 -17 18.5 -26t25 -12t29 -1.5t31.5 5.5q32 11 59 8.5t54 -22.5q-45 -38 -74.5 -61t-43.5 -31q-17 -9 -32.5 -18t-29.5 -18q-29 -18 -48 -38t-19 -42v-5q2 -2 6.5 -5.5t9.5 -7.5t9.5 -7t7.5 -4h5q26 0 40 3.5t23.5 10t18.5 16t25 21.5q15 12 38.5 30.5t46.5 36.5 t40 31t18 13l52 33l83 58l-66 96q-78 114 -146 165t-129 51q-28 0 -38 -15t-10 -32q0 -15 25.5 -29t61 -33.5t74 -48.5t64.5 -72l-26 4q-22 -5 -44.5 -1.5t-44 9t-43 8.5t-41.5 -3q-29 -8 -34.5 -25.5t2.5 -41.5h2z" />
<glyph unicode="4" horiz-adv-x="480" d="M64 171q14 8 48.5 21.5t77.5 28.5t89 29.5t85 24.5l10 -78t8 -77q1 -3 1 -15v-19q0 -14 2.5 -29.5t9 -28t18 -20.5t29.5 -8q4 0 12.5 4.5t11.5 7.5v12q0 8 0.5 18t0.5 18v12q0 14 -1 41t-3.5 61.5t-6.5 74.5t-10 80q19 16 19 26q0 9 -9 20.5t-21 21.5q-6 34 -14 64.5 t-17.5 53.5t-21 36t-24.5 13q-3 0 -7.5 -4.5t-4.5 -7.5v-11q0 -7 -0.5 -16t-0.5 -16v-11q0 -26 1.5 -52.5t3.5 -52.5q-23 -26 -50.5 -35.5t-57.5 -15.5t-62.5 -16t-65.5 -37q-4 45 -9 88t-12.5 77t-19 54.5t-27.5 20.5q-18 0 -27 -16t-9 -33q0 -2 1.5 -9.5t3.5 -17l4 -19 t3 -14.5z" />
<glyph unicode="5" horiz-adv-x="464" d="M56 272q16 -34 43.5 -38t60.5 4q32 11 67 12t62 -19q-45 -38 -82.5 -64.5t-51.5 -34.5q-17 -9 -32.5 -18t-29.5 -18q-29 -18 -48 -38t-19 -42v-5q4 -4 16 -13t17 -11h5q26 0 40 3.5t23.5 10t18.5 16t25 21.5q15 12 38.5 30.5t46.5 36.5t40 31t18 13l52 33l83 58 q-32 36 -48 51.5t-24 20.5t-10.5 3.5t-7.5 0.5q-11 5 -37.5 11t-63.5 1q-9 -1 -21.5 -0.5t-24.5 0.5t-22 -2t-16 -9q-23 -5 -36 5.5t-24 24.5q9 17 17.5 43.5t15 52t11 44l4.5 18.5q23 0 50 -3t55.5 -6.5t56.5 -6.5t52 -3q11 0 17 8.5t9 20.5t3.5 25.5t0.5 24.5 q-2 0 -21.5 1.5t-51 4t-62 5.5t-54 6t-27.5 5q-17 8 -27.5 10.5t-27.5 2.5q-14 0 -23.5 -3.5t-17.5 -21.5q-2 -10 -7.5 -35.5t-11.5 -54t-11 -54.5t-6 -36l8 -24q-1 -1 -3 -1q-10 -3 -13.5 -12t-3.5 -20q0 -10 1.5 -21t1.5 -18q0 -9 5 -27h2z" />
<glyph unicode="6" horiz-adv-x="432" d="M410 604v5q-15 21 -22 29t-25 8q-25 0 -34 -22t-11 -52t-1 -59.5t-3 -44.5q-4 -16 -28 -31t-57.5 -29.5t-71.5 -29.5t-70 -31.5t-53.5 -35.5t-21.5 -41q0 -14 19 -34t43.5 -40t48.5 -37.5t35 -26.5l132 -132q3 0 12 -0.5t12 -0.5q25 0 39.5 16t21 38.5t8.5 47.5t3 43 q0 7 0.5 28t1.5 49.5t2.5 60.5t2.5 60.5t2.5 49.5t2.5 28q0 3 0.5 16.5t2 32.5t2.5 40t2.5 40t2.5 32t2 16v7zM278 120q-16 14 -35.5 34t-38 41t-34 39.5t-24.5 29.5q6 7 29 24t49.5 34.5t50 31t31.5 13.5q0 -7 -0.5 -25t-1.5 -38.5t-1.5 -38.5t-0.5 -25q0 -11 -1.5 -29 t-3.5 -35t-4 -30t-3 -14z" />
<glyph unicode="7" horiz-adv-x="408" d="M394 62q0 -30 -13 -55t-48 -25q-15 0 -27.5 32.5t-22.5 82t-18 108.5t-14.5 113.5t-12 96t-10.5 55.5q-1 0 -5 0.5t-7 0.5q-25 0 -43 -17t-34.5 -38t-34.5 -38t-43 -17q-29 0 -39.5 19t-10.5 44q0 14 15 33.5t38 40.5t51.5 42t55 37.5t48.5 26.5t33 10q33 0 52 -29 t28.5 -70.5t12 -88t2.5 -81.5q0 -36 6.5 -71t15 -70t16 -70.5t9.5 -71.5z" />
<glyph unicode="8" d="M184 502q-7 -33 -25 -58t-38.5 -46.5t-38.5 -42.5t-26 -46q-1 -2 0.5 -9t1.5 -11q6 -5 19.5 -19.5t29 -32t29 -33t18.5 -21.5q18 -21 37 -57.5t40.5 -71.5t46 -60.5t53.5 -25.5h10q9 0 17.5 2.5t11.5 12.5q8 45 21 89.5t39 83.5q12 17 31 36.5t34 40t21.5 41.5t-6.5 41 l-211 325zM376 337q-42 5 -89.5 8.5t-83.5 6.5q7 21 17 42.5t21 39.5t22 29.5t21 11.5q9 0 21.5 -12.5t25 -32.5t24.5 -44.5t21 -48.5zM391 254q-5 -16 -16 -35.5t-25.5 -37t-29 -29t-24.5 -11.5q-7 0 -18 10.5t-23.5 26.5t-25 35t-22.5 37q24 1 51 2t53 2t47 1t33 -1z" />
<glyph unicode="9" horiz-adv-x="432" d="M422 41v-5q-15 -21 -22 -29t-25 -8q-25 0 -36 15t-15 36.5t-5 44t-5 37.5q-4 16 -28 31t-57.5 29.5t-71.5 29.5t-70 31.5t-53.5 35.5t-21.5 41q0 14 19 34t43.5 40t48.5 37.5t35 26.5l132 132q3 0 12 0.5t12 0.5q25 0 39.5 -16t21 -38.5t8.5 -47.5t3 -43q0 -7 0.5 -28 t1.5 -49.5t2.5 -60.5t2.5 -60.5t2.5 -49.5t2.5 -28q0 -5 3.5 -24.5t7.5 -42t8 -42t5 -23.5v-7zM278 480q-16 -14 -35.5 -34t-38 -41t-34 -39.5t-24.5 -29.5q6 -7 29 -24t49.5 -34.5t50 -31t31.5 -13.5q0 7 -0.5 25t-1.5 38.5t-1.5 38.5t-0.5 25q0 11 -1.5 29t-3.5 35t-4 30 t-3 14z" />
<glyph unicode=":" horiz-adv-x="179" d="M45 49q0 28 15.5 38.5t39.5 10.5q25 0 33.5 -14t8.5 -35q0 -8 -3.5 -19t-10 -21t-15.5 -16t-20 -4q-21 5 -34.5 22t-13.5 38zM47 339q0 28 15.5 38.5t39.5 10.5q25 0 33.5 -14t8.5 -35q0 -8 -3.5 -19t-10 -21t-15.5 -16t-20 -4q-21 5 -34.5 22t-13.5 38z" />
<glyph unicode=";" horiz-adv-x="179" d="M47 339q0 28 15.5 38.5t39.5 10.5q25 0 33.5 -14t8.5 -35q0 -8 -3.5 -19t-10 -21t-15.5 -16t-20 -4q-21 5 -34.5 22t-13.5 38zM45 49q0 28 15.5 38.5t39.5 10.5q25 0 33.5 -14t8.5 -35q0 -5 -8 -18.5t-21 -30.5t-28.5 -35.5t-30.5 -33.5t-28 -24t-20 -8q-11 3 -6 22.5 t15 44.5t20 48.5t10 34.5z" />
<glyph unicode="&#x3c;" horiz-adv-x="429" d="M388 492q-10 28 -27 33t-39 5q-29 0 -59.5 -20t-61 -49.5t-59 -64t-53 -63.5t-43 -47.5t-28.5 -15.5q-2 0 -2.5 -4t-0.5 -9t0.5 -10t0.5 -7q-6 -1 -4.5 -6t6.5 -10.5t10 -10.5t5 -6q0 -14 12.5 -35t32.5 -44t44 -46.5t47 -42t41.5 -30t27.5 -11.5q7 0 16.5 0.5t18 3.5 t14.5 9.5t6 18.5q0 16 -11 32.5t-27 33t-35 34t-35 35.5t-27 36.5t-11 38.5q0 3 0.5 7t0.5 5l108 108q7 7 30 24t47 37t41.5 39.5t13.5 31.5z" />
<glyph unicode="=" horiz-adv-x="454" d="M12 432q5 -3 37.5 -5.5t78.5 -5.5t98.5 -6t98.5 -7t78 -9t36 -11q5 -8 -1.5 -19t-17.5 -22t-24.5 -18.5t-23.5 -7.5q-3 0 -9 0.5t-9 0.5q-1 2 -24.5 3.5t-59 2t-77 0t-79 -1t-65 -1t-35.5 -0.5zM14 267q5 -3 37.5 -5t78 -3.5t98.5 -3.5t98.5 -5t77.5 -7t36 -10 q5 -8 -1.5 -19t-17.5 -22t-24.5 -18.5t-23.5 -7.5q-3 0 -9 0.5t-9 0.5q-1 2 -25 3t-60 0.5t-78 -1.5t-80 -2t-66 -2t-36 -1z" />
<glyph unicode="&#x3e;" horiz-adv-x="429" d="M12 36q10 -28 27 -33t39 -5q28 0 59 20t61.5 49.5t59 64t53 63.5t43 47.5t28.5 15.5q2 0 2.5 3.5t0.5 8.5q0 6 -0.5 11t-0.5 7q6 1 4.5 6t-6.5 10.5t-10 10t-5 6.5q0 14 -12.5 35t-32.5 44t-44 46.5t-47 42t-41.5 30t-27.5 11.5q-7 0 -16.5 -0.5t-18 -3.5t-14.5 -9.5 t-6 -18.5q0 -16 11 -32.5t27 -33t35 -34t35 -35.5t27 -36.5t11 -38.5q0 -3 -0.5 -7t-0.5 -5l-108 -108q-7 -7 -30 -24t-47 -37t-41.5 -39.5t-13.5 -31.5z" />
<glyph unicode="?" horiz-adv-x="464" d="M58 278q7 17 18.5 26t25 12t29 1.5t31.5 -5.5q32 -11 67 -12t62 19q-45 38 -82.5 64.5t-51.5 34.5q-17 9 -32.5 18t-29.5 18q-29 18 -48 38t-19 42v5q2 2 6.5 5.5t9.5 7t9.5 7t7.5 4.5h5q26 0 40 -3.5t23.5 -10t18.5 -16t25 -21.5q15 -12 38.5 -30.5t46.5 -36.5t40 -31 t18 -13l52 -33l83 -58q-32 -36 -48.5 -51.5t-24 -20t-10 -3.5t-7.5 -1q-11 -5 -37.5 -11t-63.5 -1q-9 1 -21.5 0t-24.5 -1t-22 2.5t-16 9.5q-22 5 -34.5 -5t-23 -22.5t-22 -22t-31.5 -3.5q-10 3 -13.5 12t-3.5 19q0 11 1.5 22t1.5 18q0 10 5 27h2zM45 49q0 28 15.5 38.5 t39.5 10.5q25 0 33.5 -14t8.5 -35q0 -8 -3.5 -19t-10 -21t-15.5 -16t-20 -4q-21 5 -34.5 22t-13.5 38z" />
<glyph unicode="@" horiz-adv-x="495" d="M282 300q0 -11 4.5 -32t11.5 -42.5t16.5 -38.5t20.5 -20q11 -2 32.5 4.5t42.5 16.5t37 21t16 19q0 9 -0.5 14t-0.5 11v15q0 10 1 29l16 262q-2 2 -10.5 3t-18.5 1.5t-19 0.5t-12 1h-5q-26 0 -40 -3.5t-23.5 -10t-18.5 -16t-25 -21.5q-15 -12 -38.5 -30.5t-46.5 -36.5 t-40 -31t-18 -13l-52 -33l-83 -58l66 -96q78 -114 146 -165t129 -51q28 0 38 15t10 32q0 11 -16 22t-40.5 24t-54 30t-57.5 41t-50.5 55.5t-32.5 74.5q123 108 156 126q17 9 32.5 18t29.5 18q7 4 10.5 -6t3 -27t-3.5 -38.5t-7 -39.5q12 2 -3 0.5t-38 -7t-44 -15t-21 -23.5z " />
<glyph unicode="A" horiz-adv-x="450" d="M377 223q5 -7 13 -29.5t17 -48.5t16.5 -48.5t12.5 -29.5q0 -1 0.5 -5t0.5 -7q0 -24 -19 -36.5t-40 -12.5h-23q-10 0 -15 13l-76 321l-16 30q-1 0 -8 -19.5t-18.5 -49t-25.5 -65t-27.5 -67.5t-25.5 -57t-19 -33q-12 -12 -19 -23t-14 -19t-17.5 -13t-29.5 -5h-4 q-4 3 -13 11.5t-11 12.5v5q0 29 14 51t80 149.5t130 313.5q37 14 42 14z" />
<glyph unicode="B" horiz-adv-x="390" d="M16 88q0 5 -1 14t-1 20q0 13 -0.5 22t-0.5 14q0 30 5.5 59t13.5 57.5t17 57t16 57.5q3 15 5 38.5t5.5 50t8.5 52.5t15 47.5t25.5 34.5t38.5 13q7 0 25.5 -14t41.5 -36.5t48.5 -49t46.5 -52t34.5 -46t13.5 -30.5q0 -21 -17.5 -33t-39 -22t-39 -20.5t-17.5 -29.5 q0 -20 18 -32.5t39 -24.5t39 -27.5t18 -39.5q0 -6 -17.5 -22.5t-44.5 -38.5t-60 -46t-64 -44.5t-55.5 -33.5t-35.5 -13q-30 0 -41 13t-15.5 31t-7.5 38.5t-17 35.5zM102 168v-16l2.5 -17.5t3.5 -21t4 -18l2 -7.5h25l85 64q3 3 8.5 6.5t5.5 4.5v5v6q-2 4 -6 11l-8 14t-7.5 12 t-4.5 6q-6 5 -17.5 12.5t-23.5 14.5t-21.5 11.5t-10.5 3.5l-25 -11l-2 -7.5t-4 -17.5t-3.5 -21t-2.5 -17v-17zM138 386q0 -2 -1 -8t0 -13t3.5 -13.5t10.5 -7.5q7 2 25.5 10t37.5 18t33.5 20t14.5 18q0 2 -5 10.5t-7 10.5q-4 4 -14 13.5t-22 20t-23 19.5t-16 12h-6 q-17 0 -23.5 -13.5t-8.5 -31.5t-0.5 -36.5t1.5 -28.5z" />
<glyph unicode="C" horiz-adv-x="464" d="M29 312l83 58l52 33q1 0 18 13t40 31t46.5 36.5t38.5 30.5q16 12 25 21.5t18.5 16t23.5 10t40 3.5h5q3 -1 7.5 -4.5t9.5 -7t9.5 -7t6.5 -5.5v-5q0 -22 -19 -42t-48 -38t-62 -36t-156 -126q10 -43 32.5 -74.5t50.5 -55.5t57.5 -41t54 -30t40.5 -24t16 -22q0 -17 -10 -32 t-38 -15q-61 0 -129 51t-146 165z" />
<glyph unicode="D" horiz-adv-x="495" d="M15 33q0 4 0.5 13t0.5 12l48 485q-5 8 -3 19t2 19v5q4 4 16 13t17 11h5h11q2 1 6 1h7q8 0 13 -4q12 -3 20 -7.5t15 -10.5t15 -13.5t20 -16.5q15 -12 38.5 -30.5t46.5 -36.5t40 -31t18 -13l52 -33l83 -58l-66 -96q-78 -114 -146 -165t-129 -51q-6 0 -10.5 -3t-8.5 -6 t-7.5 -5t-6.5 0q-8 -38 -19.5 -49.5t-28.5 -7.5q-24 5 -36.5 21.5t-12.5 37.5zM192 465q-12 6 -23 12t-22 13q-1 -21 -2.5 -49t-3 -55t-3 -48t-2.5 -28q-1 -8 -2 -27t-2 -45.5t-3.5 -57t-6.5 -61.5q23 14 59 32t71 43.5t62.5 60.5t33.5 84q-123 108 -156 126z" />
<glyph unicode="E" horiz-adv-x="464" d="M422 284h2q8 24 2.5 41.5t-34.5 25.5q-20 6 -41.5 3t-43 -8t-44 -9t-44.5 1l-26 -4q26 43 64.5 72t74 48.5t61 33.5t25.5 29q0 17 -10 32t-38 15q-61 0 -129 -51t-146 -165l-66 -96l83 -58l52 -33q1 0 18 -13t40 -31t46.5 -36.5t38.5 -30.5q16 -12 25 -21.5t18.5 -16 t23.5 -10t40 -3.5h5q5 2 17 11t16 13v5q0 22 -19 42t-48 38q-14 9 -29.5 18t-32.5 18q-14 8 -43.5 31t-74.5 61q18 11 36 19t37 4t40 -9t41 -5.5t36.5 8t26.5 31.5z" />
<glyph unicode="F" horiz-adv-x="576" d="M11 52q0 1 -0.5 7.5t0 14t3.5 14t10 8.5q2 26 7 72t12.5 100.5t18.5 111t26.5 104t35 79.5t44.5 37q9 1 22 -10t28.5 -29t32.5 -39.5t34 -40.5t33.5 -32.5t29.5 -16.5q27 11 47 31l40 40t42 35t52 15q16 0 23 -11.5t12 -25.5q-7 -9 -27 -29.5t-43.5 -44t-44 -43.5 t-29.5 -27q-7 -7 -19 -17.5t-23.5 -20t-20 -16t-9.5 -6.5h-12l-60 60q-7 6 -20 20t-27.5 28t-29 25t-25.5 11h-6q-3 -3 -7.5 -6t-4.5 -6v-120q5 -3 18.5 -13t31 -22.5t36.5 -27.5t34.5 -27.5t26 -22.5t10.5 -13q0 -9 -7 -20.5t-17 -22t-21.5 -17.5t-21.5 -7q-3 0 -9 0.5 t-9 0.5q-2 4 -9 17.5t-17 28.5t-22 27t-24 12q-14 0 -21 -5t-15 -20q0 -7 -1.5 -24t-3 -36t-4 -36t-3.5 -24q-2 -9 -4 -22t-7.5 -24t-14 -19t-22.5 -8q-26 0 -37.5 14t-11.5 39z" />
<glyph unicode="G" horiz-adv-x="595" d="M95 372l-66 -96l66 -60l61 -46q1 -1 15 -10t33.5 -21.5t40.5 -27t36 -26.5q16 -12 29 -23.5t27.5 -20t32.5 -13.5t44 -5h5q3 1 7.5 4t9.5 7t9.5 7.5t6.5 5.5v5q0 14 -9 28q7 22 7 54t-0.5 60.5t2 49t16.5 20.5h4q5 -11 7 -19.5t5.5 -14.5t9.5 -9t20 -3q12 0 26 6.5 t14 22.5q0 1 -0.5 2.5t-0.5 2.5q-3 4 -8.5 12t-11.5 17.5t-11 18t-7 13.5q-2 4 -5 17.5t-8 28.5t-13 26.5t-21 11.5h-5q-5 -2 -14.5 -5t-9.5 -4l-77 -75q-1 0 -13 -2.5t-25.5 -6.5t-25 -8t-11.5 -8v-42q0 -5 7.5 -6.5t15.5 -1.5h7q19 0 34.5 7.5t34.5 7.5q0 -2 1 -11t1 -12 q-2 -19 -3 -42t-3 -40q-4 -4 -8 -12q-29 16 -61.5 33t-59.5 36.5t-44.5 42t-17.5 51.5q0 40 17 70t42 53.5t54.5 40.5t54.5 31t42 25t17 22q0 17 -10 32t-38 15q-50 0 -92 -21.5t-76.5 -54t-61 -70.5t-45.5 -70z" />
<glyph unicode="H" horiz-adv-x="498" d="M342 48q13 5 19.5 41t11.5 90l-30 8l-3 2.5t-6.5 5.5l-7 6t-4.5 4q-14 8 -31 16.5t-39.5 17t-51.5 17.5t-68 19l-10 -78t-8 -77q-1 -3 -1 -15v-19q0 -14 -2.5 -29.5t-9 -28t-18 -20.5t-29.5 -8q-4 0 -12.5 4.5t-11.5 7.5v12q0 8 -0.5 18t-0.5 18v12q0 14 1 41t3.5 61.5 t6.5 74.5t10 80q-19 16 -19 26q0 9 9 20.5t21 21.5q6 34 14 64.5t17.5 53.5t21 36t24.5 13q3 0 7.5 -4.5t4.5 -7.5v-11q0 -7 0.5 -16t0.5 -16v-11q0 -26 -1.5 -52.5t-3.5 -52.5q23 -26 50.5 -35.5t57.5 -15.5t62.5 -16t65.5 -37q4 45 9 88t12.5 77t18.5 54.5t28 20.5 q18 0 27 -16t9 -33q0 -2 -1.5 -9.5t-3.5 -17l-4 -19t-3 -14.5q-21 -85 -27 -174t-9 -174l-36 -72l-3.5 -0.5t-6.5 -0.5q-23 0 -36.5 11.5t-13.5 37.5z" />
<glyph unicode="I" horiz-adv-x="209" d="M36 59q0 -21 12.5 -37.5t36.5 -21.5q16 -4 27.5 16.5t19 54.5t12 76t7 80.5t4 68.5t2.5 40q1 8 3 35.5t4 60t3.5 63t1.5 45.5v40q0 7 0.5 16.5t-1 18.5t-6.5 15.5t-16 6.5q-17 0 -31.5 -9t-17.5 -28l-60 -516q0 -3 -0.5 -12t-0.5 -13z" />
<glyph unicode="J" horiz-adv-x="408" d="M394 534q0 30 -13 55t-48 25q-15 0 -27.5 -32.5t-22.5 -82t-18 -108.5t-14.5 -113.5t-12 -96t-10.5 -55.5q-1 0 -5 -0.5t-7 -0.5q-25 0 -43 17t-34.5 38t-34.5 38t-43 17q-29 0 -39.5 -19t-10.5 -44q0 -14 15 -33.5t38 -40.5t51.5 -42t55 -37.5t48.5 -26.5t33 -10 q33 0 52 29t28.5 70.5t12 88t2.5 81.5q0 36 6.5 71t15 70t16 70.5t9.5 71.5z" />
<glyph unicode="K" horiz-adv-x="456" d="M12 534q0 -28 9 -47t15 -43q26 -102 37.5 -202.5t22.5 -205.5q11 -26 25 -32t35 -6q26 0 31.5 12t5.5 37q0 38 -8 74t-13 72q27 -16 52.5 -37t51.5 -42.5t52.5 -42t55.5 -35.5h6q55 0 55 54q0 13 -16.5 29t-42.5 34t-57.5 37t-61.5 37.5t-55.5 35.5t-38.5 31 q13 15 38 32.5t55.5 36t62 37t57.5 36t42.5 33.5t16.5 29q0 54 -55 54h-6q-27 -16 -52.5 -35.5t-51 -40t-50.5 -41.5t-50 -39q-1 0 -5 -0.5t-7 -0.5q-20 0 -28.5 14.5t-12 36t-4.5 46.5t-5 46.5t-14 36t-31 14.5q-29 0 -45 -11.5t-16 -43.5z" />
<glyph unicode="L" horiz-adv-x="545" d="M13 500q0 25 11.5 39t37.5 14q13 0 22.5 -8t15 -19t8 -24t2.5 -22q2 -51 4 -79.5t5 -47.5t6 -34.5t8 -40t11 -64t14 -106.5q0 -3 4.5 -6t7.5 -6h6q11 0 25.5 11t29 25t27.5 28t20 20l54 55h12q1 0 6 -6.5t12.5 -15.5t15.5 -19.5t16 -17.5q9 -7 30 -27t44 -43t43 -44 t27 -30q-5 -14 -12 -25.5t-23 -11.5q-30 0 -50 14t-37.5 33.5t-36 39t-45.5 30.5q-14 -2 -29 -15t-30 -31t-30 -38.5t-28.5 -37.5t-25.5 -28t-21 -10q-25 5 -44.5 37t-35 79.5t-26.5 104t-19 111t-12.5 100.5t-6.5 72q-7 1 -10 7.5t-3.5 14t0 14t0.5 8.5z" />
<glyph unicode="M" horiz-adv-x="612" d="M447 225l-158 118q-10 0 -28.5 -5t-39 -12.5t-38 -15t-26.5 -12.5q-27 -24 -37.5 -49t-12.5 -53.5t0.5 -61.5t0.5 -74q-11 -18 -20.5 -27.5t-27.5 -9.5q-14 0 -24 5.5t-24 19.5v8q0 6 -0.5 13t-0.5 12v9q0 24 -0.5 74.5t1 112.5t6 127t14 118.5t25 88t39.5 34.5 q15 0 30.5 -16t31 -39.5t31.5 -51.5t33.5 -51.5t36.5 -39.5t41 -16q3 0 7 0.5t5 0.5q54 32 109.5 68.5t106.5 75.5q3 1 9 1.5t9 0.5q18 0 36 -11t18 -32q0 -32 -5.5 -64.5t-13 -65t-15.5 -65t-14 -64.5q-1 -5 -1.5 -14t-0.5 -22q0 -29 -2 -70t-8.5 -79t-19 -65t-34.5 -27 q-5 0 -14 4t-18 9.5t-15.5 12t-6.5 11.5zM336 372q1 -3 4 -8t7 -10.5t7.5 -10.5t5.5 -7q7 -8 21.5 -13.5t29 -8.5t25.5 -4l11 -1h24q-4 0 0.5 9t11 21.5l13 25t6.5 19.5q0 14 0.5 26t0.5 19q0 5 -0.5 13.5t-0.5 16.5t-0.5 15t-0.5 8l-12 12zM115 500l3 -149q11 0 32.5 1 t43 4.5t37.5 10t16 17.5q0 5 -5 10t-12 9.5t-14.5 9t-11.5 7.5q-5 4 -17 19t-25 31.5t-23.5 29.5t-11.5 12z" />
<glyph unicode="N" horiz-adv-x="468" d="M142 276q-9 2 -11 8t-1.5 13t2.5 14t2 11q37 0 70 -22.5t65.5 -49t65.5 -49t69 -22.5q29 0 40 16.5t11 44.5q0 37 -3.5 79.5t-10.5 87t-16 88t-19 81.5q-3 10 -5.5 19t-6.5 15.5t-11 10t-19 3.5q-33 0 -44.5 -12.5t-11.5 -36.5q0 -32 11.5 -60t14.5 -59q0 -7 -1 -24 t-1.5 -36t-1.5 -36t-1 -24h-19q-1 0 -14 8t-30.5 19.5t-35.5 24t-28 20.5q-12 9 -31.5 27.5t-41.5 36.5t-42.5 31.5t-34.5 13.5q-17 0 -29.5 -11t-12.5 -32v-6q20 -111 30 -215.5t6 -216.5q10 -12 24.5 -24.5t29.5 -12.5q1 0 3.5 0.5l2.5 0.5q4 4 10 9.5l12 11t10 9.5t4 6 v240z" />
<glyph unicode="O" d="M184 106q-7 33 -24.5 58t-38 46.5t-39 42.5t-26.5 46q-1 2 0.5 9t1.5 11q6 5 19.5 19.5t29 32t29 33t18.5 21.5q18 21 37 57.5t40.5 71.5t46 60.5t53.5 25.5h10t12 -1t10.5 -4.5t6.5 -9.5q8 -45 21 -89.5t39 -83.5q12 -17 30.5 -36.5t34 -40t22 -41.5t-6.5 -41l-211 -325 zM190 312q0 -16 9.5 -46t23.5 -59.5t30.5 -51.5t30.5 -22q13 0 32 25t36.5 59t29.5 69t12 54q0 14 -11 35.5t-26 42t-32 35t-29 14.5q-9 0 -27 -20t-35.5 -46.5t-30.5 -52t-13 -36.5z" />
<glyph unicode="P" horiz-adv-x="432" d="M12 41v7q1 4 4.5 23.5t8 42t8 42t3.5 24.5q1 7 2.5 28t2.5 49.5t2.5 60.5t2.5 60.5t1.5 49.5t0.5 28q1 18 3 43t8.5 47.5t20.5 38.5t40 16q3 0 12 -0.5t12 -0.5l132 -132q10 -9 34.5 -26.5t49 -37.5t43.5 -40t19 -34q0 -22 -21.5 -40.5t-53.5 -35.5t-70 -32t-71.5 -29.5 t-57.5 -29.5t-28 -31q-4 -15 -4.5 -37.5t-5 -44t-16 -36.5t-35.5 -15q-18 0 -25 8t-22 29v5zM156 480l-12 -12q-1 -1 -3 -14t-4 -30t-3.5 -35t-1.5 -29q0 -7 -0.5 -25t-1.5 -38.5t-1.5 -38.5t-0.5 -25q7 0 31 13.5t50.5 31t49.5 34.5t29 24q-9 11 -25 29.5t-34.5 39 t-37.5 41t-35 34.5z" />
<glyph unicode="Q" d="M8 -24q0 33 25 55t55 40.5t55 38t25 47.5q0 26 -17.5 41.5t-38.5 29t-38.5 29.5t-17.5 43q0 3 1 9t1 9q6 4 19.5 17.5l29 29t29 29.5t18.5 20q18 19 37 52t40.5 64t46 54t53.5 23h10t12 -0.5t10.5 -3.5t6.5 -9q8 -40 21 -80.5t39 -75.5q12 -15 28.5 -28t32 -27 t26.5 -30.5t11 -39.5q0 -25 -13.5 -42.5t-33.5 -30.5t-44 -23.5t-44 -20.5t-33.5 -21t-13.5 -25l12 -12q10 -9 36.5 -26t53.5 -36.5t48 -39.5t21 -36q0 -4 -1 -15t-2 -15q-12 -12 -27.5 -12.5t-29.5 -0.5q-36 0 -59.5 18.5t-43.5 42t-41 45t-51 27.5q-48 -32 -95 -73 t-85 -83q-3 -1 -9.5 -1.5t-8.5 -0.5q-18 0 -37 11t-19 33zM190 312q0 -14 7.5 -28.5t19.5 -26t26.5 -18.5t28.5 -7q13 0 34 10t40.5 25.5t33.5 33.5t14 35q0 13 -11 32.5t-26 38t-32 31.5t-29 13q-9 0 -27 -18t-35.5 -42t-30.5 -47t-13 -32z" />
<glyph unicode="R" horiz-adv-x="461" d="M23 47q0 -25 15 -36t40 -11h5l36 36q1 9 4 29t7 43t7.5 43t5.5 29q4 19 9.5 22.5t20.5 3.5q26 0 44.5 -12.5t33.5 -31.5t27.5 -41.5t27.5 -41.5t33 -31.5t43 -12.5q29 0 45.5 12.5t16.5 44.5q0 12 -1 15.5t-5 5t-11 4.5t-20 15l-108 108q0 1 -0.5 5t-0.5 7q0 23 19 35 t42 22.5t42 23.5t19 38q0 15 -12.5 38.5t-33 50.5t-46 54t-51 49t-48.5 36t-39 14q-21 0 -36.5 -19.5t-27 -49.5t-19.5 -67t-13 -71.5t-7.5 -63t-3.5 -42.5q-4 -29 -13.5 -60.5t-20 -64t-18.5 -65t-8 -63.5zM227 468l60 -60v-36l-60 -36q-9 -5 -14.5 -7.5t-10.5 -4t-12 -2 t-17 -0.5q0 3 1 14t2 23t2 22.5t1 14.5q1 8 4.5 20.5t7.5 24t7.5 19.5t4.5 8h24z" />
<glyph unicode="S" horiz-adv-x="478" d="M334 276v-240q0 -2 4 -6t10 -9.5l12 -11t10 -9.5l2.5 -0.5t3.5 -0.5q14 0 29 12.5t25 24.5q-5 112 5 216.5t31 215.5v6q0 21 -12.5 32t-29.5 11q-15 0 -35.5 -13.5t-42 -31.5t-41 -36.5t-31.5 -27.5q-11 -8 -29 -20.5t-35.5 -24t-30.5 -19.5l-13 -8h-19q0 7 -1 24 t-1.5 36t-1.5 36t-1 24q3 31 14 59t11 60q0 24 -11.5 36.5t-43.5 12.5q-24 0 -30 -13.5t-12 -34.5q-11 -38 -20 -81.5t-15.5 -87.5t-10 -87t-3.5 -80q0 -28 10.5 -44.5t39.5 -16.5q36 0 69 22.5t65.5 49t66 49t69.5 22.5q0 -4 2 -11t3 -14t-1 -13t-11 -8z" />
<glyph unicode="T" horiz-adv-x="432" d="M156 66v6q1 3 5 12t7 12q1 11 4.5 40t7.5 61.5t7 61.5t5 41q3 17 8 29.5t5 30.5q0 3 -0.5 12t-0.5 12q-5 1 -17 6t-25.5 11t-25.5 11.5t-16 7.5q-9 4 -27 11.5t-36 17.5t-31.5 21t-13.5 22q0 8 7 18.5t17.5 19.5t21.5 15.5t20 6.5q18 0 33 -10.5t30 -23.5t31.5 -23.5 t37.5 -10.5v176q0 7 7.5 15.5t18 16t20 12.5t14.5 5q1 0 3.5 -0.5l2.5 -0.5q4 -4 10 -9.5l12 -11t10 -10t4 -5.5v-228q0 -21 17 -26.5t38 -10t38 -14.5t17 -39q0 -18 -11.5 -30t-32.5 -12h-6l-48 12q-1 0 -6 0.5t-7 0.5q-11 0 -16 -7t-6.5 -17t-1 -20t0.5 -17 q0 -12 -1.5 -41t-3 -61.5t-4 -61.5t-3.5 -40q-6 -16 -10.5 -27.5t-10.5 -19t-15.5 -11t-24.5 -3.5q-28 0 -43.5 19.5t-15.5 47.5z" />
<glyph unicode="U" horiz-adv-x="490" d="M132 574q-18 25 -55 25q-6 0 -14 -1t-15.5 -3.5t-12.5 -7.5t-5 -13v-264l-23 -90q0 -4 3 -9t2 -9q3 -7 7.5 -10t17.5 -6q7 -2 16.5 -5t18.5 -6t15.5 -5.5t8.5 -3.5q8 -4 30.5 -18t52 -32.5t62 -39.5t61 -38t49.5 -28.5t27 -11.5q18 0 32.5 12.5t25 30t16 36.5t5.5 32 t1 41t1.5 63.5t1.5 76t1 78.5q0 39 -1 72.5t-4 55.5q0 10 -2 24t-7 26t-14.5 20.5t-24.5 8.5t-32 -9t-17 -28v-384q0 -4 -3 -10t-7.5 -12t-10 -10t-9.5 -4q-11 0 -30.5 10t-43 26t-48 35.5t-44.5 39t-32.5 36.5t-12.5 27l14 228v10v33z" />
<glyph unicode="V" horiz-adv-x="450" d="M77 360q-5 7 -13 29.5t-17 48.5t-17 48.5t-12 29.5q0 1 -0.5 5t-0.5 7q0 24 19 36.5t40 12.5h22q9 0 16 -13l76 -320l15 -30q1 0 8.5 19.5t19 49t25.5 64.5t27.5 67.5t25.5 57t19 32.5q12 12 19 23t14 19t17 13t29 5h5q4 -3 12.5 -11.5t11.5 -12.5v-5q0 -29 -14.5 -51 t-80.5 -149t-129 -313q-38 -15 -42 -15z" />
<glyph unicode="W" horiz-adv-x="600" d="M588 494q0 -23 -1 -69t-4.5 -101t-11 -113t-19.5 -105t-29.5 -77.5t-42.5 -30.5q-3 0 -7 0.5t-5 1.5l-180 180l-4 0.5t-7 0.5q-10 0 -18.5 -2.5t-18.5 -10.5q-7 -6 -24.5 -23t-36.5 -36t-36 -36.5t-23 -24.5q-4 -2 -14.5 -5.5l-22.5 -7.5t-22 -7t-13 -4q-1 0 -6 -0.5 t-7 -0.5q-14 0 -19 10.5t-5 21.5v16q0 35 9.5 68t15.5 65q1 4 3 19t4 32.5t3.5 33.5t1.5 23q1 13 3.5 45t4 68.5t3 69t1.5 45.5q8 18 17.5 21.5t23.5 3.5q20 0 31.5 -7.5t17 -20.5t6.5 -29t1 -33q0 -33 -5 -65.5t-11.5 -64t-12.5 -64t-8 -65.5q4 -10 10 -11.5t14 -1.5 q3 0 7 0.5t5 0.5q11 12 24 30.5t28.5 36t33.5 30t40 12.5q21 0 36.5 -12t28.5 -29.5t24.5 -38t24 -38t27 -29.5t34.5 -12q13 0 18 11t6 26t0 29t-1 20q0 9 0.5 30t1.5 47t2.5 55t2.5 55t2.5 46.5t2.5 30.5q2 7 7.5 16.5t13 18.5t15 16t12.5 9q12 5 21 -3.5t15 -21t9 -26 t3 -19.5z" />
<glyph unicode="X" horiz-adv-x="564" d="M12 36q-4 12 13.5 31.5t41.5 39.5t47 37t30 24l108 108q0 1 0.5 5t0.5 7q0 20 -11 38.5t-27 36.5t-35 35.5t-35 34t-27 33t-11 32.5q0 12 6 18.5t14.5 9.5t18 3.5t16.5 0.5q23 0 39.5 -12.5t29.5 -31.5t23.5 -41.5t21.5 -41.5t23.5 -31.5t30.5 -12.5q34 0 55.5 24.5 t41 54.5t41 54.5t55.5 24.5q11 0 17 -4.5t9 -12t3.5 -16.5t0.5 -18q0 -21 -22 -46.5t-50.5 -50t-56.5 -46.5t-40 -35q0 -4 -1 -15t-1 -15q0 -27 15.5 -48.5t34 -41.5t34 -41.5t15.5 -46.5q0 -14 -1 -22.5t-4.5 -13.5t-11.5 -7t-22 -2q-23 0 -37.5 9.5t-24 25t-16.5 33.5 t-15 35.5t-19 32t-30 21.5q-12 -9 -29 -27t-37.5 -39.5t-43 -44t-43 -41t-39 -30.5t-30.5 -12q-22 0 -39 5t-27 33z" />
<glyph unicode="Y" horiz-adv-x="456" d="M444 534q0 -28 -9 -47t-15 -43q-26 -101 -37.5 -202.5t-22.5 -205.5q-11 -26 -25 -32t-35 -6q-26 0 -31.5 12t-5.5 37t4 50t9 50t9 49.5t4 49.5q0 5 -0.5 21t-0.5 21q-11 14 -35.5 31.5t-55 36t-63.5 38.5t-60.5 38.5t-45 35.5t-17.5 30q0 54 55 54h6q55 -32 104.5 -75.5 t99.5 -80.5q1 0 5 -0.5t7 -0.5q19 0 28 14.5t12.5 36t4.5 46.5t5 46.5t14 36t31 14.5q29 0 45 -11.5t16 -43.5z" />
<glyph unicode="Z" horiz-adv-x="600" d="M589 149q0 25 -10.5 40.5t-39.5 15.5q-22 0 -42 -9.5t-40.5 -21.5t-41 -21.5t-44.5 -9.5q-9 0 -17 15t-15.5 38t-14 51t-11.5 55t-8 49t-5 33q-2 10 -6.5 36t-10.5 54.5t-11.5 54t-7.5 35.5q-8 18 -17.5 21.5t-23.5 3.5q-17 0 -27.5 -2.5t-27.5 -10.5q-4 -2 -21.5 -22.5 t-39.5 -48t-44.5 -56t-36.5 -46.5t-15 -19q0 -21 8 -29.5t30 -8.5q24 0 40 15.5t30 34t29 34t38 15.5q1 0 3 -0.5t3 -0.5q16 -20 26 -45.5t16 -53t9.5 -55t8.5 -50.5q2 -9 5.5 -29.5t7 -44t6.5 -43.5t5 -27q2 -16 0.5 -33t0.5 -31.5t11.5 -23.5t34.5 -9q21 0 37 12.5t31 28 t30 29t35 15.5t43.5 1t43.5 3t33 17t13 44z" />
<glyph unicode="[" horiz-adv-x="226" d="M221 562q0 14 -8.5 21.5t-21 11t-26 4t-23.5 0.5h-19q-11 0 -23.5 -1t-23.5 -4t-17 -9q-11 -78 -18 -152t-12 -146t-9.5 -143.5t-10.5 -145.5l12 -24q3 0 13 0.5t23 0.5t26 0.5t22 0.5q17 0 32 -0.5t21 -0.5q1 0 6.5 -2t11.5 -4t11 -4t7 -2h6q14 0 16.5 11t2.5 21 q0 13 -9 19.5t-22.5 9t-29 3.5t-29 3.5t-22.5 8t-9 18.5q0 15 1 53.5t3 88t5.5 104t9 102t13.5 81t18 40.5q9 6 21.5 6.5t24 2t19.5 7t8 20.5z" />
<glyph unicode="\" horiz-adv-x="432" d="M386 59q-1 4 -5 13t-6 12l-271 516q-11 19 -28.5 28t-34.5 9q-11 0 -13.5 -6.5t-0.5 -15.5t6.5 -18.5t7.5 -16.5l16 -40q4 -10 12 -27.5t17.5 -38t20 -43t19.5 -42t16.5 -34t10.5 -19.5q5 -10 18.5 -40t32 -68.5t40 -80.5t43 -76t41.5 -54.5t34 -16.5q22 5 27.5 21.5 t-3.5 37.5z" />
<glyph unicode="]" horiz-adv-x="226" d="M9 2q0 -14 8.5 -21.5t21 -11t26 -4t23.5 -0.5h18q12 0 24.5 1t23.5 4t17 9q11 78 18 152t12 146t9.5 143.5t10.5 145.5l-12 24q-3 0 -13 -0.5t-23 -0.5t-26 -0.5t-22 -0.5q-17 0 -32 0.5t-21 0.5q-2 0 -7 2t-11 4t-11.5 4t-6.5 2h-6q-14 0 -16.5 -11t-2.5 -21 q0 -14 9 -20t22.5 -8.5t29 -3.5t29 -3.5t22.5 -8t9 -18.5q0 -15 -1 -53.5t-3 -88t-5.5 -104t-9 -102t-13.5 -81t-18 -40.5q-9 -6 -21.5 -6.5t-24 -2t-19.5 -7t-8 -20.5z" />
<glyph unicode="^" horiz-adv-x="450" d="M75 223l95 353q3 0 42 -14q32 -94 64.5 -172t65.5 -142t53 -101t27 -48q14 -23 14 -51v-5q-2 -4 -11 -12.5t-13 -11.5h-4q-19 0 -29.5 5t-17.5 13t-14 19t-19 23q-7 8 -19 33t-25.5 57t-27.5 67.5t-25.5 65t-19 49l-7.5 19.5l-16 -30l-76 -321q-4 -13 -15 -13h-23 q-21 0 -40 12.5t-19 36.5q0 3 0.5 7t0.5 5q5 7 13 29.5t16.5 48.5t16.5 48.5t13 29.5z" />
<glyph unicode="_" horiz-adv-x="368" d="M-4 -34q5 -3 38 -4t80 -1h100q54 0 101 -1.5t79.5 -4.5t36.5 -9q5 -8 -1.5 -19t-17.5 -22t-24.5 -18.5t-23.5 -7.5q-3 0 -9 0.5t-9 0.5q-1 2 -25 3t-60 0.5t-78 -1.5t-80 -2t-66 -2t-36 -1z" />
<glyph unicode="`" horiz-adv-x="187" d="M191 702q-7 18 -23 36.5t-34.5 34t-37.5 25t-32 9.5q-29 0 -41.5 -1.5t3.5 -20.5q8 -9 24.5 -25t35 -31.5t36 -26t28.5 -8.5z" />
<glyph unicode="a" horiz-adv-x="487" d="M137 22q-10 -14 -24 -20t-31 -6q-6 0 -14 1t-15.5 3.5t-12.5 7.5t-5 14v264q0 6 -0.5 22t0.5 34t5.5 32.5t14.5 16.5q11 5 35.5 22.5t56.5 40.5t67.5 48t68.5 46.5t59.5 35.5t40.5 14q18 0 32.5 -12.5t25 -30.5t16 -37t5.5 -32q1 -13 2 -45.5t1 -74.5q0 -41 -0.5 -86.5 t-1 -84t-1 -65t-0.5 -30.5q0 -11 -2 -25t-7 -26t-14.5 -20.5t-24.5 -8.5t-32 9t-17 29v220q-20 -13 -50 -31t-59 -34.5t-51.5 -29t-27.5 -15.5l-42 -26q1 -17 2 -33t1 -33v-11q0 -8 -0.5 -16.5t-0.5 -16.5v-10zM128 224q25 7 55.5 22.5t62 35t62.5 40.5t57 40v80q0 4 -3 10 t-7.5 12t-10 10t-9.5 4q-11 0 -30.5 -10t-43 -26t-48 -36t-44.5 -39t-32.5 -36t-12.5 -27q0 -20 1 -40t3 -40z" />
<glyph unicode="b" horiz-adv-x="390" d="M16 88q0 5 -1 14t-1 20q0 13 -0.5 22t-0.5 14q0 30 5.5 59t13.5 57.5t17 57t16 57.5q3 15 5 38.5t5.5 50t8.5 52.5t15 47.5t25.5 34.5t38.5 13q7 0 25.5 -14t41.5 -36.5t48.5 -49t46.5 -52t34.5 -46t13.5 -30.5q0 -21 -17.5 -33t-39 -22t-39 -20.5t-17.5 -29.5 q0 -20 18 -32.5t39 -24.5t39 -27.5t18 -39.5q0 -6 -17.5 -22.5t-44.5 -38.5t-60 -46t-64 -44.5t-55.5 -33.5t-35.5 -13q-30 0 -41 13t-15.5 31t-7.5 38.5t-17 35.5zM102 168v-16l2.5 -17.5t3.5 -21t4 -18l2 -7.5h25l85 64q3 3 8.5 6.5t5.5 4.5v5v6q-2 4 -6 11l-8 14t-7.5 12 t-4.5 6q-6 5 -17.5 12.5t-23.5 14.5t-21.5 11.5t-10.5 3.5l-25 -11l-2 -7.5t-4 -17.5t-3.5 -21t-2.5 -17v-17zM138 386q0 -2 -1 -8t0 -13t3.5 -13.5t10.5 -7.5q7 2 25.5 10t37.5 18t33.5 20t14.5 18q0 2 -5 10.5t-7 10.5q-4 4 -14 13.5t-22 20t-23 19.5t-16 12h-6 q-17 0 -23.5 -13.5t-8.5 -31.5t-0.5 -36.5t1.5 -28.5z" />
<glyph unicode="c" horiz-adv-x="464" d="M29 312l83 58l52 33q1 0 18 13t40 31t46.5 36.5t38.5 30.5q16 12 25 21.5t18.5 16t23.5 10t40 3.5h5q3 -1 7.5 -4.5t9.5 -7t9.5 -7t6.5 -5.5v-5q0 -22 -19 -42t-48 -38t-62 -36t-156 -126q10 -43 32.5 -74.5t50.5 -55.5t57.5 -41t54 -30t40.5 -24t16 -22q0 -17 -10 -32 t-38 -15q-61 0 -129 51t-146 165z" />
<glyph unicode="d" horiz-adv-x="420" d="M11 -18q0 -23 13.5 -32.5t34.5 -9.5h20q14 0 17 13q6 26 9.5 41t9 24.5t16 17.5t29.5 22t50 37t78 62q12 10 28.5 24t33.5 29t32.5 29.5t25.5 25.5q0 1 1 5.5t0 6.5q-18 48 -52 91t-70 77.5t-67 59t-44 36.5q-7 6 -7 14q0 6 2 10l4 8t4 9.5t2 13.5q0 22 -3.5 32t-27.5 10 q-18 0 -29 -4t-25 -21q-17 -107 -26.5 -209.5t-21.5 -210.5q-2 -26 -8 -52.5t-12.5 -53.5t-11.5 -53.5t-5 -51.5zM160 442q12 0 34 -19.5t43 -45.5t36.5 -52.5t15.5 -41.5q0 -17 -4 -23.5t-21 -18.5q-12 -7 -38 -29t-52.5 -45.5t-47 -41t-20.5 -16.5l26 240q1 9 2 24.5 t4 30.5t8 26.5t14 11.5z" />
<glyph unicode="e" horiz-adv-x="420" d="M19 2q0 7 1 24t3 36t4 36t4 24q0 2 5.5 11.5t6.5 12.5q6 16 9 48t5.5 71t6.5 80.5t12 77.5q-1 -1 -3 -5l6 17q5 14 9.5 27.5t10.5 24.5l9 22h10q13 10 28 10q9 0 10 -1q24 9 48.5 22.5t49 28t48.5 28t46 22.5q11 -3 12 -16t1 -20q0 -17 -16 -33.5t-40.5 -32t-55.5 -29 t-61 -24.5q-1 -14 -5 -24.5t-8.5 -20.5t-8 -20.5t-3.5 -24.5q0 -21 4 -29t19 -8q27 0 50 15.5t45.5 34t46 34t52.5 15.5q9 0 16.5 -0.5t12.5 -4.5t7 -11.5t-1 -21.5q0 -3 -9 -11.5t-15 -12.5q-9 -6 -28 -18.5t-40 -26t-39.5 -25t-24.5 -14.5q-18 -11 -39.5 -16.5 t-39.5 -13.5t-30 -22.5t-12 -42.5q0 -17 3 -27.5t22 -10.5q28 0 59 13t62 30.5t61.5 36t57.5 29.5q6 -2 8 -13t2 -25q0 -13 -0.5 -25.5t-0.5 -15.5q0 -19 -21 -35t-53 -29.5t-70 -25.5t-70.5 -23.5t-55 -23t-24.5 -23.5q-5 -17 -4 -30.5t-1 -23t-11.5 -14.5t-34.5 -5 q-9 0 -16.5 5t-14 12.5t-11 15.5t-6.5 15zM72 415q0 1 0.5 1.5t0.5 1.5z" />
<glyph unicode="f" horiz-adv-x="576" d="M11 52q0 1 -0.5 7.5t0 14t3.5 14t10 8.5q2 26 7 72t12.5 100.5t18.5 111t26.5 104t35 79.5t44.5 37q9 1 22 -10t28.5 -29t32.5 -39.5t34 -40.5t33.5 -32.5t29.5 -16.5q27 11 47 31l40 40t42 35t52 15q16 0 23 -11.5t12 -25.5q-7 -9 -27 -29.5t-43.5 -44t-44 -43.5 t-29.5 -27q-7 -7 -19 -17.5t-23.5 -20t-20 -16t-9.5 -6.5h-12l-60 60q-7 6 -20 20t-27.5 28t-29 25t-25.5 11h-6q-3 -3 -7.5 -6t-4.5 -6v-120q5 -3 18.5 -13t31 -22.5t36.5 -27.5t34.5 -27.5t26 -22.5t10.5 -13q0 -9 -7 -20.5t-17 -22t-21.5 -17.5t-21.5 -7q-3 0 -9 0.5 t-9 0.5q-2 4 -9 17.5t-17 28.5t-22 27t-24 12q-14 0 -21 -5t-15 -20q0 -7 -1.5 -24t-3 -36t-4 -36t-3.5 -24q-2 -9 -4 -22t-7.5 -24t-14 -19t-22.5 -8q-26 0 -37.5 14t-11.5 39z" />
<glyph unicode="g" horiz-adv-x="595" d="M95 372q19 32 45.5 70t61 70.5t76.5 54t92 21.5q28 0 38 -15t10 -32q0 -11 -17 -22t-42 -25t-54.5 -31t-54.5 -40.5t-42 -53.5t-17 -70q0 -29 17.5 -51.5t44.5 -42t59.5 -36.5t61.5 -33q2 4 4 7t4 5q2 17 3 40t3 42q0 3 -1 12t-1 11q-19 0 -34.5 -7.5t-34.5 -7.5h-7 q-8 0 -15.5 1.5t-7.5 6.5v42q0 4 11.5 8t25 8t25.5 6.5t13 2.5l62 48q0 1 9.5 4t14.5 5h5q13 0 23.5 -7.5t18.5 -17t13 -19t7 -13.5q2 -5 7 -13.5t11 -18t11.5 -17.5t8.5 -12q0 -1 0.5 -2.5t0.5 -2.5q0 -16 -14 -22.5t-26 -6.5q-14 0 -20 3t-9.5 9t-5.5 14.5t-7 19.5h-4 q-10 0 -14 -12t-5 -30.5t0 -42t1 -45.5q0 -33 -7 -54q9 -14 9 -28v-5q-4 -4 -16 -13t-17 -11h-5q-26 0 -44 5t-32.5 13.5t-27.5 20t-29 23.5q-15 12 -36 26.5t-40.5 27t-33.5 21.5t-15 10l-61 46l-66 60z" />
<glyph unicode="h" horiz-adv-x="604" d="M16 49q1 64 7.5 126.5t13.5 124.5t12 125t3 128q10 14 25 19.5t30 5.5q19 0 30.5 -10.5t11.5 -30.5q0 -3 -0.5 -11t-0.5 -9q0 -2 -2 -18t-5 -35t-5 -35t-2 -17q0 -18 21 -36t50.5 -33t60.5 -24t51 -9q9 0 34.5 8.5t52 20.5t47.5 24t21 20v144q0 7 6 17.5t15 20.5t18 16.5 t15 6.5q1 0 3.5 -0.5l2.5 -0.5q4 -4 10 -9.5l12 -11t10 -10t4 -5.5v-168q-6 -6 -9.5 -20t-5 -33t-2 -42t-0.5 -48v-66q0 -33 -2.5 -63t-8.5 -51t-17 -31.5t-27 -5.5q-20 7 -28 29.5t-13 48.5t-11 50t-22 35q-7 4 -23.5 9.5t-34.5 11t-34.5 11t-23.5 10.5q-1 0 -5 0.5t-7 0.5 q-17 0 -38 -5t-43 -13t-41.5 -17t-33.5 -17q0 -9 -1.5 -37.5t-7.5 -59.5t-18.5 -55.5t-34.5 -24.5t-34 15.5t-26 33.5zM351 257q0 -1 0.5 -3.5l0.5 -2.5q3 -5 11.5 -8.5t20 -5.5t23.5 -3.5t21 -1.5q12 0 18 2l24 12l-10 55q-12 0 -30.5 -1.5t-36 -6.5t-30 -13.5t-12.5 -22.5 zM134 304l4 -57h26q21 0 40 6t30 23q-11 14 -35.5 21.5t-52.5 7.5q-3 0 -7 -0.5t-5 -0.5z" />
<glyph unicode="i" horiz-adv-x="194" d="M22 59q0 -21 12.5 -37.5t36.5 -21.5q16 -4 27.5 16.5t19 54.5t12 76t7 80.5t4 68.5t2.5 40q1 8 3 35.5t4 60t3.5 63t1.5 45.5v40q0 7 0.5 16.5t-1 18.5t-6.5 15.5t-16 6.5q-17 0 -31.5 -9t-17.5 -28l-60 -516q0 -3 -0.5 -12t-0.5 -13z" />
<glyph unicode="j" horiz-adv-x="408" d="M397 531q0 30 -13 55t-48 25q-15 0 -27.5 -32t-23 -81.5t-19 -108t-15.5 -112.5t-12.5 -95.5t-10.5 -55.5q-1 0 -5 -0.5t-7 -0.5q-25 0 -43 17t-34.5 38t-34.5 38t-43 17q-29 0 -39.5 -19t-10.5 -44q0 -14 15 -33.5t38 -40.5t51.5 -42t55 -37.5t48.5 -26.5t33 -10 q33 0 52 29t28.5 70.5t12 88t2.5 81.5q0 36 7 70.5t16 69t17 69.5t10 71z" />
<glyph unicode="k" horiz-adv-x="456" d="M12 54q0 -32 16 -43.5t45 -11.5q21 0 31 14.5t14 36t5 46.5t4.5 46.5t12 36t28.5 14.5q29 0 55.5 -23t52.5 -51t52.5 -53.5t55.5 -29.5h6q55 0 55 54q0 13 -16.5 29t-42.5 33.5t-57.5 36t-62 37t-55.5 36t-38 32.5q13 14 38.5 31t55.5 35.5t61.5 37.5t57.5 37t42.5 34 t16.5 29q0 54 -55 54h-6q-29 -15 -55.5 -35.5t-52.5 -42t-51.5 -42.5t-52.5 -37q5 36 13 72t8 74q0 25 -5.5 37t-31.5 12q-21 0 -35 -6t-25 -32q-11 -105 -22.5 -205.5t-37.5 -202.5q-6 -24 -15 -43t-9 -47z" />
<glyph unicode="l" horiz-adv-x="408" d="M11 536q2 -36 10 -72.5t17 -72.5t16 -72t7 -72q0 -35 2 -81t11.5 -88t28.5 -71t53 -29q11 0 33 10.5t48.5 27t55 37t51.5 41.5t38 40.5t15 33.5q0 26 -10.5 45t-39.5 19q-25 0 -43 -17.5t-34.5 -38t-34.5 -38t-43 -17.5q-3 0 -7 0.5t-5 0.5q-5 14 -10.5 56.5t-12.5 97.5 t-15.5 115t-19 110.5t-23 83t-27.5 32.5q-18 0 -29.5 -7t-18.5 -18.5t-10 -26t-3 -29.5z" />
<glyph unicode="m" horiz-adv-x="600" d="M12 70q0 23 1 69t4.5 101t11 113t19.5 105t29.5 77.5t42.5 30.5q3 0 7 -0.5t5 -1.5l180 -180l4 -0.5t7 -0.5q10 0 18.5 2.5t18.5 10.5q7 6 24.5 23t36.5 36t36 36.5t23 24.5q4 1 14.5 5t22.5 8t22 7t13 4q1 0 6 0.5t7 0.5q14 0 19 -10.5t5 -21.5v-16q0 -35 -9.5 -68 t-15.5 -65q-1 -5 -3 -19.5t-4 -32t-3.5 -33.5t-1.5 -23q-2 -13 -4 -45t-3.5 -68.5t-3 -69t-1.5 -45.5q-8 -18 -17.5 -21.5t-23.5 -3.5q-20 0 -31.5 7.5t-17 20.5t-6.5 29t-1 33q0 33 5 65.5t11.5 64t12.5 64t8 65.5q-4 10 -10 11.5t-14 1.5q-3 0 -7 -0.5t-5 -0.5 q-11 -12 -24 -30.5t-28.5 -36t-33.5 -30t-40 -12.5q-21 0 -36.5 12t-28.5 29.5t-24.5 38t-24 38t-27 29.5t-34.5 12q-13 0 -18 -11t-6 -26t0 -29t1 -20q0 -10 -0.5 -30.5t-1.5 -46.5t-2.5 -55t-2.5 -55t-2.5 -47t-2.5 -30q-2 -8 -7.5 -17t-13 -18t-15 -16t-12.5 -9 q-12 -5 -21 3.5t-15 21t-9 26t-3 19.5z" />
<glyph unicode="n" horiz-adv-x="576" d="M12 47q0 49 3.5 104t8.5 110t11.5 108t12.5 99q-2 3 -4 9.5t-3.5 14t-3 14.5t-1.5 10q0 9 5 23t13 27.5t19 23.5t23 10q16 0 24 -7.5t11 -19t2.5 -25.5t-0.5 -27q0 -18 11 -29q25 -11 58 -29.5t69 -38.5t71.5 -37.5t65.5 -26.5q1 0 10 -0.5t14 -0.5q3 0 12 0.5t12 0.5 q10 59 12.5 119.5t-0.5 120.5q11 26 25 32t35 6q17 0 26.5 -5t9.5 -26v-7q-3 -35 -6.5 -83t-7.5 -100t-8 -103t-7 -91.5t-5 -65.5l-2 -25l-1 -70h-84q-7 4 -11.5 16t-8.5 25t-8.5 25t-11.5 17q-9 5 -30.5 16t-49 24.5t-56.5 27.5t-53.5 25t-40.5 18.5t-17 7.5h-36l-2 -9.5 t-4 -23t-3.5 -27.5t-2.5 -24q-2 -8 -4 -30t-3.5 -47t-3 -47.5t-1.5 -31.5q1 -17 -6 -21t-17 -4q-9 0 -19.5 3.5t-20 10t-15.5 15t-6 19.5zM120 396q0 -4 2 -11t5 -14t7.5 -13.5t9.5 -9.5t28.5 -14.5t56.5 -27.5t69.5 -34t67.5 -33.5t52 -25.5l21 -10q1 0 3 0.5l2 0.5 q3 3 7.5 12t4.5 12q0 7 -20 23.5t-50.5 36.5t-67.5 41.5t-71.5 39t-62.5 29t-40 11.5q-6 0 -15 -1.5t-9 -11.5z" />
<glyph unicode="o" d="M184 106q-7 33 -24.5 58t-38 46.5t-39 42.5t-26.5 46q-1 2 0.5 9t1.5 11q6 5 19.5 19.5t29 32t29 33t18.5 21.5q18 21 37 57.5t40.5 71.5t46 60.5t53.5 25.5h10t12 -1t10.5 -4.5t6.5 -9.5q8 -45 21 -89.5t39 -83.5q12 -17 30.5 -36.5t34 -40t22 -41.5t-6.5 -41l-211 -325 zM190 312q0 -16 9.5 -46t23.5 -59.5t30.5 -51.5t30.5 -22q13 0 32 25t36.5 59t29.5 69t12 54q0 14 -11 35.5t-26 42t-32 35t-29 14.5q-9 0 -27 -20t-35.5 -46.5t-30.5 -52t-13 -36.5z" />
<glyph unicode="p" horiz-adv-x="432" d="M12 41v7q1 4 4.5 23.5t8 42t8 42t3.5 24.5q1 7 2.5 28t2.5 49.5t2.5 60.5t2.5 60.5t1.5 49.5t0.5 28q1 18 3 43t8.5 47.5t20.5 38.5t40 16q3 0 12 -0.5t12 -0.5l132 -132q10 -9 34.5 -26.5t49 -37.5t43.5 -40t19 -34q0 -22 -21.5 -40.5t-53.5 -35.5t-70 -32t-71.5 -29.5 t-57.5 -29.5t-28 -31q-4 -15 -4.5 -37.5t-5 -44t-16 -36.5t-35.5 -15q-18 0 -25 8t-22 29v5zM156 480l-12 -12q-1 -1 -3 -14t-4 -30t-3.5 -35t-1.5 -29q0 -7 -0.5 -25t-1.5 -38.5t-1.5 -38.5t-0.5 -25q7 0 31 13.5t50.5 31t49.5 34.5t29 24q-9 11 -25 29.5t-34.5 39 t-37.5 41t-35 34.5z" />
<glyph unicode="q" d="M8 -24q0 33 25 55t55 40.5t55 38t25 47.5q0 26 -17.5 41.5t-38.5 29t-38.5 29.5t-17.5 43q0 3 1 9t1 9q6 4 19.5 17.5l29 29t29 29.5t18.5 20q18 19 37 52t40.5 64t46 54t53.5 23h10t12 -0.5t10.5 -3.5t6.5 -9q8 -40 21 -80.5t39 -75.5q12 -15 28.5 -28t32 -27 t26.5 -30.5t11 -39.5q0 -25 -13.5 -42.5t-33.5 -30.5t-44 -23.5t-44 -20.5t-33.5 -21t-13.5 -25l12 -12q10 -9 36.5 -26t53.5 -36.5t48 -39.5t21 -36q0 -4 -1 -15t-2 -15q-12 -12 -27.5 -12.5t-29.5 -0.5q-36 0 -59.5 18.5t-43.5 42t-41 45t-51 27.5q-48 -32 -95 -73 t-85 -83q-3 -1 -9.5 -1.5t-8.5 -0.5q-18 0 -37 11t-19 33zM190 312q0 -14 7.5 -28.5t19.5 -26t26.5 -18.5t28.5 -7q13 0 34 10t40.5 25.5t33.5 33.5t14 35q0 13 -11 32.5t-26 38t-32 31.5t-29 13q-9 0 -27 -18t-35.5 -42t-30.5 -47t-13 -32z" />
<glyph unicode="r" horiz-adv-x="452" d="M12 47q0 -25 15 -36t40 -11h5l36 36q1 9 4 29t7 43t7.5 43t5.5 29q4 19 9.5 22.5t20.5 3.5q26 0 44.5 -12.5t33.5 -31.5t27.5 -41.5t27.5 -41.5t33 -31.5t43 -12.5q29 0 45.5 12.5t16.5 44.5q0 12 -1 15.5t-5 5t-11 4.5t-20 15l-108 108q0 1 -0.5 5t-0.5 7q0 23 19 35 t42 22.5t42 23.5t19 38q0 15 -12.5 38.5t-33 50.5t-46 54t-51 49t-48.5 36t-39 14q-21 0 -36.5 -19.5t-27 -49.5t-19.5 -67t-13 -71.5t-7.5 -63t-3.5 -42.5q-4 -29 -13.5 -60.5t-20 -64t-18.5 -65t-8 -63.5zM216 468l60 -60v-36l-60 -36q-9 -5 -14.5 -7.5t-10.5 -4t-12 -2 t-17 -0.5q0 3 1 14t2 23t2 22.5t1 14.5q1 8 4.5 20.5t7.5 24t7.5 19.5t4.5 8h24z" />
<glyph unicode="s" horiz-adv-x="615" d="M15 149q0 -31 13 -44t33 -17t43.5 -3t43.5 -1q19 -2 34.5 -15.5t30.5 -29t31 -28t37 -12.5q25 0 34.5 9t12 23.5t0.5 31.5t0 33q1 7 4 27t7 43.5t7.5 44.5t5.5 29q4 23 8 50.5t10 55t16 53t26 45.5q1 0 3 0.5t3 0.5q23 0 38 -15.5t29 -34t30 -34t40 -15.5q22 0 30 8.5 t8 29.5q-1 1 -15 19t-36.5 46.5t-44.5 56t-39.5 48t-21.5 22.5q-17 8 -27.5 10.5t-27.5 2.5q-14 0 -23.5 -3.5t-17.5 -21.5q-2 -10 -7.5 -35.5t-11.5 -54t-11 -54.5t-6 -36q-2 -11 -5.5 -33t-8.5 -49t-11 -55t-13 -51t-15.5 -38t-17.5 -15q-24 0 -45 9.5t-41 21.5t-40 21.5 t-42 9.5q-29 0 -39.5 -15.5t-10.5 -40.5z" />
<glyph unicode="t" horiz-adv-x="684" d="M288 394q-15 0 -28 -5.5t-25.5 -12t-26 -12t-28.5 -5.5q-31 0 -53.5 18.5t-41 44t-35.5 52t-38 42.5q11 24 25 31t36 7q24 0 36 -17t20.5 -38t17.5 -38t27 -17q28 0 52 22.5t45 50t39.5 50t36.5 22.5q27 0 47 -21t39 -46t40 -46t50 -21q20 0 31.5 14.5t22 31.5t23.5 30 t36 9q1 0 6 -4t11 -10t11 -12t8 -10l0.5 -2.5t0.5 -3.5t-0.5 -3t-0.5 -3q-9 -16 -23 -38.5t-31.5 -43.5t-38.5 -36t-45 -15q-23 0 -41 11t-34.5 23.5t-32.5 23.5t-34 11q0 -9 0.5 -29t1.5 -44t1.5 -50t0.5 -47v-42q0 -11 -1.5 -38.5t-3 -58t-4 -58t-3.5 -37.5 q-14 -17 -25.5 -21t-28.5 -4q-5 0 -12.5 0.5t-14 3t-11 7.5t-4.5 14v370z" />
<glyph unicode="u" horiz-adv-x="490" d="M132 574q-18 25 -55 25q-6 0 -14 -1t-15.5 -3.5t-12.5 -7.5t-5 -13v-264l-23 -90q0 -4 3 -9t2 -9q3 -7 7.5 -10t17.5 -6q7 -2 16.5 -5t18.5 -6t15.5 -5.5t8.5 -3.5q8 -4 30.5 -18t52 -32.5t62 -39.5t61 -38t49.5 -28.5t27 -11.5q18 0 32.5 12.5t25 30t16 36.5t5.5 32 t1 41t1.5 63.5t1.5 76t1 78.5q0 39 -1 72.5t-4 55.5q0 10 -2 24t-7 26t-14.5 20.5t-24.5 8.5t-32 -9t-17 -28v-384q0 -4 -3 -10t-7.5 -12t-10 -10t-9.5 -4q-11 0 -30.5 10t-43 26t-48 35.5t-44.5 39t-32.5 36.5t-12.5 27l14 228v10v33z" />
<glyph unicode="v" horiz-adv-x="450" d="M77 360q-5 7 -13 29.5t-17 48.5t-17 48.5t-12 29.5q0 1 -0.5 5t-0.5 7q0 24 19 36.5t40 12.5h22q9 0 16 -13l76 -320l15 -30q1 0 8.5 19.5t19 49t25.5 64.5t27.5 67.5t25.5 57t19 32.5q12 12 19 23t14 19t17 13t29 5h5q4 -3 12.5 -11.5t11.5 -12.5v-5q0 -29 -14.5 -51 t-80.5 -149t-129 -313q-38 -15 -42 -15z" />
<glyph unicode="w" horiz-adv-x="612" d="M167 356l142 -118h6q6 0 13.5 -0.5t8.5 -0.5q21 0 33 5.5t29 15.5q35 22 54.5 50t30 60.5t13.5 69.5t5 78q11 18 20.5 27.5t27.5 9.5q14 0 24 -5.5t24 -19.5v-9q0 -5 0.5 -12t0.5 -13v-8q0 -24 -1 -69.5t-4.5 -99.5t-10 -110.5t-18 -102t-28.5 -75t-41 -29.5t-43.5 22.5 t-40.5 50t-45.5 50t-56.5 22.5q-3 0 -7 -0.5t-5 -0.5q-54 -32 -109.5 -68.5t-106.5 -75.5q-3 -1 -9.5 -1.5t-8.5 -0.5q-18 0 -36 11t-18 32q0 32 4 61t10 57t13 57t13 61q3 10 3 36q0 19 1.5 46t4.5 56.5t8 58.5t13 52t19 37t25 14q5 0 14 -4t18 -9.5t15.5 -12t6.5 -11.5z M274 204q-5 12 -21 22t-33.5 18.5t-33 15.5t-19.5 12h-24q-2 0 -3.5 -5.5t-3 -13t-3 -15.5t-2.5 -14v-68q0 -8 5.5 -15.5t5.5 -8.5l12 -12zM485 123l34 107q-11 0 -31 -4t-40 -11.5t-35 -17t-15 -20.5v-13q0 -2 8 -8q5 -4 14 -12t18.5 -15.5t17 -13t9.5 -4.5z" />
<glyph unicode="x" horiz-adv-x="480" d="M73 11q10 0 19 7.5t16 18t13 20.5t11 15q10 11 26 27.5t31 31.5t26.5 26t12.5 11h24l9 -8t20.5 -19.5t23.5 -24t19 -20.5q9 -11 19 -26.5t22 -30.5t26 -26t29 -13q32 -5 42.5 4t10.5 32q0 5 -2 14t-3 10l-156 156v36l25 12.5t28.5 17.5t23 22t9.5 27q0 4 -0.5 10t-1.5 7 l-96 96q15 18 40 35t48 35.5t40 39t17 46.5q0 14 -11.5 25t-25.5 11q-26 0 -43 -21t-33.5 -46t-36 -46t-49.5 -21q-3 0 -9 0.5t-9 1.5q-8 11 -23 32.5t-32.5 42.5t-36.5 37t-35 16q-9 0 -18.5 -1.5t-17.5 -6t-13.5 -11.5t-5.5 -17q0 -12 18.5 -31.5t42.5 -39.5t45.5 -39 t27.5 -30q-12 -14 -32.5 -28.5t-40 -31t-34 -34.5t-14.5 -38q0 -26 15.5 -36t34 -16.5t34 -14.5t15.5 -28v-21q0 -5 -6 -5q-3 0 -8 -2t-12 -9q-7 -6 -24.5 -23t-36.5 -36t-36 -36.5t-23 -24.5q0 -1 -0.5 -5t-0.5 -7q0 -28 18 -38.5t44 -10.5zM180 336q6 19 19.5 34.5 t34.5 15.5t38 -14t17 -36q0 -19 -15 -34t-34 -15q-21 0 -34.5 16t-25.5 33z" />
<glyph unicode="y" horiz-adv-x="528" d="M331 449l12 -12q9 7 23.5 30t32 47.5t34.5 43.5t30 19q52 0 52 -50q0 -22 -14.5 -45t-35.5 -45t-46.5 -43.5t-46.5 -40.5t-35.5 -35.5t-14.5 -29.5v-240q0 -9 -6 -18t-14.5 -15.5t-17.5 -11t-16 -4.5q-2 0 -4 0.5l-2 0.5q-22 17 -30 23.5t-8 23.5q0 43 7.5 82.5t7.5 86.5 v22q0 15 -2.5 27t-2.5 28v20q-9 14 -29.5 29.5t-45 32.5t-51 35t-48.5 37.5t-36 39.5t-14 41q0 12 6 21t15 15.5t19.5 9.5t19.5 3q27 0 44 -22.5t33 -50t34 -50t47 -22.5q1 0 3.5 0.5l2.5 0.5q3 1 8.5 3.5t7.5 5.5q0 7 -1 31t-1 43t1 35.5t1 24.5q0 7 5 16t11.5 16t15 12 t16.5 5q2 0 6 -0.5t6 -0.5q4 -2 10 -5.5l12 -7t10 -7t4 -4.5z" />
<glyph unicode="z" horiz-adv-x="600" d="M589 149q0 25 -10.5 40.5t-39.5 15.5q-22 0 -42 -9.5t-40.5 -21.5t-41 -21.5t-44.5 -9.5q-9 0 -17 15t-15.5 38t-14 51t-11.5 55t-8 49t-5 33q-2 10 -6.5 36t-10.5 54.5t-11.5 54t-7.5 35.5q-8 18 -17.5 21.5t-23.5 3.5q-17 0 -27.5 -2.5t-27.5 -10.5q-4 -2 -21.5 -22.5 t-39.5 -48t-44.5 -56t-36.5 -46.5t-15 -19q0 -21 8 -29.5t30 -8.5q24 0 40 15.5t30 34t29 34t38 15.5q1 0 3 -0.5t3 -0.5q16 -20 26 -45.5t16 -53t9.5 -55t8.5 -50.5q2 -9 5.5 -29.5t7 -44t6.5 -43.5t5 -27q2 -16 0.5 -33t0.5 -31.5t11.5 -23.5t34.5 -9q21 0 37 12.5t31 28 t30 29t35 15.5t43.5 1t43.5 3t33 17t13 44z" />
<glyph unicode="{" horiz-adv-x="204" d="M12 280q0 12 5 34.5t13.5 49.5t21 55t27 50.5t31 37t33.5 14.5q14 0 26 -5t12 -20q0 -3 -0.5 -7t-0.5 -5q-27 -23 -43 -45t-24.5 -46.5t-11 -53t-2.5 -63.5q0 -49 15 -88.5t32.5 -72.5t32.5 -61t15 -55q-22 0 -44 15.5t-42.5 40.5t-37.5 56t-30 62t-20.5 59.5t-7.5 47.5z " />
<glyph unicode="|" horiz-adv-x="173" d="M18 -95q0 -21 12.5 -37.5t36.5 -21.5q16 -4 27 28t17.5 83t10.5 113t5.5 117.5t2.5 97t2 51.5q1 5 2.5 28.5t3 56.5t3.5 70.5t3.5 71.5t2.5 60.5t1 36.5v40q0 7 0.5 16.5t-1 18.5t-6.5 15.5t-16 6.5q-17 0 -31.5 -9t-17.5 -28l-57 -790q0 -3 -0.5 -12t-0.5 -13z" />
<glyph unicode="}" horiz-adv-x="204" d="M194 280q0 12 -5 34.5t-13.5 49.5t-21 55t-27 50.5t-31 37t-33.5 14.5q-14 0 -26 -5t-12 -20q0 -3 0.5 -7t0.5 -5q27 -23 43 -45t24.5 -46.5t11 -53t2.5 -63.5q0 -49 -15 -88.5t-32.5 -72.5t-32.5 -61t-15 -55q22 0 44 15.5t42.5 40.5t37.5 56t30 62t20.5 59.5t7.5 47.5z " />
<glyph unicode="~" horiz-adv-x="350" d="M7 255q5 17 19 35.5t30.5 34.5t33 28t26.5 15q8 2 12 2q13 0 24.5 -6.5t21.5 -15.5t19.5 -18t19.5 -13q7 9 12.5 18t11.5 16t13.5 11.5t19.5 4.5q5 0 10.5 -1t13.5 -3l31 -8q-5 -17 -19 -34.5t-30 -32.5t-32 -26t-26 -14l-9 -3q-1 -1 -5 -1q-5 0 -11 3q-7 3 -15.5 10 t-17 15t-15 16t-9.5 13l-1 1l-4 -2l-11 -3q-13 -8 -24.5 -18t-21.5 -19t-18 -15t-14 -6z" />
<glyph horiz-adv-x="355" />
<glyph unicode="&#xa1;" horiz-adv-x="173" d="M123 366q0 21 -12.5 37.5t-36.5 21.5q-12 4 -19 -12t-11.5 -43.5t-6.5 -62t-3 -66.5t-2.5 -57.5t-5.5 -35.5l-4 -94q0 -7 -0.5 -16.5t1 -18.5t6.5 -15.5t16 -6.5q17 0 31.5 9t17.5 28l28 307q0 3 0.5 12t0.5 13zM145 576q0 -28 -15.5 -38.5t-39.5 -10.5q-25 0 -33.5 14 t-8.5 35q0 8 3.5 19t10 20.5t15.5 16t20 4.5q21 -5 34.5 -22t13.5 -38z" />
<glyph unicode="&#xa2;" horiz-adv-x="464" d="M216 -39q0 -21 12.5 -37.5t36.5 -21.5q10 -2 18 5.5t14.5 22t12 34.5t9.5 44q23 -8 51 -8t38 15t10 32q0 14 -25 27.5t-60 33.5q4 46 5.5 83t3.5 48q1 5 2 24t2.5 47t3 61t3.5 65l16 10l16 10q29 18 48 38t19 42v5q-4 4 -16 13t-17 11h-5q-22 0 -34.5 -2t-21.5 -7v7v40 q0 7 0.5 16.5t-1 18.5t-6.5 15.5t-16 6.5q-17 0 -31.5 -9t-17.5 -28l-15 -138q-17 -14 -35.5 -28.5t-34.5 -26.5l-26 -19.5t-11 -7.5l-52 -33l-83 -58l66 -96q68 -99 130 -152l-8 -78q0 -3 -0.5 -12t-0.5 -13zM167 294q27 24 50 43.5t42 34.5l-22 -197q-24 23 -42.5 52 t-27.5 67z" />
<glyph unicode="&#xa3;" horiz-adv-x="668" d="M24 413l-3 -113q5 0 18.5 0.5t33 1t43 1t49.5 1.5q7 -56 18.5 -115.5t27 -110.5t36 -86t46.5 -40q9 -1 21 10t25.5 28t28.5 37.5t30 38.5t30 31t29 15q27 -11 45.5 -30.5t36 -39t37.5 -33.5t50 -14q16 0 23 11.5t12 25.5q-7 9 -27 30t-43 44t-44 43t-30 27q-8 7 -16.5 17 t-15.5 19.5t-12 16t-6 6.5h-12l-54 -55q-7 -6 -20 -20t-27.5 -28t-29 -25t-25.5 -11h-6q-3 3 -7.5 6t-4.5 6q-6 45 -10.5 76.5t-8 54.5t-6.5 39t-6 28q48 1 81 0.5t35 -3.5q3 0 9 -0.5t9 -0.5q10 0 23.5 7.5t24.5 18.5t17.5 22t1.5 19q-3 4 -22.5 8t-49 7.5t-66.5 6t-76 5.5 q-1 16 -2 36t-2 48q0 9 -2.5 22t-8 24t-15 19t-22.5 8q-26 0 -37.5 -14t-11.5 -39q0 -2 -0.5 -8.5t0 -14t3.5 -14t10 -7.5q1 -11 1.5 -25t2.5 -30q-50 3 -87 5.5t-42 6.5z" />
<glyph unicode="&#xa4;" horiz-adv-x="564" d="M192 281q0 -9 3 -23t9 -30l-60 -60q-7 -7 -30 -24t-47 -37t-41.5 -39.5t-13.5 -31.5q10 -28 27 -33t39 -5q14 0 34 13.5t42.5 34.5t46.5 46t45 48q14 -23 29 -38t28 -15q10 0 23 11.5t27 31.5q7 -17 13.5 -33.5t16 -30.5t23.5 -22.5t36 -8.5q28 0 33.5 9t5.5 36 q0 19 -9 35t-22 31t-27.5 30t-24.5 32q15 30 24.5 58.5t9.5 45.5q0 6 -3 15q19 15 41 33t40.5 36.5t30.5 36.5t12 33q0 18 -4 34.5t-26 16.5q-24 0 -41.5 -13t-32 -32.5t-28 -41.5t-29.5 -39q-19 23 -40 41t-35 18q-8 0 -20.5 -10.5t-26.5 -27.5q-10 19 -20 39.5t-22.5 38 t-28.5 29t-37 11.5q-7 0 -16.5 -0.5t-18 -3.5t-14.5 -9.5t-6 -18.5q0 -17 12.5 -35t30.5 -36t38.5 -37t36.5 -39q-14 -23 -23.5 -42t-9.5 -28zM253 281q0 6 7.5 20t18 28t20.5 25t16 11q7 0 16.5 -8t18.5 -19t15 -22.5t6 -18.5q0 -11 -7 -29.5t-16.5 -36.5t-20.5 -31.5 t-19 -13.5t-18 11.5t-18 27.5t-13.5 31.5t-5.5 24.5z" />
<glyph unicode="&#xa5;" horiz-adv-x="528" d="M109 233q9 0 47 1t83 1v-19q0 -12 -0.5 -22.5t-1.5 -21.5q-25 0 -47.5 -0.5t-40.5 -0.5q-17 0 -28 1t-14 3l-3 -82q4 0 15.5 0.5t28 1t37 1t42.5 1.5q-3 -24 -3 -50q0 -17 8 -23.5t30 -23.5l2 -0.5t4 -0.5q7 0 16 4.5t17.5 11t14.5 15.5t6 18v52q28 0 46.5 -1t20.5 -3 q2 0 7.5 -0.5t7.5 -0.5q8 0 19 7.5t20.5 18t14.5 22t1 18.5q-5 8 -44.5 10.5t-92.5 1.5v62q29 0 47.5 -1.5t20.5 -3.5q2 0 7 -0.5t8 -0.5q8 0 19 7.5t20.5 18t14.5 21.5t1 19q-5 8 -42 11t-88 4q14 20 45 45.5t62 54t54.5 58.5t23.5 59q0 50 -52 50q-14 0 -31 -19 t-33.5 -43.5t-31.5 -47.5t-24 -30l-12 12q-15 -15 -29 -20.5t-25.5 -5t-20 5t-12.5 8.5q-8 -4 -10 -4l-2.5 -0.5t-3.5 -0.5q-19 0 -33.5 10.5t-26 27t-21.5 35t-21.5 35t-24.5 27t-31 10.5q-9 0 -19.5 -3t-19.5 -9.5t-15 -15.5t-6 -21q0 -21 14 -41t36 -39.5t48.5 -37.5 t51.5 -35t45 -32.5t29 -29.5v-3q-48 1 -84 1.5t-41 4.5v-83zM244 437q2 2 3.5 2.5t2.5 2.5q-9 5 -10 2.5t4 -7.5z" />
<glyph unicode="&#xa6;" horiz-adv-x="173" d="M18 -95q0 -21 12.5 -37.5t36.5 -21.5q16 -4 27 28t17.5 83t10.5 113t5.5 117.5t2.5 97t2 51.5q1 5 2.5 28.5t3 56.5t3.5 70.5t3.5 71.5t2.5 60.5t1 36.5v40q0 7 0.5 16.5t-1 18.5t-6.5 15.5t-16 6.5q-17 0 -31.5 -9t-17.5 -28l-57 -790q0 -3 -0.5 -12t-0.5 -13z" />
<glyph unicode="&#xa7;" horiz-adv-x="591" d="M130 -96q23 -20 41.5 -19t35 13t31 30t29.5 32q13 13 33 16t41.5 4.5t42 5.5t34.5 19q16 18 15 31t-10.5 24.5t-23 21.5t-23.5 22q-2 2 -4.5 5.5t-6.5 8.5q11 11 21.5 25t22.5 24q14 13 29.5 18t31.5 9t31 10t29 21q16 18 20.5 29t0.5 20t-13 17t-20 20q-4 5 -17 21 t-28 34t-28.5 34.5t-18.5 23.5q-15 18 -33 39t-34.5 44t-29.5 47.5t-17 49.5q3 0 3 4q15 18 36.5 19.5t45 0t45.5 0t38 19.5q14 16 13.5 27.5t-17.5 25.5q-2 0 -24.5 1t-59 3t-71.5 3.5t-62 2t-31 -0.5q-17 -8 -26 -14.5t-20 -19.5q-10 -11 -13 -20t5 -27q6 -7 15 -21.5 t19.5 -32t22 -35.5t22.5 -31q-27 2 -55 1.5t-52 -1.5t-40.5 -3t-20.5 -3q-17 -8 -25.5 -14t-21.5 -19q-9 -11 -12 -20.5t5 -27.5q6 -8 21.5 -28.5t33.5 -44t34 -44t23 -28.5q7 -9 21 -26t31 -38t34 -44t30 -43.5t19 -36.5t0 -23q-16 -18 -37.5 -28t-43 -17.5t-42 -16.5 t-34.5 -25q-20 -23 -15 -40t24 -34zM283 218q-15 18 -33 38.5t-34.5 43t-29.5 47t-17 50.5q0 1 1 3t2 2q29 32 71.5 33t85.5 -17q18 -22 36.5 -45t33 -43.5t21 -36.5t0.5 -23q-14 -17 -28 -31.5t-29 -24.5t-33 -13t-39 4q-2 4 -4.5 7.5t-3.5 5.5z" />
<glyph unicode="&#xa8;" horiz-adv-x="379" d="M38 729q0 -21 13.5 -38t34.5 -22q11 -2 20 4t15.5 16t10 21t3.5 19q0 21 -8.5 35t-33.5 14q-24 0 -39.5 -10.5t-15.5 -38.5zM251 729q0 -21 13.5 -38t34.5 -22q11 -2 20 4t15.5 16t10 21t3.5 19q0 21 -8.5 35t-33.5 14q-24 0 -39.5 -10.5t-15.5 -38.5z" />
<glyph unicode="&#xa9;" horiz-adv-x="1581" d="M1544 376q0 -2 -2 -4l-19 -38h-90l61 -73q1 -1 1 -10v-8q0 -31 -32 -39l-100 18l-10 -109q-12 -21 -39 -21q-38 0 -103 38l-99 -101l-51 -11l-60 57l-190 -93l-32 10v56l-249 -37l-31 18l10 46l-262 19v36l31 28l-160 27q-30 0 -30 37l61 47l-111 48l-10 46l109 17 l-59 65l10 56l119 -10q0 131 45 131h6l112 -37q71 92 120 110l90 -55l180 84l41 -29l-11 -27l11 -10l200 37l70 -8l-10 -55h240l22 -19q0 -47 -42 -56l202 -47q1 0 1 -6v-6q0 -44 -71 -53q131 -44 131 -69zM1513 363l-10 17l-161 75l101 28h11l-11 18l-232 47l80 55h-270 l20 65l-262 -36l-9 55l-20 8l-181 -82l-79 55l-110 -111q-8 -2 -13.5 -3t-9.5 -1q-35 0 -99 41l-20 -129l-130 9l10 -39l70 -82l-130 -9l170 -83l-110 -46l242 -49l-82 -53l281 -11l-29 -64l249 46l32 -36l-10 -37l200 91l91 -54l100 110l131 -38l9 131l131 -19q3 4 3 9 q0 27 -83 112zM1317 427l-22 -120l-29 4l7 125zM1300 256l-29 -26l-21 20l23 17zM1225 266q-43 0 -108 80v-79l-27 -3l-4 163l102 -104l6 113l31 -9v-161zM1057 267l-22 6q-18 38 -41 38t-45 -38h-36q7 82 72 162q7 4 12.5 4.5t10.5 0.5q34 0 46 -51zM892 436l-9 -161 l-42 -11l18 166zM808 260q-46 0 -110 80v-79l-27 -5l-4 165l103 -104l5 113l33 -9v-161zM647 374q-17 -114 -68 -114q-8 -1 -15 -2t-14 -1q-49 0 -60 29q0 103 66 141l7.5 1.5t1.5 0.5h10q57 0 72 -55zM476 433l-3 -39q-5 2 -10 2h-10q-25 0 -47 -22q-27 -30 -27 -66 q0 -32 38 -32q6 0 14.5 1t19.5 3l2 -28q-11 -3 -19.5 -5t-16.5 -2q-52 0 -68 73q-1 7 -1.5 11t-0.5 10q0 76 129 94zM329 430l-9 -161l-42 -13l18 168zM1024 346l-21 55l-36 -55h57zM615 350q0 14 -6 20q-12 21 -33 21q-30 0 -52 -51q-1 -1 -1 -12q0 -40 29 -40q18 0 47 15 q16 23 16 47z" />
<glyph unicode="&#xaa;" horiz-adv-x="316" d="M86 380v6q0 5 0.5 9t0.5 9v6q0 9 -1 17.5t-1 18.5l26 14q3 1 16.5 8t31.5 16t36.5 19t30.5 17v-120q0 -11 10.5 -16t19.5 -5q19 0 24.5 16t5.5 28q0 2 0.5 16.5t0.5 35.5t0.5 45.5t0.5 47.5t-1 40.5t-1 25.5q0 7 -3.5 17.5t-10 20t-15.5 16.5t-20 7q-13 0 -42 -16 t-61 -36.5t-60 -38.5t-38 -22q-6 -1 -9 -9t-4 -18t-0.5 -19t0.5 -12v-144q0 -10 10.5 -12t18.5 -2q23 0 34 14zM80 491q-1 11 -1.5 21.5t-0.5 21.5q0 8 16.5 24t38.5 31.5t43.5 27.5t31.5 12q5 0 11.5 -7t6.5 -12v-44q-16 -10 -35 -21.5t-38.5 -22t-38 -19t-34.5 -12.5z" />
<glyph unicode="&#xab;" horiz-adv-x="313" d="M268 151q-18 7 -36.5 24.5t-34 38.5t-27 42t-14.5 34l-3 12q-3 13 7.5 35t28.5 44t39.5 40.5t39.5 25.5l8 -41q1 -8 -5.5 -21.5t-18 -28.5t-24.5 -30t-25 -27q12 -11 25 -26t24.5 -30t18 -28.5t5.5 -22.5zM144 148q-18 7 -36.5 24.5t-34 38.5t-27 42t-14.5 34l-3 12 q-3 13 7.5 35t28.5 44t39.5 40.5t39.5 25.5l8 -41q1 -8 -5.5 -21.5t-18 -28.5t-24.5 -30t-25 -27q12 -11 25 -26t24.5 -30t18 -28.5t5.5 -22.5z" />
<glyph unicode="&#xac;" horiz-adv-x="461" d="M440 129v45q0 35 -2 92q4 4 5.5 12.5t2 17t-0.5 16t-3 10.5q-4 6 -36 11t-78 9t-98.5 7t-98.5 6t-78.5 5.5t-37.5 5.5l-3 -113q7 0 30.5 0.5t55.5 1.5t69.5 2t72.5 1.5t63 0.5t42 -1q-2 -17 -5.5 -47t-18.5 -80z" />
<glyph unicode="&#xad;" horiz-adv-x="310" d="M15 366l-3 -113q8 0 25 1.5t38 3t44 3t42 2.5t32 1t14 -3q3 0 9 -0.5t9 -0.5q10 0 23.5 7.5t24.5 18.5t17.5 22t1.5 19q-4 6 -25 10.5t-50 8t-62.5 6t-62.5 4.5t-50.5 4.5t-26.5 5.5z" />
<glyph unicode="&#xae;" horiz-adv-x="1438" d="M1405 381q0 -4 -2 -4l-16 -37h-83l56 -72q0 -5 0.5 -8.5t0.5 -6.5q0 -31 -29 -39l-92 18l-9 -106q-10 -19 -35 -19q-36 0 -93 36l-90 -99l-46 -9l-56 54l-172 -89l-28 9v54l-228 -35l-27 16l8 45l-237 19v35l28 27l-146 26q-26 0 -26 36l55 45l-101 46l-9 45l98 16 l-53 63l10 53l109 -9q0 127 40 127h6l101 -36q64 90 108 106l82 -52l164 80l37 -28l-11 -26l11 -9l181 35l65 -8l-9 -52h218l19 -19q0 -45 -37 -54l182 -45q2 -10 2 -12q0 -42 -65 -51q119 -42 119 -66zM1199 429l-39 10l-6 -122l25 -4zM1184 265l-24 10l-22 -15l20 -19z M1115 274v155l-27 10l-6 -109l-93 99l4 -157l24 3v77q58 -78 98 -78zM962 275l-2 119q-9 49 -42 49q-7 0 -20 -5q-60 -78 -66 -156h33q20 35 40 35q21 0 39 -35zM813 439l-30 -6l-16 -161l38 11zM737 268v156l-31 9l-4 -110l-94 100l4 -158l25 3v78q57 -78 100 -78zM591 378 q-14 54 -66 54h-9q-2 0 -9 -3q-60 -35 -60 -136q11 -28 55 -28q6 0 12 1t15 2q47 0 62 110zM435 436q-118 -18 -118 -91q0 -6 0.5 -10l1.5 -12q15 -69 63 -69q8 0 15.5 1t16.5 6l-1 27q-11 -4 -31 -4q-35 0 -35 31q0 35 25 63q19 23 42 23q10 0 17 -4zM300 433l-29 -6 l-16 -162l38 12zM934 352h-53l32 52zM562 356q0 -11 -3 -22.5t-11 -22.5q-28 -16 -44 -16q-26 0 -26 40v11q21 48 49 48q18 0 30 -19q5 -8 5 -19z" />
<glyph unicode="&#xaf;" horiz-adv-x="368" d="M-11 746l5 -89q8 0 36 1t66 2t80 2t78 1.5t60 -0.5t25 -3q3 0 9 -0.5t9 -0.5q10 0 23.5 7.5t24.5 18.5t17.5 22t1.5 19q-3 4 -22.5 7t-50 4.5t-68 2.5t-76.5 1h-100q-48 0 -80.5 1t-37.5 4z" />
<glyph unicode="&#xb0;" horiz-adv-x="261" d="M77 429l56 -67l104 157q6 9 3 19.5t-10.5 20t-16.5 19t-15 17.5q-13 19 -19 40.5t-11 43.5q-2 5 -5.5 6t-8.5 1h-5q-14 0 -26 -12.5t-22.5 -29t-20 -34.5t-18.5 -28q-3 -3 -9.5 -10.5t-14 -15.5t-14.5 -15.5t-10 -9.5q0 -2 -0.5 -5t-0.5 -4q4 -12 13 -22.5t19 -21t19 -22 t13 -27.5zM80 528q0 5 6.5 17.5t15 25t17 22.5t13.5 10q6 0 14 -7t15.5 -17t13 -20.5t5.5 -17.5q0 -9 -6 -26t-14.5 -33t-17.5 -28t-16 -12t-15 10.5t-15 24.5t-11.5 28.5t-4.5 22.5z" />
<glyph unicode="&#xb1;" horiz-adv-x="473" d="M286 151q0 6 -1 22t-2 38.5t-2.5 50t-2.5 56.5q33 1 54.5 0.5t23.5 -2.5q1 0 8 -0.5t15.5 -1.5t15.5 -1.5t9 -0.5q10 0 18.5 8t14.5 19.5t7.5 23t-3.5 19.5q-3 4 -17 7.5t-36.5 6.5t-51.5 5.5t-61 4.5q-2 38 -1.5 62.5t3.5 26.5q0 3 0.5 9t0.5 9q0 10 -8 23.5t-18.5 24.5 t-22 17.5t-18.5 1.5q-4 -3 -7.5 -17.5t-7 -37.5t-6 -52t-4.5 -61q-32 2 -62 3.5t-53.5 3.5t-38.5 3.5t-18 3.5l6 -107q6 0 21 -1t36 -2.5t47.5 -2t55.5 0.5q-2 -31 -3.5 -59t-3 -49.5t-3 -35.5t-3.5 -17zM26 8q8 0 36 1t66 2t80 2t78 1.5t60 -0.5t25 -3q3 0 9 -0.5t9 -0.5 q10 0 23.5 7.5t24.5 18.5t17.5 22t1.5 19q-4 6 -35.5 9.5t-77 5t-98 2t-98 1.5t-77.5 2t-37 4z" />
<glyph unicode="&#xb2;" horiz-adv-x="321" d="M39 510q11 21 29.5 23.5t40.5 -2.5q22 -7 45.5 -7.5t41.5 11.5q-30 23 -55 39.5t-35 21.5q-22 9 -42 22q-20 11 -32.5 23t-12.5 25v3q2 2 10 8t12 7h4q17 0 26.5 -2t16 -6t12.5 -10t17 -13q10 -7 26 -18.5t31 -22.5t26.5 -19t12.5 -8l35 -20l56 -35q-22 -22 -33 -31.5 t-16 -12.5t-7 -2t-5 0q-8 -4 -25.5 -7.5t-42.5 -0.5q-6 1 -14.5 0.5t-16.5 -0.5q-19 0 -25 7q-16 3 -24.5 -3.5t-16.5 -14.5q6 -11 11.5 -27t10 -32t7.5 -27l3 -11q16 0 34.5 2t37.5 4t37.5 4t34.5 2q7 0 11.5 -5t6.5 -12.5t2.5 -16t0.5 -14.5l-21.5 -1.5t-48 -3.5t-50 -4.5 t-26.5 -4.5q-11 -5 -18 -6t-19 -1q-9 0 -15.5 2t-11.5 13q-11 47 -17.5 74t-10 41.5t-4.5 19.5t-1 9q0 6 1 12.5t1 11.5q0 3 1 7t3 9h1z" />
<glyph unicode="&#xb3;" horiz-adv-x="351" d="M49 498h-1q-6 15 -2 25.5t25 15.5q14 4 29 2t30.5 -5t31.5 -5.5t32 0.5l19 -2q-19 26 -46.5 43.5t-53 29.5t-43.5 20.5t-18 17.5q0 10 7 19t27 9q44 0 92 -31t105 -100l47 -58l-60 -35l-37 -20q-1 0 -13 -8t-28.5 -18.5t-33.5 -22t-27 -18.5q-11 -8 -17.5 -13.5 t-13.5 -9.5t-17 -6t-28 -2h-3q-4 1 -12.5 6.5t-11.5 7.5v4q0 13 13.5 25t34.5 23l21 10.5l23 11.5q11 5 31.5 18.5t52.5 36.5q-20 13 -38.5 14.5t-41.5 -5.5q-23 -5 -43.5 -2.5t-31.5 22.5z" />
<glyph unicode="&#xb4;" horiz-adv-x="187" d="M17 702q7 18 22.5 36.5t34 34t37.5 25t33 9.5h25t16.5 -1.5t5 -6t-8.5 -14.5q-8 -9 -24.5 -25t-35 -31.5t-36.5 -26t-28 -8.5z" />
<glyph unicode="&#xb5;" horiz-adv-x="522" d="M13 9q0 -21 12.5 -37.5t36.5 -21.5q15 -4 26 15t18.5 51t12.5 72t8 78h1q8 -4 30.5 -18t51.5 -32.5t62 -39.5t61.5 -38t49.5 -28.5t27 -11.5q18 0 32.5 12.5t25 30t16 36.5t5.5 32t1 41t1.5 63.5t1.5 76t1 78.5q0 39 -1 72.5t-4 55.5q0 10 -2 24t-7 26t-14.5 20.5 t-24.5 8.5t-32 -9t-17 -28v-384q0 -4 -3 -10t-7.5 -12t-10 -10t-9.5 -4q-11 0 -30.5 10t-43 26t-48 35.5t-44.5 39t-32.5 36.5t-12.5 27l14 228v43l-1 11q-18 25 -55 25q-6 0 -14 -1t-15.5 -3.5t-12.5 -7.5t-5 -13v-127l-48 -413q0 -3 -0.5 -12t-0.5 -13z" />
<glyph unicode="&#xb6;" horiz-adv-x="444" d="M228 468h24q1 0 4.5 -8t7.5 -19.5t7.5 -24t4.5 -20.5q3 -15 8 -45.5t10 -64.5t10 -63.5t8 -42.5q2 -9 5.5 -29t7 -43t7 -43t4.5 -29l36 -36h5q25 0 40 11t15 36q0 31 -8 63.5t-18.5 65t-20 64t-13.5 60.5q-1 14 -3.5 42.5t-7.5 63t-13 71.5t-19.5 67t-27.5 49.5t-36 19.5 q-16 0 -39 -14t-48.5 -36t-51 -49t-46 -54t-33 -50.5t-12.5 -38.5q0 -25 19 -38t42 -23.5t42 -22.5t19 -35q0 -3 -0.5 -7t-0.5 -5l-108 -108q-13 -12 -20.5 -15t-11 -4.5t-4.5 -5t-1 -15.5q0 -32 16.5 -44.5t45.5 -12.5q35 0 53 23t31.5 52t30 55t48.5 33q-5 18 -4.5 40.5 t1.5 43t1 35.5q0 16 -6 19l-60 36v36z" />
<glyph unicode="&#xb7;" horiz-adv-x="137" d="M18 310q0 28 15.5 38.5t39.5 10.5q25 0 33.5 -14t8.5 -35q0 -8 -3.5 -19t-10 -21t-15.5 -16t-20 -4q-21 5 -34.5 22t-13.5 38z" />
<glyph unicode="&#xb8;" horiz-adv-x="117" d="M73 -41q1 -28 -14.5 -38.5t-39.5 -10.5q-12 0 -34 -1t-42.5 0t-33.5 5t-7 13l32 52q35 -15 58 -14.5t38 10.5t23.5 25.5t14 30.5t10 26.5t11.5 13.5q10 -3 9 -16.5t-6.5 -31t-12 -35.5t-6.5 -29z" />
<glyph unicode="&#xb9;" horiz-adv-x="159" d="M11 374q0 -11 10 -19.5t30 -10.5q13 -2 22 8.5t15 27.5t9.5 38.5t5.5 41.5t3 35.5t2 20.5q1 4 3 18t3.5 30.5t2.5 32t1 23.5v21q0 3 0.5 8t-1 9.5t-5.5 8t-13 3.5q-14 0 -25 -4.5t-13 -14.5l-49 -265q0 -1 -0.5 -5.5t-0.5 -6.5z" />
<glyph unicode="&#xba;" horiz-adv-x="261" d="M77 429l56 -67l104 157q6 9 3 19.5t-10.5 20t-16.5 19t-15 17.5q-13 19 -19 40.5t-11 43.5q-2 5 -5.5 6t-8.5 1h-5q-14 0 -26 -12.5t-22.5 -29t-20 -34.5t-18.5 -28q-3 -3 -9.5 -10.5t-14 -15.5t-14.5 -15.5t-10 -9.5q0 -2 -0.5 -5t-0.5 -4q4 -12 13 -22.5t19 -21t19 -22 t13 -27.5zM80 528q0 5 6.5 17.5t15 25t17 22.5t13.5 10q6 0 14 -7t15.5 -17t13 -20.5t5.5 -17.5q0 -9 -6 -26t-14.5 -33t-17.5 -28t-16 -12t-15 10.5t-15 24.5t-11.5 28.5t-4.5 22.5z" />
<glyph unicode="&#xbb;" horiz-adv-x="313" d="M38 151q18 7 36.5 24.5t34 38.5t27 42t14.5 34l3 12q3 13 -7.5 35t-28.5 44t-39.5 40.5t-39.5 25.5l-8 -41q-2 -8 5 -21.5t18.5 -28.5t24.5 -30t25 -27q-12 -11 -25 -26t-24.5 -30t-18.5 -28.5t-5 -22.5zM162 148q18 7 36.5 24.5t34 38.5t27 42t14.5 34l3 12 q3 13 -7.5 35t-28.5 44t-39.5 40.5t-39.5 25.5l-8 -41q-2 -8 5 -21.5t18.5 -28.5t24.5 -30t25 -27q-12 -11 -25 -26t-24.5 -30t-18.5 -28.5t-5 -22.5z" />
<glyph unicode="&#xbc;" horiz-adv-x="657" d="M41 324q0 2 0.5 6.5t0.5 5.5l49 265q2 10 13 14.5t25 4.5q9 0 13 -3.5t5.5 -8t1 -9.5t-0.5 -8v-21q0 -8 -1 -23.5t-2.5 -32t-3.5 -30.5t-3 -18q-1 -5 -2 -20.5t-3 -35.5t-5.5 -41.5t-9.5 -38.5t-15 -27.5t-22 -8.5q-20 2 -30 10.5t-10 19.5zM47 59q1 4 5 13t6 12l271 516 q11 19 28.5 28t34.5 9q11 0 13.5 -6.5t0.5 -15.5t-6.5 -18.5t-7.5 -16.5l-16 -40q-4 -10 -12 -27.5t-17.5 -38t-20 -43t-19.5 -42t-16.5 -34t-10.5 -19.5q-5 -10 -18.5 -40t-32 -68.5t-40 -80.5t-43 -76t-41.5 -54.5t-34 -16.5q-22 5 -27.5 21.5t3.5 37.5zM355 116l-27 144 q-2 6 -5 19t-3 16q0 10 6 19t17 9q10 0 17.5 -12t12.5 -31.5t8.5 -45t6.5 -51.5q21 16 42 21.5t40.5 9.5t37.5 9.5t33 20.5q-2 15 -3 30t-1 30v7q0 4 0.5 9t0.5 10v6q0 2 3 4.5t5 2.5q17 0 29.5 -28t20.5 -69q8 -6 14 -12.5t6 -11.5q0 -7 -13 -14q4 -23 6.5 -46.5t4 -43.5 t2.5 -35.5t1 -23.5v-7q0 -5 -0.5 -11t-0.5 -11v-6q-2 -2 -7.5 -4.5t-8.5 -2.5q-23 0 -30.5 16.5t-7.5 33.5v10v10q-2 22 -5.5 44t-6.5 44q-25 -5 -55.5 -13.5t-58.5 -17t-50 -16.5t-31 -12z" />
<glyph unicode="&#xbd;" horiz-adv-x="668" d="M47 59q-9 -21 -3.5 -37.5t27.5 -21.5q14 -4 34 16.5t41.5 54.5t43 76t40 80.5t32 68.5t18.5 40q3 5 10.5 19.5t16.5 34t19.5 42t20 43t17.5 38t12 27.5l16 40q3 7 7.5 16.5t6.5 18.5t-0.5 15.5t-13.5 6.5q-17 0 -34.5 -9t-28.5 -28l-271 -516q-2 -3 -6 -12t-5 -13z M368 200h-1q-4 -9 -4 -16q0 -5 -1 -11.5t-1 -12.5q0 -4 1 -9.5t4.5 -19.5t10 -41t17.5 -74q5 -11 11.5 -13t15.5 -2q12 0 19 1t18 6q3 2 26.5 4.5t50 4.5t48 3.5l21.5 1.5q0 6 -0.5 14.5t-2.5 16t-6.5 12.5t-11.5 5q-32 0 -72 -6t-72 -6l-3 11t-7.5 27t-10 32t-11.5 27 q8 8 16.5 14.5t24.5 3.5q6 -7 25 -7q8 0 16.5 0.5t14.5 -0.5q25 -3 42.5 0.5t25.5 7.5q3 1 5 0t7 2t16 12.5t33 31.5l-56 35l-35 20q-1 0 -12.5 8t-26.5 19t-31 22.5t-26 18.5q-11 7 -17 13t-12.5 10t-15.5 6t-27 2h-4q-4 -1 -12 -7t-10 -8v-3q0 -13 12.5 -25t32.5 -23 q18 -12 42 -22q10 -5 35 -21.5t55 -39.5q-18 -12 -41.5 -11.5t-45.5 7.5q-22 5 -40.5 2.5t-29.5 -23.5zM41 324q0 -11 10 -19.5t30 -10.5q13 -2 22 8.5t15 27.5t9.5 38.5t5.5 41.5t3 35.5t2 20.5q1 4 3 18t3.5 30.5t2.5 32t1 23.5v21q0 3 0.5 8t-1 9.5t-5.5 8t-13 3.5 q-14 0 -25 -4.5t-13 -14.5l-49 -265q0 -1 -0.5 -5.5t-0.5 -6.5z" />
<glyph unicode="&#xbe;" horiz-adv-x="790" d="M180 59q1 4 5 13t6 12l271 516q11 19 28.5 28t34.5 9q11 0 13.5 -6.5t0.5 -15.5t-6.5 -18.5t-7.5 -16.5l-16 -40q-4 -10 -12 -27.5t-17.5 -38t-20 -43t-19.5 -42t-16.5 -34t-10.5 -19.5q-5 -10 -18.5 -40t-32 -68.5t-40 -80.5t-43 -76t-41.5 -54.5t-34 -16.5 q-22 5 -27.5 21.5t3.5 37.5zM488 116l-27 144q-2 6 -5 19t-3 16q0 10 6 19t17 9q10 0 17.5 -12t12.5 -31.5t8.5 -45t6.5 -51.5q21 16 42 21.5t40.5 9.5t37.5 9.5t33 20.5q-2 15 -3 30t-1 30v7q0 4 0.5 9t0.5 10v6q0 2 3 4.5t5 2.5q17 0 29.5 -28t20.5 -69q8 -6 14 -12.5 t6 -11.5q0 -7 -13 -14q4 -23 6.5 -46.5t4 -43.5t2.5 -35.5t1 -23.5v-7q0 -5 -0.5 -11t-0.5 -11v-6q-2 -2 -7.5 -4.5t-8.5 -2.5q-23 0 -30.5 16.5t-7.5 33.5v10v10q-2 22 -5.5 44t-6.5 44q-25 -5 -55.5 -13.5t-58.5 -17t-50 -16.5t-31 -12zM47 458h-1q-6 15 -2 25.5t25 15.5 q14 4 29 2t30.5 -5t31.5 -5.5t32 0.5l19 -2q-19 26 -46.5 43.5t-53 29.5t-43.5 20.5t-18 17.5q0 10 7 19t27 9q44 0 92 -31t105 -100l47 -58l-60 -35l-37 -20q-1 0 -13 -8t-28.5 -18.5t-33.5 -22t-27 -18.5q-11 -8 -17.5 -13.5t-13.5 -9.5t-17 -6t-28 -2h-3q-4 1 -12.5 6.5 t-11.5 7.5v4q0 13 13.5 25t34.5 23l21 10.5l23 11.5q11 5 31.5 18.5t52.5 36.5q-20 13 -38.5 14.5t-41.5 -5.5q-23 -5 -43.5 -2.5t-31.5 22.5z" />
<glyph unicode="&#xbf;" horiz-adv-x="464" d="M420 272q-8 -17 -19 -26t-24.5 -12t-29 -1.5t-31.5 5.5q-32 11 -67 12t-62 -19q45 -38 82.5 -64.5t51.5 -34.5q17 -9 32.5 -18t29.5 -18q29 -18 48 -38t19 -42v-5q-2 -2 -6.5 -5.5t-9.5 -7.5t-9.5 -7t-7.5 -4h-5q-26 0 -40 3.5t-23.5 10t-18.5 16t-25 21.5 q-15 12 -38.5 30.5t-46.5 36.5t-40 31t-18 13l-52 33l-83 58q32 36 48.5 51.5t24 20t10 3.5t7.5 1q11 5 37.5 11t63.5 1q9 -1 21.5 -0.5t24.5 0.5t22 -2t16 -9q22 -5 34.5 5t23 22.5t22 22t31.5 3.5q10 -3 13.5 -12t3.5 -20q0 -10 -1.5 -21t-1.5 -18q0 -10 -5 -27h-2z M433 501q0 -28 -15.5 -38.5t-39.5 -10.5q-25 0 -33.5 14t-8.5 35q0 8 3.5 19t10 20.5t15.5 16t20 4.5q21 -5 34.5 -22t13.5 -38z" />
<glyph unicode="&#xc0;" horiz-adv-x="450" d="M377 223l-95 353q-3 0 -42 -14q-32 -94 -64.5 -172t-65.5 -142t-53 -101t-27 -48q-14 -23 -14 -51v-5q2 -4 11 -12.5t13 -11.5h4q19 0 29.5 5t17.5 13t14 19t19 23q7 8 19 33t25.5 57t27.5 67.5t25.5 65t18.5 49t8 19.5l16 -30l76 -321q4 -13 15 -13h23q21 0 40 12.5 t19 36.5q0 3 -0.5 7t-0.5 5q-5 7 -13 29.5t-16.5 48.5t-16.5 48.5t-13 29.5zM362 680q-7 18 -22.5 36.5t-34.5 34t-38 25t-32 9.5q-29 0 -41.5 -1.5t3.5 -20.5q8 -9 24.5 -25t35 -31.5t36 -26t28.5 -8.5z" />
<glyph unicode="&#xc1;" horiz-adv-x="450" d="M377 223q5 -7 13 -29.5t16.5 -48.5t16.5 -48.5t13 -29.5q0 -1 0.5 -5t0.5 -7q0 -24 -19 -36.5t-40 -12.5h-23q-11 0 -15 13l-76 321l-16 30q-1 0 -8 -19.5t-18.5 -49t-25.5 -65t-27.5 -67.5t-25.5 -57t-19 -33q-12 -12 -19 -23t-14 -19t-17.5 -13t-29.5 -5h-4 q-4 3 -13 11.5t-11 12.5v5q0 28 14 51q7 11 27 48t53 101t65.5 142t64.5 172q39 14 42 14zM157 661q7 18 22.5 36.5t34 34t37.5 25t33 9.5h25t16.5 -1.5t5 -6t-8.5 -14.5q-8 -9 -24.5 -25t-35 -31.5t-36.5 -26t-28 -8.5z" />
<glyph unicode="&#xc2;" horiz-adv-x="450" d="M377 223l-95 353q-3 0 -42 -14q-32 -94 -64.5 -172t-65.5 -142t-53 -101t-27 -48q-14 -23 -14 -51v-5q2 -4 11 -12.5t13 -11.5h4q19 0 29.5 5t17.5 13t14 19t19 23q7 8 19 33t25.5 57t27.5 67.5t25.5 65t18.5 49t8 19.5l16 -30l76 -321q4 -13 15 -13h23q21 0 40 12.5 t19 36.5q0 3 -0.5 7t-0.5 5q-5 7 -13 29.5t-16.5 48.5t-16.5 48.5t-13 29.5zM407 677q-7 18 -23.5 40t-36 41.5t-39.5 34.5t-33 18l-12 3q-13 3 -38 -11.5t-50.5 -37.5t-47 -48.5t-28.5 -43.5l41 -8q8 -2 19.5 8.5t26.5 26t35 33t45 31.5q11 -12 25 -28.5t27.5 -32t26 -26 t21.5 -8.5z" />
<glyph unicode="&#xc3;" horiz-adv-x="450" d="M377 223q5 -7 13 -29.5t16.5 -48.5t16.5 -48.5t13 -29.5q0 -1 0.5 -5t0.5 -7q0 -24 -19 -36.5t-40 -12.5h-23q-11 0 -15 13l-76 321l-16 30q-1 0 -8 -19.5t-18.5 -49t-25.5 -65t-27.5 -67.5t-25.5 -57t-19 -33q-12 -12 -19 -23t-14 -19t-17.5 -13t-29.5 -5h-4 q-4 3 -13 11.5t-11 12.5v5q0 28 14 51q7 11 27 48t53 101t65.5 142t64.5 172q39 14 42 14zM99 681q5 17 19 35.5t30.5 34.5t33 28t26.5 15q16 4 29 -1.5t24.5 -15t22 -20t21.5 -14.5q9 11 20 20.5t22.5 15.5t22 8.5t16.5 1.5l31 -8q-5 -17 -19 -34.5t-30 -32.5t-32 -26 t-26 -14l-9 -3q-6 -3 -16 2q-14 6 -32 22t-30 31l-13 18q-9 -11 -20 -24t-22.5 -24t-21.5 -18t-16 -5z" />
<glyph unicode="&#xc4;" horiz-adv-x="450" d="M377 223l-95 353q-3 0 -42 -14q-32 -94 -64.5 -172t-65.5 -142t-53 -101t-27 -48q-14 -23 -14 -51v-5q2 -4 11 -12.5t13 -11.5h4q19 0 29.5 5t17.5 13t14 19t19 23q7 8 19 33t25.5 57t27.5 67.5t25.5 65t18.5 49t8 19.5l16 -30l76 -321q4 -13 15 -13h23q21 0 40 12.5 t19 36.5q0 3 -0.5 7t-0.5 5q-5 7 -13 29.5t-16.5 48.5t-16.5 48.5t-13 29.5zM104 706q0 -21 13.5 -38t34.5 -22q11 -2 20 4t15.5 16t10 21t3.5 19q0 21 -8.5 35t-33.5 14q-24 0 -39.5 -10.5t-15.5 -38.5zM317 706q0 -21 13.5 -38t34.5 -22q11 -2 20 4t15.5 16t10 21t3.5 19 q0 21 -8.5 35t-33.5 14q-24 0 -39.5 -10.5t-15.5 -38.5z" />
<glyph unicode="&#xc5;" horiz-adv-x="450" d="M377 223l-95 353q-3 0 -42 -14q-32 -94 -64.5 -172t-65.5 -142t-53 -101t-27 -48q-14 -23 -14 -51v-5q2 -4 11 -12.5t13 -11.5h4q19 0 29.5 5t17.5 13t14 19t19 23q7 8 19 33t25.5 57t27.5 67.5t25.5 65t18.5 49t8 19.5l16 -30l76 -321q4 -13 15 -13h23q21 0 40 12.5 t19 36.5q0 3 -0.5 7t-0.5 5q-5 7 -13 29.5t-16.5 48.5t-16.5 48.5t-13 29.5zM215 671l42 -37l77 87q5 5 2.5 11t-8 11.5t-12.5 10.5t-11 9q-10 11 -14.5 23t-7.5 24q-3 4 -11 4h-4q-11 0 -19.5 -7t-16.5 -16t-15 -19t-13 -16q-2 -2 -7 -6t-11 -8.5t-11 -8.5t-7 -5 q0 -1 -0.5 -3l-0.5 -2q3 -7 9.5 -13t14 -11.5t14.5 -12t10 -15.5zM217 726q0 3 5 10t11.5 14t13 12.5t9.5 5.5q4 0 10.5 -4t12 -9.5t9.5 -11.5t4 -10q0 -5 -4.5 -14.5t-11 -18.5t-13.5 -15.5t-12 -6.5t-11 6t-11 13.5t-8.5 15.5t-3.5 13z" />
<glyph unicode="&#xc6;" horiz-adv-x="783" d="M365 5q2 -7 6.5 -15t11 -15.5t14 -12.5t16.5 -5q25 0 34.5 5t11.5 14.5t1 23t4 30.5q2 12 24.5 23.5t55 23t70.5 23.5t70 25.5t53 29.5t21 35q0 3 0.5 15.5t0.5 25.5q0 14 -2 25t-8 13q-27 -11 -57.5 -29.5t-61.5 -36t-62 -30.5t-59 -13q-19 0 -22 10.5t-3 27.5 q0 28 12 42.5t30 22.5t39.5 13.5t39.5 16.5q6 3 24.5 14.5t39.5 25t40 26t28 18.5q6 4 15 12.5t9 11.5q3 14 1 21.5t-7 11.5t-12.5 4.5t-16.5 0.5q-29 0 -52.5 -15.5t-46 -34t-45.5 -34t-50 -15.5q-15 0 -19 8t-4 29q0 14 3.5 26.5t8 25t8.5 25t5 26.5q30 11 61 22.5 t55.5 24.5t40.5 27.5t16 31.5q0 7 -1 20t-12 16q-22 -9 -46 -22.5t-48.5 -28t-49 -28t-48.5 -22.5q-1 1 -10 1q-15 0 -28 -10h-6q-4 14 -10.5 29t-16.5 28t-22 21t-26 8t-40.5 -14t-59.5 -35.5t-68.5 -46.5t-67.5 -48t-56.5 -40.5t-35.5 -22.5q-10 -2 -14.5 -16.5 t-5.5 -32.5t-0.5 -34t0.5 -22v-264q0 -9 5 -14t12.5 -7.5t15.5 -3.5t14 -1q17 0 31 6t24 20v10q0 8 0.5 16.5t0.5 16.5v11q0 17 -1 33t-2 33l42 26q5 3 27.5 15.5t51.5 29t59 34.5t50 31v-220q0 -5 2 -13q-1 -14 -1.5 -24.5t-0.5 -15.5zM128 224q-2 20 -3 40t-1 40 q0 10 12.5 27t32.5 36t44.5 39t48 36t43 26t30.5 10q4 0 9.5 -4t10 -10t7.5 -12t3 -10v-80q-26 -19 -57 -40t-62.5 -40.5t-62 -35t-55.5 -22.5z" />
<glyph unicode="&#xc7;" horiz-adv-x="464" d="M246 -41q0 13 8 33.5t13 40.5q52 -33 103 -33q28 0 38 15t10 32q0 11 -16 22t-40.5 24t-54 30t-57.5 41t-50.5 55.5t-32.5 74.5q123 108 156 126q17 9 32.5 18t29.5 18q29 18 48 38t19 42v5q-4 4 -16 13t-17 11h-5q-26 0 -40 -3.5t-23.5 -10t-18.5 -16t-25 -21.5 q-15 -12 -38.5 -30.5t-46.5 -36.5t-40 -31t-18 -13l-52 -33l-83 -58l66 -96q40 -59 70 -93.5t65 -60.5l-2 -7q-6 -16 -11.5 -36t-17.5 -34t-33.5 -18t-58.5 12l-32 -52q-6 -9 7 -13t33.5 -5t42.5 0t34 1q24 0 39.5 10.5t14.5 38.5z" />
<glyph unicode="&#xc8;" horiz-adv-x="464" d="M424 284q8 24 2.5 41.5t-34.5 25.5q-20 6 -41.5 3t-43 -8.5t-44 -9t-44.5 1.5l-26 -4q26 43 64.5 72t74 48.5t61 33.5t25.5 29q0 17 -10 32t-38 15q-61 0 -129 -51t-146 -165l-66 -96l83 -58l52 -33q1 0 18 -13t40 -31t46.5 -36.5t38.5 -30.5q16 -12 25 -21.5t18.5 -16 t23.5 -10t40 -3.5h5q3 1 7.5 4t9.5 7t9.5 7.5t6.5 5.5v5q0 22 -19 42t-48 38q-14 9 -29.5 18t-32.5 18q-14 8 -43.5 31t-74.5 61q27 20 54 22.5t59 -8.5q16 -4 31.5 -5.5t29 1.5t24.5 12t19 26h2zM335 671q-7 18 -22.5 36.5t-34.5 34t-38 25t-32 9.5q-29 0 -41.5 -1.5 t3.5 -20.5q8 -9 24.5 -25t35 -31.5t36 -26t28.5 -8.5z" />
<glyph unicode="&#xc9;" horiz-adv-x="464" d="M422 284q-8 -17 -19 -26t-24.5 -12t-29 -1.5t-31.5 5.5q-32 11 -59 8.5t-54 -22.5q45 -38 74.5 -61t43.5 -31q17 -9 32.5 -18t29.5 -18q29 -18 48 -38t19 -42v-5q-2 -2 -6.5 -5.5t-9.5 -7.5t-9.5 -7t-7.5 -4h-5q-26 0 -40 3.5t-23.5 10t-18.5 16t-25 21.5 q-15 12 -38.5 30.5t-46.5 36.5t-40 31t-18 13l-52 33l-83 58l66 96q78 114 146 165t129 51q28 0 38 -15t10 -32q0 -15 -25.5 -29t-61 -33.5t-74 -48.5t-64.5 -72l26 4q22 -5 44.5 -1.5t44 9t43 8.5t41.5 -3q29 -8 34.5 -25.5t-2.5 -41.5h-2zM174 644q7 18 22.5 36.5t34 34 t37.5 25t33 9.5h25t16.5 -1.5t5 -6t-8.5 -14.5q-8 -9 -24.5 -25t-35 -31.5t-36.5 -26t-28 -8.5z" />
<glyph unicode="&#xca;" horiz-adv-x="464" d="M424 284q8 24 2.5 41.5t-34.5 25.5q-20 6 -41.5 3t-43 -8.5t-44 -9t-44.5 1.5l-26 -4q26 43 64.5 72t74 48.5t61 33.5t25.5 29q0 17 -10 32t-38 15q-61 0 -129 -51t-146 -165l-66 -96l83 -58l52 -33q1 0 18 -13t40 -31t46.5 -36.5t38.5 -30.5q16 -12 25 -21.5t18.5 -16 t23.5 -10t40 -3.5h5q3 1 7.5 4t9.5 7t9.5 7.5t6.5 5.5v5q0 22 -19 42t-48 38q-14 9 -29.5 18t-32.5 18q-14 8 -43.5 31t-74.5 61q27 20 54 22.5t59 -8.5q16 -4 31.5 -5.5t29 1.5t24.5 12t19 26h2zM374 660q-9 17 -29 33t-43 28.5t-45.5 20.5t-35.5 10l-12 1q-14 1 -34 -12.5 t-39.5 -34.5t-35 -44.5t-19.5 -42.5l42 -2q8 0 20.5 8.5t26 21.5t26.5 28.5t23 28.5q13 -10 29.5 -21t33 -20t31 -14t22.5 -2z" />
<glyph unicode="&#xcb;" horiz-adv-x="464" d="M424 284q8 24 2.5 41.5t-34.5 25.5q-20 6 -41.5 3t-43 -8.5t-44 -9t-44.5 1.5l-26 -4q26 43 64.5 72t74 48.5t61 33.5t25.5 29q0 17 -10 32t-38 15q-61 0 -129 -51t-146 -165l-66 -96l83 -58l52 -33q1 0 18 -13t40 -31t46.5 -36.5t38.5 -30.5q16 -12 25 -21.5t18.5 -16 t23.5 -10t40 -3.5h5q3 1 7.5 4t9.5 7t9.5 7.5t6.5 5.5v5q0 22 -19 42t-48 38q-14 9 -29.5 18t-32.5 18q-14 8 -43.5 31t-74.5 61q27 20 54 22.5t59 -8.5q16 -4 31.5 -5.5t29 1.5t24.5 12t19 26h2zM100 711q0 -21 13.5 -38t34.5 -22q11 -2 20 4t15.5 16t10 21t3.5 19 q0 21 -8.5 35t-33.5 14q-24 0 -39.5 -10.5t-15.5 -38.5zM314 730q0 -21 13.5 -38t34.5 -22q11 -2 20 4t15.5 16t10 21t3.5 19q0 21 -8.5 35t-33.5 14q-24 0 -39.5 -10.5t-15.5 -38.5z" />
<glyph unicode="&#xcc;" horiz-adv-x="180" d="M11 59q0 -21 12.5 -37.5t36.5 -21.5q16 -4 27.5 16.5t19 54.5t12 76t7 80.5t4 68.5t2.5 40q1 8 3 35.5t4 60t3.5 63t1.5 45.5v40q0 7 0.5 16.5t-1 18.5t-6.5 15.5t-16 6.5q-17 0 -31.5 -9t-17.5 -28l-60 -516q0 -3 -0.5 -12t-0.5 -13zM190 698q-7 17 -22 35t-33.5 32.5 t-37.5 23.5t-32 9h-24t-15.5 -1.5t-5 -6t8.5 -13.5q7 -9 23.5 -24t34.5 -29.5t35.5 -24.5t27.5 -8z" />
<glyph unicode="&#xcd;" horiz-adv-x="173" d="M11 59q0 4 0.5 13t0.5 12l60 516q3 19 17.5 28t31.5 9q11 0 16 -6.5t6.5 -15.5t1 -18.5t-0.5 -16.5v-40q0 -15 -1.5 -45.5t-3.5 -63t-4 -60t-3 -35.5q-1 -10 -2.5 -40t-4 -68.5t-7 -80.5t-12 -76t-19 -54.5t-27.5 -16.5q-24 5 -36.5 21.5t-12.5 37.5zM13 701q6 17 21 35 t33 32.5t36.5 23.5t31.5 9h23t15.5 -1.5t5 -6t-8.5 -13.5q-7 -9 -22.5 -24t-33.5 -29.5t-35 -24.5t-27 -8z" />
<glyph unicode="&#xce;" horiz-adv-x="173" d="M11 59q0 -21 12.5 -37.5t36.5 -21.5q16 -4 27.5 16.5t19 54.5t12 76t7 80.5t4 68.5t2.5 40q1 8 3 35.5t4 60t3.5 63t1.5 45.5v40q0 7 0.5 16.5t-1 18.5t-6.5 15.5t-16 6.5q-17 0 -31.5 -9t-17.5 -28l-60 -516q0 -3 -0.5 -12t-0.5 -13zM276 697q-7 18 -24.5 36.5t-38.5 34 t-42 27t-34 14.5l-12 3q-14 3 -35.5 -7.5t-43.5 -28.5t-40.5 -39.5t-25.5 -39.5l41 -8q8 -2 21.5 5t28.5 18.5t30.5 25t26.5 24.5q10 -12 25 -25.5t30.5 -24.5t29.5 -18t22 -5z" />
<glyph unicode="&#xcf;" horiz-adv-x="173" d="M11 59q0 -21 12.5 -37.5t36.5 -21.5q16 -4 27.5 16.5t19 54.5t12 76t7 80.5t4 68.5t2.5 40q1 8 3 35.5t4 60t3.5 63t1.5 45.5v40q0 7 0.5 16.5t-1 18.5t-6.5 15.5t-16 6.5q-17 0 -31.5 -9t-17.5 -28l-60 -516q0 -3 -0.5 -12t-0.5 -13zM-21 756q0 -21 13.5 -38t34.5 -22 q11 -2 20 4t15.5 16t10 21t3.5 19q0 21 -8.5 35t-33.5 14q-24 0 -39.5 -10.5t-15.5 -38.5zM144 754q0 -21 13.5 -38t34.5 -22q11 -2 20 4t15.5 16t10 21t3.5 19q0 21 -8.5 35t-33.5 14q-24 0 -39.5 -10.5t-15.5 -38.5z" />
<glyph unicode="&#xd0;" horiz-adv-x="605" d="M19 217q11 0 46 1t77 3l-20 -208q0 -3 -0.5 -12t-0.5 -13q0 -21 12.5 -37.5t36.5 -21.5q17 -4 28.5 7.5t19.5 49.5q3 -2 6.5 0t7.5 5t8.5 6t10.5 3q61 0 129 51t146 165l66 96l-83 58l-52 33q-1 0 -18 13t-40 31t-46.5 36.5t-38.5 30.5q-12 9 -20 16.5t-15 13.5t-15 10.5 t-20 7.5q-5 4 -13 4h-7q-4 0 -6 -1h-16q-5 -2 -17 -11t-16 -13v-5q0 -8 -2 -19t3 -19l-20 -194q-49 1 -86.5 2t-43.5 5zM298 420q33 -18 156 -126q-6 -49 -33.5 -84t-62.5 -60.5t-71 -43.5t-59 -32q5 41 7.5 80.5t3.5 68.5q40 0 44 -4q3 0 9 -0.5t9 -0.5q10 0 23.5 7.5 t24.5 18.5t17.5 22t1.5 19q-5 7 -40.5 10.5t-82.5 5.5q1 15 2 34t2 38.5t2 38t2 33.5q11 -7 22 -13t23 -12z" />
<glyph unicode="&#xd1;" horiz-adv-x="468" d="M142 276v-240q0 -2 -4 -6t-10 -9.5l-12 -11t-10 -9.5l-2.5 -0.5t-3.5 -0.5q-15 0 -29.5 12.5t-24.5 24.5q4 112 -6 216.5t-30 215.5v6q0 21 12.5 32t29.5 11q14 0 34.5 -13.5t42 -32t41.5 -36.5t32 -27q10 -8 28 -20.5t35.5 -24t30.5 -19.5t14 -8h19q0 7 1 24t1.5 36 t1.5 36t1 24q-2 15 -6 29.5t-8.5 29t-8 29.5t-3.5 31q0 24 11.5 36.5t44.5 12.5q24 0 30 -13.5t12 -34.5q10 -38 19 -81.5t15.5 -88t10.5 -87t4 -79.5q0 -28 -11 -44.5t-40 -16.5q-36 0 -69 22.5t-65.5 49t-65.5 49t-70 22.5q0 -4 -2 -11t-2.5 -14t1.5 -13t11 -8zM60 713 q5 17 19 35.5t30.5 34.5t33 28t26.5 15q16 4 29 -1.5t24.5 -15t22 -20t21.5 -14.5q9 11 20 20.5t22.5 15.5t22 8.5t16.5 1.5l31 -8q-5 -17 -19 -34.5t-30 -32.5t-32 -26t-26 -14l-9 -3q-6 -3 -16 2q-14 6 -32 22t-30 31l-13 18q-9 -11 -20 -24t-22.5 -24t-21.5 -18t-16 -5z " />
<glyph unicode="&#xd2;" d="M184 106l115 -138l211 325q13 20 6.5 41t-21.5 41.5t-34 40t-31 36.5q-26 39 -39 83.5t-21 89.5q-3 10 -11.5 12.5t-17.5 2.5h-10q-29 0 -53.5 -25.5t-46 -60.5t-40.5 -71.5t-37 -57.5q-5 -6 -18.5 -21.5t-29 -33t-29 -32.5t-19.5 -19q0 -4 -1.5 -11t-0.5 -9 q8 -25 26 -46t38.5 -42.5t38.5 -46.5t25 -58zM190 312q0 11 13 36.5t30.5 52t35.5 46.5t27 20q12 0 29 -14.5t32 -35t26 -42t11 -35.5q0 -20 -12 -54.5t-29.5 -68.5t-36.5 -59t-32 -25q-14 0 -30.5 22t-30.5 51.5t-23.5 59.5t-9.5 46zM404 706q-7 18 -22.5 36.5t-34.5 34 t-38 25t-32 9.5q-29 0 -41.5 -1.5t3.5 -20.5q8 -9 24.5 -25t35 -31.5t36 -26t28.5 -8.5z" />
<glyph unicode="&#xd3;" d="M190 312q0 -16 9.5 -46t23.5 -59.5t30.5 -51.5t30.5 -22q13 0 32 25t36.5 59t29.5 68.5t12 54.5q0 14 -11 35.5t-26 42t-32 35t-29 14.5q-9 0 -27 -20t-35.5 -46.5t-30.5 -52t-13 -36.5zM184 106q-7 33 -25 58t-38.5 46.5t-38.5 42.5t-26 46q-1 2 0.5 9t1.5 11 q6 4 19.5 19t29 32.5t29 33t18.5 21.5q18 21 37 57.5t40.5 71.5t46 60.5t53.5 25.5h10q9 0 17.5 -2.5t11.5 -12.5q8 -45 21 -89.5t39 -83.5q12 -17 31 -36.5t34 -40t21.5 -41.5t-6.5 -41l-211 -325zM219 700q7 18 22.5 36.5t34 34t37.5 25t33 9.5h25t16.5 -1.5t5 -6 t-8.5 -14.5q-8 -9 -24.5 -25t-35 -31.5t-36.5 -26t-28 -8.5z" />
<glyph unicode="&#xd4;" d="M184 106l115 -138l211 325q13 20 6.5 41t-21.5 41.5t-34 40t-31 36.5q-26 39 -39 83.5t-21 89.5q-3 10 -11.5 12.5t-17.5 2.5h-10q-29 0 -53.5 -25.5t-46 -60.5t-40.5 -71.5t-37 -57.5q-5 -6 -18.5 -21.5t-29 -33t-29 -32.5t-19.5 -19q0 -4 -1.5 -11t-0.5 -9 q8 -25 26 -46t38.5 -42.5t38.5 -46.5t25 -58zM190 312q0 11 13 36.5t30.5 52t35.5 46.5t27 20q12 0 29 -14.5t32 -35t26 -42t11 -35.5q0 -20 -12 -54.5t-29.5 -68.5t-36.5 -59t-32 -25q-14 0 -30.5 22t-30.5 51.5t-23.5 59.5t-9.5 46zM455 698q-7 18 -24.5 36.5t-38.5 34 t-42 27t-34 14.5l-12 3q-13 3 -35 -7.5t-44 -28.5t-40.5 -39.5t-25.5 -39.5l41 -8q8 -2 21.5 5t28.5 18.5t30 24.5t27 25q11 -12 26 -25t30 -24.5t28.5 -18.5t22.5 -5z" />
<glyph unicode="&#xd5;" d="M190 312q0 -16 9.5 -46t23.5 -59.5t30.5 -51.5t30.5 -22q13 0 32 25t36.5 59t29.5 68.5t12 54.5q0 14 -11 35.5t-26 42t-32 35t-29 14.5q-9 0 -27 -20t-35.5 -46.5t-30.5 -52t-13 -36.5zM184 106q-7 33 -25 58t-38.5 46.5t-38.5 42.5t-26 46q-1 2 0.5 9t1.5 11 q6 4 19.5 19t29 32.5t29 33t18.5 21.5q18 21 37 57.5t40.5 71.5t46 60.5t53.5 25.5h10q9 0 17.5 -2.5t11.5 -12.5q8 -45 21 -89.5t39 -83.5q12 -17 31 -36.5t34 -40t21.5 -41.5t-6.5 -41l-211 -325zM164 727q5 17 19 35.5t30.5 34.5t33 28t26.5 15q16 4 29 -1.5t24.5 -15 t22 -20t21.5 -14.5q9 11 20 20.5t22.5 15.5t22 8.5t16.5 1.5l31 -8q-5 -17 -19 -34.5t-30 -32.5t-32 -26t-26 -14l-9 -3q-6 -3 -16 2q-14 6 -32 22t-30 31l-13 18q-9 -11 -20 -24t-22.5 -24t-21.5 -18t-16 -5z" />
<glyph unicode="&#xd6;" d="M184 106l115 -138l211 325q13 20 6.5 41t-21.5 41.5t-34 40t-31 36.5q-26 39 -39 83.5t-21 89.5q-3 10 -11.5 12.5t-17.5 2.5h-10q-29 0 -53.5 -25.5t-46 -60.5t-40.5 -71.5t-37 -57.5q-5 -6 -18.5 -21.5t-29 -33t-29 -32.5t-19.5 -19q0 -4 -1.5 -11t-0.5 -9 q8 -25 26 -46t38.5 -42.5t38.5 -46.5t25 -58zM190 312q0 11 13 36.5t30.5 52t35.5 46.5t27 20q12 0 29 -14.5t32 -35t26 -42t11 -35.5q0 -20 -12 -54.5t-29.5 -68.5t-36.5 -59t-32 -25q-14 0 -30.5 22t-30.5 51.5t-23.5 59.5t-9.5 46zM153 761q0 -21 13.5 -38t34.5 -22 q11 -2 20 4t15.5 16t10 21t3.5 19q0 21 -8.5 35t-33.5 14q-24 0 -39.5 -10.5t-15.5 -38.5zM366 761q0 -21 13.5 -38t34.5 -22q11 -2 20 4t15.5 16t10 21t3.5 19q0 21 -8.5 35t-33.5 14q-24 0 -39.5 -10.5t-15.5 -38.5z" />
<glyph unicode="&#xd7;" horiz-adv-x="397" d="M21 133q6 -18 17 -21t25 -3q13 0 33 16.5t41.5 37.5t41 41t31.5 28q18 -6 26 -22.5t15 -34t17.5 -30.5t33.5 -13q18 0 21.5 6t3.5 23q0 16 -10 29.5t-22 26.5t-22 26.5t-10 30.5q0 3 1 10.5t1 9.5q7 8 25.5 21.5t37 29.5t33 32t14.5 30q0 11 -2.5 21.5t-17.5 10.5 q-22 0 -36.5 -15.5t-27 -34.5t-27 -34.5t-36.5 -15.5q-17 0 -27.5 17t-21.5 37.5t-24.5 37.5t-36.5 17q-9 0 -22 -2.5t-13 -17.5t15 -31t32.5 -32.5t32.5 -34t15 -36.5q0 -2 -0.5 -5l-0.5 -3l-70 -69q-5 -5 -20 -15.5t-31 -23t-27 -25t-8 -20.5z" />
<glyph unicode="&#xd8;" d="M107 47q-9 -21 -3.5 -37.5t27.5 -21.5q15 -5 37 19.5t45 62.5l86 -102l211 325q13 20 6.5 41t-21.5 41.5t-34 40t-31 36.5q-5 6 -8.5 12.5t-7.5 13.5q8 16 13 29t9 21l16 40q3 7 7.5 16.5t6.5 18.5t-0.5 15.5t-13.5 6.5q-17 0 -34.5 -9t-28.5 -28l-9 -16q-3 13 -5.5 26 t-4.5 27q-3 10 -11.5 12.5t-17.5 2.5h-10q-29 0 -53.5 -25.5t-46 -60.5t-40.5 -71.5t-37 -57.5q-5 -6 -18.5 -21.5t-29 -33t-29 -32.5t-19.5 -19q0 -4 -1.5 -11t-0.5 -9q6 -20 18.5 -37t28 -33.5t31.5 -33.5t29 -38l-45 -85q-2 -3 -6 -12t-5 -13zM340 324q4 6 13 24.5 t21 43.5q9 -15 14.5 -28.5t5.5 -23.5q0 -20 -12 -54.5t-29.5 -68.5t-36.5 -59t-32 -25q-12 0 -27 17q15 29 28.5 57t24.5 51.5t18.5 41t11.5 24.5zM190 312q0 11 13 36.5t30.5 52t35.5 46.5t27 20q10 0 24 -11l-113 -214q-8 21 -12.5 40t-4.5 30z" />
<glyph unicode="&#xd9;" horiz-adv-x="490" d="M132 574q-18 25 -55 25q-6 0 -14 -1t-15.5 -3.5t-12.5 -7.5t-5 -13v-264l-23 -90q0 -4 3 -9t2 -9q3 -7 7.5 -10t17.5 -6q7 -2 16.5 -5t18.5 -6t15.5 -5.5t8.5 -3.5q8 -4 30.5 -18t51.5 -32.5t62 -39.5t61.5 -38t49.5 -28.5t27 -11.5q18 0 32.5 12.5t25 30t16 36.5t5.5 32 t1 41t1.5 63.5t1.5 76t1 78.5q0 39 -1 72.5t-4 55.5q0 10 -2 24t-7 26t-14.5 20.5t-24.5 8.5t-32 -9t-17 -28v-384q0 -4 -3 -10t-7.5 -12t-10 -10t-9.5 -4q-11 0 -30.5 10t-43 26t-48 35.5t-44.5 39t-32.5 36.5t-12.5 27l14 228v10v33zM339 668q-7 18 -22.5 36.5t-34.5 34 t-38 25t-32 9.5q-29 0 -41.5 -1.5t3.5 -20.5q8 -9 24.5 -25t35 -31.5t36 -26t28.5 -8.5z" />
<glyph unicode="&#xda;" horiz-adv-x="490" d="M132 574l1 -11v-33v-10l-14 -228q0 -10 12.5 -27t32.5 -36.5t44.5 -39t48 -35.5t43 -26t30.5 -10q4 0 9.5 4t10 10t7.5 12t3 10v384q0 19 17 28t32 9t24.5 -8.5t14.5 -20.5t7 -26t2 -24q3 -22 4 -55.5t1 -72.5q0 -38 -1 -78.5t-1.5 -76t-1.5 -63.5t-1 -41t-5.5 -32 t-16 -36.5t-25 -30t-32.5 -12.5q-6 0 -27 11.5t-49.5 28.5t-61.5 38t-62 39.5t-51.5 32.5t-30.5 18q-2 1 -8.5 3.5t-15.5 5.5t-18.5 6t-16.5 5q-13 3 -17.5 6t-7.5 10q1 4 -2 9t-3 9l23 90v264q0 8 5 13t12.5 7.5t15.5 3.5t14 1q37 0 55 -25zM192 690q7 18 22.5 36.5t34 34 t37.5 25t33 9.5h25t16.5 -1.5t5 -6t-8.5 -14.5q-8 -9 -24.5 -25t-35 -31.5t-36.5 -26t-28 -8.5z" />
<glyph unicode="&#xdb;" horiz-adv-x="490" d="M132 574q-18 25 -55 25q-6 0 -14 -1t-15.5 -3.5t-12.5 -7.5t-5 -13v-264l-23 -90q0 -4 3 -9t2 -9q3 -7 7.5 -10t17.5 -6q7 -2 16.5 -5t18.5 -6t15.5 -5.5t8.5 -3.5q8 -4 30.5 -18t51.5 -32.5t62 -39.5t61.5 -38t49.5 -28.5t27 -11.5q18 0 32.5 12.5t25 30t16 36.5t5.5 32 t1 41t1.5 63.5t1.5 76t1 78.5q0 39 -1 72.5t-4 55.5q0 10 -2 24t-7 26t-14.5 20.5t-24.5 8.5t-32 -9t-17 -28v-384q0 -4 -3 -10t-7.5 -12t-10 -10t-9.5 -4q-11 0 -30.5 10t-43 26t-48 35.5t-44.5 39t-32.5 36.5t-12.5 27l14 228v10v33zM383 696q-7 18 -24.5 36.5t-38.5 34 t-42 27t-34 14.5l-12 3q-13 3 -35 -7.5t-44 -28.5t-40.5 -39.5t-25.5 -39.5l41 -8q8 -2 21.5 5t28.5 18.5t30 24.5t27 25q11 -12 26 -25t30 -24.5t28.5 -18.5t22.5 -5z" />
<glyph unicode="&#xdc;" horiz-adv-x="490" d="M132 574q-18 25 -55 25q-6 0 -14 -1t-15.5 -3.5t-12.5 -7.5t-5 -13v-264l-23 -90q0 -4 3 -9t2 -9q3 -7 7.5 -10t17.5 -6q7 -2 16.5 -5t18.5 -6t15.5 -5.5t8.5 -3.5q8 -4 30.5 -18t51.5 -32.5t62 -39.5t61.5 -38t49.5 -28.5t27 -11.5q18 0 32.5 12.5t25 30t16 36.5t5.5 32 t1 41t1.5 63.5t1.5 76t1 78.5q0 39 -1 72.5t-4 55.5q0 10 -2 24t-7 26t-14.5 20.5t-24.5 8.5t-32 -9t-17 -28v-384q0 -4 -3 -10t-7.5 -12t-10 -10t-9.5 -4q-11 0 -30.5 10t-43 26t-48 35.5t-44.5 39t-32.5 36.5t-12.5 27l14 228v10v33zM102 758q0 -21 13.5 -38t34.5 -22 q11 -2 20 4t15.5 16t10 21t3.5 19q0 21 -8.5 35t-33.5 14q-24 0 -39.5 -10.5t-15.5 -38.5zM315 758q0 -21 13.5 -38t34.5 -22q11 -2 20 4t15.5 16t10 21t3.5 19q0 21 -8.5 35t-33.5 14q-24 0 -39.5 -10.5t-15.5 -38.5z" />
<glyph unicode="&#xdd;" horiz-adv-x="456" d="M444 534q0 -28 -9 -47t-15 -43q-26 -102 -37.5 -202.5t-22.5 -205.5q-11 -26 -25 -32t-35 -6q-26 0 -31.5 12t-5.5 37t4 50t9 50t9 49.5t4 49.5v8q0 6 -0.5 13t-0.5 12v9q-11 14 -35.5 31t-55.5 36t-64 39t-60 38.5t-44.5 35.5t-17.5 30q0 54 55 54h6q27 -16 53 -35.5 t51 -40t50 -41.5t50 -39q1 0 5 -0.5t7 -0.5q19 0 28 14.5t12.5 36t4.5 46.5t5 46.5t14 36t31 14.5q29 0 45 -11.5t16 -43.5zM175 667q7 18 22.5 36.5t34 34t37.5 25t33 9.5h25t16.5 -1.5t5 -6t-8.5 -14.5q-8 -9 -24.5 -25t-35 -31.5t-36.5 -26t-28 -8.5z" />
<glyph unicode="&#xde;" horiz-adv-x="420" d="M11 -18q0 25 5 51.5t12 53.5t13 53.5t9 52.5q10 108 19.5 210.5t26.5 209.5q14 17 25 21t29 4q23 0 27 -8.5t4 -28.5v-5q0 -8 -1.5 -24.5t-3 -34t-2.5 -33t-1 -21.5q0 -8 7 -14q13 -12 43.5 -25t65.5 -34t68.5 -53t51.5 -80v-2q0 -3 -0.5 -6t-0.5 -4q-10 -11 -24.5 -26.5 t-31 -31.5t-33.5 -29.5t-31 -20.5q-41 -20 -68.5 -31t-45 -17.5t-28 -9t-18.5 -5.5t-11.5 -10.5t-5.5 -19.5t-4 -28t-6 -35l-1 -3q0 -1 -1 -1v-1t-0.5 -2t-0.5 -2q-2 -6 -4 -15t-4.5 -17t-5 -14t-5.5 -6h-20q-21 0 -34.5 9.5t-13.5 32.5zM164 370q-4 0 -6.5 1.5t-4.5 3.5 t-3 2q-2 0 -3.5 -10.5t-4.5 -42.5q-2 -23 -6 -60t-10 -93q0 -2 17 6.5t40 20.5l46 24t35 19q17 12 21 18.5t4 23.5q0 15 -15 30t-35 28t-41.5 21t-33.5 8z" />
<glyph unicode="&#xdf;" horiz-adv-x="535" d="M20 -10q0 -21 12.5 -37.5t36.5 -21.5q16 -4 27.5 16.5t19 54.5t12 76t7 80.5t4 68.5t2.5 40q1 8 3 35.5t4 60t3.5 63t1.5 45.5v20q16 -11 42.5 -24.5t56 -31.5t57.5 -42.5t49 -58.5l-26 4q-17 4 -28.5 3.5t-23 -2t-24.5 -3t-31 0.5q-4 -42 6 -61.5t26.5 -25.5t36 -2.5 t35.5 7.5q4 2 6 2q-2 -3 -0.5 -8.5t11.5 -12.5q-2 -18 -3 -32.5t-3 -25t-5.5 -18t-10.5 -11.5q-17 -9 -32.5 -18t-29.5 -18q-29 -18 -48 -38t-19 -42v-5q4 -4 16 -13t17 -11h5q26 0 40 3.5t23.5 10t18.5 16t25 21.5q15 12 29 26t26 27t19.5 21.5t8.5 8.5l32 46l67 68l-66 96 q-78 114 -146 165t-129 51q-11 0 -17 0.5t-11 1.5t-10 1.5t-13 0.5q-17 0 -31.5 -9t-17.5 -28l-60 -516q0 -3 -0.5 -12t-0.5 -13z" />
<glyph unicode="&#xe0;" horiz-adv-x="487" d="M137 22v10q0 8 0.5 16.5t0.5 16.5v11q0 17 -1 33t-2 33l42 26q5 3 27.5 15.5t51.5 29t59 34.5t50 31v-220q0 -20 17 -29t32 -9t24.5 8.5t14.5 20.5t7 26t2 25q0 4 0.5 30.5t1 65t1 84t0.5 86.5q0 42 -1 74.5t-2 45.5q0 13 -5.5 32t-16 37t-25 30.5t-32.5 12.5 q-14 0 -40.5 -14t-59.5 -35.5t-68.5 -46.5t-67.5 -48t-56.5 -40.5t-35.5 -22.5q-10 -2 -14.5 -16.5t-5.5 -32.5t-0.5 -34t0.5 -22v-264q0 -9 5 -14t12.5 -7.5t15.5 -3.5t14 -1q17 0 31 6t24 20zM128 224q-2 20 -3 40t-1 40q0 10 12.5 27t32.5 36t44.5 39t48 36t43 26 t30.5 10q4 0 9.5 -4t10 -10t7.5 -12t3 -10v-80q-26 -19 -57 -40t-62.5 -40.5t-62 -35t-55.5 -22.5zM289 666q-7 18 -22.5 36.5t-34.5 34t-38 25t-32 9.5q-29 0 -41.5 -1.5t3.5 -20.5q8 -9 24.5 -25t35 -31.5t36 -26t28.5 -8.5z" />
<glyph unicode="&#xe1;" horiz-adv-x="487" d="M128 224q25 7 55.5 22.5t62 35t62.5 40.5t57 40v80q0 4 -3 10t-7.5 12t-10 10t-9.5 4q-11 0 -30.5 -10t-43 -26t-48 -36t-44.5 -39t-32.5 -36t-12.5 -27q0 -20 1 -40t3 -40zM137 22q-10 -14 -24 -20t-31 -6q-6 0 -14 1t-15.5 3.5t-12.5 7.5t-5 14v264q0 6 -0.5 22t0.5 34 t5.5 32.5t14.5 16.5q11 5 35.5 22.5t56.5 40.5t67.5 48t68.5 46.5t59.5 35.5t40.5 14q18 0 32.5 -12.5t25 -30.5t16 -37t5.5 -32q1 -13 2 -45.5t1 -74.5q0 -41 -0.5 -86.5t-1 -84t-1 -65t-0.5 -30.5q0 -11 -2 -25t-7 -26t-14.5 -20.5t-24.5 -8.5t-32 9t-17 29v220 q-20 -13 -50 -31t-59 -34.5t-51.5 -29t-27.5 -15.5l-42 -26q1 -17 2 -33t1 -33v-11q0 -8 -0.5 -16.5t-0.5 -16.5v-10zM164 669q7 18 22.5 36.5t34 34t37.5 25t33 9.5h25t16.5 -1.5t5 -6t-8.5 -14.5q-8 -9 -24.5 -25t-35 -31.5t-36.5 -26t-28 -8.5z" />
<glyph unicode="&#xe2;" horiz-adv-x="487" d="M137 22v10q0 8 0.5 16.5t0.5 16.5v11q0 17 -1 33t-2 33l42 26q5 3 27.5 15.5t51.5 29t59 34.5t50 31v-220q0 -20 17 -29t32 -9t24.5 8.5t14.5 20.5t7 26t2 25q0 4 0.5 30.5t1 65t1 84t0.5 86.5q0 42 -1 74.5t-2 45.5q0 13 -5.5 32t-16 37t-25 30.5t-32.5 12.5 q-14 0 -40.5 -14t-59.5 -35.5t-68.5 -46.5t-67.5 -48t-56.5 -40.5t-35.5 -22.5q-10 -2 -14.5 -16.5t-5.5 -32.5t-0.5 -34t0.5 -22v-264q0 -9 5 -14t12.5 -7.5t15.5 -3.5t14 -1q17 0 31 6t24 20zM128 224q-2 20 -3 40t-1 40q0 10 12.5 27t32.5 36t44.5 39t48 36t43 26 t30.5 10q4 0 9.5 -4t10 -10t7.5 -12t3 -10v-80q-26 -19 -57 -40t-62.5 -40.5t-62 -35t-55.5 -22.5zM369 676q-9 17 -28 30.5t-41.5 23t-44 15t-34.5 7.5l-12 1q-14 1 -36.5 -17t-45.5 -44.5t-41.5 -54.5t-22.5 -47l42 -2q8 0 23 13t32 31.5t33 38.5t26 33q13 -10 28.5 -18.5 t31.5 -14.5t29.5 -8.5t21.5 0.5z" />
<glyph unicode="&#xe3;" horiz-adv-x="487" d="M128 224q25 7 55.5 22.5t62 35t62.5 40.5t57 40v80q0 4 -3 10t-7.5 12t-10 10t-9.5 4q-11 0 -30.5 -10t-43 -26t-48 -36t-44.5 -39t-32.5 -36t-12.5 -27q0 -20 1 -40t3 -40zM137 22q-10 -14 -24 -20t-31 -6q-6 0 -14 1t-15.5 3.5t-12.5 7.5t-5 14v264q0 6 -0.5 22t0.5 34 t5.5 32.5t14.5 16.5q11 5 35.5 22.5t56.5 40.5t67.5 48t68.5 46.5t59.5 35.5t40.5 14q18 0 32.5 -12.5t25 -30.5t16 -37t5.5 -32q1 -13 2 -45.5t1 -74.5q0 -41 -0.5 -86.5t-1 -84t-1 -65t-0.5 -30.5q0 -11 -2 -25t-7 -26t-14.5 -20.5t-24.5 -8.5t-32 9t-17 29v220 q-20 -13 -50 -31t-59 -34.5t-51.5 -29t-27.5 -15.5l-42 -26q1 -17 2 -33t1 -33v-11q0 -8 -0.5 -16.5t-0.5 -16.5v-10zM59 598q5 17 23 45.5t40 56t43 49t31 24.5q16 4 29 -1.5t24.5 -15t22 -20t21.5 -14.5q9 11 20 20.5t22.5 15.5t22 8.5t16.5 1.5l31 -8q-5 -17 -19 -34.5 t-30 -32.5t-32 -26t-26 -14l-9 -3q-6 -3 -16 2q-14 6 -32 22t-30 31l-13 18q-9 -11 -24.5 -34t-32 -45.5t-31 -39t-20.5 -14.5z" />
<glyph unicode="&#xe4;" horiz-adv-x="487" d="M137 22v10q0 8 0.5 16.5t0.5 16.5v11q0 17 -1 33t-2 33l42 26q5 3 27.5 15.5t51.5 29t59 34.5t50 31v-220q0 -20 17 -29t32 -9t24.5 8.5t14.5 20.5t7 26t2 25q0 4 0.5 30.5t1 65t1 84t0.5 86.5q0 42 -1 74.5t-2 45.5q0 13 -5.5 32t-16 37t-25 30.5t-32.5 12.5 q-14 0 -40.5 -14t-59.5 -35.5t-68.5 -46.5t-67.5 -48t-56.5 -40.5t-35.5 -22.5q-10 -2 -14.5 -16.5t-5.5 -32.5t-0.5 -34t0.5 -22v-264q0 -9 5 -14t12.5 -7.5t15.5 -3.5t14 -1q17 0 31 6t24 20zM128 224q-2 20 -3 40t-1 40q0 10 12.5 27t32.5 36t44.5 39t48 36t43 26 t30.5 10q4 0 9.5 -4t10 -10t7.5 -12t3 -10v-80q-26 -19 -57 -40t-62.5 -40.5t-62 -35t-55.5 -22.5zM99 676q0 -21 13.5 -38t34.5 -22q11 -2 20 4t15.5 16t10 21t3.5 19q0 21 -8.5 35t-33.5 14q-24 0 -39.5 -10.5t-15.5 -38.5zM309 718q0 -21 13.5 -38t34.5 -22q11 -2 20 4 t15.5 16t10 21t3.5 19q0 21 -8.5 35t-33.5 14q-24 0 -39.5 -10.5t-15.5 -38.5z" />
<glyph unicode="&#xe5;" horiz-adv-x="487" d="M137 22v10q0 8 0.5 16.5t0.5 16.5v11q0 17 -1 33t-2 33l42 26q5 3 27.5 15.5t51.5 29t59 34.5t50 31v-220q0 -20 17 -29t32 -9t24.5 8.5t14.5 20.5t7 26t2 25q0 4 0.5 30.5t1 65t1 84t0.5 86.5q0 42 -1 74.5t-2 45.5q0 13 -5.5 32t-16 37t-25 30.5t-32.5 12.5 q-14 0 -40.5 -14t-59.5 -35.5t-68.5 -46.5t-67.5 -48t-56.5 -40.5t-35.5 -22.5q-10 -2 -14.5 -16.5t-5.5 -32.5t-0.5 -34t0.5 -22v-264q0 -9 5 -14t12.5 -7.5t15.5 -3.5t14 -1q17 0 31 6t24 20zM128 224q-2 20 -3 40t-1 40q0 10 12.5 27t32.5 36t44.5 39t48 36t43 26 t30.5 10q4 0 9.5 -4t10 -10t7.5 -12t3 -10v-80q-26 -19 -57 -40t-62.5 -40.5t-62 -35t-55.5 -22.5zM214 649l42 -37l77 87q5 5 2.5 11t-8 11.5t-12.5 10.5t-11 9q-10 11 -14.5 23t-7.5 24q-3 4 -11 4h-4q-11 0 -19.5 -7t-16.5 -16t-15 -19t-13 -16q-2 -2 -7 -6t-11 -8.5 t-11 -8.5t-7 -5q0 -1 -0.5 -3l-0.5 -2q3 -7 9.5 -13t14 -11.5t14.5 -12t10 -15.5zM216 704q0 3 5 10t11.5 14t13 12.5t9.5 5.5q4 0 10.5 -4t12 -9.5t9.5 -11.5t4 -10q0 -5 -4.5 -14.5t-11 -18.5t-13.5 -15.5t-12 -6.5t-11 6t-11 13.5t-8.5 15.5t-3.5 13z" />
<glyph unicode="&#xe6;" horiz-adv-x="783" d="M365 5q2 -7 6.5 -15t11 -15.5t14 -12.5t16.5 -5q25 0 34.5 5t11.5 14.5t1 23t4 30.5q2 12 24.5 23.5t55 23t70.5 23.5t70 25.5t53 29.5t21 35q0 3 0.5 15.5t0.5 25.5q0 14 -2 25t-8 13q-27 -11 -57.5 -29.5t-61.5 -36t-62 -30.5t-59 -13q-19 0 -22 10.5t-3 27.5 q0 28 12 42.5t30 22.5t39.5 13.5t39.5 16.5q6 3 24.5 14.5t39.5 25t40 26t28 18.5q6 4 15 12.5t9 11.5q3 14 1 21.5t-7 11.5t-12.5 4.5t-16.5 0.5q-29 0 -52.5 -15.5t-46 -34t-45.5 -34t-50 -15.5q-15 0 -19 8t-4 29q0 14 3.5 26.5t8 25t8.5 25t5 26.5q30 11 61 22.5 t55.5 24.5t40.5 27.5t16 31.5q0 7 -1 20t-12 16q-22 -9 -46 -22.5t-48.5 -28t-49 -28t-48.5 -22.5q-1 1 -10 1q-15 0 -28 -10h-6q-4 14 -10.5 29t-16.5 28t-22 21t-26 8t-40.5 -14t-59.5 -35.5t-68.5 -46.5t-67.5 -48t-56.5 -40.5t-35.5 -22.5q-10 -2 -14.5 -16.5 t-5.5 -32.5t-0.5 -34t0.5 -22v-264q0 -9 5 -14t12.5 -7.5t15.5 -3.5t14 -1q17 0 31 6t24 20v10q0 8 0.5 16.5t0.5 16.5v11q0 17 -1 33t-2 33l42 26q5 3 27.5 15.5t51.5 29t59 34.5t50 31v-220q0 -5 2 -13q-1 -14 -1.5 -24.5t-0.5 -15.5zM128 224q-2 20 -3 40t-1 40 q0 10 12.5 27t32.5 36t44.5 39t48 36t43 26t30.5 10q4 0 9.5 -4t10 -10t7.5 -12t3 -10v-80q-26 -19 -57 -40t-62.5 -40.5t-62 -35t-55.5 -22.5z" />
<glyph unicode="&#xe7;" horiz-adv-x="464" d="M246 -41q0 13 8 33.5t13 40.5q52 -33 103 -33q28 0 38 15t10 32q0 11 -16 22t-40.5 24t-54 30t-57.5 41t-50.5 55.5t-32.5 74.5q123 108 156 126q17 9 32.5 18t29.5 18q29 18 48 38t19 42v5q-4 4 -16 13t-17 11h-5q-26 0 -40 -3.5t-23.5 -10t-18.5 -16t-25 -21.5 q-15 -12 -38.5 -30.5t-46.5 -36.5t-40 -31t-18 -13l-52 -33l-83 -58l66 -96q40 -59 70 -93.5t65 -60.5l-2 -7q-6 -16 -11.5 -36t-17.5 -34t-33.5 -18t-58.5 12l-32 -52q-6 -9 7 -13t33.5 -5t42.5 0t34 1q24 0 39.5 10.5t14.5 38.5z" />
<glyph unicode="&#xe8;" horiz-adv-x="420" d="M73 418q0 -1 -0.5 -1.5t-0.5 -1.5zM19 2q2 -7 6.5 -15t11 -15.5t14 -12.5t16.5 -5q25 0 34.5 5t11.5 14.5t1 23t4 30.5q2 12 24.5 23.5t55 23t70.5 23.5t70 25.5t53 29.5t21 35q0 3 0.5 15.5t0.5 25.5q0 14 -2 25t-8 13q-27 -11 -57.5 -29.5t-61.5 -36t-62 -30.5t-59 -13 q-19 0 -22 10.5t-3 27.5q0 28 12 42.5t30 22.5t39.5 13.5t39.5 16.5q6 3 24.5 14.5t39.5 25t40 26t28 18.5q6 4 15 12.5t9 11.5q3 14 1 21.5t-7 11.5t-12.5 4.5t-16.5 0.5q-29 0 -52.5 -15.5t-46 -34t-45.5 -34t-50 -15.5q-15 0 -19 8t-4 29q0 14 3.5 26.5t8 25t8.5 25 t5 26.5q30 11 61 22.5t55.5 24.5t40.5 27.5t16 31.5q0 7 -1 20t-12 16q-22 -9 -46 -22.5t-48.5 -28t-49 -28t-48.5 -22.5q-1 1 -10 1q-15 0 -28 -10h-10l-9 -22q-6 -11 -10.5 -24.5t-9.5 -27.5l-6 -17q2 4 3 5q-8 -36 -12 -77.5t-6.5 -80.5t-5.5 -71t-9 -48 q-1 -3 -6.5 -12.5t-5.5 -11.5q-2 -7 -4 -24t-4 -36t-3 -36t-1 -24zM293 675q-7 18 -22.5 36.5t-34.5 34t-38 25t-32 9.5q-29 0 -41.5 -1.5t3.5 -20.5q8 -9 24.5 -25t35 -31.5t36 -26t28.5 -8.5z" />
<glyph unicode="&#xe9;" horiz-adv-x="420" d="M19 2q0 7 1 24t3 36t4 36t4 24q0 2 5.5 11.5t6.5 12.5q6 16 9 48t5.5 71t6.5 80.5t12 77.5q-1 -1 -3 -5l6 17q5 14 9.5 27.5t10.5 24.5l9 22h10q13 10 28 10q9 0 10 -1q24 9 48.5 22.5t49 28t48.5 28t46 22.5q11 -3 12 -16t1 -20q0 -17 -16 -31.5t-40.5 -27.5 t-55.5 -24.5t-61 -22.5q-1 -14 -5 -26.5t-8.5 -25t-8 -25t-3.5 -26.5q0 -21 4 -29t19 -8q27 0 50 15.5t45.5 34t46 34t52.5 15.5q9 0 16.5 -0.5t12.5 -4.5t7 -11.5t-1 -21.5q0 -3 -9 -11.5t-15 -12.5q-9 -6 -28 -18.5t-40 -26t-39.5 -25t-24.5 -14.5q-18 -11 -39.5 -16.5 t-39.5 -13.5t-30 -22.5t-12 -42.5q0 -17 3 -27.5t22 -10.5q28 0 59 13t62 30.5t61.5 36t57.5 29.5q6 -2 8 -13t2 -25q0 -13 -0.5 -25.5t-0.5 -15.5q0 -19 -21 -35t-53 -29.5t-70 -25.5t-70.5 -23.5t-55 -23t-24.5 -23.5q-5 -17 -4 -30.5t-1 -23t-11.5 -14.5t-34.5 -5 q-9 0 -16.5 5t-14 12.5t-11 15.5t-6.5 15zM72 415q0 1 0.5 1.5t0.5 1.5zM152 678q7 18 22.5 36.5t34 34t37.5 25t33 9.5h25t16.5 -1.5t5 -6t-8.5 -14.5q-8 -9 -24.5 -25t-35 -31.5t-36.5 -26t-28 -8.5z" />
<glyph unicode="&#xea;" horiz-adv-x="420" d="M73 418q0 -1 -0.5 -1.5t-0.5 -1.5zM19 2q2 -7 6.5 -15t11 -15.5t14 -12.5t16.5 -5q25 0 34.5 5t11.5 14.5t1 23t4 30.5q2 12 24.5 23.5t55 23t70.5 23.5t70 25.5t53 29.5t21 35q0 3 0.5 15.5t0.5 25.5q0 14 -2 25t-8 13q-27 -11 -57.5 -29.5t-61.5 -36t-62 -30.5t-59 -13 q-19 0 -22 10.5t-3 27.5q0 28 12 42.5t30 22.5t39.5 13.5t39.5 16.5q6 3 24.5 14.5t39.5 25t40 26t28 18.5q6 4 15 12.5t9 11.5q3 14 1 21.5t-7 11.5t-12.5 4.5t-16.5 0.5q-29 0 -52.5 -15.5t-46 -34t-45.5 -34t-50 -15.5q-15 0 -19 8t-4 29q0 14 3.5 26.5t8 25t8.5 25 t5 26.5q30 11 61 22.5t55.5 24.5t40.5 27.5t16 31.5q0 7 -1 20t-12 16q-22 -9 -46 -22.5t-48.5 -28t-49 -28t-48.5 -22.5q-1 1 -10 1q-15 0 -28 -10h-10l-9 -22q-6 -11 -10.5 -24.5t-9.5 -27.5l-6 -17q2 4 3 5q-8 -36 -12 -77.5t-6.5 -80.5t-5.5 -71t-9 -48 q-1 -3 -6.5 -12.5t-5.5 -11.5q-2 -7 -4 -24t-4 -36t-3 -36t-1 -24zM363 680q-7 18 -24.5 36.5t-38.5 34t-42 27t-34 14.5l-12 3q-13 3 -37 -15.5t-49 -46t-45.5 -57t-27.5 -47.5l41 -8q8 -2 23.5 13t33.5 36t35 42t29 33q11 -12 26 -25t30 -24.5t28.5 -18.5t22.5 -5z" />
<glyph unicode="&#xeb;" horiz-adv-x="420" d="M73 418q0 -1 -0.5 -1.5t-0.5 -1.5zM19 2q2 -7 6.5 -15t11 -15.5t14 -12.5t16.5 -5q25 0 34.5 5t11.5 14.5t1 23t4 30.5q2 12 24.5 23.5t55 23t70.5 23.5t70 25.5t53 29.5t21 35q0 3 0.5 15.5t0.5 25.5q0 14 -2 25t-8 13q-27 -11 -57.5 -29.5t-61.5 -36t-62 -30.5t-59 -13 q-19 0 -22 10.5t-3 27.5q0 28 12 42.5t30 22.5t39.5 13.5t39.5 16.5q6 3 24.5 14.5t39.5 25t40 26t28 18.5q6 4 15 12.5t9 11.5q3 14 1 21.5t-7 11.5t-12.5 4.5t-16.5 0.5q-29 0 -52.5 -15.5t-46 -34t-45.5 -34t-50 -15.5q-15 0 -19 8t-4 29q0 14 3.5 26.5t8 25t8.5 25 t5 26.5q30 11 61 22.5t55.5 24.5t40.5 27.5t16 31.5q0 7 -1 20t-12 16q-22 -9 -46 -22.5t-48.5 -28t-49 -28t-48.5 -22.5q-1 1 -10 1q-15 0 -28 -10h-10l-9 -22q-6 -11 -10.5 -24.5t-9.5 -27.5l-6 -17q2 4 3 5q-8 -36 -12 -77.5t-6.5 -80.5t-5.5 -71t-9 -48 q-1 -3 -6.5 -12.5t-5.5 -11.5q-2 -7 -4 -24t-4 -36t-3 -36t-1 -24zM67 738q0 -21 13.5 -38t34.5 -22q11 -2 20 4t15.5 16t10 21t3.5 19q0 21 -8.5 35t-33.5 14q-24 0 -39.5 -10.5t-15.5 -38.5zM280 738q0 -21 13.5 -38t34.5 -22q11 -2 20 4t15.5 16t10 21t3.5 19 q0 21 -8.5 35t-33.5 14q-24 0 -39.5 -10.5t-15.5 -38.5z" />
<glyph unicode="&#xec;" horiz-adv-x="180" d="M11 59q0 -21 12.5 -37.5t36.5 -21.5q16 -4 27.5 16.5t19 54.5t12 76t7 80.5t4 68.5t2.5 40q1 8 3 35.5t4 60t3.5 63t1.5 45.5v40q0 7 0.5 16.5t-1 18.5t-6.5 15.5t-16 6.5q-17 0 -31.5 -9t-17.5 -28l-60 -516q0 -3 -0.5 -12t-0.5 -13zM190 698q-7 17 -22 35t-33.5 32.5 t-37.5 23.5t-32 9h-24t-15.5 -1.5t-5 -6t8.5 -13.5q7 -9 23.5 -24t34.5 -29.5t35.5 -24.5t27.5 -8z" />
<glyph unicode="&#xed;" horiz-adv-x="173" d="M11 59q0 4 0.5 13t0.5 12l60 516q3 19 17.5 28t31.5 9q11 0 16 -6.5t6.5 -15.5t1 -18.5t-0.5 -16.5v-40q0 -15 -1.5 -45.5t-3.5 -63t-4 -60t-3 -35.5q-1 -10 -2.5 -40t-4 -68.5t-7 -80.5t-12 -76t-19 -54.5t-27.5 -16.5q-24 5 -36.5 21.5t-12.5 37.5zM13 701q6 17 21 35 t33 32.5t36.5 23.5t31.5 9h23t15.5 -1.5t5 -6t-8.5 -13.5q-7 -9 -22.5 -24t-33.5 -29.5t-35 -24.5t-27 -8z" />
<glyph unicode="&#xee;" horiz-adv-x="173" d="M11 59q0 -21 12.5 -37.5t36.5 -21.5q16 -4 27.5 16.5t19 54.5t12 76t7 80.5t4 68.5t2.5 40q1 8 3 35.5t4 60t3.5 63t1.5 45.5v40q0 7 0.5 16.5t-1 18.5t-6.5 15.5t-16 6.5q-17 0 -31.5 -9t-17.5 -28l-60 -516q0 -3 -0.5 -12t-0.5 -13zM276 697q-7 18 -24.5 36.5t-38.5 34 t-42 27t-34 14.5l-12 3q-14 3 -35.5 -7.5t-43.5 -28.5t-40.5 -39.5t-25.5 -39.5l41 -8q8 -2 21.5 5t28.5 18.5t30.5 25t26.5 24.5q10 -12 25 -25.5t30.5 -24.5t29.5 -18t22 -5z" />
<glyph unicode="&#xef;" horiz-adv-x="173" d="M11 59q0 -21 12.5 -37.5t36.5 -21.5q16 -4 27.5 16.5t19 54.5t12 76t7 80.5t4 68.5t2.5 40q1 8 3 35.5t4 60t3.5 63t1.5 45.5v40q0 7 0.5 16.5t-1 18.5t-6.5 15.5t-16 6.5q-17 0 -31.5 -9t-17.5 -28l-60 -516q0 -3 -0.5 -12t-0.5 -13zM-21 756q0 -21 13.5 -38t34.5 -22 q11 -2 20 4t15.5 16t10 21t3.5 19q0 21 -8.5 35t-33.5 14q-24 0 -39.5 -10.5t-15.5 -38.5zM144 754q0 -21 13.5 -38t34.5 -22q11 -2 20 4t15.5 16t10 21t3.5 19q0 21 -8.5 35t-33.5 14q-24 0 -39.5 -10.5t-15.5 -38.5z" />
<glyph unicode="&#xf0;" horiz-adv-x="575" d="M127 458q6 0 24 0.5t43.5 1t56 1.5t61.5 2q-7 -16 -31.5 -30t-58 -28t-70.5 -29t-68 -31t-51.5 -34.5t-20.5 -40.5q0 -14 18.5 -34t43.5 -40.5t49 -37.5t35 -26l132 -132q3 0 12 -0.5t12 -0.5q25 0 39.5 16t21 38.5t8.5 47.5t3 43q0 7 0.5 28t1.5 49.5t2.5 60.5t2.5 60.5 t2.5 49.5t2.5 28v15q0 13 2 30q31 0 50.5 -1t21.5 -3q3 0 9 -0.5t9 -0.5q10 0 23.5 7.5t24.5 18.5t17.5 22t1.5 19q-3 4 -16 7t-33 6t-46.5 5.5t-56.5 4.5q2 18 3 31t2 16v12q-15 21 -22 29t-25 8q-14 0 -23 -8t-14 -20.5t-7 -29t-2 -33.5l-185 6zM278 120 q-16 14 -35.5 34.5t-38 41t-34 39t-24.5 29.5q6 7 29 24t49.5 34.5t50 31t31.5 13.5q0 -7 -0.5 -25t-1.5 -38.5t-1.5 -38.5t-0.5 -25q0 -11 -1.5 -29t-3.5 -35t-4 -30t-3 -14z" />
<glyph unicode="&#xf1;" horiz-adv-x="576" d="M120 396q0 -7 4.5 -18t9.5 -21q5 -6 10 -9t28 -15q19 -9 46 -22t56.5 -27.5t58.5 -29t52.5 -26t38.5 -18.5l15 -7q1 0 3 0.5l2 0.5q3 3 7.5 12t4.5 12q0 7 -20 23.5t-50.5 36.5t-67.5 41.5t-71.5 39t-62.5 29t-40 11.5q-6 0 -15 -1.5t-9 -11.5zM12 47q0 49 3.5 104 t8.5 110t11.5 108t12.5 99q-2 3 -4 9.5t-4 14t-3 14.5t-1 10q0 9 5 23t13 27.5t19 23.5t23 10q16 0 24 -7.5t11 -19t2.5 -25.5t-0.5 -27q0 -18 11 -29q25 -11 58 -29.5t69 -38.5t71.5 -37.5t65.5 -26.5q1 0 10 -0.5t14 -0.5q3 0 12 0.5t12 0.5q10 60 12.5 120t-0.5 120 q11 26 25 32t35 6q17 0 26.5 -5t9.5 -26v-7q-3 -35 -6.5 -83t-7.5 -100t-8 -103t-7 -91.5t-5 -65.5l-2 -25l-1 -70h-84q-7 4 -11.5 15.5t-8.5 25t-8.5 25.5t-11.5 17q-9 5 -30.5 16t-49 24t-56.5 27t-53.5 25.5t-40.5 19t-17 7.5h-36l-2 -9.5t-4 -23t-3.5 -27.5t-2.5 -24 q-2 -8 -4 -30t-4 -47t-3 -47.5t-1 -31.5q1 -17 -6 -21t-17 -4q-9 0 -19.5 3.5t-20 10t-15.5 15t-6 19.5zM146 718q5 17 19 35.5t30.5 34.5t33 28t26.5 15q16 4 29 -1.5t24.5 -15t22 -20t21.5 -14.5q9 11 20 20.5t22.5 15.5t22 8.5t16.5 1.5l31 -8q-5 -17 -19 -34.5 t-30 -32.5t-32 -26t-26 -14l-9 -3q-6 -3 -16 2q-14 6 -32 22t-30 31l-13 18q-9 -11 -20 -24t-22.5 -24t-21.5 -18t-16 -5z" />
<glyph unicode="&#xf2;" d="M184 106l115 -138l211 325q13 20 6.5 41t-21.5 41.5t-34 40t-31 36.5q-26 39 -39 83.5t-21 89.5q-3 10 -11.5 12.5t-17.5 2.5h-10q-29 0 -53.5 -25.5t-46 -60.5t-40.5 -71.5t-37 -57.5q-5 -6 -18.5 -21.5t-29 -33t-29 -32.5t-19.5 -19q0 -4 -1.5 -11t-0.5 -9 q8 -25 26 -46t38.5 -42.5t38.5 -46.5t25 -58zM190 312q0 11 13 36.5t30.5 52t35.5 46.5t27 20q12 0 29 -14.5t32 -35t26 -42t11 -35.5q0 -20 -12 -54.5t-29.5 -68.5t-36.5 -59t-32 -25q-14 0 -30.5 22t-30.5 51.5t-23.5 59.5t-9.5 46zM404 706q-7 18 -22.5 36.5t-34.5 34 t-38 25t-32 9.5q-29 0 -41.5 -1.5t3.5 -20.5q8 -9 24.5 -25t35 -31.5t36 -26t28.5 -8.5z" />
<glyph unicode="&#xf3;" d="M190 312q0 -16 9.5 -46t23.5 -59.5t30.5 -51.5t30.5 -22q13 0 32 25t36.5 59t29.5 68.5t12 54.5q0 14 -11 35.5t-26 42t-32 35t-29 14.5q-9 0 -27 -20t-35.5 -46.5t-30.5 -52t-13 -36.5zM184 106q-7 33 -25 58t-38.5 46.5t-38.5 42.5t-26 46q-1 2 0.5 9t1.5 11 q6 4 19.5 19t29 32.5t29 33t18.5 21.5q18 21 37 57.5t40.5 71.5t46 60.5t53.5 25.5h10q9 0 17.5 -2.5t11.5 -12.5q8 -45 21 -89.5t39 -83.5q12 -17 31 -36.5t34 -40t21.5 -41.5t-6.5 -41l-211 -325zM219 700q7 18 22.5 36.5t34 34t37.5 25t33 9.5h25t16.5 -1.5t5 -6 t-8.5 -14.5q-8 -9 -24.5 -25t-35 -31.5t-36.5 -26t-28 -8.5z" />
<glyph unicode="&#xf4;" d="M184 106l115 -138l211 325q13 20 6.5 41t-21.5 41.5t-34 40t-31 36.5q-26 39 -39 83.5t-21 89.5q-3 10 -11.5 12.5t-17.5 2.5h-10q-29 0 -53.5 -25.5t-46 -60.5t-40.5 -71.5t-37 -57.5q-5 -6 -18.5 -21.5t-29 -33t-29 -32.5t-19.5 -19q0 -4 -1.5 -11t-0.5 -9 q8 -25 26 -46t38.5 -42.5t38.5 -46.5t25 -58zM190 312q0 11 13 36.5t30.5 52t35.5 46.5t27 20q12 0 29 -14.5t32 -35t26 -42t11 -35.5q0 -20 -12 -54.5t-29.5 -68.5t-36.5 -59t-32 -25q-14 0 -30.5 22t-30.5 51.5t-23.5 59.5t-9.5 46zM455 698q-7 18 -24.5 36.5t-38.5 34 t-42 27t-34 14.5l-12 3q-13 3 -35 -7.5t-44 -28.5t-40.5 -39.5t-25.5 -39.5l41 -8q8 -2 21.5 5t28.5 18.5t30 24.5t27 25q11 -12 26 -25t30 -24.5t28.5 -18.5t22.5 -5z" />
<glyph unicode="&#xf5;" d="M190 312q0 -16 9.5 -46t23.5 -59.5t30.5 -51.5t30.5 -22q13 0 32 25t36.5 59t29.5 68.5t12 54.5q0 14 -11 35.5t-26 42t-32 35t-29 14.5q-9 0 -27 -20t-35.5 -46.5t-30.5 -52t-13 -36.5zM184 106q-7 33 -25 58t-38.5 46.5t-38.5 42.5t-26 46q-1 2 0.5 9t1.5 11 q6 4 19.5 19t29 32.5t29 33t18.5 21.5q18 21 37 57.5t40.5 71.5t46 60.5t53.5 25.5h10q9 0 17.5 -2.5t11.5 -12.5q8 -45 21 -89.5t39 -83.5q12 -17 31 -36.5t34 -40t21.5 -41.5t-6.5 -41l-211 -325zM164 727q5 17 19 35.5t30.5 34.5t33 28t26.5 15q16 4 29 -1.5t24.5 -15 t22 -20t21.5 -14.5q9 11 20 20.5t22.5 15.5t22 8.5t16.5 1.5l31 -8q-5 -17 -19 -34.5t-30 -32.5t-32 -26t-26 -14l-9 -3q-6 -3 -16 2q-14 6 -32 22t-30 31l-13 18q-9 -11 -20 -24t-22.5 -24t-21.5 -18t-16 -5z" />
<glyph unicode="&#xf6;" d="M184 106l115 -138l211 325q13 20 6.5 41t-21.5 41.5t-34 40t-31 36.5q-26 39 -39 83.5t-21 89.5q-3 10 -11.5 12.5t-17.5 2.5h-10q-29 0 -53.5 -25.5t-46 -60.5t-40.5 -71.5t-37 -57.5q-5 -6 -18.5 -21.5t-29 -33t-29 -32.5t-19.5 -19q0 -4 -1.5 -11t-0.5 -9 q8 -25 26 -46t38.5 -42.5t38.5 -46.5t25 -58zM190 312q0 11 13 36.5t30.5 52t35.5 46.5t27 20q12 0 29 -14.5t32 -35t26 -42t11 -35.5q0 -20 -12 -54.5t-29.5 -68.5t-36.5 -59t-32 -25q-14 0 -30.5 22t-30.5 51.5t-23.5 59.5t-9.5 46zM157 770q0 -21 13.5 -38t34.5 -22 q11 -2 20 4t15.5 16t10 21t3.5 19q0 21 -8.5 35t-33.5 14q-24 0 -39.5 -10.5t-15.5 -38.5zM370 770q0 -21 13.5 -38t34.5 -22q11 -2 20 4t15.5 16t10 21t3.5 19q0 21 -8.5 35t-33.5 14q-24 0 -39.5 -10.5t-15.5 -38.5z" />
<glyph unicode="&#xf7;" horiz-adv-x="454" d="M15 366l-3 -113q8 0 36 1t66 2t80 2t78 1.5t60 -0.5t25 -3q3 0 9 -0.5t9 -0.5q10 0 23.5 7.5t24.5 18.5t17.5 22t1.5 19q-4 6 -36 11t-78 9t-98.5 7t-98.5 6t-78.5 5.5t-37.5 5.5zM170 140q0 -21 13.5 -38t34.5 -22q11 -2 20 4t15.5 16t10 21t3.5 19q0 21 -8.5 35 t-33.5 14q-24 0 -39.5 -10.5t-15.5 -38.5zM170 474q0 -21 13.5 -38t34.5 -22q11 -2 20 4t15.5 16t10 21t3.5 19q0 21 -8.5 35t-33.5 14q-24 0 -39.5 -10.5t-15.5 -38.5z" />
<glyph unicode="&#xf8;" d="M107 47q-9 -21 -3.5 -37.5t27.5 -21.5q15 -5 37 19.5t45 62.5l86 -102l211 325q13 20 6.5 41t-21.5 41.5t-34 40t-31 36.5q-5 6 -8.5 12.5t-7.5 13.5q8 16 13 29t9 21l16 40q3 7 7.5 16.5t6.5 18.5t-0.5 15.5t-13.5 6.5q-17 0 -34.5 -9t-28.5 -28l-9 -16q-3 13 -5.5 26 t-4.5 27q-3 10 -11.5 12.5t-17.5 2.5h-10q-29 0 -53.5 -25.5t-46 -60.5t-40.5 -71.5t-37 -57.5q-5 -6 -18.5 -21.5t-29 -33t-29 -32.5t-19.5 -19q0 -4 -1.5 -11t-0.5 -9q6 -20 18.5 -37t28 -33.5t31.5 -33.5t29 -38l-45 -85q-2 -3 -6 -12t-5 -13zM340 324q4 6 13 24.5 t21 43.5q9 -15 14.5 -28.5t5.5 -23.5q0 -20 -12 -54.5t-29.5 -68.5t-36.5 -59t-32 -25q-12 0 -27 17q15 29 28.5 57t24.5 51.5t18.5 41t11.5 24.5zM190 312q0 11 13 36.5t30.5 52t35.5 46.5t27 20q10 0 24 -11l-113 -214q-8 21 -12.5 40t-4.5 30z" />
<glyph unicode="&#xf9;" horiz-adv-x="490" d="M132 574q-18 25 -55 25q-6 0 -14 -1t-15.5 -3.5t-12.5 -7.5t-5 -13v-264l-23 -90q0 -4 3 -9t2 -9q3 -7 7.5 -10t17.5 -6q7 -2 16.5 -5t18.5 -6t15.5 -5.5t8.5 -3.5q8 -4 30.5 -18t51.5 -32.5t62 -39.5t61.5 -38t49.5 -28.5t27 -11.5q18 0 32.5 12.5t25 30t16 36.5t5.5 32 t1 41t1.5 63.5t1.5 76t1 78.5q0 39 -1 72.5t-4 55.5q0 10 -2 24t-7 26t-14.5 20.5t-24.5 8.5t-32 -9t-17 -28v-384q0 -4 -3 -10t-7.5 -12t-10 -10t-9.5 -4q-11 0 -30.5 10t-43 26t-48 35.5t-44.5 39t-32.5 36.5t-12.5 27l14 228v10v33zM339 668q-7 18 -22.5 36.5t-34.5 34 t-38 25t-32 9.5q-29 0 -41.5 -1.5t3.5 -20.5q8 -9 24.5 -25t35 -31.5t36 -26t28.5 -8.5z" />
<glyph unicode="&#xfa;" horiz-adv-x="490" d="M132 574l1 -11v-33v-10l-14 -228q0 -10 12.5 -27t32.5 -36.5t44.5 -39t48 -35.5t43 -26t30.5 -10q4 0 9.5 4t10 10t7.5 12t3 10v384q0 19 17 28t32 9t24.5 -8.5t14.5 -20.5t7 -26t2 -24q3 -22 4 -55.5t1 -72.5q0 -38 -1 -78.5t-1.5 -76t-1.5 -63.5t-1 -41t-5.5 -32 t-16 -36.5t-25 -30t-32.5 -12.5q-6 0 -27 11.5t-49.5 28.5t-61.5 38t-62 39.5t-51.5 32.5t-30.5 18q-2 1 -8.5 3.5t-15.5 5.5t-18.5 6t-16.5 5q-13 3 -17.5 6t-7.5 10q1 4 -2 9t-3 9l23 90v264q0 8 5 13t12.5 7.5t15.5 3.5t14 1q37 0 55 -25zM192 690q7 18 22.5 36.5t34 34 t37.5 25t33 9.5h25t16.5 -1.5t5 -6t-8.5 -14.5q-8 -9 -24.5 -25t-35 -31.5t-36.5 -26t-28 -8.5z" />
<glyph unicode="&#xfb;" horiz-adv-x="490" d="M132 574q-18 25 -55 25q-6 0 -14 -1t-15.5 -3.5t-12.5 -7.5t-5 -13v-264l-23 -90q0 -4 3 -9t2 -9q3 -7 7.5 -10t17.5 -6q7 -2 16.5 -5t18.5 -6t15.5 -5.5t8.5 -3.5q8 -4 30.5 -18t51.5 -32.5t62 -39.5t61.5 -38t49.5 -28.5t27 -11.5q18 0 32.5 12.5t25 30t16 36.5t5.5 32 t1 41t1.5 63.5t1.5 76t1 78.5q0 39 -1 72.5t-4 55.5q0 10 -2 24t-7 26t-14.5 20.5t-24.5 8.5t-32 -9t-17 -28v-384q0 -4 -3 -10t-7.5 -12t-10 -10t-9.5 -4q-11 0 -30.5 10t-43 26t-48 35.5t-44.5 39t-32.5 36.5t-12.5 27l14 228v10v33zM383 696q-7 18 -24.5 36.5t-38.5 34 t-42 27t-34 14.5l-12 3q-13 3 -35 -7.5t-44 -28.5t-40.5 -39.5t-25.5 -39.5l41 -8q8 -2 21.5 5t28.5 18.5t30 24.5t27 25q11 -12 26 -25t30 -24.5t28.5 -18.5t22.5 -5z" />
<glyph unicode="&#xfc;" horiz-adv-x="490" d="M132 574q-18 25 -55 25q-6 0 -14 -1t-15.5 -3.5t-12.5 -7.5t-5 -13v-264l-23 -90q0 -4 3 -9t2 -9q3 -7 7.5 -10t17.5 -6q7 -2 16.5 -5t18.5 -6t15.5 -5.5t8.5 -3.5q8 -4 30.5 -18t51.5 -32.5t62 -39.5t61.5 -38t49.5 -28.5t27 -11.5q18 0 32.5 12.5t25 30t16 36.5t5.5 32 t1 41t1.5 63.5t1.5 76t1 78.5q0 39 -1 72.5t-4 55.5q0 10 -2 24t-7 26t-14.5 20.5t-24.5 8.5t-32 -9t-17 -28v-384q0 -4 -3 -10t-7.5 -12t-10 -10t-9.5 -4q-11 0 -30.5 10t-43 26t-48 35.5t-44.5 39t-32.5 36.5t-12.5 27l14 228v10v33zM102 758q0 -21 13.5 -38t34.5 -22 q11 -2 20 4t15.5 16t10 21t3.5 19q0 21 -8.5 35t-33.5 14q-24 0 -39.5 -10.5t-15.5 -38.5zM315 758q0 -21 13.5 -38t34.5 -22q11 -2 20 4t15.5 16t10 21t3.5 19q0 21 -8.5 35t-33.5 14q-24 0 -39.5 -10.5t-15.5 -38.5z" />
<glyph unicode="&#xfd;" horiz-adv-x="528" d="M343 437q9 7 24 30t31.5 47.5t33.5 43.5t31 19q52 0 52 -50q0 -22 -14.5 -45t-35.5 -45t-46.5 -43.5t-46.5 -40.5t-35.5 -35.5t-14.5 -29.5v-240q0 -9 -6 -18t-14.5 -15.5t-17.5 -11t-16 -4.5q-2 0 -4 0.5l-2 0.5q-22 17 -30 23.5t-8 23.5q0 43 7.5 82.5t7.5 86.5v22 q0 15 -2.5 27t-2.5 28v20q-9 14 -29 29.5t-45 32.5t-51.5 35t-48.5 37.5t-36 39.5t-14 41q0 12 6 21t15 15.5t19.5 9.5t19.5 3q18 0 31 -10.5t24.5 -27t21.5 -35t21.5 -35t26 -27t33.5 -10.5q1 0 3.5 0.5l2.5 0.5q3 1 8.5 3.5t7.5 5.5q0 7 -1 31t-1 43t1 35.5t1 24.5 q0 7 4.5 16t11.5 16t15.5 12t16.5 5q2 0 6 -0.5t6 -0.5q4 -2 10 -5.5l12 -7t10 -7t4 -4.5l-15 -151zM197 696q7 18 22.5 36.5t34 34t37.5 25t33 9.5h25t16.5 -1.5t5 -6t-8.5 -14.5q-8 -9 -24.5 -25t-35 -31.5t-36.5 -26t-28 -8.5z" />
<glyph unicode="&#xfe;" horiz-adv-x="420" d="M11 -18q0 25 5 51.5t12 53.5t13 53.5t9 52.5q10 108 19.5 210.5t26.5 209.5q14 17 25 21t29 4q23 0 27 -8.5t4 -28.5v-5q0 -8 -1.5 -24.5t-3 -34t-2.5 -33t-1 -21.5q0 -8 7 -14q13 -12 43.5 -25t65.5 -34t68.5 -53t51.5 -80v-2q0 -3 -0.5 -6t-0.5 -4q-10 -11 -24.5 -26.5 t-31 -31.5t-33.5 -29.5t-31 -20.5q-41 -20 -68.5 -31t-45 -17.5t-28 -9t-18.5 -5.5t-11.5 -10.5t-5.5 -19.5t-4 -28t-6 -35l-1 -3q0 -1 -1 -1v-1t-0.5 -2t-0.5 -2q-2 -6 -4 -15t-4.5 -17t-5 -14t-5.5 -6h-20q-21 0 -34.5 9.5t-13.5 32.5zM164 370q-4 0 -6.5 1.5t-4.5 3.5 t-3 2q-2 0 -3.5 -10.5t-4.5 -42.5q-2 -23 -6 -60t-10 -93q0 -2 17 6.5t40 20.5l46 24t35 19q17 12 21 18.5t4 23.5q0 15 -15 30t-35 28t-41.5 21t-33.5 8z" />
<glyph unicode="&#xff;" horiz-adv-x="528" d="M331 449l15 151q0 1 -4 4.5t-10 7l-12 7t-10 5.5q-2 0 -6 0.5t-6 0.5q-8 0 -16.5 -5t-15.5 -12t-11.5 -16t-4.5 -16q0 -8 -1 -24.5t-1 -35.5t1 -43t1 -31q-2 -3 -7.5 -5.5t-8.5 -3.5l-2.5 -0.5t-3.5 -0.5q-19 0 -33.5 10.5t-26 27t-21.5 35t-21.5 35t-24.5 27t-31 10.5 q-9 0 -19.5 -3t-19.5 -9.5t-15 -15.5t-6 -21q0 -21 14 -41t36 -39.5t48.5 -37.5t51.5 -35t45 -32.5t29 -29.5v-20q0 -16 2.5 -28t2.5 -27v-22q0 -47 -7.5 -86.5t-7.5 -82.5q0 -17 8 -23.5t30 -23.5l2 -0.5t4 -0.5q7 0 16 4.5t17.5 11t14.5 15.5t6 18v240q0 13 14.5 29.5 t35.5 35.5t46.5 40.5t46.5 43.5t35.5 45t14.5 45q0 50 -52 50q-14 0 -31 -19t-33.5 -43.5t-31.5 -47.5t-24 -30zM141 750q0 -21 13.5 -38t34.5 -22q11 -2 20 4t15.5 16t10 21t3.5 19q0 21 -8.5 35t-33.5 14q-24 0 -39.5 -10.5t-15.5 -38.5zM354 750q0 -21 13.5 -38t34.5 -22 q11 -2 20 4t15.5 16t10 21t3.5 19q0 21 -8.5 35t-33.5 14q-24 0 -39.5 -10.5t-15.5 -38.5z" />
<glyph unicode="&#x152;" horiz-adv-x="729" d="M112 370l52 33q1 0 18 13t40 31t46.5 36.5t38.5 30.5q16 12 25 21.5t18.5 16t23.5 10t40 3.5h5q5 -2 17 -11t16 -13v-5q0 -22 -19 -42t-48 -38q-14 -9 -29.5 -18t-32.5 -18q-33 -18 -156 -126q10 -43 32.5 -74.5t50.5 -55.5t57.5 -41t54 -30t40.5 -24t16 -22 q0 -17 -10 -32t-38 -15q-61 0 -129 51t-146 165l-66 96zM671 280q-8 -17 -19 -26t-24.5 -12t-29 -1.5t-31.5 5.5q-32 11 -59 8.5t-54 -22.5q45 -38 74.5 -61t43.5 -31q17 -9 32.5 -18t29.5 -18q29 -18 48 -38t19 -42v-5q-2 -2 -6.5 -5.5t-9.5 -7.5t-9.5 -7t-7.5 -4h-5 q-26 0 -40 3.5t-23.5 10t-18.5 16t-25 21.5q-15 12 -38.5 30.5t-46.5 36.5t-40 31t-18 13l-52 33l-83 58l66 96q78 114 146 165t129 51q28 0 38 -15t10 -32q0 -15 -25.5 -29t-61 -33.5t-74 -48.5t-64.5 -72l26 4q22 -5 44.5 -1.5t44 9t43 8.5t41.5 -3q29 -8 34.5 -25.5 t-2.5 -41.5h-2z" />
<glyph unicode="&#x153;" horiz-adv-x="729" d="M112 370l52 33q1 0 18 13t40 31t46.5 36.5t38.5 30.5q16 12 25 21.5t18.5 16t23.5 10t40 3.5h5q5 -2 17 -11t16 -13v-5q0 -22 -19 -42t-48 -38q-14 -9 -29.5 -18t-32.5 -18q-33 -18 -156 -126q10 -43 32.5 -74.5t50.5 -55.5t57.5 -41t54 -30t40.5 -24t16 -22 q0 -17 -10 -32t-38 -15q-61 0 -129 51t-146 165l-66 96zM671 280q-8 -17 -19 -26t-24.5 -12t-29 -1.5t-31.5 5.5q-32 11 -59 8.5t-54 -22.5q45 -38 74.5 -61t43.5 -31q17 -9 32.5 -18t29.5 -18q29 -18 48 -38t19 -42v-5q-2 -2 -6.5 -5.5t-9.5 -7.5t-9.5 -7t-7.5 -4h-5 q-26 0 -40 3.5t-23.5 10t-18.5 16t-25 21.5q-15 12 -38.5 30.5t-46.5 36.5t-40 31t-18 13l-52 33l-83 58l66 96q78 114 146 165t129 51q28 0 38 -15t10 -32q0 -15 -25.5 -29t-61 -33.5t-74 -48.5t-64.5 -72l26 4q22 -5 44.5 -1.5t44 9t43 8.5t41.5 -3q29 -8 34.5 -25.5 t-2.5 -41.5h-2z" />
<glyph unicode="&#x178;" horiz-adv-x="456" d="M444 534q0 32 -16 43.5t-45 11.5q-21 0 -31 -14.5t-14 -36t-5 -46.5t-4.5 -46.5t-12.5 -36t-28 -14.5q-3 0 -7 0.5t-5 0.5q-25 18 -50 39t-50 41.5t-51 40t-53 35.5h-6q-55 0 -55 -54q0 -13 17.5 -30t44.5 -35.5t60 -38.5t64 -39t55.5 -36t35.5 -31v-9q0 -5 0.5 -12 t0.5 -13v-8q0 -25 -4 -49.5t-9 -49.5t-9 -50t-4 -50t5.5 -37t31.5 -12q21 0 35 6t25 32q11 105 22.5 205.5t37.5 202.5q6 24 15 43t9 47zM79 729q0 -21 13.5 -38t34.5 -22q11 -2 20 4t15.5 16t10 21t3.5 19q0 21 -8.5 35t-33.5 14q-24 0 -39.5 -10.5t-15.5 -38.5zM292 729 q0 -21 13.5 -38t34.5 -22q11 -2 20 4t15.5 16t10 21t3.5 19q0 21 -8.5 35t-33.5 14q-24 0 -39.5 -10.5t-15.5 -38.5z" />
<glyph unicode="&#x2c6;" horiz-adv-x="331" d="M307 697q-7 18 -24.5 36.5t-38.5 34t-42 27t-34 14.5l-12 3q-14 3 -35.5 -7.5t-43.5 -28.5t-40.5 -39.5t-25.5 -39.5l41 -8q8 -2 21.5 5t28.5 18.5t30.5 25t26.5 24.5q10 -12 25 -25.5t30.5 -24.5t29.5 -18t22 -5z" />
<glyph unicode="&#x2dc;" horiz-adv-x="350" d="M18 681q5 17 19 35.5t30.5 35t33 28t26.5 14.5q16 4 28.5 -2t23.5 -15.5t22 -19.5t23 -14q19 23 43 35.5t38 10.5l31 -8q-5 -17 -18.5 -34.5t-30 -32.5t-32.5 -26t-26 -14l-9 -3q-4 -3 -16 2q-14 6 -32 22t-30 31l-13 18q-9 -11 -20 -24t-22.5 -24t-21.5 -18t-16 -5z" />
<glyph unicode="&#x2000;" horiz-adv-x="420" />
<glyph unicode="&#x2001;" horiz-adv-x="841" />
<glyph unicode="&#x2002;" horiz-adv-x="420" />
<glyph unicode="&#x2003;" horiz-adv-x="841" />
<glyph unicode="&#x2004;" horiz-adv-x="280" />
<glyph unicode="&#x2005;" horiz-adv-x="210" />
<glyph unicode="&#x2006;" horiz-adv-x="140" />
<glyph unicode="&#x2007;" horiz-adv-x="140" />
<glyph unicode="&#x2008;" horiz-adv-x="105" />
<glyph unicode="&#x2009;" horiz-adv-x="168" />
<glyph unicode="&#x200a;" horiz-adv-x="46" />
<glyph unicode="&#x2010;" horiz-adv-x="454" d="M15 366q5 -3 37.5 -5.5t78.5 -5.5t98.5 -6t98.5 -7t78 -9t36 -11q5 -8 -1.5 -19t-17.5 -22t-24.5 -18.5t-23.5 -7.5q-3 0 -9 0.5t-9 0.5q-1 2 -25 3t-60 0.5t-78 -1.5t-80 -2t-66 -2t-36 -1z" />
<glyph unicode="&#x2011;" horiz-adv-x="454" d="M15 366q5 -3 37.5 -5.5t78.5 -5.5t98.5 -6t98.5 -7t78 -9t36 -11q5 -8 -1.5 -19t-17.5 -22t-24.5 -18.5t-23.5 -7.5q-3 0 -9 0.5t-9 0.5q-1 2 -25 3t-60 0.5t-78 -1.5t-80 -2t-66 -2t-36 -1z" />
<glyph unicode="&#x2012;" horiz-adv-x="454" d="M15 366q5 -3 37.5 -5.5t78.5 -5.5t98.5 -6t98.5 -7t78 -9t36 -11q5 -8 -1.5 -19t-17.5 -22t-24.5 -18.5t-23.5 -7.5q-3 0 -9 0.5t-9 0.5q-1 2 -25 3t-60 0.5t-78 -1.5t-80 -2t-66 -2t-36 -1z" />
<glyph unicode="&#x2013;" horiz-adv-x="454" d="M15 366q5 -3 37.5 -5.5t78.5 -5.5t98.5 -6t98.5 -7t78 -9t36 -11q5 -8 -1.5 -19t-17.5 -22t-24.5 -18.5t-23.5 -7.5q-3 0 -9 0.5t-9 0.5q-1 2 -25 3t-60 0.5t-78 -1.5t-80 -2t-66 -2t-36 -1z" />
<glyph unicode="&#x2014;" horiz-adv-x="573" d="M15 366l-3 -113q8 0 44.5 1t87 2.5t107 3t104.5 2t80.5 0t33.5 -3.5q3 0 9 -0.5t9 -0.5q10 0 23.5 7.5t24.5 18.5t17.5 22t1.5 19q-4 6 -44.5 11t-98.5 8.5t-125.5 6.5t-126 5.5t-99 5t-45.5 5.5z" />
<glyph unicode="&#x2018;" horiz-adv-x="144" d="M114 538l14 110q-11 2 -29.5 -12t-36.5 -33t-31.5 -38t-13.5 -27q0 -21 8.5 -35t33.5 -14q24 0 39.5 10.5t15.5 38.5z" />
<glyph unicode="&#x2019;" horiz-adv-x="144" d="M32 600l-14 -110q11 -2 29.5 12t36.5 33t31.5 38t13.5 27q0 21 -8.5 35t-33.5 14q-24 0 -39.5 -10.5t-15.5 -38.5z" />
<glyph unicode="&#x201a;" horiz-adv-x="179" d="M45 49q0 28 15.5 38.5t39.5 10.5q25 0 33.5 -14t8.5 -35q0 -5 -6 -16.5t-15 -25.5t-20.5 -29t-23.5 -27.5t-22.5 -19.5t-17.5 -6t-7 13t2.5 27.5l5 31t5 29.5t2.5 23z" />
<glyph unicode="&#x201c;" horiz-adv-x="284" d="M252 540l14 110q-11 2 -29.5 -12t-36.5 -33t-31.5 -38t-13.5 -27q0 -21 8.5 -35t33.5 -14q24 0 39.5 10.5t15.5 38.5zM252 540l14 110q-11 2 -29.5 -12t-36.5 -33t-31.5 -38t-13.5 -27q0 -21 8.5 -35t33.5 -14q24 0 39.5 10.5t15.5 38.5zM114 537l14 110q-11 2 -29.5 -12 t-36.5 -33t-31.5 -38t-13.5 -27q0 -21 8.5 -35t33.5 -14q24 0 39.5 10.5t15.5 38.5zM114 537l14 110q-11 2 -29.5 -12t-36.5 -33t-31.5 -38t-13.5 -27q0 -21 8.5 -35t33.5 -14q24 0 39.5 10.5t15.5 38.5z" />
<glyph unicode="&#x201d;" horiz-adv-x="284" d="M32 600l-14 -110q11 -2 29.5 12t36.5 33t31.5 38t13.5 27q0 21 -8.5 35t-33.5 14q-24 0 -39.5 -10.5t-15.5 -38.5zM32 600l-14 -110q11 -2 29.5 12t36.5 33t31.5 38t13.5 27q0 21 -8.5 35t-33.5 14q-24 0 -39.5 -10.5t-15.5 -38.5zM170 603l-14 -110q11 -2 29.5 12 t36.5 33t31.5 38t13.5 27q0 21 -8.5 35t-33.5 14q-24 0 -39.5 -10.5t-15.5 -38.5zM170 603l-14 -110q11 -2 29.5 12t36.5 33t31.5 38t13.5 27q0 21 -8.5 35t-33.5 14q-24 0 -39.5 -10.5t-15.5 -38.5z" />
<glyph unicode="&#x201e;" horiz-adv-x="324" d="M45 49q0 28 15.5 38.5t39.5 10.5q25 0 33.5 -14t8.5 -35q0 -5 -6 -16.5t-15 -25.5t-20.5 -29t-23.5 -27.5t-22.5 -19.5t-17.5 -6t-7 13t2.5 27.5l5 31t5 29.5t2.5 23zM192 49q0 28 15.5 38.5t39.5 10.5q25 0 33.5 -14t8.5 -35q0 -5 -6 -16.5t-15 -25.5t-20.5 -29 t-23.5 -27.5t-22.5 -19.5t-17.5 -6t-7 13t2.5 27.5l5 31t5 29.5t2.5 23z" />
<glyph unicode="&#x2022;" horiz-adv-x="137" d="M18 310q0 28 15.5 38.5t39.5 10.5q25 0 33.5 -14t8.5 -35q0 -8 -3.5 -19t-10 -21t-15.5 -16t-20 -4q-21 5 -34.5 22t-13.5 38z" />
<glyph unicode="&#x2026;" horiz-adv-x="472" d="M45 49q0 -21 13.5 -38t34.5 -22q11 -2 20 4t15.5 16t10 21t3.5 19q0 21 -8.5 35t-33.5 14q-24 0 -39.5 -10.5t-15.5 -38.5zM186 50q0 -21 13.5 -38t34.5 -22q11 -2 20 4t15.5 16t10 21t3.5 19q0 21 -8.5 35t-33.5 14q-24 0 -39.5 -10.5t-15.5 -38.5zM324 50 q0 -21 13.5 -38t34.5 -22q11 -2 20 4t15.5 16t10 21t3.5 19q0 21 -8.5 35t-33.5 14q-24 0 -39.5 -10.5t-15.5 -38.5z" />
<glyph unicode="&#x202f;" horiz-adv-x="168" />
<glyph unicode="&#x2039;" horiz-adv-x="173" d="M144 151q-18 7 -36.5 24.5t-34 38.5t-27 42t-14.5 34l-3 12q-3 13 7.5 35t28.5 44t39.5 40.5t39.5 25.5l8 -41q1 -8 -5.5 -21.5t-18 -28.5t-24.5 -30t-25 -27q12 -11 25 -26t24.5 -30t18 -28.5t5.5 -22.5z" />
<glyph unicode="&#x203a;" horiz-adv-x="173" d="M38 151q18 7 36.5 24.5t34 38.5t27 42t14.5 34l3 12q3 13 -7.5 35t-28.5 44t-39.5 40.5t-39.5 25.5l-8 -41q-2 -8 5 -21.5t18.5 -28.5t24.5 -30t25 -27q-12 -11 -25 -26t-24.5 -30t-18.5 -28.5t-5 -22.5z" />
<glyph unicode="&#x205f;" horiz-adv-x="210" />
<glyph unicode="&#x20ac;" horiz-adv-x="530" d="M16 334q8 0 39 0.5t73 0.5l-33 -23l25 -37q-43 -1 -71.5 -0.5t-33.5 3.5l-4 -78q11 0 56 1t102 3q76 -108 141.5 -156t125.5 -48q28 0 38 15t10 32q0 13 -22.5 26.5t-54.5 30.5t-68 41.5t-64 60.5q27 0 51.5 0.5t42.5 0t29 -1.5t12 -2q3 0 10 -0.5t11 -0.5q11 0 26.5 7.5 t28.5 18t20.5 21.5t1.5 18q-4 5 -29 7.5t-62.5 3t-84.5 0.5t-94 -1q-4 9 -5 17q14 11 26 21.5t23 20.5h48t40 -1t27.5 -2t11.5 -2q3 0 10 -0.5t10 -0.5q11 0 27 7.5t29 18t20.5 21.5t1.5 18q-3 3 -14.5 5t-30.5 3.5t-43 2t-52 0.5q7 5 12 8.5t10 5.5q17 9 32.5 18t29.5 18 q29 18 48 38t19 42v5q-4 4 -16 13t-17 11h-5q-26 0 -40 -3.5t-23.5 -10t-18.5 -16t-25 -21.5q-14 -11 -35 -28t-42.5 -34t-39 -30.5t-23.5 -17.5q-41 -1 -79 -1.5t-68 -0.5t-49.5 1t-23.5 3z" />
<glyph unicode="&#x2122;" horiz-adv-x="841" d="M174 571v-210q0 -11 9 -12.5t15 -1.5q10 0 16 2t14 12q1 6 2 21.5t2 32.5t2 33t1 22v24q0 12 -0.5 26.5t-1 28t-1 25t-0.5 16.5q10 0 19.5 -6t18.5 -13.5t19.5 -13.5t22.5 -6q13 0 25.5 8.5t22.5 20t18 24.5t13 22v3v3q-4 5 -11.5 13.5t-9.5 8.5q-13 2 -20.5 -5.5 t-13.5 -17t-12 -18t-17 -8.5q-17 0 -28.5 12t-22.5 26t-22 26t-26 12q-10 0 -20.5 -13t-22.5 -28t-25.5 -28t-29.5 -13q-10 0 -15 9.5t-10 21.5t-11.5 21.5t-19.5 9.5t-21 -3.5t-14 -17.5q12 -9 21.5 -24t20 -29.5t23 -25t30.5 -10.5q9 0 16 3t14 7t14.5 7t15.5 3zM411 395 q0 -3 2 -11t6 -15.5t10 -12.5t14 -2q3 1 8.5 5.5t10.5 9.5t9 10.5t5 9.5q1 8 2.5 30t2.5 46.5t2 46.5t1 31q0 3 -1 11.5t0 17t4.5 15t11.5 6.5q20 0 33 -14.5t25 -32t25.5 -32t34.5 -14.5q15 0 27.5 7.5t23 17.5t19 21t15.5 18h9q6 0 10 -1t6 -6q-1 -20 -5 -38.5t-8.5 -37 t-8 -37.5t-3.5 -38q0 -10 0.5 -19.5t4.5 -17t11.5 -12t21.5 -4.5q10 0 16 2t11 13q0 7 1 26t2 40t2.5 40t2.5 26q0 4 1 14t2.5 20t3 18.5t1.5 11.5q5 19 11.5 38t6.5 39v10q0 6 -3 12.5t-14 6.5q-2 0 -5 -0.5t-4 -0.5q-2 0 -8.5 -2.5t-14.5 -4.5t-15 -4.5t-10 -2.5 q-4 -4 -15 -14t-24 -21.5t-25 -21t-17 -13.5q-6 -5 -12 -6.5t-13 -1.5h-8l-121 106q-1 0 -3.5 0.5t-4.5 0.5q-17 0 -29 -17.5t-20 -45.5t-13 -61.5t-7.5 -65.5t-3 -59t-0.5 -40z" />
<glyph unicode="&#x25fc;" horiz-adv-x="635" d="M0 635h635v-635h-635v635z" />
</font>
</defs>
</svg>
