<?xml version="1.0" standalone="no"?>
<!DOCTYPE svg PUBLIC "-//W3C//DTD SVG 20010904//EN"
 "http://www.w3.org/TR/2001/REC-SVG-20010904/DTD/svg10.dtd">
<svg version="1.0" xmlns="http://www.w3.org/2000/svg"
 width="260.000000pt" height="260.000000pt" viewBox="0 0 260.000000 260.000000"
 preserveAspectRatio="xMidYMid meet">
<metadata>
Created by potrace 1.11, written by Peter Selinger 2001-2013
</metadata>
<g transform="translate(0.000000,260.000000) scale(0.100000,-0.100000)"
fill="#000000" stroke="none">
<path d="M1197 2458 c-235 -325 -451 -701 -576 -1000 -181 -438 -219 -857 -99
-1098 40 -81 150 -193 233 -237 150 -79 326 -115 559 -112 214 2 349 27 491
94 239 111 349 309 344 625 -5 408 -202 906 -597 1510 -97 149 -242 350 -253
350 -3 0 -49 -60 -102 -132z"/>
</g>
</svg>
