<?xml version="1.0" encoding="UTF-8"?>
<!DOCTYPE svg PUBLIC "-//W3C//DTD SVG 1.1//EN" "http://www.w3.org/Graphics/SVG/1.1/DTD/svg11.dtd">
<svg version="1.1" xmlns="http://www.w3.org/2000/svg" xmlns:xlink="http://www.w3.org/1999/xlink" x="0" y="0" width="16.223" height="16.223" viewBox="0, 0, 16.223, 16.223">
  <g id="Ebene_1">
    <g>
      <path d="M9.327,5.259 L8.028,6.558 L6.931,5.461 L6.601,5.79 L7.369,6.558 L6.437,7.49 L6.766,7.819 L5.687,8.898 L5.249,9.337 L3.811,10.775 L3.534,10.498 L2.504,11.527 L2.782,11.805 L1.945,12.642 C1.842,12.744 1.602,13.313 0.642,14.274 C0.556,14.36 0.483,14.433 0.422,14.493 C0.414,14.502 0.408,14.511 0.401,14.519 C0.3,14.494 0.189,14.521 0.11,14.6 L0.091,14.619 C-0.03,14.74 -0.031,14.936 0.091,15.057 L1.147,16.114 C1.269,16.235 1.465,16.235 1.586,16.114 L1.605,16.095 C1.667,16.032 1.697,15.95 1.695,15.868 C1.715,15.854 1.735,15.84 1.753,15.822 C1.837,15.738 1.937,15.639 2.054,15.521 C3.453,14.123 3.476,14.345 3.562,14.259 L4.454,13.366 L5.817,14.729 C5.938,14.85 6.134,14.85 6.255,14.729 L6.877,14.107 C6.999,13.986 6.999,13.79 6.877,13.668 L5.515,12.307 L6.867,10.954 L6.995,10.825 L8.942,12.772 C9.063,12.893 9.259,12.894 9.38,12.772 L10.001,12.151 C10.123,12.03 10.122,11.833 10.002,11.712 L8.946,10.656 C9.103,10.585 9.321,10.466 9.497,10.29 C9.659,10.127 9.783,9.918 9.783,9.656 C9.783,9.222 9.415,8.907 9.102,8.717 L10.944,6.876 L9.327,5.259 z M9.475,9.657 C9.475,10.092 8.899,10.347 8.71,10.421 L8.335,10.046 C8.656,10.056 8.958,10.029 9.084,9.917 C9.086,9.915 9.089,9.912 9.091,9.91 C9.148,9.853 9.151,9.764 9.098,9.703 C9.043,9.638 8.945,9.631 8.879,9.683 C8.811,9.739 8.495,9.748 8.102,9.719 L8.879,8.943 C9.156,9.103 9.475,9.358 9.475,9.657 z" fill="#0AC87F"/>
      <path d="M16.151,0.089 C16.055,-0.006 15.9,-0.006 15.803,0.089 L14.058,1.835 C13.532,1.619 12.613,1.982 11.845,2.751 C11.342,3.253 11.014,3.821 10.907,4.3 L10.113,5.095 L11.145,6.128 L11.94,5.333 C12.419,5.228 12.987,4.898 13.491,4.396 C14.258,3.627 14.621,2.709 14.405,2.183 L16.15,0.437 C16.247,0.342 16.247,0.186 16.151,0.089 z" fill="#AD2121"/>
    </g>
  </g>
</svg>
