<?xml version="1.0" encoding="UTF-8"?>
<!DOCTYPE svg PUBLIC "-//W3C//DTD SVG 1.1//EN" "http://www.w3.org/Graphics/SVG/1.1/DTD/svg11.dtd">
<svg version="1.1" xmlns="http://www.w3.org/2000/svg" xmlns:xlink="http://www.w3.org/1999/xlink" x="0" y="0" width="551.474" height="551.474" viewBox="0, 0, 551.474, 551.474">
  <g id="Ebene_1">
    <path d="M366.84,77.233 L343.723,88.156 L364.499,73.237 L366.84,77.233 z M376.444,48.616 L355.928,31.052 L373.14,51.852 L376.444,48.616 z M422.667,0 L394.13,44.561 L398.131,46.884 L422.667,0 z M402.96,56.628 L462.937,51.636 L402.749,52.011 L402.96,56.628 z M379.56,65.291 C382.315,111.025 433.201,150.09 411.62,196.855 C404.965,211.28 392.411,220.879 381.582,231.95 L362.951,215.299 L342.074,238.655 C317.036,223.831 287.837,215.299 256.625,215.299 C163.791,215.299 88.538,290.562 88.538,383.384 C88.538,476.218 163.797,551.474 256.625,551.474 C349.457,551.474 424.712,476.218 424.712,383.384 C424.712,346.713 412.932,312.81 393.001,285.183 L414.386,261.25 L392.055,241.307 C393.793,239.424 395.655,237.554 397.653,235.665 C411.538,222.531 422.472,209.403 428.684,191.038 C444.271,145.002 396.075,108.899 393.462,65.29 C392.906,56.407 379.021,56.35 379.56,65.291 z" fill="#EFFF00"/>
  </g>
</svg>
