<?xml version="1.0" encoding="iso-8859-1"?>
<!-- Generator: Adobe Illustrator 16.0.0, SVG Export Plug-In . SVG Version: 6.00 Build 0)  -->
<!DOCTYPE svg PUBLIC "-//W3C//DTD SVG 1.1//EN" "http://www.w3.org/Graphics/SVG/1.1/DTD/svg11.dtd">
<svg version="1.1" id="Capa_1" xmlns="http://www.w3.org/2000/svg" xmlns:xlink="http://www.w3.org/1999/xlink" x="0px" y="0px"
	 width="460.302px" height="460.303px" viewBox="0 0 460.302 460.303" style="enable-background:new 0 0 460.302 460.303;"
	 xml:space="preserve">
<g>
	<g>
		<path fill="#98f698" d="M400.72,361.373c-0.017-0.365-0.033-0.73-0.072-1.094c-0.002-0.023-0.003-0.027-0.006-0.047
			c-0.008-0.043-0.021-0.109-0.041-0.213c-0.065-0.355-0.073-0.709-0.039-1.051c-0.098-0.092-0.193-0.186-0.301-0.262
			c-0.803-3.887-3.578-7.471-5.453-9.889c-5.215-6.73-11.961-12.516-17.914-17.621c-5.628-4.826-11.601-9.416-17.375-13.854
			c-6.51-5.002-13.235-10.169-19.508-15.717c0.927-20.438-4.878-40.924-10.407-58.551c-4.972-15.854-11.176-34.095-21.916-49.957
			c-8.931-13.188-20.292-23.056-32.853-28.537c-1.3-0.566-2.658-1.103-4.056-1.599c0.324-5.714-1.581-10.698-5.555-14.523
			c0.021-0.188,0.033-0.378,0.033-0.57c-0.091-22.803-3.949-45.814-7.681-68.068l-0.541-3.233l0.307-1.067
			c0.016-0.055,0.028-0.109,0.043-0.164c4.21-1.694,7.572-6.584,8.548-12.176c0.266-0.312,0.363-0.76,0.163-1.136
			c0.075-0.661,0.126-1.327,0.131-1.999c0.05-6.991-3.794-12.294-10.284-14.186c-1.117-0.325-2.249-0.49-3.366-0.49
			c-6.235,0-11.699,5.211-12.707,12.12c-0.956,6.551,1.921,12.702,7.515,16.076c0.145,0.109,0.29,0.215,0.438,0.318
			c-0.212,0.659-0.273,1.365-0.179,2.082c-2.967,10.23-6.52,20.475-9.954,30.385c-4.452,12.845-9.057,26.126-12.464,39.577
			c-0.034,0.138-0.063,0.275-0.085,0.414c-6.142,3.845-9.867,9.368-10.793,16.017c-0.105,0.749-0.043,1.478,0.177,2.155
			c-10.8,3.54-20.544,8.537-28.99,14.868c-12.013,9.006-23.006,21.283-32.675,36.491c-18.758,29.499-27.791,62.891-24.841,91.729
			c-9.294,10.684-20.599,19.604-31.538,28.238c-12.674,10.004-25.781,20.35-35.976,33.553c-1.005,1.303-1.202,2.838-0.56,4.182
			c0.127,1.367,0.827,2.553,2.002,3.369c10.256,7.133,20.586,13.625,30.727,19.309c-1.956,4.301-3.181,8.031-3.832,11.654
			c-0.009,0.051-0.018,0.104-0.024,0.152c-7.898,1.172-15.581,6.383-21.821,10.613l-1.658,1.121c-1.088,0.732-1.777,1.77-1.996,3
			c-0.204,1.15,0.034,2.367,0.656,3.4c0.002,0.016,0.004,0.029,0.006,0.045c0.016,1.098,0.429,2.129,1.201,2.992
			c6.327,7.059,13,12.006,20.4,15.125c7.487,3.156,16.555,3.709,26.648,1.635c1.967-0.404,3.492-2.369,3.473-4.471
			c-0.063-6.906-1.395-19.461-9.445-27.477l3.033-9.098c8.705,4.225,17.458,7.951,26.048,11.088
			c21.251,31.35,62.509,43.428,91.48,44.234c0.79,0.021,1.581,0.033,2.372,0.033c8.873,0,17.796-1.354,26.119-2.812
			c11.16-1.961,21.014-4.783,30.121-8.631c10.992-4.641,22.223-12.307,34.333-23.438c4.019-3.691,9.995-9.188,11.185-15.498
			c5.856-2.336,11.743-4.92,17.522-7.693c0.392,0.812,0.79,1.621,1.189,2.432c0.225,0.455,0.449,0.922,0.674,1.387
			c-2.9,4.033-4.912,8.781-6.004,13.486c-0.113,0.486-0.146,0.947-0.123,1.383c-1.152,1.146-1.637,2.83-0.699,4.6
			c0.307,0.871,0.863,1.652,1.568,2.236c6.773,8.465,17.455,11.355,27.915,7.629c10.571-3.768,18.226-13.768,17.679-25.15
			c-0.044-0.92-0.326-1.678-0.74-2.307c-0.108-0.809-0.442-1.619-1.077-2.377c-5.434-6.473-12.899-10.727-21.06-10.064
			c-0.478-0.916-0.967-1.844-1.475-2.791c3.448-2.053,6.782-4.158,9.927-6.27c7.604-5.104,16.175-11.15,23.175-18.725
			c0.621-1.658,1.087-3.352,1.273-5.094c0.006-0.201,0.008-0.396,0.011-0.594C400.728,361.803,400.73,361.588,400.72,361.373z
			 M257.95,154.611c0.542,0.42,1.043,0.871,1.489,1.356c1.229,1.336,1.965,2.843,2.201,4.498c-2.248-0.451-4.554-0.789-6.906-1.021
			C255.765,157.806,256.845,156.201,257.95,154.611z M246.19,150.447c1.339,0.126,2.742,0.362,4.135,0.709
			c-1.927,2.496-3.65,5.146-5.173,7.926c-1.604,0.031-3.221,0.1-4.857,0.221C242.282,156.366,244.133,153.329,246.19,150.447z
			 M237.722,159.516c-1.244,0.126-2.497,0.275-3.759,0.453c2.124-3.209,4.31-6.457,6.683-9.467c1.025-0.101,2.052-0.169,3.062-0.169
			c0.043,0,0.087,0.001,0.132,0.001C241.754,153.359,239.834,156.508,237.722,159.516z M247.917,141.35
			c2.575-1.473,5.244-2.79,7.803-4.293c0.107,1.99,0.198,3.98,0.253,5.969C253.464,142.172,250.744,141.611,247.917,141.35z
			 M252.403,151.759c1.371,0.462,2.693,1.04,3.89,1.739c-1.314,1.895-2.597,3.812-3.804,5.778c-1.663-0.115-3.341-0.196-5.047-0.208
			C248.914,156.503,250.573,154.065,252.403,151.759z M251.23,55.002c2.01,1.227,4.006,2.474,5.998,3.728
			c0.003,0.032,0.012,0.059,0.015,0.091c0.089,0.909,0.021,1.849-0.148,2.752c-2.572-1.501-5.039-3.162-7.476-4.871
			C250.002,55.99,250.538,55.378,251.23,55.002z M248.954,58.666c2.371,1.658,4.772,3.27,7.278,4.723
			c0.109,0.064,0.217,0.088,0.322,0.109c-0.214,0.565-0.461,1.092-0.733,1.541c-2.297-1.593-4.547-3.254-6.938-4.69
			c-0.014-0.196-0.025-0.393-0.026-0.601C248.856,59.405,248.89,59.039,248.954,58.666z M254.455,66.519
			c-0.051,0.027-0.102,0.062-0.15,0.083c-1.743-0.488-3.626-1.468-4.657-3.411C251.273,64.26,252.855,65.403,254.455,66.519z
			 M250.958,96.012c0.248,1.554,0.493,3.135,0.735,4.727c-0.956,0.46-1.9,0.945-2.837,1.447
			C249.56,100.137,250.264,98.077,250.958,96.012z M246.509,108.975c0.459-1.32,0.922-2.662,1.384-3.999
			c1.36-0.742,2.723-1.483,4.107-2.17c0.191,1.287,0.385,2.573,0.569,3.878c-2.22,1.146-4.4,2.363-6.533,3.66
			C246.195,109.889,246.353,109.429,246.509,108.975z M244.999,113.35c2.555-1.64,5.184-3.155,7.87-4.567
			c0.238,1.724,0.473,3.457,0.693,5.206c-3.482,2.214-7.178,4.08-10.838,6.011C243.477,117.771,244.238,115.556,244.999,113.35z
			 M241.805,122.752c4.018-2.196,8.13-4.214,12.021-6.601c0.216,1.763,0.429,3.529,0.618,5.311
			c-5.517,2.265-10.312,6.262-15.35,9.588C239.975,128.271,240.885,125.507,241.805,122.752z M238.193,133.987
			c5.487-3.367,10.581-7.93,16.462-10.461c0.22,2.165,0.425,4.338,0.6,6.52c-6.431,2.729-12.529,6.153-18.715,9.404
			C237.069,137.625,237.632,135.806,238.193,133.987z M235.779,142.093c6.517-3.374,12.896-7.043,19.632-9.949
			c0.063,0.882,0.11,1.766,0.165,2.649c-3.67,2.252-7.626,4.029-11.233,6.386c-0.013,0-0.021-0.001-0.031-0.001
			c-2.907,0-5.768,0.31-8.533,0.92C235.778,142.096,235.778,142.095,235.779,142.093z M237.81,150.928
			c-2.291,3.066-4.428,6.307-6.523,9.47c-0.462,0.077-0.92,0.138-1.384,0.222c-0.384,0.069-0.771,0.152-1.155,0.226
			c1.346-3.286,2.995-6.451,5.46-8.961C235.373,151.471,236.585,151.172,237.81,150.928z M230.036,153.915
			c-1.484,2.287-2.62,4.83-3.619,7.4c-0.852,0.182-1.703,0.368-2.555,0.569C224.959,158.335,227.206,155.742,230.036,153.915z
			 M165.428,213.613c10.447-14.839,22.555-26.146,35.984-33.607c14.171-7.872,31.714-12.227,47.786-11.823
			c30.836,0.785,48.729,25.147,56.649,39.601c7.708,14.065,12.531,29.47,17.194,45.333c4.562,15.519,9.014,33.748,7.572,51.539
			c-3.842,3.074-9.017,4.992-13.604,6.691l-0.5,0.186c-7.053,2.615-14.374,4.682-21.236,6.522c-3.197,0.856-5.922,1.573-8.445,2.218
			c-0.78-3.802-1.109-7.86-1.43-11.803c-0.153-1.889-0.312-3.842-0.517-5.714c-0.54-4.918-1.183-9.903-1.802-14.726l-0.616-4.832
			c-1.736-13.728-3.756-27.062-9.308-39.321c-5.583-12.328-15.591-20.26-27.459-21.761c-1.954-0.247-3.954-0.373-5.941-0.373
			c-12.879,0-24.727,4.999-32.504,13.714c-11.194,12.542-15.337,30.479-17.696,44.706c-2.092,12.619-3.119,26.49-3.215,43.527
			c-19.129-3.396-35.18-8.369-49.008-15.182C133.893,278.431,144.106,243.896,165.428,213.613z M195.613,317.725
			c0.021-1.049,0.05-2.066,0.079-3.09c4.5,4.59,9.661,8.436,14.779,12.342c-2.057-0.195-4.125-0.406-6.219-0.652
			C201.073,323.755,198.018,321.061,195.613,317.725z M200.653,325.887c-1.698-0.222-3.402-0.449-5.123-0.704
			c0.004-1.464,0.017-2.896,0.033-4.308C197.121,322.688,198.842,324.332,200.653,325.887z M195.782,311.824
			c0.06-1.659,0.135-3.273,0.215-4.869c6.17,7.707,13.572,14.193,21.106,20.549c-0.987-0.068-1.961-0.117-2.958-0.197
			C207.801,322.382,201.217,317.748,195.782,311.824z M196.165,303.97c0.091-1.489,0.195-2.946,0.307-4.387
			c7.445,9.918,15.621,19.761,24.744,28.179c-0.255-0.014-0.504-0.02-0.759-0.033C211.755,320.424,203.022,313.098,196.165,303.97z
			 M196.729,296.599c0.189-2.103,0.406-4.151,0.641-6.17c9.096,13.69,20.66,25.454,31.697,37.608
			c-1.564-0.031-3.141-0.074-4.732-0.137C214.04,318.723,204.921,307.645,196.729,296.599z M197.76,287.349
			c0.062-0.481,0.116-0.979,0.184-1.456c0.239-1.699,0.508-3.467,0.81-5.277c12.837,15.734,26.156,31.131,38.295,47.422
			c-1.735,0.031-3.486,0.045-5.261,0.033C219.926,314.92,207.303,302.338,197.76,287.349z M199.444,278.318
			c-0.08-0.098-0.164-0.166-0.252-0.22c0.459-2.521,0.997-5.118,1.635-7.745c2.382,4.332,5.614,8.33,8.498,12.303
			c5.349,7.369,10.84,14.639,16.407,21.844c5.259,6.807,10.562,13.589,16.133,20.145c0.399,0.471,1.32,1.76,2.423,3.1
			c-1.102,0.07-2.2,0.141-3.285,0.186c-0.504,0.02-1.021,0.025-1.528,0.041C226.822,310.885,212.856,294.799,199.444,278.318z
			 M240.836,320.318c-5.302-6.387-10.399-12.943-15.455-19.526c-5.031-6.552-9.988-13.162-14.84-19.849
			c-2.9-3.994-6.162-8.022-8.441-12.424c-0.166-0.318-0.42-0.457-0.686-0.486c0.48-1.813,1.021-3.637,1.615-5.455
			c7.633,12.904,16.746,24.869,26.368,36.359c7.86,9.387,16.089,19.609,25.475,27.769c-2.635,0.339-5.209,0.616-7.728,0.823
			c-0.239-0.229-0.456-0.439-0.603-0.596C244.559,324.803,242.695,322.558,240.836,320.318z M231.982,298.906
			c-10.366-12.162-20.071-24.994-28.082-38.842c0.585-1.621,1.229-3.231,1.924-4.824c15.988,26.072,39.06,46.596,58.462,70.018
			c-2.308,0.409-4.56,0.773-6.76,1.089C248.072,318.382,239.912,308.212,231.982,298.906z M206.827,253.04
			c0.898-1.884,1.889-3.729,2.975-5.524c10.99,15.434,22.375,30.575,34.296,45.305c5.246,6.482,10.623,12.812,16.224,18.988
			c3.472,3.829,7.428,7.791,10.456,12.201c-1.439,0.296-2.862,0.579-4.257,0.84C246.761,300.783,222.977,279.91,206.827,253.04z
			 M264.607,313.592c-5.656-6.404-11.343-12.721-16.768-19.329c-12.899-15.72-25.119-31.983-36.896-48.56
			c0.085-0.129,0.165-0.264,0.251-0.393c0.752-1.119,1.574-2.184,2.461-3.189c9.088,15.771,19.942,30.436,31.563,44.43
			c5.608,6.754,11.424,13.293,16.853,20.198c4.41,5.608,8.819,11.452,14.33,16.045c-1.202,0.271-2.392,0.534-3.562,0.784
			C270.424,319.998,267.376,316.729,264.607,313.592z M263.487,305.336c-5.054-6.417-10.397-12.545-15.666-18.782
			c-12.141-14.372-23.378-29.608-32.732-45.95c0.771-0.766,1.584-1.49,2.432-2.173c8.217,12.911,17.496,25.074,27.289,36.835
			c5.317,6.387,10.868,12.566,16.318,18.836c5.156,5.93,9.599,12.43,15.454,17.715c0.271,3.142,0.567,6.356,1.119,9.487
			C272.214,316.783,267.851,310.879,263.487,305.336z M269,259.626c0.911,3.396,1.666,6.842,2.29,10.321
			c-0.278-0.344-0.556-0.682-0.83-1.006c-2.946-3.514-5.728-7.154-8.812-10.55c-8.247-9.077-16.786-17.874-24.482-27.43
			c0.83-0.058,1.668-0.087,2.513-0.087c1.133,0,2.27,0.068,3.399,0.173C250.391,241.73,260.197,250.227,269,259.626z
			 M245.738,231.389c9.702,1.686,16.927,9.168,21.466,22.28c0.205,0.592,0.379,1.194,0.57,1.792
			C260.174,247.648,252.101,240.264,245.738,231.389z M261.53,261.232c3.469,3.817,6.605,9.115,10.492,13.106
			c0.502,3.252,0.938,6.515,1.34,9.757c-14.026-17.628-29.636-33.96-43.187-51.979c1.506-0.4,3.053-0.711,4.629-0.92
			C243.137,241.715,252.515,251.311,261.53,261.232z M273.827,287.887c0.007,0.061,0.016,0.121,0.021,0.182l0.139,1.14
			c0.224,1.847,0.453,3.692,0.683,5.536c0.247,1.992,0.498,4.019,0.744,6.053c-3.27-3.607-6.127-7.594-8.995-11.525
			c-4.201-5.761-8.729-11.211-13.188-16.771c-9.997-12.464-19.393-25.399-28.786-38.32c1.195-0.553,2.432-1.038,3.699-1.458
			C242.473,251.846,259.146,269.049,273.827,287.887z M250.63,272.427c5.057,6.394,10.247,12.626,15.053,19.214
			c3.149,4.318,6.343,8.67,10.116,12.467c0.104,0.902,0.215,1.809,0.312,2.707c0.075,0.666,0.14,1.342,0.203,2.02
			c-4.289-4.197-7.922-8.997-11.7-13.66c-5.14-6.341-10.761-12.309-16.045-18.531c-10.626-12.517-20.645-25.552-29.445-39.418
			c1.115-0.79,2.299-1.49,3.515-2.142C231.792,247.664,240.978,260.222,250.63,272.427z M89.313,435.965
			c-3.447-1.229-6.841-3.23-10.299-6.088c7.203,0.092,16.57,1.676,23.292,8.113C97.769,438.121,93.427,437.434,89.313,435.965z
			 M80.381,420.824c3.58-2.059,7.412-3.662,11.135-3.662c2.201,0,4.221,0.535,6.174,1.635c3.006,1.695,5.277,4.77,6.778,9.164
			C98.081,423.59,89.873,421.152,80.381,420.824z M98.032,408.789c0.572-2.615,1.461-5.26,2.738-8.15
			c0.084,0.043,0.168,0.086,0.252,0.129l-2.707,8.119C98.221,408.852,98.126,408.82,98.032,408.789z M315.014,417.307
			c-0.394,0.361-0.743,0.686-1.031,0.961c-4.593,4.381-10.097,8.727-17.323,13.678c-12.493,8.562-27.508,14.043-47.251,17.252
			c-6.502,1.057-13.2,1.592-19.904,1.592c-30.475,0-58.612-10.674-77.752-29.389c1.84,0.533,3.681,1.041,5.522,1.527
			c-0.293,0.57-0.553,1.158-0.796,1.762c-0.205,0.506,0.219,1.098,0.697,1.229c0.572,0.158,1.027-0.191,1.23-0.697
			c0.251-0.619,0.539-1.215,0.867-1.789c0.43,0.107,0.858,0.211,1.288,0.316c-0.249,0.627-0.454,1.271-0.597,1.938
			c-0.268,1.258,1.66,1.793,1.93,0.531c0.146-0.691,0.364-1.346,0.633-1.98c0.412,0.1,0.824,0.188,1.236,0.285
			c-0.092,0.805-0.162,1.611-0.311,2.41c-0.233,1.26,1.693,1.799,1.929,0.529c0.153-0.824,0.224-1.662,0.321-2.496
			c0.668,0.15,1.334,0.295,2.002,0.441c-0.4,0.914-0.891,1.789-1.504,2.578c-0.781,1.004,0.623,2.432,1.414,1.414
			c0.859-1.105,1.533-2.289,2.068-3.561c0.869,0.186,1.736,0.355,2.604,0.525c-0.428,0.912-0.789,1.852-1.111,2.809
			c-0.414,1.227,1.519,1.746,1.928,0.531c0.344-1.02,0.73-2.006,1.215-2.955c0.676,0.125,1.36,0.232,2.039,0.354
			c-0.396,1.254-0.689,2.525-0.947,3.814c-0.252,1.26,1.676,1.795,1.929,0.531c0.27-1.348,0.569-2.68,0.996-3.986
			c0.002-0.006,0-0.01,0.002-0.016c0.735,0.123,1.476,0.23,2.214,0.35c-0.244,0.998-0.6,1.957-1.055,2.883
			c-0.566,1.152,1.158,2.166,1.727,1.01c0.563-1.146,1.028-2.334,1.31-3.58c0.62,0.094,1.245,0.176,1.866,0.266
			c-0.36,1.152-0.568,2.348-0.768,3.539c-0.211,1.262,1.716,1.803,1.928,0.531c0.215-1.277,0.438-2.555,0.85-3.785
			c0.361,0.049,0.727,0.09,1.09,0.139c-0.133,0.789-0.199,1.59-0.38,2.369c-0.29,1.254,1.638,1.787,1.929,0.531
			c0.202-0.873,0.264-1.77,0.433-2.646c0.479,0.059,0.961,0.109,1.44,0.168c-0.371,1.117-0.582,2.27-0.6,3.459
			c-0.018,1.289,1.982,1.289,2,0c0.016-1.121,0.248-2.18,0.627-3.225c0.713,0.08,1.432,0.137,2.146,0.209
			c-0.001,0.004-0.003,0.004-0.003,0.008c-0.255,1.432-0.697,2.814-0.996,4.236c-0.266,1.258,1.662,1.793,1.928,0.531
			c0.299-1.42,0.742-2.805,0.996-4.236c0.023-0.127,0.01-0.242-0.007-0.354c0.792,0.076,1.59,0.133,2.384,0.201
			c-0.332,0.129-0.599,0.42-0.604,0.885c-0.016,1.344-0.24,2.646-0.463,3.969c-0.213,1.26,1.715,1.801,1.929,0.531
			c0.251-1.494,0.516-2.982,0.534-4.5c0.004-0.395-0.188-0.652-0.443-0.807c0.67,0.057,1.343,0.1,2.014,0.148
			c-0.051,0.119-0.083,0.252-0.083,0.408c-0.001,1.162-0.001,2.324-0.214,3.471c-0.233,1.26,1.693,1.799,1.929,0.531
			c0.245-1.326,0.284-2.656,0.285-4.002c0-0.104-0.031-0.186-0.055-0.271c0.546,0.039,1.093,0.066,1.64,0.104
			c-0.02,0.053-0.051,0.09-0.062,0.15c-0.243,1.318-0.254,2.666-0.498,3.984c-0.232,1.262,1.695,1.799,1.93,0.531
			c0.243-1.318,0.254-2.666,0.498-3.984c0.039-0.217,0-0.402-0.068-0.572c0.805,0.047,1.61,0.084,2.416,0.125
			c-0.543,1.508-0.809,3.047-0.824,4.664c-0.014,1.291,1.986,1.289,2,0c0.016-1.605,0.312-3.086,0.908-4.57
			c1.002,0.041,2.007,0.066,3.012,0.098c-0.566,1.367-0.993,2.783-1.4,4.209c-0.355,1.242,1.574,1.77,1.928,0.531
			c0.454-1.588,0.902-3.188,1.615-4.682c0.693,0.016,1.389,0.016,2.082,0.023c-0.404,1.352-0.66,2.734-0.893,4.125
			c-0.211,1.262,1.717,1.803,1.929,0.531c0.253-1.516,0.524-3.02,0.997-4.482c0.018-0.055,0.008-0.098,0.016-0.148
			c0.1,0,0.199,0.004,0.299,0.004c0.883,0,1.768-0.016,2.652-0.023c-0.406,1.643-0.83,3.277-1.408,4.869
			c-0.443,1.215,1.49,1.732,1.928,0.531c0.645-1.771,1.096-3.594,1.545-5.418c0.55-0.012,1.102-0.029,1.652-0.041
			c-0.186,1.828-0.694,3.615-0.926,5.441c-0.162,1.277,1.84,1.262,2,0c0.234-1.852,0.75-3.643,0.932-5.492
			c0.434-0.016,0.867-0.035,1.3-0.051c-0.301,1.947-0.932,3.822-1.208,5.775c-0.179,1.26,1.748,1.803,1.928,0.531
			c0.286-2.021,0.96-3.959,1.247-5.98c0.021-0.145,0.007-0.275-0.022-0.398c1.004-0.043,2.013-0.115,3.018-0.17
			c-0.076,2.184-0.444,4.344-0.476,6.531c-0.018,1.289,1.982,1.289,2,0c0.03-2.225,0.414-4.422,0.481-6.643
			c1.277-0.076,2.56-0.186,3.84-0.277c-0.414,1.809-0.854,3.609-1.305,5.408c-0.312,1.25,1.616,1.781,1.93,0.531
			c0.507-2.025,1.005-4.055,1.463-6.092c1.194-0.096,2.393-0.217,3.589-0.328c-0.822,1.971-1.282,4.02-1.535,6.152
			c-0.151,1.279,1.851,1.266,2,0c0.244-2.061,0.706-4.092,1.606-5.971c0.062-0.131,0.088-0.258,0.098-0.381
			c0.642-0.064,1.284-0.145,1.926-0.211c-0.438,2.17-0.861,4.342-0.896,6.562c-0.021,1.289,1.979,1.287,2,0
			c0.035-2.275,0.514-4.486,0.961-6.709c0.006-0.029-0.003-0.053,0-0.082c0.904-0.102,1.809-0.221,2.713-0.332
			c-0.312,2.223-0.91,4.395-1.188,6.625c-0.16,1.277,1.841,1.262,2,0c0.287-2.312,0.93-4.562,1.229-6.875
			c0.681-0.088,1.363-0.188,2.045-0.279c-0.001,0.064-0.019,0.125-0.008,0.195c0.369,2.316-0.576,4.521-1.245,6.693
			c-0.381,1.234,1.55,1.76,1.929,0.531c0.791-2.572,1.665-4.969,1.253-7.688c0.896-0.129,1.79-0.268,2.687-0.404
			c-0.132,2.277-0.396,4.547-0.423,6.828c-0.017,1.291,1.983,1.289,2,0c0.028-2.385,0.312-4.756,0.436-7.137
			c1.434-0.227,2.867-0.486,4.302-0.736c-0.502,2.285-0.966,4.576-1.47,6.861c-0.276,1.256,1.65,1.791,1.929,0.531
			c0.512-2.322,0.981-4.654,1.493-6.977c0.064-0.287,0.003-0.529-0.118-0.729c1.118-0.201,2.237-0.422,3.358-0.637
			c-0.758,1.816-1.436,3.658-1.93,5.566c-0.323,1.25,1.604,1.779,1.929,0.531c0.486-1.877,1.135-3.703,1.892-5.49
			c0.149-0.352,0.086-0.682-0.071-0.951c1.47-0.289,2.938-0.59,4.409-0.9c-0.702,1.844-1.565,3.613-2.575,5.326
			c-0.658,1.113,1.071,2.119,1.727,1.01c1.282-2.174,2.344-4.453,3.146-6.84c1.397-0.309,2.797-0.635,4.195-0.959
			c-0.816,1.918-1.607,3.838-2.841,5.545c-0.756,1.047,0.98,2.045,1.729,1.01c1.431-1.984,2.265-4.254,3.236-6.477
			c0.094-0.211,0.096-0.408,0.062-0.598c1.559-0.377,3.116-0.758,4.672-1.164c0.227-0.059,0.452-0.125,0.678-0.184
			c-0.687,1.693-1.504,3.328-2.403,4.92c-0.638,1.123,1.09,2.131,1.727,1.01c1.089-1.924,2.05-3.904,2.841-5.969
			c0.081-0.211,0.069-0.391,0.025-0.553c1.643-0.445,3.283-0.908,4.922-1.385c-1.173,1.738-2.484,3.371-3.878,4.949
			c-0.852,0.963,0.559,2.383,1.414,1.414c1.99-2.254,3.848-4.619,5.359-7.223c3.461-1.039,6.906-2.133,10.317-3.301
			C316.656,415.795,315.755,416.623,315.014,417.307z M356.642,398.152c0.568-0.303,1.136-0.607,1.701-0.916
			c0.182,0.34,0.354,0.67,0.532,1.008c-0.58,0.324-1.141,0.674-1.688,1.045C357.007,398.908,356.819,398.535,356.642,398.152z
			 M354.153,424.377c7.407-5.994,18.11-9.652,27.272-10.527C379.194,425.77,363.367,432.568,354.153,424.377z M375.074,405.725
			c-5.947,1.129-12.06,3.105-17.604,5.9c1.729-2.414,3.937-4.477,6.729-6.004C367.98,403.557,371.728,404.029,375.074,405.725z
			 M390.928,363.326c-6.836,6.832-15.134,12.457-22.407,17.213c-2.689,1.758-5.592,3.539-8.628,5.301
			c-0.17,0.006-0.337,0.033-0.503,0.061c-1.08,0.682-2.179,1.336-3.289,1.971c-0.049,0.066-0.104,0.129-0.149,0.199
			c-4.376,2.412-9.058,4.801-13.921,7.102c-17.944,8.488-38.197,15.26-60.194,20.125c-19.73,4.365-39.761,6.578-59.528,6.578
			c-21.685,0-42.963-2.662-63.245-7.914c-5.951-1.541-12.03-3.396-18.073-5.52c-0.668-0.488-1.45-0.773-2.289-0.832
			c-22.216-8.057-44.568-19.832-68.275-35.975c0.315-0.381,0.64-0.752,0.961-1.125c3.062,2.408,6.199,4.656,9.918,5.98
			c1.219,0.434,1.738-1.5,0.533-1.93c-3.421-1.217-6.322-3.322-9.143-5.547c0.313-0.352,0.624-0.703,0.939-1.051
			c2.441,1.748,4.933,3.426,7.432,5.092c1.076,0.719,2.076-1.016,1.01-1.727c-2.375-1.584-4.75-3.174-7.077-4.83
			c0.491-0.521,1.003-1.027,1.505-1.543c2.94,2.221,6.041,4.121,9.469,5.533c1.191,0.492,1.707-1.445,0.531-1.928
			c-3.094-1.275-5.94-3.027-8.607-5.035c0.853-0.85,1.721-1.686,2.594-2.514c2.862,1.783,5.688,3.631,8.576,5.375
			c1.107,0.67,2.111-1.061,1.01-1.727c-2.719-1.645-5.381-3.377-8.071-5.064c0.694-0.643,1.413-1.258,2.116-1.891
			c2.863,2.139,5.875,4.064,9.184,5.449c1.19,0.498,1.703-1.438,0.533-1.928c-2.933-1.229-5.648-2.967-8.209-4.867
			c1.203-1.059,2.422-2.098,3.645-3.131c2.637,1.43,5.22,2.947,7.793,4.492c1.109,0.664,2.113-1.064,1.01-1.729
			c-2.367-1.42-4.744-2.812-7.161-4.141c0.778-0.648,1.568-1.275,2.352-1.916c2.322,1.568,4.73,3.008,7.134,4.449
			c1.108,0.666,2.113-1.062,1.01-1.727c-2.193-1.314-4.387-2.635-6.52-4.047c0.942-0.764,1.887-1.518,2.831-2.273
			c2.604,1.684,5.245,3.303,8.011,4.715c1.146,0.584,2.159-1.143,1.01-1.729c-2.541-1.295-4.975-2.77-7.373-4.305
			c0.657-0.521,1.314-1.037,1.971-1.557c2.287,1.486,4.695,2.768,7.299,3.689c1.219,0.43,1.739-1.502,0.531-1.93
			c-2.186-0.773-4.234-1.834-6.186-3.061c0.047-0.035,0.094-0.072,0.141-0.109c1.09-0.854,2.184-1.711,3.277-2.57
			c3.007,2.236,5.992,4.498,9.33,6.234c1.143,0.596,2.154-1.133,1.01-1.727c-3.113-1.621-5.92-3.699-8.723-5.785
			c0.807-0.637,1.611-1.277,2.418-1.922c2.623,1.426,5.292,2.766,7.963,4.1c1.149,0.574,2.162-1.148,1.01-1.727
			c-2.439-1.221-4.876-2.445-7.279-3.732c0.857-0.691,1.714-1.389,2.567-2.088c2.685,1.787,5.537,3.252,8.606,4.314
			c1.223,0.424,1.743-1.51,0.533-1.928c-2.684-0.93-5.186-2.189-7.55-3.709c0.731-0.607,1.45-1.234,2.175-1.852
			c2.985,1.365,5.976,2.705,8.604,4.721c1.023,0.785,2.019-0.953,1.01-1.729c-2.434-1.865-5.179-3.15-7.942-4.416
			c1.075-0.932,2.142-1.877,3.196-2.834c2.498,1.781,5.1,3.396,7.736,4.979c1.109,0.666,2.113-1.064,1.01-1.729
			c-2.465-1.479-4.912-2.979-7.26-4.629c0.682-0.633,1.343-1.287,2.014-1.93c2.744,1.619,5.521,3.166,8.475,4.387
			c1.193,0.492,1.707-1.442,0.533-1.928c-2.613-1.08-5.082-2.455-7.513-3.892c0.526-0.519,1.046-1.044,1.563-1.569
			c2.332,1.586,4.775,2.969,7.416,4.057c1.193,0.49,1.707-1.445,0.533-1.93c-2.314-0.953-4.484-2.182-6.553-3.57
			c0.408-0.428,0.819-0.853,1.22-1.286c14.761,7.341,31.938,12.706,52.462,16.392c20.045,3.598,39.518,5.053,57.614,4.301
			c18.969-0.787,37.36-5.367,56.104-10.396c8.925-2.395,16.062-4.643,22.464-7.073c5.553-2.108,11.329-4.491,15.938-8.382
			c5.128,4.327,10.52,8.467,15.742,12.479c4.762,3.654,9.684,7.434,14.352,11.314c5.966,4.963,12.271,10.408,17.96,16.607
			c2.285,2.49,3.92,4.643,5.146,6.77c0.333,0.578,0.542,1.043,0.684,1.428c0.456,0.932,0.438,2.109-0.07,3.012
			C390.894,362.99,390.906,363.16,390.928,363.326z"/>
		<path fill="#98f698" d="M227.247,41.787c0.787,0.548,1.623,0.826,2.484,0.826l0,0c1.857,0,3.524-1.332,4.147-3.315
			c0.64-2.032-0.062-4.122-1.788-5.324c-4.515-3.146-7.564-8.027-10.068-12.355c-0.83-1.432-2.209-2.253-3.787-2.253
			c-1.71,0-3.369,0.96-4.226,2.445c-0.795,1.379-0.772,2.996,0.063,4.439C216.943,31.209,221.034,37.456,227.247,41.787z"/>
		<path fill="#98f698" d="M249.957,22.583c-0.042,1.74-0.084,3.479-0.094,5.217c-0.007,1.253,0.422,2.35,1.24,3.174
			c0.843,0.847,2.061,1.332,3.341,1.332c2.281,0,4.6-1.542,4.617-4.489c0.009-1.567,0.035-3.131,0.062-4.692
			c0.11-6.424,0.226-13.065-0.973-19.651C257.766,1.364,256.165,0,254.07,0c-1.474,0-2.918,0.676-3.863,1.808
			c-0.892,1.069-1.241,2.437-0.983,3.851C250.231,11.204,250.091,16.988,249.957,22.583z"/>
		<path fill="#98f698" d="M274.73,45.524L274.73,45.524c1.133,0,2.201-0.434,3.086-1.253c7.082-6.555,13.585-13.826,19.874-20.857
			c1.667-1.862,3.333-3.726,5.012-5.578c1.269-1.399,1.573-3.251,0.818-4.954c-0.776-1.748-2.486-2.923-4.259-2.923
			c-1.193,0-2.288,0.512-3.165,1.479c-1.684,1.856-3.354,3.725-5.023,5.592c-6.245,6.979-12.699,14.197-19.679,20.657
			c-1.378,1.276-1.81,3.042-1.15,4.722C270.962,44.243,272.807,45.524,274.73,45.524z"/>
		<path fill="#98f698" d="M240.089,349.156c-0.481-1.32-1.541-2.287-2.987-2.697c-2.246-0.639-4.481-0.963-6.644-0.963
			c-9.025,0-17.014,5.756-21.367,15.4c-4.346,9.623-4.982,23.584,3.391,33.08c4.236,4.807,10.841,7.676,17.665,7.678h0.003
			c5.309,0,10.188-1.797,13.737-5.057c9.951-9.141,7.636-25.219,6.688-29.93C249.067,359.17,245.167,352.672,240.089,349.156z
			 M225.852,355.586c-2.715,2.945-5.506,5.816-8.438,8.543C219.188,360.227,222.022,357.057,225.852,355.586z M216.056,368.021
			c4.468-3.889,8.596-8.127,12.569-12.518c0.145-0.004,0.29-0.008,0.443-0.025c0.349-0.041,0.692-0.057,1.03-0.062
			c-1.911,1.854-3.536,4.324-5.214,6.145c-3.072,3.328-6.178,6.703-9.471,9.85C215.558,370.266,215.77,369.131,216.056,368.021z
			 M215.211,374.314c3.716-3.449,7.067-7.252,10.63-10.865c2.248-2.279,4.258-5.838,6.949-7.662
			c0.334,0.105,0.653,0.236,0.967,0.379c-1.668,1.738-3.227,4.027-4.359,5.25c-4.593,4.953-9.448,9.654-14.16,14.494
			C215.214,375.381,215.202,374.848,215.211,374.314z M215.488,378.518c4.69-4.877,9.546-9.592,14.21-14.496
			c1.295-1.363,2.56-2.756,3.84-4.133c0.475-0.51,1.271-1.633,2.093-2.562c0.493,0.393,0.951,0.836,1.382,1.316
			c-5.991,8.182-14.197,14.625-21.071,22.062C215.729,379.881,215.585,379.133,215.488,378.518z M216.631,382.916
			c6.959-7.721,15.375-14.311,21.636-22.639c0.519,0.783,0.969,1.631,1.375,2.506c-0.116,0.068-0.226,0.164-0.318,0.291
			c-6.105,8.27-15.574,13.123-22.299,20.816C216.883,383.562,216.751,383.238,216.631,382.916z M217.992,385.801
			c6.556-7.98,16.127-12.842,22.493-20.998c0.171,0.471,0.313,0.945,0.458,1.42c-3.228,3.369-6.915,6.289-10.351,9.438
			c-4.04,3.705-7.624,7.818-11.834,11.326C218.483,386.598,218.225,386.201,217.992,385.801z M220.024,388.527
			c4.277-3.516,7.988-7.619,11.983-11.453c3.097-2.969,6.483-5.617,9.53-8.629c0.146,0.641,0.266,1.266,0.366,1.873
			c-6.263,7.061-13.419,13.242-20.542,19.42C220.883,389.357,220.43,388.957,220.024,388.527z M233.076,392.283
			c2.438-2.363,4.988-4.607,7.489-6.904C239.192,388.781,236.856,391.537,233.076,392.283z M241.69,381.578
			c-3.848,3.719-7.981,7.139-11.717,10.977c-1.128-0.006-2.167-0.113-3.127-0.307c2.779-3.105,6.112-5.611,9.256-8.352
			c2.232-1.945,4.102-4.26,6.132-6.404C242.146,378.828,241.969,380.211,241.69,381.578z M234.688,382.482
			c-3.36,3.059-7.028,5.664-9.953,9.166c-0.587-0.221-1.141-0.473-1.657-0.756c6.609-5.732,13.246-11.467,19.15-17.926
			c0.037,0.512,0.061,1.055,0.072,1.617C239.641,377.082,237.389,380.021,234.688,382.482z"/>
		<path fill="#98f698" d="M324.907,330.795c-1.544,0.062-2.831,0.783-3.625,2.006c-10.55,3.008-18.762,10.938-22.043,21.33
			c-1.896,6.006-1.394,11.902,1.454,17.053c3.088,5.588,8.835,9.828,15.768,11.637c2.708,0.707,5.42,1.064,8.061,1.064h0.002
			c9.751,0,17.688-4.842,21.773-13.283c4.804-9.924,3.91-22.289-2.221-30.773C339.729,333.814,332.683,330.492,324.907,330.795z
			 M322.487,342.078c-0.797,0.84-1.502,1.623-2.036,2.119c-4.032,3.752-8.093,7.465-12.108,11.234
			C310.575,349.148,316.281,344.301,322.487,342.078z M307.35,360.668c0.017-0.578,0.068-1.146,0.143-1.709
			c4.237-4.039,8.502-8.01,12.847-11.932c1.404-1.27,2.772-2.58,4.175-3.854c0.433-0.393,1.393-1.436,2.278-2.191
			c0.709-0.107,1.415-0.184,2.115-0.215c0.336-0.016,0.667-0.068,1.001-0.158c0.507,0.16,0.987,0.354,1.454,0.568
			c-0.734,0.602-1.434,1.322-2.001,1.787c-2.982,2.436-5.927,4.916-8.876,7.393c-4.377,3.674-8.681,7.473-13.119,11.084
			C307.359,361.184,307.343,360.93,307.35,360.668z M307.664,363.758c4.036-3.242,7.933-6.684,11.891-10.016
			c2.951-2.484,5.906-4.965,8.875-7.43c1.169-0.971,3.438-3.424,4.821-4.062c0.801,0.553,1.521,1.193,2.178,1.898
			c-3.316,2.549-6.633,5.098-9.953,7.639c-1.521,1.164-3.085,2.283-4.576,3.484c-2.466,1.986-4.959,3.936-7.447,5.895
			c-1.734,1.365-3.371,3.105-5.141,4.551C308.044,365.08,307.817,364.432,307.664,363.758z M309.292,367.58
			c3.004-2.188,5.731-5.127,8.562-7.348c2.87-2.252,5.733-4.5,8.631-6.717c3.401-2.604,6.797-5.213,10.192-7.824
			c0.394,0.557,0.738,1.146,1.062,1.752c-4.066,3.154-8.333,6.055-12.279,9.367c-2.936,2.465-5.823,4.986-8.767,7.441
			c-1.995,1.666-3.835,3.678-5.96,5.211C310.187,368.867,309.708,368.236,309.292,367.58z M312.198,370.855
			c1.196-0.922,2.283-1.979,3.417-3.064c3.075-2.953,6.567-5.562,9.811-8.334c4.221-3.607,8.802-6.756,13.184-10.152
			c0.398,0.99,0.694,2.023,0.937,3.066c-1.225,0.775-2.572,1.477-3.543,2.219c-2.413,1.846-4.862,3.639-7.239,5.531
			c-4.819,3.842-9.705,8.463-14.976,11.871C313.234,371.637,312.697,371.266,312.198,370.855z M315.751,373.08
			c5.064-3.418,9.732-7.787,14.426-11.545c3.093-2.479,6.263-5.049,9.612-7.172c0.037-0.023,0.078-0.049,0.116-0.072
			c0.093,0.654,0.152,1.309,0.193,1.959c-0.667,0.469-1.338,0.914-1.871,1.367c-2.045,1.74-4.19,3.365-6.272,5.062
			c-4.614,3.762-9.163,7.602-13.786,11.352C317.337,373.764,316.526,373.449,315.751,373.08z M328.976,374.381
			c2.203-1.723,4.357-3.504,6.528-5.273c0.663-0.539,1.365-1.062,2.078-1.578C335.819,370.65,333.053,373.258,328.976,374.381z
			 M339.127,363.953c-1.354,0.965-2.708,1.898-3.906,2.836c-3.474,2.711-6.787,5.602-10.354,8.191
			c-0.2,0.006-0.398,0.018-0.602,0.018c-1.256,0-2.498-0.127-3.71-0.357c4.289-3.494,8.536-7.039,12.813-10.547
			c2.222-1.818,4.435-3.77,6.742-5.51C340.013,360.326,339.693,362.162,339.127,363.953z"/>
		<path fill="#98f698" d="M160.259,351.162c0.413-1.172,0.37-2.529-0.181-3.73c-0.722-1.578-2.145-2.559-3.904-2.688
			c-1.523-0.109-3.051-0.26-4.578-0.408c-3.074-0.299-6.253-0.605-9.404-0.605c-3.398,0-6.376,0.365-9.102,1.119
			c-7.283,2.012-13.745,8.438-16.865,16.766c-2.426,6.479-1.839,13.625,1.654,20.127c3.902,7.264,10.87,12.668,18.638,14.459
			c1.521,0.35,3.065,0.527,4.593,0.527h0.002c9.223,0,18.127-6.713,22.154-16.701c3.844-9.537,2.82-20.117-2.592-28.07
			C160.647,351.643,160.491,351.346,160.259,351.162z M130.596,356.523c-1.664,2.031-3.351,4.043-4.934,6.133
			C126.77,360.287,128.485,358.176,130.596,356.523z M124.313,367.578c0.236-0.047,0.461-0.184,0.627-0.438
			c3.041-4.695,6.878-8.779,10.256-13.223c0.738-0.279,1.497-0.51,2.272-0.684c0.257-0.057,0.524-0.104,0.791-0.15
			c-4.945,5.189-9.317,10.938-14.042,16.33C124.215,368.797,124.251,368.186,124.313,367.578z M124.442,372.17
			c5.736-6.373,10.851-13.371,16.945-19.41c0.375-0.016,0.753-0.025,1.148-0.025c0.479,0,0.961,0.016,1.444,0.033
			c-6.991,6.455-12.655,14.246-19.144,21.225C124.676,373.387,124.54,372.779,124.442,372.17z M125.548,376.156
			c7.209-7.613,13.328-16.297,21.221-23.199c0.934,0.086,1.873,0.186,2.822,0.297c0.062,0.062,0.127,0.121,0.194,0.182
			c0.051,0.043,0.096,0.092,0.146,0.137c-7.357,8.777-15.224,17.121-22.831,25.686C126.489,378.26,125.967,377.221,125.548,376.156z
			 M128.272,380.945c7.684-8.66,15.637-17.09,23.074-25.961c0.44,0.484,0.844,0.99,1.227,1.508
			c-8.65,7.68-15.721,16.975-22.844,26.119C129.221,382.09,128.731,381.543,128.272,380.945z M131.194,383.953
			c7.01-9.018,13.975-18.225,22.49-25.805c0.438,0.744,0.817,1.518,1.15,2.311c-7.639,7.877-13.854,17.014-21.234,25.127
			C132.764,385.119,131.958,384.58,131.194,383.953z M135.479,386.482c6.962-7.744,12.92-16.369,20.095-23.918
			c0.171,0.598,0.306,1.207,0.421,1.822c-6.865,7.072-12.627,15.104-19.04,22.576C136.456,386.826,135.962,386.672,135.479,386.482z
			 M146.457,386.141c2.834-3.338,5.656-6.688,8.495-10.021C153.471,380.186,150.516,384.141,146.457,386.141z M156.045,371.787
			c-4.427,5.156-8.796,10.361-13.21,15.529c-0.909,0.148-1.855,0.209-2.838,0.156c-0.27-0.016-0.535-0.049-0.803-0.078
			c5.746-6.795,11.017-13.996,17.117-20.477C156.407,368.504,156.307,370.135,156.045,371.787z"/>
		<path fill="#98f698" d="M162.337,241.416c2.763-5.307,5.814-10.379,9.137-15.224c1.821,0.809,3.633,1.658,5.455,2.465
			c-2.863,4.572-5.285,9.32-7.146,14.142c-1.395,3.615,4.408,5.165,5.785,1.596c1.777-4.604,4.154-9.146,6.972-13.518
			c0.951,0.316,1.911,0.602,2.883,0.836c3.76,0.906,5.354-4.879,1.595-5.786c-0.29-0.069-0.577-0.149-0.865-0.228
			c3.631-4.847,7.785-9.401,12.241-13.506c0.366,0.298,0.739,0.585,1.097,0.895c2.91,2.519,7.174-1.706,4.242-4.243
			c-0.249-0.216-0.508-0.413-0.76-0.624c3.828-3.118,7.817-5.888,11.851-8.208c3.353-1.929,0.331-7.114-3.028-5.181
			c-4.736,2.725-9.367,6.007-13.764,9.707c-1.621-1.081-3.283-2.09-4.984-3.038c3.953-3.574,8.133-6.947,12.541-10.107
			c3.115-2.232,0.124-7.44-3.027-5.181c-5.359,3.841-10.389,7.981-15.121,12.388c-0.921-0.443-1.848-0.879-2.783-1.307
			c-3.492-1.597-6.543,3.574-3.028,5.181c0.415,0.189,0.825,0.384,1.239,0.575c-4.875,4.948-9.4,10.203-13.527,15.801
			c-0.873-0.335-1.752-0.647-2.639-0.927c-3.701-1.165-5.271,4.628-1.595,5.785c0.218,0.068,0.435,0.145,0.651,0.217
			c-3.109,4.617-5.982,9.434-8.601,14.462C155.372,241.814,160.549,244.849,162.337,241.416z M188.503,205.812
			c1.681,0.884,3.328,1.821,4.932,2.832c-4.817,4.563-9.263,9.622-13.119,15c-1.782-0.746-3.547-1.561-5.314-2.366
			C179.118,215.793,183.624,210.638,188.503,205.812z"/>
	</g>
</g>
<g>
</g>
<g>
</g>
<g>
</g>
<g>
</g>
<g>
</g>
<g>
</g>
<g>
</g>
<g>
</g>
<g>
</g>
<g>
</g>
<g>
</g>
<g>
</g>
<g>
</g>
<g>
</g>
<g>
</g>
</svg>
