<?xml version="1.0" encoding="iso-8859-1"?>
<!-- Generator: Adobe Illustrator 16.0.0, SVG Export Plug-In . SVG Version: 6.00 Build 0)  -->
<!DOCTYPE svg PUBLIC "-//W3C//DTD SVG 1.1//EN" "http://www.w3.org/Graphics/SVG/1.1/DTD/svg11.dtd">
<svg version="1.1" id="Capa_1" xmlns="http://www.w3.org/2000/svg" xmlns:xlink="http://www.w3.org/1999/xlink" x="0px" y="0px"
	 width="513.369px" height="513.369px" viewBox="0 0 513.369 513.369" style="enable-background:new 0 0 513.369 513.369;"
	 xml:space="preserve">
<g>
	<g>
		<path fill="#98f698" d="M426.42,107.512c-4.647-11.341-11.528-21.543-20.188-30.206c-4.389-4.391-9.346-8.225-14.49-11.685
			c-2.771-1.865-5.679-3.523-8.621-5.101c-2.651-1.421-5.479-1.335-8.389-1.257c-15.962-24-40.773-43.486-70.672-39.99
			c-2.408-2.82-5.029-5.441-7.892-7.802c-12.048-9.933-38.271-15.96-48.066-0.665c-10.881-12.988-30.103-13.48-45.062-5.661
			c-2.654,1.388-5.074,3.021-7.297,4.851c-15.374-10.979-37.158,1.676-49.938,11.553c-9.193,7.104-16.366,15.971-21.788,25.861
			C84.609,76.005,74.95,125.917,80.615,171.903c3.206,26.016,13.176,49.863,26.415,72.301
			c13.304,22.545,29.157,43.469,42.312,66.113c30.653,52.762,67.237,104.516,80.597,165.044c0.027,0.119,0.074,0.215,0.107,0.326
			c-0.237,0.303-0.444,0.648-0.607,1.047c-3.089,7.562-4.83,16.502-1.764,24.354c3.314,8.489,12.033,12.28,20.708,12.28
			c12.858,0,17.632-9.862,19.248-20.655c0.091-0.193,0.127-0.412,0.09-0.633c0.726-5.257,0.731-10.689,0.575-15.281
			c-0.025-0.756-0.276-1.543-0.697-2.219c0.016-0.076,0.043-0.14,0.055-0.22c7.726-53.719,48.455-94.76,79.111-136.908
			c18.229-25.062,35.124-51.123,50.085-78.271c13.325-24.181,26.613-49.877,33.258-76.83
			C436.158,157.815,436.091,131.115,426.42,107.512z M210.713,400.85c0.801-0.18,1.621-0.352,2.436-0.525
			c-0.489,0.83-0.98,1.659-1.477,2.484C211.349,402.158,211.04,401.5,210.713,400.85z M212.711,404.932
			c1.051-1.707,2.07-3.434,3.092-5.158c0.948-0.19,1.896-0.383,2.856-0.562c-1.595,2.738-2.996,5.594-4.678,8.295
			C213.56,406.647,213.134,405.79,212.711,404.932z M214.945,409.488c0.142-0.073,0.274-0.186,0.381-0.351
			c1.596-2.469,2.894-5.116,4.317-7.686c0.129,0.312,0.25,0.629,0.379,0.941c-1.061,1.668-2.101,3.351-3.09,5.066
			c-0.645,1.119,1.084,2.127,1.727,1.01c0.738-1.279,1.502-2.541,2.281-3.793c0.321,0.797,0.643,1.596,0.963,2.395
			c-0.05,0.062-0.098,0.125-0.147,0.188c-0.263,0.319-0.29,0.688-0.181,1.002c-2.125,0.533-4.232,1.149-6.303,1.901
			C215.165,409.938,215.054,409.714,214.945,409.488z M218.647,417.453c2.145-0.719,4.309-1.301,6.486-1.774
			c2.023,5.705,3.854,11.477,5.445,17.334c0.197,0.729,0.373,1.473,0.54,2.223c-1.519,0.435-3.015,0.914-4.47,1.461
			C224.192,430.196,221.505,423.788,218.647,417.453z M242.717,414.011c-0.032,6.372-0.028,12.747,0.132,19.114
			c-1.307,0.104-2.61,0.251-3.904,0.438c-0.503-2.059-1.037-4.111-1.613-6.163c-1.229-4.378-2.626-8.7-4.141-12.98
			C236.343,414.107,239.521,413.99,242.717,414.011z M240.476,405.945c0.739-1.053,1.504-2.103,2.303-3.119
			c-0.006,1.04-0.006,2.079-0.013,3.12C242.001,405.938,241.24,405.938,240.476,405.945z M242.795,398.299
			c0,0.475-0.005,0.951-0.006,1.427c-1.726,1.966-3.287,4.144-4.771,6.275c-1.577,0.057-3.152,0.152-4.722,0.293
			c2.634-3.487,5.626-6.661,8.695-9.767c0.405-0.013,0.812-0.03,1.218-0.039C242.955,397,242.795,397.598,242.795,398.299z
			 M230.933,406.128c-0.107,0.148-0.161,0.296-0.178,0.438c-0.154,0.02-0.309,0.03-0.462,0.05c-0.065-0.17-0.136-0.338-0.202-0.506
			c2.142-3.416,4.607-6.695,7.598-9.378c0.463-0.03,0.926-0.052,1.389-0.077C236.181,399.651,233.395,402.742,230.933,406.128z
			 M229.18,403.817c-0.28-0.7-0.553-1.401-0.837-2.101c1.146-1.555,2.34-3.069,3.651-4.487c0.85-0.091,1.701-0.173,2.554-0.25
			C232.543,399.057,230.771,401.393,229.18,403.817z M227.463,399.578c-0.234-0.567-0.465-1.141-0.702-1.709
			c0.757-0.105,1.521-0.194,2.282-0.293C228.504,398.233,227.976,398.898,227.463,399.578z M234.724,497.094
			c-0.307-0.949-0.504-1.924-0.621-2.91c2.492,3.479,5.094,6.875,7.775,10.209C238.595,503.133,235.891,500.713,234.724,497.094z
			 M249.583,505.301c-1.49,0.176-2.998,0.151-4.459-0.064c-3.879-4.737-7.612-9.584-11.092-14.627c0.1-1.436,0.341-2.877,0.67-4.299
			c5.16,6.422,11.326,12.102,16.156,18.762C250.449,505.166,250.028,505.247,249.583,505.301z M252.836,504.416
			c-5.211-7.302-12.04-13.378-17.495-20.507c0.308-1.021,0.655-2.018,1.017-2.987c5.797,7.69,11.328,15.703,18.205,22.463
			C254.031,503.773,253.468,504.133,252.836,504.416z M256.053,502.041c-6.661-6.535-12.042-14.246-17.646-21.703
			c1.389-0.011,2.78-0.056,4.172-0.107c5.254,6.025,10.719,11.865,15.815,18.023C257.79,499.678,257.031,500.969,256.053,502.041z
			 M259.176,496.081c-4.543-5.434-9.35-10.639-14.03-15.954c0.717-0.031,1.434-0.064,2.151-0.095
			c4.129,4.402,8.471,8.603,12.554,13.045C259.67,494.107,259.458,495.119,259.176,496.081z M260.211,490.523
			c-3.356-3.584-6.856-7.035-10.25-10.586c1.73-0.053,3.461-0.076,5.188-0.039c1.814,2.027,3.589,4.088,5.322,6.183
			C260.437,487.553,260.367,489.045,260.211,490.523z M257.936,480.021c0.831,0.055,1.661,0.125,2.49,0.223
			c0.03,0.884,0.053,1.812,0.065,2.763C259.647,482.004,258.798,481.008,257.936,480.021z M259.939,472.234
			c-0.001,0.004,0,0.008-0.001,0.011c-7.484-0.593-14.96,0.181-22.486,0.112c-2.158-9.601-4.9-18.977-8.097-28.172
			c1.046-0.379,2.118-0.717,3.203-1.036c0.8,4.77,1.705,9.534,3.783,13.668c2.318,4.61,9.219,0.559,6.908-4.038
			c-1.612-3.207-1.885-7.506-2.528-10.995c-0.023-0.128-0.052-0.254-0.076-0.382c0.828-0.114,1.661-0.203,2.495-0.281
			c0.242,4.902,0.606,9.798,1.155,14.679c0.43,3.819,5.082,4.787,7.102,2.839c1.934,1.497,5.553,1.271,6.756-1.776
			c1.761-4.457,2.747-9.106,3.454-13.82c1.762,0.595,3.474,1.312,5.107,2.183C263.63,453.893,261.287,462.868,259.939,472.234z
			 M261.741,397.949c0.564,0.106,1.135,0.196,1.693,0.316c-0.234,0.903-0.486,1.801-0.747,2.694
			c-1.936,1.971-3.804,4.011-5.644,6.083c-0.963-0.139-1.928-0.265-2.898-0.373c0.693-0.806,1.396-1.603,2.111-2.385
			c1.117-1.224,3.373-4.417,5.139-4.688C262.3,399.458,262.276,398.454,261.741,397.949z M261.374,405.24
			c-0.255,0.797-0.515,1.593-0.773,2.388c-0.403-0.077-0.812-0.136-1.216-0.205C260.043,406.689,260.706,405.961,261.374,405.24z
			 M250.847,433.029c-0.154-6.229-0.162-12.465-0.131-18.696c2.469,0.186,4.922,0.653,7.369,1.229
			c-0.888,3.023-1.66,6.086-2.168,9.235c-0.461,2.853-0.797,5.73-1.129,8.609C253.481,433.24,252.167,433.105,250.847,433.029z
			 M253.792,441.273c-0.476,3.195-1.086,6.36-1.994,9.463c-0.283-3.237-0.504-6.481-0.662-9.729
			C252.026,441.066,252.912,441.162,253.792,441.273z M255.665,401.99c-1.358,1.422-2.681,2.902-3.936,4.436
			c-0.322-0.029-0.643-0.063-0.967-0.09c0.01-1.456,0.012-2.909,0.018-4.364c1.695-1.715,3.463-3.355,5.318-4.896
			c1.521,0.178,3.027,0.406,4.525,0.664C258.752,398.211,256.859,400.74,255.665,401.99z M250.792,399.16
			c0.001-0.286,0.004-0.574,0.004-0.86c0-0.649-0.127-1.216-0.348-1.701c0.978,0.05,1.951,0.121,2.922,0.201
			C252.496,397.568,251.631,398.352,250.792,399.16z M269.572,437.735c-2.223-1.093-4.552-1.982-6.949-2.693
			c0.311-2.718,0.616-5.431,1.009-8.117c0.469-3.203,1.24-6.312,2.146-9.383c4.159,1.059,8.319,1.926,12.521,1.758
			c0.056-0.003,0.103-0.019,0.156-0.022C275.17,425.29,272.175,431.432,269.572,437.735z M275.21,402.033
			c0.553,0.242,1.097,0.502,1.642,0.763c-2.578,2.072-4.895,4.641-6.854,7.232c-0.557-0.153-1.11-0.312-1.661-0.472
			c0.273-0.827,0.547-1.654,0.814-2.484C271.054,405.247,273.073,403.553,275.21,402.033z M270.311,403.353
			c0.288-0.97,0.568-1.943,0.826-2.924c0.646,0.226,1.285,0.466,1.922,0.714C272.118,401.848,271.203,402.586,270.311,403.353z
			 M278.812,403.779c1.307,0.688,2.581,1.447,3.834,2.25c-1.915,1.693-3.767,3.459-5.585,5.263c-1.664-0.058-3.323-0.331-4.968-0.72
			C274.021,408.099,276.303,405.66,278.812,403.779z M281.784,413.387c-0.385-0.871-1.077-1.58-2.077-1.902
			c1.537-1.499,3.114-2.953,4.729-4.363c0.318,0.146,0.633,0.246,0.939,0.296C284.147,409.393,282.956,411.385,281.784,413.387z
			 M423.321,176.143c-5.666,27.285-19.297,53.08-32.487,77.374c-14.794,27.244-31.773,53.276-49.896,78.41
			c-16.484,22.858-35.896,45.297-51.729,69.481c-0.29-0.582-0.743-1.121-1.392-1.563c-22.95-15.699-54.953-12.305-80.583-6.402
			c-0.102,0.023-0.183,0.064-0.278,0.094c-13.702-26.145-29.596-51.312-44.493-76.581c-13.579-23.034-28.575-44.989-42.871-67.566
			c-14.132-22.317-25.743-45.952-30.208-72.193c-6.664-39.173-0.932-84.245,27.434-113.169c-1.051,3.162-1.955,6.382-2.732,9.637
			c-1.181,0.342-2.377,0.607-3.621,0.637c-1.287,0.029-1.29,2.029,0,2c1.066-0.025,2.102-0.193,3.121-0.436
			c-0.162,0.736-0.329,1.473-0.477,2.215c-1.897,1.141-4.08,1.798-6.243,2.256c-1.261,0.268-0.726,2.195,0.532,1.93
			c1.803-0.383,3.597-0.92,5.265-1.703c-0.13,0.73-0.276,1.457-0.394,2.189c-0.041,0.259-0.068,0.518-0.106,0.775
			c-2.21,1.393-4.682,2.322-7.297,2.809c-1.267,0.236-0.729,2.164,0.532,1.93c2.257-0.421,4.418-1.173,6.418-2.23
			c-0.169,1.379-0.317,2.759-0.438,4.141c-2.054,1.383-4.098,2.783-6.085,4.262c-1.021,0.76-0.026,2.498,1.01,1.727
			c1.598-1.189,3.232-2.328,4.879-3.449c-0.056,0.852-0.108,1.705-0.148,2.558c-1.406,1.347-2.851,2.649-4.407,3.831
			c-1.012,0.77-0.018,2.508,1.01,1.727c1.145-0.869,2.233-1.792,3.295-2.746c-0.061,2.234-0.077,4.469-0.051,6.706
			c-1.252,0.863-2.578,1.617-4.015,2.213c-1.173,0.487-0.659,2.423,0.532,1.929c1.241-0.516,2.408-1.123,3.521-1.808
			c0.031,1.353,0.07,2.706,0.122,4.06c-1.451,0.897-2.896,1.805-4.415,2.587c-1.146,0.591-0.135,2.315,1.01,1.727
			c1.199-0.616,2.349-1.317,3.494-2.024c0.066,1.457,0.143,2.914,0.225,4.37c-1.568,0.878-3.124,1.78-4.729,2.595
			c-1.149,0.584-0.137,2.309,1.01,1.727c1.305-0.662,2.575-1.383,3.848-2.102c0.09,1.496,0.184,2.992,0.279,4.486
			c0.006,0.105,0.016,0.209,0.022,0.314c-1.613,1.131-3.39,2.022-5.159,2.907c-1.152,0.577-0.14,2.302,1.01,1.727
			c1.471-0.735,2.933-1.485,4.315-2.354c0.071,0.99,0.137,1.98,0.216,2.969c-1.9,1.373-3.604,3-5.541,4.326
			c-1.057,0.723-0.058,2.457,1.01,1.727c1.66-1.136,3.146-2.494,4.73-3.725c0.119,1.378,0.236,2.756,0.369,4.134
			c-1.766,1.147-3.559,2.241-5.442,3.197c-1.15,0.583-0.138,2.309,1.01,1.727c1.604-0.813,3.14-1.728,4.65-2.688
			c0.19,1.852,0.39,3.701,0.604,5.551c-1.438,0.658-2.854,1.373-4.265,2.078c-1.153,0.576-0.141,2.302,1.01,1.727
			c1.164-0.582,2.328-1.18,3.509-1.738c0.21,1.719,0.421,3.438,0.653,5.154c-1.476,0.466-2.844,1.215-4.04,2.347
			c-0.939,0.888,0.478,2.3,1.414,1.414c0.874-0.827,1.857-1.39,2.912-1.763c0.24,1.705,0.469,3.414,0.732,5.117
			c-1.424,0.496-2.819,1.067-4.19,1.742c-1.157,0.569-0.144,2.294,1.01,1.727c1.146-0.564,2.306-1.049,3.489-1.473
			c0.249,1.557,0.505,3.111,0.773,4.664c-1.633,0.667-3.302,1.207-5.033,1.647c-1.25,0.317-0.719,2.247,0.531,1.929
			c1.664-0.423,3.273-0.951,4.851-1.576c0.231,1.278,0.476,2.553,0.726,3.827c-1.459,0.847-2.935,1.664-4.347,2.588
			c-1.074,0.702-0.073,2.435,1.01,1.727c1.218-0.797,2.484-1.515,3.746-2.239c0.333,1.633,0.676,3.263,1.037,4.889
			c-1.194,0.855-2.454,1.612-3.793,2.291c-1.15,0.583-0.138,2.309,1.01,1.727c1.134-0.574,2.215-1.213,3.253-1.908
			c0.328,1.418,0.665,2.834,1.015,4.246c-1.34,0.594-2.701,1.145-3.944,1.936c-1.084,0.689-0.082,2.421,1.01,1.727
			c1.086-0.69,2.263-1.199,3.437-1.712c0.353,1.38,0.702,2.762,1.074,4.136c-1.009,0.728-2.104,1.333-3.281,1.748
			c-1.208,0.427-0.688,2.359,0.532,1.93c1.177-0.416,2.285-0.978,3.322-1.65c0.436,1.558,0.859,3.119,1.32,4.669
			c-2.025,0.831-4.104,1.532-6.08,2.486c-1.162,0.562-0.146,2.284,1.01,1.727c1.832-0.885,3.754-1.555,5.64-2.31
			c0.542,1.771,1.095,3.536,1.671,5.295c-1.4,1.143-2.868,2.203-4.32,3.288c-1.021,0.762-0.025,2.499,1.01,1.727
			c1.334-0.997,2.684-1.974,3.991-3.002c0.351,1.042,0.694,2.085,1.056,3.123c-1.309,1.18-2.818,2.13-4.484,2.718
			c-1.208,0.427-0.688,2.359,0.531,1.93c1.703-0.602,3.271-1.495,4.668-2.624c0.613,1.717,1.235,3.431,1.883,5.136
			c-1.107,0.553-2.214,1.106-3.321,1.66c-1.153,0.576-0.14,2.302,1.01,1.728c1.012-0.506,2.023-1.012,3.036-1.519
			c0.402,1.039,0.791,2.083,1.207,3.117c-1.392,1.297-2.842,2.447-4.586,3.34c-1.148,0.588-0.137,2.314,1.01,1.727
			c1.637-0.838,3.04-1.908,4.373-3.098c0.294,0.715,0.57,1.438,0.871,2.152c-1.426,1.063-2.781,2.219-4.254,3.219
			c-1.061,0.721-0.061,2.455,1.01,1.727c1.399-0.951,2.691-2.044,4.039-3.064c0.617,1.436,1.244,2.866,1.887,4.291
			c-0.925,0.854-1.885,1.668-2.936,2.381c-1.061,0.719-0.062,2.453,1.01,1.728c0.991-0.672,1.911-1.42,2.797-2.207
			c0.417,0.908,0.832,1.818,1.26,2.721c-1.379,0.996-2.712,2.048-3.936,3.249c-0.922,0.905,0.494,2.317,1.414,1.414
			c1.062-1.042,2.207-1.96,3.394-2.83c0.624,1.291,1.253,2.579,1.896,3.861c-1.359,1.169-2.757,2.296-4.038,3.555
			c-0.921,0.905,0.494,2.318,1.414,1.414c1.132-1.111,2.354-2.12,3.561-3.146c0.533,1.043,1.064,2.088,1.612,3.124
			c0.034,0.065,0.067,0.132,0.101,0.196c-0.906,0.609-1.877,1.122-2.912,1.487c-1.208,0.426-0.688,2.358,0.531,1.929
			c1.168-0.412,2.268-0.967,3.299-1.633c0.596,1.154,1.197,2.305,1.781,3.464c-1.965,0.886-3.621,2.227-4.875,4.033
			c-0.738,1.062,0.996,2.062,1.727,1.01c1.016-1.464,2.432-2.542,4.051-3.244c0.893,1.797,1.778,3.598,2.645,5.407
			c-1.738,1.201-3.416,2.469-4.934,3.958c-0.921,0.905,0.494,2.316,1.414,1.414c1.356-1.331,2.842-2.472,4.388-3.548
			c0.575,1.215,1.147,2.43,1.712,3.649c-1.553,1.213-3.015,2.545-4.645,3.66c-1.057,0.725-0.058,2.458,1.01,1.727
			c1.574-1.075,2.988-2.358,4.481-3.538c0.446,0.977,0.899,1.948,1.341,2.928c-1.304,1.291-2.639,2.518-4.165,3.552
			c-1.062,0.719-0.062,2.452,1.01,1.727c1.456-0.986,2.765-2.123,4.023-3.333c0.534,1.197,1.076,2.392,1.603,3.593
			c-1.168,1.168-2.336,2.336-3.504,3.504c-0.913,0.913,0.501,2.328,1.414,1.414c0.982-0.982,1.965-1.966,2.949-2.949
			c0.384,0.885,0.77,1.768,1.15,2.652c-1.52,1.419-3.136,2.679-4.338,4.419c-0.734,1.063,1,2.062,1.727,1.01
			c0.942-1.363,2.213-2.399,3.441-3.483c0.353,0.824,0.707,1.646,1.057,2.472c-1.186,1.778-2.372,3.558-3.557,5.336
			c-0.719,1.076,1.015,2.077,1.727,1.01c0.92-1.381,1.84-2.762,2.761-4.143c0.638,1.514,1.272,3.024,1.903,4.54
			c-0.882,1.309-1.803,2.593-2.902,3.724c-0.898,0.926,0.515,2.341,1.414,1.414c0.885-0.908,1.661-1.912,2.396-2.947
			c0.635,1.531,1.27,3.062,1.902,4.595c-1.02,1.198-1.944,2.479-3.045,3.605c-0.902,0.923,0.512,2.339,1.414,1.414
			c0.896-0.919,1.68-1.938,2.488-2.934c0.745,1.81,1.489,3.619,2.233,5.429c-0.045,0.032-0.093,0.048-0.136,0.091
			c-1.516,1.516-2.863,3.06-3.592,5.107c-0.433,1.219,1.5,1.737,1.93,0.531c0.529-1.492,1.529-2.647,2.61-3.756
			c0.464,1.129,0.928,2.258,1.394,3.387c-0.643,1.739-1.655,3.288-2.498,4.933c-0.588,1.145,1.137,2.156,1.727,1.01
			c0.591-1.152,1.237-2.266,1.816-3.414c0.486,1.174,0.973,2.349,1.463,3.521c-1.217,2.076-2.57,4.073-3.674,6.217
			c-0.589,1.145,1.137,2.155,1.727,1.01c0.876-1.7,1.907-3.309,2.904-4.938c0.517,1.231,1.033,2.463,1.553,3.69
			c-0.065,0.068-0.133,0.135-0.184,0.236c-1.187,2.41-2.146,4.922-3.332,7.332c-0.568,1.152,1.156,2.168,1.727,1.01
			c1.002-2.034,1.849-4.139,2.8-6.195c0.798,1.869,1.603,3.736,2.416,5.601c-0.159,0.111-0.301,0.262-0.378,0.491
			c-0.571,1.716-1.109,3.465-1.898,5.095c-0.56,1.155,1.164,2.171,1.727,1.01c0.648-1.339,1.152-2.742,1.628-4.152
			c0.56,1.267,1.116,2.534,1.685,3.797c-0.59,1.328-1.07,2.705-1.705,4.015c-0.562,1.153,1.162,2.169,1.727,1.01
			c0.408-0.841,0.75-1.709,1.098-2.576c0.578,1.269,1.153,2.537,1.742,3.799c-0.445,1.336-0.89,2.671-1.335,4.007
			c-0.409,1.227,1.522,1.749,1.929,0.53c0.215-0.643,0.43-1.287,0.644-1.932c0.494,1.041,0.979,2.084,1.481,3.12
			c-0.655,1.122-1.36,2.218-1.953,3.374c-0.586,1.146,1.139,2.158,1.727,1.01c0.393-0.766,0.836-1.504,1.279-2.24
			c0.473,0.959,0.934,1.923,1.414,2.878c-0.818,1.192-1.189,2.803-1.223,4.191c-0.031,1.29,1.969,1.288,2,0
			c0.015-0.603,0.119-1.335,0.342-2.003c0.525,1.025,1.037,2.059,1.572,3.078c-0.157,1.303-0.537,2.566-1.111,3.754
			c-0.559,1.155,1.166,2.17,1.727,1.01c0.33-0.684,0.594-1.387,0.818-2.1c0.66,1.227,1.304,2.459,1.98,3.678
			c-0.059,1.757-0.732,3.338-1.293,4.984c-0.416,1.224,1.517,1.745,1.93,0.531c0.317-0.936,0.65-1.844,0.908-2.769
			c0.547,0.959,1.096,1.917,1.654,2.869c-0.428,1.557-0.666,3.158-1.158,4.699c-0.393,1.231,1.539,1.756,1.929,0.533
			c0.29-0.912,0.489-1.845,0.69-2.775c0.516,0.856,1.029,1.717,1.557,2.568c-0.023,0.038-0.055,0.059-0.074,0.102
			c-0.748,1.631-0.803,3.407-0.805,5.172c0,1.29,2,1.29,2,0c0.001-1.043-0.028-2.173,0.215-3.215
			c2.919,3.598,9.225-0.254,6.573-4.471c-15.999-25.443-26.952-53.421-38.298-81.13c-5.559-13.574-11.295-27.082-17.762-40.253
			c-6.585-13.41-13.556-26.384-18.799-40.419c-10.108-27.059-15.207-55.685-17.386-84.41c-1.085-14.306-2.091-28.935-0.024-43.19
			c1.97-13.592,6.549-26.754,13.713-38.474c6.479-10.599,15.842-18.608,26.411-24.954c7.836-4.705,20.923-11.103,29.866-5.766
			c-1.181,1.383-2.283,2.834-3.319,4.338c-1.854-1.086-3.929-1.676-6.188-1.723c-1.291-0.027-1.288,1.973,0,2
			c1.869,0.039,3.566,0.51,5.093,1.387c-0.583,0.91-1.15,1.832-1.689,2.776c-1.77-1.042-3.761-1.615-5.805-2.128
			c-1.251-0.313-1.782,1.615-0.531,1.929c1.875,0.47,3.749,0.951,5.379,1.935c-0.913,1.711-1.767,3.464-2.554,5.256
			c-1.404-0.689-2.929-1.109-4.56-1.154c-1.29-0.036-1.287,1.964,0,2c1.361,0.037,2.625,0.402,3.786,0.992
			c-0.515,1.248-1.012,2.506-1.475,3.779c-1.548-0.775-3.062-1.611-4.474-2.635c-1.046-0.76-2.043,0.977-1.01,1.727
			c1.517,1.1,3.149,1.98,4.815,2.805c-0.708,2.068-1.355,4.156-1.949,6.252c-0.922-0.287-1.844-0.578-2.762-0.885
			c-1.228-0.408-1.749,1.523-0.532,1.929c0.918,0.306,1.839,0.599,2.762,0.884c-0.36,1.348-0.706,2.695-1.028,4.039
			c-1.234-0.395-2.449-0.848-3.629-1.417c-1.156-0.558-2.171,1.167-1.01,1.727c1.36,0.657,2.758,1.181,4.179,1.635
			c-0.406,1.778-0.785,3.548-1.138,5.294c-1.424-0.475-2.847-0.948-4.271-1.423c-1.228-0.409-1.749,1.522-0.531,1.929
			c1.471,0.49,2.942,0.98,4.413,1.471c-0.279,1.455-0.536,2.91-0.771,4.365c-1.426-0.707-2.92-1.256-4.443-1.765
			c-1.227-0.409-1.749,1.522-0.532,1.929c1.612,0.538,3.173,1.123,4.652,1.924c-0.247,1.676-0.473,3.354-0.667,5.031
			c-1.557-0.613-3.145-1.133-4.787-1.551c-1.25-0.318-1.781,1.611-0.531,1.929c1.756,0.446,3.447,0.994,5.103,1.675
			c-0.08,0.781-0.167,1.562-0.237,2.344c-1.905-0.039-3.793-0.176-5.667-0.613c-1.255-0.293-1.787,1.635-0.531,1.928
			c1.991,0.466,4.002,0.63,6.03,0.68c-0.168,2.166-0.297,4.332-0.385,6.498c-1.604-0.346-3.265-0.182-4.979,0.228
			c-1.254,0.3-0.722,2.228,0.532,1.929c1.543-0.368,2.98-0.525,4.383-0.115c-0.059,1.965-0.099,3.931-0.1,5.896
			c-1.221-0.377-2.552-0.412-3.883-0.412c-1.29-0.002-1.289,1.998,0,2c1.286,0,2.722-0.053,3.883,0.541
			c0.016,1.529,0.044,3.059,0.092,4.588c-1.458-0.365-2.916-0.729-4.375-1.094c-1.252-0.312-1.783,1.615-0.532,1.929
			c1.661,0.415,3.321,0.83,4.981,1.245c0.067,1.66,0.149,3.32,0.252,4.98c-1.613,0.195-3.069-0.487-4.463-1.387
			c-1.087-0.701-2.088,1.031-1.01,1.727c1.725,1.113,3.604,1.854,5.6,1.651c0.073,1.053,0.177,2.104,0.264,3.157
			c-0.01,0-0.016-0.004-0.024-0.005c-1.433-0.04-2.886-0.577-4.162-1.196c-1.155-0.562-2.169,1.162-1.01,1.727
			c1.606,0.779,3.37,1.42,5.172,1.47c0.071,0.002,0.124-0.022,0.188-0.032c0.06,0.668,0.103,1.336,0.167,2.004
			c-1.381-0.047-2.741-0.186-4.089-0.603c-1.235-0.383-1.759,1.548-0.531,1.929c1.581,0.49,3.195,0.639,4.828,0.684
			c0.2,1.925,0.413,3.85,0.649,5.775c-1.064-0.183-2.123-0.4-3.212-0.424c-1.29-0.027-1.288,1.973,0,2
			c1.173,0.025,2.314,0.277,3.466,0.465c0.21,1.629,0.43,3.256,0.662,4.883c-1.711,0.037-3.411,0.172-5.061,0.688
			c-1.227,0.384-0.703,2.315,0.531,1.929c1.576-0.494,3.192-0.602,4.822-0.625c0.166,1.121,0.332,2.242,0.508,3.362
			c-1.533,0.06-3.061,0.22-4.528,0.667c-1.229,0.375-0.705,2.306,0.532,1.929c1.398-0.427,2.849-0.565,4.306-0.61
			c0.001,0.008,0.002,0.016,0.003,0.023c0.262,1.619,0.535,3.238,0.814,4.857c-1.783,0.328-3.561,0.432-5.389,0.432
			c-1.29,0.001-1.29,2.001,0,2c1.941,0,3.84-0.121,5.735-0.465c0.188,1.066,0.374,2.133,0.567,3.199
			c-2.172,0.723-4.35,1.404-6.569,1.969c-1.249,0.316-0.719,2.246,0.532,1.928c2.164-0.549,4.29-1.215,6.408-1.917
			c0.387,2.091,0.77,4.183,1.178,6.272c-1.773,1.053-3.783,1.641-5.852,1.681c-1.289,0.024-1.291,2.024,0,2
			c2.18-0.042,4.341-0.594,6.266-1.614c0.242,1.221,0.482,2.441,0.731,3.66c-1.099,0.163-2.198,0.329-3.264,0.656
			c-1.229,0.377-0.704,2.309,0.532,1.929c1.025-0.315,2.082-0.48,3.141-0.638c0.167,0.807,0.341,1.612,0.51,2.418
			c-1.493,0.479-3.001,0.885-4.583,0.922c-1.288,0.03-1.29,2.031,0,2c1.725-0.039,3.368-0.453,4.996-0.961
			c0.134,0.631,0.263,1.262,0.399,1.893c-1.737,0.861-3.589,1.492-5.234,2.539c-1.084,0.689-0.082,2.42,1.01,1.727
			c1.467-0.933,3.098-1.535,4.664-2.265c0.402,1.837,0.797,3.674,1.213,5.509c-1.812,0.861-3.748,1.486-5.553,2.362
			c-1.16,0.563-0.146,2.287,1.01,1.727c1.621-0.786,3.346-1.374,4.994-2.109c0.371,1.616,0.743,3.232,1.123,4.847
			c-1.289,0.389-2.594,0.701-3.955,0.732c-1.288,0.03-1.291,2.031,0,2c1.521-0.035,2.978-0.365,4.418-0.789
			c0.42,1.77,0.842,3.54,1.273,5.307c-1.197,0.418-2.396,0.787-3.691,0.816c-1.288,0.027-1.291,2.028,0,2
			c1.471-0.033,2.814-0.422,4.167-0.877c0.546,2.221,1.097,4.441,1.657,6.657c-1.707,0.185-3.426,0.218-5.158,0.22
			c-1.289,0-1.29,2,0,2c1.9-0.002,3.785-0.049,5.658-0.27c0.507,1.988,1.012,3.979,1.529,5.963c-1.41,0.631-2.885,0.949-4.521,0.973
			c-1.288,0.021-1.29,2.021,0,2c1.788-0.026,3.453-0.359,5.032-1.016c0.373,1.422,0.738,2.846,1.115,4.266
			c-2.13,0.518-4.264,1.018-6.414,1.453c-1.264,0.256-0.727,2.184,0.532,1.928c2.144-0.434,4.272-0.933,6.396-1.449
			c0.334,1.25,0.661,2.504,0.997,3.75c-1.968,0.613-3.965,1.131-5.926,1.771c-1.221,0.398-0.697,2.33,0.532,1.928
			c1.957-0.639,3.95-1.156,5.916-1.767c0.437,1.608,0.874,3.216,1.314,4.819c-1.858,0.646-3.667,1.377-5.335,2.453
			c-1.078,0.697-0.076,2.43,1.01,1.727c1.52-0.98,3.148-1.65,4.834-2.242c0.201,0.765,0.406,1.528,0.598,2.295
			c-1.925,0.963-3.85,1.926-5.774,2.888c-1.153,0.577-0.141,2.302,1.01,1.727c1.747-0.874,3.495-1.747,5.243-2.622
			c0.213,0.898,0.432,1.795,0.634,2.695c-1.216,1.705-2.94,2.904-4.423,4.355c-0.922,0.903,0.493,2.317,1.414,1.414
			c1.173-1.148,2.436-2.157,3.549-3.331c0.236,1.104,0.467,2.207,0.689,3.314c-1.774,1.326-3.465,2.748-5.449,3.779
			c-1.145,0.596-0.134,2.32,1.01,1.727c1.771-0.92,3.301-2.154,4.869-3.352c0.298,1.545,0.589,3.092,0.865,4.643
			c-1.27,0.765-2.417,1.71-3.839,2.215c-1.206,0.43-0.687,2.362,0.532,1.93c1.366-0.486,2.492-1.302,3.68-2.053
			c0.062,0.358,0.131,0.715,0.191,1.073c-1.328,0.823-2.671,1.623-3.976,2.484c-1.071,0.707-0.07,2.439,1.01,1.727
			c1.09-0.72,2.208-1.396,3.321-2.075c0.095,0.572,0.184,1.146,0.277,1.719c-1.397,0.75-2.537,1.89-3.941,2.629
			c-1.142,0.602-0.131,2.327,1.01,1.728c1.172-0.618,2.167-1.505,3.273-2.224c0.071,0.444,0.146,0.89,0.215,1.333
			c-1.415,1.017-2.781,2.09-4.033,3.319c-0.922,0.905,0.493,2.317,1.414,1.414c0.932-0.915,1.928-1.737,2.959-2.515
			c0.127,0.836,0.257,1.67,0.383,2.505c-0.954,0.592-1.936,1.146-2.756,1.929c-0.936,0.892,0.48,2.304,1.414,1.414
			c0.504-0.48,1.072-0.873,1.656-1.244c0.044,0.294,0.089,0.589,0.133,0.883c0.15,1.013,0.312,2.021,0.467,3.031
			c-1.115,0.864-2.297,1.646-3.469,2.427c-1.066,0.712-0.066,2.444,1.01,1.728c0.938-0.625,1.886-1.249,2.805-1.911
			c0.189,1.225,0.375,2.449,0.564,3.672c-1.071,0.902-2.239,1.688-3.248,2.669c-0.926,0.9,0.49,2.312,1.414,1.414
			c0.681-0.662,1.436-1.233,2.185-1.812c0.157,1.002,0.305,2.005,0.462,3.005l-3.393,3.394c-0.913,0.913,0.501,2.327,1.414,1.414
			l2.364-2.364c0.22,1.383,0.435,2.767,0.655,4.148c-1.015,1.28-2.187,2.379-3.565,3.312c-1.062,0.719-0.062,2.451,1.01,1.728
			c1.095-0.741,2.07-1.571,2.959-2.49c0.155,0.979,0.31,1.957,0.465,2.936c-1.179,1.146-2.396,2.232-3.767,3.161
			c-1.062,0.72-0.062,2.452,1.01,1.728c1.117-0.757,2.145-1.608,3.134-2.507c0.208,1.313,0.417,2.629,0.624,3.943
			c-1.076,1.026-2.192,1.994-3.435,2.836c-1.062,0.72-0.062,2.452,1.01,1.728c0.99-0.671,1.909-1.415,2.795-2.198
			c0.204,1.303,0.411,2.607,0.612,3.911c-1.168,0.962-2.486,1.725-3.75,2.561c-1.07,0.708-0.07,2.44,1.01,1.728
			c1.031-0.684,2.09-1.327,3.094-2.046c0.18,1.146,0.375,2.293,0.59,3.438c-0.972,0.782-1.998,1.496-2.896,2.369
			c-0.926,0.901,0.49,2.314,1.414,1.414c0.6-0.583,1.259-1.094,1.92-1.604c0.094,0.463,0.18,0.926,0.277,1.389
			c-0.604,0.869-1.514,1.396-2.277,2.135c-0.929,0.897,0.486,2.312,1.414,1.414c0.447-0.433,0.927-0.8,1.381-1.188
			c0.129,0.574,0.257,1.148,0.392,1.724c-0.908,1.983-2.569,2.729-4.813,2.758c-1.289,0.016-1.291,2.016,0,2
			c2.277-0.029,4.117-0.719,5.434-2.148c0.457,1.854,0.927,3.707,1.412,5.562c-0.874,0.594-1.785,1.145-2.553,1.879
			c-0.934,0.893,0.482,2.305,1.414,1.414c0.509-0.486,1.086-0.885,1.67-1.275c0.326,1.229,0.653,2.458,0.98,3.688
			c-1.205,1.007-2.441,1.897-3.221,3.375c-0.602,1.141,1.125,2.149,1.727,1.01c0.508-0.962,1.256-1.644,2.049-2.289
			c0.254,0.956,0.507,1.913,0.756,2.871c-0.059,0.02-0.113,0.021-0.173,0.051c-2.138,1.125-3.862,2.873-6,4
			c-1.142,0.602-0.13,2.326,1.01,1.728c2.026-1.067,3.686-2.688,5.673-3.812c0.435,1.705,0.859,3.412,1.26,5.121
			c-2.165,1.185-3.457,3.396-5.145,5.121c-0.902,0.922,0.512,2.337,1.414,1.414c1.404-1.436,2.531-3.319,4.203-4.472
			c0.459,2.05,0.885,4.101,1.259,6.154c-1.326,1.201-3.093,1.956-4.674,2.747c-1.153,0.575-0.14,2.301,1.01,1.727
			c1.356-0.68,2.788-1.339,4.044-2.222c0.254,1.552,0.487,3.104,0.672,4.66c-1.812,0.988-3.133,2.326-4.084,4.191
			c-0.584,1.146,1.141,2.16,1.727,1.01c0.666-1.306,1.479-2.25,2.59-3.012c0.207,2.18,0.354,4.36,0.385,6.547
			c-0.187,0.025-0.373,0.09-0.545,0.254c-0.997,0.949-2.584,1.25-3.798,1.845c-1.159,0.564-0.145,2.29,1.01,1.727
			c1.096-0.535,2.298-0.865,3.33-1.498c-0.028,1.646-0.108,3.291-0.261,4.941c-0.703,0.284-1.441,0.518-2.079,0.83
			c-1.159,0.564-0.145,2.29,1.01,1.727c0.271-0.133,0.549-0.25,0.829-0.365c-0.062,0.479-0.118,0.959-0.191,1.438
			c-0.766,5.045,6.941,7.215,7.715,2.127c3.958-26.061-7.394-51.048-11.594-76.334c-2.461-14.812-4.696-29.644-6.931-44.49
			c-2.249-14.946-5.558-29.488-9.13-44.157c-13.174-54.1-31.399-111.366-16.318-166.963c2.851-10.512,6.902-22.086,14.617-30.072
			c6.847-7.088,16.553-11.561,26.426-11.674c27.197-0.312,28.127,35.613,28.124,54.91c-0.003,13.733-0.364,27.291,0.764,41
			c1.319,16.04,1.923,31.513,0.967,47.581c-1.896,31.831-8.763,63.124-11.077,94.92c-1.594,21.885-0.771,44.016-1.135,65.951
			c-0.377,22.758-0.972,45.512-1.57,68.266c-0.133,5.031,7.442,5.131,7.953,0.367l0.674,0.673c0.912,0.913,2.326-0.501,1.414-1.414
			l-1.98-1.979c0.01-0.394,0.02-0.785,0.03-1.178c0.613,0.159,1.268,0.196,1.909,0.196c1.29,0.002,1.289-1.998,0-2
			c-0.563,0-1.365,0.037-1.855-0.313c0.016-0.598,0.031-1.193,0.047-1.791c0.736,0.246,1.473,0.491,2.209,0.735
			c1.228,0.409,1.749-1.521,0.532-1.928c-0.896-0.299-1.792-0.598-2.688-0.896c0.015-0.57,0.028-1.142,0.043-1.711
			c0.93,0.085,1.849,0.237,2.78,0.534c1.233,0.394,1.756-1.539,0.532-1.928c-1.084-0.346-2.166-0.516-3.262-0.606
			c0.034-1.346,0.065-2.689,0.1-4.033c1.111,0.074,2.207,0.229,3.297,0.567c1.234,0.386,1.759-1.545,0.531-1.928
			c-1.238-0.387-2.501-0.562-3.778-0.642c0.026-1.048,0.05-2.096,0.077-3.144c0.916,0.18,1.83,0.39,2.77,0.415
			c1.29,0.035,1.287-1.965,0-2c-0.921-0.024-1.819-0.229-2.722-0.405c0.024-0.961,0.045-1.921,0.069-2.88
			c1.254,0.062,2.492,0.201,3.719,0.582c1.235,0.384,1.76-1.547,0.532-1.928c-1.379-0.428-2.784-0.588-4.204-0.654
			c0.03-1.233,0.057-2.469,0.086-3.703c0.422,0.158,0.813,0.38,1.145,0.695c0.934,0.889,2.351-0.523,1.414-1.414
			c-0.712-0.679-1.583-1.094-2.51-1.338c0.02-0.848,0.037-1.695,0.057-2.543c0.393,0.287,0.798,0.557,1.242,0.784
			c1.146,0.587,2.158-1.141,1.01-1.728c-0.836-0.428-1.529-0.988-2.193-1.605c0.031-1.361,0.059-2.724,0.089-4.084
			c1.347,0.051,2.644,0.399,4,0.852c1.228,0.408,1.749-1.522,0.532-1.929c-1.521-0.506-2.983-0.86-4.488-0.915
			c0.023-1.04,0.043-2.08,0.065-3.121h2.823c1.289,0,1.289-2,0-2h-2.781c0.033-1.545,0.056-3.092,0.088-4.637
			c0.755,0.049,1.498,0.176,2.188,0.5c1.159,0.547,2.176-1.178,1.01-1.728c-1.024-0.481-2.079-0.674-3.161-0.752
			c0.029-1.436,0.05-2.87,0.077-4.306c1.073,0.02,2.144,0.23,3.245,0.255c1.291,0.027,1.288-1.973,0-2
			c-1.104-0.023-2.154-0.189-3.209-0.225c0.023-1.26,0.041-2.519,0.064-3.775h3.812c1.289,0,1.289-2,0-2h-3.779
			c0.01-0.542,0.018-1.084,0.027-1.625c0.771,0.202,1.553,0.291,2.418,0.291c1.29,0.002,1.289-1.998,0-2
			c-0.865,0-1.611-0.067-2.385-0.354c0.014-0.913,0.029-1.825,0.045-2.739c0.861,0.169,1.698,0.453,2.502,0.957
			c1.096,0.688,2.098-1.043,1.01-1.728c-1.107-0.693-2.272-1.061-3.479-1.255c0.015-0.96,0.027-1.921,0.042-2.882h3.6
			c1.289,0,1.289-2,0-2h-3.57c0.021-1.41,0.031-2.82,0.051-4.23c1.529,0.511,3.057,1.021,4.586,1.528
			c1.228,0.409,1.749-1.521,0.532-1.929c-1.698-0.566-3.396-1.132-5.093-1.697c0.016-1.225,0.027-2.447,0.043-3.672h4.783
			c1.29,0,1.29-2,0-2h-4.759c0.009-0.738,0.021-1.476,0.026-2.214c0.008-1.028,0.016-2.056,0.023-3.083
			c1.973,0.652,3.947,1.248,6.043,1.297c1.291,0.031,1.287-1.97,0-2c-1.99-0.046-3.863-0.675-5.734-1.297
			c-0.105-0.035-0.198-0.033-0.293-0.035c0.007-0.893,0.016-1.784,0.023-2.676c0.088-0.004,0.172,0.003,0.27-0.027
			c1.88-0.583,3.783-0.631,5.734-0.631c1.289-0.002,1.29-2.002,0-2c-2.027,0-4.03,0.076-5.985,0.634
			c0.018-1.757,0.04-3.513,0.065-5.269c1.234,0.057,2.432,0.209,3.654,0.599c1.232,0.393,1.756-1.539,0.531-1.929
			c-1.377-0.438-2.746-0.612-4.152-0.673c0.023-1.344,0.05-2.688,0.08-4.029h3.807c1.289,0,1.289-2,0-2h-3.754
			c0.034-1.329,0.083-2.658,0.129-3.986c0.846,0.036,1.683,0.152,2.453,0.516c1.16,0.545,2.176-1.178,1.01-1.727
			c-1.099-0.518-2.234-0.699-3.399-0.766c0.071-1.863,0.159-3.726,0.258-5.589c1.532,0.206,3.096,0.217,4.638,0.218
			c1.289,0,1.289-2,0-2c-1.51-0.001-3.032-0.003-4.523-0.222c0.053-0.897,0.121-1.794,0.18-2.691
			c1.061-0.278,2.125-0.383,3.172,0.109c1.16,0.546,2.176-1.179,1.01-1.727c-1.351-0.635-2.678-0.71-4.043-0.458
			c0.09-1.227,0.187-2.452,0.291-3.679h5.246c1.29,0,1.29-2,0-2h-5.065c0.03-0.323,0.056-0.646,0.088-0.97
			c0.091-0.916,0.194-1.83,0.291-2.744c1.044,0.262,2.053,0.66,3.088,1.012c1.225,0.416,1.746-1.516,0.532-1.929
			c-1.148-0.391-2.26-0.804-3.409-1.074c0.183-1.655,0.376-3.309,0.573-4.962h4.57c1.289,0,1.289-2,0-2h-4.323
			c0.099-0.793,0.209-1.586,0.31-2.379c1.08,0.305,2.183,0.379,3.346,0.379c1.29,0.002,1.29-1.998,0-2
			c-1.052,0-2.095-0.032-3.084-0.385c0.141-1.082,0.291-2.162,0.436-3.244c1.327,0.035,2.67,0.271,3.982,0.296
			c1.291,0.024,1.288-1.976,0-2c-1.242-0.024-2.482-0.195-3.719-0.254c0.141-1.026,0.289-2.053,0.432-3.079h3.954
			c1.289,0,1.289-2,0-2h-3.675c0.217-1.557,0.438-3.111,0.656-4.667h5.019c1.289,0,1.289-2,0-2h-4.737
			c0.22-1.556,0.432-3.111,0.65-4.667h4.754c1.289,0,1.289-2,0-2h-4.475c0.187-1.332,0.371-2.666,0.558-3.998
			c1.734-0.008,3.514-0.099,5.088-0.805c1.175-0.527,0.157-2.25-1.01-1.727c-1.125,0.504-2.491,0.562-3.802,0.552
			c0.111-0.802,0.226-1.604,0.335-2.405c0.133-0.973,0.257-1.945,0.386-2.917c1.346,0.052,2.673,0.19,3.986,0.598
			c1.234,0.383,1.76-1.548,0.531-1.929c-1.396-0.433-2.817-0.592-4.256-0.656c0.209-1.621,0.412-3.242,0.61-4.865
			c1.569-0.188,3.129-0.482,4.713-0.514c1.288-0.025,1.291-2.025,0-2c-1.503,0.029-2.983,0.293-4.471,0.481
			c0.137-1.153,0.256-2.308,0.387-3.46c1.686-0.26,3.353-0.643,5.017-1.058c1.251-0.312,0.72-2.241-0.532-1.929
			c-1.414,0.354-2.826,0.688-4.253,0.934c0.153-1.404,0.293-2.809,0.438-4.214c1.448-0.267,2.917-0.449,4.349-0.791
			c1.254-0.3,0.722-2.228-0.532-1.929c-1.186,0.283-2.396,0.455-3.602,0.656c0.162-1.637,0.314-3.273,0.462-4.911
			c1.46-0.337,2.914-0.692,4.339-1.149c1.225-0.393,0.7-2.323-0.532-1.929c-1.19,0.382-2.403,0.69-3.621,0.979
			c0.126-1.467,0.229-2.936,0.345-4.403c1.726-0.073,3.434-0.241,5.143-0.647c1.255-0.298,0.724-2.227-0.532-1.929
			c-1.481,0.353-2.96,0.501-4.453,0.569c0.071-0.982,0.137-1.967,0.204-2.951c1.59-0.357,3.219-0.537,4.781-1.023
			c1.229-0.381,0.703-2.312-0.532-1.928c-1.343,0.417-2.733,0.606-4.108,0.877c0.027-0.432,0.048-0.863,0.073-1.294
			c1.162-0.539,2.312-0.927,3.636-0.952c1.288-0.025,1.291-2.025,0-2c-1.257,0.024-2.395,0.314-3.51,0.743
			c0.021-0.415,0.05-0.829,0.069-1.243c0.023-0.473,0.028-0.945,0.047-1.417c0.715-0.317,1.44-0.603,2.212-0.77
			c1.262-0.272,0.728-2.2-0.53-1.929c-0.559,0.121-1.09,0.305-1.611,0.515c0.025-1.366,0.033-2.733,0.021-4.099
			c1.207-0.449,2.459-0.773,3.727-1.021c1.266-0.247,0.729-2.175-0.531-1.929c-1.097,0.214-2.171,0.498-3.223,0.853
			c-0.02-0.894-0.042-1.788-0.075-2.681c1.287-0.308,2.565-0.615,3.907-0.562c1.29,0.05,1.285-1.95,0-2
			c-1.366-0.055-2.685,0.225-4.001,0.533c-0.034-0.744-0.062-1.487-0.104-2.23c1.121-0.275,2.203-0.696,3.339-0.924
			c1.265-0.254,0.729-2.182-0.531-1.929c-0.997,0.2-1.951,0.553-2.93,0.823c-0.098-1.52-0.202-3.037-0.319-4.556
			c1.073-0.458,2.229-0.813,3.379-0.845c1.287-0.037,1.29-2.037,0-2c-1.211,0.033-2.4,0.346-3.541,0.775
			c-0.083-1.018-0.168-2.033-0.255-3.051c1.392-0.496,3.021-0.391,4.462-0.392c1.29-0.001,1.29-2.001,0-2
			c-1.556,0.001-3.137-0.011-4.635,0.386c-0.111-1.273-0.225-2.545-0.336-3.817c0.048-0.017,0.094-0.015,0.143-0.038
			c0.878-0.438,1.99-1.098,2.99-0.667c1.171,0.505,2.19-1.218,1.01-1.727c-1.549-0.667-2.913-0.303-4.321,0.339
			c-0.083-0.955-0.167-1.909-0.245-2.863c1.32-0.469,2.632-0.914,4.062-0.945c1.287-0.029,1.29-2.029,0-2
			c-1.493,0.033-2.854,0.432-4.227,0.896c-0.13-1.635-0.25-3.269-0.354-4.902c1.524-0.019,3.001-0.131,4.419-0.798
			c1.166-0.549,0.15-2.272-1.01-1.727c-1.095,0.516-2.324,0.536-3.521,0.532c-0.029-0.689-0.056-1.379-0.083-2.069
			c1.182-0.909,2.613-1.418,3.948-2.069c1.158-0.566,0.145-2.291-1.01-1.727c-1.022,0.499-2.062,0.936-3.03,1.488
			c-0.049-1.928-0.072-3.864-0.072-5.809c0.922-0.434,1.855-0.838,2.778-1.287c1.159-0.564,0.146-2.289-1.01-1.727
			c-0.587,0.285-1.178,0.553-1.769,0.82c0.011-1.358,0.026-2.72,0.049-4.084c1.339-0.542,2.767-0.846,4.225-0.873
			c1.288-0.025,1.291-2.025,0-2c-1.424,0.027-2.839,0.279-4.187,0.729c0.021-1.183,0.045-2.364,0.066-3.549
			c0.885-0.407,1.822-0.513,2.786-0.514c1.289-0.001,1.289-2.001,0-2c-0.952,0.001-1.862,0.122-2.747,0.392
			c0.035-1.908,0.066-3.817,0.082-5.725h1.998c1.29,0,1.29-2,0-2h-1.981c0.003-1.514-0.005-3.025-0.028-4.534
			c0.876-0.102,1.76-0.132,2.678-0.133c1.289-0.001,1.289-2.001,0-2c-0.928,0.001-1.832,0.03-2.729,0.124
			c-0.036-1.384-0.074-2.768-0.146-4.145c0.928-0.355,1.904-0.619,2.875-0.646c1.287-0.036,1.29-2.036,0-2
			c-1.019,0.028-2.021,0.257-2.993,0.58c-0.071-1.046-0.153-2.091-0.25-3.133c0.823-0.24,1.632-0.539,2.415-0.917
			c1.16-0.562,0.146-2.285-1.01-1.727c-0.521,0.252-1.062,0.453-1.609,0.63c-0.144-1.285-0.305-2.567-0.499-3.842
			c0.954-0.498,1.848-1.098,2.653-1.885c0.925-0.902-0.491-2.314-1.414-1.414c-0.492,0.48-1.026,0.861-1.584,1.201
			c-0.158-0.893-0.315-1.785-0.503-2.671c0.908-0.483,1.777-1.058,2.632-1.626c1.067-0.711,0.067-2.444-1.01-1.727
			c-0.665,0.443-1.354,0.923-2.074,1.348c-0.309-1.289-0.651-2.571-1.032-3.846c0.81-0.6,1.597-1.23,2.318-1.932
			c0.927-0.9-0.489-2.313-1.414-1.414c-0.488,0.474-1.01,0.907-1.544,1.326c-0.331-0.991-0.678-1.979-1.06-2.959
			c0.916-0.738,1.842-1.465,2.684-2.287c0.925-0.902-0.49-2.315-1.414-1.414c-0.648,0.633-1.35,1.206-2.055,1.773
			c-0.249-0.579-0.5-1.158-0.768-1.733c0.289-0.357,0.543-0.769,0.721-1.271c3.532-10.025,19.171-8.521,27.036-5.828
			c8.434,2.888,15.209,9.797,20.299,16.861c11.622,16.129,17.399,36.492,20.389,55.913c4.027,26.177-0.22,53.648-5.249,79.372
			c-6.078,31.079-14.355,62.015-23.706,92.259c-6.763,21.867-15,43.579-18.688,66.235c-3.193,19.626-3.929,40.799-12.392,59.106
			c-2.147,4.649,4.745,8.717,6.908,4.037c0.913-1.976,1.737-3.975,2.497-5.992c0.57,1.403,1.222,2.771,2.057,4.062
			c0.697,1.079,2.43,0.077,1.727-1.01c-1.206-1.866-2.017-3.876-2.737-5.953c0.429-1.261,0.83-2.528,1.212-3.803
			c0.497,0.671,0.985,1.349,1.377,2.09c0.602,1.142,2.327,0.13,1.727-1.01c-0.667-1.268-1.61-2.352-2.416-3.526
			c0.263-0.948,0.501-1.903,0.739-2.857c0.596,0.652,1.21,1.281,1.959,1.8c1.064,0.735,2.063-0.998,1.01-1.728
			c-0.943-0.652-1.648-1.559-2.406-2.408c0.181-0.778,0.365-1.557,0.534-2.34c0.257,0.205,0.518,0.407,0.79,0.599
			c1.062,0.736,2.062-0.998,1.011-1.728c-0.48-0.334-0.923-0.705-1.343-1.097c0.171-0.85,0.333-1.7,0.492-2.552
			c0.658,0.696,1.325,1.385,2.003,2.062c0.913,0.913,2.327-0.501,1.414-1.414c-1.012-1.013-2.019-2.036-2.974-3.104
			c0.48-2.745,0.903-5.506,1.31-8.271c1.168,1.074,2.287,2.204,3.405,3.323c0.912,0.912,2.327-0.502,1.414-1.414
			c-1.454-1.455-2.921-2.902-4.477-4.247c0.208-1.466,0.41-2.934,0.61-4.399c1.053,1.139,2.154,2.226,3.442,3.117
			c1.062,0.738,2.061-0.996,1.01-1.727c-1.566-1.086-2.841-2.519-4.104-3.953c0.271-2,0.545-4,0.824-5.998
			c1.544,1.569,3.034,3.176,4.277,5.01c0.719,1.062,2.452,0.062,1.727-1.01c-1.624-2.396-3.61-4.443-5.648-6.482
			c0.297-2.05,0.613-4.094,0.944-6.133c1.968,1.729,3.75,3.639,5.344,5.738c0.769,1.014,2.507,0.02,1.727-1.01
			c-1.98-2.612-4.203-4.91-6.695-6.986c0.131-0.756,0.276-1.508,0.413-2.262c2.445,1.672,4.822,3.442,7.28,5.096
			c1.074,0.723,2.074-1.012,1.01-1.728c-2.664-1.791-5.224-3.729-7.887-5.521c-0.003-0.002-0.006-0.002-0.009-0.004
			c0.227-1.176,0.467-2.348,0.716-3.517c1.525,1.121,3.065,2.224,4.551,3.397c1,0.791,2.426-0.614,1.414-1.414
			c-1.794-1.419-3.669-2.73-5.5-4.101c0.312-1.355,0.654-2.705,0.995-4.056c1.208,1.098,2.377,2.234,3.532,3.391
			c0.913,0.913,2.327-0.501,1.414-1.414c-1.429-1.429-2.87-2.835-4.392-4.159c0.293-1.109,0.604-2.215,0.912-3.321
			c1.164,0.997,2.366,1.948,3.591,2.871c1.031,0.776,2.025-0.961,1.011-1.727c-1.377-1.037-2.722-2.118-4.004-3.269
			c0.381-1.326,0.771-2.648,1.172-3.973c1.372,1.036,2.658,2.184,4.028,3.229c1.026,0.782,2.021-0.956,1.011-1.727
			c-1.502-1.146-2.898-2.407-4.421-3.517c0.316-1.029,0.647-2.057,0.973-3.084c1.692,1.476,3.296,3.051,4.885,4.64
			c0.912,0.913,2.327-0.501,1.414-1.414c-1.825-1.825-3.668-3.632-5.647-5.288c0.354-1.112,0.718-2.223,1.076-3.334
			c1.686,1.532,3.312,3.127,4.924,4.739c0.911,0.913,2.326-0.501,1.413-1.414c-1.848-1.847-3.712-3.671-5.665-5.403
			c0.371-1.139,0.743-2.272,1.116-3.41c1.166,1.084,2.438,2.049,3.576,3.165c0.92,0.904,2.335-0.509,1.414-1.414
			c-1.267-1.242-2.707-2.288-3.973-3.53c-0.114-0.112-0.235-0.188-0.359-0.233c0.514-1.567,1.011-3.131,1.521-4.697
			c1.497,1.229,2.997,2.457,4.487,3.696c0.983,0.818,2.406-0.589,1.414-1.414c-1.741-1.448-3.494-2.882-5.244-4.318
			c0.366-1.136,0.743-2.273,1.104-3.407c0.021-0.071,0.043-0.144,0.064-0.214c2.038,1.169,3.998,2.469,5.954,3.771
			c1.076,0.718,2.077-1.015,1.01-1.727c-2.085-1.391-4.178-2.769-6.359-3.993c0.479-1.525,0.938-3.055,1.408-4.582
			c1.983,1.104,3.871,2.379,5.506,3.966c0.925,0.899,2.34-0.515,1.414-1.414c-1.865-1.812-4.04-3.261-6.321-4.498
			c0.251-0.818,0.493-1.642,0.742-2.461c1.758,1.421,3.665,2.643,5.69,3.674c1.146,0.584,2.159-1.142,1.011-1.727
			c-2.188-1.115-4.224-2.446-6.072-4.039c0.345-1.143,0.682-2.288,1.021-3.434c1.942,1.049,3.953,1.957,6.047,2.678
			c1.224,0.422,1.743-1.511,0.531-1.928c-2.068-0.713-4.039-1.634-5.947-2.687c-0.006-0.046-0.003-0.093-0.015-0.138
			c0.349-1.178,0.688-2.358,1.032-3.537c1.02,0.787,2.086,1.502,3.276,2.009c1.172,0.5,2.191-1.222,1.01-1.727
			c-1.36-0.58-2.543-1.435-3.681-2.354c0.265-0.916,0.518-1.838,0.779-2.754c1.538,0.804,3.123,1.512,4.777,2.08
			c1.224,0.421,1.744-1.512,0.532-1.928c-1.654-0.568-3.229-1.295-4.752-2.119c0.511-1.796,1.01-3.596,1.513-5.394
			c1.462,0.705,2.961,1.331,4.473,1.937c1.199,0.48,1.714-1.455,0.532-1.928c-1.513-0.605-3.006-1.237-4.458-1.96
			c0.205-0.741,0.399-1.487,0.604-2.229c1.647,0.956,3.319,1.855,5.089,2.586c1.191,0.492,1.707-1.443,0.531-1.928
			c-1.769-0.73-3.437-1.676-5.08-2.652c0.26-0.957,0.517-1.913,0.775-2.869c1.611,0.92,3.276,1.741,5.097,2.152
			c1.258,0.284,1.79-1.645,0.532-1.928c-1.834-0.415-3.48-1.279-5.088-2.221c0.021-0.076,0.042-0.154,0.062-0.23
			c0.19-0.732,0.386-1.467,0.578-2.199c1.333,0.758,2.737,1.383,4.117,2.063c1.152,0.569,2.166-1.156,1.011-1.727
			c-1.549-0.763-3.126-1.458-4.6-2.35c0.298-1.132,0.597-2.267,0.895-3.401c1.798,0.992,3.62,1.943,5.344,3.063
			c1.085,0.706,2.086-1.026,1.01-1.727c-1.88-1.222-3.876-2.239-5.829-3.333c0.224-0.848,0.444-1.699,0.667-2.549
			c2.019,0.814,3.97,1.779,5.918,2.753c1.15,0.575,2.163-1.15,1.011-1.727c-2.112-1.056-4.23-2.093-6.421-2.966
			c0.362-1.395,0.727-2.793,1.088-4.191c1.757,0.914,3.565,1.717,5.443,2.364c1.225,0.421,1.744-1.511,0.532-1.929
			c-1.896-0.652-3.71-1.475-5.469-2.418c0.328-1.277,0.655-2.559,0.979-3.842c1.849,0.737,3.696,1.474,5.483,2.35
			c1.153,0.564,2.168-1.16,1.01-1.727c-1.957-0.959-3.984-1.75-6.006-2.559c0.261-1.039,0.521-2.08,0.778-3.121l4.218,2.109
			c1.149,0.574,2.163-1.15,1.01-1.727l-4.737-2.369c0.26-1.053,0.516-2.108,0.771-3.164c1.347,0.57,2.719,1.084,4.079,1.622
			c1.201,0.475,1.717-1.46,0.532-1.929c-1.386-0.548-2.777-1.071-4.14-1.664c0.25-1.047,0.497-2.096,0.742-3.146
			c1.816,0.684,3.667,1.273,5.513,1.884c1.229,0.405,1.751-1.526,0.532-1.929c-1.871-0.617-3.754-1.201-5.593-1.904
			c0.293-1.27,0.582-2.539,0.867-3.811c1.395,0.353,2.784,0.726,4.192,1.022c1.26,0.265,1.795-1.663,0.532-1.929
			c-1.442-0.305-2.865-0.688-4.294-1.047c0.272-1.234,0.539-2.469,0.803-3.703c1.721,0.615,3.437,1.24,5.166,1.823
			c1.228,0.413,1.747-1.519,0.532-1.929c-1.771-0.598-3.524-1.237-5.284-1.865c0.376-1.799,0.738-3.6,1.094-5.4
			c1.833,0.549,3.721,0.819,5.69,0.844c1.29,0.016,1.288-1.984,0-2c-1.838-0.023-3.601-0.269-5.311-0.801
			c0.257-1.336,0.504-2.672,0.747-4.01c1.752,0.066,3.499-0.016,5.271-0.288c1.271-0.196,0.729-2.122-0.532-1.929
			c-1.459,0.225-2.922,0.299-4.385,0.258c0.188-1.068,0.361-2.141,0.541-3.211c1.316-0.059,2.628-0.174,3.936-0.415
			c1.267-0.234,0.729-2.161-0.532-1.929c-1.018,0.188-2.039,0.287-3.064,0.341c0.204-1.261,0.394-2.522,0.582-3.785
			c1.739-0.28,3.479-0.556,5.222-0.807c1.272-0.184,0.729-2.11-0.531-1.929c-1.461,0.211-2.921,0.436-4.379,0.669
			c0.128-0.886,0.24-1.772,0.36-2.659c1.416-0.246,2.836-0.438,4.284-0.459c1.288-0.02,1.29-2.02,0-2
			c-1.349,0.02-2.679,0.179-4.003,0.392c0.084-0.653,0.156-1.306,0.236-1.959c1.681-0.517,3.275-1.269,4.713-2.308
			c1.034-0.748,0.037-2.484-1.01-1.727c-1.072,0.775-2.227,1.354-3.436,1.805c0.172-1.506,0.332-3.013,0.479-4.521
			c1.843-0.51,3.618-1.213,5.29-2.18c1.114-0.646,0.107-2.375-1.011-1.727c-1.305,0.755-2.675,1.318-4.089,1.762
			c0.136-1.512,0.255-3.023,0.363-4.535c1.525-0.484,2.976-1.166,4.294-2.121c1.033-0.75,0.036-2.485-1.01-1.727
			c-0.988,0.715-2.039,1.258-3.144,1.675c0.118-1.886,0.208-3.771,0.281-5.655c1.347-0.451,2.676-0.955,4.073-1.255
			c1.261-0.271,0.726-2.198-0.532-1.929c-1.187,0.255-2.324,0.656-3.465,1.048c0.045-1.525,0.067-3.05,0.081-4.575
			c1.31-0.393,2.573-0.896,3.714-1.707c1.041-0.74,0.044-2.477-1.01-1.727c-0.844,0.599-1.75,1.008-2.693,1.33
			c-0.004-2.133-0.051-4.264-0.122-6.393c1.459-0.768,2.93-1.514,4.268-2.48c1.032-0.749,0.036-2.484-1.011-1.727
			c-1.058,0.765-2.198,1.391-3.352,1.998c-0.081-1.807-0.196-3.613-0.329-5.418c1.103-0.756,2.161-1.574,3.127-2.514
			c0.926-0.9-0.49-2.314-1.414-1.414c-0.598,0.58-1.24,1.098-1.9,1.592c-0.187-2.163-0.416-4.324-0.683-6.482
			c1.258-1.122,2.637-2.092,4.236-2.809c1.175-0.527,0.155-2.25-1.011-1.727c-1.295,0.58-2.46,1.326-3.539,2.18
			c-0.158-1.146-0.342-2.291-0.522-3.436c1.544-0.771,3.087-1.543,4.631-2.314c1.153-0.577,0.14-2.303-1.01-1.727l-3.96,1.979
			c-0.119-0.688-0.267-1.376-0.396-2.063c1.251-0.777,2.396-1.689,3.6-2.604c1.013-0.77,0.018-2.508-1.011-1.727
			c-0.991,0.752-1.956,1.553-2.983,2.254c-0.092-0.457-0.167-0.915-0.262-1.372c1.088-0.937,2.22-1.821,3.373-2.687
			c1.018-0.764,0.021-2.502-1.011-1.727c-0.961,0.72-1.914,1.445-2.841,2.203c-0.363-1.626-0.75-3.25-1.171-4.872
			c1.201-0.882,2.387-1.781,3.458-2.823c0.925-0.901-0.49-2.314-1.414-1.414c-0.812,0.789-1.694,1.491-2.595,2.173
			c-0.191-0.7-0.399-1.405-0.604-2.108c0.992-0.686,2.101-1.17,3.289-1.483c1.246-0.329,0.717-2.259-0.532-1.929
			c-1.188,0.314-2.308,0.801-3.342,1.431c-0.246-0.81-0.492-1.62-0.749-2.431c1.148-0.963,2.233-2.002,3.299-3.066
			c0.913-0.913-0.502-2.327-1.413-1.414c-0.831,0.83-1.666,1.652-2.54,2.426c-0.22-0.66-0.453-1.319-0.685-1.979
			c0.968-0.844,1.956-1.664,2.872-2.564c0.921-0.906-0.494-2.319-1.414-1.414c-0.697,0.686-1.438,1.322-2.178,1.96
			c-0.275-0.753-0.55-1.506-0.837-2.256c1.552-1.245,3.007-2.607,4.429-4.028c0.913-0.913-0.501-2.327-1.414-1.414
			c-1.227,1.225-2.468,2.408-3.782,3.502c-0.29-0.723-0.601-1.438-0.903-2.154c1.2-0.796,2.411-1.58,3.451-2.582
			c0.931-0.896-0.485-2.311-1.413-1.414c-0.855,0.824-1.844,1.484-2.836,2.137c-0.459-1.035-0.926-2.066-1.413-3.087
			c1.062-0.759,2.081-1.575,3.015-2.491c0.921-0.906-0.494-2.318-1.414-1.414c-0.779,0.766-1.617,1.455-2.493,2.096
			c-0.708-1.411-1.452-2.801-2.222-4.172c0.404-0.264,0.82-0.504,1.272-0.667c1.204-0.433,0.686-2.366-0.531-1.929
			c-0.625,0.225-1.186,0.543-1.726,0.891c-0.722-1.225-1.462-2.435-2.24-3.617c42.94-0.764,71.023,47.795,77.518,85.402
			c10.489,60.754-17.005,121.475-45.323,173.543c-9.493,17.455-19.85,33.556-33.099,48.383
			c-11.738,13.137-23.637,26.264-29.896,43.018c-1.81,4.845,5.925,6.914,7.714,2.127c0.218-0.58,0.448-1.149,0.681-1.723
			c0.67,1.206,1.433,2.369,2.267,3.498c0.757,1.025,2.494,0.029,1.728-1.01c-1.154-1.562-2.164-3.181-2.969-4.894
			c0.456-1.013,0.941-2.008,1.441-2.994c0.729,1.672,1.534,3.312,2.467,4.896c0.652,1.111,2.381,0.104,1.728-1.01
			c-1.169-1.988-2.131-4.06-2.987-6.179c0.564-1.028,1.163-2.039,1.77-3.043c1.349,2.203,2.724,4.39,4.313,6.434
			c0.792,1.017,2.196-0.409,1.414-1.414c-1.694-2.177-3.125-4.535-4.551-6.897c0.521-0.817,1.068-1.623,1.615-2.428
			c1.331,2.408,2.627,4.836,4.031,7.203c0.656,1.107,2.386,0.104,1.728-1.01c-1.563-2.637-2.989-5.35-4.484-8.023
			c0.564-0.797,1.146-1.582,1.731-2.365c0.851,1.883,1.806,3.713,3.025,5.398c0.748,1.035,2.484,0.037,1.728-1.01
			c-1.395-1.927-2.438-4.032-3.371-6.197c0.797-1.03,1.612-2.049,2.438-3.062c1.662,2.688,3.398,5.316,5.362,7.807
			c0.798,1.013,2.203-0.413,1.414-1.414c-2.007-2.546-3.751-5.266-5.437-8.025c0.568-0.683,1.143-1.361,1.719-2.038
			c1.408,2.231,3.109,4.259,4.971,6.146c0.906,0.919,2.319-0.496,1.414-1.414c-1.908-1.937-3.611-4.021-5.002-6.336
			c0.682-0.787,1.374-1.566,2.062-2.349c1.075,1.551,2.296,2.994,3.368,4.562c0.723,1.057,2.456,0.059,1.727-1.011
			c-1.193-1.747-2.577-3.34-3.731-5.102c0.814-0.918,1.635-1.832,2.454-2.747c1.514,2.462,3.223,4.78,5.041,7.061
			c0.804,1.009,2.209-0.416,1.414-1.414c-1.848-2.314-3.567-4.673-5.07-7.193c0.356-0.396,0.712-0.795,1.067-1.191
			c1.305,1.49,2.53,3.052,3.922,4.467c0.904,0.921,2.317-0.493,1.414-1.414c-1.416-1.442-2.662-3.034-3.995-4.551
			c0.87-0.975,1.733-1.951,2.596-2.932c1.075,1.773,2.211,3.513,3.163,5.359c0.59,1.146,2.316,0.135,1.727-1.011
			c-1.053-2.044-2.338-3.952-3.51-5.928c1.779-2.049,3.517-4.124,5.21-6.225c1.333,1.922,2.686,3.832,3.905,5.83
			c0.671,1.098,2.401,0.094,1.727-1.011c-1.351-2.21-2.86-4.312-4.328-6.444c0.835-1.063,1.647-2.14,2.449-3.224
			c1.055,1.746,2.229,3.418,3.643,4.88c0.896,0.93,2.311-0.486,1.414-1.413c-1.499-1.551-2.712-3.356-3.788-5.233
			c0.426-0.597,0.846-1.197,1.264-1.799c1.4,1.771,2.853,3.498,4.444,5.112c0.905,0.92,2.319-0.495,1.414-1.413
			c-1.688-1.712-3.22-3.543-4.693-5.429c0.398-0.6,0.783-1.207,1.177-1.811c1.196,1.401,2.25,2.906,3.279,4.449
			c0.712,1.066,2.445,0.066,1.727-1.011c-1.201-1.801-2.449-3.553-3.881-5.17c0.312-0.479,0.628-0.957,0.938-1.438
			c1.148,1.368,2.22,2.803,3.218,4.287c0.716,1.062,2.449,0.062,1.727-1.011c-1.179-1.754-2.444-3.457-3.828-5.057
			c0.317-0.506,0.628-1.018,0.943-1.526c1.312,1.501,2.582,3.038,3.981,4.461c0.904,0.921,2.317-0.493,1.414-1.414
			c-1.513-1.535-2.872-3.21-4.298-4.822c0.344-0.561,0.668-1.133,1.009-1.695c1.419,1.734,2.94,3.364,4.743,4.756
			c1.021,0.787,2.016-0.951,1.01-1.727c-1.79-1.383-3.278-3.076-4.673-4.847c0.583-0.977,1.141-1.971,1.716-2.952
			c1.344,1.106,2.513,2.413,3.589,3.833c0.769,1.013,2.507,0.019,1.727-1.011c-1.284-1.693-2.677-3.263-4.303-4.566
			c0.787-1.361,1.547-2.739,2.318-4.11c0.958,1.239,1.976,2.438,2.925,3.688c0.77,1.013,2.508,0.019,1.727-1.011
			c-1.17-1.54-2.446-3.006-3.585-4.566c0.454-0.818,0.894-1.646,1.343-2.468c1.105,1.089,2.278,2.111,3.542,3.069
			c1.027,0.78,2.021-0.958,1.01-1.727c-1.272-0.966-2.459-2.021-3.568-3.149c0.401-0.742,0.789-1.49,1.188-2.233
			c1.461,1.463,3.02,2.823,4.503,4.286c0.919,0.906,2.334-0.508,1.414-1.413c-1.617-1.596-3.387-3.042-4.958-4.681
			c0.615-1.165,1.218-2.339,1.823-3.51c1.272,1.076,2.547,2.152,3.923,3.094c1.067,0.73,2.066-1.004,1.01-1.727
			c-1.401-0.959-2.7-2.062-4-3.16c0.449-0.875,0.888-1.756,1.332-2.635c1.645,1.42,3.264,2.869,4.991,4.188
			c1.025,0.783,2.021-0.955,1.01-1.727c-1.761-1.345-3.409-2.824-5.086-4.271c0.553-1.104,1.081-2.22,1.627-3.328
			c1.424,1.187,2.915,2.293,4.449,3.324c1.073,0.724,2.073-1.012,1.01-1.727c-1.582-1.064-3.109-2.205-4.558-3.443
			c0.445-0.912,0.874-1.832,1.314-2.746c1.656,1.142,3.252,2.34,4.697,3.76c0.921,0.904,2.336-0.51,1.414-1.413
			c-1.605-1.576-3.394-2.904-5.24-4.167c0.729-1.525,1.44-3.059,2.157-4.588c1.276,1.107,2.477,2.311,3.669,3.502
			c0.913,0.912,2.327-0.502,1.414-1.413c-1.36-1.361-2.73-2.722-4.205-3.954c0.229-0.493,0.444-0.99,0.673-1.484
			c1.21,0.982,2.331,2.065,3.295,3.316c0.775,1.006,2.515,0.012,1.727-1.011c-1.226-1.59-2.642-2.944-4.18-4.159
			c0.484-1.057,0.951-2.117,1.432-3.176c1.794,1.346,3.587,2.691,5.381,4.037c1.032,0.774,2.027-0.963,1.01-1.727
			c-1.853-1.389-3.703-2.777-5.555-4.166c0.665-1.479,1.318-2.959,1.976-4.438c2.241,1.366,4.458,2.771,6.569,4.331
			c1.039,0.768,2.035-0.97,1.01-1.727c-2.172-1.605-4.453-3.046-6.758-4.447c0.445-1.014,0.875-2.029,1.314-3.043
			c2.003,1.703,4.185,3.186,6.434,4.55c1.105,0.671,2.109-1.06,1.01-1.727c-2.33-1.413-4.566-2.959-6.604-4.761
			c0.374-0.869,0.761-1.738,1.129-2.608c0.014-0.03,0.024-0.062,0.038-0.093c1.843,1.601,3.811,3.059,5.762,4.521
			c1.031,0.775,2.026-0.963,1.01-1.727c-2.033-1.525-4.067-3.059-5.956-4.76c0.218-0.521,0.428-1.051,0.643-1.574
			c2.103,1.576,4.202,3.152,6.305,4.728c1.033,0.774,2.026-0.963,1.01-1.727c-2.18-1.635-4.358-3.269-6.537-4.903
			c0.364-0.902,0.72-1.811,1.077-2.719c1.789,1.326,3.781,2.348,5.783,3.349c1.149,0.575,2.163-1.149,1.01-1.727
			c-2.093-1.048-4.198-2.103-6.027-3.558c0.474-1.217,0.937-2.441,1.396-3.668c0.032,0.043,0.045,0.088,0.087,0.129
			c2.03,1.994,4.335,3.539,6.868,4.823c1.146,0.581,2.16-1.144,1.01-1.727c-2.386-1.21-4.551-2.631-6.464-4.511
			c-0.294-0.289-0.633-0.324-0.937-0.232c0.328-0.887,0.646-1.779,0.969-2.67c2.232,1.52,4.576,2.871,6.756,4.473
			c1.041,0.766,2.037-0.972,1.01-1.727c-2.281-1.677-4.742-3.079-7.067-4.688c0.264-0.743,0.518-1.49,0.773-2.236
			c2.474,1.216,4.965,2.383,7.522,3.418c1.195,0.484,1.712-1.451,0.531-1.928c-2.519-1.02-4.966-2.186-7.396-3.391
			c0.552-1.633,1.087-3.272,1.611-4.916c2.505,0.795,4.873,1.914,7.016,3.467c1.046,0.759,2.043-0.978,1.01-1.727
			c-2.251-1.633-4.778-2.812-7.423-3.648c0.231-0.74,0.454-1.484,0.68-2.227c2.335,1.457,4.832,2.647,7.066,4.269
			c1.046,0.759,2.043-0.978,1.01-1.727c-2.365-1.716-5.027-2.946-7.477-4.524c0.473-1.596,0.927-3.197,1.371-4.803
			c2.174,0.953,4.305,1.992,6.429,3.054c1.149,0.575,2.164-1.149,1.01-1.727c-2.28-1.14-4.573-2.245-6.909-3.259
			c0.316-1.175,0.625-2.353,0.925-3.53c2.831,1.153,5.575,2.483,8.31,3.849c1.149,0.574,2.163-1.15,1.01-1.727
			c-2.904-1.451-5.826-2.85-8.835-4.071c0.532-2.158,1.035-4.323,1.51-6.492c2.559,1.601,5.085,3.222,7.889,4.392
			c1.189,0.496,1.704-1.439,0.53-1.93c-2.835-1.182-5.383-2.912-7.977-4.541c0.274-1.307,0.534-2.615,0.787-3.926
			c3.107,1.243,6.217,2.486,9.324,3.729c1.198,0.479,1.714-1.456,0.531-1.929c-3.159-1.264-6.32-2.528-9.48-3.793
			c0.187-1.016,0.366-2.032,0.539-3.05c2.717,1.551,5.503,2.927,8.41,4.104c1.195,0.484,1.711-1.45,0.531-1.928
			c-2.982-1.209-5.825-2.659-8.601-4.283c0.297-1.855,0.568-3.715,0.816-5.574c1.926,0.729,3.904,1.281,5.919,1.785
			c1.252,0.314,1.781-1.615,0.53-1.928c-2.104-0.527-4.187-1.09-6.192-1.891c0.164-1.33,0.303-2.662,0.438-3.993
			c2.573,0.613,5.106,1.041,7.754,0.479c1.263-0.269,0.728-2.196-0.53-1.929c-2.39,0.508-4.701,0.016-7.021-0.557
			c0.088-0.941,0.159-1.883,0.23-2.824c1.784,0.846,3.745,1.307,5.724,1.346c1.291,0.024,1.288-1.976,0-2
			c-1.961-0.038-3.868-0.565-5.572-1.518c0.05-0.77,0.103-1.539,0.145-2.309c1.499,0.374,2.997,0.748,4.496,1.123
			c1.252,0.312,1.782-1.615,0.531-1.928c-1.64-0.41-3.277-0.82-4.916-1.229c0.042-0.956,0.069-1.913,0.094-2.87
			c1.898,0.567,3.848,0.729,5.891,0.73c1.289,0,1.289-2,0-2c-2.018-0.002-3.973-0.133-5.853-0.802
			c0.007-0.52,0.019-1.038,0.021-1.558c2.699,0.27,5.38,0.158,8.097-0.344c1.268-0.233,0.729-2.16-0.532-1.928
			c-2.527,0.466-5.03,0.543-7.548,0.266c-0.006-1.23-0.023-2.462-0.056-3.691c0.121-0.008,0.246-0.025,0.374-0.08
			c2.115-0.91,4.508-1.893,6.202-3.49c0.939-0.887-0.478-2.299-1.414-1.414c-1.401,1.322-3.429,2.171-5.237,2.938
			c-0.041-1.078-0.094-2.158-0.154-3.235c1.735-1.417,3.649-2.638,4.963-4.49c0.747-1.056-0.988-2.053-1.728-1.01
			c-0.892,1.258-2.143,2.204-3.396,3.142c-0.083-1.158-0.188-2.314-0.298-3.471c1.642-1.938,3.624-3.555,5.729-4.969
			c1.064-0.715,0.064-2.449-1.01-1.727c-1.804,1.212-3.483,2.555-4.997,4.08c-0.078-0.689-0.146-1.379-0.232-2.068l4.441-4.441
			c0.913-0.913-0.501-2.327-1.414-1.414l-3.362,3.361c-0.266-1.867-0.577-3.729-0.915-5.59l4.358-4.357
			c0.913-0.913-0.501-2.327-1.414-1.414l-3.398,3.399c-0.278-1.401-0.584-2.8-0.907-4.196c0.897-0.824,1.83-1.607,2.852-2.3
			c1.062-0.719,0.062-2.452-1.01-1.727c-0.837,0.567-1.622,1.187-2.381,1.837c-0.205-0.825-0.399-1.651-0.618-2.475
			c1.251-0.938,2.408-1.989,3.545-3.125c0.913-0.913-0.501-2.327-1.414-1.414c-0.88,0.879-1.756,1.707-2.688,2.461
			c-0.398-1.411-0.826-2.818-1.271-4.223c0.492-0.8,1.014-1.584,1.531-2.36c0.718-1.077-1.016-2.077-1.728-1.01
			c-0.208,0.312-0.411,0.626-0.616,0.938c-0.788-2.328-1.646-4.646-2.563-6.953c0.806-1.219,1.702-2.373,2.751-3.439
			c0.904-0.921-0.51-2.336-1.414-1.414c-0.82,0.836-1.551,1.729-2.231,2.655c-0.345-0.817-0.691-1.634-1.056-2.446
			c-1.52-3.402-3.229-6.804-5.1-10.166c0.11,0.053,0.224,0.09,0.333,0.148c2.517,1.35,4.945,2.854,7.336,4.412
			c5.013,3.267,9.575,7.137,13.8,11.363c7.63,7.633,13.595,16.944,17.682,26.916C427.636,131.434,427.801,154.573,423.321,176.143z"
			/>
		<path fill="#98f698" d="M323.992,330.794c-0.588-1.147-2.312-0.137-1.727,1.011c0.816,1.596,1.85,3.069,2.666,4.666
			c0.588,1.147,2.312,0.137,1.727-1.011C325.842,333.865,324.809,332.391,323.992,330.794z"/>
	</g>
</g>
<g>
</g>
<g>
</g>
<g>
</g>
<g>
</g>
<g>
</g>
<g>
</g>
<g>
</g>
<g>
</g>
<g>
</g>
<g>
</g>
<g>
</g>
<g>
</g>
<g>
</g>
<g>
</g>
<g>
</g>
</svg>
