<?xml version="1.0" encoding="iso-8859-1"?>
<!-- Generator: Adobe Illustrator 16.0.0, SVG Export Plug-In . SVG Version: 6.00 Build 0)  -->
<!DOCTYPE svg PUBLIC "-//W3C//DTD SVG 1.1//EN" "http://www.w3.org/Graphics/SVG/1.1/DTD/svg11.dtd">
<svg version="1.1" id="Capa_1" xmlns="http://www.w3.org/2000/svg" xmlns:xlink="http://www.w3.org/1999/xlink" x="0px" y="0px"
	 width="482.318px" height="482.317px" viewBox="0 0 482.318 482.317" style="enable-background:new 0 0 482.318 482.317;"
	 xml:space="preserve">
<g>
	<path fill="#98f698" d="M415.024,392.236c-0.024-0.376-0.292-0.721-0.642-0.881c-5.437-7.582-12.965-13.526-22.588-16.495
		c-9.728-3.001-20.504-3.166-30.637-0.767c-3.774-7.498-7.761-14.888-11.887-22.198c15.961-2.598,30.589-19.865,20.238-35.573
		c-1.44-2.188-3.205-3.99-5.188-5.489c7.085-27.322-9.669-58.284-34.762-70.233c-0.029-0.965-0.353-1.957-0.967-2.758
		c-0.831-2.199-3.843-3.123-5.905-1.961c-5.957-0.588-11.932-0.648-17.924-0.65c-0.427,0-0.812,0.061-1.166,0.162
		c-7.373-9.848-18.776-14.75-30.948-12.209c-11.824-22.207-23.694-44.375-38.723-64.647c4.689-3.7,8.944-8.032,12.473-12.49
		c1.929,6.403,7.396,11.435,14.781,12.226c-0.585,14.344,10.604,28.877,24.924,26.291c1.834,9.903,10.272,16.1,20.292,16.109
		c0.37,5.138,3.303,9.451,9.149,10.844c7.264,1.73,14.75-2.27,18.671-8.266c0.467-0.713,0.657-1.414,0.655-2.072
		c26.858-43.318,33.646-94.526,26.952-144.45c7.389-8.01,3.552-24.107-9.808-22.401c-2.05,0.262-3.876,0.988-5.417,2.051
		c-19.508-19.391-46.285-32.697-73.835-34.201c-12.161-0.663-24.363-0.842-36.522-0.061c-11.68,0.75-23.945,2.289-34.498,7.662
		c-1.184,0.602-1.787,1.508-1.963,2.48c-7.324,6.7-12.226,15.914-12.921,25.93c-0.692,9.969,5.299,17.191,13.727,20.369
		c-3.666,5.721-4.458,12.461-0.132,18.854c3.986,5.89,10.884,9.273,17.905,10.404c-4.083,10.611-0.741,22.502,9.669,27.582
		c-2.881,7.539,0.18,15.637,6.08,20.315c-3.441,2.246-6.862,4.519-10.346,6.651c-14.021-26.611-32.004-50.738-50.154-74.633
		c1.699-2.6,2.953-5.5,3.65-8.555c0.598-0.893,0.81-2.016,0.344-3.203c-0.168-1.1-0.75-1.999-1.541-2.637
		c-9.974-16.617-15.389-37.289-32.57-48.223c-14.716-9.363-31.496-4.773-44.344,4.951c-0.609-0.489-1.402-0.807-2.386-0.834
		c-11.079-0.306-20.181,5.957-26.538,14.648c-6.02,8.23-11.143,18.717-12.46,28.921c-1.026,7.944,0.56,17.722,5.11,24.421
		c5.105,7.515,13.111,6.436,19.33,1.158c5.668,4.549,14.738,5.21,20.273,0.479c5.468-4.673,6.061-13.783,7.997-20.211
		c0.675-2.236,2.135-5.203,4.101-7.523c8.466,7.066,13.575,17.679,16.33,28.172c0.465,1.773,1.745,2.635,3.139,2.801
		c0.049,0.01,0.101,0.014,0.15,0.023c0.035,0.002,0.07,0.008,0.106,0.01c0.473,0.071,0.978,0.075,1.524-0.041
		c1.268-0.27,2.524-0.596,3.765-0.971c19.202,27.713,32.094,59.346,52.718,86.133c0.5,0.65,1.102,1.088,1.744,1.354
		c-5.932,23.393-8.082,48.175-7.67,72.06c0.415,23.985,3.604,51.481,19.055,70.852c-14.291,21.406-28.938,42.574-44.25,63.266
		c-15.496-5.856-33.403-3.093-47.082,6.212c-15.548,10.577-25.262,28.582-26.897,47.146c-1.566,17.783,6.685,34.12,21.095,43.857
		c0.285,0.63,0.752,1.214,1.441,1.688c13.059,8.994,28.879,10.523,43.523,6.6c0.617,0.471,1.439,0.73,2.495,0.613
		c21.482-2.381,46.573-9.073,55.78-31.09c7.923-18.945,0.938-41.406-14.127-54.623c7.455-8.172,13.368-17.728,19.777-26.722
		c3.219-4.517,6.121-9.263,9.189-13.881c1.486-2.237,5.61-9.317,7.109-9.828c1.141-0.388,1.885-1.114,2.312-1.973
		c11.144,6.279,23.106,11.243,35.228,15.056c9.771,3.074,20.919,5.704,31.728,5.604c-0.202,0.855-0.073,1.822,0.55,2.809
		c5.286,8.361,11.221,16.274,17.626,23.811c0.172,0.201,0.354,0.363,0.535,0.518c-5.209,7.58-9.901,15.48-12.57,24.36
		c-4.631,15.407,1.633,29.612,13.035,40.122c1.038,0.958,2.217,1.211,3.306,1.024c9.723,17.224,29.396,24.434,48.842,23.362
		c18.133-0.999,34.529-8.594,43.584-24.777C428.117,435.993,427.114,409.911,415.024,392.236z M416.935,423.286
		c-8.682,1.589-17.547,1.536-26.358,1.951c8.798-2.595,16.978-6.903,25.457-10.396C416.543,417.615,416.851,420.443,416.935,423.286
		z M414.821,409.779c0.294,1.019,0.567,2.044,0.801,3.085c-9.649,3.963-18.919,9.008-29.134,11.386
		c-0.019-0.227-0.042-0.453-0.066-0.68C396.031,419.271,406.101,415.732,414.821,409.779z M414.204,407.79
		c-8.608,5.979-18.575,9.527-28.127,13.759c-0.08-0.326-0.167-0.651-0.264-0.974c-0.034-0.183-0.056-0.367-0.096-0.55
		c-0.064-0.809-0.191-1.573-0.35-2.312c9.022-4.878,17.526-10.668,26.593-15.456C412.82,404.04,413.569,405.889,414.204,407.79z
		 M411.053,400.48c-8.952,4.718-17.354,10.421-26.241,15.268c-0.277-0.76-0.611-1.471-0.988-2.138
		c8.419-5.38,17.573-9.935,25.498-16.03C409.931,398.523,410.517,399.485,411.053,400.48z M408.197,395.928
		c-7.898,6.114-17.08,10.647-25.488,16.023c-0.536-0.69-1.129-1.318-1.77-1.884c8.38-5.618,17.354-10.41,25.461-16.425
		C407.023,394.384,407.629,395.14,408.197,395.928z M405.083,392.155c-6.974,5.179-14.626,9.421-21.956,14.097
		c5.444-6.34,11.577-12.097,16.624-18.76C401.694,388.875,403.472,390.437,405.083,392.155z M392.29,383.471
		c0.896,0.354,1.78,0.73,2.639,1.148c1.103,0.535,2.154,1.129,3.17,1.765c-5.884,7.793-13.265,14.35-19.308,22.029
		c-0.164-0.214-0.33-0.425-0.506-0.627C383.056,399.785,386.12,390.358,392.29,383.471z M390.295,382.738
		c-5.821,6.832-8.902,15.837-13.489,23.628c-0.924-0.731-1.979-1.295-3.16-1.674c3.785-7.699,7.418-15.521,10.556-23.509
		C386.287,381.563,388.328,382.078,390.295,382.738z M382.189,380.858c-3.139,7.953-6.775,15.735-10.555,23.399
		c-0.564-0.064-1.155-0.093-1.771-0.076c-0.075-7.917,0.882-15.851,2.102-23.676C375.404,380.296,378.845,380.396,382.189,380.858z
		 M369.929,380.667c-1.191,7.714-2.115,15.527-2.056,23.325c-2.915-6.932-4.214-14.607-6.711-21.719
		C364.028,381.504,366.969,380.961,369.929,380.667z M366.147,405.021c-0.649,0.194-1.277,0.425-1.894,0.671
		c-3.281-7.052-7.628-13.657-11.731-20.232c2.157-1.023,4.402-1.915,6.722-2.632C361.806,390.104,363.138,397.934,366.147,405.021z
		 M331.267,408.087c7.404,2.857,14.878,5.534,22.29,8.373c-0.118,0.369-0.229,0.742-0.315,1.122
		c-0.266,0.785-0.46,1.593-0.598,2.412c-7.979-1.537-16.064-2.362-24.196-2.571C329.095,414.226,330.024,411.099,331.267,408.087z
		 M329.54,392.773c0.97-1.353,1.95-2.691,2.929-4.024c0.361,0.311,0.717,0.626,1.068,0.946c-0.346,0.371-0.712,0.724-1.045,1.105
		c-0.749,0.86-1.45,1.746-2.127,2.646C330.091,393.221,329.816,392.996,329.54,392.773z M332.043,406.253
		c1.337-2.884,2.977-5.649,4.947-8.258c5.936,5.181,12.17,9.987,18.462,14.726c-0.443,0.598-0.814,1.236-1.142,1.896
		C346.908,411.777,339.443,409.104,332.043,406.253z M333.641,387.147c0.396-0.537,0.785-1.07,1.18-1.606
		c0.257,0.306,0.523,0.604,0.812,0.892c0.302,0.302,0.652,0.334,0.961,0.229c-0.574,0.52-1.142,1.046-1.691,1.589
		C334.487,387.876,334.067,387.51,333.641,387.147z M338.234,396.431c0.678-0.817,1.384-1.62,2.132-2.401
		c0.688-0.72,1.418-1.406,2.17-2.07c5.016,6.129,10.427,11.914,15.609,17.902c-0.181,0.208-0.37,0.405-0.536,0.625
		c-0.295,0.234-0.575,0.479-0.841,0.736C350.449,406.465,344.188,401.64,338.234,396.431z M344.078,390.702
		c2.054-1.629,4.271-3.093,6.647-4.348c4.086,6.542,8.461,13.125,11.723,20.151c-1.051,0.55-2.016,1.2-2.889,1.941
		C354.421,402.511,349.057,396.773,344.078,390.702z M364.611,326.138c-2.802-1.986-5.789-3.557-9.247-4.205
		c-1.261-0.237-1.798,1.689-0.532,1.928c3.661,0.688,6.772,2.444,9.69,4.67c-0.23,1.72-0.806,3.429-1.672,5.052
		c-3.082-1.85-6.165-3.698-9.247-5.549c-1.109-0.665-2.114,1.064-1.011,1.728c3.072,1.844,6.146,3.688,9.218,5.529
		c-0.904,1.32-1.993,2.561-3.234,3.669c-0.033-0.034-0.063-0.068-0.104-0.103c-3.302-2.668-6.403-5.524-10.201-7.489
		c-1.145-0.592-2.155,1.134-1.011,1.728c3.629,1.878,6.599,4.587,9.751,7.138c-1.479,1.091-3.113,2.011-4.854,2.688
		c0-0.168-0.058-0.347-0.193-0.526c-1.871-2.461-3.974-4.686-6.156-6.868c-0.912-0.913-2.326,0.501-1.413,1.414
		c2.058,2.059,4.078,4.143,5.844,6.464c0.035,0.047,0.074,0.084,0.112,0.122c-1.48,0.418-3.017,0.671-4.584,0.707
		c-0.294,0.007-0.566,0.046-0.827,0.102c-6.646-11.433-13.6-22.697-20.643-33.908c2.632,0.169,5.195,0.15,7.077,0.297
		c8.449,0.653,17.386,0.748,25.092,4.653C361.934,318.147,364.347,322.073,364.611,326.138z M349.13,300.903
		c-0.015-0.088-0.023-0.177-0.039-0.264c2.935-0.065,5.826,0.278,8.678,0.911c-0.032,0.392-0.088,0.78-0.131,1.173
		C354.804,302.106,351.954,301.568,349.13,300.903z M357.387,304.716c-0.109,0.722-0.226,1.442-0.375,2.161
		c-2.357-0.9-4.824-1.574-7.306-2.087c-0.075-0.592-0.176-1.178-0.262-1.768C352.084,303.62,354.744,304.134,357.387,304.716z
		 M357.875,299.524c-3.001-0.645-6.053-0.973-9.134-0.867c-0.241-1.298-0.498-2.59-0.785-3.873c3.314,0.266,6.639,0.43,9.921,0.888
		C357.936,296.954,357.922,298.239,357.875,299.524z M357.74,293.635c-3.399-0.445-6.84-0.603-10.266-0.888
		c-0.196-0.795-0.389-1.593-0.604-2.38c3.586,0.418,7.147,0.99,10.701,1.619C357.638,292.534,357.692,293.084,357.74,293.635z
		 M357.278,289.919c-3.654-0.639-7.317-1.218-11.006-1.626c-0.264-0.871-0.534-1.74-0.823-2.602
		c3.672-0.448,7.333-0.544,10.992,0.077C356.782,287.141,357.051,288.527,357.278,289.919z M355.878,283.684
		c-3.689-0.511-7.389-0.381-11.092,0.093c-0.286-0.786-0.577-1.57-0.887-2.345c3.674-0.338,7.35-0.597,11.041-0.668
		C355.282,281.729,355.592,282.703,355.878,283.684z M354.2,278.782c-3.717,0.101-7.419,0.377-11.119,0.729
		c-0.188-0.433-0.362-0.871-0.558-1.3c3.316-1.084,6.652-2.188,9.86-3.548C353.045,276.014,353.648,277.39,354.2,278.782z
		 M351.472,272.891c-3.187,1.348-6.511,2.429-9.807,3.501c-0.484-0.986-0.979-1.97-1.513-2.929c3.326-0.943,6.609-2.013,9.871-3.156
		C350.532,271.155,351.009,272.02,351.472,272.891z M346.987,265.709c0.68,0.934,1.321,1.893,1.946,2.86
		c-3.24,1.13-6.505,2.183-9.812,3.105c-0.298-0.497-0.597-0.994-0.909-1.482c0.84-0.422,1.674-0.854,2.503-1.297
		C342.641,267.87,344.782,266.449,346.987,265.709z M345.715,263.998c-2.978,1.038-5.803,2.908-8.654,4.446
		c-0.473-0.685-0.957-1.359-1.46-2.023c2.687-1.65,5.481-3.136,8.199-4.75C344.458,262.43,345.095,263.207,345.715,263.998z
		 M342.442,260.152c-2.686,1.586-5.425,3.065-8.065,4.7c-0.436-0.535-0.869-1.071-1.326-1.593c1.202-1.025,2.368-2.096,3.544-3.146
		c0.684-0.609,1.807-1.839,3-2.842C340.576,258.197,341.523,259.161,342.442,260.152z M336.229,254.32
		c0.688,0.556,1.357,1.134,2.021,1.722c-0.255,0.221-0.5,0.434-0.721,0.614c-1.993,1.646-3.84,3.479-5.812,5.151
		c-0.367-0.393-0.725-0.79-1.105-1.172c0.192-0.064,0.375-0.191,0.517-0.4C332.51,258.19,334.166,255.892,336.229,254.32z
		 M332.703,251.68c0.643,0.441,1.273,0.901,1.898,1.372c-2.078,1.711-3.771,4.061-5.2,6.174c-0.039,0.059-0.068,0.116-0.094,0.173
		c-0.449-0.42-0.887-0.85-1.354-1.258c0.412,0.181,0.908,0.118,1.173-0.405c0.8-1.581,1.673-3.122,2.606-4.628
		C332.037,252.619,332.375,252.152,332.703,251.68z M329.975,249.908c0.353,0.213,0.696,0.438,1.046,0.659
		c-1.377,1.938-2.552,4.044-3.62,6.158c-0.187,0.368-0.121,0.714,0.054,0.987c-0.411-0.352-0.806-0.714-1.229-1.055
		C327.458,254.411,328.634,252.103,329.975,249.908z M326.074,247.768c0.729,0.361,1.452,0.745,2.168,1.142
		c-1.292,2.116-2.431,4.338-3.616,6.511c-0.185-0.139-0.354-0.285-0.542-0.422C324.516,252.541,325.256,250.15,326.074,247.768z
		 M307.163,243.235c3.993,0.017,7.978,0.092,11.953,0.355c-1.6,4.646-3.166,9.243-3.406,14.16c-2.62,0.408-5.271,0.472-7.928,0.478
		C306.008,253.524,306.128,248.159,307.163,243.235z M302.628,265.672c1.509,1.935,3.977,1.76,5.596,0.546
		c3.899-0.042,7.779-0.235,11.604-1.129c0.035-0.009,0.062-0.023,0.096-0.032c1.072,0.044,2.122-0.284,2.857-0.973
		c2.007,1.722,3.812,3.604,5.452,5.607c0.006,0.409,0.327,0.783,0.739,0.928c7.245,9.314,10.925,21.186,12.562,32.961
		c-4.142-0.442-8.305-0.711-12.454-1.039c-2.261-0.179-4.532-0.351-6.777-0.675c-0.716-0.104-1.422-0.248-2.127-0.403
		c-0.807-0.18-1.191-0.738-0.584-0.061c-0.523-0.585-1.101-0.928-1.686-1.113c-7.161-11.329-14.333-22.644-21.285-34.062
		C298.645,266.2,300.674,266.083,302.628,265.672z M298.671,245.805c-0.445,4.112-0.286,8.321,0.707,12.295
		c-0.35,0.018-0.7,0.023-1.039,0.043c-0.035,0.002-0.069,0.001-0.104,0.003c-0.004-0.062,0.01-0.115-0.006-0.181
		c-0.91-3.853-1.234-7.818-2.067-11.683C296.999,246.122,297.834,245.962,298.671,245.805z M296.237,258.205
		c-0.661,0.013-1.321,0.012-1.982,0.016c-0.993-3.676-1.917-7.373-2.301-11.154c0.749-0.134,1.499-0.271,2.247-0.413
		C295.039,250.471,295.367,254.392,296.237,258.205z M294.505,236.969c0.421,0.414,0.833,0.84,1.228,1.291
		c-0.657,0.129-1.313,0.248-1.972,0.375C294.044,238.097,294.294,237.539,294.505,236.969z M291.683,234.588
		c0.41,0.293,0.812,0.604,1.207,0.926c-0.332,1.139-0.856,2.227-1.489,3.213c-0.084,0.131-0.131,0.26-0.151,0.385
		c-0.126,0.023-0.251,0.051-0.377,0.072C291.137,237.65,291.408,236.119,291.683,234.588z M292.203,258.286
		c-0.095,0.014-0.198,0.012-0.289,0.028c-0.599-1.027-1.187-2.062-1.777-3.095c-0.325-2.574-0.688-5.133-1.218-7.66
		c0.354-0.053,0.71-0.104,1.063-0.159C290.373,251.087,291.243,254.698,292.203,258.286z M285.618,231.527
		c-0.164,2.326-0.45,4.65-0.817,6.938c-0.202,1.262,1.725,1.803,1.93,0.531c0.356-2.225,0.646-4.48,0.83-6.74
		c0.789,0.34,1.56,0.729,2.309,1.16c-0.359,2.016-0.728,4.029-1.067,6.049c-0.004,0.023,0.005,0.041,0.002,0.062
		c-1.384,0.219-2.771,0.414-4.169,0.537c-0.773-2.955-1.335-6.111-1.642-9.221C283.885,231.01,284.757,231.252,285.618,231.527z
		 M287.437,250.458c-0.472-0.84-0.944-1.678-1.413-2.52c0.304-0.032,0.605-0.074,0.909-0.111
		C287.121,248.7,287.287,249.577,287.437,250.458z M280.97,230.566c0.298,3.236,0.854,6.537,1.64,9.629
		c-0.275,0.012-0.549,0.029-0.825,0.035c-0.389-0.717-0.771-1.438-1.158-2.154c0.086-0.178,0.141-0.377,0.104-0.611
		c-0.355-2.303-0.438-4.621-0.456-6.943C280.505,230.535,280.739,230.547,280.97,230.566z M278.278,230.5
		c0.014,1.145,0.05,2.285,0.115,3.426c-0.593-1.105-1.19-2.207-1.781-3.312C277.17,230.551,277.725,230.517,278.278,230.5z
		 M274.318,258.811c1.117-3.16,2.43-7.354,2.429-11.255c3.809,6.977,7.698,13.903,11.767,20.724
		c21.534,36.094,45.813,70.695,64.893,108.21c-3.369,1.295-6.605,2.896-9.641,4.787c-0.162-0.651-0.522-1.294-1.172-1.874
		c-14.784-13.209-21.977-33.688-30.614-51.021c-11.329-22.731-24.7-44.217-39.518-64.826
		C273.121,262.001,273.748,260.427,274.318,258.811z M271.834,238.461c-3.409-1.582-7.715-0.492-11.476,1.342
		c-0.154-0.479-0.4-0.951-0.767-1.4c-17.21-21.178-28.815-46.973-42.026-70.766c3.354-1.084,6.65-2.652,9.824-4.561
		C244.773,186.633,258.038,212.705,271.834,238.461z M212.362,157.133c0.196-0.076,0.387-0.166,0.583-0.244
		c0.896,0.972,1.758,1.973,2.609,2.983c-0.271,0.099-0.539,0.202-0.812,0.292C213.869,159.22,213.098,158.195,212.362,157.133z
		 M212.621,160.766c-0.459,0.11-0.918,0.212-1.381,0.295c-0.685-0.921-1.356-1.851-1.982-2.811c0.395-0.129,0.782-0.271,1.172-0.407
		C211.118,158.855,211.838,159.837,212.621,160.766z M214.895,156.07c0.45-0.195,0.89-0.412,1.335-0.615
		c0.808,1.052,1.641,2.104,2.586,3.015c-0.433,0.218-0.871,0.427-1.316,0.624C216.646,158.072,215.784,157.059,214.895,156.07z
		 M235.82,145.926c-0.392-0.365-0.791-0.721-1.198-1.066c1.728-1.105,3.454-2.209,5.183-3.321
		C238.562,143.064,237.222,144.521,235.82,145.926z M248.31,131.212c-0.014,0.022-0.022,0.044-0.035,0.065
		c-0.188,0.02-0.376,0.045-0.574,0.097c-9.604,2.505-16.085-8.438-10.481-16.124c0.013-0.018,0.021-0.035,0.033-0.053
		c2.27,3.51,4.643,6.935,7.14,10.242c1.371,1.816,2.792,3.584,4.24,5.326C248.523,130.91,248.408,131.043,248.31,131.212z
		 M265.763,150.23c-8.469,1.048-14.43-5.417-11.479-13.035c4.203,4.582,8.602,8.973,13.09,13.279
		C266.891,150.26,266.352,150.158,265.763,150.23z M314.622,197.295c0.76-3.064-1.931-5.568-4.921-4.921
		c-9.204,1.993-16.402-3.649-15.938-13.144c0.159-3.242-3.461-4.699-6.019-3.453c-12.241,5.962-20.699-10.221-18.124-20.482
		c0.251-1.003,0.05-2.17-0.48-3.134c6.599,6.28,13.324,12.444,19.784,18.881c7.27,7.242,14.675,14.382,22.82,20.644
		c2.542,1.953,5.306,3.59,8.051,5.238c1.575,0.945,3.157,1.881,4.727,2.838c0.596,0.363,1.053,0.797,1.37,1.08
		C321.446,204.869,312.577,205.539,314.622,197.295z M356.922,43.888c1.418,2.195,1.181,5.855-0.926,7.682
		C356.402,49.021,356.567,46.441,356.922,43.888z M353.982,42.122c0.422,0.021,0.798,0.124,1.151,0.263
		c-0.524,3.223-0.635,6.502-1.249,9.717c-0.387-0.095-0.759-0.232-1.109-0.41C352.829,48.513,353.092,45.174,353.982,42.122z
		 M351.786,42.562c-0.6,2.422-0.861,5.004-0.964,7.517C348.892,47.656,348.653,43.902,351.786,42.562z M194.926,37.272
		c0.381-5.491,3.093-11.168,6.798-15.667c1.44,10.424,3.798,20.674,6.859,30.729C199.844,51.082,194.282,46.549,194.926,37.272z
		 M208.271,74.367c-5.289-5.094-2.239-11.062,2.322-15.308c0.039-0.037,0.071-0.081,0.109-0.12
		c1.384,4.104,2.872,8.178,4.463,12.213c1.13,2.864,2.311,5.73,3.533,8.589C214.83,78.953,211.234,77.22,208.271,74.367z
		 M225.026,93.512c2.591,5.245,5.364,10.409,8.346,15.428C226.051,106.452,223.619,100.039,225.026,93.512z M225.121,74.459
		c-8.116-18.744-14.083-38.852-16.153-59.224c8.968-3.69,19.181-4.601,28.706-5.212c11.332-0.729,22.729-0.471,34.062,0.1
		c26.344,1.324,51.765,14.186,70.179,32.895c-0.419,1.531-0.555,3.186-0.358,4.894c0.781,6.854,5.905,11.82,12.732,12.282
		c0.209,1.629,0.383,3.26,0.557,4.891h-5.693c-1.29,0-1.29,2,0,2h5.914c0.207,2.107,0.391,4.215,0.546,6.324
		c-1.917,0.17-3.852,0.197-5.805,0.197c-1.29,0.002-1.29,2.002,0,2c1.994,0,3.974-0.033,5.935-0.204
		c0.199,3.035,0.359,6.071,0.444,9.106c-2.253,0.129-4.503-0.021-6.77-0.378c-1.262-0.198-1.803,1.729-0.532,1.929
		c2.468,0.388,4.9,0.557,7.344,0.428c0.044,2.204,0.065,4.406,0.05,6.607c-2.777,0.424-5.575,0.529-8.438,0.178
		c-1.277-0.156-1.263,1.846,0,2c2.848,0.35,5.644,0.248,8.414-0.153c-0.036,2.287-0.094,4.573-0.195,6.854
		c-3.328,0.254-6.622-0.252-9.92-0.799c-1.261-0.21-1.802,1.717-0.53,1.928c3.469,0.576,6.882,1.057,10.361,0.846
		c-0.133,2.476-0.294,4.949-0.509,7.416c-4.712-0.56-9.421-1.012-14.176-1.049c-1.29-0.01-1.289,1.99,0,2
		c4.695,0.037,9.345,0.479,13.997,1.027c-0.267,2.771-0.579,5.537-0.949,8.294c-4.057,0.239-8.097-0.229-12.127-0.796
		c-1.261-0.178-1.805,1.748-0.532,1.928c4.111,0.58,8.236,1.09,12.376,0.88c-0.364,2.536-0.768,5.065-1.225,7.584
		c-5.146-0.253-10.211-1.298-15.208-2.526c-1.252-0.307-1.783,1.621-0.531,1.93c5.046,1.239,10.174,2.297,15.368,2.583
		c-0.404,2.112-0.83,4.222-1.301,6.32c-4.11-0.585-8.213-1.212-12.227-2.312c-1.245-0.341-1.772,1.589-0.53,1.93
		c4.043,1.107,8.178,1.735,12.319,2.324c-0.482,2.059-0.989,4.111-1.538,6.153c-5.685-0.312-10.854-2.558-15.911-5.062
		c-1.15-0.57-2.165,1.154-1.01,1.727c5.219,2.584,10.565,4.873,16.403,5.297c-0.532,1.904-1.093,3.8-1.685,5.688
		c-4.876-0.946-9.321-3.164-13.948-4.945c-1.205-0.464-1.723,1.471-0.531,1.929c4.632,1.783,9.025,3.896,13.855,4.91
		c-0.47,1.448-0.936,2.898-1.439,4.337c-0.032-0.008-0.051-0.027-0.085-0.032c-5.798-0.894-10.977-3.851-16.149-6.454
		c-1.147-0.578-2.162,1.146-1.01,1.727c5.297,2.666,10.638,5.716,16.571,6.645c-0.688,1.896-1.401,3.782-2.151,5.657
		c-5.477-2.026-10.435-5.042-15.376-8.128c-1.098-0.686-2.101,1.045-1.01,1.727c5.024,3.138,10.076,6.166,15.631,8.246
		c-0.75,1.818-1.521,3.629-2.332,5.428c-5.81-2.188-10.706-5.959-15.365-10c-0.969-0.842-2.39,0.566-1.414,1.414
		c4.849,4.205,9.938,8.081,15.954,10.398c-0.633,1.365-1.278,2.727-1.947,4.078c-5.778-2.125-10.928-5.41-16.071-8.837
		c-1.077-0.718-2.077,1.016-1.01,1.727c5.182,3.452,10.391,6.731,16.189,8.903c-0.692,1.362-1.399,2.721-2.131,4.068
		c-5.062-2.613-9.938-5.562-15.017-8.143c-1.147-0.583-2.159,1.143-1.011,1.727c5.1,2.59,9.994,5.553,15.074,8.174
		c-0.672,1.209-1.355,2.412-2.059,3.609c-2.844-1.957-6.51-3.516-8.386-4.652c-7.698-4.666-14.291-10.869-20.77-17.072
		c-15.15-14.507-31.18-28.508-44.91-44.398C242.823,111.923,233.166,93.043,225.121,74.459z M232.867,145.984
		c0.527,0.42,1.035,0.864,1.527,1.326c-0.42,0.395-0.838,0.791-1.268,1.175c-0.532-0.546-1.057-1.099-1.573-1.659
		C231.992,146.549,232.429,146.263,232.867,145.984z M229.834,147.912c0.579,0.636,1.171,1.258,1.77,1.875
		c-0.381,0.32-0.752,0.651-1.139,0.963c-0.622-0.68-1.227-1.375-1.795-2.102C229.06,148.408,229.445,148.155,229.834,147.912z
		 M226.953,149.691c0.611,0.793,1.267,1.551,1.939,2.293c-0.352,0.269-0.701,0.539-1.057,0.8c-0.68-0.788-1.322-1.612-1.957-2.442
		C226.239,150.129,226.594,149.906,226.953,149.691z M224.156,151.353c0.668,0.875,1.336,1.754,2.044,2.594
		c-0.229,0.16-0.456,0.326-0.688,0.482c-0.709-0.875-1.43-1.742-2.15-2.611C223.629,151.668,223.889,151.506,224.156,151.353z
		 M221.594,152.786c0.754,0.907,1.502,1.819,2.246,2.733c-0.209,0.133-0.414,0.275-0.624,0.406
		c-0.857-0.867-1.686-1.753-2.455-2.686C221.04,153.092,221.316,152.935,221.594,152.786z M218.943,154.164
		c0.783,0.982,1.628,1.914,2.51,2.818c-0.264,0.155-0.523,0.321-0.787,0.473c-0.956-0.84-1.793-1.832-2.587-2.852
		C218.369,154.462,218.654,154.308,218.943,154.164z M216.812,146.32c-4.152,2.157-8.462,3.982-13.067,5.202
		c-0.094-0.429-0.249-0.866-0.526-1.312c-14.229-22.8-27.756-46.054-38.559-70.688c1.682-1.281,3.329-2.604,4.854-4.051
		C186.682,98.137,203.523,121.115,216.812,146.32z M208.983,161.35c-2.421,0.16-3.505-0.409-3.667-1.952
		c0.66-0.164,1.311-0.348,1.959-0.533C207.81,159.715,208.389,160.539,208.983,161.35z M157.701,70.374
		c-0.571,0.162-1.039,0.415-1.429,0.722c-0.933-0.166-1.823-0.515-2.682-0.971c5.62-3.541,11.334-7.137,15.692-12.118
		C167.633,63.746,163.681,68.676,157.701,70.374z M168.396,55.988c-4.472,5.463-10.695,9.189-16.658,12.943
		c-1.245-0.953-2.403-2.116-3.465-3.34c6.284-4.064,12.615-8.386,17.936-13.707C166.931,53.312,167.66,54.67,168.396,55.988z
		 M161.773,42.712c-5.181,6.179-11.889,12.497-19.371,15.229c-0.569-0.784-1.137-1.571-1.705-2.358
		c5.936-6.544,11.446-13.552,17.706-19.794C159.566,38.092,160.681,40.416,161.773,42.712z M157.443,33.916
		c-6.377,6.279-11.951,13.382-17.949,20.02c-0.838-1.145-1.686-2.285-2.562-3.397c6.731-6.214,12.408-13.403,18.645-20.085
		C156.215,31.593,156.836,32.75,157.443,33.916z M154.543,28.638c-6.34,6.744-12.074,14.035-18.873,20.343
		c-0.815-0.979-1.651-1.938-2.533-2.854c5.857-7.875,10.67-16.599,17.201-23.923C151.831,24.228,153.224,26.392,154.543,28.638z
		 M149.098,20.594c-6.633,7.376-11.471,16.186-17.388,24.137c-0.201-0.189-0.391-0.391-0.596-0.577
		c-0.588-0.532-1.177-0.993-1.767-1.418c5.904-8.259,10.029-17.921,16.865-25.464C147.221,18.308,148.172,19.432,149.098,20.594z
		 M144.784,15.873c-6.936,7.65-11.131,17.402-17.11,25.781c-0.337-0.189-0.673-0.367-1.009-0.525
		c3.842-10.124,5.798-20.854,8.369-31.357C138.703,11.084,141.912,13.207,144.784,15.873z M126.548,8.281
		c2.338,0.029,4.522,0.342,6.573,0.895c-2.562,10.459-4.512,21.142-8.314,31.23c-0.476-0.146-0.95-0.273-1.422-0.363
		c0.605-10.328,1.693-21.5-0.773-31.582C123.902,8.33,125.214,8.265,126.548,8.281z M90.429,18.086
		c-0.683,0.76-1.341,1.531-1.978,2.313c-0.396-0.364-0.795-0.724-1.213-1.063C88.27,18.836,89.333,18.414,90.429,18.086z
		 M85.324,20.379c0.66,0.507,1.293,1.045,1.9,1.611c-0.215,0.283-0.445,0.562-0.654,0.85c-0.408,0.56-0.812,1.152-1.215,1.76
		c-1.048-0.689-2.105-1.361-3.175-2.015C83.189,21.769,84.238,21.033,85.324,20.379z M69.264,40.939
		c2.488,0.654,4.901,1.582,7.307,2.514c-0.219,0.734-0.428,1.473-0.62,2.215c-2.547-0.762-5.062-1.628-7.611-2.381
		C68.626,42.506,68.937,41.722,69.264,40.939z M67.678,45.178c2.614,0.768,5.191,1.656,7.802,2.436
		c-0.144,0.641-0.276,1.281-0.397,1.922c-2.705-0.668-5.378-1.486-8.094-2.111C67.199,46.682,67.429,45.933,67.678,45.178z
		 M66.019,51.42c0.133-0.675,0.289-1.364,0.459-2.062c2.773,0.639,5.504,1.48,8.271,2.154c-0.147,0.976-0.276,1.95-0.364,2.92
		c-2.878-0.523-5.698-1.297-8.575-1.777C65.873,52.24,65.939,51.826,66.019,51.42z M65.592,54.617
		c2.904,0.469,5.756,1.252,8.656,1.787c-0.026,0.572-0.055,1.146-0.059,1.713c-2.873-0.547-5.775-0.764-8.699-0.84
		C65.486,56.384,65.522,55.496,65.592,54.617z M65.565,59.279c2.919,0.078,5.814,0.298,8.683,0.883
		c0.054,1.148,0.142,2.287,0.307,3.4c-2.84-0.466-5.709-0.674-8.588-0.761C65.772,61.638,65.642,60.459,65.565,59.279z
		 M67.514,68.754c-0.461-1.264-0.844-2.589-1.154-3.945c2.881,0.098,5.748,0.326,8.586,0.844c0.271,1.234,0.61,2.443,1.043,3.611
		c-2.713,0.039-5.424,0.143-8.129,0.38C67.741,69.355,67.626,69.06,67.514,68.754z M76.935,72.402
		c-3.819,3.387-6.316,2.403-8.153-0.832c2.68-0.205,5.364-0.294,8.052-0.32c0.145,0.304,0.283,0.609,0.44,0.907
		C77.162,72.24,77.046,72.304,76.935,72.402z M77.164,41.554c-2.352-0.9-4.699-1.771-7.113-2.431
		c0.399-0.878,0.831-1.751,1.278-2.616c2.29,0.723,4.509,1.618,6.663,2.686C77.705,39.974,77.426,40.76,77.164,41.554z
		 M78.721,37.321c-2.082-1.021-4.225-1.888-6.428-2.601c0.641-1.139,1.328-2.251,2.05-3.335c1.9,0.95,3.802,1.901,5.702,2.851
		C79.586,35.247,79.14,36.271,78.721,37.321z M80.892,32.429c-1.799-0.9-3.598-1.799-5.397-2.699
		c0.595-0.816,1.216-1.606,1.858-2.371c1.639,0.795,3.27,1.604,4.853,2.502C81.758,30.697,81.319,31.553,80.892,32.429z
		 M78.721,25.808c0.602-0.646,1.229-1.256,1.868-1.847c1.247,0.747,2.477,1.522,3.692,2.321c-0.369,0.598-0.734,1.206-1.094,1.834
		C81.727,27.291,80.228,26.541,78.721,25.808z M93.066,74.152c-5.203-0.172-7.992-3.29-9.361-7.369
		c4.496,2.133,9.105,3.959,13.821,5.518C96.413,73.49,94.975,74.216,93.066,74.152z M98.758,70.599
		c-5.301-1.719-10.47-3.764-15.488-6.232c-0.072-0.035-0.14-0.037-0.21-0.055c-0.212-1.083-0.345-2.201-0.421-3.324
		c5.801,2.18,11.546,4.566,17.521,6.214C99.781,68.42,99.332,69.587,98.758,70.599z M100.693,65.273
		c-6.184-1.703-12.121-4.199-18.129-6.438c-0.006-1.178,0.041-2.34,0.127-3.452c6.174,2.011,12.102,4.642,18.068,7.21
		c0.18,0.078,0.352,0.09,0.518,0.074C101.099,63.521,100.91,64.398,100.693,65.273z M101.658,60.82
		c-6.19-2.666-12.342-5.404-18.76-7.467c0.049-0.398,0.099-0.797,0.155-1.172c0.143-0.943,0.321-1.89,0.517-2.836
		c6.389,2.655,12.41,6.084,18.648,9.064C102.023,59.126,101.842,59.937,101.658,60.82z M102.818,56.494
		c-6.281-3.02-12.359-6.449-18.805-9.115c0.398-1.631,0.879-3.259,1.427-4.875c5.667,3.874,11.765,7.111,17.117,11.434
		c0.415,0.336,0.903,0.283,1.261,0.052C103.449,54.813,103.113,55.65,102.818,56.494z M104.285,52.984
		c-0.043-0.161-0.14-0.32-0.313-0.461c-5.589-4.514-11.948-7.882-17.838-11.959c0.411-1.091,0.857-2.174,1.334-3.246
		c5.854,4.164,11.523,8.578,17.09,13.119c0.327,0.268,0.7,0.289,1.019,0.174C105.115,51.384,104.681,52.176,104.285,52.984z
		 M106.283,49.484c-0.043-0.161-0.139-0.32-0.312-0.461c-5.746-4.688-11.599-9.247-17.646-13.541
		c0.778-1.602,1.632-3.17,2.551-4.697c5.312,5.794,10.636,11.58,16.182,17.152c0.067,0.068,0.14,0.098,0.212,0.142
		C106.93,48.536,106.599,49.004,106.283,49.484z M108.488,46.55c-0.008-0.009-0.008-0.018-0.017-0.026
		c-5.655-5.684-11.08-11.587-16.497-17.496c1.088-1.674,2.27-3.28,3.522-4.818c2.522,3.428,5.091,6.821,7.778,10.123
		c2.467,3.029,5.211,6.72,8.604,8.952C110.673,44.228,109.535,45.328,108.488,46.55z M113.687,42.026
		c-3.304-1.913-5.921-5.431-8.309-8.274c-3.007-3.582-5.814-7.33-8.575-11.104c1.889-2.146,3.941-4.121,6.142-5.877
		c4.27,8.055,6.688,17.035,11.249,24.969C114.025,41.834,113.855,41.924,113.687,42.026z M115.992,40.855
		c-4.648-8.033-7.073-17.154-11.438-25.309c1.482-1.074,3.029-2.047,4.631-2.91c3.82,8.866,6.29,18.264,9.189,27.474
		C117.566,40.287,116.769,40.534,115.992,40.855z M121.398,39.827c-0.34-0.009-0.68-0.015-1.017,0.004
		c-2.979-9.419-5.509-19.026-9.419-28.097c3.033-1.438,6.26-2.469,9.65-3.013C123.088,18.605,122.007,29.656,121.398,39.827z
		 M123.355,48.589c-0.27-0.284-0.528-0.577-0.806-0.854c0.394,0.131,0.782,0.31,1.168,0.522
		C123.596,48.367,123.474,48.477,123.355,48.589z M126.34,51.982c-0.531-0.661-1.081-1.307-1.642-1.945
		c0.226-0.211,0.453-0.42,0.688-0.623c0.616,0.508,1.214,1.081,1.787,1.691C126.903,51.408,126.621,51.695,126.34,51.982z
		 M130.039,57.155c-0.783-1.232-1.625-2.425-2.495-3.594c0.317-0.317,0.634-0.636,0.938-0.967c1.048,1.269,1.979,2.56,2.744,3.595
		C130.82,56.498,130.423,56.818,130.039,57.155z M131.099,58.887c0.424-0.383,0.863-0.745,1.316-1.089
		c0.682,0.926,1.372,1.891,2.085,2.908c-0.579,0.387-1.159,0.773-1.739,1.16C132.236,60.857,131.677,59.867,131.099,58.887z
		 M134.998,66.584c-0.421-0.985-0.869-1.957-1.334-2.92c0.662-0.441,1.323-0.881,1.984-1.322c0.646,0.921,1.303,1.852,1.982,2.789
		C136.775,65.655,135.9,66.144,134.998,66.584z M135.737,68.428c1.06-0.509,2.083-1.08,3.082-1.695
		c0.247,0.328,0.508,0.646,0.76,0.972c-1.081,0.72-2.263,1.224-3.515,1.587C135.954,69.004,135.849,68.714,135.737,68.428z
		 M137.508,73.354c-0.231-0.733-0.484-1.46-0.742-2.185c1.449-0.434,2.811-1.047,4.057-1.896c0.57,0.694,1.152,1.378,1.754,2.035
		C140.948,72.133,139.256,72.798,137.508,73.354z M144.461,60.728c-0.277-0.366-0.548-0.741-0.822-1.111
		c7.309-2.869,13.909-8.892,19.074-14.93c0.86,1.811,1.709,3.592,2.559,5.318c-5.305,5.42-11.668,9.758-18.012,13.861
		c-0.098,0.064-0.174,0.139-0.238,0.216C146.084,62.906,145.228,61.74,144.461,60.728z M147.121,77.982
		c0.673-0.368,1.338-0.75,1.986-1.162c2.082,1.236,4.328,2.072,6.774,2.325c0.087,0.368,0.214,0.737,0.429,1.104
		c11.027,25.868,25.135,50.18,40,74c0.256,0.409,0.557,0.723,0.873,0.99c-0.077,0.578-0.022,1.186,0.152,1.771
		c-0.273,0.865-0.526,1.739-0.789,2.609C177.68,133.919,165.139,104.25,147.121,77.982z M205.181,296.672
		c2.088-3.507,4.258-6.968,6.113-10.604c0.585-1.146-1.141-2.159-1.727-1.01c-1.658,3.249-3.572,6.354-5.451,9.479
		c-0.926-1.937-1.755-3.932-2.514-5.963c1.818-2.741,3.887-5.292,6.201-7.639c0.906-0.919-0.507-2.333-1.414-1.414
		c-2.052,2.081-3.93,4.321-5.614,6.704c-0.601-1.771-1.141-3.571-1.634-5.392c2.45-2.626,4.802-5.345,7.329-7.898
		c0.907-0.917-0.506-2.332-1.414-1.414c-2.243,2.268-4.347,4.666-6.505,7.014c-0.6-2.437-1.091-4.91-1.533-7.396
		c2.524-2.257,5.277-4.234,7.452-6.871c0.813-0.986-0.593-2.41-1.414-1.414c-1.888,2.29-4.214,4.082-6.447,5.991
		c-0.263-1.646-0.485-3.293-0.692-4.943c2.588-1.366,5.115-2.931,7.221-4.967c0.929-0.897-0.486-2.312-1.414-1.414
		c-1.779,1.72-3.887,3.071-6.062,4.259c-0.269-2.402-0.469-4.797-0.643-7.181c2.463-1.315,4.984-2.534,7.25-4.175
		c1.033-0.748,0.037-2.484-1.01-1.728c-2.001,1.449-4.202,2.568-6.386,3.717c-0.163-2.604-0.281-5.181-0.369-7.718
		c2.153-1.184,4.317-2.352,6.432-3.605c1.108-0.656,0.103-2.385-1.01-1.727c-1.808,1.072-3.651,2.08-5.495,3.089
		c-0.027-1.04-0.051-2.071-0.068-3.093c-0.025-1.449-0.039-2.9-0.044-4.355c1.851-0.648,3.622-1.494,5.284-2.58
		c1.074-0.703,0.073-2.436-1.01-1.727c-1.359,0.887-2.783,1.598-4.266,2.172c0.012-2.818,0.066-5.646,0.159-8.479
		c2.643-1.225,5.181-2.648,7.782-3.967c1.15-0.584,0.138-2.309-1.01-1.727c-2.241,1.135-4.428,2.381-6.688,3.479
		c0.098-2.389,0.228-4.781,0.385-7.172c2.128-0.428,4.292-0.643,6.407-1.146c1.254-0.299,0.722-2.227-0.532-1.928
		c-1.887,0.447-3.812,0.662-5.717,1.006c0.182-2.479,0.408-4.955,0.656-7.432c1.864-0.329,3.748-0.541,5.593-0.979
		c1.255-0.298,0.722-2.228-0.532-1.929c-1.6,0.381-3.227,0.594-4.846,0.856c0.189-1.761,0.402-3.519,0.629-5.275
		c1.924-0.261,3.861-0.282,5.816-0.284c1.289,0,1.29-2,0-2c-1.862,0.002-3.711,0.049-5.546,0.259c0.285-2.091,0.6-4.177,0.937-6.259
		h5.942c1.29,0,1.29-2,0-2h-5.609c0.399-2.342,0.844-4.672,1.312-6.996c1.869,0.879,3.855,0.932,5.897,0.295
		c1.227-0.383,0.702-2.314-0.532-1.93c-1.773,0.555-3.355,0.49-4.949-0.41c0.748-3.554,1.575-7.084,2.503-10.579
		c2.032,1.095,4.521,1.319,7.009,1.126c14.101,25.039,26.276,52.15,44.479,74.578c-9.039,7.29-15.487,17.474-21.742,27.106
		c-7.271,11.2-14.663,22.329-22.051,33.455c-0.43-0.574-0.846-1.159-1.252-1.752c1.231-3.676,2.742-7.239,4.465-10.723
		c0.57-1.152-1.155-2.166-1.727-1.01c-1.549,3.132-2.942,6.327-4.123,9.606C206.637,299.369,205.892,298.03,205.181,296.672z
		 M220.999,302.523c7.368-11.158,14.63-22.388,22.057-33.507c5.842-8.746,13.347-20.507,24.263-23.188
		c1.773-0.436,1.375,0.581,1.325,2.327c-0.099,3.466-1.474,7.021-2.654,10.233c-3.19,8.674-8.39,16.376-13.424,24.058
		c-16.863,25.729-36.492,49.509-55.565,73.597c-7.179,9.067-14.274,18.201-21.178,27.48c-2.306-1.943-4.756-3.701-7.347-5.226
		C186.748,353.579,204.06,328.176,220.999,302.523z M160.474,427.938c0.148-1.288,0.135-2.593-0.001-3.888
		c4.233-0.145,8.46,0.25,12.706,0.248c5-0.003,9.914-0.998,14.888-1.183c0.384,4.326,0.202,8.693-0.582,12.946
		C178.254,434.129,169.23,431.443,160.474,427.938z M187.08,438.019c-0.695,3.021-1.687,5.974-3.021,8.795
		c-0.489,1.032-1.029,2.035-1.596,3.018c-8.331-4.742-15.733-10.955-23.795-16.129c0.221-0.408,0.432-0.824,0.619-1.257
		c0.354-0.817,0.623-1.658,0.831-2.511C168.859,433.423,177.867,436.096,187.08,438.019z M174.974,422.228
		c-4.939,0.144-9.877-0.384-14.807-0.172c-0.131-0.61-0.301-1.213-0.488-1.81c8.91-1.741,18.128-3.729,26.239-7.843
		c0.899,2.845,1.552,5.769,1.933,8.726C183.549,421.318,179.297,422.102,174.974,422.228z M158.976,418.354
		c-0.264-0.614-0.547-1.222-0.869-1.807c8.923-2.267,17.291-5.999,25.653-9.779c0.556,1.219,1.058,2.462,1.513,3.723
		C177.181,414.657,167.898,416.617,158.976,418.354z M156.996,414.761c-0.57-0.817-1.193-1.596-1.877-2.312
		c7.3-5.579,15.055-10.461,22.965-15.113c1.846,2.381,3.451,4.946,4.812,7.639C174.462,408.783,166.017,412.537,156.996,414.761z
		 M176.814,395.766c-7.986,4.712-15.795,9.667-23.168,15.312c-0.299-0.252-0.6-0.502-0.914-0.731
		c5.77-7.064,11.562-14.163,15.619-22.367C171.42,390.182,174.273,392.775,176.814,395.766z M166.689,386.836
		c-4.051,8.238-9.86,15.344-15.645,22.431c-0.222-0.124-0.436-0.263-0.662-0.375c2.439-8.85,5.812-17.864,6.017-27.049
		C160.004,383.033,163.454,384.723,166.689,386.836z M154.404,381.232c-0.066,9.104-3.431,18.093-5.88,26.877
		c-0.363-0.125-0.729-0.24-1.104-0.338c-2.824-9.104-2.689-18.755-4.561-28.062C146.786,379.67,150.662,380.197,154.404,381.232z
		 M140.837,379.784c1.837,8.815,1.802,17.944,4.119,26.646c-4.204-8.551-8.864-17.224-15.052-24.521
		C133.531,380.691,137.198,379.999,140.837,379.784z M127.439,382.811c0.148-0.062,0.299-0.112,0.447-0.17
		c6.321,7.28,11.039,16.037,15.281,24.664c-0.85,0.029-1.678,0.123-2.477,0.287c-7.811-6.313-15.527-12.743-23.24-19.178
		C120.539,386.156,123.875,384.249,127.439,382.811z M115.823,389.651c7.485,6.242,14.973,12.481,22.545,18.619
		c-0.77,0.295-1.514,0.646-2.225,1.058c-9.065-3.904-17.966-8.646-25.599-14.853C112.193,392.744,113.961,391.135,115.823,389.651z
		 M109.197,395.942c7.51,6.099,16.142,10.796,25.02,14.702c-0.197,0.153-0.398,0.299-0.59,0.461
		c-0.152-0.271-0.405-0.492-0.784-0.54c-10.07-1.268-19.854-4.021-29.717-6.332C104.896,401.291,106.93,398.507,109.197,395.942z
		 M102.123,405.971c0.099,0.07,0.215,0.131,0.359,0.164c9.862,2.309,19.637,5.007,29.693,6.336
		c-0.274,0.285-0.545,0.576-0.805,0.881c-10.211,2.736-22.291,2.119-32.831,0.356C99.535,411.051,100.739,408.462,102.123,405.971z
		 M97.865,415.615c10.148,1.721,21.541,2.422,31.642,0.24c-0.69,1.062-1.314,2.183-1.854,3.348
		c-10.392,0.884-20.812,1.396-31.241,1.496C96.806,418.986,97.305,417.292,97.865,415.615z M95.91,423.016
		c0.019-0.104,0.047-0.208,0.067-0.313c10.283-0.088,20.559-0.573,30.806-1.424c-0.246,0.665-0.479,1.335-0.677,2.013
		c-10.218,2.451-20.501,4.569-30.927,5.937C95.287,427.18,95.524,425.107,95.91,423.016z M95.119,431.235
		c10.26-1.341,20.379-3.378,30.436-5.761c-0.215,1.02-0.375,2.041-0.475,3.052c-9.664,3.665-19.608,6.457-29.521,9.37
		C95.243,435.724,95.1,433.497,95.119,431.235z M95.901,439.881c9.751-2.866,19.536-5.608,29.056-9.177
		c0,0.069-0.004,0.139-0.005,0.207c-0.118,0.053-0.233,0.138-0.34,0.261c-6.904,8.033-17.302,11.663-25.974,17.408
		C97.404,445.816,96.491,442.902,95.901,439.881z M99.511,450.399c7.606-5.076,16.515-8.526,23.356-14.62
		c-6.514,6.893-13.214,13.604-19.561,20.652C101.848,454.531,100.588,452.511,99.511,450.399z M104.576,458.006
		c6.828-7.593,14.083-14.782,21.064-22.232c0.07,0.137,0.135,0.284,0.219,0.403c-4.823,9.39-10.518,18.328-14.634,28.056
		C108.724,462.365,106.512,460.274,104.576,458.006z M112.885,465.408c4.051-9.749,9.768-18.678,14.608-28.052
		c0.278,0.084,0.565,0.143,0.862,0.158c0.295,0.475,0.635,0.919,0.995,1.349c-1.567,3.729-2.842,7.643-4.439,11.209
		c-2.661,5.939-5.866,11.585-8.298,17.607C115.312,466.974,114.074,466.212,112.885,465.408z M118.499,469.566
		c-0.079-0.184-0.177-0.359-0.291-0.531c2.603-6.727,6.21-12.999,9.159-19.582c1.295-2.89,2.348-6,3.556-9.021
		c0.526,0.431,1.104,0.816,1.722,1.166c-1.291,10.423-2.281,21.187-5.717,31.141C124.03,471.979,121.203,470.936,118.499,469.566z
		 M128.881,473.198c3.379-9.817,4.402-20.426,5.657-30.726c0.696,0.258,1.45,0.451,2.234,0.611
		c0.177,10.396,1.049,20.756,1.753,31.128C135.277,474.2,132.043,473.874,128.881,473.198z M140.522,474.18
		c-0.696-10.265-1.558-20.516-1.745-30.802c1.252,0.111,2.529,0.099,3.805-0.012c3.149,9.666,4.57,19.82,7.74,29.496
		C147.098,473.611,143.81,474.06,140.522,474.18z M152.265,472.374c-3.15-9.598-4.574-19.668-7.666-29.267
		c0.631-0.111,1.256-0.255,1.877-0.419c5.027,8.728,9.486,17.855,15.254,26.108C158.697,470.283,155.521,471.487,152.265,472.374z
		 M163.515,467.873c-5.708-8.147-10.129-17.158-15.078-25.795c1.127-0.407,2.215-0.91,3.252-1.493
		c6.871,7.143,12.297,15.679,20.627,21.309C169.608,464.182,166.652,466.188,163.515,467.873z M173.599,460.358
		c-8.201-5.436-13.522-13.803-20.184-20.854c1.613-1.136,3.04-2.511,4.19-4.108c8.073,5.175,15.481,11.396,23.817,16.146
		c-2.133,3.334-4.695,6.357-7.598,9.023C173.764,460.49,173.691,460.42,173.599,460.358z M175.899,469.023
		c1.124-0.873,2.19-1.791,3.224-2.731c0.338,0.445,0.687,0.882,1.037,1.316C178.758,468.121,177.335,468.596,175.899,469.023z
		 M182.114,466.855c-0.531-0.635-1.041-1.286-1.54-1.947c1.326-1.304,2.555-2.673,3.717-4.084c1.383,1.035,2.791,2.033,4.239,2.979
		C186.481,464.947,184.334,465.964,182.114,466.855z M190.46,462.665c-1.696-1.066-3.337-2.208-4.938-3.403
		c0.895-1.178,1.721-2.396,2.506-3.635c2.455,1.029,4.801,2.273,7.074,3.666C193.648,460.518,192.098,461.644,190.46,462.665z
		 M196.656,457.907c-2.436-1.525-4.951-2.886-7.586-4.008c0.78-1.349,1.494-2.729,2.146-4.135c3.107,1.324,6.238,2.563,9.525,3.441
		C199.53,454.912,198.164,456.479,196.656,457.907z M190.832,401.605c0.32-0.278,0.643-0.558,0.959-0.838
		c0.808,0.664,1.574,1.369,2.32,2.097c-0.846,0.544-1.721,1.046-2.533,1.579c-0.045,0.029-0.082,0.062-0.119,0.097
		c-0.149-0.341-0.283-0.688-0.438-1.024c0.087-0.038,0.173-0.076,0.259-0.114C192.26,402.971,191.715,401.725,190.832,401.605z
		 M204.352,446.433c-0.683,1.82-1.524,3.511-2.493,5.09c-0.1-0.079-0.221-0.145-0.371-0.184c-3.27-0.854-6.379-2.082-9.465-3.394
		c0.674-1.612,1.266-3.26,1.776-4.937c3.61,0.927,7.226,1.824,10.912,2.396C204.595,445.749,204.48,446.093,204.352,446.433z
		 M205.313,443.49c-3.704-0.568-7.337-1.473-10.964-2.402c0.463-1.754,0.839-3.536,1.125-5.341c3.637,0.18,7.209,0.744,10.703,1.854
		c0.105,0.032,0.198,0.028,0.293,0.03C206.237,439.608,205.854,441.567,205.313,443.49z M206.648,435.656
		c-3.557-1.124-7.207-1.702-10.91-1.897c0.186-1.521,0.301-3.059,0.361-4.605h10.447
		C206.747,431.315,206.795,433.491,206.648,435.656z M206.312,427.152h-10.169c0.004-0.945-0.022-1.896-0.065-2.85
		c2.986-1.021,6.051-1.804,9.035-2.836C205.64,423.334,206.043,425.234,206.312,427.152z M204.523,419.56
		c-2.83,0.976-5.733,1.729-8.573,2.679c-0.085-1.061-0.189-2.121-0.335-3.188c-0.043-0.322-0.101-0.645-0.15-0.967
		c2.345-1.224,4.608-2.554,6.777-4.042C203.128,415.827,203.894,417.67,204.523,419.56z M201.31,412.292
		c-1.988,1.374-4.072,2.592-6.211,3.729c-0.31-1.569-0.715-3.12-1.163-4.658c1.553-1.137,3.193-2.109,4.873-3.021
		C199.713,409.613,200.553,410.93,201.31,412.292z M197.598,406.726c-1.468,0.802-2.899,1.663-4.271,2.636
		c-0.34-1.023-0.711-2.036-1.109-3.04c0.121-0.022,0.244-0.069,0.369-0.151c0.965-0.634,1.963-1.229,2.917-1.875
		C196.232,405.08,196.936,405.886,197.598,406.726z M223.348,344.928c-3.662,5.014-6.937,10.311-10.349,15.491
		c-7.911,12.018-15.927,24.989-26.771,34.632c-1.422-2.081-2.971-4.074-4.646-5.951c13.586-18.354,28.019-36.056,42.146-53.99
		c0.199,0.205,0.426,0.398,0.684,0.576c1.414,0.975,2.852,1.916,4.301,2.841C226.543,340.235,224.901,342.801,223.348,344.928z
		 M302.235,345.401c1.998,3.076,3.567,6.346,4.808,9.768c-1.738,0.165-3.49,0.238-5.25,0.229c-1.022-4.298-3.389-8.004-5.831-11.673
		c-0.711-1.067-2.443-0.067-1.727,1.01c2.238,3.362,4.429,6.729,5.491,10.611c-2.332-0.094-4.67-0.302-7.001-0.628
		c-0.003-0.03,0.009-0.057,0.004-0.089c-0.729-4.735-2.24-9.171-4.103-13.571c-0.5-1.186-2.223-0.164-1.727,1.01
		c1.691,4.002,3.032,8.061,3.768,12.337c-1.763-0.291-3.519-0.631-5.259-1.014c-0.113-4.29-0.736-8.516-1.348-12.762
		c-0.184-1.271-2.11-0.729-1.93,0.531c0.564,3.916,1.106,7.813,1.245,11.764c-1.86-0.442-3.703-0.921-5.514-1.427
		c-0.358-3.666-0.362-7.345,0.197-11.003c0.192-1.261-1.734-1.803-1.93-0.531c-0.559,3.653-0.624,7.298-0.315,10.95
		c-0.895-0.261-1.78-0.523-2.656-0.791c-1.229-0.375-2.455-0.775-3.678-1.186c0.132-3.735,0.632-7.415,1.246-11.109
		c0.209-1.261-1.719-1.802-1.93-0.53c-0.605,3.646-1.114,7.28-1.289,10.964c-1.011-0.353-2.021-0.701-3.026-1.072
		c0.48-0.022,0.947-0.337,0.947-0.959c0.002-3.787,0.154-7.425,1.298-11.068c0.387-1.233-1.544-1.758-1.93-0.53
		c-1.193,3.809-1.365,7.634-1.368,11.6c0,0.29,0.109,0.505,0.267,0.664c-1.862-0.697-3.718-1.417-5.559-2.181
		c0.116-3.218,0.634-6.396,1.257-9.553c0.248-1.26-1.681-1.796-1.93-0.53c-0.604,3.061-1.111,6.15-1.287,9.269
		c-1.601-0.688-3.192-1.389-4.771-2.124c0.74-3.436,2.019-6.69,3.319-9.946c0.479-1.197-1.456-1.714-1.93-0.53
		c-1.257,3.144-2.48,6.294-3.231,9.601c-1.536-0.739-3.064-1.493-4.578-2.279c0.636-2.774,1.511-5.376,2.973-7.884
		c0.649-1.117-1.078-2.123-1.728-1.01c-1.471,2.525-2.398,5.151-3.069,7.938c-1.66-0.89-3.311-1.799-4.936-2.743
		c1.29-2.396,2.881-4.597,4.396-6.853c0.723-1.074-1.012-2.074-1.726-1.01c-1.515,2.254-3.106,4.454-4.396,6.848
		c-1.379-0.827-2.751-1.664-4.1-2.53c1.758-2.805,3.732-5.406,6.065-7.771c0.906-0.918-0.507-2.333-1.414-1.414
		c-2.426,2.459-4.49,5.175-6.322,8.089c-0.708-0.469-1.431-0.919-2.13-1.398c2.898-3.718,5.785-7.443,8.637-11.197
		c9.188-12.095,18.006-24.471,26.165-37.285c1.812-2.849,3.517-5.712,5.093-8.633c13.638,19.36,25.895,39.48,36.57,60.655
		c3.441,6.825,6.646,14.07,10.136,21.187c-2.011,0.604-4.059,1.031-6.132,1.32c-1.303-3.692-2.966-7.23-5.112-10.534
		C303.262,343.314,301.53,344.316,302.235,345.401z M310.632,362.84c2.82-0.426,5.59-1.075,8.27-2.021
		c3.318,6.167,7.021,12.068,11.438,17.355c-0.01,0.014-0.021,0.024-0.029,0.038c-1.361,1.899-2.742,3.796-4.119,5.701
		C320.542,377.228,315.339,370.219,310.632,362.84z M315.886,421.15c1.255,0.359,2.494,0.762,3.738,1.152
		c-0.131,1.365-0.229,2.736-0.282,4.111c-1.239-0.059-2.476-0.174-3.708-0.351C315.583,424.463,315.669,422.824,315.886,421.15z
		 M315.775,428.096c1.168,0.151,2.339,0.249,3.513,0.309c-0.02,1.758,0.017,3.518,0.118,5.276h-2.48
		C316.347,431.871,315.975,430.007,315.775,428.096z M317.647,435.68h1.912c0.134,1.604,0.298,3.21,0.524,4.804
		C319.119,438.924,318.309,437.321,317.647,435.68z M319.851,420.28c-1.213-0.385-2.427-0.771-3.65-1.114
		c0.259-1.347,0.62-2.721,1.062-4.117c1.072,0.467,2.142,0.933,3.179,1.466C320.209,417.762,320.011,419.018,319.851,420.28z
		 M320.853,414.483c-0.969-0.469-1.959-0.891-2.949-1.321c0.722-1.978,1.567-3.91,2.51-5.805c0.672,0.425,1.378,0.788,2.1,1.127
		C321.857,410.452,321.3,412.453,320.853,414.483z M323.183,406.629c-0.644-0.31-1.265-0.651-1.854-1.047
		c0.814-1.526,1.699-3.025,2.614-4.51c0.42,0.279,0.839,0.56,1.259,0.839C324.458,403.455,323.78,405.027,323.183,406.629z
		 M325.005,399.379c1.087-1.688,2.229-3.346,3.388-4.99c0.271,0.218,0.541,0.438,0.811,0.66c-1.136,1.641-2.169,3.329-3.093,5.067
		C325.742,399.87,325.374,399.625,325.005,399.379z M328.089,419.415c8.052,0.19,16.052,0.99,23.949,2.5
		c-8.236,2.441-16.443,4.98-24.729,7.247C327.32,425.882,327.562,422.617,328.089,419.415z M327.341,431.227
		c8.412-2.289,16.74-4.865,25.098-7.346c0.03,0.54,0.091,1.081,0.168,1.622c-8.658,3.122-16.837,8.326-24.741,12.602
		C327.584,435.817,327.404,433.521,327.341,431.227z M328.148,440.176c0.069-0.021,0.139-0.024,0.211-0.062
		c7.877-4.225,16.016-9.461,24.636-12.619c0.282,1.137,0.668,2.256,1.14,3.342c-8.643,4.008-17.017,8.587-25.264,13.359
		C328.597,442.861,328.351,441.522,328.148,440.176z M330.218,448.212c-0.189-0.431-0.431-0.764-0.689-1.054
		c-0.075-0.303-0.132-0.611-0.203-0.915c8.382-4.866,16.893-9.56,25.688-13.636c0.182,0.329,0.375,0.649,0.573,0.97
		c-8.323,5.485-16.009,11.889-23.224,18.776C331.583,451.034,330.859,449.66,330.218,448.212z M333.455,454.08
		c7.227-6.923,14.916-13.355,23.266-18.854c0.666,0.879,1.404,1.7,2.201,2.458c-7.721,6.536-14.67,14.028-20.848,22.022
		C336.377,458.004,334.825,456.135,333.455,454.08z M339.52,461.082c6.169-8.02,13.159-15.572,20.926-22.1
		c0.225,0.173,0.465,0.324,0.697,0.485c-6.32,7.928-11.511,16.716-15.757,25.919C343.299,464.131,341.327,462.71,339.52,461.082z
		 M347.102,466.381c4.214-9.186,9.418-17.989,15.742-25.859c0.967,0.521,1.99,0.943,3.058,1.272
		c-1.666,9.74-4.542,19.226-7.348,28.697C354.468,469.637,350.62,468.262,347.102,466.381z M361.317,470.992
		c-0.266-0.039-0.523-0.089-0.785-0.132c2.793-9.445,5.608-18.89,7.289-28.588c0.802,0.145,1.63,0.219,2.475,0.24
		c0.642,7.053,1.945,14.001,2.374,21.089c0.16,2.637,0.405,5.27,0.668,7.897c0.003,0.032,0.004,0.073,0.007,0.107
		C369.215,471.778,365.131,471.555,361.317,470.992z M375.2,471.499c-0.014-0.759-0.007-1.472-0.048-1.903
		c-0.241-2.532-0.443-5.071-0.573-7.612c-0.334-6.558-1.604-13-2.257-19.534c0.441-0.041,0.887-0.093,1.339-0.171
		c1.454-0.25,2.785-0.713,4.013-1.316c0.892,5.069,1.59,10.181,2.528,15.235c0.762,4.104,1.373,9.87,3.563,14.069
		C380.954,470.882,378.077,471.297,375.2,471.499z M385.759,469.782c-2.521-4.296-3.057-11.028-3.854-15.335
		c-0.896-4.828-1.553-9.708-2.403-14.548c0.309-0.212,0.604-0.438,0.895-0.673c1.518,5.1,3.01,10.204,4.711,15.248
		c1.399,4.152,2.916,9.999,6.023,13.578C389.391,468.729,387.595,469.305,385.759,469.782z M393.09,467.231
		c-3.511-3.556-4.964-10.048-6.462-14.491c-1.677-4.972-3.118-10.016-4.609-15.044c0.764-0.828,1.431-1.742,2.009-2.713
		c2.332,5.446,4.524,10.955,6.957,16.358c1.84,4.088,3.822,9.537,7.015,13.248C396.448,465.586,394.806,466.465,393.09,467.231z
		 M399.602,463.469c-3.702-4.034-5.921-10.935-7.919-15.436c-2.257-5.082-4.302-10.255-6.503-15.36
		c0.004-0.007,0.006-0.014,0.008-0.021c3.905,4.238,7.356,8.961,10.896,13.44c2.86,3.619,5.95,8.388,9.783,11.546
		C404.008,459.816,401.921,461.78,399.602,463.469z M407.111,456.088c-4.095-3.317-7.401-8.611-10.415-12.426
		c-3.486-4.412-6.897-9.045-10.79-13.164c0.054-0.199,0.09-0.402,0.137-0.604c8.324,6.351,16.407,13.841,25.816,18.399
		C410.533,451.074,408.954,453.696,407.111,456.088z M412.671,446.492c-9.584-4.611-17.759-12.369-26.242-18.789
		c0.006-0.043,0.015-0.084,0.02-0.127c9.497,4.648,18.064,10.979,27.384,15.964C413.476,444.54,413.085,445.523,412.671,446.492z
		 M414.472,441.616c-7.504-4.037-14.543-8.894-21.967-13.06c7.915,1.731,16.021,2.516,23.867,4.586
		C415.958,436.027,415.328,438.869,414.472,441.616z M416.625,431.145c-7.121-1.852-14.448-2.667-21.65-4.11
		c7.361-0.273,14.731-0.458,21.986-1.735C416.95,427.252,416.833,429.205,416.625,431.145z"/>
</g>
<g>
</g>
<g>
</g>
<g>
</g>
<g>
</g>
<g>
</g>
<g>
</g>
<g>
</g>
<g>
</g>
<g>
</g>
<g>
</g>
<g>
</g>
<g>
</g>
<g>
</g>
<g>
</g>
<g>
</g>
</svg>
