<?xml version="1.0" encoding="iso-8859-1"?>
<!-- Generator: Adobe Illustrator 16.0.0, SVG Export Plug-In . SVG Version: 6.00 Build 0)  -->
<!DOCTYPE svg PUBLIC "-//W3C//DTD SVG 1.1//EN" "http://www.w3.org/Graphics/SVG/1.1/DTD/svg11.dtd">
<svg version="1.1" id="Capa_1" xmlns="http://www.w3.org/2000/svg" xmlns:xlink="http://www.w3.org/1999/xlink" x="0px" y="0px"
	 width="438.729px" height="438.729px" viewBox="0 0 438.729 438.729" style="enable-background:new 0 0 438.729 438.729;"
	 xml:space="preserve">
<g>
	<g>
		<path fill="#98f698" d="M340.18,245.5c-0.368-15.539-0.484-31.083-1.392-46.604c-0.805-13.774-2.378-27.537-5.325-41.026
			c-2.087-9.556-5.041-20.998-13.502-26.953c-5.706-4.017-12.58-1.279-17.21,2.884c-2.284,2.054-4.209,4.525-5.862,7.22
			c-1.123-10.426-2.552-20.819-4.334-31.157c-3.96-22.941-9.634-45.127-19.791-66.14c-7.61-15.743-18.56-33.231-35.101-40.729
			c-18.996-8.611-36.352,2.738-49.255,16.384c-12.908,13.65-21.356,31.558-27.575,49.542c-1.205,1.102-1.904,2.774-1.486,4.417
			c-1.068,3.271-2.076,6.533-3.021,9.761c-6.604,22.552-9.756,46.224-11.521,69.688c-3.854-6.702-8.863-12.707-16.146-15.78
			c-6.916-2.918-14.425,0.472-19.156,5.64C99.32,153.768,98.499,166.49,98.249,183.24c0.125,3,0.123,3.538,0.125,4.625
			c0.057,32.878,2.817,65.673,3.141,98.544c0.166,16.854-1.016,33.675-0.933,50.529c0.087,17.662,1.093,35.596,5.085,52.85
			c2.98,12.884,8.683,28.666,21.735,34.452c13,5.763,23.403,0.396,32.199-8.287c6.141-5.527,11.106-12.342,15.614-19.305
			c2.016-2.741,3.955-5.336,5.84-7.603c0.003-0.004-0.015-0.004-0.041-0.002c1.175-0.171,2.745-0.646,3.856-1.329
			c-1.92,14.188-4.688,28.238-7.495,42.274c-0.456,2.283,0.621,5.007,3.144,5.535c26.145,5.479,54.618,3.58,80.393-3
			c3.082-0.786,3.796-4.028,2.689-6.61c-5.312-12.389-10.699-24.846-14.12-37.899c3.854,1.757,7.603,3.919,11.227,6.488
			c0.113,0.037,0.227,0.062,0.341,0.113c0.338,0.15,0.661,0.265,0.979,0.359c8.242,14.467,22.833,35.853,41.188,23.732
			c14.704-9.709,19.402-31.724,23.197-47.656c6.197-26.021,11.5-51.784,13.293-78.55C340.755,276.833,340.552,261.188,340.18,245.5z
			 M271.438,63.312c-3.811,3.788-9.392,6.61-13.576,9.598c-5.373,3.836-10.757,7.613-15.666,12.029
			c-2.769,0.738-5.588,1.312-8.418,1.737c7.723-5.947,15.647-11.617,23.682-17.14c4.285-2.945,7.875-7.574,12.438-10.208
			C270.429,60.65,270.939,61.979,271.438,63.312z M269.189,67.492c-5.403,7.803-13.352,12.861-22.193,15.965
			c5.168-4.208,10.717-7.928,16.097-11.873C265.04,70.156,267.166,68.884,269.189,67.492z M269.137,57.508
			c-4.654,2.66-8.499,7.128-12.688,10.302c-8.733,6.619-17.934,12.59-26.574,19.359c0,0.001-0.001,0.001-0.002,0.002
			c-1.976,0.207-3.945,0.352-5.895,0.434c8.44-5.374,16.416-11.426,24.52-17.3c6.713-4.865,14.147-8.829,19.705-15.033
			C268.524,56.013,268.826,56.762,269.137,57.508z M267.324,53.278c-5.756,6.903-14.107,11.147-21.291,16.354
			c-8.548,6.196-16.959,12.559-25.982,18.054c-1.559,0.003-3.131-0.026-4.717-0.103c17.281-11.749,34.019-24.271,51.061-36.362
			C266.712,51.905,267.017,52.592,267.324,53.278z M265.527,49.395c-17.827,12.645-35.316,25.769-53.443,37.985
			c-1.012-0.082-2.027-0.18-3.043-0.294c9.658-7.01,19.643-13.555,29.472-20.324c5.818-4.01,11.731-7.864,17.411-12.076
			c2.973-2.204,6.281-3.965,9.117-6.319C265.208,48.707,265.363,49.052,265.527,49.395z M264.116,46.526
			c-3.258,2.892-7.271,5.001-10.746,7.577c-5.66,4.198-11.606,7.996-17.409,11.992c-9.944,6.85-20.042,13.468-29.772,20.621
			c-1.401-0.2-2.803-0.427-4.2-0.691c11.167-7.882,22.437-15.613,34.069-22.797c5.902-3.646,11.832-7.216,17.643-11.012
			c3.134-2.047,6.334-5.062,9.668-7.178C263.625,45.543,263.865,46.028,264.116,46.526z M262.447,43.278
			c-2.832,1.848-5.467,4.38-8.172,6.17c-6.316,4.178-12.769,8.106-19.229,12.053c-12.244,7.48-24.032,15.688-35.74,23.978
			c-0.65-0.145-1.303-0.284-1.951-0.442c19.812-16.753,43.488-28.139,63.74-44.308C261.563,41.588,262.002,42.431,262.447,43.278z
			 M260.123,38.953c-20.668,16.615-44.971,28.15-65.119,45.474c-0.851-0.233-1.702-0.466-2.543-0.727
			c11.126-8.849,22.724-17.067,34.387-25.192c10.541-7.344,21.763-14.126,31.646-22.397
			C259.052,37.058,259.593,38.007,260.123,38.953z M257.438,34.387c-10.295,8.689-22.107,15.78-33.125,23.456
			c-11.59,8.074-23.083,16.289-34.111,25.117c-1.129-0.388-2.248-0.795-3.353-1.234c4.414-3.818,9.503-6.751,14.329-10.035
			c6.668-4.539,13.125-9.444,19.668-14.164c11.709-8.448,23.154-17.413,35.35-25.165C256.625,33.033,257.023,33.712,257.438,34.387z
			 M254.314,29.524c0.267,0.386,0.521,0.778,0.781,1.168c-12.16,7.736-23.597,16.662-35.26,25.107
			c-6.543,4.737-13.08,9.491-19.668,14.164c-5.154,3.655-10.662,6.697-15.364,10.915c-0.685-0.298-1.364-0.603-2.036-0.922
			c5.502-3.835,10.684-8.091,15.965-12.231c7.822-6.132,16.398-11.305,24.651-16.827c7.153-4.786,14.107-9.869,21.273-14.647
			C247.521,34.342,251.887,32.349,254.314,29.524z M253.121,27.823c-2.578,3.575-9.076,6.435-12.545,8.751
			c-7.182,4.796-14.14,9.907-21.332,14.685c-6.809,4.521-13.781,8.853-20.299,13.795c-6.095,4.623-11.916,9.569-18.229,13.89
			c-0.647-0.336-1.294-0.675-1.928-1.032c5.891-4.069,11.098-9.021,16.581-13.633c8.356-7.029,17.521-13.043,26.567-19.12
			c7.016-4.711,14.246-9.034,21.078-14.018c2.37-1.73,5.911-3.53,8.288-5.739C251.927,26.193,252.528,27.005,253.121,27.823z
			 M249.996,23.784c-0.942,0.723-2.181,1.384-2.953,1.951c-2.166,1.59-4.34,3.169-6.51,4.753
			c-6.852,5.002-14.171,9.294-21.209,14.021c-7.752,5.206-15.442,10.462-22.771,16.262c-6.639,5.255-12.642,11.317-19.687,16.024
			c-0.836-0.513-1.658-1.044-2.463-1.598c16.025-11.11,30.073-24.813,46.257-35.723c7.257-4.892,14.671-9.507,21.836-14.547
			c0.934-0.656,3.521-2.045,5.34-3.616C248.576,22.111,249.293,22.94,249.996,23.784z M246.456,19.875
			c-3.27,2.354-11.02,7.567-11.724,8.051c-7.392,5.086-15.117,9.632-22.351,14.949c-13.557,9.966-25.825,21.553-39.703,31.087
			c-0.605-0.452-1.214-0.899-1.799-1.377c17.284-13.017,33.174-28,51.141-40.064c5.16-3.465,10.402-6.8,15.503-10.356
			c1.1-0.767,4.59-2.672,6.447-4.648C244.823,18.264,245.646,19.059,246.456,19.875z M219.613,9.262
			c-10.431,6.47-20.199,14.111-29.629,22.085C197.517,21.17,207.818,11.203,219.613,9.262z M183.46,41.229
			c0.669-1.138,1.392-2.313,2.151-3.508c12.11-10.503,24.666-20.722,38.446-28.805c0.953,0.014,1.916,0.082,2.886,0.208
			c-2.241,1.177-4.617,2.218-6.338,3.385c-4.722,3.204-9.203,6.744-13.699,10.253c-8.339,6.509-16.301,13.485-24.451,20.227
			C182.79,42.402,183.117,41.812,183.46,41.229z M179.875,47.67c10.051-8.113,19.723-16.685,29.906-24.634
			c4.99-3.895,10.104-8.257,15.694-11.28c1.302-0.704,2.755-1.366,4.146-2.124c0.071,0.018,0.145,0.029,0.216,0.048
			c1.007,0.255,1.989,0.567,2.953,0.925c-3.009,2.807-7.383,5.017-10.395,7.279c-5.721,4.297-11.348,8.713-17.002,13.095
			c-9.818,7.607-19.475,15.414-28.91,23.487C177.572,52.176,178.692,49.904,179.875,47.67z M174.474,58.821
			c11.405-9.904,23.162-19.381,35.135-28.587c5.885-4.524,11.649-9.229,17.707-13.525c2.367-1.679,5.229-3.227,7.417-5.306
			c1.433,0.646,2.813,1.405,4.152,2.253c-1.485,1.767-4.856,3.152-6.556,4.098c-3.65,2.033-7.085,4.488-10.644,6.68
			c-6.205,3.82-12.03,7.937-17.661,12.559c-10.604,8.705-20.43,18.308-31.494,26.421C173.168,61.877,173.802,60.339,174.474,58.821z
			 M171.162,66.821c12.184-8.525,22.869-18.911,34.279-28.415c6.932-5.774,14.414-10.41,22.018-15.212
			c3.32-2.096,6.707-4.06,10.029-6.146c0.976-0.612,2.223-1.343,3.043-2.282c0.688,0.489,1.363,1.004,2.025,1.539
			c-2.274,2.112-9.959,6.822-11.127,7.606c-3.949,2.653-8.024,5.141-11.9,7.899c-17.283,12.3-33.03,26.585-50.006,39.288
			C170.049,69.664,170.605,68.243,171.162,66.821z M159.307,109.745c1.71-9.795,4.041-19.613,7.037-29.233
			c15.445,11.967,36.64,16.379,55.709,16.164c19.452-0.219,40.944-6.38,53.166-22.186c4.14,13.555,6.941,27.527,9.303,41.56
			c1.213,7.21,2.218,14.451,3.062,21.712c-0.059,0.793,0.066,1.595,0.369,2.319c0.164,1.657,0.312,3.314,0.491,4.969
			c0.052,0.81,0.103,1.62,0.167,2.428c0.008,0.037,0.016,0.074,0.021,0.111c0.349,3.677,0.649,7.357,0.912,11.042l-0.012,0.037
			c-0.013,0.043-0.015,0.082-0.026,0.125c0.047,0.896,0.077,1.79,0.095,2.687c0.052,0.129,0.094,0.264,0.157,0.385
			c0.697,10.78,1.048,21.584,1.07,32.386c-0.028,0.197-0.07,0.396-0.098,0.594c-0.085,0.644-0.043,1.21,0.092,1.707
			c-0.006,3.013-0.029,6.025-0.082,9.037c-0.427,0.145-0.862,0.377-1.299,0.713c-7.896,6.076-17.465,10.049-26.712,13.55
			c-13.333,5.048-27.186,8.8-41.19,11.427c-13.416,2.516-27.236,3.771-40.861,2.51c-9.823-0.91-20.211-3.757-27.185-11
			c-0.481-6.895-0.852-13.797-1.122-20.705c-0.022-1.208-0.049-2.416-0.064-3.624C151.932,168.729,154.195,139.034,159.307,109.745z
			 M286.309,237.435c-0.959,0.971-1.96,1.896-3.004,2.774c1.557-7.676,3.81-15.179,5.786-22.755
			c0.443-0.277,0.888-0.556,1.322-0.844c-0.085,2.285-0.201,4.568-0.318,6.852C288.418,228.031,286.639,232.613,286.309,237.435z
			 M289.677,230.661c-0.075,1.163-0.139,2.327-0.219,3.49c-0.281,0.195-0.555,0.443-0.817,0.738
			C288.894,233.465,289.252,232.056,289.677,230.661z M159.4,238c0.664,0.31,1.34,0.6,2.022,0.879
			c-2.065,2.473-4.006,5.043-5.872,7.668c-0.104-1.02-0.199-2.04-0.3-3.061C156.51,241.559,157.894,239.729,159.4,238z
			 M154.951,240.428c-0.161-1.708-0.312-3.416-0.461-5.124c0.994,0.634,2.011,1.231,3.059,1.78
			C156.633,238.16,155.774,239.28,154.951,240.428z M163.394,239.635c0.473,0.171,0.962,0.311,1.441,0.468
			c-3.28,3.47-6.105,7.33-8.763,11.312c-0.067-0.617-0.136-1.234-0.201-1.852C158.234,246.144,160.703,242.806,163.394,239.635z
			 M166.97,240.782c0.877,0.251,1.77,0.469,2.664,0.682c-4.276,4.479-8.28,9.186-11.539,14.487c-0.118,0.19-0.144,0.374-0.135,0.549
			c-0.481-0.267-0.951-0.555-1.424-0.837c-0.044-0.383-0.083-0.766-0.127-1.148C159.569,249.647,162.923,244.918,166.97,240.782z
			 M159.822,256.961c3.395-5.522,7.615-10.372,12.104-15.004c0.677,0.136,1.362,0.247,2.047,0.363
			c-4.161,5.21-8.794,10.024-12.26,15.76c-0.048,0.079-0.058,0.154-0.083,0.23c-0.727-0.325-1.453-0.649-2.162-1.011
			C159.599,257.224,159.723,257.12,159.822,256.961z M176.056,242.901c0.06-0.077,0.104-0.157,0.139-0.237
			c1.01,0.142,2.027,0.26,3.049,0.365c-3.904,5.672-7.789,11.355-11.783,16.966c-0.111,0.157-0.162,0.312-0.176,0.46
			c-1.295-0.42-2.58-0.867-3.838-1.375C167.008,253.19,171.84,248.301,176.056,242.901z M169.188,261.005
			c4.184-5.875,8.248-11.834,12.339-17.772c1.405,0.107,2.817,0.179,4.233,0.228c-4.717,5.918-8.845,12.268-13.205,18.455
			c-1.137-0.27-2.27-0.556-3.392-0.881C169.171,261.023,169.179,261.015,169.188,261.005z M188.285,243.517
			c1.242,0.016,2.486,0.003,3.729-0.021c-2.017,2.948-4.12,5.836-6.116,8.8c-2.366,3.513-4.144,7.348-6.366,10.929
			c-1.621-0.24-3.243-0.525-4.857-0.857C179.125,256.015,183.356,249.51,188.285,243.517z M186.642,254.832
			c2.314-3.979,5.178-7.618,7.801-11.411c1.531-0.056,3.053-0.145,4.567-0.246c-4.712,6.598-8.674,13.662-12.553,20.793
			c-0.774-0.062-1.55-0.106-2.323-0.181c-0.813-0.077-1.629-0.168-2.445-0.27C183.426,260.681,184.96,257.725,186.642,254.832z
			 M201.578,242.988c1.014-0.084,2.019-0.179,3.019-0.277c-3.944,7.091-8.009,14.107-11.038,21.653
			c-1.643-0.051-3.282-0.122-4.92-0.228C192.597,256.862,196.648,249.646,201.578,242.988z M207.023,242.456
			c1.49-0.166,2.949-0.351,4.394-0.54c-3.631,7.581-9.091,14.249-11.292,22.494c-1.479,0.017-2.959,0.021-4.439-0.005
			C198.816,256.765,203.028,249.67,207.023,242.456z M213.747,241.6c1.839-0.261,3.614-0.534,5.344-0.812
			c-4.242,7.647-8.107,15.493-11.895,23.382c-1.661,0.092-3.323,0.166-4.986,0.206C204.588,256.107,210.211,249.364,213.747,241.6z
			 M221.619,240.36c1.388-0.237,2.771-0.499,4.151-0.764c-3.879,7.96-7.997,15.804-11.37,23.998
			c-1.636,0.159-3.274,0.306-4.916,0.418C213.33,256.023,217.271,248.085,221.619,240.36z M228.22,239.117
			c1.688-0.341,3.37-0.705,5.052-1.084c-3.929,8.079-7.472,16.33-10.989,24.597c-1.874,0.276-3.752,0.528-5.638,0.738
			C220.108,255.101,224.327,247.188,228.22,239.117z M235.787,237.445c1.338-0.316,2.666-0.672,3.998-1.013
			c-3.632,8.361-7.698,16.533-10.858,25.094c-1.443,0.263-2.891,0.517-4.336,0.751C228.15,253.921,231.763,245.59,235.787,237.445z
			 M242.211,235.819c1.922-0.512,3.836-1.047,5.744-1.604c-3.615,8.396-7.324,16.744-10.106,25.469
			c-2.203,0.503-4.412,0.977-6.628,1.403C234.473,252.492,238.596,244.265,242.211,235.819z M250.437,233.465
			c1.128-0.342,2.245-0.713,3.368-1.068c-3.918,8.231-7.376,16.685-9.236,25.62c-1.479,0.396-2.959,0.78-4.447,1.141
			C243.008,250.375,246.798,241.954,250.437,233.465z M256.416,231.566c1.623-0.533,3.24-1.086,4.854-1.65
			c-3.331,8.419-6.264,16.961-8.63,25.698c-1.956,0.636-3.923,1.247-5.902,1.807C248.758,248.402,252.386,239.885,256.416,231.566z
			 M263.765,229.028c0.122-0.044,0.244-0.085,0.365-0.13c1.106-0.406,2.22-0.819,3.336-1.241
			c-3.063,8.432-6.454,16.743-8.118,25.605c-1.467,0.559-2.94,1.094-4.426,1.603C257.361,246.083,260.365,237.495,263.765,229.028z
			 M269.927,226.708c1.572-0.612,3.146-1.249,4.713-1.909c-1.055,2.803-2.276,5.546-3.376,8.345
			c-2.104,5.357-3.479,11.286-4.38,16.986c-1.189,0.54-2.385,1.06-3.574,1.558c-0.579,0.241-1.167,0.463-1.749,0.695
			C263.412,243.531,266.895,235.199,269.927,226.708z M272.609,235.301c1.244-3.979,3.09-7.68,4.492-11.565
			c1.16-0.516,2.313-1.046,3.457-1.597c-2.4,7.98-4.521,16.022-6.159,24.191c-1.741,0.988-3.521,1.909-5.318,2.771
			C269.932,244.432,271.193,239.826,272.609,235.301z M283.031,220.892c1.216-0.627,2.418-1.278,3.6-1.958
			c-2.055,7.69-4.306,15.325-5.726,23.167c-1.348,1.001-2.741,1.949-4.175,2.839C278.437,236.825,280.601,228.83,283.031,220.892z
			 M164.357,397.151c-1.699,2.396-3.481,4.794-5.353,7.064c-1.193,1.302-12.479,15.815-26.836,12.295
			c-12.955-3.179-16.674-22.937-18.891-34.078c-7.154-35.966-2.064-73.34-3.016-109.686c-0.728-27.806-2.757-55.564-2.874-83.388
			c-0.016-1.997,0.273-15.18,1.395-22.571c1.152-7.593,4.009-17.269,11.297-21.156c9.685-5.166,18.244,13.628,20.907,19.502
			c0.15,0.332,0.328,0.61,0.517,0.866c0.465,0.943,0.945,1.874,1.469,2.78c-0.028,1.912-0.032,3.823-0.042,5.733
			c-1.42-1.744-2.79-3.532-4.363-5.143c-0.902-0.924-2.315,0.491-1.414,1.414c2.075,2.125,3.8,4.551,5.755,6.778
			c0,1.304,0.019,2.607,0.027,3.912c-1.974-1.92-3.887-3.905-6.021-5.652c-0.989-0.81-2.413,0.597-1.414,1.414
			c2.644,2.165,4.949,4.691,7.455,7.003c0.014,1.168,0.042,2.335,0.062,3.502c-2.265-1.667-4.562-3.281-6.972-4.743
			c-1.105-0.671-2.11,1.059-1.01,1.727c2.784,1.689,5.419,3.581,8.025,5.524c0.027,1.306,0.07,2.611,0.105,3.916
			c-1.957-1.76-4.11-3.296-6.454-4.5c-1.146-0.588-2.157,1.137-1.01,1.727c2.637,1.354,5.017,3.102,7.131,5.177
			c0.128,0.125,0.265,0.198,0.404,0.242c0.022,0.703,0.054,1.404,0.078,2.107c-1.809-1-3.548-2.104-5.271-3.252
			c-1.077-0.718-2.077,1.015-1.01,1.727c2.068,1.378,4.158,2.696,6.365,3.838c0.041,1.057,0.092,2.113,0.138,3.169
			c-1.647-0.843-3.276-1.721-4.826-2.734c-1.083-0.708-2.085,1.024-1.01,1.727c1.897,1.24,3.911,2.283,5.936,3.3
			c0.039,0.842,0.087,1.683,0.13,2.525c-1.928-0.921-3.889-1.765-5.962-2.319c-1.247-0.333-1.776,1.596-0.531,1.929
			c2.313,0.619,4.473,1.611,6.609,2.664c0.072,1.35,0.173,2.699,0.253,4.048c-1.732-0.364-3.478-0.644-5.263-0.677
			c-1.29-0.024-1.288,1.976,0,2c1.835,0.034,3.618,0.346,5.392,0.743c0.104,1.657,0.235,3.313,0.351,4.97
			c-1.883-0.3-3.797-0.378-5.742-0.379c-1.29-0.001-1.29,1.999,0,2c2.006,0.001,3.962,0.085,5.888,0.436
			c0.054,0.74,0.12,1.479,0.176,2.219c-1.453-0.527-2.966-0.908-4.465-1.283c-1.251-0.313-1.782,1.614-0.531,1.928
			c1.749,0.438,3.518,0.868,5.173,1.573c0.036,0.456,0.079,0.91,0.116,1.365c-1.761-0.098-3.517,0.058-5.289,0.467
			c-1.257,0.29-0.724,2.218,0.531,1.928c1.66-0.383,3.29-0.488,4.93-0.365c0.066,0.801,0.142,1.604,0.214,2.403
			c-2.132,0.007-4.292,0.071-6.342,0.701c-1.229,0.377-0.705,2.308,0.531,1.928c1.941-0.595,3.973-0.628,5.988-0.63
			c0.023,0.261,0.046,0.521,0.069,0.782c-1.792,0.205-3.516,0.674-5.255,1.253c-1.218,0.404-0.696,2.337,0.531,1.928
			c1.628-0.542,3.227-0.992,4.9-1.188c0.087,0.946,0.186,1.893,0.276,2.838c-1.673,0.399-3.393,0.577-5.042,1.091
			c-1.228,0.381-0.704,2.312,0.531,1.928c1.538-0.479,3.14-0.658,4.706-1.004c0.137,1.397,0.287,2.797,0.432,4.195
			c-1.715,0.793-3.486,1.442-5.403,1.511c-1.286,0.045-1.29,2.045,0,2c1.989-0.069,3.831-0.66,5.616-1.433
			c0.134,1.268,0.283,2.531,0.426,3.796c-1.865,0.608-3.737,1.189-5.641,1.673c-1.25,0.315-0.72,2.244,0.531,1.928
			c1.801-0.457,3.572-1.002,5.337-1.574c0.042,0.355,0.078,0.712,0.12,1.067c-1.754,0.691-3.489,1.427-5.321,1.913
			c-1.246,0.33-0.717,2.259,0.531,1.928c1.732-0.459,3.378-1.14,5.034-1.798c0.121,1.015,0.24,2.028,0.364,3.044
			c-2.336,0.58-4.647,1.215-6.836,2.26c-1.163,0.556-0.148,2.279,1.01,1.727c1.935-0.923,3.997-1.485,6.072-1.994
			c0.148,1.19,0.29,2.384,0.441,3.574c-2.238,0.21-4.429,0.714-6.617,1.261c-1.251,0.312-0.72,2.239,0.531,1.928
			c2.099-0.523,4.191-1.011,6.337-1.202c0.123,0.948,0.234,1.897,0.36,2.845c-1.914,0.738-3.896,1.263-5.896,1.764
			c-1.251,0.312-0.72,2.24,0.531,1.928c1.916-0.479,3.799-1.007,5.636-1.685c0.199,1.479,0.396,2.957,0.602,4.435
			c-2.083,1.194-4.317,2.119-6.341,3.423c-1.08,0.696-0.078,2.428,1.01,1.728c1.793-1.155,3.757-2.002,5.632-3.012
			c0.173,1.22,0.338,2.438,0.515,3.655c-2.306,0.666-4.492,1.524-6.49,2.962c-1.036,0.745-0.04,2.481,1.01,1.728
			c1.793-1.289,3.725-2.078,5.771-2.69c0.149,1.011,0.288,2.022,0.44,3.032c-1.614,1.272-3.506,2.044-5.647,2.498
			c-1.262,0.267-0.727,2.193,0.531,1.928c1.989-0.421,3.835-1.123,5.458-2.19c0.335,2.194,0.658,4.391,1.008,6.582
			c-1.589,0.937-3.257,1.745-4.997,2.349c-1.211,0.419-0.69,2.352,0.531,1.928c1.663-0.575,3.267-1.32,4.806-2.178
			c0.287,1.775,0.574,3.552,0.871,5.326c-1.572,0.658-3.177,1.225-4.875,1.59c-1.261,0.271-0.727,2.197,0.531,1.928
			c1.622-0.349,3.169-0.868,4.681-1.484c0.011,0.062,0.021,0.122,0.03,0.184c0.164,0.972,0.344,1.938,0.514,2.909
			c0.066,0.475,0.129,0.949,0.195,1.426c0.03,0.04,0.051,0.093,0.08,0.135c0.043,0.241,0.091,0.48,0.135,0.721
			c-2,0.877-4.051,1.632-6.166,2.185c-1.247,0.325-0.718,2.254,0.531,1.928c2.056-0.536,4.055-1.271,6.008-2.108
			c0.262,1.41,0.518,2.821,0.789,4.228c-1.883,0.942-3.952,1.442-5.995,1.954c-1.251,0.312-0.72,2.241,0.531,1.928
			c1.987-0.497,4.001-0.998,5.864-1.85c0.355,1.81,0.712,3.618,1.078,5.424c-2.03,0.669-4.066,1.305-6.14,1.832
			c-1.249,0.317-0.72,2.246,0.531,1.928c2.028-0.516,4.022-1.136,6.009-1.79c0.215,1.042,0.418,2.089,0.636,3.129
			c-1.866,1.671-4.082,2.76-6.51,3.399c-1.246,0.328-0.717,2.258,0.531,1.928c2.352-0.618,4.536-1.646,6.44-3.115
			c0.455,2.153,0.916,4.307,1.385,6.458c-0.187-0.02-0.39,0.026-0.596,0.165c-1.91,1.271-3.799,2.46-6.161,2.528
			c-1.287,0.038-1.29,2.038,0,2c2.736-0.08,4.945-1.32,7.171-2.803l0.001-0.001c0.345,1.575,0.687,3.151,1.036,4.726
			c-1.998,1.441-3.842,3.069-6.047,4.215c-1.145,0.596-0.133,2.32,1.01,1.728c2.009-1.043,3.713-2.484,5.509-3.823
			c0.353,1.576,0.699,3.152,1.054,4.729c-0.221,0.052-0.432,0.173-0.597,0.394c-1.705,2.281-3.36,4.56-5.642,6.31
			c-1.008,0.772-0.014,2.512,1.01,1.727c2.295-1.761,4.02-3.916,5.731-6.189c0.431,1.912,0.863,3.824,1.296,5.738
			c-2.364,2.458-4.506,5.12-6.906,7.547c-0.907,0.917,0.506,2.332,1.414,1.414c2.098-2.121,4.001-4.42,6.023-6.607
			c0.033,0.145,0.066,0.289,0.099,0.434c0.291,1.291,0.727,3.15,1.315,5.263c-0.131,0.082-0.251,0.192-0.341,0.367
			c-1.355,2.637-3.103,5.018-5.178,7.131c-0.904,0.921,0.51,2.336,1.414,1.414c1.884-1.918,3.517-4.071,4.851-6.404
			c0.426,1.358,0.902,2.76,1.447,4.146c-0.271,0.089-0.515,0.279-0.635,0.619c-0.738,2.086-2.015,3.932-3.233,5.761
			c-0.718,1.077,1.016,2.077,1.727,1.01c1.13-1.695,2.231-3.406,3.033-5.275c0.647,1.437,1.361,2.814,2.153,4.044
			C170.064,387.817,167.349,392.609,164.357,397.151z M180.346,389.114c0.078-0.003,0.169-0.014,0.255-0.021
			C180.459,389.11,180.339,389.124,180.346,389.114z M203.858,382.822c2.107-0.337,4.219-0.604,6.33-0.804
			c-6.348,4.102-11.966,9.226-17.578,14.302c0.222-1.431,0.456-2.858,0.663-4.291C196.72,388.886,200.013,385.415,203.858,382.822z
			 M193.715,388.904c0.17-1.239,0.342-2.478,0.5-3.719c0.017-0.13,0.023-0.254,0.029-0.378c1.758-0.447,3.522-0.848,5.291-1.206
			C197.529,385.277,195.624,387.104,193.715,388.904z M214.552,381.717c0.004-0.002,0.006-0.006,0.01-0.008
			c1.629-0.077,3.256-0.095,4.879-0.082c-9.349,7.239-18.398,14.871-27.979,21.802c0.224-1.329,0.452-2.656,0.666-3.986
			C199.222,393.06,206.193,386.409,214.552,381.717z M222.589,381.713c1.397,0.064,2.791,0.164,4.182,0.3
			c-0.396,0.291-0.782,0.579-1.141,0.877c-3.961,3.278-8.132,6.293-12.198,9.438c-7.98,6.176-15.63,12.81-23.404,19.255
			c0.324-1.798,0.662-3.593,0.973-5.393C201.859,398.466,211.996,389.794,222.589,381.713z M213.36,394.893
			c4.434-3.486,8.996-6.802,13.396-10.332c0.89-0.714,1.943-1.425,2.876-2.211c0.807,0.107,1.608,0.229,2.41,0.363
			c-3.447,3.02-6.777,6.178-10.299,9.11c-11.064,9.221-23.119,17.266-33.182,27.608c0.303-1.604,0.62-3.202,0.917-4.807
			C197.453,408.075,205.25,401.269,213.36,394.893z M220.133,395.699c3.179-2.538,6.213-5.222,9.241-7.937
			c0.972-0.87,2.856-2.965,4.669-4.681c1.371,0.27,2.734,0.586,4.09,0.936c-7.286,7.159-15.419,13.507-23.104,20.221
			c-8.957,7.828-17.907,15.706-27.824,22.306c0.221-1.152,0.438-2.309,0.66-3.462C197.426,412.615,209.101,404.504,220.133,395.699z
			 M188.765,427.908c8.843-5.945,16.943-12.88,24.965-19.883c8.595-7.502,17.733-14.613,25.866-22.645
			c0.341,1.562,0.722,3.114,1.121,4.659c-0.69,0.706-1.364,1.427-2.045,2.105c-5.008,5.004-11.029,9.156-16.635,13.456
			c-9.632,7.391-19.437,14.541-28.152,23.024C192.172,428.416,190.463,428.184,188.765,427.908z M196.469,428.932
			c8.716-8.281,18.437-15.354,27.965-22.666c4.359-3.346,8.718-6.694,12.898-10.264c1.363-1.165,2.642-2.549,3.955-3.87
			c0.535,1.938,1.123,3.86,1.732,5.775c-0.12,0.049-0.238,0.125-0.349,0.238c-11.812,12.234-26.987,20.492-40.026,31.297
			C200.58,429.312,198.519,429.147,196.469,428.932z M205.595,429.601c12.534-10.08,26.793-18.097,38.087-29.637
			c0.523,1.58,1.076,3.15,1.642,4.719c-10.822,8.598-22.229,16.428-33.016,25.068C210.066,429.746,207.828,429.699,205.595,429.601z
			 M215.513,429.729c10.02-7.896,20.511-15.176,30.523-23.082c0.501,1.35,1.021,2.692,1.542,4.035
			c-8.995,5.549-17.304,12.089-25.47,18.796C219.911,429.598,217.713,429.692,215.513,429.729z M253.508,425.052
			c-4.319,0.982-8.718,1.82-13.159,2.511c3.598-2.668,7.309-5.189,10.889-7.881C251.987,421.475,252.743,423.266,253.508,425.052z
			 M250.449,417.78c-4.648,3.538-9.535,6.763-14.133,10.366c-3.584,0.479-7.191,0.854-10.81,1.123
			c7.322-5.961,14.793-11.728,22.816-16.702C249.018,414.311,249.731,416.047,250.449,417.78z M261.754,384.383
			c-23.413-14.724-67.631-9.019-80.484-5.069c-0.091-0.128-0.177-0.261-0.254-0.383c-5.71-19.288-10.677-38.812-14.808-58.503
			c-1.404-7.833-2.66-15.699-3.936-23.546c-1.641-10.098-3.114-20.224-4.411-30.37c7.558,3.345,15.896,5.016,24.034,6.03
			c14.367,1.792,29,0.789,43.272-1.299c14.211-2.078,28.295-5.754,41.554-11.305c7.519-3.147,15.221-6.979,21.658-12.207
			C284.109,293.994,274.438,339.718,261.754,384.383z M323.223,345.674c-4.038,18.207-7.421,38.297-16.258,54.871
			c-3.439,6.453-9.749,14.923-18.109,12.22c-4.974-1.607-9.064-7.134-12.01-11.14c-2.788-3.793-5.186-7.87-7.489-11.974
			c0.646-0.778,1.231-1.604,1.768-2.461c1.212,1.371,2.423,2.743,3.709,4.047c0.907,0.919,2.32-0.496,1.414-1.414
			c-1.42-1.439-2.751-2.961-4.089-4.474c1.057-2.048,1.886-4.235,2.564-6.462c2.205,2.18,4.166,4.588,6.109,7.017
			c0.807,1.007,2.212-0.418,1.414-1.414c-2.173-2.715-4.37-5.402-6.903-7.774c0.359-1.35,0.685-2.697,0.98-4.021
			c0.193-0.864,0.369-1.728,0.554-2.59c2.487,2.327,4.497,5.122,6.622,7.8c0.803,1.01,2.207-0.415,1.414-1.414
			c-2.396-3.021-4.664-6.099-7.562-8.604c0.397-1.928,0.787-3.853,1.174-5.773c2.1,1.824,3.819,4.037,5.483,6.257
			c0.765,1.02,2.503,0.023,1.728-1.01c-2.036-2.715-4.098-5.354-6.761-7.478c0.333-1.632,0.672-3.264,1.029-4.895
			c1.982,2.169,3.662,4.599,5.494,6.916c0.799,1.012,2.205-0.414,1.414-1.414c-2.1-2.656-3.995-5.453-6.38-7.839
			c0.257-1.106,0.521-2.212,0.802-3.318c1.46,1.334,2.806,2.783,4.008,4.369c0.77,1.014,2.508,0.02,1.728-1.01
			c-1.552-2.046-3.264-3.87-5.178-5.524c0.611-2.285,1.204-4.574,1.774-6.865c1.674,1.798,3.505,3.45,5.009,5.399
			c0.775,1.006,2.516,0.012,1.728-1.01c-1.867-2.422-4.22-4.398-6.165-6.746c0.441-1.812,0.885-3.622,1.305-5.438
			c1.408,1.249,2.634,2.721,3.957,4.062c0.906,0.92,2.32-0.495,1.414-1.414c-1.604-1.628-3.08-3.416-4.865-4.831
			c0.402-1.771,0.798-3.546,1.181-5.321c1.446,1.498,2.853,3.034,4.114,4.697c0.77,1.013,2.508,0.02,1.728-1.01
			c-1.634-2.152-3.458-4.117-5.342-6.038c0.198-0.944,0.406-1.887,0.602-2.832c1.312,1.215,2.588,2.466,3.68,3.88
			c0.775,1.006,2.516,0.012,1.728-1.01c-1.466-1.899-3.204-3.523-4.954-5.143c0.382-1.898,0.771-3.797,1.134-5.7
			c1.507,1.487,2.92,3.073,4.25,4.722c0.812,1.004,2.217-0.421,1.414-1.414c-1.617-2.004-3.352-3.886-5.229-5.623
			c0.255-1.367,0.509-2.734,0.754-4.104c1.101,1.074,2.042,2.32,2.903,3.604c0.716,1.063,2.448,0.063,1.728-1.01
			c-1.207-1.799-2.559-3.542-4.225-4.917c0.246-1.405,0.493-2.811,0.73-4.218c1.365,1.272,2.63,2.646,3.767,4.145
			c0.77,1.013,2.508,0.019,1.728-1.01c-1.533-2.021-3.221-3.827-5.106-5.467c0.312-1.899,0.624-3.801,0.921-5.705
			c1.623,1.485,3.131,3.104,4.459,4.849c0.771,1.011,2.51,0.017,1.728-1.01c-1.731-2.271-3.68-4.324-5.832-6.175
			c0.263-1.722,0.529-3.44,0.781-5.166c1.137,1.315,2.261,2.645,3.479,3.886c0.905,0.921,2.318-0.494,1.414-1.414
			c-1.59-1.617-3.014-3.388-4.521-5.077c0.195-1.382,0.401-2.76,0.592-4.145c0.045-0.323,0.084-0.647,0.127-0.973
			c1.755,1.341,3.478,2.725,5.056,4.274c0.921,0.903,2.335-0.511,1.414-1.414c-1.912-1.878-4.034-3.522-6.174-5.134
			c0.202-1.598,0.396-3.194,0.579-4.792c1.675,1.398,3.312,2.842,5.05,4.162c1.027,0.781,2.022-0.957,1.01-1.727
			c-1.998-1.52-3.863-3.197-5.806-4.783c0.141-1.29,0.29-2.58,0.418-3.87c2.129,1.457,4.304,2.847,6.378,4.38
			c1.039,0.77,2.034-0.969,1.01-1.727c-2.335-1.727-4.792-3.276-7.171-4.938c0.087-0.925,0.179-1.85,0.259-2.773
			c1.819,1.369,3.856,2.415,5.902,3.438c1.149,0.576,2.163-1.148,1.01-1.727c-2.358-1.182-4.736-2.372-6.714-4.136
			c0.106-1.274,0.217-2.55,0.313-3.824c1.964,1.104,4.029,2.02,6.057,3.02c1.152,0.568,2.166-1.155,1.01-1.727
			c-2.318-1.145-4.689-2.178-6.898-3.509c0.04-0.566,0.089-1.133,0.128-1.699c1.825,0.367,3.499,1.12,5.096,2.268
			c1.05,0.756,2.047-0.98,1.01-1.727c-1.843-1.324-3.829-2.166-5.974-2.553c0.087-1.338,0.188-2.675,0.264-4.015
			c1.759,1.044,3.646,1.849,5.366,2.96c1.087,0.703,2.088-1.028,1.01-1.727c-1.927-1.246-4.072-2.088-6-3.333
			c-0.086-0.056-0.171-0.091-0.255-0.118c0.031-0.579,0.066-1.158,0.097-1.737c1.79,0.37,3.633,0.477,5.389,1.017
			c1.236,0.381,1.761-1.551,0.531-1.928c-1.898-0.585-3.9-0.656-5.826-1.107c0.053-1.117,0.109-2.234,0.156-3.354
			c2.225,0.356,4.482,0.424,6.737,0.425c1.29,0.001,1.29-1.999,0-2c-2.229-0.001-4.462-0.056-6.657-0.438
			c0.037-0.973,0.081-1.945,0.114-2.919c0.05-0.008,0.092,0.002,0.143-0.014c1.575-0.487,3.662-0.805,5.229-0.102
			c1.167,0.523,2.186-1.199,1.011-1.727c-1.948-0.874-4.269-0.779-6.314-0.227c0.042-1.304,0.089-2.605,0.125-3.91h7.018
			c1.29,0,1.29-2.001,0-2.001h-6.963c0.019-0.693,0.041-1.384,0.058-2.078c2.12-0.608,4.536-0.598,6.641,0.042
			c1.237,0.376,1.762-1.555,0.531-1.929c-2.244-0.682-4.821-0.742-7.13-0.191c0.031-1.569,0.068-3.135,0.094-4.707
			c2.61-0.397,5.244-0.432,7.839,0.161c1.256,0.287,1.789-1.642,0.531-1.929c-2.767-0.631-5.556-0.627-8.335-0.244
			c0.011-0.861,0.021-1.724,0.031-2.586c2.039-0.524,4.159-0.275,6.228-0.539c1.241-0.158,1.327-1.985,0-2
			c-0.063-0.001-0.126,0-0.189,0c-0.068,0-0.119,0.026-0.183,0.037c-1.938,0.197-3.913,0.052-5.83,0.436
			c0.013-1.047,0.026-2.093,0.038-3.14h7.308c1.29,0,1.29-2,0-2h-7.281v-0.034c0.146,0,0.298-0.028,0.454-0.103
			c2.314-1.108,4.92-1.814,7.494-1.863c1.288-0.024,1.29-2.024,0-2c-2.729,0.052-5.436,0.762-7.924,1.875
			c0.008-0.714,0.021-1.427,0.026-2.141c1.245-0.621,2.493-1.238,3.781-1.768c0.874-0.359,2.23-1.022,3.184-0.668
			c1.211,0.451,1.729-1.483,0.531-1.929c-1.226-0.456-2.662,0.082-3.818,0.502c-1.251,0.455-2.462,1.028-3.658,1.62
			c0.003-0.491,0.013-0.981,0.015-1.473c0.12-0.023,0.244-0.071,0.369-0.155c1.887-1.267,3.892-2.574,5.534-4.156
			c0.932-0.896-0.484-2.309-1.414-1.414c-1.34,1.29-2.936,2.373-4.491,3.415c0.001-1.139,0.005-2.278-0.002-3.417
			c1.892-1.837,4.022-3.237,6.373-4.428c1.149-0.583,0.138-2.308-1.011-1.727c-1.937,0.981-3.736,2.119-5.386,3.489
			c-0.008-0.646-0.006-1.292-0.017-1.938c2.059-1.396,4.162-2.92,5.946-4.647c0.929-0.898-0.486-2.311-1.414-1.414
			c-1.39,1.345-2.978,2.551-4.581,3.672c-0.025-1.146-0.055-2.291-0.095-3.435c2.355-2.164,5.034-3.887,7.888-5.333
			c1.15-0.583,0.139-2.308-1.01-1.727c-2.481,1.257-4.844,2.726-6.985,4.485c-0.039-0.898-0.072-1.798-0.12-2.696
			c0.039-0.02,0.077-0.036,0.115-0.062c2-1.333,4-2.667,6-4c1.067-0.711,0.066-2.444-1.01-1.727
			c-1.749,1.166-3.498,2.332-5.248,3.499c-0.049-0.784-0.087-1.569-0.145-2.353c1.837-1.467,3.689-2.999,5.734-4.085
			c1.14-0.605,0.13-2.332-1.01-1.727c-1.74,0.925-3.341,2.172-4.912,3.428c-0.046-0.534-0.075-1.07-0.126-1.604
			c1.927-1.91,3.894-3.785,6.048-5.431c1.011-0.771,0.017-2.51-1.01-1.727c-1.764,1.347-3.404,2.828-5.005,4.356
			c2.263-7.049,5.907-16.37,12.331-19.028c7.828-3.24,11.688,16.018,12.692,20.192c7.247,30.133,6.099,61.749,6.933,92.509
			C332.182,282.824,330.121,314.568,323.223,345.674z"/>
		<path fill="#98f698" d="M226.697,197.791c19.511-1.854,37.566-15.891,40.807-35.76c3.609-22.126-11.882-46.728-33.812-52.102
			c-0.528-0.538-1.271-0.938-2.279-1.084c-33.907-4.94-58.42,34.984-47.118,65.154C190.758,191.259,209.044,199.47,226.697,197.791z
			 M191.677,169.001c-0.32-1.038-0.592-2.095-0.803-3.171c3.924-1.947,8.564-2.914,12.151-5.302
			c0.558-0.371,1.186-0.677,1.827-0.972c0.102,0.521,0.223,1.036,0.355,1.545C200.814,163.926,196.273,166.509,191.677,169.001z
			 M192.346,170.915c4.567-2.471,9.085-5.03,13.46-7.821c0.279,0.799,0.613,1.566,0.975,2.318c-0.706,0.456-1.41,0.914-2.122,1.357
			c-3.695,2.306-7.263,4.783-10.873,7.216C193.249,172.989,192.756,171.971,192.346,170.915z M194.801,175.71
			c4.08-2.746,8.149-5.479,12.301-8.116c0.181-0.114,0.406-0.243,0.656-0.381c0.361,0.597,0.763,1.164,1.184,1.716
			c-4.105,3.087-8.072,6.366-11.609,10.092C196.392,177.972,195.545,176.869,194.801,175.71z M198.72,180.462
			c3.504-3.696,7.432-6.951,11.505-10.01c0.349,0.366,0.72,0.712,1.101,1.048c-3.475,3.572-6.812,7.303-9.471,11.514
			C200.723,182.221,199.674,181.372,198.72,180.462z M204.368,184.595c-0.286-0.158-0.556-0.329-0.832-0.495
			c2.626-4.161,5.932-7.833,9.37-11.358c0.32,0.221,0.662,0.418,1,0.619c-2.794,3.938-5.645,7.823-7.928,12.061
			C205.435,185.159,204.896,184.887,204.368,184.595z M213.451,156.786c3.506-2.641,6.234-6.084,9.463-9.038
			c2.238-2.048,4.444-4.139,6.615-6.257c0.514-0.5,0.726-1.062,0.74-1.61c1.192,0.792,2.268,1.748,3.229,2.81
			c-2.244,2.44-5.539,4.337-8.045,6.344c-3.979,3.184-7.56,6.82-11.398,10.165C213.802,158.412,213.598,157.605,213.451,156.786z
			 M207.779,186.224c2.263-4.199,5.133-8.047,7.908-11.938c0.09,0.04,0.172,0.09,0.264,0.128c-1.757,4.27-3.508,8.597-4.312,13.14
			C210.327,187.187,209.039,186.74,207.779,186.224z M219.873,188.9c-2.129-0.113-4.242-0.403-6.312-0.863
			c0.754-4.477,2.526-8.76,4.259-12.949c0.718,0.215,1.453,0.405,2.229,0.542C219.916,180.065,219.504,184.48,219.873,188.9z
			 M221.869,188.955c-0.416-4.345,0.019-8.713,0.172-13.073c0.574,0.048,1.154,0.086,1.759,0.091
			c0.338,0.003,0.672-0.013,1.006-0.024c0.211,4.304,0.975,8.531,1.819,12.749C225.046,188.877,223.455,188.96,221.869,188.955z
			 M223.8,166.973c-3.271,0.15-5.683-1.185-7.384-3.258c4.297-3.593,8.255-7.571,12.572-11.146c2.348-1.942,5.018-3.663,7.282-5.756
			c0.747,1.572,1.267,3.268,1.491,5.049C238.871,160.695,232.31,166.582,223.8,166.973z M228.604,188.422
			c-0.84-4.175-1.604-8.357-1.806-12.618c0.977-0.119,1.931-0.297,2.862-0.528c1.165,4.054,2.633,8.011,3.854,12.045
			C231.903,187.79,230.261,188.152,228.604,188.422z M235.421,186.718c-1.22-4.02-2.68-7.964-3.839-12.002
			c0.751-0.257,1.485-0.547,2.198-0.875c1.78,3.801,3.632,7.566,5.382,11.381C237.945,185.785,236.693,186.279,235.421,186.718z
			 M240.951,184.349c-1.752-3.827-3.609-7.604-5.396-11.415c0.604-0.344,1.193-0.705,1.76-1.1c2.825,3.155,5.512,6.436,8.396,9.535
			C244.207,182.482,242.611,183.473,240.951,184.349z M247.294,180.136c-2.892-3.09-5.574-6.363-8.392-9.521
			c0.757-0.635,1.476-1.312,2.141-2.04c3.154,2.845,6.683,5.265,9.646,8.316C249.633,178.052,248.498,179.134,247.294,180.136z
			 M251.99,175.362c-2.982-3.04-6.52-5.458-9.666-8.318c0.547-0.72,1.057-1.471,1.514-2.256c3.855,1.793,7.416,4.125,10.953,6.48
			C253.963,172.718,253.02,174.079,251.99,175.362z M255.74,169.5c-3.557-2.364-7.129-4.647-10.982-6.463
			c0.229-0.491,0.443-0.992,0.639-1.503c3.786,1.518,7.7,2.691,11.505,4.174c0.131,0.052,0.251,0.063,0.364,0.062
			C256.842,167.033,256.336,168.279,255.74,169.5z M257.792,164.011c-0.097-0.094-0.215-0.174-0.359-0.23
			c-3.773-1.471-7.668-2.612-11.419-4.133c0.222-0.795,0.414-1.602,0.546-2.432c4.011,1.041,8.161,1.537,11.989,3.189
			C258.369,161.616,258.113,162.82,257.792,164.011z M258.871,153.844c0.072,1.509,0.041,3.02-0.088,4.524
			c-3.877-1.523-7.988-2.077-11.998-3.161c0.043-0.628,0.066-1.262,0.057-1.904c3.982-0.38,8.025-0.501,11.921,0.534
			C258.802,153.848,258.833,153.837,258.871,153.844z M258.712,151.778c-3.928-0.938-7.98-0.845-11.982-0.463
			c-0.047-0.438-0.104-0.873-0.17-1.305c3.777-1.018,7.53-2.12,11.269-3.277C258.239,148.396,258.532,150.081,258.712,151.778z
			 M257.297,144.804c-3.688,1.142-7.389,2.229-11.114,3.236c-0.134-0.555-0.28-1.103-0.447-1.642
			c3.523-1.495,7.257-2.474,10.746-4.032C256.782,143.17,257.048,143.985,257.297,144.804z M255.739,140.518
			c-3.449,1.577-7.157,2.561-10.671,4.013c-0.416-1.034-0.892-2.037-1.437-2.997c2.904-2.423,5.75-4.944,8.939-6.949
			C253.792,136.471,254.848,138.461,255.739,140.518z M251.44,132.934c-3.157,2.003-5.977,4.504-8.857,6.906
			c-0.439-0.651-0.898-1.288-1.396-1.895c2.774-2.506,5.514-5.051,8.158-7.693C250.081,131.114,250.777,132.012,251.44,132.934z
			 M248.001,128.765c-2.638,2.639-5.368,5.182-8.138,7.684c-0.525-0.55-1.073-1.08-1.646-1.583c2.479-2.809,5.131-5.447,7.925-7.946
			C246.783,127.512,247.4,128.13,248.001,128.765z M244.629,125.592c-2.807,2.517-5.467,5.179-7.952,8.01
			c-0.448-0.337-0.904-0.665-1.373-0.975c2.051-3.134,4.057-6.306,6.217-9.365C242.598,123.98,243.631,124.763,244.629,125.592z
			 M239.829,122.202c-2.167,3.063-4.177,6.242-6.23,9.382c-0.572-0.321-1.156-0.627-1.754-0.907c1.75-3.335,3.575-6.617,5.687-9.727
			C238.314,121.335,239.076,121.76,239.829,122.202z M232.584,118.981c1.066,0.324,2.104,0.715,3.125,1.143
			c-2.102,3.134-3.94,6.425-5.705,9.774c-0.717-0.273-1.442-0.525-2.186-0.739C228.998,125.574,230.663,122.217,232.584,118.981z
			 M228.519,118.024c0.695,0.115,1.384,0.256,2.064,0.416c-1.898,3.252-3.537,6.632-4.705,10.222
			c-0.211-0.176-0.438-0.33-0.684-0.463c0.628-3.524,1.681-6.93,2.878-10.298C228.223,117.941,228.355,117.996,228.519,118.024z
			 M223.078,117.358c0.718-0.061,1.44-0.102,2.171-0.104c0.312-0.001,0.629,0.019,0.942,0.033
			c-1.203,3.416-2.255,6.866-2.912,10.437c-0.179-0.003-0.353-0.017-0.537,0.002C222.675,124.275,222.935,120.814,223.078,117.358z
			 M222.716,137.185c1.162,0.107,2.287,0.353,3.375,0.696c-0.031,0.027-0.064,0.045-0.097,0.075
			c-1.858,1.813-3.756,3.591-5.653,5.364c-2.421,2.264-4.627,4.897-7.077,7.177c0.707-5.764,3.869-11.144,9.273-13.347
			C222.599,137.158,222.651,137.179,222.716,137.185z M221.074,117.61c-0.141,3.542-0.379,7.075-0.286,10.607
			c-0.08,0.026-0.161,0.053-0.241,0.079c-0.961-3.308-1.744-6.662-2.682-9.976C218.915,118.018,219.987,117.786,221.074,117.61z
			 M215.963,118.947c0.943,3.349,1.733,6.739,2.711,10.078c-0.184,0.082-0.379,0.149-0.56,0.236
			c-1.593-2.905-3.068-5.868-4.345-8.928c-0.064-0.152-0.152-0.274-0.257-0.372C214.314,119.584,215.133,119.249,215.963,118.947z
			 M211.827,120.821c0.005,0.015,0.007,0.028,0.013,0.044c1.336,3.203,2.855,6.307,4.519,9.349c-0.354,0.215-0.712,0.426-1.052,0.66
			l-4.69-8.338c-0.216-0.384-0.56-0.506-0.894-0.473C210.41,121.618,211.114,121.21,211.827,120.821z M208.873,122.637
			c-0.137,0.26-0.171,0.575,0.017,0.908c1.604,2.852,3.208,5.702,4.812,8.554c-0.208,0.175-0.404,0.363-0.605,0.545
			c-2.212-2.611-4.031-5.524-6.198-8.176c-0.063-0.078-0.133-0.137-0.202-0.188C207.405,123.706,208.127,123.152,208.873,122.637z
			 M205.275,125.476c0.035,0.139,0.102,0.276,0.208,0.406c2.163,2.647,3.979,5.553,6.187,8.162c-0.658,0.71-1.273,1.462-1.846,2.25
			c-2.611-2.5-5.318-4.893-8.049-7.262C202.881,127.771,204.045,126.574,205.275,125.476z M200.494,130.562
			c2.786,2.42,5.549,4.865,8.205,7.427c-0.562,0.916-1.066,1.874-1.524,2.857c-3.204-2.063-6.296-4.297-9.745-5.938
			C198.374,133.397,199.392,131.939,200.494,130.562z M196.404,136.627c3.533,1.677,6.689,3.979,9.975,6.083
			c-0.096,0.249-0.184,0.501-0.272,0.752c-3.505-1.456-6.983-2.961-10.351-4.72c-0.143-0.074-0.283-0.112-0.418-0.121
			C195.679,137.949,196.031,137.281,196.404,136.627z M194.529,140.292c0.065,0.062,0.123,0.128,0.217,0.177
			c3.498,1.826,7.115,3.382,10.756,4.892c-0.295,1.041-0.518,2.102-0.705,3.167c-4.023-1.31-8.034-2.616-12.23-3.276
			C193.129,143.569,193.782,141.909,194.529,140.292z M191.97,147.168c4.305,0.671,8.413,2.024,12.537,3.366
			c-0.068,0.616-0.117,1.233-0.15,1.851c-4.188-0.495-8.409-0.679-12.598-1.21c-0.421-0.054-0.688,0.138-0.829,0.41
			C191.203,150.106,191.549,148.63,191.97,147.168z M190.826,152.172c0.048,0.464,0.352,0.929,0.934,1.003
			c4.175,0.529,8.387,0.691,12.561,1.201c0.006,0.426,0.027,0.85,0.05,1.273c-4.354,0.137-8.702,0.78-13.077,0.414
			c-1.285-0.107-1.275,1.894,0,2c4.393,0.368,8.758-0.283,13.131-0.416c-0.941,0.426-1.91,0.822-2.695,1.346
			c-1.896,1.263-4.715,1.905-6.844,2.757c-1.487,0.596-2.932,1.276-4.354,2.003C190.039,159.998,190.16,156.077,190.826,152.172z"/>
	</g>
</g>
<g>
</g>
<g>
</g>
<g>
</g>
<g>
</g>
<g>
</g>
<g>
</g>
<g>
</g>
<g>
</g>
<g>
</g>
<g>
</g>
<g>
</g>
<g>
</g>
<g>
</g>
<g>
</g>
<g>
</g>
</svg>
