<?xml version="1.0" encoding="iso-8859-1"?>
<!-- Generator: Adobe Illustrator 16.0.0, SVG Export Plug-In . SVG Version: 6.00 Build 0)  -->
<!DOCTYPE svg PUBLIC "-//W3C//DTD SVG 1.1//EN" "http://www.w3.org/Graphics/SVG/1.1/DTD/svg11.dtd">
<svg version="1.1" id="Capa_1" xmlns="http://www.w3.org/2000/svg" xmlns:xlink="http://www.w3.org/1999/xlink" x="0px" y="0px"
	 width="383.409px" height="383.409px" viewBox="0 0 383.409 383.409" style="enable-background:new 0 0 383.409 383.409;"
	 xml:space="preserve">
<g>
	<path fill="#98f698" d="M311.864,264.313c0.129-0.299,0.106-0.657-0.052-0.953c-0.521-8.13-1.999-16.241-4.501-24.196
		c-4.038-12.84-10.865-24.242-18.566-35.176c-7.288-10.349-14.755-20.74-24.375-29.074c-9.107-7.89-19.863-11.456-30.98-15.496
		c-8.537-3.103-17.652-6.397-26.851-6.735c0.095-16.58-0.542-33.133,0.129-49.723c0.324-8.034,0.776-16.627,0.172-25.006
		c8.773,2.674,19.492-0.646,27.708-3.327c8.566-2.796,17.15-7.178,23.504-13.675c1.58-1.615,2.908-3.438,3.868-5.378
		c0.404-0.429,0.734-0.972,0.933-1.667c4.271-15.069,7.807-35.641-6.481-46.657c-13.679-10.546-33.923-7.073-49.708-5.005
		c-19.337,2.535-38.688,5.959-57.146,12.407c-16.972,5.929-34.434,15.019-44.005,30.889c-1.916,3.174-3.33,9.863-2.057,14.853
		c1.242,4.866,4.783,9.368,9.122,11.572c9.601,4.877,22.022,4.625,32.503,4.815c9.838,0.179,20.568-1.113,30.354,0.634
		c-0.356,5.021-0.22,10.064-0.224,14.295c-0.01,12.389,1.115,24.729,1.678,37.096c0.338,7.402-0.02,14.836,0.172,22.248
		c-47.139,3.709-88.066,41.282-101.403,85.831c-13.88,46.36,7.343,93.882,45.59,121.293c19.013,13.627,41.96,21.029,64.976,24.109
		c22.271,2.981,45.241,0.128,65.446-9.928c23.102-11.496,39.548-33.124,50.083-56.168
		C309.265,299.76,312.831,282.002,311.864,264.313z M303.867,262.128c0.007,0.076,0.011,0.151,0.018,0.229
		c-10.75-0.938-21.393-2.78-32.067-4.391c-0.18-1.197-0.398-2.398-0.658-3.603c10.584,0.057,21.166,0.346,31.749,0.44
		C303.321,257.23,303.642,259.675,303.867,262.128z M302.528,252.801c-10.614-0.101-21.228-0.393-31.843-0.441
		c-0.618-2.434-1.418-4.88-2.396-7.333c10.717,1.129,21.524,0.764,32.18-0.799C301.282,247.054,301.974,249.912,302.528,252.801z
		 M268.782,235.271c-1.301-0.01-2.603-0.028-3.9-0.061c0.002-2.428,0.008-4.884-0.232-7.307c1.355,0.002,2.718-0.007,4.08-0.023
		v7.123C268.729,235.106,268.76,235.186,268.782,235.271z M293.058,240.701c1.785-0.496,2.645-1.813,2.795-3.231
		c0.856-0.855,1.336-2.095,1.015-3.6c1.143,2.763,2.147,5.578,3.031,8.434c-9.827,1.428-19.797,1.799-29.688,0.919
		C277.978,243.22,285.721,242.74,293.058,240.701z M270.673,235.279c0.023-0.087,0.057-0.17,0.057-0.274v-7.152
		c1.806-0.04,3.61-0.111,5.411-0.217c0.176,2.495,0.506,4.979,0.596,7.48C274.724,235.224,272.7,235.273,270.673,235.279z
		 M278.134,227.502c1.874-0.143,3.737-0.337,5.585-0.588c0.317,2.191,0.354,4.399,0.355,6.629c0,0.382,0.184,0.637,0.429,0.791
		c-1.906,0.292-3.832,0.51-5.773,0.654C278.63,232.485,278.302,230,278.134,227.502z M288.431,226.125
		c-0.177,2.477-0.115,4.938,0.26,7.426c-0.931,0.214-1.867,0.396-2.811,0.562c0.111-0.15,0.194-0.33,0.194-0.569
		c-0.001-2.325-0.048-4.634-0.376-6.921C286.613,226.474,287.525,226.31,288.431,226.125z M282.639,219.002
		c-2.744-1.895-5.693-3.256-8.99-3.962c-1.257-0.27-1.792,1.658-0.531,1.93c2.282,0.488,4.366,1.307,6.337,2.403
		c-1.758,0.173-3.526,0.298-5.302,0.381c-1.647-0.724-3.155-1.738-4.447-2.994c-0.925-0.898-2.34,0.515-1.414,1.413
		c0.649,0.633,1.357,1.188,2.091,1.708c-0.617,0.014-1.233,0.023-1.851,0.03c-1.893-1.171-3.788-2.321-5.403-3.883
		c-0.927-0.896-2.343,0.517-1.414,1.414c0.972,0.938,2.036,1.736,3.141,2.48c-0.879-0.003-1.758-0.008-2.633-0.016
		c-0.989-0.603-1.98-1.204-2.948-1.844c-1.08-0.713-2.081,1.02-1.011,1.727c0.041,0.027,0.085,0.053,0.126,0.079
		c-1.478-0.015-2.943-0.025-4.394-0.025c-0.36,0-0.689,0.048-0.999,0.119c-2.438-0.852-4.845-1.817-7.249-2.781
		c8.867-0.551,17.694-1.435,25.979-4.064c0.347,0.237,0.733,0.446,1.204,0.584c4.272,1.246,8.621,2.677,12.526,4.851
		C284.523,218.723,283.584,218.87,282.639,219.002z M221,197.894c6.387,2.609,12.17,6.721,17.2,11.737
		c-5.14,0.277-10.245,0.578-15.206,1.213c-2.21,0.282-3.463,1.979-3.745,3.738c-0.135,0.394-0.231,0.809-0.255,1.262
		c-0.204,4.081-1.551,7.992-1.92,12.065c-3.315,2.71-6.616,5.437-9.84,8.246c3.179-12.521,9.414-24.021,13.617-36.249
		C221.107,199.163,221.125,198.493,221,197.894z M230.823,236.673c0.06-0.073,0.109-0.149,0.164-0.226
		c2.896,0.759,5.758,1.678,8.602,2.648c-6.127,3.106-12.179,6.344-17.912,10.077C224.871,244.706,227.876,240.325,230.823,236.673z
		 M221.111,236.294c-0.385-0.165-0.778-0.308-1.184-0.422c0.579-0.477,1.152-0.963,1.733-1.437c0.205,0.098,0.418,0.184,0.646,0.25
		C221.905,235.219,221.512,235.76,221.111,236.294z M225.138,227.184c0.292-2.46,0.897-4.875,1.346-7.317
		c0.785,0.054,1.562,0.146,2.335,0.261c-0.724,2.475-0.945,4.968-0.997,7.546C226.931,227.494,226.037,227.328,225.138,227.184z
		 M229.813,228.104c0.038-2.617,0.236-5.128,0.984-7.629c1.168,0.244,2.323,0.557,3.473,0.898c-0.688,2.436-1.454,4.848-1.997,7.319
		C231.457,228.487,230.637,228.288,229.813,228.104z M238.901,230.586c-1.56-0.483-3.12-0.955-4.693-1.384
		c0.536-2.439,1.29-4.821,1.971-7.223c1.39,0.469,2.766,0.995,4.138,1.535C239.844,225.872,239.373,228.229,238.901,230.586z
		 M207.217,246.895c0.97-0.925,1.959-1.827,2.953-2.727c1.173,0.702,2.364,1.373,3.543,2.064c-0.587,0.774-1.172,1.553-1.77,2.32
		C210.349,248.039,208.742,247.565,207.217,246.895z M210.618,250.228c-0.354,0.44-0.694,0.894-1.054,1.331
		c-0.488,0.593-1.002,1.206-1.527,1.825c-1.541-0.943-3.154-1.757-4.838-2.399c0.054-0.081,0.112-0.16,0.161-0.245
		c0.142-0.146,0.286-0.299,0.426-0.443c0.621-0.646,1.254-1.28,1.891-1.91C207.256,249.156,208.938,249.693,210.618,250.228z
		 M211.738,242.774c0.671-0.592,1.358-1.163,2.038-1.746c0.119,0.055,0.255,0.089,0.412,0.092c1.034,0.021,2.01,0.211,2.944,0.521
		c-0.732,0.996-1.466,1.993-2.205,2.983C213.869,244.001,212.799,243.396,211.738,242.774z M215.824,239.274
		c0.701-0.591,1.412-1.168,2.117-1.755c0.669,0.066,1.321,0.201,1.941,0.419c-0.502,0.678-1.012,1.349-1.512,2.027
		C217.55,239.65,216.701,239.415,215.824,239.274z M213.138,197.78c-3.226,9.383-7.646,18.335-10.969,27.648
		c-0.395-10.217,0.44-20.399,1.476-30.605c0.118,0.005,0.227,0.025,0.351,0.021c3.642-0.15,7.159,0.206,10.539,0.981
		C213.933,196.274,213.436,196.912,213.138,197.78z M206.712,254.918c-0.822,0.938-1.677,1.879-2.568,2.805
		c-1.625-0.827-3.229-1.695-4.775-2.657c0.751-0.87,1.515-1.706,2.273-2.516C203.413,253.155,205.101,253.959,206.712,254.918z
		 M202.655,259.202c-0.522,0.503-1.04,1.012-1.584,1.489c-0.024-0.027-0.032-0.059-0.062-0.085c-1.172-1.107-2.591-1.86-4-2.626
		c0.346-0.462,0.701-0.915,1.062-1.364C199.556,257.557,201.095,258.398,202.655,259.202z M187.996,274.845
		c4.781-0.167,9.083-1.652,13.019-3.987c-1.261,3.328-3.662,6.1-7.385,7.423c-6.669,2.371-12.774-3.758-14.262-9.757
		c-2.253-9.087,4.835-18.376,13.302-17.855c-4.783,5.777-8.92,12.657-8.674,20.178C184.063,272.964,185.764,274.922,187.996,274.845
		z M194.459,265.184c-0.578,0.271-1.163,0.523-1.759,0.734c0.151-0.493,0.343-0.979,0.536-1.463
		C193.646,264.695,194.054,264.938,194.459,265.184z M194.066,262.622c0.522-1.029,1.13-2.034,1.786-3.014
		c1.299,0.689,2.614,1.37,3.683,2.359c-0.974,0.768-1.972,1.491-3.01,2.116C195.701,263.605,194.893,263.101,194.066,262.622z
		 M198.907,94.607c-0.1,6.675-0.474,13.339-0.801,20.005c-0.634,12.916-1.394,97.701-1.995,128.455
		c-3.028-0.693-5.972-0.617-8.709,0.095c2.37-30.005-1.219-60.04-2.279-90.038c-0.369-10.476,0.012-20.925-0.623-31.39
		c-0.582-9.601-1.191-19.196-1.283-28.817c-0.082-8.539-0.098-17.624,2.658-25.805c0.843-2.503,2.557-4.312,4.677-5.83
		c0.81-0.579,1.612-1.021,2.564-1.283c0.441-0.121,0.555-0.018,0.913,0.189c2.67,1.553,3.636,9.177,4.064,12.646
		C198.984,80.041,199.015,87.358,198.907,94.607z M194.193,52.03c-1.665-0.187-3.325,0.13-4.915,0.771
		c-3.629-4.368-7.139-8.836-10.693-13.268c2.45-0.215,4.902-0.446,7.355-0.678c3.748,4.177,6.809,8.863,9.921,13.521
		C195.332,52.219,194.779,52.096,194.193,52.03z M187.432,53.702c-1.535,0.882-2.969,2.024-4.228,3.263
		c-5.305-5.031-9.542-11.172-14.411-16.653c2.067-0.151,4.136-0.299,6.203-0.467c0.398-0.032,0.797-0.07,1.196-0.104
		C179.942,44.39,183.625,49.099,187.432,53.702z M181.835,58.421c-0.523,0.602-1.008,1.209-1.434,1.803
		c-0.166,0.232-0.311,0.48-0.466,0.722c-7.016-6.112-13.37-12.956-19.477-19.97c1.929-0.178,3.86-0.321,5.792-0.467
		C171.621,46.298,176.107,53.003,181.835,58.421z M180.108,229.37c-5.979-9.753-10.861-20.157-15.66-30.545
		c-0.07-0.153-0.158-0.271-0.238-0.405c4.855-1.877,9.945-3.064,15.186-3.455C180.001,206.43,180.394,217.905,180.108,229.37z
		 M179.441,242.726c-0.131,1.691-0.273,3.385-0.442,5.076c-0.416,0.376-0.816,0.771-1.203,1.179
		c-10.925-13.267-16.494-30.052-23.949-45.331c1.1-0.69,2.219-1.344,3.354-1.963c0.06,0.386,0.156,0.777,0.34,1.178
		C163.906,216.642,170.419,230.448,179.441,242.726z M167.164,247.902c-13.817-3.807-27.743-7.219-41.724-10.371
		c4.771-11.25,12.392-21.525,21.825-29.18C153.714,221.648,158.942,235.633,167.164,247.902z M172.512,257.72
		c-0.604,1.741-1.025,3.563-1.225,5.436c-16.342-4.685-34.643-5.104-49.967-12.591c0.385-1.831,0.855-3.651,1.395-5.459
		C139.421,248.862,156.051,252.995,172.512,257.72z M164.104,269.527c-11.217,8.854-25.981,13.754-39.581,18.021
		c-1.95-5.649-3.343-11.368-4.09-16.963c-0.519-3.881-0.585-7.828-0.284-11.777C133.923,264.768,149.473,265.998,164.104,269.527z
		 M172.346,273.017c0.624,1.854,1.505,3.565,2.604,5.102c-13.675,9.731-28.701,17.16-43.836,24.32
		c-1.329-2.435-2.561-4.914-3.67-7.434C143.192,290.009,160.074,284.083,172.346,273.017z M177.613,285.996
		c-4.125,16.487-13.162,32.229-15.207,49.152c-10.854-5.906-20.098-15.128-27.172-25.843
		C149.835,302.398,164.333,295.238,177.613,285.996z M176.638,314.251c3.397-9.347,7.063-18.606,9.215-28.344
		c0.009-0.036,0.005-0.068,0.013-0.104c0.965,0.273,1.953,0.473,2.953,0.603c-1.367,18.522-6.027,36.58-8.498,54.961
		c-3.518-0.571-6.925-1.497-10.215-2.718C170.719,330.241,173.78,322.109,176.638,314.251z M195.503,298.555
		c4.892,11.857,10.015,23.64,16.543,34.671c-7.938,3.927-16.055,6.886-23.788,8.688
		C190.176,327.376,193.484,313.063,195.503,298.555z M198.852,285.78c-0.105-0.256-0.23-0.487-0.367-0.704
		c1.733-0.796,3.282-1.899,4.653-3.207c7.511,14.539,14.648,29.264,21.903,43.932c-1.951,1.273-3.936,2.49-5.943,3.646
		C210.892,315.631,204.955,300.628,198.852,285.78z M210.22,278.182c7.794,3.465,15.559,6.999,23.424,10.302
		c6.988,2.935,14.161,6.012,21.562,7.955c-5.907,9.29-14.166,17.68-23.549,24.73C224.558,306.815,217.562,292.41,210.22,278.182z
		 M210.014,269.391c-0.11-0.049-0.221-0.069-0.331-0.108c0.138-0.742,0.229-1.486,0.3-2.229
		c16.687,7.013,34.498,10.628,51.587,16.524c-0.684,1.912-1.475,3.797-2.359,5.654C242.133,285.484,225.822,276.33,210.014,269.391z
		 M217.994,261.719c8.718-7.237,18.933-12.374,29.02-17.421c0.853-0.426,1.405-1.011,1.718-1.662
		c0.382,0.124,0.794,0.208,1.264,0.209c0.221,0.001,0.444,0.005,0.666,0.006c0.066,0.007,0.133,0,0.2,0.002
		c2.555,0.018,5.144,0.083,7.751,0.154c5.879,11.264,7.144,22.368,5.09,32.859C248.638,270.67,232.886,267.396,217.994,261.719z
		 M240.816,231.187c0.462-2.309,0.923-4.616,1.385-6.925c1.935,0.785,3.862,1.593,5.795,2.347c-0.001,2.303-0.037,4.617-0.242,6.908
		C245.443,232.723,243.135,231.935,240.816,231.187z M255.61,234.938c0.236-2.353,0.33-4.72,0.362-7.087
		c2.2,0.011,4.432,0.034,6.678,0.047c0.259,2.404,0.236,4.852,0.231,7.262C260.443,235.089,258.014,235.003,255.61,234.938z
		 M282.464,208.443c-2.43-0.932-4.916-1.73-7.406-2.456c-0.101-0.029-0.191-0.033-0.29-0.055c-0.853-0.991-2.177-1.517-3.837-0.945
		c-6.263,2.15-12.876,3.171-19.589,3.781c8.181-3.518,16.69-6.351,25.374-8.3C278.692,203.077,280.615,205.738,282.464,208.443z
		 M275.369,198.72c-9.791,2.267-19.337,5.666-28.465,9.851c-0.023-0.864-0.342-1.751-1.081-2.554
		c-0.063-0.068-0.131-0.132-0.194-0.199c7.222-5.856,15.534-10.181,23.828-14.337C271.48,193.814,273.447,196.242,275.369,198.72z
		 M267.315,189.057c0.261,0.289,0.518,0.586,0.776,0.877c-8.322,4.185-16.606,8.566-23.856,14.452
		c-1.026-1.034-2.074-2.047-3.159-3.016c3.381-3.031,6.75-6.075,10.18-9.053c2.436-2.112,4.905-4.183,7.436-6.181
		c0.435-0.344,1.865-1.64,3.265-2.64C263.816,185.285,265.597,187.155,267.315,189.057z M260.334,181.988
		c-2.548,1.777-5.12,4.383-6.254,5.318c-4.971,4.099-9.729,8.439-14.522,12.741c-1.785-1.5-3.636-2.917-5.563-4.204
		c0.239,0.012,0.488-0.069,0.708-0.292c6.263-6.337,12.021-13.461,19.414-18.487C256.31,178.542,258.368,180.21,260.334,181.988z
		 M243.446,171.645c3.029,1.194,5.99,2.519,8.847,4.245c-7.166,5.066-12.85,12.018-19.006,18.247
		c-0.359,0.363-0.347,0.802-0.153,1.146c-1.33-0.855-2.687-1.667-4.077-2.408c2.497-3.416,4.591-7.151,6.819-10.734
		C237.155,180.084,240.476,173.14,243.446,171.645z M234.101,168.143c0.876,0.336,1.74,0.665,2.588,0.977
		c1.562,0.575,3.108,1.136,4.644,1.711c-2.062,1.855-3.741,4.987-4.85,6.651c-3.162,4.744-5.817,9.887-9.206,14.481
		c-1.574-0.769-3.183-1.462-4.821-2.071c1.57-3.885,3.332-7.691,5.194-11.443C229.3,175.125,231.13,170.552,234.101,168.143z
		 M232.015,167.338c-2.468,2.39-4.043,6.12-5.55,9.031c-2.166,4.183-4.129,8.492-5.889,12.866c-1.146-0.375-2.3-0.719-3.472-1.009
		c3.166-7.681,5.104-15.753,7.692-23.627C227.264,165.49,229.675,166.431,232.015,167.338z M222.916,163.932
		c-2.612,7.943-4.506,16.119-7.76,23.844c-1.698-0.347-3.422-0.603-5.169-0.76c2.595-8.32,2.396-17.121,3.839-25.662
		C216.868,161.983,219.919,162.899,222.916,163.932z M206.419,161.272c0.007-0.271,0.007-0.542,0.013-0.812
		c1.796,0.033,3.612,0.227,5.438,0.527c-1.434,8.623-1.233,17.513-3.939,25.889c-1.145-0.051-2.295-0.072-3.456-0.036
		C205.361,178.353,206.205,169.841,206.419,161.272z M207.014,69.391c-0.446-0.258-0.886-0.398-1.314-0.48
		c-0.453-2.389-1.029-4.736-1.772-7.018c-0.825-2.535-2.065-5.037-3.863-6.896c-3.837-5.507-7.311-11.266-11.656-16.375
		c2.297-0.217,4.593-0.431,6.89-0.635c8.662,10.08,15.422,21.599,22.322,32.909C213.71,71.346,209.951,71.085,207.014,69.391z
		 M219.562,70.619c0.019-0.187-0.004-0.383-0.129-0.588c-6.752-11.062-13.396-22.288-21.73-32.254
		c0.834-0.07,1.668-0.131,2.502-0.197c8.561,10.073,14.401,22.354,23.599,31.881c0.075,0.078,0.157,0.116,0.237,0.163
		C222.564,70.016,221.062,70.363,219.562,70.619z M225.303,69.281c0.245-0.354,0.301-0.835-0.086-1.234
		c-8.819-9.138-14.567-20.828-22.587-30.659c1.322-0.098,2.646-0.187,3.967-0.269c7.97,10.098,14.717,21.299,24.334,29.966
		c0.137,0.122,0.28,0.188,0.428,0.228C229.504,67.971,227.453,68.666,225.303,69.281z M233.569,66.517
		c-0.363,0.133-0.76,0.275-1.146,0.414c0.29-0.354,0.364-0.861-0.078-1.261c-9.211-8.301-15.791-18.928-23.334-28.685
		c2.075-0.111,4.15-0.191,6.227-0.248c6.597,9.797,14.316,19.314,23.416,26.783c0.988,0.811,2.411-0.596,1.414-1.414
		c-8.676-7.121-16.089-16.096-22.451-25.404c0.895-0.014,1.789-0.041,2.683-0.04c1.617,0.003,4.583,0.159,8.127,0.542
		c4.888,8.469,10.53,16.568,17.473,23.451C242.037,63.13,237.712,65.011,233.569,66.517z M252.395,55.296
		c-1.432,1.566-3.073,2.948-4.826,4.206c-6.584-6.472-11.971-14.047-16.656-22.002c3.552,0.462,7.463,1.145,11.1,2.106
		c4.214,4.593,7.592,9.861,10.775,15.229C252.655,54.99,252.538,55.141,252.395,55.296z M254.086,53.103
		c-2.577-4.311-5.306-8.543-8.484-12.414C252.887,43.197,257.858,47.12,254.086,53.103z M143.688,25.443
		c17.163-7.5,36.08-11.164,54.5-13.99c15.315-2.35,34.585-6.863,49.327-0.254c10.846,4.863,12.106,16.15,10.631,26.973
		c-1.262-1.076-2.69-2.006-4.219-2.828c0.771-1.267,1.626-2.475,2.622-3.52c0.892-0.932-0.521-2.348-1.414-1.414
		c-1.146,1.202-2.122,2.59-2.998,4.041c-1.582-0.729-3.239-1.359-4.929-1.898c0.463-0.773,1.039-1.475,1.831-2.033
		c1.044-0.738,0.047-2.473-1.01-1.727c-1.238,0.875-2.09,1.959-2.753,3.176c-1.519-0.426-3.04-0.79-4.526-1.104
		c0.864-0.916,1.758-1.807,2.646-2.695c0.913-0.912-0.501-2.326-1.414-1.414c-1.193,1.195-2.385,2.398-3.51,3.657
		c-1.577-0.292-3.091-0.533-4.482-0.741c-0.024-0.004-0.048-0.006-0.071-0.009c0.471-0.504,0.948-1.001,1.439-1.493
		c0.912-0.912-0.502-2.326-1.414-1.414c-0.847,0.847-1.665,1.707-2.44,2.604c-1.701-0.201-3.402-0.371-5.107-0.479
		c0.629-0.771,1.248-1.55,1.812-2.373c0.73-1.067-1.004-2.067-1.727-1.01c-0.781,1.141-1.661,2.204-2.541,3.269
		c-1.634-0.065-3.267-0.107-4.9-0.106c0.131-0.231,0.277-0.454,0.398-0.69c0.587-1.146-1.14-2.158-1.728-1.01
		c-0.305,0.594-0.648,1.164-1.014,1.72c-1.68,0.03-3.36,0.085-5.041,0.166c0.422-0.511,0.823-1.044,1.204-1.606
		c0.726-1.072-1.008-2.072-1.728-1.01c-0.689,1.02-1.466,1.935-2.321,2.768c-2.588,0.163-5.176,0.369-7.759,0.601
		c0.967-1.086,2.082-2.03,3.41-2.731c1.142-0.603,0.13-2.328-1.01-1.727c-2.113,1.116-3.79,2.793-5.15,4.713
		c-1.233,0.117-2.467,0.237-3.696,0.359c0.67-0.686,1.345-1.364,2.021-2.041c0.913-0.912-0.501-2.326-1.413-1.414
		c-1.234,1.234-2.456,2.479-3.642,3.756c-0.774,0.076-1.55,0.152-2.323,0.228c-0.66,0.063-1.32,0.114-1.98,0.174
		c0.005-0.007,0.011-0.015,0.016-0.021c0.73-1.067-1.004-2.067-1.727-1.01c-0.297,0.434-0.617,0.849-0.938,1.263
		c-2.216,0.184-4.434,0.354-6.651,0.511c0.351-0.449,0.723-0.883,1.12-1.292c0.898-0.926-0.514-2.342-1.414-1.414
		c-0.858,0.885-1.616,1.852-2.266,2.888c-1.648,0.114-3.298,0.229-4.947,0.345c0.793-0.879,1.548-1.789,2.207-2.752
		c0.73-1.066-1.003-2.066-1.727-1.01c-0.977,1.426-2.17,2.767-3.47,3.979c-0.465,0.035-0.93,0.066-1.394,0.102
		c-1.219,0.094-2.443,0.199-3.668,0.301c0.832-1.051,1.59-2.16,2.219-3.371c0.595-1.143-1.131-2.154-1.727-1.01
		c-0.893,1.717-2.043,3.214-3.311,4.625c-1.487,0.134-2.977,0.271-4.467,0.421c0.652-0.813,1.311-1.624,2.04-2.372
		c0.901-0.923-0.512-2.338-1.414-1.414c-1.247,1.277-2.292,2.729-3.452,4.079c-1.658,0.185-3.317,0.381-4.974,0.599l2.532-2.533
		c0.912-0.912-0.502-2.326-1.414-1.414c-1.461,1.462-2.924,2.924-4.385,4.385c-0.006,0.006-0.007,0.013-0.013,0.02
		c-1.802,0.266-3.6,0.549-5.39,0.87c1.201-1.273,2.328-2.601,3.318-4.062c0.727-1.071-1.008-2.07-1.727-1.01
		c-1.225,1.807-2.689,3.373-4.229,4.912c-0.221,0.222-0.301,0.472-0.289,0.711c-1.672,0.335-3.338,0.689-4.994,1.086
		c0.748-0.878,1.504-1.75,2.312-2.574c0.904-0.921-0.509-2.336-1.414-1.414c-1.506,1.533-2.837,3.22-4.248,4.836
		c-1.806,0.488-3.598,1.021-5.373,1.602c-0.777,0.254-1.574,0.529-2.377,0.82C126.385,34.017,135.092,29.199,143.688,25.443z
		 M111.57,59.635c-0.945-1.974-0.506-3.695,0.553-5.16c2.614,4.119,5.271,8.195,8.306,11.996
		C116.69,65.393,113.41,63.478,111.57,59.635z M123.636,67.201c-3.817-4.426-6.989-9.312-10.117-14.254
		c0.424-0.379,0.882-0.728,1.347-1.061c0.025,0.049,0.051,0.098,0.087,0.146c3.917,5.344,8.09,10.488,12.21,15.674
		C125.986,67.564,124.805,67.408,123.636,67.201z M137.835,68.556c-5.178-6.526-11.1-12.413-15.812-19.313
		c-0.722-1.058-2.456-0.059-1.727,1.01c4.428,6.484,9.89,12.105,14.854,18.156c-1.744-0.109-3.486-0.236-5.226-0.406
		c-4.448-5.635-9.001-11.186-13.248-16.979c-0.058-0.077-0.121-0.14-0.188-0.195c0.214-0.127,0.428-0.255,0.635-0.371
		c2.475-1.396,5.115-2.551,7.859-3.527c0.02,0.188,0.075,0.378,0.221,0.555c5.554,6.713,9.965,14.644,15.803,21.186
		C139.951,68.636,138.893,68.604,137.835,68.556z M143.805,68.748c-6.469-6.723-11.1-15.252-16.994-22.439
		c1.141-0.367,2.3-0.699,3.469-1.011c8.051,6.917,14.159,15.62,21.16,23.536C148.894,68.823,146.35,68.803,143.805,68.748z
		 M156.742,68.845c-0.893,0-1.787-0.005-2.682-0.006c-0.038-0.066-0.061-0.135-0.118-0.198
		c-7.188-7.923-13.306-16.796-21.305-23.937c1.593-0.374,3.208-0.694,4.829-0.991c7.586,7.74,13.814,16.623,20.516,25.126
		C157.567,68.841,157.154,68.845,156.742,68.845z M160.217,68.824c0.023-0.059,0.047-0.117,0.07-0.176
		c0.134-0.332-0.035-0.729-0.256-0.973c-0.248-0.271-0.496-0.545-0.743-0.816c-0.173-0.19-0.367-0.266-0.561-0.291
		c-6.16-7.877-11.958-16.04-18.858-23.277c1.684-0.273,3.375-0.514,5.061-0.729c8.361,7.931,13.34,18.943,22.277,26.266
		C164.871,68.784,162.534,68.804,160.217,68.824z M176.526,69.531c-2.248-0.346-4.531-0.529-6.824-0.628
		c0.082-0.287,0.009-0.604-0.318-0.856c-9.004-6.975-13.967-17.725-21.885-25.784c1.605-0.185,3.198-0.351,4.781-0.509
		c-0.123,0.314-0.088,0.678,0.247,0.979c8.855,7.938,14.801,18.635,24.193,25.999C176.656,68.998,176.587,69.262,176.526,69.531z
		 M154.203,41.562c1.287-0.125,2.555-0.244,3.811-0.361c6.539,7.561,13.334,14.965,20.905,21.506
		c-0.636,1.245-1.177,2.563-1.616,3.951C168.406,59.494,162.639,49.229,154.203,41.562z M177.346,159.017
		c0.354,8.102,0.881,16.195,1.377,24.288c0.074,1.222,0.146,2.442,0.219,3.665c-0.729,0.057-1.452,0.146-2.176,0.23
		c-1.314-9.236-2.307-18.531-4.455-27.62C173.979,159.348,175.658,159.151,177.346,159.017z M170.328,159.88
		c2.165,9.074,3.164,18.354,4.471,27.58c-0.746,0.113-1.492,0.221-2.23,0.359c-4.549-7.888-4.909-18.158-7.037-27.042
		C167.12,160.435,168.721,160.143,170.328,159.88z M163.582,161.214c2.156,8.874,2.554,19.004,6.93,27.027
		c-1.815,0.406-3.604,0.913-5.372,1.479c-3.774-8.518-6.28-17.482-8.731-26.49C158.772,162.468,161.164,161.79,163.582,161.214z
		 M154.51,163.871c2.453,9.006,4.979,17.963,8.729,26.484c-1.213,0.431-2.409,0.908-3.596,1.41
		c-4.02-8.416-7.827-16.927-12.539-24.994C149.536,165.709,152.003,164.736,154.51,163.871z M145.271,167.594
		c4.722,8.055,8.529,16.559,12.543,24.971c-1.561,0.715-3.092,1.5-4.6,2.331c-5.021-7.706-9.633-15.658-14.355-23.556
		c-0.089-0.148-0.198-0.253-0.316-0.33C140.749,169.797,142.986,168.644,145.271,167.594z M136.998,171.851
		c0.001,0.16,0.031,0.326,0.135,0.499c4.719,7.891,9.328,15.838,14.344,23.538c-0.887,0.521-1.758,1.072-2.622,1.637
		c-5.753-7.549-11.942-14.956-19.247-21.038C132.011,174.847,134.473,173.292,136.998,171.851z M127.917,177.663
		c7.322,6.038,13.537,13.431,19.284,20.97c-1.126,0.779-2.235,1.588-3.323,2.427c-6.836-6.191-13.829-12.215-20.176-18.922
		c-0.889-0.938-2.301,0.478-1.414,1.414c6.29,6.647,13.215,12.622,19.993,18.756c-1.12,0.911-2.222,1.848-3.292,2.821
		c-7.99-5.433-15.602-11.487-22.939-17.769C119.772,183.868,123.745,180.625,127.917,177.663z M114.6,188.744
		c7.33,6.274,14.94,12.335,22.908,17.786c-1.76,1.683-3.457,3.438-5.07,5.275c-8.249-5.225-16.998-9.741-24.082-16.539
		C110.358,193.021,112.438,190.844,114.6,188.744z M107.031,196.768c7.096,6.785,15.816,11.344,24.076,16.559
		c-0.848,1.016-1.674,2.049-2.475,3.104c-9.68-3.029-19.421-6.077-27.818-11.892C102.775,201.867,104.858,199.28,107.031,196.768z
		 M99.647,206.159c8.359,5.835,18.061,8.943,27.723,11.969c-1.42,1.973-2.761,4.001-4.008,6.085
		c-9.74-1.177-19.653-6.723-27.236-12.826C97.25,209.611,98.432,207.873,99.647,206.159z M95.078,213.096
		c7.67,6.108,17.414,11.532,27.207,12.985c-0.658,1.165-1.297,2.339-1.897,3.532c-9.743-3.05-19.288-6.679-28.738-10.548
		C92.725,217.038,93.883,215.057,95.078,213.096z M90.728,220.834c9.459,3.882,19.012,7.523,28.762,10.592
		c-0.48,1.016-0.942,2.038-1.381,3.07c-10.004-3.174-20.551-4.575-30.924-5.989C88.266,225.902,89.453,223.348,90.728,220.834z
		 M86.435,230.404c10.368,1.416,20.916,2.805,30.928,5.954c-0.7,1.771-1.357,3.559-1.926,5.367
		c-10.527-1.915-21.369-2.283-32.079-2.36C84.244,236.325,85.283,233.343,86.435,230.404z M82.772,241.36
		c10.705,0.062,21.562,0.387,32.087,2.288c-0.622,2.173-1.151,4.366-1.573,6.573c-10.793-0.814-21.666-0.456-32.478-0.015
		C81.332,247.22,81.99,244.268,82.772,241.36z M80.464,252.223c10.809-0.443,21.68-0.813,32.471-0.024
		c-0.253,1.556-0.455,3.116-0.604,4.679c-10.98,0.301-21.771,2.68-32.727,3.314C79.776,257.531,80.061,254.873,80.464,252.223z
		 M79.497,262.195c10.938-0.622,21.71-2.994,32.67-3.314c-0.102,1.564-0.153,3.131-0.146,4.693
		c-10.793,2.756-21.567,5.595-32.482,7.831C79.376,268.345,79.365,265.271,79.497,262.195z M79.664,273.418
		c10.888-2.216,21.635-5.038,32.396-7.79c0.062,1.657,0.181,3.312,0.374,4.958c0.089,0.764,0.192,1.526,0.305,2.291
		c-10.828,2.178-21.493,5.129-32.437,6.701C80.021,277.533,79.814,275.478,79.664,273.418z M80.572,281.539
		c10.957-1.592,21.639-4.506,32.48-6.689c0.259,1.508,0.557,3.019,0.889,4.526c-10.259,3.948-21.471,7.887-32.561,6.632
		C81.076,284.524,80.809,283.034,80.572,281.539z M81.826,288.05c11.152,1.006,22.242-2.755,32.572-6.718
		c0.406,1.671,0.842,3.34,1.34,5.003c-9.82,4.656-21.215,7.979-32.131,8.452C82.931,292.562,82.343,290.313,81.826,288.05z
		 M84.219,296.767c10.965-0.566,22.227-3.871,32.117-8.512c0.146,0.458,0.289,0.917,0.443,1.373
		c-9.832,5.062-19.646,10.287-30.326,13.281C85.641,300.886,84.894,298.836,84.219,296.767z M87.231,304.771
		c10.588-3.001,20.347-8.156,30.107-13.185c-0.276,0.943-0.217,1.976,0.139,2.88c-8.998,5.883-17.719,12.148-26.164,18.802
		C89.812,310.499,88.46,307.658,87.231,304.771z M95.075,319.661c-0.978-1.52-1.897-3.067-2.788-4.632
		c8.498-6.711,17.284-13.018,26.352-18.938c0.238,0.2,0.496,0.38,0.786,0.511c0.367,0.873,0.761,1.735,1.153,2.601
		c-7.994,7.457-16.218,14.662-25.179,20.939C95.292,319.98,95.18,319.824,95.075,319.661z M96.513,321.798
		c8.866-6.219,17.03-13.32,24.956-20.69c0.377,0.786,0.75,1.573,1.146,2.353c-7.117,8.095-15.133,15.313-23.033,22.635
		C98.521,324.691,97.505,323.253,96.513,321.798z M104.104,331.686c-1.131-1.309-2.221-2.65-3.289-4.011
		c7.799-7.231,15.718-14.356,22.781-22.315c0.441,0.823,0.89,1.645,1.354,2.456c0.068,0.598,0.283,1.188,0.609,1.723
		C118.639,317.139,111.267,324.312,104.104,331.686z M105.426,333.197c7.159-7.375,14.533-14.549,21.458-22.146
		c0.711,1.142,1.454,2.262,2.214,3.367c-6.939,7.333-13.066,15.38-19.775,22.92C107.99,335.989,106.688,334.609,105.426,333.197z
		 M110.733,338.755c6.631-7.451,12.691-15.397,19.531-22.663c1.061,1.477,2.158,2.925,3.295,4.338
		c-6.559,7.107-12.883,14.448-19.942,21.062C112.641,340.597,111.682,339.682,110.733,338.755z M115.101,342.844
		c6.979-6.548,13.241-13.804,19.725-20.838c0.929,1.107,1.88,2.195,2.854,3.257c-6.113,7.08-12.103,14.265-18.789,20.812
		C117.603,345.025,116.344,343.944,115.101,342.844z M120.466,347.333c6.606-6.491,12.537-13.601,18.587-20.607
		c0.418,0.436,0.834,0.872,1.26,1.3c-5.215,7.523-10.173,15.274-16.623,21.789C122.598,349.009,121.531,348.172,120.466,347.333z
		 M125.335,351.003c6.348-6.464,11.272-14.109,16.418-21.556c0.906,0.867,1.826,1.718,2.766,2.543
		c-5.363,7.073-10.224,14.513-16.244,21.05C127.284,352.376,126.307,351.693,125.335,351.003z M129.971,354.15
		c5.925-6.492,10.754-13.836,16.047-20.845c1.098,0.918,2.215,1.81,3.354,2.665c-4.32,7.438-9.433,14.318-14.838,21.014
		C132.99,356.074,131.473,355.123,129.971,354.15z M141.926,361.038c-1.909-0.967-3.787-1.992-5.645-3.05
		c5.347-6.638,10.419-13.462,14.713-20.825c1.215,0.865,2.447,1.699,3.705,2.49C150.975,346.672,148.153,355.808,141.926,361.038z
		 M143.865,362c5.98-5.505,8.796-14.264,12.537-21.298c1.59,0.939,3.209,1.825,4.861,2.639c-2.549,7.644-4.895,15.693-9.95,22.02
		C148.793,364.319,146.312,363.19,143.865,362z M153.246,366.119c4.889-6.389,7.295-14.316,9.838-21.927
		c1.612,0.734,3.245,1.429,4.913,2.036c-0.208,7.91-2.787,15.942-6.474,22.874C158.729,368.206,155.975,367.196,153.246,366.119z
		 M163.462,369.715c3.643-6.956,6.197-14.902,6.518-22.8c2.289,0.752,4.623,1.386,7.006,1.879
		c-0.21,3.924-2.001,10.975-2.235,12.167c-0.731,3.721-1.536,7.438-2.452,11.122C169.329,371.395,166.38,370.604,163.462,369.715z
		 M181.035,373.812c-2.273-0.369-4.538-0.803-6.793-1.289c1.359-5.443,2.496-10.955,3.443-16.478
		c0.211-1.227,1.002-4.229,1.181-6.896c0.845,0.147,1.692,0.283,2.547,0.397c0.059,0.06,0.123,0.111,0.185,0.166
		C181.617,357.749,181.171,365.776,181.035,373.812z M183.031,374.126c0.124-7.812,0.551-15.617,0.567-23.429
		c0.454,0.079,0.94,0.091,1.46,0.004c1.854-0.31,3.727-0.696,5.61-1.134c2.936,8.111,3.679,17.182,3.808,25.731
		C190.651,375.08,186.832,374.683,183.031,374.126z M196.477,375.394c-0.132-8.738-0.938-17.98-3.884-26.299
		c1.783-0.453,3.575-0.948,5.374-1.51c2.942,9.197,5.611,18.479,7.896,27.863C202.739,375.553,199.607,375.524,196.477,375.394z
		 M207.909,375.383c-2.315-9.572-5.039-19.037-8.042-28.415c2.04-0.677,4.083-1.411,6.122-2.216
		c3.897,9.822,7.471,19.788,10.583,29.886C213.698,374.99,210.808,375.238,207.909,375.383z M218.585,374.376
		c-3.154-10.261-6.784-20.383-10.748-30.359c2.376-0.981,4.744-2.041,7.094-3.188c3.63,10.974,10.002,20.711,14.348,31.378
		C225.775,373.125,222.209,373.856,218.585,374.376z M231.217,371.702c-4.37-10.74-10.802-20.541-14.421-31.598
		c2.321,1.47,5.582-0.013,6.207-2.395c6.753,9.452,11.514,20.285,18.784,29.34c0.808,1.006,2.214-0.419,1.414-1.414
		c-7.372-9.18-12.108-20.25-19.076-29.756c1.53-0.906,3.051-1.836,4.548-2.808c0.271,0.475,0.598,0.835,0.953,1.115
		c7.702,9.394,14.522,19.476,22.528,28.625C245.601,366.62,238.57,369.603,231.217,371.702z M253.89,361.774
		c-7.589-8.613-14.086-18.089-21.248-27.042c1.245-0.343,2.391-1.271,2.931-2.504c3.36,3.363,7.215,6.233,11.026,9.07
		c5.623,4.188,12.345,8.234,16.297,14.201C260.021,357.782,257.009,359.868,253.89,361.774z M264.436,354.235
		c-7.058-10.508-20.145-15.579-28.76-24.814c-0.064-0.198-0.128-0.396-0.229-0.596c-0.059-0.115-0.113-0.231-0.171-0.347
		c1.582-1.177,3.123-2.4,4.641-3.649c6.457,5.418,13.162,10.508,20.072,15.341c2.273,1.592,4.503,3.25,6.775,4.845
		c1.137,0.797,2.273,1.591,3.405,2.392c0.206,0.145,0.551,0.476,0.887,0.763C268.95,350.314,266.731,352.328,264.436,354.235z
		 M277.419,340.977c-1.482,1.877-3.051,3.662-4.662,5.396c-2.247-2.188-6.893-4.425-8.415-5.516
		c-7.787-5.581-15.518-11.183-22.875-17.314c1.814-1.545,3.58-3.137,5.285-4.775c10.174,7.518,21.053,13.99,31.442,21.198
		C277.935,340.302,277.682,340.645,277.419,340.977z M279.411,338.384c-10.308-7.162-21.125-13.564-31.227-21.019
		c2.049-2.045,4.014-4.152,5.862-6.328c10.248,6.618,21.241,11.93,31.889,17.865C283.889,332.166,281.706,335.33,279.411,338.384z
		 M286.982,327.196c-10.565-5.894-21.475-11.167-31.656-17.713c1.484-1.819,2.912-3.671,4.235-5.571
		c10.628,5.129,20.438,11.782,31.052,16.94C289.462,323.003,288.246,325.115,286.982,327.196z M291.552,319.091
		c-10.546-5.135-20.306-11.737-30.862-16.848c1.056-1.594,2.059-3.21,2.99-4.854c10.719,3.176,22.889,6.484,31.867,13.213
		C294.325,313.48,292.985,316.311,291.552,319.091z M296.337,308.708c-8.905-6.449-20.599-9.827-31.135-12.95
		c0.516-0.805,0.787-1.751,0.743-2.652c0.256-0.525,0.487-1.06,0.729-1.59c10.192,4.889,20.384,9.846,30.854,14.117
		C297.144,306.663,296.749,307.688,296.337,308.708z M298.203,303.762c-10.425-4.253-20.57-9.201-30.719-14.067
		c0.595-1.406,1.126-2.83,1.62-4.263c10.753,2.98,20.724,8.057,31.075,12.156C299.579,299.661,298.924,301.722,298.203,303.762z
		 M300.722,295.663c-10.324-4.089-20.266-9.147-30.987-12.136c0.291-0.936,0.553-1.877,0.799-2.822
		c0.064,0.035,0.117,0.08,0.196,0.104c10.461,3.062,20.58,7.337,31.212,9.806C301.57,292.305,301.174,293.99,300.722,295.663z
		 M302.346,288.655c-10.585-2.474-20.666-6.725-31.086-9.775c-0.098-0.028-0.183-0.021-0.271-0.022
		c0.34-1.493,0.619-2.998,0.842-4.513c10.496,3.079,20.779,6.841,31.274,9.923C302.88,285.733,302.635,287.198,302.346,288.655z
		 M303.399,282.27c-10.503-3.095-20.796-6.86-31.308-9.933c0.156-1.404,0.254-2.819,0.306-4.24
		c10.687,1.482,21.095,4.44,31.714,6.29C303.983,277.024,303.746,279.653,303.399,282.27z M304.188,272.4
		c-10.634-1.846-21.056-4.81-31.758-6.299c-0.001-2.017-0.121-4.046-0.35-6.086c10.637,1.615,21.242,3.434,31.956,4.354
		C304.211,267.052,304.261,269.729,304.188,272.4z"/>
</g>
<g>
</g>
<g>
</g>
<g>
</g>
<g>
</g>
<g>
</g>
<g>
</g>
<g>
</g>
<g>
</g>
<g>
</g>
<g>
</g>
<g>
</g>
<g>
</g>
<g>
</g>
<g>
</g>
<g>
</g>
</svg>
