<?xml version="1.0" encoding="iso-8859-1"?>
<!-- Generator: Adobe Illustrator 16.0.0, SVG Export Plug-In . SVG Version: 6.00 Build 0)  -->
<!DOCTYPE svg PUBLIC "-//W3C//DTD SVG 1.1//EN" "http://www.w3.org/Graphics/SVG/1.1/DTD/svg11.dtd">
<svg version="1.1" id="Capa_1" xmlns="http://www.w3.org/2000/svg" xmlns:xlink="http://www.w3.org/1999/xlink" x="0px" y="0px"
	 width="431.889px" height="431.889px" viewBox="0 0 431.889 431.889" style="enable-background:new 0 0 431.889 431.889;"
	 xml:space="preserve">
<g>
	<g>
		<path fill="#98f698" d="M266.549,234.708c-7.531,0.67-15.103,1.278-22.666,1.333c-1.655,0.012-2.772,0.848-3.365,1.971
			c-1.582,0.708-2.632,2.299-1.825,4.428c2.244,5.919,5.686,10.875,12.178,12.32c6.315,1.407,13.273-0.883,19.409-2.193
			c2.238-0.479,3.205-2.886,2.794-4.921c-0.688-3.41-1.462-6.73-2.667-10C269.827,236.073,268.407,234.543,266.549,234.708z
			 M252.096,244.08c-0.341,0.465-0.899,1.05-1.438,1.684c-0.792-0.459-1.529-1.054-2.189-1.832c1.283-0.044,2.567-0.101,3.853-0.168
			C252.245,243.868,252.172,243.974,252.096,244.08z M253.934,246.883c-0.429-0.064-0.85-0.149-1.257-0.265
			c0.102-0.124,0.184-0.228,0.209-0.26c0.626-0.843,1.243-1.689,1.857-2.54c0.05-0.068,0.097-0.141,0.146-0.209
			c0.43-0.026,0.857-0.062,1.288-0.089C255.412,244.629,254.66,245.748,253.934,246.883z M256.24,247.018
			c0.812-1.237,1.646-2.462,2.497-3.674c0.831-0.062,1.662-0.132,2.493-0.197c-1.008,1.207-1.965,2.454-2.893,3.729
			C257.627,246.957,256.924,247.008,256.24,247.018z M261.181,246.419c0.842-1.085,1.715-2.145,2.616-3.18
			c0.234,0.818,0.456,1.641,0.657,2.468C263.362,245.967,262.268,246.208,261.181,246.419z"/>
		<path fill="#98f698" d="M307.359,250.439c0.626,1.698,1.96,2.926,3.855,2.937c7.769,0.046,15.63,0.514,23.063-2.143
			c1.871-0.669,3.646-2.787,2.794-4.921c-2.093-5.243-4.892-9.464-10.456-11.279c-5.219-1.703-11.363-0.084-16.734-0.324
			c-1.357-0.061-2.348,0.456-2.988,1.244c-1.511,0.776-2.628,2.37-2.201,4.486C305.38,243.848,306.154,247.169,307.359,250.439z
			 M325.654,243.458c0.591,0.355,1.118,0.8,1.593,1.335c-0.879,0.154-1.762,0.263-2.646,0.354
			C324.947,244.582,325.299,244.018,325.654,243.458z M322.221,242.439c0.556,0.043,1.072,0.126,1.556,0.248
			c-0.555,0.877-1.106,1.754-1.629,2.649c-0.686,0.035-1.369,0.062-2.056,0.078C320.792,244.417,321.503,243.425,322.221,242.439z
			 M318.592,242.499c0.39-0.018,0.778-0.03,1.168-0.048c-0.713,0.989-1.413,1.987-2.105,2.99c-0.399,0-0.798,0.004-1.197,0
			C317.126,244.429,317.844,243.454,318.592,242.499z M315.997,242.607c-0.664,0.897-1.299,1.817-1.884,2.773
			c-0.261-0.883-0.501-1.771-0.723-2.663C314.26,242.695,315.128,242.649,315.997,242.607z"/>
		<path fill="#98f698" d="M148.919,336.534c-13.066,2.65-20.042,15.072-17.532,27.409c0.461,11.446,11.599,16.951,22.31,15.738
			c12.547-1.422,23.334-10.983,22.023-24.312C174.362,341.543,162.043,333.873,148.919,336.534z M167.753,355.869
			c-1.72-0.195-3.452-0.141-5.191,0.009c-0.146-0.458-0.328-0.904-0.549-1.337c1.544-0.914,3.138-1.716,4.868-2.172
			C167.3,353.454,167.592,354.625,167.753,355.869z M163.517,347.368c0.984,0.913,1.824,1.995,2.509,3.207
			c-1.802,0.535-3.456,1.365-5.08,2.312c-0.347-0.438-0.726-0.854-1.135-1.237C160.925,350.123,162.133,348.671,163.517,347.368z
			 M150.243,344.443c0.413-0.117,0.822-0.2,1.231-0.282c0.115,1.301,0.148,2.604,0.143,3.909c-0.396,0.09-0.786,0.189-1.171,0.309
			c-0.357-1.22-0.646-2.461-0.922-3.703C149.762,344.597,149.996,344.513,150.243,344.443z M147.64,345.389
			c0.283,1.244,0.588,2.482,0.951,3.7c-0.332,0.159-0.654,0.331-0.969,0.519c-0.841-0.93-1.643-1.894-2.404-2.887
			C145.965,346.224,146.774,345.78,147.64,345.389z M143.636,347.939c0.754,0.981,1.541,1.938,2.367,2.86
			c-0.146,0.136-0.283,0.283-0.421,0.43c-1.269-0.406-2.503-0.866-3.702-1.397C142.405,349.16,142.977,348.518,143.636,347.939z
			 M140.745,351.519c1.165,0.528,2.361,0.994,3.585,1.405c-0.151,0.275-0.29,0.562-0.413,0.861c-1.322-0.186-2.64-0.404-3.945-0.676
			C140.193,352.562,140.457,352.034,140.745,351.519z M139.354,355.009c1.341,0.278,2.688,0.518,4.046,0.716
			c-0.038,0.37-0.048,0.739-0.028,1.106c-1.469,0.269-2.948,0.509-4.425,0.63C139.013,356.619,139.157,355.802,139.354,355.009z
			 M139.381,362.375c0.034-0.783-0.138-1.432-0.427-1.977c-0.031-0.323-0.028-0.637-0.042-0.955c1.61-0.126,3.223-0.382,4.824-0.667
			c0.186,0.599,0.426,1.185,0.721,1.746c-1.648,0.89-3.354,1.664-5.066,2.436C139.387,362.764,139.374,362.578,139.381,362.375z
			 M139.884,366.119c0.062-0.372,0.06-0.772-0.008-1.197c1.905-0.859,3.814-1.708,5.648-2.702c0.226,0.304,0.461,0.597,0.705,0.876
			c0.223,0.254,0.456,0.491,0.696,0.718c-1.823,1.648-3.733,3.202-5.578,4.827C140.729,367.921,140.22,367.093,139.884,366.119z
			 M142.844,369.981c1.887-1.658,3.842-3.241,5.698-4.935c0.18,0.111,0.357,0.226,0.541,0.325c-0.951,1.991-1.659,4.105-2.311,6.235
			C145.302,371.305,143.97,370.759,142.844,369.981z M153.004,371.661c-1.438,0.231-2.871,0.308-4.234,0.215
			c0.589-1.954,1.244-3.896,2.124-5.72c0.952,0.307,1.936,0.479,2.911,0.501C153.483,368.312,153.246,369.986,153.004,371.661z
			 M153.597,348c-0.002-1.374-0.041-2.745-0.161-4.117c0.946-0.063,1.875-0.032,2.775,0.081c-0.711,1.369-1.31,2.806-1.83,4.271
			C154.129,348.134,153.87,348.05,153.597,348z M155.073,371.23c0.229-1.6,0.466-3.194,0.805-4.771
			c0.229-0.045,0.461-0.072,0.686-0.135c0.472,1.313,0.837,2.661,1.162,4.021C156.859,370.699,155.968,370.993,155.073,371.23z
			 M156.127,349.302c0.584-1.693,1.277-3.348,2.129-4.907c1.321,0.381,2.558,0.962,3.676,1.714
			c-1.375,1.312-2.576,2.773-3.696,4.303C157.569,349.972,156.862,349.593,156.127,349.302z M159.567,369.492
			c-0.33-1.319-0.703-2.623-1.164-3.9c0.362-0.193,0.719-0.405,1.053-0.654c1.129,0.839,2.306,1.607,3.545,2.271
			C161.961,368.085,160.799,368.846,159.567,369.492z M164.524,365.745c-1.263-0.633-2.457-1.377-3.599-2.203
			c0.46-0.56,0.871-1.185,1.203-1.896c1.43,0.518,2.897,0.918,4.357,1.346C165.959,363.983,165.292,364.901,164.524,365.745z
			 M167.278,361.136c-1.504-0.448-3.021-0.853-4.5-1.379c0.131-0.646,0.179-1.286,0.145-1.917c1.654-0.135,3.302-0.174,4.938,0.053
			C167.825,359.034,167.615,360.113,167.278,361.136z"/>
		<path fill="#98f698" d="M102.39,335.904c-14.483,0.415-23.616,13.306-21.365,27.034c0.019,0.114,0.058,0.205,0.083,0.312
			c0.782,8.501,9.498,14.198,17.897,15.569c11.676,1.906,23.291-3.952,24.898-16.434
			C125.683,348.576,117.075,335.483,102.39,335.904z M101.564,343.99c0.328,1.705,0.562,3.43,0.951,5.123
			c-0.222,0.028-0.442,0.055-0.665,0.1c-0.13,0.021-0.254,0.054-0.382,0.078l-0.024,0.006c-0.274,0.056-0.545,0.126-0.812,0.208
			c-0.787-1.574-1.469-3.199-2.196-4.808C99.427,344.364,100.471,344.125,101.564,343.99z M96.59,345.448
			c0.746,1.632,1.441,3.285,2.234,4.892c-0.101,0.062-0.201,0.115-0.297,0.182c-0.189,0.111-0.355,0.253-0.537,0.374l-4.191-3.668
			C94.649,346.539,95.584,345.942,96.59,345.448z M92.336,348.597c1.191,1.042,2.382,2.084,3.573,3.127
			c-1.665-0.544-3.365-0.937-5.093-1.22C91.259,349.822,91.781,349.194,92.336,348.597z M88.589,357.106
			c0.132-1.693,0.558-3.291,1.218-4.758c2.013,0.289,4.006,0.712,5.923,1.385c-0.091,0.188-0.175,0.379-0.249,0.572
			c-2.319,0.797-4.551,1.825-6.684,3.097C88.733,357.3,88.664,357.201,88.589,357.106z M94.941,356.629
			c-0.03,0.345-0.039,0.69-0.034,1.036c-1.859,1.002-3.779,1.886-5.675,2.807c0.003-0.012,0.004-0.021,0.007-0.033
			c0.092-0.362,0.133-0.707,0.135-1.036C91.165,358.305,93.017,357.375,94.941,356.629z M89.036,362.746
			c2.025-1.014,4.104-1.931,6.121-2.961c0.043,0.202,0.083,0.404,0.137,0.604c-1.871,1.633-3.628,3.381-5.363,5.153
			C89.425,364.693,89.118,363.756,89.036,362.746z M91.174,367.13c1.581-1.616,3.172-3.22,4.851-4.734
			c0.01,0.021,0.018,0.043,0.027,0.063c0.195,0.413,0.423,0.795,0.68,1.147c-1.207,1.679-2.414,3.356-3.58,5.064
			C92.411,368.215,91.745,367.7,91.174,367.13z M98.29,370.688c-1.184-0.263-2.312-0.63-3.357-1.088
			c1.052-1.535,2.134-3.048,3.222-4.559c0.467,0.366,0.959,0.696,1.494,0.953C99.217,367.566,98.754,369.126,98.29,370.688z
			 M100.274,371.026c0.436-1.455,0.864-2.911,1.268-4.374c0.424,0.099,0.854,0.179,1.289,0.222c0.1,1.438,0.211,2.872,0.385,4.301
			C102.233,371.194,101.246,371.142,100.274,371.026z M115.865,356.223c-1.098-0.003-2.199,0.053-3.3,0.1
			c-0.211-0.832-0.611-1.632-1.157-2.365c1.167-0.538,2.343-1.056,3.531-1.543C115.372,353.622,115.674,354.905,115.865,356.223z
			 M114.147,350.588c-1.412,0.579-2.809,1.195-4.189,1.843c-0.346-0.291-0.709-0.566-1.094-0.812
			c-0.004-0.006-0.008-0.012-0.012-0.018c-0.072-0.09-0.15-0.158-0.226-0.242c1.217-1.21,2.463-2.377,3.844-3.382
			C113.124,348.763,113.674,349.647,114.147,350.588z M108.088,344.727c1.113,0.447,2.104,1.062,2.978,1.808
			c-1.32,0.989-2.533,2.11-3.712,3.276C107.709,348.119,108.003,346.428,108.088,344.727z M103.571,343.871
			c0.91,0.006,1.752,0.119,2.559,0.285c-0.039,1.723-0.341,3.438-0.703,5.136c-0.28-0.077-0.565-0.143-0.854-0.183
			C104.133,347.384,103.89,345.62,103.571,343.871z M105.206,371.034c-0.174-1.378-0.288-2.763-0.382-4.149
			c0.249-0.022,0.495-0.053,0.741-0.092c0.759-0.121,1.473-0.34,2.137-0.634c0.456,1.322,0.938,2.634,1.488,3.917
			C107.942,370.554,106.591,370.867,105.206,371.034z M110.989,369.229c-0.578-1.342-1.069-2.723-1.541-4.109
			c0.34-0.262,0.658-0.545,0.951-0.851c1.004,1.033,2.053,2.025,3.08,3.038C112.761,368.065,111.918,368.701,110.989,369.229z
			 M114.694,365.699c-1.031-1.011-2.08-2.007-3.079-3.049c0.234-0.401,0.45-0.816,0.617-1.253c1.189,0.493,2.389,0.962,3.599,1.4
			C115.605,363.88,115.208,364.838,114.694,365.699z M116.054,360.763c-1.121-0.409-2.23-0.846-3.332-1.31
			c0.052-0.378,0.084-0.76,0.084-1.146c1.089-0.052,2.178-0.104,3.259-0.087C116.111,359.064,116.098,359.914,116.054,360.763z"/>
		<path fill="#98f698" d="M333.096,133.172c24.289-14.034,44.539-34.464,67.69-50.242c8.834,7.195,22.828-3.749,29.923-10.06
			c1.282-1.143,1.562-3.418,0.625-4.848c-6.372-9.711-14.181-18.323-21.292-27.477c-1.036-1.333-3.505-1.534-4.848-0.625
			c-5.968,4.041-12.834,6.473-18.369,11.196c-6.975,5.953-3.273,14.121-2.278,21.591c0.004,0.026,0.015,0.049,0.019,0.076
			c-16.602,14.605-37.689,24.151-56.538,35.355c-16.745,9.953-33.933,19.671-49.275,31.74c-0.125,0-0.238-0.017-0.371-0.006
			c-3.071,0.257-6.146,0.479-9.223,0.688c-0.18-0.522-0.482-1.036-0.948-1.517c-3.117-3.222-5.471-7.093-8.688-10.223
			c-0.412-0.892-1.236-1.592-2.578-1.807c-8.008-1.279-16.11,0.144-24.175-0.338c-6.202-0.37-12.249-1.1-18.355-0.892
			c-3.578-9.99-8.07-20.052-16.369-26.992c-8.929-7.468-21.069-9.151-32.295-7.491c-19.168,2.834-44.076,15.084-45.777,36.647
			c-6.646,0.007-13.293,0.083-19.938,0.346c-1.043-0.555-2.335-0.644-3.673,0.123c-14.493,8.307-30.456,15.551-42.311,27.626
			c-0.329,0.335-0.558,0.689-0.741,1.05c-0.998,0.591-1.64,1.681-1.431,3.278c1.098,8.34,1.197,16.762,2.645,25.063
			c0.332,1.907,1.628,2.792,3.068,2.887c11.219,7.624,22.415,15.287,34.4,21.611c-1.945,0.569-3.809,1.295-5.516,2.278
			c-5.44,3.135-4.966,9.546-3.606,14.902c-1.515,0.316-3.032,0.632-4.554,0.9c-2.342,0.415-3.072,2.933-2.794,4.921
			c0.669,4.783,2.47,9.294,3.5,14c0.029,0.143,0.085,0.259,0.126,0.389c-10.489,5.664-21.204,11.356-32.248,15.726
			c-7.696,3.044-17.54,5.981-22.474,13.116c-2.141,3.098-1.404,7.164,0.652,10.087c-4.588,0.867-9.18,1.681-13.867,1.787
			c-1.629,0.037-3.581,1.179-3.857,2.937c-0.784,4.998-0.349,9.836,3.591,13.04c-4.292,2.935-7.7,6.952-9.759,12.128
			c-4.117,10.344,3.326,20.001,9.175,27.793c7.522,10.021,16.597,18.966,23.419,29.493c4.273,6.596,7.885,13.207,15.872,15.617
			c5.221,1.576,11.127,0.707,16.471,0.687c6.959-0.028,13.918,0.291,20.873,0.491c14.15,0.405,28.317-0.038,42.47-0.05
			c14.131-0.012,28.082,0.979,42.169,1.801c12.605,0.734,25.267-2.045,37.752,0.354c6.558,1.311,30.142-4.023,41.706-10.706
			c6.504-3.758,11.18-8.941,15.16-14.738c0.754,0.393,1.655,0.561,2.689,0.347c16.027-3.314,33.181,0.747,49.429-0.084
			c9.236-0.474,18.22-1.14,27.45-0.253c6.791,0.65,13.21,0.242,19.098-3.511c6.827-4.351,11.769-12.174,16.223-18.743
			c5.18-7.641,9.743-15.76,15.673-22.862c8.422-10.087,17.476-23.975,6.355-34.898c0.446-4.05,0.011-7.865-0.767-11.902
			c-0.345-1.794-2.178-2.848-3.857-2.937c-9.042-0.479-18.041-1.799-27.061-2.328c-11.677-28.414-35.026-53.94-60.694-70.545
			c-0.455-0.516-1.081-0.887-1.864-1.043c-0.678-0.223-1.329-0.229-1.928-0.07c-5.188,0.105-10.132-1.065-15.198-2.135
			c-5.584-1.18-11.238-1.513-16.931-1.7c-0.283-0.01-0.565-0.01-0.849-0.019c1-1.544,2.048-3.06,3.187-4.499
			c0.003-0.004,0.006-0.008,0.009-0.012c2.077-0.26,4.153-0.569,6.227-0.959c2.396-0.451,3.163-2.413,2.787-4.256
			c3.2-7.065,4.556-14.915,5.148-22.602c0.148-1.925-0.878-3.124-2.241-3.604c4.436-3.744,9.549-6.79,14.514-9.606
			C313.302,143.188,323.488,138.724,333.096,133.172z M421.327,67.618c0.424,0.585,0.854,1.165,1.27,1.758
			c-0.603,0.516-1.271,1.072-1.977,1.642C420.836,69.88,421.073,68.747,421.327,67.618z M419.769,65.493
			c-0.58,2.424-1.082,4.862-1.487,7.323c-0.935,0.683-1.907,1.347-2.887,1.948c0.751-3.94,1.628-7.855,2.469-11.777
			C418.508,63.817,419.139,64.655,419.769,65.493z M416.251,60.925c-0.916,4.37-1.905,8.725-2.748,13.109
			c-0.612-0.6-1.225-1.2-1.842-1.797c0.648-4.557,1.688-9.027,2.862-13.478C415.103,59.479,415.677,60.201,416.251,60.925z
			 M412.968,56.843c-1.222,4.531-2.312,9.078-3.053,13.701c-0.665-0.643-1.331-1.285-1.993-1.93
			c0.927-4.541,2.502-8.909,3.742-13.375C412.101,55.773,412.534,56.309,412.968,56.843z M407.878,50.587
			c0.738,0.914,1.482,1.822,2.226,2.733c-1.183,4.58-2.809,9.034-3.855,13.639c-0.507-0.503-1.017-1.004-1.517-1.513
			c0.087-1,0.172-2.001,0.332-2.987C405.717,58.437,406.692,54.482,407.878,50.587z M403.862,49.953
			c0.818-0.435,1.638-0.866,2.441-1.325c0.062,0.08,0.128,0.159,0.191,0.239c-0.143,0.113-0.268,0.257-0.335,0.474
			c-1.129,3.62-2.024,7.273-2.744,10.997c-0.193,1.003-0.298,2.139-0.396,3.306c-0.475-0.5-0.96-0.99-1.424-1.5
			C402.047,58.017,402.75,53.952,403.862,49.953z M399.611,52.206c0.609-0.327,1.224-0.646,1.837-0.967
			c-0.725,2.933-1.24,5.901-1.62,8.9c-0.503-0.588-1.003-1.176-1.485-1.779C398.558,56.28,399.024,54.232,399.611,52.206z
			 M397.168,53.581c-0.208,0.839-0.394,1.682-0.543,2.53c-0.373-0.511-0.759-1.012-1.115-1.536
			C396.051,54.226,396.613,53.907,397.168,53.581z M392.827,78.753c-0.146,0.104-0.287,0.211-0.433,0.314
			c-0.06-0.639-0.171-1.275-0.351-1.906C392.205,77.813,392.478,78.337,392.827,78.753z M390.283,78.374
			c0.132,0.692,0.182,1.393,0.188,2.096c-0.728,0.531-1.459,1.053-2.183,1.591c0.02-0.149,0.037-0.298,0.057-0.446
			c0.072-0.589-0.315-0.891-0.77-0.936C388.491,79.925,389.391,79.155,390.283,78.374z M384.096,83.47
			c0.759-0.585,1.496-1.196,2.241-1.797c-0.084,0.676-0.161,1.353-0.222,2.028c-0.681,0.514-1.364,1.022-2.042,1.54
			C384.085,84.652,384.093,84.062,384.096,83.47z M379.977,86.546c0.708-0.508,1.403-1.029,2.103-1.548
			c-0.01,0.604-0.024,1.208-0.047,1.812c-0.725,0.56-1.456,1.107-2.178,1.672C379.893,87.836,379.932,87.191,379.977,86.546z
			 M375.614,89.57c0.766-0.514,1.515-1.047,2.271-1.572c-0.043,0.715-0.089,1.428-0.137,2.142c-0.712,0.562-1.426,1.119-2.136,1.683
			L375.614,89.57L375.614,89.57z M373.614,90.892v2.519c-0.426,0.339-0.853,0.675-1.277,1.015c0.002-0.893-0.014-1.785-0.029-2.68
			C372.745,91.464,373.178,91.176,373.614,90.892z M367.71,94.63c0.882-0.538,1.758-1.084,2.63-1.633
			c0.021,1.012,0.026,2.024-0.011,3.033c-0.892,0.714-1.783,1.426-2.674,2.139C367.655,96.99,367.687,95.81,367.71,94.63z
			 M365.695,95.85c-0.021,1.296-0.031,2.589,0.012,3.88c-0.847,0.679-1.693,1.357-2.543,2.034c-0.102-1.421-0.185-2.845-0.233-4.269
			C363.855,96.952,364.775,96.401,365.695,95.85z M359.546,99.462c0.478-0.273,0.949-0.553,1.425-0.828
			c0.079,1.547,0.187,3.094,0.294,4.639c-0.573,0.455-1.145,0.912-1.719,1.365V99.462L359.546,99.462z M357.546,100.598v5.606
			c-0.776,0.609-1.553,1.223-2.334,1.828c-0.079-2.023,0.021-4.058-0.041-6.086C355.965,101.501,356.754,101.047,357.546,100.598z
			 M352.088,103.675c0.374-0.209,0.747-0.419,1.121-0.628c0.026,2.147-0.052,4.298,0.119,6.437
			c-0.559,0.428-1.111,0.863-1.672,1.289C351.626,108.407,351.894,106.042,352.088,103.675z M347.056,106.478
			c0.983-0.549,1.97-1.097,2.956-1.646c-0.198,2.458-0.4,4.906-0.261,7.367c-0.941,0.704-1.877,1.42-2.825,2.114
			C346.849,111.706,346.971,109.086,347.056,106.478z M344.059,108.151c0.321-0.181,0.646-0.36,0.97-0.541
			c-0.086,2.706-0.178,5.414-0.024,8.108c-0.391,0.281-0.771,0.574-1.165,0.852C343.91,113.764,344.014,110.958,344.059,108.151z
			 M341.128,109.799c0.305-0.172,0.609-0.343,0.913-0.514c-0.062,2.901-0.172,5.803-0.226,8.704
			c-0.299,0.209-0.595,0.421-0.895,0.627C340.839,115.671,340.81,112.728,341.128,109.799z M337.333,118.068
			c0.057-1.846,0.17-3.699,0.388-5.533c0.034-0.297-0.055-0.518-0.201-0.676c0.506-0.291,1.016-0.579,1.521-0.869
			c-0.212,2.977-0.147,5.957-0.069,8.943c-0.552,0.372-1.099,0.75-1.652,1.115C337.276,120.056,337.302,119.059,337.333,118.068z
			 M334.954,113.345c0.239-0.141,0.481-0.277,0.721-0.418c-0.181,1.596-0.67,6.43-0.185,9.316c-0.25,0.162-0.497,0.33-0.748,0.49
			C334.806,119.603,334.902,116.474,334.954,113.345z M331.75,115.238c0.396-0.236,0.793-0.473,1.189-0.709
			c-0.064,3.156-0.162,6.311-0.214,9.467c-0.444,0.275-0.882,0.561-1.329,0.832C331.436,121.648,331.457,118.408,331.75,115.238z
			 M328.298,117.293c0.456-0.272,0.911-0.543,1.367-0.814c-0.219,3.179-0.23,6.396-0.286,9.552c-0.435,0.256-0.86,0.523-1.298,0.775
			C328.153,123.634,328.255,120.464,328.298,117.293z M279.222,149.827c0.638-0.539,1.286-1.064,1.933-1.594
			c-0.045,2.128-0.034,4.259-0.019,6.393c-0.668,0.667-1.331,1.34-1.962,2.042C279.092,154.386,279.101,152.106,279.222,149.827z
			 M276.21,152.432c0.315-0.28,0.641-0.55,0.957-0.827c-0.069,2.426-0.024,4.855,0.12,7.288c-0.383,0.483-0.757,0.975-1.12,1.476
			C276.147,157.719,276.126,155.074,276.21,152.432z M273.417,154.986c0.258-0.238,0.513-0.483,0.771-0.722
			c-0.034,1.921-0.029,3.844-0.02,5.771c-0.422-0.312-0.81-0.651-1.153-1.016C273.23,157.686,273.365,156.341,273.417,154.986z
			 M254.015,134.622c2.036,2.012,3.737,4.311,5.511,6.55c-0.859,0.051-1.718,0.102-2.577,0.152
			c-1.476-2.149-2.669-4.486-3.894-6.792C253.375,134.564,253.697,134.58,254.015,134.622z M250.697,134.368
			c1.302,2.383,2.522,4.808,3.972,7.091c-0.282,0.017-0.564,0.033-0.848,0.05c-1.755-2.243-3.28-4.646-4.562-7.188
			C249.739,134.325,250.217,134.351,250.697,134.368z M247.027,134.341c1.224,2.576,2.688,5.019,4.375,7.311
			c-0.495,0.029-0.99,0.059-1.485,0.088c-1.505-2.439-2.973-4.901-4.463-7.35C245.979,134.368,246.503,134.355,247.027,134.341z
			 M243.172,134.499c1.504,2.451,2.976,4.922,4.477,7.374c-0.38,0.022-0.759,0.045-1.138,0.067
			c-1.562-2.389-2.934-4.893-4.317-7.389L243.172,134.499z M239.967,134.665c1.391,2.488,2.74,4.998,4.257,7.41
			c-0.572,0.034-1.146,0.066-1.718,0.102c-1.979-2.101-3.405-4.729-4.567-7.436C238.615,134.723,239.291,134.697,239.967,134.665z
			 M235.78,134.768c1.104,2.682,2.436,5.318,4.215,7.56c-0.269,0.017-0.537,0.032-0.806,0.049c-2.361-2.169-4.044-4.896-5.63-7.664
			C234.297,134.752,235.039,134.764,235.78,134.768z M231.162,134.543c1.591,2.796,3.208,5.622,5.375,7.995
			c-0.606,0.039-1.214,0.072-1.819,0.112c-1.784-2.806-3.676-5.541-5.565-8.276C229.823,134.435,230.492,134.487,231.162,134.543z
			 M226.57,134.148c1.979,2.869,3.97,5.73,5.862,8.657c-0.818,0.057-1.639,0.107-2.456,0.166c-2.182-2.729-3.665-5.924-5.345-8.995
			C225.279,134.03,225.923,134.09,226.57,134.148z M222.243,133.797c1.812,3.111,3.311,6.411,5.382,9.341
			c-0.312,0.023-0.624,0.042-0.936,0.066c-2.384-3.19-4.771-6.377-7.171-9.557C220.425,133.68,221.334,133.738,222.243,133.797z
			 M252.861,194.512c-0.231,0.011-0.463,0.017-0.695,0.027c0.797-1.318,1.636-2.608,2.508-3.875
			c0.329,0.005,0.658,0.007,0.987,0.011C254.709,191.938,253.801,193.237,252.861,194.512z M258.165,190.697
			c0.137,0,0.272-0.003,0.408-0.003c-0.822,1.207-1.613,2.436-2.365,3.691c-0.276,0.011-0.555,0.019-0.832,0.029
			C256.281,193.154,257.185,191.895,258.165,190.697z M249.774,194.651c-0.423,0.02-0.845,0.038-1.268,0.059
			c0.864-1.398,1.778-2.764,2.715-4.115c0.354,0.009,0.711,0.014,1.064,0.021C251.406,191.932,250.566,193.275,249.774,194.651z
			 M246.103,194.827l-2.147,0.105c1.064-1.516,2.168-3.001,3.318-4.451c0.523,0.018,1.048,0.028,1.571,0.045
			C247.887,191.931,246.964,193.359,246.103,194.827z M241.452,195.057c-0.508,0.024-1.017,0.051-1.523,0.075
			c-0.035,0.002-0.071,0.004-0.107,0.006c1.1-1.629,2.256-3.221,3.443-4.791c0.519,0.019,1.037,0.034,1.557,0.053
			C243.654,191.919,242.536,193.475,241.452,195.057z M237.333,195.278c-0.489,0.029-0.979,0.053-1.47,0.083
			c1.079-1.752,2.219-3.466,3.393-5.159c0.53,0.019,1.062,0.038,1.592,0.058C239.625,191.899,238.443,193.564,237.333,195.278z
			 M233.412,195.528c-0.661,0.046-1.322,0.088-1.982,0.137c1.321-1.866,2.661-3.719,3.972-5.593c0.497,0.016,0.993,0.034,1.49,0.051
			C235.677,191.891,234.499,193.681,233.412,195.528z M228.856,195.861c-0.567,0.046-1.135,0.082-1.702,0.13
			c1.414-2.146,3.123-4.1,4.849-6.018c0.337,0.008,0.675,0.021,1.012,0.029C231.631,191.957,230.227,193.898,228.856,195.861z
			 M224.666,196.212c-0.662,0.06-1.323,0.115-1.986,0.178c1.413-2.115,2.72-4.29,3.968-6.507c0.907,0.007,1.814,0.028,2.724,0.043
			C227.631,191.899,225.971,193.948,224.666,196.212z M216.999,133.602c2.459,3.251,4.901,6.515,7.342,9.78
			c-0.555,0.051-1.041,0.198-1.477,0.407c-3.04-3.127-5.801-6.508-8.229-10.131C215.422,133.62,216.209,133.604,216.999,133.602z
			 M198.801,111.327c3.282,4.688,5.574,10.17,7.517,15.518c-0.514,0.242-0.923,0.566-1.222,0.959
			c-4.224,0.573-8.605,0.173-12.977-0.29c1.255-3.597,2.679-7.117,4.243-10.592C197.224,115.007,198.188,113.253,198.801,111.327z
			 M165.218,99.48c0.532-0.102,1.078-0.219,1.597-0.305c9.114-1.518,19.18-0.07,26.414,5.98c0.381,0.318,0.75,0.647,1.11,0.984
			c-0.234,0.205-0.441,0.449-0.604,0.736c-0.104,0.182-0.204,0.362-0.307,0.543c-0.405,0.719-0.477,1.416-0.339,2.045
			c-0.596,1.944-1.576,3.691-2.456,5.646c-1.698,3.774-3.227,7.629-4.562,11.547c-0.031,0.09-0.039,0.172-0.062,0.26
			c-1.457-0.109-2.903-0.177-4.334-0.168c-9.204,0.057-18.37,1.101-27.573,1.229c-0.992,0.014-1.984,0.014-2.978,0.022
			c4.264-9.567,9.844-18.497,13.971-28.136C165.153,99.736,165.181,99.609,165.218,99.48z M153,102.894
			c1.639-0.617,3.28-1.145,4.912-1.629c-4.265,9.002-9.373,17.584-13.264,26.77c-2.162,0-4.325-0.002-6.488-0.012
			c4.966-8.148,9.506-16.549,14.59-24.63C152.856,103.225,152.93,103.059,153,102.894z M143.197,107.579
			c-4.014,6.809-7.854,13.719-12.066,20.408c-1.038-0.006-2.076-0.013-3.114-0.018C129.031,119.027,135.293,112.323,143.197,107.579
			z M61.984,181.656c-1.012-6.709-1.167-13.506-1.979-20.24c10.826-10.887,25.312-17.604,38.592-25.067
			c19.138-0.837,38.29-0.13,57.437-0.397c9.166-0.128,18.289-1.156,27.461-1.214c7.7-0.048,15.261,1.792,22.896,0.894
			c3.74,6.087,8.384,11.666,13.602,16.537c0.532,9.656,1.403,19.284,2.316,28.911c-2.552,5.028-5.268,10.02-8.754,14.467
			c-0.474,0.604-0.746,1.247-0.858,1.89c-13.228,1.494-26.429,3.386-39.615,5.053c-21.514-3.147-43.007-0.463-64.1,4.301
			c-1.322,0.299-2.699,0.543-4.107,0.768c-0.273-0.236-0.581-0.458-0.971-0.637C88.999,200.074,75.502,190.846,61.984,181.656z
			 M144.908,209.104c-0.903,0.382-1.794,0.793-2.686,1.206c-0.294-0.321-0.585-0.644-0.885-0.959
			C142.528,209.258,143.715,209.165,144.908,209.104z M102.315,216.022c0.903-0.18,1.812-0.35,2.719-0.521
			c3.57,3.472,6.99,7.108,10.995,10.08c-0.686,0.432-1.368,0.865-2.055,1.298c-0.053-0.123-0.137-0.243-0.269-0.353
			C109.735,223.216,106.112,219.525,102.315,216.022z M112.293,227.94c-0.769,0.48-1.531,0.977-2.301,1.454
			c-5.353-3.374-9.922-7.744-14.709-11.852c1.527-0.371,3.063-0.706,4.605-1.028C104.059,220.286,107.969,224.339,112.293,227.94
			C112.292,227.939,112.293,227.939,112.293,227.94z M107.418,215.046c1.378-0.259,2.754-0.523,4.131-0.79
			c3.263,2.655,6.397,5.468,9.84,7.889c-1.188,0.763-2.375,1.526-3.556,2.29C113.998,221.73,110.745,218.343,107.418,215.046z
			 M114.047,213.753c1.438-0.293,2.875-0.587,4.303-0.918c0.283-0.065,0.57-0.124,0.854-0.188c2.457,1.995,4.717,4.21,6.885,6.531
			c-0.961,0.598-1.92,1.198-2.873,1.805C119.983,218.804,117.04,216.247,114.047,213.753z M121.669,212.107
			c1.411-0.293,2.837-0.562,4.269-0.816c1.73,1.646,3.47,3.28,5.339,4.764c-1.156,0.677-2.31,1.361-3.453,2.06
			C125.866,216.002,123.838,213.975,121.669,212.107z M128.384,210.873c1.484-0.24,2.978-0.455,4.474-0.652
			c1.071,1.054,2.144,2.108,3.248,3.127c-0.994,0.534-1.984,1.079-2.968,1.636C131.463,213.722,129.909,212.316,128.384,210.873z
			 M135.403,209.912c1.119-0.129,2.243-0.233,3.367-0.34c0.526,0.539,1.049,1.084,1.562,1.636c-0.781,0.381-1.562,0.759-2.336,1.156
			C137.109,211.572,136.249,210.749,135.403,209.912z M90.004,219.85c0.217-1.009,1.674-1.472,2.885-1.755
			c5.041,4.207,9.732,8.824,15.224,12.452c-1.271,0.781-2.539,1.569-3.814,2.342c-0.787-0.487-1.545-1.021-2.298-1.559
			c1.464-2.144,1.153-5.359-2.054-5.814c-1.244-0.177-2.479-0.235-3.707-0.243c-2.078-1.358-4.015-2.904-5.811-4.674
			c-0.156-0.153-0.328-0.222-0.5-0.255C89.951,220.178,89.968,220.013,90.004,219.85z M99.375,233.167
			c0.411-0.091,0.786-0.252,1.135-0.45c0.627,0.448,1.254,0.897,1.894,1.328c-0.224,0.134-0.443,0.272-0.666,0.406
			C100.927,234.057,100.14,233.629,99.375,233.167z M99.692,235.667c-0.537,0.319-1.073,0.645-1.613,0.961
			c-1.766-1.008-3.41-2.205-5.035-3.437c0.861-0.085,1.719-0.126,2.57-0.117C96.918,234.026,98.272,234.904,99.692,235.667z
			 M92.938,225.397c-0.742,0.065-1.482,0.15-2.222,0.253c-0.272-0.88-0.528-1.792-0.688-2.706
			C90.965,223.808,91.931,224.631,92.938,225.397z M90.27,233.584c1.919,1.442,3.803,2.934,5.829,4.2
			c-0.808,0.471-1.61,0.949-2.422,1.416c-2.553-1.442-5.004-3.044-7.373-4.77C87.619,234.122,88.944,233.825,90.27,233.584z
			 M91.651,240.365c-0.691,0.394-1.377,0.798-2.072,1.188c-1.537-0.772-3.006-1.71-4.427-2.688c-0.34-1.181-0.676-2.36-0.979-3.549
			C86.586,237.12,89.058,238.835,91.651,240.365z M87.53,242.713c-0.381,0.212-0.756,0.434-1.138,0.645
			c-0.132-0.525-0.274-1.049-0.418-1.57C86.487,242.108,87.004,242.417,87.53,242.713z M41.215,292.042c5.15-0.116,5.162-8.116,0-8
			c-0.163,0.004-0.324,0.016-0.487,0.021c-0.062-0.004-0.115-0.021-0.179-0.021c-1.862-0.029-9.968-0.346-9.359-3.56
			c0.523-2.762,7.161-5.146,9.294-6.153c9.272-4.382,18.788-8.054,28.01-12.615c12.835-6.35,25.45-13.134,37.765-20.443
			c10.983-6.521,21.336-14.038,32.521-20.233c10.49-5.811,21.887-10.119,34.041-9.409c11.171,0.652,21.22,7.336,29.924,13.808
			c9.359,6.959,17.777,15.314,25.367,24.144c6.263,7.285,12.247,15.466,16.027,24.411c-2.822,0.157-5.64,0.354-8.422,0.458
			c-9.515,0.353-19.022,0.645-28.501,1.594c-5.083,0.509-5.133,8.514,0,8c14.333-1.435,28.853-1.788,43.247-2.184
			c2.24-0.062,6.223-0.646,8.018,1.078c1.366,1.312,1.949,3.945,2.307,6.454c-7.183,1.162-14.938,2.431-22.562,2.668
			c-0.172-0.171-21.955-2.729-22.803-1.955c-18.84,0.299-37.62,1.964-56.477,1.936c-21.318-0.032-42.621-1.06-63.941-0.436
			c-18.686,0.547-38.399,0.161-56.772,3.942c-5.101,1.05-10.136,2.504-15.333,3.012c-3.775,0.367-7.123,0.259-7.814-2.754
			C23.855,294.961,32.367,292.242,41.215,292.042z M20.588,311.082c1.426-1.696,2.939-3.3,4.575-4.771
			c0.922-0.127,1.825-0.264,2.679-0.396c0.156-0.024,0.311-0.056,0.467-0.082c-1.066,1.252-2.08,2.559-3.135,3.835
			c-0.814,0.986,0.593,2.409,1.414,1.414c1.622-1.963,3.143-4.066,4.956-5.862c1.49-0.314,2.975-0.661,4.46-1.006
			c-1.489,1.263-2.938,2.574-4.33,3.954c-0.916,0.909,0.498,2.322,1.414,1.414c2.291-2.271,4.719-4.367,7.271-6.325
			c0.897-0.183,1.8-0.347,2.704-0.496c-1.87,1.544-3.657,3.19-5.389,4.907c-0.916,0.909,0.498,2.323,1.414,1.414
			c2.486-2.468,5.084-4.785,7.893-6.851c2.062-0.249,4.132-0.449,6.201-0.63c-2.616,1.867-5.065,3.975-7.508,6.065
			c-0.979,0.841,0.441,2.248,1.414,1.414c3.262-2.794,6.523-5.611,10.232-7.804c1.002-0.069,2.006-0.121,3.008-0.182
			c-2.643,1.728-5.23,3.53-7.654,5.57c-0.986,0.832,0.437,2.239,1.414,1.414c3.214-2.705,6.734-4.977,10.285-7.205
			c1.664-0.08,3.33-0.143,4.996-0.209c-2.035,1.675-3.947,3.494-5.695,5.5c-0.843,0.968,0.566,2.389,1.414,1.414
			c2.312-2.651,4.875-4.993,7.689-7.053c1.144-0.042,2.286-0.084,3.43-0.125c-1.965,1.622-3.844,3.341-5.533,5.264
			c-0.848,0.965,0.562,2.385,1.414,1.414c2.235-2.544,4.801-4.727,7.459-6.8c1.363-0.051,2.725-0.086,4.086-0.13
			c-2.459,2.016-4.828,4.129-6.959,6.516c-0.854,0.959,0.555,2.378,1.414,1.414c2.672-2.992,5.714-5.559,8.843-8.034
			c1.458-0.041,2.916-0.07,4.374-0.104c-2.256,1.682-4.506,3.372-6.631,5.224c-0.974,0.849,0.447,2.258,1.414,1.414
			c2.752-2.399,5.715-4.528,8.631-6.719c0.996-0.021,1.99-0.021,2.986-0.038c-1.171,0.951-2.363,1.88-3.531,2.843
			c-0.995,0.821,0.428,2.229,1.414,1.414c1.752-1.445,3.562-2.812,5.267-4.297c2.207-0.029,4.412-0.037,6.618-0.054
			c-1.488,1.247-2.918,2.568-4.299,3.937c-0.917,0.908,0.498,2.322,1.414,1.414c1.937-1.917,3.955-3.745,6.124-5.377
			c2.21-0.012,4.42-0.01,6.63-0.012c-1.074,0.971-2.137,1.954-3.168,2.975c-0.916,0.908,0.498,2.322,1.414,1.414
			c1.536-1.521,3.133-2.974,4.758-4.394c1.769,0.003,3.538,0.021,5.308,0.029c-2.087,1.527-4.115,3.127-5.979,4.949
			c-0.923,0.903,0.492,2.316,1.414,1.414c2.445-2.391,5.179-4.388,7.955-6.344c1.478,0.01,2.957,0.034,4.435,0.047
			c-1.828,1.549-3.591,3.182-5.304,4.883c-0.916,0.91,0.499,2.323,1.414,1.414c2.236-2.221,4.551-4.324,6.998-6.265
			c1.199,0.012,2.4,0.026,3.601,0.038c-0.691,0.577-1.363,1.18-2.013,1.812c-0.923,0.903,0.492,2.316,1.414,1.414
			c1.188-1.16,2.463-2.204,3.781-3.193c1.979,0.021,3.957,0.033,5.941,0.062c0.268,0.004,0.535,0.004,0.805,0.007
			c-1.349,1.197-2.66,2.438-3.941,3.71c-0.916,0.909,0.498,2.323,1.414,1.414c1.788-1.773,3.631-3.487,5.559-5.099
			c1.894,0.008,3.783-0.019,5.677-0.037c-1.919,1.526-3.806,3.096-5.648,4.722c-0.969,0.854,0.451,2.264,1.414,1.414
			c2.437-2.148,4.941-4.202,7.517-6.169c1.696-0.03,3.395-0.077,5.092-0.123c-1.608,1.236-3.199,2.497-4.818,3.722
			c-1.016,0.769-0.02,2.506,1.01,1.728c2.429-1.836,4.795-3.754,7.249-5.546c1.184-0.038,2.366-0.083,3.551-0.126
			c-0.681,0.521-1.351,1.056-2.013,1.602c-0.995,0.821,0.429,2.229,1.414,1.414c1.347-1.109,2.729-2.169,4.164-3.148
			c1.229-0.049,2.455-0.101,3.685-0.151c-1.349,1.006-2.621,2.106-3.763,3.387c-0.854,0.959,0.556,2.379,1.414,1.414
			c1.781-1.997,3.896-3.542,6.107-4.961c1.594-0.069,3.188-0.138,4.783-0.206c-1.685,1.305-3.274,2.745-4.806,4.253
			c-0.919,0.906,0.496,2.32,1.414,1.414c2.188-2.156,4.508-4.175,7.06-5.825c2.23-0.094,4.463-0.184,6.694-0.268
			c-1.938,1.669-3.847,3.374-5.668,5.179c-0.916,0.908,0.498,2.322,1.414,1.414c2.377-2.355,4.896-4.548,7.453-6.701
			c1.478-0.05,2.954-0.085,4.431-0.126c-0.926,0.978-1.85,1.956-2.798,2.913c-0.907,0.917,0.506,2.331,1.414,1.414
			c1.437-1.448,2.816-2.946,4.232-4.408c1.901-0.044,3.805-0.062,5.707-0.085c-1.695,1.254-3.33,2.591-4.854,4.079
			c-0.924,0.902,0.492,2.315,1.414,1.414c2.084-2.035,4.374-3.781,6.757-5.405c1.188,0.33,2.393,0.611,3.607,0.85
			c-0.938,0.867-1.87,1.741-2.778,2.643c-0.917,0.909,0.498,2.323,1.414,1.414c1.258-1.246,2.559-2.445,3.861-3.643
			c2.858,0.413,5.776,0.611,8.727,0.64c1.892,2.39,3.184,4.902,3.99,7.495c-6.914,2.666-16.593,4.521-23.721,1.942
			c-2.128-0.77-4.279,0.854-4.921,2.794c-3.452,10.436-21.835,5.571-29.663,4.633c-6.957-0.835-13.729-0.292-20.711,0.102
			c-10.481,0.591-20.968,1.129-31.457,1.557c-19.898,0.809-39.992-0.109-59.81,2.004c-8.028,0.854-15.834,2.617-23.715,4.294
			c-3.542,0.754-7.08,1.371-10.707,1.447c-4.873,0.104-5.023-3.971-5.082-7.972c-0.036-2.484-2.546-4.7-5.062-3.856
			c-1.857,0.622-4.1,1.592-6.101,1.173c-1.237-0.26-1.272-3.985-1.337-4.815c-0.019-0.246-0.069-0.47-0.121-0.692
			c1.398-0.87,2.883-1.589,4.37-2.165c-0.492,0.543-0.981,1.088-1.456,1.65C18.349,310.648,19.757,312.07,20.588,311.082z
			 M63.813,362.557c0.272-0.394,0.523-0.803,0.737-1.234c1.697,0.601,3.375,1.245,5.086,1.795c-0.42,0.972-0.946,1.895-1.568,2.755
			C66.657,364.759,65.218,363.677,63.813,362.557z M66.788,367.39c-0.802,0.822-1.721,1.555-2.758,2.177
			c-0.821-1.604-1.625-3.215-2.441-4.82c0.32-0.213,0.628-0.439,0.911-0.692C63.918,365.179,65.368,366.265,66.788,367.39z
			 M65.263,359.459c0.102-0.366,0.191-0.737,0.254-1.116c1.716,0.468,3.441,0.877,5.179,1.251c-0.097,0.556-0.224,1.104-0.376,1.644
			C68.618,360.698,66.95,360.058,65.263,359.459z M65.656,356.306c-0.005-0.154,0.003-0.312-0.009-0.467
			c1.68-0.562,3.387-1.028,5.144-1.312c0.138,1.021,0.174,2.05,0.125,3.069C69.151,357.213,67.397,356.792,65.656,356.306z
			 M65.272,353.874c-0.232-0.746-0.562-1.448-0.974-2.099c1.41-1.191,2.976-2.147,4.67-2.875c0.622,1.18,1.111,2.415,1.438,3.687
			C68.653,352.88,66.952,353.327,65.272,353.874z M63.047,350.211c-0.02-0.019-0.035-0.04-0.054-0.059
			c0.067-0.153,0.133-0.31,0.202-0.463c0.588-1.291,1.462-3.608,2.784-4.737c0.572,0.508,1.114,1.079,1.609,1.734
			c0.121,0.16,0.222,0.332,0.336,0.496C66.165,347.966,64.522,348.971,63.047,350.211z M62.245,347.081
			c-0.312,0.595-0.598,1.202-0.873,1.814c-0.445-0.272-0.914-0.516-1.41-0.716c-0.022-0.01-0.046-0.017-0.067-0.022
			c0.312-1.934,0.665-3.86,1.024-5.787c1.219,0.281,2.383,0.745,3.464,1.403C63.477,344.739,62.802,346.02,62.245,347.081z
			 M62.249,370.47c-1.336,0.561-2.682,0.857-4.018,0.973c0.192-0.16,0.323-0.403,0.317-0.735c-0.027-1.588-0.269-3.133-0.593-4.667
			c0.357-0.047,0.715-0.102,1.069-0.184c0.268-0.062,0.52-0.146,0.77-0.23C60.616,367.24,61.422,368.86,62.249,370.47z
			 M58.038,347.142c-0.691-0.192-1.451-0.23-2.219-0.125c-0.271,0.037-0.519,0.104-0.775,0.161c0.033-1.675,0.169-3.341,0.458-4.984
			c1.158-0.168,2.315-0.215,3.447-0.128C58.633,343.757,58.321,345.448,58.038,347.142z M55.922,366.107
			c0.335,1.511,0.6,3.031,0.627,4.601c0.006,0.376,0.189,0.629,0.434,0.785c-1.51-0.014-2.993-0.29-4.424-0.766
			c0.506-1.641,0.974-3.289,1.399-4.949C54.595,365.953,55.252,366.066,55.922,366.107z M53.059,347.134
			c-0.638-1.246-1.295-2.481-1.974-3.707c0.762-0.312,1.532-0.595,2.317-0.806C53.183,344.113,53.09,345.623,53.059,347.134z
			 M51.594,348.652c-0.142,0.099-0.292,0.188-0.427,0.295c-1.289-1.184-2.586-2.358-3.945-3.461
			c0.656-0.445,1.347-0.841,2.048-1.211C50.075,345.719,50.847,347.179,51.594,348.652z M52.088,365.019
			c-0.425,1.664-0.891,3.315-1.393,4.959c-1.16-0.548-2.263-1.241-3.304-2.027c1.087-1.313,2.193-2.611,3.323-3.888
			C51.147,364.432,51.604,364.752,52.088,365.019z M49.763,350.312c-0.049,0.058-0.104,0.109-0.151,0.17
			c-2.138-0.487-4.279-0.949-6.429-1.391c0.717-0.855,1.531-1.648,2.408-2.382C47.042,347.838,48.408,349.069,49.763,350.312z
			 M48.468,352.272c-0.162,0.332-0.312,0.67-0.437,1.018c-2.524,0.191-5.044,0.426-7.567,0.516c0.351-1.021,0.834-2.003,1.424-2.938
			C44.087,351.314,46.282,351.779,48.468,352.272z M47.533,355.329c-0.02,0.146-0.027,0.291-0.04,0.438
			c-2.574,0.682-5.143,1.375-7.66,2.235c-0.018-0.734,0.029-1.463,0.146-2.179C42.499,355.755,45.013,355.526,47.533,355.329z
			 M41.336,360.856c-0.215-0.408-0.472-0.732-0.75-1.002c2.281-0.771,4.604-1.406,6.935-2.025c0.027,0.243,0.062,0.486,0.11,0.729
			c-1.985,0.967-4.007,1.862-6.051,2.715C41.502,361.132,41.411,360.998,41.336,360.856z M48.214,360.491
			c0.298,0.715,0.682,1.411,1.16,2.075c-1.194,1.349-2.366,2.719-3.511,4.111c-1.211-1.108-2.287-2.364-3.215-3.701
			C44.525,362.19,46.383,361.37,48.214,360.491z M209.506,384.239c-9.586-1.548-19.271-0.679-28.977-0.278
			c-11.873,0.49-23.799-1.269-35.678-1.604c-24.939-0.701-49.939-0.184-74.893-0.595c-8.249-0.138-18.231,2.399-24.208-4.646
			c-0.354-0.416-0.689-0.849-1.02-1.29c6.489,3.889,14.469,4.896,21.959,1.365c12.854-6.059,15.186-22.244,8.309-33.795
			c-11.653-19.57-43.001-5.349-43.158,14.208c-1.031-1.225-2.066-2.441-3.084-3.659c-6.794-8.139-15.864-16.892-19.845-26.878
			c-1.465-3.674-1.04-7.052,0.503-9.963c0.691,2.179,1.852,4.138,3.889,5.284c2.574,1.447,5.32,1.549,8.051,1.07
			c1.002,5.457,3.801,10.115,10.297,10.741c7.646,0.737,15.561-1.653,22.956-3.326c23.312-5.271,47.895-3.31,71.617-4.196
			c19.459-0.729,39.266-3.609,58.645-1.179c10.8,1.355,25.062,2.787,31.186-7.362c7.523,1.559,16.679,0.055,23.676-2.455
			c-0.193,7.158-3.021,14.586-6.521,21.516c-2.246,4.447-4.481,8.901-6.716,13.358c-3.876-6.798-10.204-12.078-18.097-13.66
			c-9.678-1.938-20.537,4.269-23.804,13.632c-5.813,16.669,11.822,30.332,27.283,29.047
			C211.086,381.128,210.3,382.687,209.506,384.239z M205.966,349.414c0.077-1.582,0.229-3.154,0.516-4.721
			c0.317,0.037,0.635,0.086,0.946,0.147c1.22,0.244,2.38,0.646,3.479,1.173c-0.864,1.104-1.686,2.24-2.438,3.427
			c-0.433-0.02-0.871-0.011-1.32,0.047C206.774,349.398,206.375,349.376,205.966,349.414z M206.974,371.775
			c-0.455-0.069-0.911-0.152-1.366-0.257c0.172-1.761,0.336-3.521,0.578-5.271c0.073,0.02,0.151,0.027,0.228,0.045
			C206.549,368.125,206.746,369.952,206.974,371.775z M209.08,366.52c0.827,1.766,1.711,3.506,2.444,5.308
			c-0.828,0.111-1.67,0.167-2.527,0.138c-0.23-1.806-0.42-3.613-0.561-5.427C208.651,366.542,208.866,366.533,209.08,366.52z
			 M212.668,347.002c1.096,0.702,2.122,1.524,3.062,2.447c-0.845,0.661-1.698,1.309-2.564,1.94c-0.74-0.685-1.605-1.205-2.557-1.542
			C211.253,348.869,211.938,347.919,212.668,347.002z M217.089,350.911c0.438,0.521,0.859,1.054,1.249,1.61
			c-1.186,0.085-2.373,0.134-3.563,0.158C215.552,352.099,216.327,351.511,217.089,350.911z M219.535,354.418
			c0.521,0.92,0.985,1.867,1.373,2.829c-1.808-0.38-3.589-0.854-5.304-1.543c-0.015-0.061-0.021-0.124-0.036-0.186
			c-0.071-0.295-0.161-0.58-0.26-0.859C216.72,354.623,218.129,354.548,219.535,354.418z M215.918,357.935
			c1.896,0.66,3.845,1.122,5.819,1.501c0.049,0.106,0.085,0.229,0.141,0.328c-0.677,1.35-1.355,2.696-2.035,4.046
			c-1.147-1.393-2.538-2.551-4.042-3.589C215.923,359.471,215.956,358.703,215.918,357.935z M199.584,354.516
			c-0.149,0.301-0.274,0.613-0.383,0.937c-2.405-0.623-4.764-1.405-7.117-2.233c0.33-0.966,0.788-1.869,1.359-2.698
			C195.404,352.002,197.461,353.311,199.584,354.516z M194.695,348.985c0.987-1.024,2.146-1.897,3.419-2.583
			c0.994,1.953,2.174,3.779,3.446,5.548c-0.309,0.288-0.601,0.591-0.87,0.91C198.614,351.696,196.595,350.432,194.695,348.985z
			 M198.202,357.25c-2.191,0.33-4.375,0.716-6.562,1.096c-0.147-1.029-0.159-2.092-0.012-3.175
			C193.8,355.938,195.984,356.656,198.202,357.25z M198.987,359.134c0.064,0.347,0.146,0.688,0.256,1.021
			c-1.938,0.996-3.83,2.095-5.81,3.019c-0.562-0.917-1.014-1.884-1.339-2.89C194.39,359.886,196.681,359.468,198.987,359.134z
			 M200.088,361.953c0.123,0.195,0.261,0.385,0.398,0.573c-1.369,1.395-2.771,2.754-4.229,4.058
			c-0.593-0.556-1.152-1.138-1.654-1.758C196.466,363.94,198.255,362.895,200.088,361.953z M201.831,364.009
			c0.065,0.058,0.137,0.108,0.203,0.163c-0.728,1.693-1.383,3.419-2.111,5.113c-0.735-0.426-1.448-0.891-2.121-1.398
			C199.188,366.641,200.524,365.34,201.831,364.009z M203.711,365.298c0.184,0.099,0.369,0.189,0.56,0.276
			c-0.259,1.79-0.435,3.593-0.607,5.396c-0.668-0.228-1.328-0.478-1.973-0.771C202.384,368.575,203.016,366.922,203.711,365.298z
			 M203.937,350.189c-0.274,0.168-0.551,0.331-0.82,0.517c-1.173-1.644-2.262-3.34-3.192-5.144c1.465-0.556,3.013-0.876,4.543-0.938
			C204.153,346.466,204.002,348.322,203.937,350.189z M214.863,370.92c-0.441,0.196-0.896,0.361-1.36,0.501
			c-0.722-1.797-1.597-3.526-2.423-5.28c0.725-0.24,1.407-0.602,2.026-1.082c1.174,1.749,2.18,3.583,2.94,5.545
			C215.659,370.654,215.265,370.742,214.863,370.92z M214.495,363.576c0.293-0.421,0.521-0.87,0.721-1.331
			c1.383,1.015,2.632,2.165,3.623,3.565c-0.479,0.954-0.959,1.909-1.438,2.861C216.595,366.887,215.612,365.199,214.495,363.576z
			 M268.09,348.274c-1.843,0.489-3.69,0.957-5.475,1.637c-1.192,0.454-0.676,2.389,0.531,1.928c1.151-0.438,2.335-0.781,3.522-1.105
			c-0.211,0.366-0.428,0.738-0.638,1.104c-0.488,0.852-0.972,1.688-1.455,2.518c-2.852,0.547-5.666,1.268-8.462,2.059
			c-1.239,0.352-0.712,2.28,0.531,1.928c2.17-0.612,4.353-1.176,6.554-1.657c-1.429,2.376-2.885,4.647-4.459,6.795
			c-2.191,0.695-4.41,1.308-6.626,1.936c-1.239,0.352-0.712,2.28,0.531,1.929c1.319-0.374,2.641-0.743,3.958-1.124
			c-1.34,1.604-2.788,3.114-4.373,4.532c-1.779,0.107-3.564,0.126-5.352,0.127c-1.289,0-1.289,2,0,2
			c0.938,0,1.874-0.012,2.809-0.031c-1.481,1.113-3.08,2.154-4.834,3.108c-8.105,4.411-17.419,6.42-26.497,8.439
			c0.085-0.171,0.166-0.344,0.251-0.517c0.231,0.081,0.503,0.059,0.776-0.138c3.985-2.834,8.685-3.909,13.262-5.398
			c1.222-0.396,0.698-2.328-0.531-1.929c-4.117,1.34-8.335,2.367-12.076,4.536c0.836-1.702,1.66-3.409,2.489-5.114
			c0.249,0.115,0.55,0.114,0.857-0.095c3.725-2.528,8.148-3.689,12-6c1.104-0.662,0.1-2.392-1.011-1.727
			c-3.35,2.009-7.133,3.15-10.513,5.079c0.855-1.768,1.72-3.53,2.578-5.298c0.192,0.104,0.428,0.141,0.705,0.046
			c3.339-1.136,6.58-2.537,9.738-4.102c1.156-0.572,0.144-2.297-1.01-1.727c-2.72,1.346-5.501,2.553-8.357,3.571
			c0.648-1.331,1.292-2.665,1.944-3.993c0.4-0.816,0.814-1.628,1.229-2.438c2.967-1.336,5.86-2.806,8.694-4.414
			c1.121-0.636,0.114-2.364-1.01-1.727c-2.027,1.15-4.091,2.228-6.186,3.241c1.147-2.186,2.32-4.359,3.49-6.535
			c3.26-1.441,6.562-2.778,9.704-4.479c1.136-0.614,0.125-2.341-1.01-1.727c-2.334,1.264-4.758,2.325-7.187,3.38
			c0.87-1.639,1.728-3.282,2.564-4.937c3.002-0.923,5.948-2.014,8.893-3.117c1.195-0.447,0.679-2.382-0.531-1.928
			c-2.361,0.885-4.728,1.751-7.118,2.539c0.572-1.176,1.136-2.355,1.675-3.548c0.228-0.501,0.438-1.006,0.65-1.511
			c2.807-0.743,5.592-1.553,8.324-2.554c1.2-0.438,0.683-2.372-0.531-1.928c-2.255,0.826-4.548,1.519-6.856,2.154
			c0.521-1.366,0.988-2.739,1.401-4.116c2.564-1.094,5.212-1.991,7.726-3.211c1.16-0.562,0.146-2.287-1.01-1.727
			c-1.97,0.956-4.021,1.712-6.056,2.52c0.39-1.554,0.697-3.107,0.928-4.658c3.093-1.135,6.204-2.208,9.398-3.034
			c1.248-0.321,0.719-2.251-0.531-1.928c-2.917,0.754-5.765,1.717-8.593,2.743c0.172-1.787,0.215-3.562,0.141-5.322
			c2.794-1.083,5.664-1.959,8.483-2.993c1.2-0.438,0.683-2.373-0.531-1.928c-2.689,0.985-5.418,1.842-8.092,2.849
			c-0.128-1.252-0.334-2.491-0.606-3.719c2.081-0.552,4.179-1.041,6.229-1.702c1.223-0.394,0.699-2.324-0.531-1.928
			c-2.038,0.656-4.122,1.144-6.189,1.691c-0.169-0.58-0.358-1.155-0.562-1.729c0.092-0.004,0.182-0.001,0.284-0.036
			c1.23-0.418,2.417-0.935,3.733-0.964c1.288-0.028,1.291-2.028,0-2c-1.515,0.033-2.851,0.555-4.266,1.036
			c-0.179,0.061-0.311,0.16-0.416,0.274c-0.358-0.843-0.751-1.678-1.195-2.498c7.421-0.644,14.812-1.938,21.669-3.024
			c0.05,0.022,0.096,0.048,0.146,0.069c0.973,0.408,1.918,0.79,2.836,1.169c-1.346,0.337-2.692,0.673-4.038,1.01
			c-1.251,0.312-0.72,2.241,0.531,1.928l6-1.5c0.15-0.038,0.272-0.101,0.374-0.179c0.661,0.316,1.297,0.655,1.915,1.016
			c-1.466,0.314-2.912,0.699-4.32,1.235c-1.193,0.454-0.676,2.388,0.531,1.928c1.972-0.751,4.021-1.204,6.088-1.581
			c1.134,0.931,2.159,2.06,3.071,3.465c-2.247,0.488-4.477,1.062-6.69,1.688c-1.239,0.351-0.712,2.28,0.531,1.928
			c2.378-0.673,4.771-1.285,7.188-1.794c0.657,1.435,1.034,2.97,1.215,4.546c-3.425,0.547-6.72,1.475-9.934,2.82
			c-1.171,0.49-0.657,2.427,0.531,1.928c3.087-1.293,6.25-2.195,9.528-2.753c0.024,1.514-0.11,3.033-0.323,4.521
			c-2.241,0.459-4.475,0.959-6.736,1.305c-1.271,0.193-0.729,2.12,0.531,1.929c1.963-0.3,3.901-0.717,5.845-1.121
			c-0.067,0.339-0.129,0.683-0.202,1.014c-0.219,1.001-0.479,1.989-0.762,2.974c-2.66,0.651-5.324,1.271-7.912,2.206
			c-1.203,0.436-0.684,2.368,0.531,1.929c2.192-0.793,4.44-1.357,6.696-1.907c-0.654,1.974-1.431,3.911-2.269,5.826
			c-2.153,0.718-4.307,1.436-6.46,2.152c-1.217,0.405-0.695,2.337,0.531,1.929l4.79-1.598c-0.809,1.697-1.67,3.374-2.561,5.035
			c-1.938,0.48-3.854,1.082-5.762,1.634c-1.236,0.356-0.71,2.287,0.531,1.929c1.299-0.375,2.603-0.779,3.915-1.151
			C270.422,344.24,269.255,346.263,268.09,348.274z M367.272,310.531c-1.499,0.037-2.997,0.086-4.496,0.128
			c-3.674-5.795-7.135-11.741-10.221-17.871c0.976-0.005,1.95-0.014,2.927-0.02C358.984,298.969,362.995,304.844,367.272,310.531z
			 M364.726,292.723c0.384-0.001,0.767-0.005,1.149-0.006c0.791,0.062,1.585,0.106,2.378,0.156h-2.373
			c-0.378,0-0.632,0.181-0.787,0.424C364.973,293.105,364.845,292.917,364.726,292.723z M360.458,310.724
			c-1.413,0.042-2.827,0.093-4.239,0.139c-3.361-5.87-6.705-11.735-9.156-18.038c1.087-0.007,2.175-0.018,3.262-0.022
			C353.367,298.954,356.805,304.913,360.458,310.724z M303.184,320.624c0.624-0.014,1.248-0.036,1.872-0.051
			c-2.859,3.51-5.245,7.499-7.606,11.265c-3.19,5.092-6.2,10.307-9.072,15.588c-1.156-0.024-2.312-0.039-3.463-0.027
			C290.577,338.191,297.008,329.492,303.184,320.624z M282.545,347.458c-1.688,0.07-3.368,0.2-5.045,0.428
			c0.219-0.392,0.437-0.782,0.652-1.176c6.936-8.814,13.761-17.741,21.362-25.996c0.398-0.008,0.798-0.021,1.196-0.028
			C294.527,329.525,288.137,338.229,282.545,347.458z M298.438,334.04c2.798-4.573,5.674-9.489,9.309-13.54
			c0.665-0.018,1.33-0.041,1.995-0.06c-3.197,9.857-10.487,18.792-16.774,27.131c-0.781-0.031-1.566-0.063-2.347-0.089
			C293.122,342.941,295.733,338.462,298.438,334.04z M311.847,320.377c1.095-0.03,2.188-0.069,3.283-0.104
			c-5.79,9.221-11.698,18.368-17.703,27.449c-0.345-0.008-0.686-0.013-1.031-0.023c-0.34-0.012-0.676-0.025-1.016-0.038
			C301.731,339.266,308.821,330.316,311.847,320.377z M317.543,320.198c1.358-0.043,2.717-0.096,4.073-0.142
			c-7.392,8.65-13.292,18.438-19.986,27.633c-0.602,0.023-1.207,0.043-1.818,0.05C305.827,338.626,311.747,329.449,317.543,320.198z
			 M324.344,319.961c1.459-0.05,2.917-0.104,4.376-0.153c-6.949,9.128-12.916,18.995-20.952,27.262
			c-1.176,0.188-2.359,0.351-3.566,0.455C310.836,338.27,316.764,328.485,324.344,319.961z M331.293,319.715
			c0.879-0.03,1.759-0.061,2.638-0.092c-5.312,8.989-12.229,16.949-18.316,25.418c-1.479,0.539-2.971,0.991-4.482,1.356
			C318.637,338.114,324.419,328.509,331.293,319.715z M336.287,319.542c1.343-0.048,2.688-0.092,4.029-0.14
			c-4.447,6.591-9.076,13.058-13.545,19.635c-1.032,0.714-2.074,1.413-3.138,2.076c-1.488,0.929-2.978,1.738-4.474,2.446
			C325.026,335.667,331.411,328.087,336.287,319.542z M342.776,319.317c1.871-0.066,3.742-0.129,5.614-0.194
			c-2.676,3.418-5.546,6.682-8.229,10.097c-2.921,2.018-5.745,4.201-8.596,6.342C335.318,330.155,339.117,324.784,342.776,319.317z
			 M350.954,319.033c2.087-0.072,4.175-0.148,6.264-0.217c-3.764,2.601-7.824,4.812-11.801,7.074
			C347.293,323.628,349.174,321.372,350.954,319.033z M353.958,310.936c-1.534,0.052-3.068,0.106-4.604,0.161
			c-3.274-5.627-5.485-11.888-6.928-18.238c0.836-0.007,1.672-0.014,2.509-0.02C347.328,299.167,350.607,305.064,353.958,310.936z
			 M347.076,311.178c-1.538,0.057-3.075,0.113-4.612,0.171c-0.076-0.295-0.201-0.66-0.365-1.228
			c-0.376-1.297-0.702-2.606-1.095-3.898c-1.346-4.441-2.778-8.822-3.863-13.322c1.084-0.009,2.167-0.02,3.251-0.026
			C341.788,299.208,343.919,305.503,347.076,311.178z M340.391,311.425c-0.803,0.03-1.604,0.061-2.405,0.09
			c-2.092-6.112-4.547-12.165-5.241-18.578c0.779-0.008,1.56-0.015,2.338-0.021C336.525,299.171,338.605,305.263,340.391,311.425z
			 M335.907,311.592c-0.916,0.034-1.832,0.066-2.748,0.102c-2.054-6.27-3.997-12.573-6.42-18.709
			c1.333-0.012,2.666-0.021,3.999-0.032C331.412,299.389,333.801,305.459,335.907,311.592z M331.082,311.771
			c-1.312,0.049-2.625,0.093-3.937,0.141c-2.667-6.044-4.305-12.469-5.84-18.883l3.297-0.026
			C327.063,299.153,329.025,305.476,331.082,311.771z M325.018,311.988c-1.097,0.039-2.19,0.072-3.285,0.11
			c-2.255-6.238-4.174-12.563-5.644-19.027c1.056-0.01,2.109-0.018,3.164-0.025C320.796,299.474,322.438,305.892,325.018,311.988z
			 M319.638,312.169c-0.913,0.03-1.826,0.059-2.739,0.087c-2.119-6.372-4.408-12.684-6.235-19.143
			c1.126-0.009,2.252-0.018,3.378-0.026C315.489,299.572,317.396,305.915,319.638,312.169z M314.816,312.322
			c-1.145,0.036-2.286,0.065-3.43,0.101c-2.856-6.095-4.883-12.604-5.854-19.27c1.02-0.009,2.036-0.017,3.055-0.023
			C310.392,299.612,312.683,305.939,314.816,312.322z M309.226,312.485c-1.278,0.035-2.557,0.059-3.834,0.09
			c-0.04-0.081-0.069-0.163-0.138-0.24c-2.438-2.811-3.187-7.204-3.991-10.726c-0.633-2.761-1.118-5.584-1.414-8.418
			c1.229-0.011,2.456-0.015,3.685-0.023C304.492,299.845,306.443,306.337,309.226,312.485z M302.995,312.631
			c-1.261,0.028-2.521,0.05-3.781,0.074c-2.002-6.379-3.749-12.86-4.635-19.481c1.088-0.008,2.176-0.013,3.265-0.021
			c0.32,3.005,0.866,5.993,1.491,8.938C300.065,305.583,300.941,309.609,302.995,312.631z M297.135,312.747
			c-1.068,0.019-2.138,0.025-3.205,0.04c-2.946-5.615-3.571-13.087-4.55-19.53c1.065-0.007,2.132-0.012,3.196-0.02
			C293.453,299.868,295.154,306.355,297.135,312.747z M291.713,312.815c-0.771,0.008-1.541,0.021-2.312,0.027
			c-0.12-0.278-0.226-0.562-0.342-0.844c-0.311-3.822-1.454-7.556-3.367-10.88c-0.562-2.58-0.987-5.193-1.296-7.832
			c0.993-0.007,1.984-0.012,2.979-0.02C288.385,299.646,288.984,307.004,291.713,312.815z M290.983,320.829
			c-1.112,1.104-2.212,2.226-3.266,3.384c0.277-1.11,0.531-2.229,0.738-3.356C289.299,320.851,290.141,320.835,290.983,320.829z
			 M286.266,329.154c2.19-3.052,4.902-5.716,7.589-8.355c0.973-0.013,1.944-0.017,2.918-0.03
			c-4.835,5.36-9.379,10.976-13.851,16.648C284.177,334.712,285.312,331.96,286.266,329.154z M277.686,293.33
			c1.569-0.006,3.142-0.02,4.712-0.029c0.159,1.365,0.338,2.726,0.559,4.074C281.385,295.699,279.607,294.409,277.686,293.33z
			 M400.038,297.375h-6.656c-1.288,0-1.288,2,0,2h6.868c0.007,1.772-0.429,3.588-1.175,5.411c-2.533,0.363-5.135,0.312-7.693,0.589
			c-1.268,0.138-1.28,2.139,0,2c2.221-0.24,4.473-0.245,6.689-0.454c-0.894,1.692-1.998,3.38-3.206,5.033
			c-2.318,0.073-4.646-0.059-6.983-0.079c-1.289-0.011-1.288,1.989,0,2c1.831,0.017,3.651,0.085,5.466,0.084
			c-1.41,1.799-2.886,3.544-4.271,5.192c-2.383,0.306-4.788,0.474-7.194,0.724c-1.27,0.132-1.281,2.133,0,2
			c1.786-0.186,3.572-0.325,5.35-0.504c-0.901,1.104-1.727,2.153-2.406,3.129c-0.246,0.353-0.48,0.71-0.725,1.062
			c-2.724,0.289-5.469,0.312-8.219,0.312c-1.288,0.001-1.288,2.001,0,2c2.264-0.001,4.521-0.022,6.768-0.184
			c-0.886,1.321-1.762,2.646-2.63,3.979c-2.372,0.275-4.759,0.429-7.138,0.704c-1.266,0.146-1.278,2.148,0,2
			c1.912-0.222,3.828-0.369,5.739-0.557c-0.753,1.16-1.505,2.32-2.261,3.479c-1.658,0.072-3.32,0.077-4.979,0.078
			c-1.289,0-1.289,2,0,2c1.214,0,2.425-0.015,3.635-0.047c-0.645,0.973-1.283,1.948-1.94,2.913c-2.679,0.382-5.317,1.011-7.96,1.67
			c-1.251,0.312-0.72,2.24,0.531,1.928c1.956-0.487,3.908-0.964,5.878-1.325c-0.084,0.117-0.162,0.24-0.246,0.358
			c-1.004,1.417-2.073,2.916-3.219,4.393c-2.188,0.296-4.401,0.332-6.679,0.11c-1.283-0.125-1.271,1.877,0,2
			c1.648,0.16,3.272,0.193,4.878,0.095c-1.181,1.36-2.44,2.652-3.806,3.773c-2.834,0.249-5.704-0.052-8.572-0.368
			c-1.281-0.142-1.269,1.86,0,2c1.857,0.205,3.715,0.392,5.562,0.443c-1.611,0.892-3.35,1.52-5.242,1.762
			c-6.311,0.81-12.913-0.823-19.254-0.799c-8.341,0.033-16.637,1.136-24.981,1.085c-12.788-0.078-25.906-2.227-38.668-0.583
			c0.285-0.493,0.57-0.988,0.854-1.484c0.099-0.025,0.191-0.031,0.292-0.065c8.911-2.979,18.155-1.632,27.357-1.438
			c8.571,0.183,16.256-1.748,23.732-5.491c0.105,0.037,0.214,0.07,0.346,0.07c3.776,0.002,7.559-0.004,11.234,0.964
			c1.249,0.329,1.778-1.601,0.531-1.928c-2.824-0.744-5.71-0.951-8.608-1.011c1.299-0.759,2.573-1.557,3.829-2.384
			c3.501,0.331,7.02,0.453,10.515,0.857c1.279,0.148,1.266-1.854,0-2c-2.624-0.304-5.262-0.445-7.895-0.635
			c1.664-1.167,3.309-2.363,4.943-3.576c3.146,0.255,6.258-0.229,9.45-0.289c1.287-0.023,1.29-2.023,0-2
			c-2.32,0.044-4.612,0.354-6.906,0.399c0.896-0.666,1.795-1.331,2.697-1.987c3.312-0.352,6.724-0.236,9.975-0.948
			c1.26-0.274,0.726-2.203-0.531-1.928c-2.05,0.448-4.177,0.54-6.297,0.649c0.854-0.589,1.711-1.171,2.582-1.731
			c1.312-0.848,2.642-1.654,3.972-2.451c3.422,0.014,6.907,0.065,10.274-0.539c1.269-0.228,0.729-2.153-0.531-1.928
			c-2.101,0.376-4.266,0.466-6.427,0.479c1.521-0.91,3.036-1.827,4.514-2.793c0.16,0.164,0.382,0.277,0.679,0.277h8.5
			c1.29,0,1.29-2,0-2h-6.647c0.674-0.484,1.338-0.981,1.99-1.5h7.657c1.29,0,1.29-2,0-2h-5.315c0.662-0.609,1.312-1.24,1.938-1.908
			c1.293-0.028,2.586-0.067,3.879-0.092c0.746-0.014,1.371-0.207,1.901-0.503c1.122-0.421,2.092-1.426,2.562-2.646
			c1.27,0.016,2.537-0.1,3.802-0.389c1.258-0.286,0.725-2.215-0.531-1.928c-0.991,0.226-1.993,0.317-2.995,0.322
			c-0.077-0.74-0.355-1.489-0.91-2.188c-0.312-0.395-0.615-0.796-0.926-1.191c1.447,0.13,2.895,0.263,4.331,0.483
			c1.262,0.195,1.803-1.731,0.531-1.928c-2.163-0.335-4.349-0.471-6.522-0.692c-0.969-1.271-1.925-2.552-2.864-3.844h8.621
			c1.29,0,1.29-2,0-2h-10.062c-0.588-0.829-1.172-1.661-1.745-2.5h6.307c1.29,0,1.29-2,0-2h-7.638
			c-0.551-0.832-1.108-1.658-1.645-2.5h8.281c0.988,0,1.214-1.168,0.688-1.717c7.152,0.136,14.312-0.276,21.28-1.688
			C398.457,293.318,399.599,295.306,400.038,297.375z M291.389,203.996c5.091,1.075,10.117,2.144,15.321,2.066
			c12.041,7.814,22.659,17.604,32.253,28.245c9.413,10.441,18.061,22.26,23.809,35.191c-2.736,0.045-5.479,0.21-8.225,0.542
			c-5.055,0.611-5.113,8.618,0,8c13.604-1.645,27.075,0.785,40.626,1.781c0.188,1.213,0.322,2.434,0.326,3.656
			c-7.774,1.684-15.85,1.967-23.866,1.607c-0.497-0.237-1.078-0.379-1.753-0.379c-1.384,0-2.768,0.008-4.15,0.01
			c-2.411-0.189-4.809-0.422-7.183-0.677c-1.113-0.119-1.969,0.18-2.595,0.704c-29.389,0.135-58.774,0.595-88.164,0.624
			c-1.523-5.842-4.267-10.69-11.562-11.37c-1.198-0.111-2.402-0.165-3.61-0.197c-7.616-20.302-24.203-37.714-40.647-51.222
			c-6.771-5.562-14.032-10.643-21.979-14.352c16.011-2.171,32.06-4.285,48.135-5.012c11.64-0.526,23.268-1.211,34.922-1.039
			C279.247,202.269,285.317,202.714,291.389,203.996z M258.604,194.301c0.757-1.233,1.535-2.452,2.383-3.622
			c0.58-0.005,1.16-0.017,1.739-0.026c-0.828,1.169-1.613,2.365-2.329,3.604C259.799,194.274,259.202,194.28,258.604,194.301z
			 M262.758,194.197c0.769-1.235,1.602-2.431,2.469-3.604c0.552-0.017,1.104-0.029,1.654-0.054
			c-0.496,0.764-0.981,1.535-1.454,2.316c-0.265,0.437-0.411,0.866-0.501,1.287C264.204,194.152,263.481,194.181,262.758,194.197z
			 M278.857,181.431c-15.98,2.551-32.342,0.873-48.477,0.51c-0.002-0.023,0.003-0.043,0-0.066
			c-0.975-10.244-1.917-20.49-2.456-30.768c13.508-1.013,27.041-1.585,40.555-2.497c-0.309,0.284-0.604,0.581-0.909,0.868
			c-1.548,0.029-3.038,0.882-3.545,2.833c-2.326,8.945,4.576,14.662,12.126,17.588c0.854,0.331,1.763,0.23,2.57-0.137
			c0.746-0.279,1.434-0.818,1.946-1.702c0.745-1.281,1.583-2.487,2.482-3.641C282.548,170.215,281.349,176.185,278.857,181.431z
			 M284.939,151.194c-0.615,0.514-1.229,1.028-1.822,1.563c-0.015-2.055-0.015-4.108,0.06-6.159c0.702-0.56,1.414-1.108,2.127-1.657
			C285.141,147.02,285.035,149.105,284.939,151.194z M288.412,148.501c-0.468,0.343-0.938,0.681-1.396,1.033
			c0.1-2.077,0.223-4.15,0.421-6.217c0.343-0.257,0.695-0.501,1.041-0.756C288.399,144.537,288.398,146.518,288.412,148.501z
			 M324.898,119.32c0.461-0.275,0.922-0.549,1.384-0.824c-0.059,3.152-0.161,6.306-0.221,9.459c-0.549,0.301-1.094,0.604-1.65,0.902
			C324.437,125.679,324.738,122.505,324.898,119.32z M320.654,121.847c0.726-0.434,1.449-0.862,2.175-1.295
			c-0.188,3.125-0.464,6.242-0.421,9.364c-0.677,0.354-1.349,0.707-2.034,1.057C320.305,127.934,320.521,124.89,320.654,121.847z
			 M317.172,123.929c0.479-0.289,0.96-0.573,1.439-0.861c-0.131,2.966-0.287,5.923-0.169,8.883
			c-0.661,0.331-1.322,0.662-1.989,0.992C316.75,129.945,316.924,126.934,317.172,123.929z M313.744,125.988
			c0.442-0.27,0.89-0.531,1.332-0.8c-0.219,2.935-0.395,5.872-0.725,8.795c-0.827,0.407-1.653,0.813-2.485,1.223
			C312.442,132.123,313.077,129.052,313.744,125.988z M309.696,128.46c0.565-0.35,1.134-0.691,1.7-1.038
			c-0.63,2.951-1.225,5.909-1.755,8.881c-0.214,0.105-0.428,0.209-0.642,0.315C309.15,133.882,309.227,131.14,309.696,128.46z
			 M306.092,130.693c0.465-0.293,0.936-0.576,1.4-0.868c-0.295,2.581-0.331,5.198-0.517,7.807c-0.572,0.288-1.146,0.574-1.715,0.866
			C305.268,135.859,305.409,133.218,306.092,130.693z M290.398,147.092c-0.009-2.014,0.012-4.024,0.14-6.028
			c0.505-0.365,1.021-0.714,1.529-1.075c-0.078,1.983-0.059,3.972,0.044,5.964C291.536,146.328,290.962,146.704,290.398,147.092z
			 M295.572,143.818c-0.505,0.303-1.021,0.592-1.521,0.901c-0.073-2.064-0.059-4.124,0.077-6.181
			c0.523-0.363,1.057-0.715,1.581-1.074C295.534,139.574,295.485,141.697,295.572,143.818z M299.326,141.659
			c-0.593,0.329-1.19,0.649-1.778,0.986c-0.042-2.224,0.058-4.445,0.323-6.649c0.564-0.378,1.136-0.747,1.702-1.121
			C299.356,137.122,299.321,139.388,299.326,141.659z M301.324,140.553c0.01-2.385,0.089-4.762,0.429-7.114
			c0.662-0.43,1.337-0.841,2.002-1.268c-0.41,2.41-0.479,4.877-0.479,7.356C302.625,139.868,301.971,140.205,301.324,140.553z"/>
	</g>
</g>
<g>
</g>
<g>
</g>
<g>
</g>
<g>
</g>
<g>
</g>
<g>
</g>
<g>
</g>
<g>
</g>
<g>
</g>
<g>
</g>
<g>
</g>
<g>
</g>
<g>
</g>
<g>
</g>
<g>
</g>
</svg>
