<?xml version="1.0" encoding="iso-8859-1"?>
<!-- Generator: Adobe Illustrator 16.0.0, SVG Export Plug-In . SVG Version: 6.00 Build 0)  -->
<!DOCTYPE svg PUBLIC "-//W3C//DTD SVG 1.1//EN" "http://www.w3.org/Graphics/SVG/1.1/DTD/svg11.dtd">
<svg version="1.1" id="Capa_1" xmlns="http://www.w3.org/2000/svg" xmlns:xlink="http://www.w3.org/1999/xlink" x="0px" y="0px"
	 width="516.063px" height="516.063px" viewBox="0 0 516.063 516.063" style="enable-background:new 0 0 516.063 516.063;"
	 xml:space="preserve">
<g>
	<path fill="#98f698" d="M515.775,307.201c-1.616-22.801-9.43-48.088-23.407-66.441c-10.958-14.388-27.339-23.506-44.681-27.865
		c-27.062-6.804-57.623-1.904-79.989,15.091c-9.693-9.469-20.045-18.243-29.959-27.474c-2.938-2.736-6.222-5.36-8.239-8.89
		c-1.622-2.837-1.666-6.44-1.445-9.807c3.375,0.444,6.77,0.596,10.189,0.134c8.302-1.121,16.743-5.625,17.146-14.895
		c0.401-9.345-9.481-18.233-17.409-21.307c-9.438-3.658-19.028,1.671-27.543,5.16c-6.18,2.533-12.965,3.554-19.615,3.349
		c-5.181-0.16-9.743-1.097-14.28,0.938c-0.866-0.156-1.804,0.083-2.602,0.957c-10.548,11.568,9.106,17.364,17.333,19.158
		c3.949,0.861,7.939,1.487,11.939,2.056c-0.343,0.319-0.635,0.72-0.84,1.226c-0.372,0.919-0.837,1.806-1.314,2.683
		c-18.248-4.196-36.856-6.584-55.089-10.86c-16.41-3.848-32.799-10.109-49.82-10.217c0.947-1.959,1.854-3.94,2.686-5.96
		c0.029-0.071,0.043-0.137,0.066-0.206c4.906,0.778,9.666,0.592,14.57-0.609c5.176-1.266,9.52-4.424,13.973-7.182
		c4.133-2.56,9.26-5.267,13.969-2.539c3.162,1.831,4.807,6.441,6.326,9.543c2.863,5.848,7.029,12.418,14.53,11.467
		c7.562-0.959,7.46-9.347,6.432-15.126c-2.786-15.644-12.87-31.348-30.716-28.789c-9.479,1.359-16.23,7.124-24.477,11.353
		c-0.906,0.465-1.826,0.795-2.754,1.021c-3.223-7.682-7.676-15.248-14.17-20.458c-8.412-6.749-17.775-4.394-24.527,3.357
		c-10.516,12.074-3.137,24.427,8.174,31.458c-8.6,12.263-17.848,24.286-22.807,38.565c-13.764-0.471-24.242,15.904-27.406,28.513
		c-14.428-5.569-32.477-3.463-47.064-2.468c-22.303,1.523-43.605,16.78-58.254,32.73C-0.97,272.819-6.841,315.78,8.069,350.259
		c10.156,23.491,28.988,41.59,52.514,51.321c0.277,0.894,0.926,1.676,2.055,2.047c19.453,6.404,41.996,3.771,61.398-2.533
		c0.381,0.154,0.832-0.016,1.08-0.354c1.107-0.369,2.207-0.748,3.291-1.141c3.676-1.33,7.326-2.861,10.912-4.572
		c0.094-0.031,0.182-0.074,0.262-0.127c14.576-6.994,28.086-17.049,37.971-29.592c13.08-16.599,19.146-37.982,18.037-58.978
		c-1.082-20.424-8.992-38.313-19.273-55.596c-3.125-5.251-6.49-10.385-10.395-15.093c-2.043-2.463-4.543-5.067-7.637-6.091
		c1.188-1.613,2.408-3.213,3.619-4.837c5.031-6.741,11.715-16.722,11.461-25.08c0.031-0.001,0.064-0.007,0.098-0.009
		c15.598,15.691,29.617,32.848,45.059,48.688c7.123,7.306,15.34,13.628,22.855,20.535c7.855,7.217,15.535,14.791,22.01,23.295
		c0.175,0.229,0.37,0.42,0.573,0.588c-3.354,9.438-2.383,20.645,0.683,29.863c6.458,19.428,26.517,26.246,45.346,23.862
		c1.526-0.194,3.041-0.448,4.555-0.729c0.177-0.031,0.325-0.088,0.479-0.142c2.304,6.455,4.354,12.994,5.939,19.681
		c-1.749,1.5-3.427,3.082-4.962,4.825c-0.393,0.443-0.617,0.918-0.735,1.396c-0.58,1.312-0.331,2.867,1.383,3.629
		c0.147,0.064,0.299,0.129,0.447,0.195c0.093,0.049,0.188,0.086,0.284,0.125c7.773,3.403,15.875,6.312,22.771,11.336
		c0.604,2.215,4.227,3.44,6.02,0.908c0.062-0.089,0.131-0.175,0.191-0.263c0.185-0.194,0.339-0.41,0.471-0.635
		c3.183-4.334,6.883-8.266,10.662-12.096c4.328,3.756,8.937,7.157,13.646,10.18c11.468,7.352,24.422,12.699,37.765,15.445
		c6.138,1.262,12.433,1.854,18.693,1.698c4.482-0.108,8.766-1.311,13.106-2.032c0.213,0.055,0.438,0.092,0.679,0.104
		c5.891,0.318,10.771-2.811,16.095-4.852c5.125-1.968,10.104-4.302,14.925-6.924c9.144-4.98,17.537-11.462,24.541-19.166
		C512.457,352.064,517.378,329.759,515.775,307.201z M509.633,310.889c-4.246-0.34-8.521-0.09-12.764-0.424
		c0.031-1.668-0.001-3.341-0.073-5.013c4.087-0.639,8.222-0.953,12.289-1.688C509.344,306.136,509.53,308.514,509.633,310.889z
		 M508.86,301.951c-4.024,0.748-8.115,1.066-12.164,1.681c-0.104-1.609-0.242-3.224-0.435-4.828
		c3.568-1.521,7.904-2.16,11.735-2.631C508.34,298.093,508.618,300.021,508.86,301.951z M507.014,291.221
		c0.231,1.053,0.444,2.104,0.648,3.164c-3.83,0.477-8.029,1.125-11.645,2.561c-0.267-1.897-0.579-3.791-0.954-5.668
		c3.78-0.908,7.582-1.725,11.436-2.248C506.672,289.761,506.853,290.494,507.014,291.221z M506.084,287.257
		c-3.838,0.53-7.627,1.332-11.398,2.233c-0.296-1.356-0.608-2.709-0.958-4.047c3.695-1.041,7.419-2.062,11.205-2.639
		C505.339,284.294,505.721,285.775,506.084,287.257z M504.431,281.046c-3.777,0.575-7.491,1.594-11.181,2.633
		c-0.076-0.271-0.144-0.543-0.219-0.812c-0.463-1.604-0.983-3.176-1.539-4.729c3.734-0.916,7.399-2.103,11.149-2.963
		C503.285,277.128,503.871,279.089,504.431,281.046z M502.064,273.432c-3.77,0.869-7.45,2.065-11.209,2.981
		c-0.642-1.666-1.323-3.307-2.065-4.909c3.63-1.513,7.494-2.369,11.146-3.853C500.69,269.564,501.399,271.494,502.064,273.432z
		 M348.025,319.761c0.025,0.414,0.145,0.846,0.362,1.28c-4.058,0.927-8.167,1.652-12.235,2.521c-0.023-0.551-0.062-1.098-0.068-1.65
		c0-0.114-0.023-0.219-0.035-0.33C340.022,320.841,344.019,320.257,348.025,319.761z M349.245,322.718
		c0.397,0.774,0.798,1.543,1.195,2.315c-4.727,0.582-9.324,1.709-13.894,3.031c-0.117-0.881-0.221-1.766-0.293-2.658
		C340.573,324.475,344.939,323.718,349.245,322.718z M351.336,326.768c0.77,1.492,1.534,2.992,2.312,4.473
		c-5.299,1.047-10.621,1.859-16.004,2.594c-0.326-1.301-0.6-2.614-0.823-3.944C341.585,328.494,346.388,327.307,351.336,326.768z
		 M350.257,338.675c2.265-0.347,4.484-0.802,6.682-1.318c0.205,0.367,0.415,0.732,0.622,1.102c-2.605,1.283-5.622,2.041-8.229,2.886
		c-2.687,0.867-5.388,1.692-8.023,2.696c-0.604-1.297-1.182-2.604-1.688-3.938C343.169,339.671,346.719,339.218,350.257,338.675z
		 M354.53,319.027c9.18-0.945,18.398-1.594,27.563-2.684c2.88-0.342,5.76-0.672,8.639-1.004c0.01,0.037,0.008,0.071,0.018,0.108
		c0.596,2.394,1.574,4.633,2.849,6.717c-8.423,1.23-16.827,2.835-24.868,5.322c-2.903,0.896-5.805,1.67-8.705,2.361
		C358.152,326.229,356.354,322.589,354.53,319.027z M375.233,332.271c7.629-2.057,15.437-3.096,23.25-4.061
		c1.401,1.368,2.934,2.639,4.541,3.815c-6.094,9.828-11.894,19.854-16.218,30.592c-0.726-0.438-1.447-0.891-2.162-1.367
		c-9.544-6.352-16.002-15.627-21.486-25.521C367.171,334.602,371.158,333.369,375.233,332.271z M397.159,314.598
		c2.904-0.332,5.812-0.664,8.715-0.998c7.105-0.818,14.285-2.303,21.438-2.664c1.014,1.195,2.871,1.715,4.251,0.799
		c-4.933,7.201-17.402,7.869-25.087,8.767c-1.909,0.223-3.829,0.456-5.75,0.698C399.127,319.175,397.884,316.968,397.159,314.598z
		 M408.415,335.475c3.85,2.152,7.884,3.836,11.663,5.029c0.587,0.188,1.171,0.34,1.753,0.479c0.003,0.023,0,0.043,0.004,0.066
		c0.837,5.67,1.34,11.389,2.133,17.063c0.649,4.646,1.271,9.84,3.319,14.197c-12.086,0.104-23.91-1.515-34.842-6.658
		C396.592,355.029,402.412,345.146,408.415,335.475z M421.778,334.335c-4.71-1.351-10.136-3.812-14.757-7.195
		c4.68-0.619,9.339-1.336,13.943-2.354c11.005-2.43,20.479-10.869,18.863-22.916c-1.471-10.963-10.633-19.114-21.614-19.114
		c-0.408,0-0.767,0.075-1.095,0.19c-1.999-2.36-3.909-4.799-5.801-7.254c4.737-1.611,9.564-2.746,14.646-2.57
		c6.831,0.236,11.248,5.017,15.429,9.824c2.06,2.367,3.94,4.887,5.545,7.519c0.15,0.6,0.456,1.146,0.916,1.565
		c4.59,8.26,6.266,17.537,1.725,26.801C444.459,329.271,433.771,337.766,421.778,334.335z M432.887,299.781
		c0.733,2.172,0.979,4.541,0.603,6.972C433.555,304.466,433.107,301.949,432.887,299.781z M407.231,270.363
		c-2.462-3.201-4.957-6.373-7.628-9.393c-4.825-5.453-9.84-10.789-14.945-16.04c9.364-5.141,19.109-9.381,29.679-11.359
		c0.848-0.158,1.694-0.288,2.543-0.4c0.013,0.196,0.03,0.394,0.079,0.603c2.461,10.543,2.472,22.541,1.749,33.341
		C414.768,267.77,410.883,269.005,407.231,270.363z M445.291,255.106c-2.644,4.892-5.475,10.277-9.252,14.525
		c-2.023-1.142-4.226-2.009-6.66-2.504c-1.401-0.285-2.818-0.439-4.239-0.482c0.707-11.033,0.551-23.113-1.864-33.911
		c8.852-0.032,17.585,2.246,25.603,6.185c1.061,0.521,2.099,1.07,3.12,1.637C450.601,245.651,447.767,250.527,445.291,255.106z
		 M457.646,244.039c10.956,7.467,19.468,17.729,25.081,29.734c-10.716,3.494-19.315,11.926-30.982,12.59
		c-1.221-1.957-2.562-3.867-3.997-5.721c-2.02-2.605-4.154-5.096-6.532-7.238c3.603-4.217,6.396-9.315,9.044-14.055
		C452.923,254.585,455.91,249.379,457.646,244.039z M446.44,333.373c5.521,7.796,12.881,14.593,20.748,19.949
		c3.422,2.33,6.619-3.219,3.229-5.524c-7.146-4.869-14.052-11.22-18.966-18.355c-0.208-0.303-0.447-0.533-0.697-0.734
		c1.386-1.743,2.64-3.588,3.734-5.493c2.294-3.988,3.561-8.009,4.007-11.998c10.001,2.547,19.965,5.524,30.18,7.08
		c0.42,0.063,0.807,0.041,1.172-0.027c-1.19,7.99-3.911,15.729-8.504,22.803c-5.123,7.894-12.662,14.346-20.147,19.93
		c-5.996,4.472-13.257,9.431-20.895,10.91c-0.388-0.146-0.843-0.211-1.364-0.168c-1.573,0.133-3.146,0.24-4.721,0.332
		c-0.062-0.385-0.195-0.783-0.439-1.188c-2.518-4.144-2.951-9.777-3.641-14.474c-0.72-4.918-1.178-9.868-1.828-14.797
		C435.109,341.33,441.348,338.085,446.44,333.373z M459.295,304.809c-0.271-0.068-0.526-0.101-0.773-0.104
		c-0.425-4.176-1.663-8.278-3.479-12.243c5.129-0.759,9.975-2.666,14.712-4.962c5.119-2.479,10.018-6.051,15.482-7.786
		c0.441,1.188,0.857,2.387,1.245,3.604c2.989,9.354,4.504,19.193,3.98,28.828c-0.028-0.006-0.052-0.018-0.082-0.021
		C479.854,310.521,469.599,307.404,459.295,304.809z M499.249,265.966c-3.689,1.477-7.575,2.373-11.236,3.896
		c-1.099-2.233-2.288-4.41-3.579-6.516c3.716-1.793,7.548-4.023,11.682-4.332C497.241,261.287,498.275,263.613,499.249,265.966z
		 M495.228,257.273c-4.16,0.542-8.009,2.725-11.776,4.524c-1.081-1.675-2.209-3.316-3.411-4.901
		c3.444-2.653,7.449-4.56,11.561-5.982C492.894,252.972,494.097,255.101,495.228,257.273z M486.745,243.992
		c1.358,1.718,2.642,3.504,3.854,5.343c-4.157,1.479-8.172,3.441-11.674,6.122c-1.229-1.549-2.511-3.057-3.854-4.512
		C478.624,248.149,482.612,245.82,486.745,243.992z M485.536,242.543c-4.154,1.889-8.126,4.243-11.708,7.071
		c-1.26-1.304-2.562-2.568-3.911-3.791c4.118-2.241,8.067-4.765,12.019-7.294C483.193,239.811,484.382,241.16,485.536,242.543z
		 M475.958,233.189c1.623,1.263,3.169,2.608,4.646,4.022c-3.98,2.55-7.974,5.083-12.143,7.318c-1.46-1.263-2.962-2.486-4.519-3.651
		c3.188-3.177,6.708-6.042,9.607-9.466C474.364,231.989,475.172,232.575,475.958,233.189z M472.051,230.383
		c-2.887,3.403-6.418,6.241-9.59,9.406c-1.843-1.319-3.737-2.582-5.699-3.762c2.453-3.428,5.181-6.713,7.308-10.349
		C466.831,227.081,469.491,228.658,472.051,230.383z M462.428,224.865c-2.116,3.589-4.812,6.839-7.239,10.229
		c-1.018-0.583-2.037-1.157-3.082-1.702c-0.483-0.252-0.969-0.484-1.454-0.72c2.184-3.352,4.354-6.71,6.332-10.187
		C458.831,223.215,460.645,224.01,462.428,224.865z M448.49,219.624c2.292,0.637,4.547,1.376,6.767,2.195
		c-1.97,3.433-4.114,6.755-6.273,10.072c-1.925-0.865-3.856-1.622-5.795-2.257C444.748,226.198,446.764,222.985,448.49,219.624z
		 M446.69,219.139c-1.729,3.331-3.703,6.534-5.247,9.952c-1.708-0.501-3.419-0.928-5.132-1.265c1.715-3.356,3.632-6.601,5.707-9.749
		C443.589,218.39,445.145,218.745,446.69,219.139z M440.078,217.702c-2.059,3.161-3.943,6.424-5.638,9.793
		c-1.355-0.221-2.715-0.411-4.073-0.536c1.602-3.262,3.076-6.565,3.981-10.09C436.27,217.089,438.18,217.366,440.078,217.702z
		 M426.521,216.296c1.998,0.06,3.992,0.193,5.979,0.38c-0.948,3.538-2.467,6.85-4.094,10.133c-1.148-0.068-2.299-0.105-3.445-0.109
		C425.224,223.173,425.546,219.679,426.521,216.296z M424.624,216.271c-0.928,3.401-1.233,6.909-1.493,10.445
		c-1.278,0.032-2.557,0.098-3.833,0.204c0.035-3.565,0.053-7.085-0.815-10.53C420.525,216.278,422.575,216.251,424.624,216.271z
		 M416.632,216.521c0.924,3.462,0.875,6.999,0.837,10.584c-2.02,0.222-4.033,0.521-6.039,0.913
		c-0.379-3.625-0.28-7.279-0.875-10.866C412.568,216.866,414.599,216.673,416.632,216.521z M408.756,217.426
		c0.626,3.613,0.527,7.308,0.897,10.964c-1.22,0.267-2.438,0.553-3.649,0.876c0.001-0.079,0.013-0.154-0.009-0.241
		c-0.863-3.546-1.581-7.123-2.882-10.515C404.978,218.088,406.861,217.732,408.756,217.426z M401.325,218.944
		c1.345,3.397,2.039,7.009,2.905,10.567c0.021,0.088,0.064,0.15,0.104,0.219c-1.547,0.446-3.09,0.935-4.624,1.464
		c-0.926-3.72-2.459-7.199-4.237-10.588C397.396,219.983,399.353,219.433,401.325,218.944z M393.719,221.198
		c1.797,3.396,3.341,6.875,4.258,10.613c-1.299,0.475-2.594,0.976-3.88,1.505c-2.562-2.957-4.306-6.483-6.427-9.759
		C389.648,222.691,391.67,221.91,393.719,221.198z M385.997,224.323c2.131,3.241,3.868,6.737,6.328,9.74
		c-0.929,0.4-1.854,0.809-2.774,1.234c-2.811-2.697-5.002-5.975-7.269-9.142C383.5,225.51,384.743,224.906,385.997,224.323z
		 M380.68,227.046c2.234,3.121,4.396,6.369,7.103,9.088c-1.494,0.72-2.979,1.467-4.453,2.245c-2.768-2.317-4.637-5.764-6.684-8.658
		c-0.045-0.065-0.097-0.12-0.148-0.168C377.857,228.668,379.26,227.842,380.68,227.046z M375.001,230.528
		c0.021,0.039,0.039,0.077,0.065,0.117c2.05,2.896,3.933,6.191,6.562,8.646c-0.234,0.128-0.471,0.252-0.706,0.382
		c-0.305,0.173-0.609,0.346-0.916,0.519c-2.564-2.589-5.147-5.152-7.733-7.706C373.167,231.812,374.077,231.159,375.001,230.528z
		 M348.649,164.867c0.038,0.117,0.065,0.23,0.102,0.345c-3.108-4.161-6.875-7.864-9.983-12.046
		C343.356,155.697,347.098,160.16,348.649,164.867z M335.601,151.795c3.896,6.036,9.488,10.857,13.334,16.887
		c-0.378,1.658-1.465,2.958-2.955,3.963c-4.938-7.35-10.116-14.53-15.438-21.608C332.26,150.981,333.96,151.265,335.601,151.795z
		 M328.42,151.233c5.508,7.305,10.863,14.719,15.967,22.313c-1.192,0.569-2.523,1.01-3.896,1.341
		c-6.347-6.201-9.811-15.667-14.076-23.285C327.076,151.453,327.745,151.332,328.42,151.233z M324.585,152.071
		c4.28,7.508,7.693,16.813,13.776,23.246c-0.413,0.068-0.823,0.127-1.23,0.179c-1.89-2.187-3.223-4.956-4.97-7.215
		c-3.772-4.882-7.205-9.96-10.117-15.393C322.881,152.585,323.729,152.318,324.585,152.071z M320.335,153.534
		c2.718,5.108,5.881,9.905,9.367,14.53c1.778,2.359,3.299,5.229,5.188,7.64c-1.239,0.076-2.374,0.078-3.305,0.029
		c-0.13-0.007-0.261-0.021-0.391-0.029c-5.184-6.618-9.475-13.872-14.404-20.681C317.969,154.51,319.146,154.008,320.335,153.534z
		 M315.101,155.761c0.022,0.047,0.049,0.094,0.083,0.141c4.661,6.434,8.778,13.243,13.563,19.574
		c-1.474-0.175-2.938-0.409-4.396-0.688c-4.054-5.888-7.973-11.862-11.595-18.03C313.541,156.438,314.32,156.1,315.101,155.761z
		 M311.049,157.443c0.012,0.021,0.01,0.04,0.021,0.06c3.354,5.729,6.97,11.288,10.709,16.767c-1.266-0.271-2.53-0.553-3.795-0.833
		c-3.043-5.136-6.776-9.828-9.712-15.028C309.208,158.119,310.133,157.793,311.049,157.443z M306.036,159.027
		c0.146-0.034,0.287-0.077,0.433-0.113c2.69,4.871,6.109,9.279,9.059,13.992c-1.612-0.339-3.229-0.653-4.854-0.896
		c-2.552-4.149-5.186-8.246-7.893-12.295C303.879,159.504,304.969,159.275,306.036,159.027z M282.175,166.031
		c-2.292-0.897-5.194-2.105-4.464-4.167c0.638-0.413,1.281-0.726,1.935-0.975c1.175,1.777,2.213,3.64,3.346,5.443
		C282.719,166.232,282.443,166.136,282.175,166.031z M285.787,167.298c-0.027-0.067-0.062-0.135-0.109-0.204
		c-1.53-2.157-2.761-4.503-4.188-6.724c0.442-0.083,0.892-0.135,1.342-0.172c1.331,2.588,2.741,5.126,4.39,7.514
		C286.741,167.573,286.26,167.447,285.787,167.298z M290.022,168.463c-2.017-2.58-3.65-5.413-5.163-8.314
		c0.544,0.016,1.095,0.053,1.646,0.098c2.114,2.851,4.027,5.842,6.015,8.784C291.686,168.846,290.852,168.666,290.022,168.463z
		 M297.101,169.951c-0.671-0.121-1.339-0.258-2.01-0.389c-2.089-3.01-4.059-6.1-6.183-9.084c0.634,0.064,1.271,0.128,1.911,0.178
		c0.332,0.025,0.67,0.032,1.004,0.046c1.904,3.215,3.754,6.461,6.059,9.382C297.622,170.039,297.36,169.998,297.101,169.951z
		 M300.674,170.552c-2.679-2.957-4.693-6.386-6.712-9.821c0.658-0.012,1.319-0.046,1.979-0.091
		c1.986,3.493,4.032,6.954,6.431,10.167C301.806,170.721,301.239,170.643,300.674,170.552z M297.943,160.463
		c0.963-0.106,1.918-0.247,2.871-0.401c2.567,3.825,5.073,7.69,7.503,11.604c-1.109-0.153-2.222-0.306-3.331-0.465
		C302.292,167.864,300.073,164.19,297.943,160.463z M244.267,176.584c19.093,4.346,38.554,6.857,57.599,11.428
		c1.347,0.323,2.94-0.177,3.613-1.471c1.073-2.069,2.188-4.086,3.063-6.25c0.346-0.85,0.292-1.585,0.008-2.185
		c0.052,0.007,0.104,0.014,0.154,0.021c4.356,0.596,8.708,1.685,13.077,2.592c-0.358,8.171,1.249,14.495,7.434,20.576
		c9.86,9.695,20.543,18.541,30.615,28.014c11.387,10.708,22.329,22.128,32.923,33.618c9.636,10.448,16.968,22.959,27.468,32.604
		c0.537,0.494,1.125,0.75,1.708,0.834c0.454,0.254,1.013,0.394,1.696,0.332c0.86-0.078,2.815,0.308,2.627-0.371
		c0.338,0.785,0.124,2.24,0.169,3.039c0.088,1.566,0.222,3.135,0.318,4.703c0.011,0.164,0.012,0.33,0.021,0.496
		c-6.415,0.385-12.812,1.676-19.18,2.438c-8.491,1.018-17.001,1.875-25.486,2.944c-4.441,0.562-8.896,1.002-13.351,1.414
		c-1.021-0.951-2.123-1.809-3.45-2.293c-1.214-0.445-1.731,1.488-0.53,1.928c0.419,0.152,0.809,0.371,1.181,0.621
		c-1.263,0.113-2.526,0.229-3.789,0.343c-1.02-0.789-2.119-1.455-3.36-1.892c-1.22-0.43-1.738,1.502-0.53,1.928
		c0.208,0.072,0.399,0.175,0.6,0.265c-0.516,0.049-1.031,0.096-1.547,0.145l-2.58-2.58c-0.913-0.912-2.327,0.502-1.414,1.414
		l1.414,1.414c-0.92,0.092-1.841,0.187-2.761,0.283c-0.031-0.365-0.238-0.719-0.682-0.867c-1.151-0.393-2.18-0.887-3.059-1.744
		c-0.924-0.899-2.339,0.515-1.414,1.414c0.662,0.646,1.399,1.125,2.188,1.523c-0.613,0.07-1.228,0.145-1.84,0.219
		c-0.882-0.457-1.713-0.953-2.436-1.656c-0.925-0.897-2.34,0.515-1.414,1.414c0.234,0.229,0.478,0.439,0.729,0.638
		c-0.545,0.073-1.09,0.145-1.635,0.221c-0.047-0.092-0.094-0.187-0.18-0.271c-0.975-0.975-1.971-2.006-3.202-2.655
		c-1.14-0.603-2.15,1.125-1.01,1.727c0.753,0.396,1.392,0.961,2,1.553c-0.526,0.082-1.052,0.166-1.578,0.252
		c-0.021-0.059-0.021-0.112-0.054-0.172c-0.274-0.504-0.668-0.889-1.154-1.188c-0.192-0.117-0.403-0.203-0.607-0.299
		c-0.196-0.091-0.344-0.171-0.395-0.218c-0.949-0.868-2.367,0.541-1.414,1.414c0.398,0.365,0.961,0.537,1.391,0.832
		c-0.896,0.158-1.792,0.318-2.687,0.49c0.242-1.791,0.37-3.602,0.38-5.416c11.322-0.229,22.546-1.969,33.869-2.234
		c8.839-0.209,18.396,1.707,26.945-1.25c0.51-0.021,1.049-0.188,1.594-0.59c1.988-1.461,4.445-2.297,6.533-3.684
		c1.813-1.205,3.787-2.904,5.822-3.924c1.053,0.08,1.979-0.547,2.529-1.48c1.402-1.695,0.707-4.553-1.194-5.221
		c0.382-0.887,0.522-1.742,0.523-2.73c0.001-1.289-1.999-1.289-2,0c0,0.621-0.041,1.148-0.247,1.701
		c-1.528-1.164-3.053-2.332-4.572-3.508c0.119-0.107,0.223-0.242,0.283-0.428c0.202-0.611,0.387-1.229,0.587-1.841
		c0.088-0.27,0.177-0.54,0.291-0.801c0.037-0.08,0.078-0.16,0.122-0.237c0.979-0.392,0.452-2.054-0.729-1.851
		c-0.701,0.119-1.049,0.885-1.285,1.467c-0.329,0.808-0.568,1.646-0.833,2.478c-0.706-0.551-1.412-1.103-2.116-1.654v-4.326
		c0-1.289-2-1.289-2,0v2.742c-0.998-0.793-1.993-1.59-2.984-2.391c0.062-1.22,0.502-2.463,0.948-3.586
		c0.477-1.199-1.458-1.715-1.928-0.531c-0.337,0.848-0.633,1.746-0.825,2.658c-0.572-0.468-1.14-0.939-1.709-1.41
		c0.03-1.156,0.366-2.438,0.861-3.478c0.552-1.157-1.173-2.174-1.728-1.01c-0.438,0.92-0.769,1.941-0.959,2.976
		c-0.891-0.744-1.776-1.492-2.658-2.246c0.373-1.359,0.479-2.738,0.48-4.226c0.001-1.289-1.999-1.289-2,0
		c-0.001,0.953-0.032,1.865-0.18,2.758c-0.924-0.801-1.842-1.604-2.755-2.413c0.271-1.107,0.332-2.312,0.798-3.339
		c0.527-1.166-1.195-2.184-1.728-1.01c-0.41,0.904-0.57,1.875-0.764,2.84c-1.073-0.969-2.142-1.942-3.199-2.93
		c0.275-1.281,0.325-2.588,0.326-3.906c0.001-1.289-1.999-1.289-2,0c0,0.758-0.015,1.504-0.085,2.242
		c-0.937-0.887-1.863-1.783-2.784-2.686c0.337-1.488,0.368-3.037,0.369-4.557c0.001-1.29-1.999-1.29-2,0
		c-0.001,0.948-0.011,1.9-0.108,2.841c-0.784-0.785-1.562-1.578-2.335-2.375c0.453-1.421,0.887-2.984,0.943-4.466
		c0.049-1.29-1.951-1.286-2,0c-0.034,0.915-0.259,1.876-0.526,2.804c-0.737-0.779-1.471-1.561-2.196-2.352
		c0.742-1.153,1.181-2.657,1.224-3.952c0.043-1.291-1.957-1.286-2,0c-0.021,0.607-0.249,1.589-0.634,2.396
		c-0.454-0.506-0.906-1.014-1.355-1.525c0.054-1.304,0.461-2.56,0.489-3.871c0.028-1.291-1.972-1.288-2,0
		c-0.015,0.631-0.119,1.249-0.229,1.867c-0.121-0.143-0.247-0.281-0.368-0.424c-0.323-0.382-0.645-0.766-0.968-1.149
		c0.029-0.093,0.062-0.182,0.064-0.294c0.018-1.083,0.254-2.175,0.464-3.234c0.251-1.259-1.677-1.796-1.928-0.531
		c-0.129,0.646-0.263,1.304-0.364,1.966c-0.61-0.729-1.218-1.458-1.825-2.187c0.088-0.142,0.153-0.304,0.153-0.513
		c0.001-1.295,0.067-2.492,0.464-3.734c0.393-1.232-1.538-1.755-1.928-0.531c-0.278,0.874-0.409,1.749-0.476,2.637
		c-0.613-0.738-1.228-1.476-1.841-2.213c0.164-0.904,0.272-1.837,0.643-2.653c0.528-1.165-1.194-2.183-1.727-1.01
		c-0.253,0.557-0.401,1.141-0.53,1.731c-0.551-0.66-1.104-1.319-1.656-1.978c0.021-0.081,0.051-0.154,0.051-0.249v-3
		c0-1.29-2-1.29-2,0v0.939c-0.573-0.674-1.151-1.345-1.729-2.017c0.395-0.097,0.729-0.397,0.729-0.922v-3.5c0-1.29-2-1.29-2,0v2.941
		c-0.472-0.543-0.95-1.081-1.425-1.621c0.118-0.08,0.223-0.181,0.287-0.316c0.479-0.989,0.637-1.914,0.638-3.005
		c0.001-1.29-1.999-1.29-2,0c0,0.649-0.044,1.199-0.279,1.781c-0.589-0.661-1.188-1.314-1.784-1.97
		c0.031-0.097,0.063-0.192,0.063-0.311c0.001-1.278,0.081-2.506,0.464-3.734c0.386-1.234-1.546-1.758-1.928-0.531
		c-0.262,0.834-0.394,1.686-0.465,2.546c-0.354-0.383-0.716-0.762-1.071-1.145v-3.136c0-1.29-2-1.29-2,0v1.001
		c-0.784-0.833-1.562-1.675-2.35-2.505c0.191-0.026,0.385-0.101,0.557-0.289c0.589-0.646,0.791-1.346,0.793-2.207
		c0.004-1.29-1.996-1.29-2,0c-0.001,0.312,0.013,0.552-0.207,0.793c-0.16,0.175-0.223,0.365-0.244,0.554
		c-0.196-0.205-0.395-0.409-0.589-0.613c0.473-1.19,0.539-2.458,0.54-3.734c0.001-1.29-1.999-1.29-2,0
		c-0.001,0.675,0.016,1.41-0.105,2.103c-0.631-0.656-1.259-1.315-1.891-1.97c0.391-1.01,0.495-2.034,0.496-3.133
		c0.001-1.29-1.999-1.29-2,0c-0.001,0.499-0.009,1-0.082,1.489c-0.339-0.349-0.681-0.697-1.02-1.046
		c0.062-0.126,0.102-0.271,0.102-0.442v-3.5c0-1.29-2-1.29-2,0v1.989c-0.731-0.751-1.461-1.505-2.193-2.256
		c0.31-0.927,0.633-1.852,1.057-2.729c0.561-1.156-1.164-2.17-1.727-1.01c-0.337,0.696-0.623,1.415-0.886,2.142
		c-1.706-1.749-3.413-3.497-5.116-5.247c-2.882-2.962-7.403,1.567-4.525,4.526c1.484,1.525,2.97,3.048,4.453,4.572
		c-0.559,0.512-0.896,1.281-0.818,2.308c1.678,21.893-6.253,43.369-3.168,65.224c-1.858-0.597-3.778-1.043-5.75-1.314
		c0.18-1.234,0.347-2.469,0.509-3.705h1.666c1.29,0,1.29-2,0-2h-1.416c0.057-0.457,0.11-0.914,0.166-1.371
		c0.569-0.121,1.161-0.127,1.75-0.129c1.29,0,1.29-2,0-2c-0.521,0-1.021,0.029-1.516,0.092c0.128-1.166,0.253-2.332,0.368-3.498
		c0.006-0.004,0.004-0.002,0.012-0.006c-0.087,0.053,0.207-0.059,0.27-0.07c0.159-0.033,0.61-0.017,0.866-0.017
		c1.29-0.001,1.29-2.001,0-2c-0.331,0-0.651,0.01-0.96,0.044c0.093-1.014,0.184-2.029,0.267-3.044h0.693c1.29,0,1.29-2,0-2h-0.538
		c0.113-1.499,0.218-2.999,0.312-4.5h1.228c1.29,0,1.29-2,0-2h-1.104c0.087-1.509,0.165-3.019,0.235-4.529
		c0.839,0.562,1.764,0.475,2.576-0.264c0.956-0.869-0.462-2.279-1.414-1.414c-0.029,0.027-0.035,0.043-0.043,0.06
		c-0.008-0.017-0.015-0.033-0.043-0.06c-0.316-0.287-0.68-0.309-0.994-0.198c0.072-1.698,0.137-3.396,0.189-5.095
		c0.72,0.006,1.444,0.058,2.093,0.363c1.16,0.546,2.176-1.178,1.01-1.727c-0.982-0.463-1.996-0.588-3.044-0.623
		c0.043-1.513,0.079-3.025,0.109-4.539c0.146-0.011,0.295-0.043,0.435-0.111c0.665-0.322,1.266-0.363,1.995-0.363
		c1.29-0.001,1.29-2.001,0-2c-0.86,0-1.619,0.105-2.387,0.382c0.014-0.746,0.022-1.491,0.033-2.237
		c0.603-0.144,1.229-0.145,1.854-0.146c1.29-0.001,1.29-2.001,0-2c-0.629,0-1.232,0.031-1.824,0.129
		c0.013-1.002,0.021-2.004,0.03-3.006c0.412-0.097,0.826-0.122,1.294-0.123c1.29-0.001,1.29-2.001,0-2
		c-0.449,0-0.867,0.036-1.276,0.101c0.009-1.277,0.017-2.555,0.021-3.832c0.571-0.226,1.114-0.269,1.756-0.269
		c1.29-0.001,1.29-2.001,0-2c-0.624,0-1.192,0.062-1.75,0.195c0.005-2.161,0.008-4.322,0.009-6.481
		c1.401-1.699,1.274-4.555-1.436-4.945c-1.28-0.184-2.56-0.381-3.834-0.589c-0.596-1.636-1.336-3.21-2.292-4.685
		c-0.699-1.077-2.433-0.076-1.728,1.01c0.684,1.054,1.254,2.149,1.733,3.285c-1.503-0.26-3.003-0.532-4.499-0.82
		c-0.647-1.744-1.437-3.432-2.175-5.142c-0.512-1.181-2.232-0.161-1.728,1.01c0.528,1.224,1.074,2.437,1.573,3.669
		c-1.304-0.263-2.606-0.536-3.908-0.817c-0.477-1.31-0.991-2.604-1.604-3.862c-0.565-1.159-2.29-0.145-1.728,1.01
		c0.375,0.768,0.702,1.552,1.012,2.343c-1.575-0.354-3.149-0.72-4.724-1.095c-0.509-1.555-1.007-3.113-1.461-4.686
		c-0.356-1.237-2.286-0.71-1.928,0.531c0.349,1.208,0.724,2.409,1.107,3.606c-1.26-0.308-2.518-0.622-3.773-0.94
		c-0.517-1.494-0.971-3.008-1.406-4.531c-0.354-1.238-2.283-0.711-1.928,0.531c0.326,1.143,0.661,2.281,1.023,3.409
		c-1.301-0.335-2.601-0.675-3.899-1.019c-0.511-1.529-1.021-3.059-1.529-4.588c-0.405-1.217-2.337-0.695-1.928,0.531
		c0.382,1.147,0.765,2.294,1.146,3.442c-1.478-0.395-2.954-0.793-4.431-1.194c-0.507-1.393-1.082-2.755-1.89-4.018
		c-0.692-1.083-2.424-0.081-1.728,1.01c0.481,0.753,0.862,1.545,1.207,2.352c-1.382-0.377-2.762-0.755-4.143-1.133
		c-0.659-1.192-1.309-2.39-2.004-3.562c-0.657-1.108-2.387-0.103-1.727,1.01c0.353,0.596,0.684,1.204,1.018,1.811
		c-0.918-0.251-1.837-0.502-2.756-0.752c-0.725-1.239-1.469-2.462-2.358-3.604c-0.792-1.017-2.197,0.41-1.414,1.414
		c0.36,0.462,0.688,0.947,1.005,1.439c-1.2-0.324-2.4-0.646-3.602-0.965c-0.516-0.902-1.002-1.821-1.398-2.78
		c-0.485-1.175-2.421-0.661-1.929,0.531c0.22,0.531,0.462,1.049,0.716,1.562c-1.246-0.326-2.491-0.648-3.738-0.966
		c-0.666-1.261-1.365-2.503-2.15-3.7c-0.703-1.073-2.436-0.072-1.727,1.01c0.434,0.661,0.836,1.338,1.228,2.021
		c-1.021-0.254-2.044-0.507-3.066-0.754c-0.394-1.236-0.784-2.469-1.435-3.611c-0.637-1.121-2.365-0.113-1.727,1.01
		c0.374,0.657,0.643,1.353,0.885,2.06c-1.051-0.248-2.104-0.489-3.158-0.726c-0.521-1.479-1.064-2.951-1.565-4.437
		c-0.41-1.215-2.343-0.694-1.929,0.531c0.384,1.138,0.792,2.267,1.199,3.396c-0.596-0.129-1.19-0.257-1.785-0.383
		c-0.275-1.181-0.529-2.367-0.818-3.544c-0.309-1.252-2.236-0.721-1.929,0.531c0.21,0.853,0.4,1.71,0.593,2.567
		c-0.907-0.185-1.814-0.368-2.723-0.542c-0.129-1.195-0.373-2.38-0.608-3.556c-0.253-1.265-2.181-0.728-1.929,0.531
		c0.176,0.876,0.352,1.755,0.476,2.64c-0.343-0.063-0.685-0.13-1.026-0.191c-0.535-1.163-0.798-2.438-0.818-3.714
		c-0.02-1.289-2.02-1.291-2,0c0.018,1.139,0.213,2.252,0.555,3.326c-0.812-0.137-1.625-0.272-2.439-0.401
		c-0.377-1.158-0.727-2.326-1.252-3.43c-0.554-1.164-2.277-0.148-1.727,1.01c0.32,0.671,0.561,1.376,0.787,2.086
		c-0.774-0.114-1.551-0.22-2.326-0.324c-0.211-0.844-0.422-1.688-0.633-2.533c-0.312-1.251-2.241-0.72-1.929,0.531
		c0.144,0.572,0.286,1.145,0.429,1.717c-0.369-0.045-0.742-0.083-1.112-0.126c-0.173-0.832-0.411-1.651-0.722-2.456
		c-0.459-1.19-2.393-0.674-1.928,0.531c0.215,0.558,0.385,1.12,0.531,1.685c-0.604-0.063-1.208-0.119-1.812-0.177
		c-0.314-0.886-0.593-1.782-0.791-2.706c-0.27-1.261-2.197-0.726-1.928,0.531c0.143,0.671,0.336,1.327,0.547,1.976
		c-0.564-0.046-1.131-0.082-1.695-0.123c-0.297-1.131-0.635-2.25-0.924-3.384c-0.317-1.25-2.246-0.719-1.928,0.531
		c0.23,0.907,0.489,1.805,0.738,2.707c-1.312-0.077-2.628-0.14-3.947-0.184c1.412-2.436,2.807-4.881,4.148-7.353
		c0.059,0,0.107,0.012,0.166,0.01C210.611,165.94,227.353,172.734,244.267,176.584z M293.273,314.496
		c-1.741-1.282-2.802-3.623-3.333-5.965c-1.287-5.66,3.547-9.571,7.938-11.893c5.737-3.029,14.768-1.693,15.356,4.811
		c-3.274-1.539-6.828-2.207-10.081-1.432C296.321,301.648,292.91,307.996,293.273,314.496z M269.561,296.721
		c0.208-0.801,0.432-1.594,0.688-2.365c0.002,0.002,0.002,0.002,0.005,0.004c4.708,2.734,9.07,6.006,13.714,8.838
		c0.024,0.017,0.049,0.015,0.07,0.025c-0.1,0.404-0.18,0.813-0.248,1.229C279.056,301.855,274.165,299.552,269.561,296.721z
		 M283.578,306.427c-0.021,0.395-0.025,0.787-0.021,1.186c-5.144-1.457-10.152-3.477-14.966-5.783
		c0.136-1.088,0.312-2.166,0.53-3.225C273.815,301.438,278.79,303.761,283.578,306.427z M300.884,203.969
		c0.004,22.321-0.052,44.827-3.402,66.938c-0.938,0.035-1.881,0.104-2.829,0.213c0.038-0.387,0.01-0.805-0.126-1.254
		c-1.326-4.438-2.759-13.516-6.423-18.854c0.433-0.228,0.86-0.459,1.296-0.694c1.933-1.047,1.931-3.511,0.646-5.025
		c-5.191-6.131-10.58-14.978-18.506-17.769c-7.626-2.685-16.928,6.712-22.551,10.564c-1.664,1.14-2.213,3.509-0.648,5.026
		c6.039,5.858,13.196,10.311,19.502,15.847c0.804,0.702,2.031,1.245,3.113,0.821c1.136-0.444,2.312-0.707,3.488-1.01
		c1.27,5.902,4.666,12.49,6.772,16.004c-2.592,1.139-5.032,2.519-7.247,4.203c-0.091-0.342-0.239-0.689-0.493-1.041
		c-24.941-34.588-54.861-65.065-82.471-97.458C228.705,182.317,263.848,198.029,300.884,203.969z M305.344,288.637
		c-0.305-0.008-0.607-0.01-0.91-0.002c-0.681-3.793-1.559-7.547-2.244-11.336c1.026,0.114,2.029,0.299,3.015,0.528
		C305.026,281.423,305.774,285.023,305.344,288.637z M288.354,271.566c0.074,0.248,0.17,0.475,0.28,0.682
		c-0.416,0.105-0.826,0.228-1.238,0.343c-1.779-2.785-3.231-5.828-4.479-8.879c-0.623-1.521-3.936-9.188-2.038-10.465
		C283.229,251.663,287.757,269.566,288.354,271.566z M281.085,246.847c0.116-0.657,0.229-1.314,0.348-1.97
		c0.464,0.562,0.93,1.122,1.394,1.686c-0.239,0.112-0.479,0.223-0.724,0.323C281.772,246.848,281.433,246.841,281.085,246.847z
		 M290.639,278.386c1.555,4.162,3.131,8.311,5.226,12.229c-0.4,0.172-0.799,0.351-1.189,0.539
		c-2.458-3.906-4.798-7.889-7.115-11.881C288.575,278.943,289.604,278.654,290.639,278.386z M292.419,277.943
		c0.1-0.021,0.197-0.051,0.296-0.072c0.645-0.146,1.279-0.264,1.913-0.364c0.981,4.149,2.587,8.098,4.438,11.973
		c-0.498,0.141-0.991,0.295-1.481,0.469C295.505,286.104,293.948,282.033,292.419,277.943z M296.419,277.262
		c1.33-0.133,2.63-0.156,3.907-0.105c0.688,3.883,1.571,7.726,2.277,11.605c-0.578,0.067-1.154,0.156-1.729,0.271
		C299.036,285.234,297.398,281.348,296.419,277.262z M279.9,243.054c-0.229,1.35-0.472,2.698-0.704,4.047
		c-0.086,0.021-0.168,0.034-0.254,0.058c-1.067,0.292-1.937,0.74-2.631,1.315c0.691-2.528,1.227-5.117,1.589-7.724
		c0.003,0.004,0.007,0.008,0.011,0.011C278.591,241.512,279.247,242.283,279.9,243.054z M269.049,233.611
		c0.269,0.004,0.531,0.029,0.789,0.083c0.527,0.109,1.056,0.333,1.576,0.63c-0.458,5.946-1.689,11.812-1.85,17.79
		c-0.676-0.546-1.347-1.098-2.03-1.633c0.448-2.943,0.836-5.895,1.133-8.857C268.911,239.174,269.366,236.242,269.049,233.611z
		 M271.379,252.45c0.11-5.676,1.225-11.25,1.754-16.883c1.134,0.982,2.204,2.197,3.151,3.306c-0.52,4.636-1.57,9.248-3.147,13.588
		c-0.005,0.013-0.002,0.023-0.006,0.036c-0.658,0.18-1.318,0.345-1.978,0.521C271.281,252.876,271.374,252.695,271.379,252.45z
		 M263.049,235.988c1.309-0.854,2.762-1.686,4.183-2.103c0.244,2.217-0.132,4.674-0.302,6.741c-0.235,2.873-0.594,5.739-1.021,8.592
		c-1.1-0.844-2.201-1.684-3.303-2.525c0.354-0.092,0.651-0.366,0.649-0.841C263.242,242.563,263.117,239.276,263.049,235.988z
		 M261.428,245.783c-0.407-0.313-0.817-0.625-1.223-0.941c-0.029-2.261-0.191-4.52-0.198-6.776c0.188-0.128,0.371-0.263,0.56-0.389
		c0.216-0.145,0.446-0.304,0.687-0.468C261.318,240.068,261.413,242.925,261.428,245.783z M258.34,243.362
		c-0.896-0.725-1.787-1.458-2.66-2.214c0.838-0.608,1.674-1.217,2.516-1.819C258.228,240.672,258.295,242.015,258.34,243.362z
		 M271.178,292.781c-0.104-0.061-0.205-0.084-0.306-0.104c0.756-1.82,1.729-3.437,2.879-4.857c1.876,2.229,3.788,4.43,5.767,6.566
		c1.498,1.619,3.521,4.328,5.749,5.451c-0.258,0.518-0.478,1.047-0.679,1.588C280.06,298.637,275.782,295.455,271.178,292.781z
		 M280.353,292.6c-1.851-2-3.631-4.064-5.383-6.152c0.604-0.621,1.247-1.201,1.922-1.746c3.462,4.021,6.743,8.197,10.3,12.133
		c-0.365,0.457-0.713,0.927-1.026,1.412C283.98,297.257,281.792,294.156,280.353,292.6z M278.357,283.609
		c0.888-0.613,1.822-1.162,2.785-1.676c3.147,3.914,5.438,8.428,8.519,12.385c-0.436,0.367-0.854,0.746-1.248,1.144
		C284.943,291.615,281.732,287.541,278.357,283.609z M282.804,281.111c0.974-0.451,1.979-0.85,2.997-1.223
		c2.361,4.072,4.743,8.131,7.247,12.115c-0.22,0.122-0.44,0.241-0.657,0.368c-0.446,0.263-0.871,0.543-1.286,0.832
		C288.077,289.365,285.812,284.975,282.804,281.111z M310.474,289.561c-1.099-0.381-2.211-0.648-3.334-0.787
		c0.347-3.492-0.337-6.998-0.169-10.467c1.387,0.43,2.725,0.979,4.009,1.633C310.561,283.134,310.344,286.339,310.474,289.561z
		 M312.94,290.658c-0.079-0.045-0.149-0.092-0.229-0.135c-0.123-0.066-0.25-0.115-0.374-0.178c-0.188-3.164-0.017-6.304,0.358-9.437
		c1.136,0.689,2.219,1.48,3.255,2.347C314.916,285.712,313.973,288.203,312.94,290.658z M317.376,284.539
		c1.649,1.58,3.147,3.388,4.475,5.396c-2.013,0.936-3.966,2.008-6.021,2.83c-0.414-0.394-0.854-0.771-1.336-1.117
		C315.483,289.289,316.393,286.9,317.376,284.539z M322.813,291.479c0.496,0.848,0.964,1.725,1.398,2.635
		c0.477,0.99,0.89,2.015,1.269,3.056c-2.247-0.304-4.508-0.285-6.785-0.259c-0.401-0.961-0.919-1.875-1.57-2.719
		C319.051,293.355,320.895,292.341,322.813,291.479z M322.732,280.623c1.49,0.107,2.979,0.189,4.471,0.259
		c-0.301,1.438-0.525,2.883-0.666,4.325C325.384,283.539,324.109,282.011,322.732,280.623z M326.126,299.113
		c0.42,1.404,0.745,2.844,0.994,4.299c-2.498-0.75-4.996-1.498-7.493-2.248c-0.051-0.832-0.147-1.649-0.342-2.436
		C321.581,298.697,323.86,298.695,326.126,299.113z M319.618,303.07c2.597,0.777,5.192,1.558,7.79,2.336
		c0.122,1.062,0.192,2.129,0.225,3.197c-2.604-1.342-5.324-2.432-7.998-3.633c-0.085-0.035-0.163-0.041-0.244-0.056
		C319.497,304.296,319.577,303.677,319.618,303.07z M324.211,319.146c0.442-1.051,0.644-2.16,0.604-3.305
		c0.68,0.422,1.357,0.838,2.065,1.207c-0.26,1.225-0.605,2.424-0.999,3.604C325.344,320.132,324.784,319.632,324.211,319.146z
		 M325.195,322.525c-0.506,1.254-1.073,2.479-1.745,3.65c-0.714-1.17-1.458-2.314-2.235-3.435c0.861-0.61,1.536-1.287,2.073-2.002
		C323.943,321.312,324.58,321.91,325.195,322.525z M324.51,313.507c-0.023-0.017-0.047-0.015-0.068-0.025
		c-0.553-1.982-1.673-3.979-3.187-5.813c2.163,0.932,4.314,1.883,6.384,3.016c-0.042,1.51-0.188,3.014-0.417,4.5
		C326.298,314.656,325.414,314.053,324.51,313.507z M330.005,327.3c0.267,2.506,0.695,4.965,1.271,7.375
		c-1.047,0.135-2.097,0.27-3.148,0.401c-0.395-0.864-0.798-1.725-1.216-2.573C328.104,330.835,329.129,329.094,330.005,327.3z
		 M328.973,274.468c-4.188-0.104-8.375-0.328-12.545-0.855c-0.073-0.01-0.136-0.002-0.205-0.006
		c-3.857-20.915,3.729-41.708,3.133-62.656c4.869,5.02,9.715,10.062,14.473,15.189c5.246,5.654,10.169,11.543,15.075,17.454
		c-7.826,3.532-12.693,14.009-16.046,21.298C331.477,267.896,330.103,271.128,328.973,274.468z M352.175,249.097
		c0.344-0.154,0.609-0.348,0.842-0.556c1.312,1.575,2.629,3.149,3.957,4.715c1.401,1.651,2.843,3.263,4.303,4.858
		c-0.047,0.031-0.093,0.049-0.14,0.084c-0.609,0.458-1.184,0.991-1.729,1.573c-3.488-2.686-6.866-5.509-10.518-7.979
		c-0.154-0.104-0.306-0.147-0.448-0.153C349.591,250.581,350.829,249.699,352.175,249.097z M364.366,263.723
		c0.479-0.359,0.807-0.793,1.025-1.254c6.294,6.457,13.008,12.492,19.952,18.264c-9.229-0.83-18.298-3.885-27.473-5.135
		c1.016-2.43,2.33-4.769,3.609-7.049C362.147,267.357,363.788,264.158,364.366,263.723z M386.978,300.58
		c0.003,0.443,0.09,0.828,0.226,1.177c-6.917,0.812-14.35-0.367-21.103-0.207c-4.622,0.106-9.227,0.487-13.826,0.901
		c0.157-0.366,0.26-0.782,0.267-1.262c0.105-6.561,1.266-13.117,3.172-19.42c0.312,0.023,0.628,0.043,0.942,0.068
		c10.896,0.905,21.253,5.225,32.215,5.491C386.832,291.335,386.951,295.925,386.978,300.58z M340.68,290.664
		c-2.646,0.123-5.217,0.402-7.83-0.006c-0.191-1.395-0.218-2.826-0.118-4.28c5.019,0.045,10.03,0.245,15.047,0.381
		c-0.25,1.227-0.479,2.455-0.673,3.69C344.979,290.742,342.82,290.562,340.68,290.664z M346.829,292.302
		c-0.132,0.987-0.254,1.979-0.349,2.967c-1.635,0.365-4.041-0.152-5.592-0.152h-7.864c0.051-0.858,0.087-1.719,0.099-2.582
		c2.511,0.308,5.011,0.119,7.558-0.039C342.737,292.363,344.787,292.496,346.829,292.302z M332.915,284.552
		c0.156-1.152,0.381-2.314,0.662-3.476c5.165,0.109,10.336,0.131,15.499,0.324c-0.335,1.168-0.631,2.353-0.902,3.539
		C343.087,284.807,338.003,284.6,332.915,284.552z M335.649,274.561c0.704-1.838,1.469-3.611,2.22-5.289
		c0.134,0.111,0.293,0.201,0.503,0.225c4.752,0.496,9.059,2.466,13.564,3.824c-0.229,0.537-0.438,1.088-0.658,1.635
		C346.083,274.613,340.867,274.602,335.649,274.561z M338.581,267.699c0.092-0.201,0.187-0.412,0.275-0.606
		c0.916-1.994,1.981-4.324,3.229-6.654c4.498,1.645,8.509,4.234,12.733,6.43c-0.795,1.623-1.507,3.261-2.157,4.771
		C347.969,270.271,343.51,268.259,338.581,267.699z M342.978,258.832c1.322-2.299,2.846-4.506,4.585-6.321
		c-0.032,0.311,0.077,0.639,0.403,0.861c3.562,2.411,6.869,5.159,10.269,7.787c-0.951,1.242-1.81,2.638-2.585,4.084
		C351.439,263.062,347.43,260.521,342.978,258.832z M332.894,296.941h7.996c1.593,0,3.706,0.432,5.438,0.213
		c-0.092,1.293-0.157,2.582-0.182,3.859c-4.396-0.744-8.82-0.637-13.288-0.617c-0.062-0.291-0.147-0.58-0.217-0.873
		C332.737,298.664,332.819,297.803,332.894,296.941z M346.594,302.962c-4.364,0.383-8.731,0.715-13.119,0.791
		c-0.071-0.511-0.165-1.021-0.255-1.529C337.714,302.197,342.172,302.093,346.594,302.962z M402.969,294.677
		c-0.582,0.395-1.169,0.785-1.774,1.157c-1.323,0.814-2.596,1.714-3.91,2.539c-1.253,0.787-2.675,1.168-3.908,1.98
		c-0.048-3.82-0.657-8.445,2.081-11.492C397.951,290.816,400.455,292.759,402.969,294.677z M181.924,141.243
		c1.516-2.878,3.617-5.403,5.025-8.332c0.52,0.465,1.074,0.891,1.641,1.299c-1.518,2.803-2.889,5.687-4.074,8.639
		C183.623,142.347,182.75,141.821,181.924,141.243z M190.123,135.218c0.678,0.406,1.389,0.777,2.121,1.128
		c-1.148,2.86-1.971,5.82-2.744,8.803c-1.139-0.417-2.268-0.894-3.365-1.435C187.293,140.812,188.636,137.97,190.123,135.218z
		 M193.902,137.078c0.828,0.338,1.691,0.644,2.574,0.932c-0.83,2.799-1.939,5.558-2.625,8.385c-0.867-0.188-1.742-0.4-2.617-0.667
		C191.982,142.798,192.775,139.884,193.902,137.078z M197.59,146.928c-0.641-0.046-1.291-0.111-1.951-0.209
		c0.664-2.76,1.762-5.455,2.582-8.18c0.113,0.032,0.221,0.07,0.334,0.102c0.41,0.112,0.805,0.195,1.205,0.291
		C198.914,141.565,198.193,144.229,197.59,146.928z M201.336,147.928c-0.238-0.028-0.475-0.043-0.711-0.077
		c-0.32-0.318-0.729-0.56-1.209-0.708c0.6-2.644,1.307-5.253,2.141-7.832c0.479,0.086,0.953,0.162,1.422,0.226
		C202.621,142.209,201.543,145.17,201.336,147.928z M260.659,158.412c-1.52,0.012-2.745-0.875-3.753-2.071
		c1.974-0.828,4.061-1.335,6.161-1.765C263.111,156.777,262.519,158.399,260.659,158.412z M262.911,152.753
		c-2.424,0.498-4.817,1.089-7.089,2.082c-0.467-0.744-0.877-1.512-1.236-2.208c2.539-1.083,5.105-2.062,7.783-2.668
		C262.596,150.899,262.784,151.845,262.911,152.753z M261.905,148.218c-2.799,0.646-5.483,1.657-8.149,2.79
		c-0.416-0.814-0.828-1.63-1.234-2.447c2.838-1.048,5.834-1.608,8.732-2.474C261.47,146.746,261.69,147.469,261.905,148.218z
		 M260.172,142.985c0.119,0.328,0.301,0.817,0.513,1.421c-2.971,0.917-6.062,1.473-8.988,2.542
		c-0.506-0.977-1.027-1.946-1.607-2.885c3.023-1.207,6.061-2.382,9.075-3.607C259.522,141.299,259.865,142.146,260.172,142.985z
		 M258.414,138.803c-3.105,1.261-6.232,2.465-9.344,3.712c-0.027-0.039-0.053-0.079-0.08-0.118
		c-0.189-0.263-0.389-0.507-0.586-0.751c3.045-1.528,5.879-3.421,8.729-5.3C257.595,137.146,258.015,137.97,258.414,138.803z
		 M256.174,134.804c-2.939,1.955-5.863,3.943-9.043,5.465c-0.477-0.456-0.969-0.879-1.482-1.252c2.553-2.586,4.789-5.473,7.48-7.909
		C254.269,132.198,255.275,133.455,256.174,134.804z M251.726,129.92c-2.744,2.509-5.029,5.475-7.67,8.099
		c-0.367-0.197-0.74-0.384-1.121-0.546c1.932-3.177,4.07-6.194,6.564-8.974C250.291,128.903,251.027,129.385,251.726,129.92z
		 M242.574,126.938c0.5,0.004,1,0.011,1.516,0.047c1.305,0.094,2.506,0.365,3.633,0.756c-2.477,2.832-4.611,5.897-6.549,9.115
		c-0.332-0.091-0.662-0.18-1-0.248C240.685,133.301,241.398,130.065,242.574,126.938z M240.627,127.001
		c-1.066,3.038-1.742,6.161-2.244,9.357c-0.252-0.02-0.502-0.055-0.758-0.062c0.512-2.714-0.15-5.815-0.83-8.701
		C238.033,127.299,239.308,127.099,240.627,127.001z M235.07,128.063c0.684,2.79,1.318,5.804,0.674,8.279
		c-0.291,0.024-0.584,0.052-0.875,0.09c-0.678-2.519-1.439-5.005-2.445-7.417C233.293,128.659,234.174,128.341,235.07,128.063z
		 M230.758,129.743c0.957,2.28,1.676,4.637,2.312,7.021c-0.221,0.051-0.443,0.098-0.664,0.157c-0.969-2.188-1.982-4.354-3.109-6.469
		C229.781,130.205,230.269,129.971,230.758,129.743z M227.683,131.306c1.076,2.018,2.049,4.084,2.979,6.17
		c-0.338,0.123-0.676,0.246-1.012,0.386c-0.566,0.237-1.117,0.51-1.666,0.78c-1.021-1.924-1.891-3.926-2.789-5.916
		C226.023,132.238,226.851,131.763,227.683,131.306z M223.625,133.666c0.881,1.956,1.738,3.923,2.736,5.817
		c-0.416,0.229-0.838,0.449-1.25,0.688c-1.029-1.843-2.215-3.604-3.164-5.486C222.508,134.343,223.066,134.005,223.625,133.666z
		 M220.392,135.613c0.973,1.875,2.141,3.645,3.158,5.499c-0.803,0.494-1.6,0.995-2.395,1.5c-1.238-1.796-2.35-3.671-3.441-5.559
		C218.599,136.624,219.492,136.137,220.392,135.613z M216.037,137.805c1.135,1.963,2.285,3.915,3.574,5.78
		c-0.707,0.443-1.416,0.883-2.137,1.306c-0.111,0.065-0.227,0.124-0.34,0.187c-1.252-2.058-2.07-4.338-3.092-6.522
		C214.707,138.338,215.371,138.081,216.037,137.805z M211.767,139.192c0.166-0.038,0.332-0.084,0.496-0.126
		c1.102,2.277,1.941,4.681,3.244,6.848c-0.781,0.358-1.576,0.674-2.385,0.942c-0.826-2.338-1.227-4.858-1.721-7.287
		C211.535,139.452,211.66,139.328,211.767,139.192z M208.299,140.314c0.463,0.101,0.941,0.105,1.4,0.029
		c0.48,2.349,0.895,4.751,1.67,7.014c-0.99,0.246-1.992,0.439-3.006,0.567C208.082,145.427,208.345,142.842,208.299,140.314z
		 M204.81,139.719c0.555,0.039,1.104,0.055,1.645,0.059c0.115,2.756-0.199,5.581,0.088,8.314c-1.105,0.064-2.217,0.073-3.326,0.009
		c0.172-1.455,0.621-2.971,0.848-4.121C204.343,142.576,204.654,141.153,204.81,139.719z M203.767,133.234
		c-1.576-0.266-3.152-0.665-4.707-1.092c-0.143-0.039-0.281-0.081-0.422-0.122c0.807-1.248,1.654-2.467,2.555-3.648
		C202.15,130.015,203.017,131.668,203.767,133.234z M199.088,125.029c0.375,0.551,0.74,1.112,1.096,1.676
		c-1.191,1.526-2.309,3.108-3.35,4.743c-0.596-0.209-1.17-0.444-1.729-0.693C196.01,128.594,197.646,126.858,199.088,125.029z
		 M197.986,123.482c-1.58,2.128-3.393,4.025-4.492,6.454c-0.861-0.493-1.654-1.063-2.379-1.717c0.033-0.136,0.043-0.283-0.002-0.45
		c0.057,0.208,0.096-0.15,0.195-0.333c0.164-0.304,0.375-0.584,0.576-0.862c0.541-0.743,1.174-1.424,1.791-2.102
		c0.906-0.993,1.855-1.943,2.807-2.892C196.996,122.19,197.498,122.824,197.986,123.482z M195.263,120.214
		c-1.223,1.224-2.439,2.454-3.588,3.751c-0.576,0.65-1.545,1.613-2.051,2.625c-0.51-0.676-0.957-1.427-1.336-2.265
		c1.639-2.023,3.143-4.157,4.881-6.094C193.885,118.83,194.584,119.495,195.263,120.214z M188.373,115.455
		c1.141,0.358,2.256,0.928,3.34,1.668c-1.512,1.708-2.854,3.557-4.27,5.346c-0.307-0.448-0.701-0.769-1.137-0.994
		C186.91,119.442,187.736,117.477,188.373,115.455z M186.576,115.078c-0.643,2.02-1.471,3.984-2.066,6.021
		c-0.445,0.026-0.883,0.133-1.281,0.309c-0.805-1.615-1.562-3.248-2.469-4.797C182.726,115.325,184.677,114.881,186.576,115.078z
		 M177.551,119.48c0.59-0.677,1.18-1.266,1.77-1.777c0.74,1.279,1.375,2.624,2.02,3.961c-1.49-0.562-3.018-0.991-4.592-1.182
		C177.002,120.149,177.26,119.815,177.551,119.48z M175.562,122.216c2.064,0.095,4.035,0.679,5.943,1.467
		c-0.002,0.026,0.004,0.055,0.002,0.081c-2.514,0.54-4.986,1.241-7.436,2.021C174.363,124.613,174.851,123.42,175.562,122.216z
		 M173.771,127.803c2.682-0.869,5.385-1.663,8.141-2.259c0.102,0.269,0.217,0.52,0.328,0.778c-2.717,1.01-5.908,2.222-8.316,4.029
		C173.779,129.518,173.719,128.669,173.771,127.803z M174.451,132.34c1.176-0.922,2.629-1.608,3.859-2.24
		c1.535-0.786,3.125-1.465,4.73-2.1c0.172,0.317,0.354,0.622,0.539,0.922c-2.26,2.558-4.344,5.263-6.553,7.865
		C175.898,135.398,175.013,133.906,174.451,132.34z M178.25,138.158c2.162-2.54,4.203-5.181,6.398-7.691
		c0.289,0.378,0.605,0.722,0.92,1.07c-1.299,3.09-3.531,5.662-5.129,8.599C179.66,139.51,178.924,138.85,178.25,138.158z
		 M135.365,224.764c0.252,0.355,0.576,0.66,0.977,0.876c0.756,0.407,1.51,0.818,2.248,1.257c0.145,0.086,0.281,0.183,0.424,0.273
		c-2.723,4.296-5.484,8.584-8.248,12.882c-2.127-1.31-4.311-2.41-6.535-3.329c3.119-4.435,7.17-8.196,9.861-12.911
		C134.523,224.117,134.949,224.433,135.365,224.764z M138.316,289.553c6.203-3.502,12.889-7.168,19.91-8.791
		c0.967,3.346,1.705,6.576,2.322,9.311c1.875,8.306,2.945,16.734,2.533,25.103c-0.002-0.002-0.004-0.002-0.006-0.004
		c-13.541-4.091-28.002-4.296-41.977-6.017c-0.414-2.197-1.502-4.238-3.256-5.938C124.086,297.902,131.197,293.572,138.316,289.553z
		 M123.115,291.305c6.654-10.756,12.729-21.883,18.721-33.02c0.195,0.107,0.408,0.201,0.645,0.277
		c6.732,2.129,10.926,8.828,13.721,16.102c-7.428,1.771-14.527,5.707-21.113,9.361C131.023,286.281,126.998,288.691,123.115,291.305
		z M162.488,321.473c-0.504,3.467-1.295,6.912-2.428,10.322c-2.031,6.12-5.156,11.686-9.043,16.68
		c-10.797-9.715-22.629-18.232-33.021-28.406c1.15-1.477,1.988-3.024,2.539-4.586c13.596,1.715,27.652,1.877,40.84,5.857
		C161.771,321.462,162.138,321.49,162.488,321.473z M146.849,353.324c-5.82,6.158-12.803,11.301-20.154,15.396
		c-0.85,0.475-1.73,0.942-2.641,1.401c-0.189-0.295-0.406-0.553-0.664-0.748c-0.193-0.754-0.352-1.518-0.465-1.852
		c-0.715-2.107-1.5-4.191-2.287-6.271c-1.582-4.186-3.301-8.319-5.004-12.456c-2.869-6.97-5.699-13.947-8.068-21.101
		c2.045-0.779,4.008-1.867,5.809-3.19C123.906,334.83,135.924,343.445,146.849,353.324z M94.693,283.046
		c-3.721-13.427-8.625-26.521-11.752-40.114c10.191-3.373,21.131-4.765,31.377-2.577
		C106.427,253.891,100.355,268.428,94.693,283.046z M90.603,292.955c-10.873-12.692-23.59-24.59-38.152-32.95
		c5.309-4.407,11.129-8.201,17.094-11.346c2.365-1.247,4.826-2.405,7.354-3.46C80.672,261.341,86.902,276.794,90.603,292.955z
		 M85.125,296.375c-1.457,1.445-2.592,3.382-3.264,5.853c-0.139,0.506-0.252,1.02-0.346,1.535
		c-16.123-6.453-33.98-5.752-50.703-9.924c-0.396-0.099-0.762-0.109-1.107-0.082c0.52-1.867,1.094-3.705,1.754-5.479
		c3.373-9.076,9.047-17.012,15.969-23.754C61.855,272.457,74.349,283.964,85.125,296.375z M80.154,310.05
		c0.455,0.198,0.898,0.289,1.328,0.297c0.158,1.059,0.395,2.108,0.699,3.145c-17.432,7.32-34.48,15.523-51.045,24.644
		c-4.516-11.847-5.229-25.752-2.814-38.435c0.234,0.127,0.492,0.236,0.789,0.312C45.834,304.18,64.195,303.031,80.154,310.05z
		 M84.722,319.305c1.018,1.707,2.227,3.274,3.586,4.631c-2.381,8.424-7.158,15.871-10.396,23.969
		c-3.275,8.193-4.764,16.926-8.246,25.078c-15.488-3.965-28.475-14.791-35.895-29C50.293,334.857,67.306,326.591,84.722,319.305z
		 M83.533,351.104c2.691-8.121,7.549-15.268,10.291-23.367c2.404,1.035,4.936,1.437,7.461,1.314
		c2.566,7.807,5.691,15.399,8.818,22.998c1.701,4.139,3.375,8.282,4.955,12.467c0.84,2.223,1.422,5.793,2.623,8.479
		c-12.871,5.152-28.979,7.791-40.393,1.012c-0.346-0.205-0.689-0.33-1.021-0.399C79.162,366.242,81.035,358.637,83.533,351.104z
		 M109.965,319.15c-5.244,4.5-12.479,4.896-17.441-0.014c-3.607-3.568-5.49-9.562-4.637-14.554c0.297-1.735,0.936-2.942,1.795-3.758
		c1.098,0.209,2.211-0.373,2.92-1.307c1.809-0.215,3.922,0.271,5.992,1.098c0.303,0.121,0.586,0.181,0.859,0.209
		c-1.078,3.537-2.027,7.125-2.789,10.787c-0.693,3.33,3.396,5.068,5.312,3.289c3.006,0.219,5.836-2.559,7.701-4.553
		c1.012-1.082,1.977-2.215,2.902-3.381C117.48,310.052,113.941,315.74,109.965,319.15z M101.336,295.104
		c-0.287-0.264-0.625-0.49-1.039-0.656c-0.936-0.373-1.875-0.666-2.807-0.889c0.516-1.357,1.034-2.717,1.555-4.076
		c0.148,0.232,0.283,0.473,0.379,0.74c0.182,0.514,0.675,0.852,1.229,0.697c0.497-0.136,0.882-0.716,0.698-1.229
		c-0.326-0.918-0.854-1.668-1.479-2.367c0.438-1.141,0.879-2.278,1.322-3.42c0.059,0.096,0.111,0.193,0.173,0.287
		c0.702,1.076,2.435,0.074,1.727-1.01c-0.356-0.547-0.673-1.111-0.95-1.693c0.664-1.688,1.338-3.377,2.02-5.061
		c0.416,0.625,0.818,1.262,1.262,1.862c0.756,1.025,2.492,0.029,1.727-1.01c-0.729-0.99-1.364-2.053-2.096-3.039
		c0.262-0.639,0.529-1.274,0.795-1.912c0.458,0.631,1.027,1.189,1.574,1.736c0.912,0.914,2.326-0.5,1.414-1.414
		c-0.619-0.619-1.273-1.229-1.688-2.01c-0.109-0.207-0.262-0.322-0.425-0.4c0.567-1.336,1.145-2.668,1.729-3.996
		c0.763,0.765,1.526,1.525,2.289,2.289c0.913,0.912,2.327-0.502,1.414-1.414c-0.945-0.944-1.892-1.891-2.837-2.838
		c0.623-1.389,1.26-2.77,1.905-4.147c0.722,0.692,1.468,1.354,2.302,1.918c1.07,0.725,2.07-1.009,1.01-1.728
		c-0.877-0.594-1.634-1.311-2.38-2.057c-0.013-0.012-0.026-0.015-0.039-0.026c0.405-0.848,0.819-1.692,1.235-2.535
		c0.486,0.583,0.915,1.215,1.446,1.763c0.899,0.927,2.312-0.488,1.414-1.414c-0.671-0.692-1.173-1.521-1.844-2.213
		c-0.021-0.021-0.044-0.025-0.063-0.044c0.796-1.578,1.61-3.146,2.447-4.702c0.701,0.701,1.402,1.402,2.104,2.103
		c0.912,0.913,2.326-0.501,1.414-1.414c-0.84-0.839-1.679-1.678-2.518-2.518c0.689-1.251,1.395-2.495,2.115-3.731
		c0.865,0.761,1.611,1.623,2.15,2.666c0.593,1.146,2.318,0.134,1.727-1.01c-0.492-0.955-1.148-1.762-1.889-2.497
		c1.859,0.772,3.684,1.678,5.457,2.749C117.195,261.355,107.556,277.546,101.336,295.104z M132.554,222.816
		c-2.738,4.831-6.92,8.663-10.078,13.229c-1.51-0.553-3.037-1.031-4.58-1.428c1.012-2.025,1.811-4.142,2.615-6.278
		c1.152-3.062,2.719-5.96,3.863-9.019C127.273,220.139,130.023,221.277,132.554,222.816z M122.597,218.857
		c-1.014,2.674-2.369,5.231-3.426,7.891c-0.998,2.512-1.881,5.039-3.107,7.426c-1.5-0.326-3.014-0.591-4.533-0.781
		c1.799-5.079,2.1-10.61,4.039-15.678C117.965,217.949,120.318,218.318,122.597,218.857z M106.877,217.346
		c2.279-0.012,4.557,0.05,6.807,0.208c-1.855,5.069-2.092,10.62-4.01,15.641c-1.584-0.144-3.178-0.221-4.775-0.232
		C105.224,227.72,106.148,222.551,106.877,217.346z M98.906,228.95c0.195-3.827,0.01-7.594,0.633-11.375
		c1.82-0.095,3.66-0.166,5.506-0.203c-0.729,5.206-1.652,10.366-1.979,15.609c-1.559,0.037-3.119,0.125-4.68,0.274
		C98.494,231.673,98.877,229.54,98.906,228.95z M97.674,217.679c-0.631,4.188-0.449,8.419-0.666,12.655
		c-0.039,0.746-0.299,1.955-0.383,3.122c-2.076,0.252-4.146,0.586-6.207,1.014c-0.85-5.32-1.336-10.98-1.33-16.252
		C91.834,218.06,94.719,217.854,97.674,217.679z M86.402,218.358c0.281-0.012,0.57-0.027,0.857-0.042
		c0,5.381,0.506,11.125,1.375,16.546c-1.65,0.381-3.293,0.812-4.924,1.292c-1.812-5.572-2.844-11.345-3.793-17.121
		C82.068,218.688,84.23,218.452,86.402,218.358z M78.127,219.346c0.961,5.85,1.996,11.699,3.836,17.339
		c-1.281,0.405-2.557,0.835-3.818,1.293c-2.82-5.4-4.371-11.372-6.85-16.94C73.549,220.353,75.83,219.786,78.127,219.346z
		 M69.541,221.59c2.535,5.578,4.088,11.579,6.881,17.032c-1.07,0.411-2.133,0.836-3.184,1.28
		c-3.342-5.259-6.332-10.723-9.387-16.152C65.726,222.949,67.625,222.229,69.541,221.59z M62.172,224.491
		c3.053,5.424,6.035,10.885,9.365,16.145c-0.906,0.401-1.809,0.809-2.697,1.231c-0.408,0.194-0.846,0.417-1.285,0.646
		c-3.719-5.039-7.484-10.042-11.088-15.165C58.338,226.322,60.242,225.368,62.172,224.491z M54.869,228.242
		c3.596,5.116,7.355,10.113,11.07,15.145c-1.273,0.714-2.625,1.521-4.031,2.407c-4.834-3.371-8.1-9.837-10.875-15.22
		C52.291,229.764,53.572,228.989,54.869,228.242z M49.498,231.573c2.787,5.365,6.02,11.627,10.756,15.279
		c-1.08,0.703-2.172,1.436-3.264,2.186c-3.902-4.836-8.176-9.367-11.83-14.399C46.578,233.578,48.025,232.557,49.498,231.573z
		 M43.72,235.753c3.648,4.999,7.881,9.524,11.775,14.329c-0.982,0.692-1.957,1.388-2.904,2.083c-4.4-4.27-8.971-8.459-12.436-13.533
		C41.318,237.646,42.511,236.691,43.72,235.753z M38.765,239.833c3.473,5.013,7.971,9.193,12.342,13.434
		c-1.152,0.865-2.258,1.717-3.275,2.528c-3.924-4.498-8.275-8.608-12.107-13.188C36.717,241.666,37.732,240.742,38.765,239.833z
		 M34.412,243.877c3.797,4.54,8.104,8.619,12.002,13.068c-1.475,1.216-2.711,2.31-3.594,3.19c-3.26-4.821-7.496-8.87-11.625-12.954
		C32.242,246.068,33.308,244.962,34.412,243.877z M26.652,252.347c1.055-1.287,2.162-2.561,3.303-3.822
		c4.129,4.078,8.377,8.118,11.578,12.979c-0.873,0.914-1.725,1.85-2.553,2.799c-3.918-4.162-8.262-7.874-12.654-11.541
		C26.435,252.626,26.541,252.484,26.652,252.347z M25.203,254.197c4.377,3.656,8.701,7.364,12.598,11.521
		c-0.662,0.793-1.307,1.598-1.939,2.414c-4.012-3.898-8.752-7.109-13.225-10.417C23.467,256.522,24.314,255.343,25.203,254.197z
		 M21.615,259.221c4.455,3.299,9.168,6.485,13.143,10.391c-0.658,0.892-1.293,1.803-1.914,2.721
		c-4.389-3.276-9.215-6.01-14.01-8.616C19.72,262.189,20.64,260.686,21.615,259.221z M17.929,265.303
		c4.754,2.582,9.566,5.283,13.908,8.543c-0.674,1.049-1.32,2.115-1.941,3.194c-4.357-3.043-9.6-4.911-13.82-8.192
		C16.672,267.654,17.285,266.47,17.929,265.303z M15.261,270.514c4.273,3.16,9.494,5.033,13.76,8.127
		c-0.445,0.817-0.873,1.646-1.289,2.481c-4.836-2.002-9.455-4.502-14.26-6.582C14.039,273.186,14.633,271.843,15.261,270.514z
		 M12.793,276.227c4.771,2.051,9.354,4.529,14.141,6.535c-0.584,1.25-1.137,2.52-1.645,3.812c-0.086,0.215-0.154,0.439-0.236,0.656
		c-4.604-2.277-9.033-4.904-13.736-6.975C11.781,278.904,12.269,277.557,12.793,276.227z M10.756,281.99
		c4.684,2.062,9.086,4.707,13.678,6.967c-0.299,0.865-0.564,1.748-0.832,2.632c-4.537-2.183-9.336-3.854-13.955-5.853
		C9.994,284.482,10.357,283.23,10.756,281.99z M9.172,287.511c4.625,1.975,9.412,3.646,13.926,5.856
		c-0.184,0.679-0.34,1.369-0.502,2.058c-4.785-1.306-9.502-2.857-14.32-4.039C8.549,290.089,8.843,288.798,9.172,287.511z
		 M7.916,293.178c4.801,1.186,9.504,2.731,14.275,4.03c-0.295,1.402-0.537,2.822-0.742,4.253c-4.822-0.806-9.652-1.533-14.539-1.736
		C7.164,297.535,7.5,295.352,7.916,293.178z M6.73,301.548c4.869,0.192,9.68,0.92,14.482,1.721c-0.139,1.162-0.26,2.328-0.348,3.504
		c-4.656,0.932-9.66-0.369-14.475-0.387C6.453,304.771,6.578,303.158,6.73,301.548z M6.349,308.203
		c4.789-0.016,9.717,1.209,14.396,0.438c-0.045,0.891-0.092,1.774-0.109,2.668c-4.83-0.396-9.615-0.004-14.273,1.332
		C6.318,311.169,6.322,309.688,6.349,308.203z M6.447,314.527c4.613-1.375,9.379-1.817,14.176-1.406
		c0.004,1.371,0.035,2.742,0.107,4.113c-4.684,0.361-9.385,0.486-14.004,1.383C6.599,317.261,6.513,315.895,6.447,314.527z
		 M6.92,320.439c4.588-0.918,9.258-1.027,13.912-1.389c0.08,1.082,0.18,2.162,0.303,3.237c-4.252,1.675-9,2.41-13.469,3.459
		C7.367,323.992,7.121,322.221,6.92,320.439z M8.004,327.546c4.428-1.06,9.094-1.808,13.359-3.39
		c0.141,1.035,0.291,2.066,0.471,3.094c-4.17,1.873-8.512,3.388-12.887,4.736C8.593,330.518,8.289,329.035,8.004,327.546z
		 M9.379,333.764c4.34-1.34,8.648-2.842,12.799-4.678c0.15,0.743,0.309,1.485,0.477,2.227c-0.25,0.08-0.475,0.254-0.582,0.566
		c-0.648,1.84-5.275,2.893-6.842,3.471c-1.631,0.604-3.283,1.162-4.906,1.795C9.986,336.025,9.676,334.898,9.379,333.764z
		 M10.865,338.869c2.479-0.998,5.055-1.793,7.533-2.782c1.486-0.595,3.611-1.306,4.771-2.644c0.424,1.644,0.9,3.264,1.426,4.855
		c-4.092,1.537-8.297,3.315-11.84,5.903C12.07,342.449,11.445,340.669,10.865,338.869z M13.469,345.964
		c3.463-2.634,7.656-4.414,11.711-5.938c0.326,0.914,0.67,1.816,1.031,2.709c-4.043,1.603-7.84,3.838-11.383,6.371
		C14.355,348.068,13.906,347.018,13.469,345.964z M15.623,350.771c3.488-2.516,7.242-4.775,11.229-6.34
		c0.025-0.01,0.041-0.027,0.062-0.041c0.223,0.514,0.438,1.029,0.672,1.531c0.289,0.623,0.596,1.235,0.908,1.844
		c-3.547,2.428-7.219,4.678-10.902,6.893C16.902,353.382,16.254,352.082,15.623,350.771z M18.486,356.254
		c3.674-2.208,7.338-4.452,10.877-6.872c0.893,1.604,1.852,3.159,2.883,4.664c-3.189,2.864-7.086,4.995-10.857,7.028
		C20.369,359.5,19.41,357.887,18.486,356.254z M22.408,362.598c3.785-2.043,7.688-4.195,10.912-7.054
		c0.422,0.574,0.838,1.156,1.279,1.715c-2.854,3.388-6.021,6.5-9.041,9.742C24.459,365.57,23.42,364.094,22.408,362.598z
		 M26.701,368.459c3.021-3.264,6.182-6.395,9.064-9.772c0.707,0.84,1.43,1.666,2.18,2.467c-2.781,3.647-5.523,7.326-7.93,11.234
		C28.873,371.109,27.769,369.797,26.701,368.459z M31.302,373.785c2.385-3.945,5.131-7.646,7.92-11.313
		c1.273,1.278,2.59,2.512,3.971,3.674c-2.697,3.867-5.633,7.562-7.838,11.723C33.957,376.549,32.609,375.184,31.302,373.785z
		 M36.709,379.127c2.143-4.233,5.156-7.953,7.895-11.834c1.182,0.938,2.393,1.834,3.637,2.687
		c-1.098,4.545-4.939,8.606-7.602,12.508C39.295,381.402,37.986,380.281,36.709,379.127z M42.07,383.619
		c2.641-3.994,6.404-7.99,7.783-12.584c1.646,1.053,3.336,2.037,5.072,2.937c-2.596,4.434-5.326,8.786-7.74,13.323
		C45.429,386.127,43.726,384.898,42.07,383.619z M48.724,388.293c2.445-4.604,5.217-9.018,7.85-13.516
		c1.172,0.563,2.355,1.106,3.562,1.602c-1.676,5.068-4.707,9.722-6.865,14.638C51.72,390.152,50.211,389.238,48.724,388.293z
		 M54.869,391.895c2.141-5.002,5.238-9.707,6.971-14.851c1.234,0.463,2.48,0.902,3.742,1.291
		c-1.664,5.297-4.555,10.472-7.469,15.195C57.015,393.008,55.935,392.459,54.869,391.895z M64.336,396.234
		c-1.545-0.603-3.057-1.254-4.553-1.935c2.959-4.809,5.863-10.059,7.551-15.444c1.355,0.371,2.719,0.715,4.098,0.998
		c-2.256,5.52-4.43,11.074-6.633,16.617C64.65,396.387,64.506,396.301,64.336,396.234z M66.219,398.041
		c-0.014-0.033-0.037-0.061-0.051-0.094c2.357-5.918,4.672-11.852,7.084-17.748c0.805,0.141,1.611,0.271,2.422,0.379
		c0.123,0.019,0.229,0.008,0.342,0.012c0.096,0.05,0.195,0.091,0.291,0.138c-1.514,6.319-3.443,12.444-6.229,18.319
		C68.783,398.748,67.492,398.42,66.219,398.041z M71.912,399.449c2.688-5.764,4.592-11.768,6.092-17.959
		c0.838,0.352,1.693,0.66,2.561,0.943c-2.678,5.436-3.271,11.766-4.912,17.61C74.398,399.887,73.15,399.695,71.912,399.449z
		 M83.304,400.613c-1.955-0.068-3.896-0.174-5.814-0.354c1.545-5.706,2.115-11.911,4.768-17.151
		c0.027-0.053,0.027-0.103,0.043-0.152c0.666,0.183,1.342,0.336,2.023,0.48C83.984,389.16,83.761,394.896,83.304,400.613z
		 M85.127,400.676c0.453-5.62,0.678-11.266,1.006-16.896c0.982,0.162,1.979,0.279,2.979,0.373c0.584,3.928,0.648,7.955,1.039,11.893
		c0.141,1.447,0.268,3.045,0.611,4.562C88.875,400.672,86.994,400.707,85.127,400.676z M92.472,400.545
		c-0.84-2.815-0.686-6.446-0.877-8.932c-0.186-2.439-0.32-4.898-0.639-7.328c1.326,0.072,2.664,0.076,4.008,0.045
		c1.688,5.154,2.572,10.529,4.352,15.648C97.027,400.236,94.744,400.428,92.472,400.545z M101.142,399.748
		c-1.828-5.043-2.662-10.381-4.277-15.498c1.5-0.086,3.002-0.235,4.504-0.436c1.314,5.184,3.299,10.139,5.389,15.061
		C104.886,399.209,103.013,399.506,101.142,399.748z M108.586,398.535c-2.086-4.902-4.064-9.83-5.393-14.984
		c1.348-0.215,2.688-0.481,4.021-0.772c0.008,0.106,0.025,0.219,0.078,0.332c2.16,4.729,4.062,9.561,5.855,14.438
		C111.631,397.902,110.111,398.24,108.586,398.535z M114.931,397.119c-1.83-4.979-3.777-9.91-5.977-14.744
		c1.311-0.315,2.605-0.676,3.889-1.055c3.064,4.498,5.582,9.299,8.057,14.135C118.922,396.061,116.931,396.617,114.931,397.119z
		 M122.666,394.896c-2.469-4.826-4.965-9.629-7.994-14.135c1.951-0.623,3.846-1.318,5.695-2.052
		c2.816,4.66,5.391,9.459,8.295,14.062C126.679,393.533,124.681,394.244,122.666,394.896z M130.396,392.102
		c-2.922-4.605-5.502-9.412-8.314-14.084c1.578-0.662,3.096-1.359,4.561-2.074c2.914,4.658,5.445,9.551,8.395,14.18
		C133.506,390.814,131.959,391.475,130.396,392.102z M136.715,389.35c-2.971-4.642-5.512-9.552-8.43-14.23
		c0.869-0.449,1.727-0.92,2.58-1.396c3.627,4.325,7.076,8.778,10.277,13.42C139.683,387.908,138.209,388.646,136.715,389.35z
		 M142.76,386.279c-3.209-4.66-6.666-9.133-10.297-13.479c1.354-0.795,2.676-1.635,3.982-2.497c3.51,4.641,7.801,8.553,11.787,12.76
		C146.441,384.182,144.623,385.264,142.76,386.279z M149.808,382.074c-3.99-4.229-8.34-8.121-11.852-12.779
		c1.453-1.004,2.871-2.055,4.256-3.143c4.014,4.326,8.332,8.352,12.523,12.506C153.129,379.84,151.49,380.984,149.808,382.074z
		 M156.215,377.549c-4.203-4.176-8.543-8.215-12.58-12.555c0.947-0.779,1.871-1.586,2.781-2.408c0.031,0.033,0.043,0.07,0.082,0.104
		c4.576,3.832,9.006,7.82,13.264,12.004C158.601,375.666,157.424,376.625,156.215,377.549z M161.16,373.498
		c-4.289-4.217-8.756-8.24-13.369-12.102c-0.016-0.017-0.035-0.019-0.053-0.029c0.83-0.783,1.635-1.592,2.43-2.408
		c0.064,0.168,0.174,0.326,0.379,0.439c5.256,2.914,9.602,6.996,14.184,10.809C163.57,371.332,162.381,372.43,161.16,373.498z
		 M166.021,368.916c-4.705-3.912-9.16-8.106-14.553-11.098c-0.061-0.033-0.121-0.037-0.18-0.057
		c1.068-1.146,2.086-2.337,3.082-3.545c0.016,0.008,0.021,0.021,0.039,0.026c5.738,2.627,10.73,6.416,15.764,10.154
		C168.847,365.951,167.461,367.457,166.021,368.916z M171.342,363.002c-5.051-3.75-10.053-7.561-15.793-10.227
		c0.977-1.248,1.91-2.527,2.803-3.838c5.027,3.799,10.195,7.397,15.307,11.084C172.906,361.029,172.138,362.027,171.342,363.002z
		 M174.728,358.547c-5.131-3.7-10.324-7.313-15.373-11.128c0.852-1.32,1.645-2.681,2.41-4.06c3.289,2.512,6.521,5.101,9.861,7.547
		c1.709,1.252,3.609,2.75,5.635,3.834C176.453,356.033,175.609,357.303,174.728,358.547z M178.199,353.184
		c-2.346-1.199-4.549-3.053-6.496-4.479c-3.07-2.248-6.033-4.641-9.053-6.952c0.82-1.582,1.57-3.21,2.27-4.865
		c5.465,3.43,11.234,6.639,16.311,10.639C180.299,349.46,179.287,351.346,178.199,353.184z M183.845,341.363
		c-0.559,1.515-1.182,2.99-1.838,4.449c-5.135-3.973-10.91-7.189-16.387-10.645c0.57-1.476,1.051-2.966,1.488-4.464
		c5.902,2.65,12.049,4.984,17.447,8.58C184.32,339.979,184.097,340.677,183.845,341.363z M185.164,337.498
		c-5.455-3.563-11.643-5.883-17.561-8.562c0.361-1.408,0.658-2.826,0.914-4.248c6.305,1.738,12.279,4.396,18.209,7.131
		C186.263,333.729,185.754,335.625,185.164,337.498z M187.16,330.012c-5.969-2.75-11.992-5.41-18.342-7.142
		c0.203-1.354,0.359-2.711,0.48-4.073c6.314,0.182,14.127,0.911,19.088,4.396C188.062,325.484,187.658,327.761,187.16,330.012z
		 M188.64,321.214c-5.33-3.242-12.852-4.031-19.209-4.234c0.045-0.707,0.059-1.418,0.082-2.127
		c6.553-0.092,13.064,0.729,19.598,1.121C189.002,317.723,188.847,319.471,188.64,321.214z M189.195,314.15
		c-6.543-0.391-13.066-1.217-19.627-1.129c0.018-1.646-0.029-3.297-0.107-4.947c2.496-0.533,4.99-1.071,7.494-1.58
		c2.215-0.448,4.436-0.864,6.666-1.233c0.742-0.125,4.367-0.982,4.945-0.521c0.174,0.14,0.361,0.205,0.547,0.215
		C189.291,308.014,189.32,311.087,189.195,314.15z M188.972,302.99c-2.391-0.77-6.623,0.627-8.578,0.979
		c-3.695,0.668-7.363,1.479-11.035,2.266c-0.146-2.186-0.373-4.367-0.656-6.543c6.312-1.959,12.975-2.684,19.209-4.873
		C188.386,297.523,188.752,300.25,188.972,302.99z M187.58,293.003c-6.205,2.204-12.838,2.938-19.137,4.858
		c-0.266-1.805-0.557-3.604-0.895-5.395c6.447-0.521,12.973-1.57,19.131-3.586C187.015,290.248,187.308,291.623,187.58,293.003z
		 M186.232,287.107c-6.127,2.008-12.625,3.062-19.031,3.562c-0.156-0.769-0.316-1.533-0.48-2.298
		c-0.111-0.516-0.232-1.049-0.354-1.58c6.131-1.524,12.443-2.454,18.365-4.682C185.283,283.759,185.781,285.427,186.232,287.107z
		 M184.129,280.387c-5.867,2.188-12.111,3.117-18.182,4.623c-0.434-1.785-0.912-3.629-1.465-5.504
		c6.336-0.396,12.672-0.771,19.023-0.847C183.724,279.232,183.924,279.811,184.129,280.387z M180.185,271.111
		c0.943,1.877,1.807,3.793,2.604,5.732c-6.293,0.098-12.574,0.475-18.855,0.867c-0.375-1.187-0.777-2.375-1.213-3.56
		c3.701-1.264,7.348-2.752,10.865-4.438c1.363-0.652,3.461-1.199,4.717-2.248C178.933,268.68,179.572,269.889,180.185,271.111z
		 M177.256,265.449c-0.385,0.136-0.602,0.47-0.645,0.824c-0.178,0.088-0.354,0.174-0.525,0.262c-1.01,0.519-2.053,0.976-3.084,1.445
		c-3.588,1.641-7.215,3.174-10.938,4.459c-0.543-1.365-1.117-2.721-1.756-4.035c4.582-2.813,9.014-6.51,13.949-8.434
		C175.279,261.785,176.277,263.611,177.256,265.449z M173.355,258.37c-4.908,1.995-9.307,5.603-13.873,8.401
		c-0.734-1.387-1.523-2.73-2.387-4.004c4.285-3.236,9.039-6.24,13.051-9.843C171.244,254.721,172.306,256.541,173.355,258.37z
		 M169.08,251.164c0.037,0.058,0.07,0.116,0.104,0.173c-4.004,3.672-8.797,6.692-13.146,9.958c-0.896-1.188-1.854-2.31-2.889-3.331
		c3.799-4.48,8.023-8.576,11.93-12.957C166.472,247.025,167.789,249.101,169.08,251.164z M161.39,240.164
		c0.914,1.063,1.768,2.18,2.598,3.316c-3.977,4.485-8.297,8.662-12.176,13.241c-0.611-0.524-1.242-1.021-1.902-1.479
		c3.387-5.412,6.633-11.069,10.779-15.934C160.955,239.637,161.193,239.933,161.39,240.164z M159.504,237.897
		c-4.295,4.989-7.645,10.793-11.135,16.364c-1.104-0.639-2.27-1.188-3.504-1.627c2.52-4.711,5.02-9.434,7.562-14.134
		c0.654-1.211,1.355-2.385,2.088-3.533c0.441,0.296,0.973,0.504,1.613,0.549C157.23,235.593,158.455,236.717,159.504,237.897z
		 M157.588,219.831c-3.484,4.814-7.348,9.322-10.203,14.55c-6.561,12.014-12.865,24.165-19.557,36.11
		c-5.58,9.957-11.135,20.695-18.188,29.918c-0.209,0.197-0.383,0.433-0.531,0.688c-1.27,1.627-2.58,3.213-3.955,4.729
		c-0.207,0.228-0.447,0.479-0.695,0.732c9.701-35.861,35.338-65.49,52.91-97.617c1.98-3.622-3.545-6.852-5.525-3.23
		c-2.959,5.411-6.146,10.75-9.438,16.061c-0.742-0.48-1.506-0.924-2.287-1.353c-1.338-1.1-2.74-2.084-4.201-2.957
		c0.236-1.084,0.531-2.163,0.86-3.235c0.497,0.696,0.994,1.392,1.472,2.102c0.715,1.064,2.449,0.064,1.727-1.01
		c-0.782-1.164-1.621-2.287-2.412-3.445c0.492-1.32,1.072-2.61,1.695-3.88c0.633,0.943,1.264,1.888,1.94,2.802
		c0.758,1.024,2.495,0.029,1.727-1.01c-0.915-1.238-1.751-2.531-2.628-3.796c0.35-0.628,0.713-1.248,1.095-1.856
		c0.61,1.153,1.295,2.256,2.02,3.343c0.712,1.067,2.444,0.067,1.727-1.01c-0.798-1.196-1.562-2.404-2.213-3.688
		c-0.095-0.186-0.224-0.297-0.362-0.379c0.828-1.18,1.701-2.323,2.645-3.394c0.623,1.42,1.333,2.783,2.262,4.044
		c0.755,1.027,2.492,0.031,1.727-1.01c-1.036-1.408-1.826-2.938-2.481-4.555c-0.007-0.017-0.021-0.026-0.028-0.043
		c0.143-0.144,0.273-0.301,0.418-0.442c0.32-0.312,0.674-0.613,1.053-0.902c1.229,1.6,2.236,3.325,2.898,5.238
		c0.42,1.211,2.353,0.69,1.93-0.531c-0.738-2.128-1.832-4.007-3.17-5.79c5.899-3.335,15.479-3.875,17.387,3.839
		C168.898,205.716,161.242,214.785,157.588,219.831z M171.06,192.734c-1.486-2.011-3.758-3.769-7.041-5.149
		c-0.104-0.044-0.207-0.074-0.311-0.116c0.35-0.985,0.727-1.956,1.119-2.92c0.376,0.499,0.732,1.013,1.082,1.539
		c0.712,1.067,2.445,0.067,1.727-1.01c-0.604-0.906-1.227-1.793-1.925-2.622c0.353-0.797,0.721-1.586,1.099-2.371
		c0.42,0.661,0.848,1.316,1.312,1.945c0.758,1.025,2.495,0.029,1.727-1.01c-0.721-0.976-1.365-2.003-1.976-3.052
		c0.444-0.859,0.899-1.711,1.369-2.557c0.47,0.742,0.941,1.483,1.462,2.192c0.756,1.027,2.492,0.031,1.727-1.01
		c-0.742-1.011-1.387-2.089-2.07-3.14c0.641-1.096,1.296-2.184,1.969-3.262c0.812,1.104,1.625,2.208,2.588,3.188
		c0.906,0.921,2.318-0.494,1.414-1.414c-1.049-1.068-1.9-2.29-2.793-3.486c-0.023-0.03-0.049-0.053-0.073-0.08
		c0.637-0.988,1.286-1.968,1.942-2.944c0.857,1.245,1.767,2.455,2.674,3.665c0.764,1.019,2.501,0.023,1.727-1.01
		c-1.003-1.337-2.018-2.669-2.951-4.057c-0.086-0.128-0.188-0.225-0.298-0.297c0.764-1.114,1.538-2.22,2.316-3.324
		c0.847,1.048,1.765,2.045,2.524,3.156c0.724,1.057,2.457,0.058,1.727-1.01c-0.89-1.302-1.998-2.434-2.95-3.688
		c-0.036-0.048-0.083-0.082-0.124-0.124c0.493-0.693,0.986-1.386,1.48-2.078c0.867,0.656,1.482,1.578,2.08,2.474
		c0.713,1.067,2.445,0.067,1.727-1.01c-0.766-1.148-1.564-2.234-2.654-3.077c1.094-1.531,2.184-3.06,3.258-4.591
		c2.195,0.93,4.447,1.66,6.672,2.155C186.804,166.69,177.552,179.007,171.06,192.734z M265.03,284.068v-4.039c0-1.289-2-1.289-2,0
		v1.697c-0.984-1.133-1.984-2.254-3-3.359v-3.838c0-1.289-1.999-1.289-1.999,0v1.689c-0.661-0.697-1.33-1.39-2-2.076v-3.113
		c0-1.289-2-1.289-2,0v1.09c-0.858-0.856-1.723-1.711-2.594-2.557c0.072-1.172,0.093-2.348,0.094-3.533c0-1.289-2-1.289-2,0
		c0,0.564-0.004,1.125-0.014,1.687c-0.408-0.39-0.813-0.781-1.223-1.168c-0.574-0.541-1.16-1.07-1.741-1.604
		c0.034-1.063,0.13-2.125,0.441-3.147c0.377-1.236-1.554-1.763-1.929-0.531c-0.197,0.646-0.306,1.311-0.385,1.979
		c-0.801-0.717-1.605-1.432-2.416-2.139c0.244-1.771,0.396-3.552,0.729-5.31c0.238-1.26-1.689-1.798-1.929-0.531
		c-0.268,1.42-0.422,2.854-0.599,4.288c-0.978-0.845-1.954-1.687-2.935-2.525c0.002-1.921,0.029-3.851,0.462-5.73
		c0.288-1.255-1.64-1.788-1.929-0.531c-0.346,1.502-0.461,3.032-0.504,4.566c-1.33-1.144-2.65-2.296-3.963-3.457
		c0.061-1.197,0.174-2.39,0.396-3.578c0.234-1.26-1.692-1.798-1.929-0.531c-0.151,0.814-0.25,1.63-0.33,2.448
		c-0.738-0.668-1.471-1.343-2.197-2.023c0.018-2.307,0.098-4.604,0.456-6.893c0.198-1.261-1.729-1.803-1.929-0.531
		c-0.289,1.847-0.418,3.693-0.48,5.546c-0.449-0.438-0.906-0.868-1.35-1.313c-0.742-0.747-1.465-1.513-2.2-2.267
		c0.017-1.988,0.093-3.974,0.459-5.936c0.235-1.26-1.692-1.798-1.929-0.531c-0.277,1.483-0.406,2.973-0.471,4.469
		c-1.061-1.104-2.121-2.209-3.172-3.324c-0.143-1.958-0.377-3.913-0.393-5.879c-0.012-1.289-2.012-1.29-2,0
		c0.01,1.18,0.102,2.355,0.201,3.53c-0.848-0.913-1.703-1.818-2.545-2.737c-0.148-1.758-0.156-3.53-0.156-5.293
		c-0.001-1.29-2.001-1.29-2,0c0,0.99,0.014,1.979,0.041,2.966c-0.738-0.812-1.479-1.622-2.215-2.437
		c0.131-2.004,0.173-4.012,0.174-6.03c0-1.29-2-1.29-2,0c-0.001,1.315-0.021,2.625-0.066,3.934
		c-0.479-0.532-0.956-1.066-1.434-1.599v-6.335c0-1.29-2-1.29-2,0v4.105c-0.947-1.058-1.896-2.113-2.844-3.171
		c0.729-2.771,0.494-6.003,1.308-8.668c0.378-1.237-1.554-1.761-1.929-0.531c-0.49,1.606-0.689,3.278-0.898,4.94
		c-0.089,0.713-0.133,1.518-0.219,2.322c-0.971-1.084-1.943-2.168-2.918-3.25v-7.247c0-1.29-2-1.29-2,0v5.045
		c-0.801-0.883-1.6-1.766-2.404-2.645c0.141-1.966,0.383-3.925,0.404-5.9c0.014-1.29-1.986-1.289-2,0
		c-0.015,1.306-0.127,2.605-0.24,3.904c-0.734-0.796-1.479-1.583-2.217-2.375c0.05-1.427,0.158-2.849,0.421-4.263
		c0.234-1.26-1.692-1.798-1.929-0.531c-0.173,0.928-0.279,1.859-0.361,2.791c-0.781-0.828-1.574-1.648-2.363-2.47
		c0.162-1.844,0.188-3.699,0.189-5.555c0-1.29-2-1.29-2,0c-0.001,1.211-0.004,2.426-0.051,3.638
		c-0.861-0.886-1.711-1.785-2.584-2.662c-0.197-0.199-0.404-0.357-0.613-0.49c2.064-4.239,4.35-8.362,6.705-12.447
		c27.938,33.071,58.598,63.919,83.967,99.099c0.578,0.802,1.341,1.216,2.13,1.347c-1.114,1.211-2.148,2.526-3.077,3.971
		C266.357,285.671,265.697,284.867,265.03,284.068z M268.402,303.759c4.928,2.325,10.054,4.348,15.308,5.785
		c0.074,0.577,0.166,1.157,0.3,1.743c0.02,0.084,0.046,0.164,0.065,0.248c-5.146,0.562-11.047-1.147-15.765-3.021
		C268.256,306.927,268.281,305.335,268.402,303.759z M268.437,310.514c4.932,1.893,10.907,3.438,16.187,2.785
		c0.071,0.188,0.153,0.371,0.232,0.555c-5.089,1.258-9.603,4.178-14.432,6.184C269.365,317.014,268.708,313.789,268.437,310.514z
		 M271.903,323.589c-0.299-0.604-0.57-1.228-0.83-1.854c4.886-2.053,9.463-5.021,14.638-6.209c0.089,0.146,0.185,0.289,0.276,0.434
		c-0.837,0.71-1.617,1.548-2.162,1.99c-3.432,2.791-6.793,5.773-10.481,8.228C272.834,325.352,272.352,324.492,271.903,323.589z
		 M274.341,327.691c2.796-1.875,5.35-4.051,7.938-6.201c0.592-0.492,3.101-2.871,4.756-4.127c0.464,0.547,0.979,1.037,1.516,1.492
		c-3.448,4.408-7.35,8.451-10.539,13.062C276.681,330.666,275.45,329.262,274.341,327.691z M279.387,333.134
		c3.188-4.677,7.127-8.756,10.617-13.199c0.625,0.393,1.284,0.725,1.97,0.998c-2.581,5.143-5.663,10-8.509,14.996
		C282.038,335.115,280.669,334.195,279.387,333.134z M285.079,336.794c2.902-5.095,6.051-10.046,8.656-15.304
		c0.555,0.129,1.123,0.209,1.7,0.263c-1.787,5.678-3.367,11.418-5.619,16.936C288.184,338.173,286.6,337.546,285.079,336.794z
		 M291.571,339.189c2.154-5.348,3.723-10.885,5.444-16.383c0.96,0.883,2.067,1.594,3.266,2.143
		c-0.606,5.17-1.471,10.279-2.95,15.277C295.372,340.009,293.441,339.677,291.571,339.189z M299.186,340.404
		c1.407-4.842,2.244-9.791,2.846-14.789c0.897,0.273,1.833,0.461,2.781,0.564c-0.192,4.754-0.021,9.549,0.729,14.252
		C303.408,340.552,301.282,340.552,299.186,340.404z M307.362,340.302c-0.756-4.629-0.914-9.361-0.726-14.045
		c0.279-0.002,0.56,0.002,0.841-0.017c1.818,4.418,3.614,8.853,5.318,13.314C310.998,339.889,309.182,340.137,307.362,340.302z
		 M323.803,371.301c0.855-0.793,1.741-1.551,2.64-2.299c0.006,1.162,0.029,2.322,0.089,3.48
		C325.622,372.088,324.713,371.695,323.803,371.301z M329.437,373.77c-0.347-0.156-0.689-0.312-1.037-0.467
		c-0.124-1.777-0.135-3.562-0.136-5.351c0-0.141-0.028-0.264-0.074-0.371c0.411-0.326,0.831-0.645,1.247-0.967V373.77
		L329.437,373.77z M326.453,360.883c-3.418-13.305-8.553-26.071-13.795-38.753c-0.68-1.644-2.241-2.252-3.655-2.103
		c-0.493-0.168-1.042-0.236-1.651-0.135c-2.441,0.408-4.329-0.258-5.62-1.486c-0.085-1.104-0.694-2.192-1.681-2.766
		c-1.092-3.492,0.375-8.031,4.806-9.453c5.806-1.861,19.391,9.369,10.725,12.334c-2.432,0.832-2.947,3.438-1.412,5.348
		c2.109,2.625,3.96,5.511,5.609,8.545c-0.004,1.154,0.608,2.244,1.49,2.892c3.562,7.303,6.069,15.303,8.075,22.811
		c0.045,0.166,0.109,0.307,0.171,0.453C328.494,359.34,327.473,360.111,326.453,360.883z M333.122,340.878
		c1.47,4.125,3.37,8.082,5.617,11.86c-0.343-0.033-0.675-0.014-0.987,0.062c-0.708,0.006-1.438,0.242-2.101,0.828
		c-0.238,0.213-0.489,0.411-0.732,0.62c-1.211-4.344-2.61-8.754-4.263-13.079C331.478,341.07,332.3,340.973,333.122,340.878z
		 M332.799,375.336c-0.511-0.244-1.019-0.494-1.532-0.731v-9.334c0-0.021-0.011-0.033-0.012-0.054
		c0.703-0.532,1.404-1.065,2.107-1.6C333.295,367.529,333.02,371.43,332.799,375.336z M338.282,360.689
		c-0.585,5.647-1.026,11.313-0.892,16.979c-0.929-0.504-1.86-0.996-2.808-1.469c0.241-4.484,0.593-8.965,0.63-13.459
		c0.001-0.18-0.049-0.322-0.119-0.447c1.132-0.873,2.256-1.752,3.354-2.664c0.147,0.088,0.293,0.183,0.44,0.271
		C338.583,360.021,338.324,360.279,338.282,360.689z M341.757,362.426c-0.146,5.935-0.404,11.865-0.062,17.785
		c-0.807-0.516-1.618-1.02-2.442-1.498c-0.222-6.014,0.238-12.024,0.859-18.022c0.003-0.021-0.007-0.029-0.006-0.049
		c0.638,0.393,1.269,0.793,1.896,1.194C341.862,361.98,341.763,362.17,341.757,362.426z M358.509,340.115
		c0.52,0.896,1.051,1.783,1.587,2.666c-4.943,2.84-10.058,5.402-15.118,8.031c-1.033-1.666-2.001-3.365-2.878-5.105
		C347.382,343.843,353.588,342.805,358.509,340.115z M346.495,364.953c-0.062,4.305-0.687,8.584-0.61,12.869
		c-0.794,0.922-1.574,1.854-2.336,2.805c-0.373-5.914-0.127-11.844,0.024-17.772c0.986,0.645,1.973,1.291,2.955,1.938
		C346.52,364.846,346.496,364.891,346.495,364.953z M345.962,352.359c5.054-2.625,10.157-5.184,15.095-8.021
		c0.364,0.586,0.737,1.166,1.112,1.741c-4.35,3.564-9.049,6.687-13.384,10.271C347.803,355.047,346.853,353.718,345.962,352.359z
		 M350.516,372.732c-0.955,1.006-1.898,2.02-2.827,3.049c0.089-3.277,0.484-6.561,0.601-9.836c0.218,0.141,0.434,0.285,0.648,0.426
		c0.512,0.56,1.032,1.109,1.558,1.654C350.605,369.594,350.577,371.164,350.516,372.732z M349.901,357.793
		c4.29-3.569,8.95-6.668,13.279-10.184c0.757,1.119,1.541,2.217,2.341,3.303c-4.216,3.451-8.27,7.689-13.354,9.621
		C351.395,359.635,350.637,358.721,349.901,357.793z M353.747,361.854c4.832-2.156,8.75-6.179,12.86-9.498
		c0.869,1.129,1.772,2.232,2.702,3.313c-3.786,2.898-7.456,5.953-11.396,8.642C356.501,363.531,355.109,362.713,353.747,361.854z
		 M361.216,369.598c-0.026-0.531-0.194-1.048-0.476-1.504c0.193-0.998-0.089-2.052-1.068-2.775
		c3.725-2.611,7.224-5.523,10.841-8.279c0.812,0.9,1.646,1.781,2.506,2.646c-3.829,3.407-7.663,6.811-11.626,10.062
		C361.334,369.695,361.273,369.648,361.216,369.598z M362.814,370.928c3.929-3.229,7.729-6.604,11.528-9.98
		c0.791,0.752,1.612,1.482,2.446,2.205c-3.252,3.705-6.65,7.271-9.508,11.293C365.771,373.312,364.274,372.15,362.814,370.928z
		 M368.751,375.535c2.826-4,6.208-7.533,9.437-11.211c1.04,0.846,2.107,1.668,3.229,2.455c0.163,0.115,0.328,0.221,0.491,0.334
		c-2.668,3.982-5.364,7.986-7.354,12.352C372.596,378.232,370.659,376.916,368.751,375.535z M376.357,380.576
		c-0.084-0.051-0.166-0.104-0.25-0.154c1.941-4.354,4.664-8.348,7.317-12.301c1.646,1.055,3.333,1.994,5.048,2.867
		c-2.799,3.895-5.396,7.908-7.713,12.104C379.276,382.283,377.808,381.443,376.357,380.576z M382.373,383.959
		c2.331-4.217,4.942-8.246,7.758-12.16c1.26,0.593,2.54,1.125,3.83,1.63c-2.162,4.352-4.274,8.723-6.19,13.186
		C385.95,385.77,384.146,384.893,382.373,383.959z M389.417,387.377c1.938-4.5,4.074-8.907,6.256-13.295
		c1.509,0.541,3.035,1.027,4.576,1.463c-1.387,4.836-3.258,9.521-4.477,14.408C393.629,389.16,391.507,388.307,389.417,387.377z
		 M403.693,387.893c-0.06,1.418,0.051,3.078-0.11,4.584c-2.047-0.568-4.077-1.193-6.082-1.896c1.218-4.942,3.116-9.68,4.518-14.569
		c0.593,0.151,1.188,0.295,1.786,0.434C404.508,380.199,403.853,384.102,403.693,387.893z M408.401,393.682
		c-1.02-0.229-2.032-0.474-3.044-0.73c0.203-1.66,0.095-3.473,0.164-5.059c0.164-3.677,0.69-7.388,0.188-11.035
		c1.157,0.233,2.321,0.442,3.49,0.633C409.026,382.82,408.14,388.318,408.401,393.682z M411.675,394.348
		c-0.479-0.086-0.954-0.193-1.432-0.289c-0.358-5.39,0.573-10.957,0.776-16.312c1.092,0.15,2.188,0.279,3.288,0.396
		c0.378,5.625,0.802,11.243,1.436,16.846C414.381,394.805,413.022,394.592,411.675,394.348z M417.598,395.211
		c-0.643-5.617-1.069-11.256-1.449-16.897c1.363,0.114,2.73,0.201,4.101,0.268c0.203,5.666,1.021,11.293,1.257,16.955
		C420.201,395.457,418.896,395.355,417.598,395.211z M423.337,395.625c-0.23-5.668-1.05-11.301-1.258-16.975
		c0.987,0.031,1.978,0.049,2.967,0.057c1.113,5.537,0.278,11.533,1.918,16.924C425.755,395.66,424.546,395.664,423.337,395.625z
		 M429.604,395.516c-0.264,0.02-0.524,0.02-0.788,0.032c-1.853-5.241-0.951-11.323-1.924-16.846
		c1.755-0.012,3.506-0.063,5.255-0.137c0.468,5.465,1.305,10.889,1.909,16.34C432.586,395.18,431.105,395.408,429.604,395.516z
		 M435.847,394.562c-0.604-5.363-1.424-10.703-1.878-16.084c0.344-0.021,0.688-0.027,1.029-0.049
		c0.42,0.211,0.914,0.336,1.502,0.317c0.851-0.022,1.688-0.1,2.526-0.199c1.313,4.904,2.225,9.925,3.892,14.722
		C440.542,393.562,438.199,394.084,435.847,394.562z M445.953,393.158c-0.282-0.062-0.581-0.104-0.919-0.086
		c-0.08,0.004-0.159,0.018-0.239,0.023c-1.713-4.822-2.633-9.875-3.943-14.818c1.401-0.252,2.785-0.605,4.149-1.033
		c1.782,4.795,3.674,9.553,5.726,14.24C449.146,392.156,447.547,392.754,445.953,393.158z M452.385,390.75
		c-2.03-4.633-3.896-9.344-5.655-14.086c1.288-0.469,2.554-1.016,3.804-1.6c1.516,4.774,3.891,9.213,5.887,13.809
		C455.112,389.471,453.765,390.121,452.385,390.75z M458.202,388.082c-0.042,0.021-0.085,0.037-0.126,0.058
		c-2.021-4.611-4.396-9.08-5.878-13.894c1.4-0.717,2.768-1.502,4.115-2.311c2.794,4.369,4.967,9.1,7.688,13.516
		C462.087,386.375,460.156,387.262,458.202,388.082z M465.653,384.65c-2.76-4.459-4.948-9.244-7.774-13.66
		c1.181-0.744,2.329-1.514,3.462-2.289c1.859,2.541,3.6,5.172,5.426,7.74c1.221,1.713,2.564,3.99,4.375,5.207
		C469.344,382.701,467.517,383.709,465.653,384.65z M472.698,380.734c-0.059-0.188-0.17-0.361-0.384-0.488
		c-2.002-1.201-3.438-3.969-4.747-5.824c-1.585-2.248-3.107-4.539-4.733-6.756c0.173-0.123,0.354-0.244,0.524-0.365
		c1.535-1.092,3.04-2.227,4.526-3.387c3.119,4.625,6.367,9.156,9.644,13.668C475.939,378.674,474.333,379.734,472.698,380.734z
		 M479.03,376.551c-3.298-4.541-6.566-9.104-9.702-13.762c1.416-1.141,2.803-2.315,4.159-3.524c4.053,4.026,7.17,8.846,10.676,13.34
		C482.498,373.98,480.786,375.299,479.03,376.551z M485.55,371.434c-3.528-4.511-6.648-9.353-10.713-13.404
		c1.382-1.277,2.713-2.607,4.017-3.965c3.653,4.521,7.272,9.25,9.916,14.414C487.722,369.49,486.652,370.48,485.55,371.434z
		 M490.123,367.119c-2.698-5.146-6.338-9.854-10.001-14.379c1.021-1.106,2.002-2.244,2.962-3.403
		c3.827,4.125,7.857,8.18,10.837,12.96c0.079,0.127,0.173,0.222,0.273,0.289C492.909,364.158,491.547,365.668,490.123,367.119z
		 M495.881,360.438c-0.176,0.233-0.359,0.465-0.54,0.696c-3.086-4.87-7.197-9.02-11.105-13.245c0.354-0.447,0.721-0.883,1.062-1.34
		c0.776-1.033,1.503-2.088,2.193-3.156c4.055,3.723,8.135,7.43,12.475,10.812C498.731,356.334,497.378,358.414,495.881,360.438z
		 M500.868,352.609c-4.315-3.373-8.365-7.088-12.396-10.795c0.967-1.615,1.84-3.268,2.628-4.947
		c2.296,1.191,4.573,2.416,6.809,3.726c1.967,1.149,4.597,2.502,6.564,4.242C503.438,347.482,502.244,350.078,500.868,352.609z
		 M505.123,343.105c-1.285-0.998-2.704-1.855-3.921-2.643c-3.003-1.939-6.16-3.65-9.347-5.283c0.74-1.728,1.375-3.488,1.942-5.271
		c4.951,0.662,9.493,2.976,13.524,5.863C506.712,338.25,505.991,340.699,505.123,343.105z M507.784,333.865
		c-4.051-2.819-8.557-4.955-13.453-5.701c0.688-2.407,1.216-4.856,1.62-7.332c4.473,0.746,9.081,1.253,13.433,2.544
		C509.069,326.912,508.544,330.416,507.784,333.865z M509.521,321.505c-4.317-1.238-8.881-1.726-13.3-2.47
		c0.305-2.241,0.501-4.502,0.598-6.772c4.281,0.313,8.588,0.102,12.869,0.461C509.762,315.66,509.719,318.591,509.521,321.505z"/>
</g>
<g>
</g>
<g>
</g>
<g>
</g>
<g>
</g>
<g>
</g>
<g>
</g>
<g>
</g>
<g>
</g>
<g>
</g>
<g>
</g>
<g>
</g>
<g>
</g>
<g>
</g>
<g>
</g>
<g>
</g>
</svg>
