<?xml version="1.0" encoding="iso-8859-1"?>
<!-- Generator: Adobe Illustrator 16.0.0, SVG Export Plug-In . SVG Version: 6.00 Build 0)  -->
<!DOCTYPE svg PUBLIC "-//W3C//DTD SVG 1.1//EN" "http://www.w3.org/Graphics/SVG/1.1/DTD/svg11.dtd">
<svg version="1.1" id="Capa_1" xmlns="http://www.w3.org/2000/svg" xmlns:xlink="http://www.w3.org/1999/xlink" x="0px" y="0px"
	 width="553.231px" height="553.232px" viewBox="0 0 553.231 553.232" style="enable-background:new 0 0 553.231 553.232;"
	 xml:space="preserve">
<g>
	<g>
		<path fill="#98f698" d="M549.362,355.736c-6.454-0.043-12.896-0.458-19.346-0.604c0.615-4.66,1.106-9.327,1.479-13.972
			c0.782-9.755,0.823-19.626-0.468-29.339c-0.973-7.307-2.562-15.46-7.249-21.381c-9.161-11.573-26.729-13.644-40.358-15.062
			c-14.954-1.557-47.016-2.003-49.35-2.75c-3.925-1.256-10.008-14.285-11.276-16.848c-3.907-7.9-7.06-16.119-11.156-23.932
			c-7.07-13.486-15.888-25.979-23.349-39.244c-5.797-10.308-11.505-21.118-24.759-21.682c-0.286-0.013-0.549,0.01-0.803,0.045
			c-15.566-2.258-31.293-1.087-46.975-0.837c-0.14,0.002-0.278,0.003-0.419,0.006c-0.079-0.463-0.234-0.938-0.521-1.421
			c-2.449-4.125-5.062-7.234-8.859-9.473c3.67-14.1,1.271-31.01-15.922-33.15c-8.013-0.997-15.469,2.361-19.375,9.434
			c-4.091,7.408-3.984,16.65-5.155,24.812c-0.021,0.156-0.014,0.302-0.021,0.453c-0.115,0.053-0.236,0.092-0.353,0.148
			c-4.432,2.156-7.345,6.131-9.957,10.177c-33.518,0.546-72.684,6.409-87.396,41.159c-5.719,13.505-9.219,27.879-14.482,41.566
			c-3.611,9.395-10.323,28.366-22.602,29.226c-0.146,0.011-0.271,0.048-0.408,0.069c-30.139,0.735-67.595-4.07-87.95,22.952
			c-4.342,5.765-7.729,12.291-10.53,19.072c-9.253,1.755-17.648,7.555-21.356,16.475c-4.258,10.24,0.677,19.622,9.544,24.809
			c-0.773,4.165-1.446,8.347-2.015,12.54c-6.258,0.659-12.084,3.903-15.429,10.252c-3.353,6.363-2.672,15.045-1.984,21.924
			c0.646,6.449,1.608,14.592,5.675,19.927c0.701,0.92,1.604,1.421,2.542,1.604c9.023,7.312,26.723,9.655,32.485-0.176
			c0.469-0.802,0.874-1.647,1.229-2.528c0.366,0.076,0.756,0.12,1.198,0.081c7.132-0.621,15.12-0.643,21.597-4.08
			c5.574-2.96,8.403-9.505,10.997-14.884c9.41-19.522,19.193-38.656,39.835-48.145c8.755-4.025,19.546-6.612,29.127-4.588
			c7.664,1.621,13.686,6.881,18.198,13.056c4.231,5.786,7.5,12.153,10.473,18.694c-0.135,1.456,0.39,2.892,1.59,3.569
			c3.056,6.978,5.914,14.065,9.355,20.788c-0.218,2.138,1.052,4.503,3.828,4.588c29.68,0.908,58.562-3.83,87.915-7.221
			c14.032-1.621,28.211-0.049,42.286-0.674c13.6-0.604,27.085-6.032,40.735-3.249c2.12,0.434,3.718-0.689,4.491-2.206
			c1.443-0.46,2.604-1.672,2.572-3.65c-0.478-30.814,30.581-56.661,60-58c13.795-0.628,25.736,4.137,33.7,15.554
			c7.354,10.544,11.698,22.92,18.465,33.844c0.472,1.999,2.297,3.856,4.897,3.46c10.632-1.621,21.263,1.854,31.938,1.144
			c0.397-0.026,0.755-0.112,1.091-0.226c1.55-0.059,3.091-0.884,3.766-2.712c0.137-0.365,0.262-0.735,0.395-1.104
			c6.37-0.15,13.954,0.353,18.245-5.131c4.165-5.322,4.042-14.066,4.505-20.495c0.13-1.803-1.324-3.352-2.938-3.856
			c-1.53-0.48-3.142-0.853-4.759-1.229c4.453,0.179,8.904,0.39,13.362,0.419C554.522,363.77,554.52,355.77,549.362,355.736z
			 M275.789,144.746c0.35-1.523,0.793-2.894,1.349-4.114c6.344,5.42,13.048,10.397,19.498,15.688
			c-5.506-0.378-11.172,1.112-16.607,1.75c-2.063,0.241-4.202,0.401-6.325,0.659C274.271,154.046,274.738,149.347,275.789,144.746z
			 M282.264,135.176c6.017,4.466,11.598,9.469,17.152,14.494c-0.048,0.773-0.122,1.547-0.219,2.316
			c-6.354-5.162-12.924-10.058-19.125-15.404C280.724,136.025,281.451,135.556,282.264,135.176z M298.934,142.525
			c-3.283-2.92-6.61-5.787-10.046-8.521C294.911,134.239,297.832,137.826,298.934,142.525z M268.431,168.209
			c3.264-1.861,7.982-1.761,11.598-2.14c5.238-0.549,10.356-1.816,15.646-1.817c4.807-0.001,8.062,2.552,10.597,6.008
			c-13.579,0.169-27.166,0.246-40.745,0.27C266.379,169.637,267.324,168.84,268.431,168.209z M28.357,334.4
			c-0.498,1.467-0.976,2.937-1.438,4.4c-1.877,0.108-3.751,0.263-5.627,0.373C23.255,337.145,25.733,335.519,28.357,334.4z
			 M17.786,344.672c0.432-1.218,1.044-2.361,1.791-3.428c2.24-0.089,4.477-0.261,6.714-0.402c-0.247,0.808-0.502,1.616-0.741,2.42
			c-2.583,0.5-5.176,0.951-7.766,1.417C17.784,344.678,17.785,344.675,17.786,344.672z M17.213,346.812
			c2.572-0.473,5.15-0.914,7.72-1.396c-0.205,0.728-0.418,1.451-0.617,2.182c-2.391,0.83-4.858,1.416-7.321,2.018
			C16.95,348.726,17.028,347.789,17.213,346.812z M17.285,351.594c2.156-0.539,4.311-1.063,6.427-1.724
			c-0.27,1.032-0.544,2.062-0.8,3.1c-1.449,0.523-2.897,1.05-4.332,1.611C17.989,353.658,17.557,352.66,17.285,351.594z
			 M19.848,356.22c0.831-0.319,1.666-0.628,2.503-0.932c-0.21,0.893-0.421,1.782-0.621,2.678
			C21.036,357.42,20.409,356.837,19.848,356.22z M16.504,387.354c-2.349,2.733-4.956,5.256-7.6,7.726
			C10.062,390.695,12.98,388.264,16.504,387.354z M8.351,398.321c3.874-3.607,7.772-7.236,11.062-11.376
			c0.502-0.019,1.008-0.02,1.518,0.013c-3.854,5.013-8.485,9.419-12.817,14.044C8.162,400.1,8.246,399.208,8.351,398.321z
			 M8.044,404.021c5.051-5.581,10.683-10.727,15.162-16.771c0.838,0.166,1.673,0.387,2.491,0.67
			c-4.921,7.762-11.919,13.946-17.382,21.309C8.15,407.505,8.056,405.761,8.044,404.021z M8.896,413.702
			c-0.083-0.506-0.154-1.021-0.227-1.534c5.669-8.312,13.554-14.934,18.904-23.484c0.832,0.392,1.639,0.839,2.401,1.345
			c-2.59,4.287-6.616,7.485-9.584,11.499c-3.789,5.123-7.556,10.248-10.904,15.661C9.27,416.001,9.078,414.825,8.896,413.702z
			 M11.149,423.05c-0.117-0.263-0.253-0.488-0.397-0.697c-0.252-0.743-0.466-1.506-0.657-2.274
			c3.303-5.577,7.065-10.831,10.916-16.045c3.275-4.436,7.689-8.096,10.573-12.806c0.7,0.589,1.352,1.225,1.933,1.912
			c-0.799,1.003-1.662,1.941-2.308,2.752c-1.753,2.194-3.52,4.354-5.165,6.633c-5.046,6.979-9.785,14.178-14.412,21.441
			C11.452,423.67,11.289,423.367,11.149,423.05z M12.942,425.637c4.769-7.485,9.667-14.883,14.828-22.104
			c1.783-2.495,4.877-5.394,7.132-8.433c0.548,0.979,0.938,2.04,1.224,3.144c-7.069,9.672-14.544,19.043-21.592,28.731
			C13.962,426.563,13.418,426.126,12.942,425.637z M19.118,429.302c-0.994-0.352-1.974-0.771-2.894-1.27
			c6.648-9.142,13.675-18.001,20.387-27.094c0.172,1.415,0.232,2.852,0.265,4.259c-1.796,2.187-3.671,4.317-5.352,6.6
			c-4.198,5.7-7.826,11.777-12.275,17.301C19.196,429.164,19.153,429.233,19.118,429.302z M35.409,425.461
			c-0.725,2.999-2.366,4.372-4.542,4.928c1.355-1.996,3-3.789,4.678-5.543C35.498,425.05,35.459,425.257,35.409,425.461z
			 M36.225,421.233c-2.81,2.995-5.854,5.898-7.917,9.474c-0.541,0.015-1.098,0.006-1.671-0.021c3.064-4.564,6.632-8.75,10.02-13.071
			C36.55,418.826,36.404,420.033,36.225,421.233z M36.884,414.049c-4.124,5.524-8.767,10.654-12.532,16.447
			c-1.029-0.113-2.117-0.3-3.228-0.585c3.604-4.547,6.787-9.383,10.061-14.171c1.752-2.562,3.765-4.946,5.75-7.348
			C36.972,410.27,36.957,412.161,36.884,414.049z M44.401,422.017c0.12-0.981,0.21-1.971,0.279-2.954
			c0.809,0.928,1.605,1.864,2.4,2.804C46.147,421.912,45.244,421.957,44.401,422.017z M49.595,421.736
			c-1.58-1.842-3.129-3.709-4.768-5.499c0.056-1.488,0.076-2.929,0.096-4.326c2.023,3.417,4.372,6.832,7.13,9.638
			C51.229,421.626,50.405,421.687,49.595,421.736z M54.571,421.239c-3.975-3.575-7.083-8.67-9.615-13.312
			c-0.004-1.873-0.05-3.771-0.206-5.655c0.295,0.028,0.59,0.057,0.884,0.086c2.454,3.83,4.92,7.651,7.497,11.401
			c0.908,1.323,2.646,4.519,4.599,6.784C56.712,420.838,55.654,421.069,54.571,421.239z M59.922,419.754
			c-0.797-0.96-1.576-2.17-1.84-2.513c-1.729-2.256-3.325-4.617-4.916-6.973c-1.708-2.53-3.36-5.097-5.006-7.666
			c1.349,0.128,2.696,0.244,4.045,0.361c3.118,5.307,5.948,10.826,9.941,15.509C61.464,418.972,60.719,419.398,59.922,419.754z
			 M63.819,416.932c-0.06,0.069-0.129,0.13-0.189,0.197c-3.597-4.22-6.219-9.146-8.988-13.956c1.242,0.103,2.484,0.195,3.729,0.283
			c2.672,3.538,4.442,7.699,7.204,11.155C65.018,415.415,64.44,416.195,63.819,416.932z M66.719,412.863
			c-2.212-2.872-3.808-6.205-5.82-9.241c1.231,0.077,2.464,0.136,3.695,0.196c1.35,1.96,2.598,3.982,3.827,6.019
			C67.879,410.868,67.32,411.886,66.719,412.863z M69.483,407.733c-0.781-1.285-1.588-2.554-2.417-3.81
			c1.374,0.052,2.748,0.101,4.125,0.12C70.642,405.286,70.072,406.517,69.483,407.733z M192.141,411.139
			c-2.301-4.409-4.346-8.966-6.349-13.547c1.78,3.125,3.61,6.222,5.482,9.297c0.681,1.115,2.258,2.749,3.448,4.272
			C193.862,411.155,193.001,411.155,192.141,411.139z M197.042,411.185c-1.006-1.507-2.416-2.979-3.231-4.136
			c-3.075-4.355-5.706-9.12-8.235-13.859c0.536-0.054,1.073-0.099,1.609-0.149c2.926,6.608,7.539,12.119,11.378,18.137
			C198.057,411.177,197.55,411.186,197.042,411.185z M200.9,411.163c-3.813-6.142-8.591-11.671-11.627-18.315
			c0.708-0.063,1.416-0.116,2.124-0.177c3.909,6.005,6.987,12.576,11.066,18.467C201.942,411.144,201.422,411.158,200.9,411.163z
			 M204.882,411.095c-4.279-5.83-7.371-12.497-11.234-18.611c0.623-0.049,1.246-0.088,1.87-0.134
			c4.353,5.964,7.673,12.593,11.866,18.659C206.55,411.036,205.716,411.077,204.882,411.095z M209.778,410.929
			c-4.311-6.033-7.647-12.692-11.929-18.746c0.805-0.056,1.608-0.101,2.414-0.149c2.192,3.496,4.439,6.96,6.67,10.434
			c1.667,2.599,4.054,5.521,5.546,8.339C211.578,410.845,210.679,410.896,209.778,410.929z M214.639,410.707
			c-1.436-2.947-3.732-5.749-5.46-8.44c-2.216-3.454-4.447-6.9-6.639-10.372c0.942-0.055,1.886-0.099,2.827-0.146
			c3.99,6.293,7.107,13.157,11.991,18.805C216.451,410.604,215.546,410.662,214.639,410.707z M220.496,410.367
			c-0.005-0.028-0.017-0.055-0.021-0.083c-0.144-0.676-0.756-0.824-1.26-0.635c-4.782-5.354-7.82-11.921-11.567-18.019
			c1.156-0.054,2.313-0.099,3.471-0.145c4.39,6.374,9.048,12.544,13.942,18.539C223.54,410.142,222.02,410.268,220.496,410.367z
			 M227.476,409.845c-4.917-5.963-9.585-12.105-13.993-18.447c0.956-0.034,1.912-0.062,2.868-0.09
			c4.783,5.888,8.988,12.209,13.463,18.333C229.033,409.709,228.256,409.781,227.476,409.845z M232.128,409.434
			c-4.461-6.047-8.627-12.31-13.286-18.199c0.495-0.014,0.989-0.022,1.484-0.035c4.76,5.915,8.975,12.252,13.908,18.026
			C233.533,409.296,232.83,409.369,232.128,409.434z M236.648,408.977c-4.995-5.645-9.198-11.91-13.841-17.835
			c1.679-0.035,3.355-0.063,5.035-0.088c2.342,3.68,4.463,7.514,6.83,11.171c1.326,2.052,2.808,4.434,4.593,6.44
			C238.394,408.77,237.521,408.882,236.648,408.977z M241.624,408.386c-2.725-2.555-4.787-6.462-6.549-9.236
			c-1.693-2.671-3.268-5.428-4.928-8.126c1.431-0.019,2.861-0.031,4.292-0.043c3.944,5.492,7.015,11.58,11.259,16.862
			C244.341,408.031,242.982,408.214,241.624,408.386z M247.996,407.525c-4.352-5.082-7.418-11.055-11.172-16.561
			c0.674-0.005,1.349-0.007,2.021-0.011c4.154,5.28,7.667,11.064,12.035,16.156C249.92,407.25,248.958,407.389,247.996,407.525z
			 M253.231,406.771c-4.42-4.896-7.912-10.56-11.891-15.827c1.244-0.004,2.49-0.007,3.736-0.009
			c3.168,5.527,6.719,10.906,11.249,15.384C255.295,406.468,254.264,406.621,253.231,406.771z M258.848,405.956
			c-4.66-4.299-8.264-9.556-11.455-15.021c0.994-0.001,1.989-0.001,2.982-0.001c3.852,4.884,7.421,9.988,11.603,14.587
			C260.934,405.665,259.891,405.806,258.848,405.956z M264.393,405.184c-4.21-4.433-7.758-9.416-11.493-14.252
			c1.853,0.001,3.706,0.001,5.559,0.002c3.44,4.454,6.263,9.358,9.778,13.756C266.953,404.848,265.673,405.012,264.393,405.184z
			 M270.608,404.415c-3.588-4.227-6.417-9.016-9.688-13.48c1.229-0.001,2.455-0.004,3.684-0.007
			c3.157,4.408,5.941,9.073,9.559,13.115C272.978,404.162,271.792,404.279,270.608,404.415z M280.414,403.509
			c-1.238,0.08-2.479,0.188-3.717,0.298c-3.765-3.884-6.586-8.471-9.666-12.884c1.805-0.005,3.609-0.014,5.413-0.023
			c2.807,4.218,5.243,8.73,8.486,12.583C280.759,403.493,280.587,403.499,280.414,403.509z M283.49,403.357
			c-3.449-3.696-5.969-8.188-8.719-12.478c1.401-0.012,2.802-0.027,4.203-0.045c2.497,4.149,4.709,8.67,7.729,12.442
			C285.632,403.293,284.561,403.317,283.49,403.357z M289.327,403.257c-3.271-3.624-5.561-8.185-8.049-12.451
			c0.93-0.014,1.859-0.032,2.789-0.05c2.942,4.221,5.853,8.461,8.995,12.531C291.816,403.27,290.571,403.256,289.327,403.257z
			 M295.616,403.334c-3.234-4.07-6.183-8.352-9.15-12.62c1.207-0.023,2.413-0.056,3.619-0.087c3.039,4.163,5.99,8.382,8.685,12.777
			C297.718,403.38,296.667,403.356,295.616,403.334z M301.146,403.458c-2.66-4.449-5.604-8.706-8.646-12.897
			c1.657-0.05,3.314-0.106,4.971-0.169c2.433,4.49,4.806,9.021,7.79,13.144C303.89,403.515,302.518,403.49,301.146,403.458z
			 M307.767,403.559c-3.179-4.097-5.615-8.69-8.073-13.261c1.633-0.067,3.265-0.146,4.896-0.231
			c2.878,4.418,5.595,8.938,8.34,13.439C311.21,403.547,309.489,403.568,307.767,403.559z M315.241,403.443
			c-2.765-4.513-5.484-9.052-8.351-13.501c1.042-0.06,2.081-0.136,3.122-0.202c3.69,3.978,6.156,8.805,8.828,13.502
			C317.644,403.329,316.442,403.394,315.241,403.443z M322.396,402.917c-0.457,0.052-0.915,0.082-1.373,0.126
			c-2.675-4.604-5.069-9.388-8.489-13.467c1.51-0.105,3.018-0.229,4.525-0.354c2.896,4.375,5.369,9.025,8.4,13.307
			C324.441,402.668,323.42,402.802,322.396,402.917z M327.653,402.214c-3.11-4.17-5.564-8.785-8.362-13.175
			c0.893-0.078,1.782-0.17,2.674-0.255c2.529,4.535,5.218,8.982,8.507,12.989C329.532,401.924,328.594,402.074,327.653,402.214z
			 M332.759,401.403c-3.377-3.914-6.092-8.317-8.624-12.825c1.479-0.148,2.955-0.312,4.432-0.48
			c2.389,4.27,4.604,8.635,7.123,12.829C334.713,401.083,333.736,401.243,332.759,401.403z M337.825,400.59
			c-2.541-4.154-4.755-8.494-7.112-12.755c0.629-0.077,1.257-0.162,1.887-0.243c0.893,2.163,1.798,4.319,2.766,6.45
			c0.938,2.069,1.951,4.414,3.309,6.423C338.391,400.508,338.107,400.546,337.825,400.59z M340.918,400.145
			c-1.434-1.854-2.428-4.17-3.397-6.192c-1.042-2.172-1.979-4.392-2.895-6.621c1.035-0.14,2.07-0.287,3.104-0.438
			c1.849,4.394,3.816,8.728,6.124,12.893C342.875,399.895,341.896,400.012,340.918,400.145z M346.028,399.573
			c-2.376-4.186-4.395-8.55-6.271-12.986c0.837-0.128,1.674-0.274,2.51-0.411c1.835,4.484,3.688,9.193,6.406,13.216
			C347.791,399.437,346.909,399.496,346.028,399.573z M351.063,399.305c-2.971-3.977-4.921-8.838-6.796-13.459
			c0.932-0.158,1.86-0.331,2.792-0.5c2.431,4.639,4.368,9.555,7.109,13.995C353.132,399.304,352.097,399.288,351.063,399.305z
			 M358.73,399.715c-0.709-0.094-1.417-0.167-2.124-0.229c-3.044-4.5-5.027-9.661-7.494-14.515c0.75-0.144,1.497-0.31,2.246-0.458
			c2.579,4.806,5.304,9.554,7.404,14.583C358.754,399.302,358.737,399.508,358.73,399.715z M359.097,394.962
			c-1.758-3.688-3.755-7.264-5.693-10.863c1.151-0.239,2.301-0.491,3.451-0.744c1.09,2.053,2.158,4.117,3.209,6.189
			C359.658,391.332,359.319,393.136,359.097,394.962z M360.812,386.624c-0.64-1.247-1.288-2.487-1.942-3.727
			c1.139-0.263,2.276-0.524,3.412-0.812C361.722,383.577,361.246,385.093,360.812,386.624z M485.397,388.818
			c-2.967-4.873-5.492-10.03-8.033-15.177c0.96,0.111,1.92,0.212,2.88,0.315c1.792,5.019,3.61,10.04,5.935,14.824
			C485.917,388.794,485.657,388.802,485.397,388.818z M488.38,388.718c-2.346-4.672-4.167-9.589-5.931-14.52
			c0.722,0.074,1.445,0.126,2.167,0.196c1.844,4.121,3.845,8.192,5.502,12.367c0.271,0.685,0.619,1.345,0.985,2.001
			C490.196,388.734,489.289,388.711,488.38,388.718z M493.463,388.878c-0.447-0.807-0.905-1.604-1.296-2.403
			c-1.907-3.905-3.664-7.882-5.364-11.88c0.987,0.089,1.978,0.155,2.966,0.236c1.976,4.729,3.821,9.508,5.875,14.202
			C494.916,388.977,494.189,388.922,493.463,388.878z M497.903,389.224c-2.094-4.687-3.958-9.47-5.918-14.215
			c0.979,0.075,1.961,0.134,2.94,0.201c1.935,4.817,3.849,9.64,6.118,14.305C499.998,389.417,498.95,389.318,497.903,389.224z
			 M503.368,389.726c-2.352-4.667-4.292-9.515-6.238-14.364c0.931,0.059,1.86,0.104,2.791,0.158
			c1.81,4.815,3.337,9.739,5.531,14.375C504.757,389.842,504.062,389.788,503.368,389.726z M507.763,390.045
			c-2.318-4.608-3.872-9.551-5.663-14.401c0.894,0.045,1.788,0.066,2.682,0.104c1.271,3.701,2.395,7.453,3.744,11.13
			c0.284,0.773,0.644,1.979,1.105,3.242C509.009,390.097,508.386,390.081,507.763,390.045z M513.854,390.157
			c-0.746,0.022-1.489,0.014-2.233,0.008c-0.992-2.396-1.73-5.367-2.104-6.426c-0.92-2.616-1.72-5.275-2.597-7.907
			c0.791,0.029,1.582,0.048,2.373,0.072c1.684,4.089,3.344,8.186,5.253,12.172C514.318,388.77,514.095,389.466,513.854,390.157z
			 M515.442,385.288c-1.407-3.069-2.694-6.191-3.979-9.316c0.777,0.021,1.558,0.021,2.335,0.036
			c0.905,1.996,1.769,4.012,2.602,6.038C516.087,383.128,515.775,384.212,515.442,385.288z M517.263,378.947
			c-0.412-0.973-0.842-1.939-1.271-2.904c0.568,0.006,1.136,0.025,1.704,0.026c0.121,0.001,0.225-0.024,0.341-0.032
			C517.792,377.011,517.524,377.977,517.263,378.947z M523.497,341.161c-0.068,0.944-0.154,1.892-0.238,2.837
			c-1.57-0.938-3.14-1.88-4.726-2.792c-1.12-0.644-2.127,1.085-1.01,1.728c1.854,1.065,3.686,2.175,5.525,3.266
			c-0.08,0.802-0.156,1.604-0.245,2.404c-1.562-0.979-3.101-1.992-4.604-3.062c-1.054-0.75-2.051,0.985-1.01,1.728
			c1.745,1.242,3.531,2.415,5.358,3.525c-0.103,0.864-0.188,1.729-0.303,2.592c-1.644-1.175-3.374-2.194-5.286-2.945
			c-1.202-0.472-1.718,1.464-0.531,1.929c2.005,0.786,3.81,1.943,5.506,3.249c-0.098,0.685-0.188,1.367-0.29,2.051
			c-1.445-1.088-2.964-2.079-4.444-3.127c-1.057-0.747-2.054,0.988-1.01,1.728c1.706,1.205,3.474,2.318,5.09,3.636
			c-0.164,1.01-0.317,2.021-0.495,3.03c-1.515-1.113-2.822-2.443-4.05-3.903c-0.83-0.989-2.237,0.435-1.414,1.414
			c1.495,1.779,3.145,3.358,5.074,4.631c-0.138,0.729-0.253,1.46-0.398,2.188c-1.348-1.059-2.708-2.099-4.13-3.057
			c-1.073-0.723-2.073,1.012-1.01,1.728c1.012,0.682,1.99,1.405,2.957,2.146c-0.041-0.002-0.077-0.009-0.119-0.009
			c-14.95-0.043-29.845-1.04-44.669-2.959c-2.407-4.497-5.026-8.855-8.188-12.869c-9.947-12.627-24.918-17.121-40.62-16.028
			c-22.927,1.595-46.044,16.477-57.719,36.924c-0.562-0.114-1.186-0.11-1.868,0.077c-60.098,16.455-122.893,5.412-184.067,12.522
			c-3.07-6.685-6.443-13.197-10.798-19.153c-4.569-6.249-10.416-11.613-17.711-14.449c-9.047-3.518-18.797-2.736-28.019-0.32
			c-22.369,5.861-37.229,21.516-47.854,41.376c-0.573,1.072-1.119,2.187-1.65,3.322c-0.518-0.269-1.123-0.438-1.839-0.441
			c-9.899-0.062-19.739-0.978-29.581-1.958c-0.479-1.346-1.071-2.649-1.821-3.888c-3.386-5.596-9.178-9.336-15.384-10.744
			c3.021-22.738,8.85-47.18,21.386-66.553c17.769-27.455,57.477-20.862,85.4-21.857c0.911-0.032,1.653-0.318,2.242-0.753
			c10.704-3.07,17.189-14.421,21.712-24.021c6.611-14.036,10.687-29.08,15.729-43.706c5.68-16.47,17.211-29.269,33.432-36.036
			c17.213-7.182,36.527-7.468,54.886-7.483c0.804-0.001,1.468-0.212,2.021-0.54c16.483-0.041,32.966-0.359,49.449-0.373
			c17.116-0.014,34.478-1.963,51.453,1.008c0.613,0.107,1.182,0.083,1.701-0.036c5.308,0.938,8.732,4.933,11.612,9.492
			c3.904,6.183,7.138,12.818,10.949,19.073c7.541,12.373,15.624,24.475,21.523,37.757c3.476,7.826,6.771,15.724,11.195,23.08
			c2.757,4.582,7.73,11.985,13.904,11.537c13.697,2.259,27.824,1.757,41.642,2.697c13.146,0.895,31.234,1.747,40.918,12.054
			c0.013,0.014,0.022,0.028,0.035,0.041c-0.858-0.432-1.719-0.864-2.567-1.319c-1.137-0.608-2.146,1.117-1.01,1.728
			c1.965,1.052,4.009,1.979,5.962,3.054c0.687,1.328,1.241,2.771,1.698,4.266c-1.11-0.56-2.229-1.104-3.316-1.713
			c-1.127-0.631-2.136,1.098-1.01,1.728c1.652,0.924,3.375,1.712,5.033,2.615c0.353,1.521,0.634,3.061,0.857,4.558
			c-1.221-0.674-2.401-1.423-3.549-2.232c-1.058-0.746-2.055,0.989-1.01,1.728c1.563,1.104,3.19,2.068,4.891,2.907
			c0.091,0.716,0.176,1.416,0.255,2.086c0.117,0.981,0.211,1.968,0.295,2.954c-1.718-0.972-3.444-1.929-5.098-3.009
			c-1.083-0.708-2.084,1.024-1.011,1.728c2.035,1.33,4.182,2.472,6.283,3.685c0.071,1.163,0.13,2.327,0.167,3.493
			c-1.521-0.652-3.012-1.368-4.439-2.237c-1.104-0.673-2.109,1.058-1.011,1.728c1.764,1.073,3.619,1.925,5.516,2.699
			c0.019,1.239,0.02,2.481,0.005,3.724c-1.854-1.132-3.752-2.198-5.51-3.482c-1.043-0.763-2.039,0.975-1.011,1.728
			c2.064,1.508,4.32,2.713,6.474,4.08c-0.026,0.996-0.06,1.991-0.103,2.984c-1.856-1.023-3.567-2.317-5.36-3.459
			c-1.092-0.694-2.095,1.036-1.011,1.728c2.094,1.331,4.065,2.806,6.266,3.91c-0.03,0.556-0.059,1.111-0.092,1.667
			c-1.404-0.854-2.816-1.693-4.163-2.638c-1.061-0.741-2.058,0.992-1.011,1.728c1.623,1.137,3.34,2.124,5.022,3.164
			C523.528,340.674,523.515,340.918,523.497,341.161z M523.552,386.12c0.351-1.164,0.68-2.336,1.004-3.509
			c2.533,0.865,5.132,1.452,7.774,1.768C530.308,386.106,526.711,386.191,523.552,386.12z M533.716,382.208
			c-0.028,0.104-0.072,0.195-0.107,0.294c-2.912-0.262-5.756-0.873-8.534-1.823c0.125-0.477,0.232-0.956,0.354-1.434
			c2.803,0.815,5.642,1.5,8.467,2.232C533.831,381.721,533.784,381.966,533.716,382.208z M534.37,379.535
			c-2.824-0.729-5.661-1.414-8.462-2.23c0.207-0.849,0.402-1.699,0.601-2.551c2.759,0.878,5.564,1.613,8.252,2.663
			C534.645,378.125,534.517,378.832,534.37,379.535z M535.051,375.401c-2.646-0.993-5.39-1.732-8.093-2.603
			c0.266-1.188,0.521-2.378,0.758-3.572c2.529,0.862,5.156,1.466,7.751,2.142C535.354,372.717,535.222,374.061,535.051,375.401z"/>
		<path fill="#98f698" d="M252.988,187.836c-4.712,0.205-9.396,0.852-14.086,1.328c-5.734,0.581-11.521,0.463-17.268,0.941
			c-14.389,1.197-26.031,7.392-33.897,19.525c-6.401,9.876-11.915,20.404-16.979,31.016c-3.891,8.147-23.293,48.549-4.514,51.334
			c3.759,1.656,7.954,2.334,11.97,2.961c6.676,1.042,13.425,1.584,20.177,1.751c13.438,0.332,26.146-3.493,39.424-4.046
			c9.735-0.405,20.818,0.067,29.337-5.438c8.964-5.792,9.918-18.509,10.067-28.106c0.086-5.56-0.331-11.118-0.491-16.672
			c-0.149-5.161,0.8-10.35,1.419-15.459c1.211-9.986,2.967-21.438-1.332-30.92C273.011,187.656,260.63,187.504,252.988,187.836z
			 M249.917,196.015c-24.967,16.932-47.201,37.928-73.928,52.095c1.75-3.882,3.615-7.718,5.571-11.508
			c0.2-0.11,0.396-0.245,0.589-0.412c16.623-14.552,34.5-27.749,53.607-38.866C240.477,196.965,245.196,196.362,249.917,196.015z
			 M198.594,208.355c6.479-7.321,15.308-9.496,24.433-10.308c-11.655,7.365-22.844,15.482-33.555,24.173
			c0.576-0.991,1.147-1.985,1.729-2.969C193.595,215.213,196.161,211.102,198.594,208.355z M167.238,282.239
			c-0.342-0.521-0.681-1.044-1.016-1.568c-0.044-0.606-0.064-1.231-0.051-1.783c0.011-0.467,0.056-0.937,0.093-1.403
			c0.991,1.587,1.988,3.17,3.028,4.725C168.602,282.245,167.916,282.25,167.238,282.239z M171.579,282.004
			c-1.678-2.451-3.246-4.979-4.82-7.499c0.315-0.157,0.634-0.311,0.949-0.468c1.613,2.641,3.236,5.269,5.023,7.791
			C172.349,281.888,171.963,281.956,171.579,282.004z M174.897,281.428c-1.949-2.655-3.678-5.461-5.39-8.276
			c0.392-0.189,0.785-0.375,1.179-0.562c1.678,2.885,3.123,5.903,5.021,8.651C175.438,281.304,175.167,281.371,174.897,281.428z
			 M177.783,280.718c-2.038-2.828-3.543-5.974-5.283-8.986c0.226-0.104,0.454-0.2,0.681-0.305c1.689,3.085,3.257,6.255,5.372,9.06
			C178.295,280.561,178.041,280.646,177.783,280.718z M180.587,279.855c-2.27-2.803-3.859-6.082-5.577-9.248
			c0.437-0.192,0.877-0.377,1.314-0.566c1.868,3.152,3.696,6.33,5.932,9.231C181.705,279.472,181.149,279.668,180.587,279.855z
			 M195.408,271.394c-0.062,0.165-0.124,0.321-0.188,0.441c-0.294,0.555-0.709,1.06-1.198,1.527
			c-1.849-2.505-3.528-5.126-5.222-7.738c0.882-0.182,1.742-0.299,2.558-0.334C192.777,267.281,194.166,269.291,195.408,271.394z
			 M194.01,265.589c0.485,0.167,0.92,0.403,1.28,0.728c0.464,0.416,0.63,1.216,0.634,2.093
			C195.305,267.457,194.664,266.518,194.01,265.589z M192.459,274.582c-0.267,0.175-0.538,0.346-0.818,0.508
			c-2.077-2.838-4.038-5.756-6.128-8.583c0.407-0.13,0.819-0.255,1.234-0.374C188.61,268.98,190.442,271.843,192.459,274.582z
			 M189.861,276.025c-0.796,0.381-1.581,0.728-2.288,1.041c-2.04-3.025-3.864-6.188-6.017-9.131c0.597-0.232,1.271-0.49,1.983-0.751
			C185.717,270.081,187.726,273.097,189.861,276.025z M185.721,277.89c-0.498,0.214-1.005,0.426-1.522,0.634
			c-2.305-2.877-4.138-6.089-6.011-9.262c0.485-0.198,0.972-0.392,1.459-0.581C181.864,271.617,183.679,274.83,185.721,277.89z
			 M187.361,288.069c-1.541-0.132-3.187-0.257-4.871-0.419c3.717-1.24,7.281-2.778,10.442-4.313
			c7.367-3.582,14.387-11.844,9.637-20.453c-5.788-10.49-21.964-4.148-33.018,1.246c0.434-1.211,0.875-2.408,1.308-3.58
			c0.486-1.318,1.007-2.627,1.525-3.936c32.685-15.42,58.192-41.746,88.648-60.684c0.139,0.012,0.276,0.018,0.414,0.029
			c4.109,0.359,7.818,1.77,9.083,5.924c1.593,5.235,0.917,11.326,0.497,16.687c-0.481,6.164-1.423,12.282-2.072,18.429
			c-0.551,5.205-0.075,10.491,0.15,15.726c-12.942,10.247-25.551,20.897-37.865,31.892c-0.204,0.184-0.364,0.374-0.5,0.57
			c-6.145,0.771-12.179,2.276-18.357,2.945C204.066,289.031,195.68,288.782,187.361,288.069z M267.034,274.582
			c-2.104,6.225-7.727,8.047-13.64,9.07c-4.284,0.742-8.693,0.837-13.071,0.943c9.448-8.312,19.071-16.421,28.885-24.301
			C269.11,265.138,268.599,269.957,267.034,274.582z"/>
		<path fill="#98f698" d="M401.558,266.652c2.061-7.755-3.531-16.805-6.812-23.404c-6.75-13.584-13.281-27.187-21.288-40.098
			c-5.371-8.66-11.569-16.656-21.665-19.748c-8.69-2.663-18.664-1.393-27.641-1.416c-9.064-0.023-19.614,0.082-27.591,4.96
			c-7.973,4.875-7.895,15.984-7.597,24.175c0.351,9.598,2.558,19.152,2.38,28.76c-0.155,8.52-0.815,16.98,0.04,25.49
			c0.653,6.491,2.422,15.895,9.491,18.199c0.231,0.135,0.479,0.258,0.754,0.356c11.293,4.028,23.703-0.224,35.18-1.104
			c14.912-1.144,29.635-2.525,44.455-4.637C389.049,277.078,399.183,275.588,401.558,266.652z M340.497,189.939
			c-15.435,11.586-28.345,26.459-41.721,40.354c-0.278-2.785-0.598-5.564-0.896-8.348c8.945-11.603,19.08-24.031,32.329-30.62
			c0.797-0.396,1.236-0.977,1.419-1.612C334.608,189.735,337.574,189.813,340.497,189.939z M296.98,203.779
			c0.162-3.398,0.612-7.785,3.619-9.926c3.849-2.738,9.442-3.174,13.986-3.553c2.032-0.17,4.098-0.293,6.177-0.389
			c-9.119,6.122-16.753,14.683-23.649,23.349C296.917,210.11,296.829,206.953,296.98,203.779z M325.774,276.187
			c-6.417,0.951-13.314,2.216-19.728,0.691c-0.426-0.314-0.959-0.551-1.623-0.666c-6.165-1.076-5.439-15.133-5.511-19.567
			c-0.098-6.099,0.492-12.206,0.396-18.3c15.961-16.197,30.874-34.515,49.896-47.231c7.772,2.431,12.677,8.683,17.346,16.073
			c7.612,12.052,13.729,24.865,20.051,37.604c-7.148,9.945-14.91,19.927-24.754,27.355c-0.284,0.214-0.5,0.459-0.685,0.717
			c-4.727,0.553-9.461,1.037-14.207,1.41C339.841,274.835,332.847,275.139,325.774,276.187z M371.78,271.502
			c6.694-6.239,12.477-13.406,17.904-20.797c2.844,5.248,6.779,13.308,2.353,16.424c-4.889,3.443-12.716,3.324-18.38,4.119
			C373.032,271.336,372.405,271.416,371.78,271.502z"/>
		<path fill="#98f698" d="M208.298,148.593c14.761,4.761,30.318,6.083,45.729,6.81c5.159,0.244,5.136-7.758,0-8
			c-14.739-0.694-29.487-1.971-43.604-6.523C205.5,139.291,203.408,147.015,208.298,148.593z"/>
		<path fill="#98f698" d="M254.676,130.189c4.519,2.498,8.553-4.411,4.038-6.907c-11.911-6.586-20.748-17.522-29.856-27.375
			c-3.51-3.796-9.153,1.876-5.657,5.657C232.784,111.931,242.141,123.26,254.676,130.189z"/>
		<path fill="#98f698" d="M269.241,116.088c3.059,4.072,10.009,0.092,6.908-4.037c-7.018-9.344-9.437-21.066-16-30.667
			c-2.893-4.229-9.829-0.233-6.908,4.038C259.806,95.022,262.224,106.744,269.241,116.088z"/>
		<path fill="#98f698" d="M292.552,114.467c2.644-10.912,6.465-21.423,10.932-31.712c2.032-4.682-4.857-8.759-6.907-4.038
			c-4.745,10.929-8.93,22.027-11.737,33.623C283.624,117.351,291.339,119.479,292.552,114.467z"/>
		<path fill="#98f698" d="M317.381,126.189c10.999-7.665,21.021-17.76,33.333-23.333c4.694-2.124,0.623-9.018-4.038-6.907
			c-12.312,5.572-22.333,15.668-33.333,23.333C309.144,122.209,313.136,129.147,317.381,126.189z"/>
		<path fill="#98f698" d="M321.759,142.593c12.38-4.114,25.105-8.325,38.271-8.523c5.154-0.077,5.162-8.077,0-8
			c-13.9,0.208-27.321,4.464-40.396,8.81C314.761,136.498,316.849,144.224,321.759,142.593z"/>
		<path fill="#98f698" d="M357.759,157.546c-10.146-2.749-20.636-3.406-31.062-2.144c-5.055,0.613-5.114,8.62,0,8
			c9.753-1.182,19.436-0.717,28.937,1.857C360.619,166.611,362.732,158.893,357.759,157.546z"/>
		<path fill="#98f698" d="M139.842,363.38c-10.562-1.916-22.556,2.106-31.688,7.228c-22.34,12.524-27.604,40.968-28.661,64.657
			c-0.125,0.435-0.186,0.917-0.131,1.472c0.015,0.151,0.036,0.299,0.053,0.449c-0.019,0.519-0.038,1.038-0.053,1.551
			c-0.025,0.904,0.207,1.64,0.595,2.227c3.575,19.556,18.165,33.817,38.726,35.484c19.537,1.585,41.485-8.369,51.509-25.39
			c11.989-20.361,6.003-47.15-4.857-66.563C159.797,374.597,151.432,365.482,139.842,363.38z M151.799,459.376
			c-16.927,11.725-44.304,13.923-57.699-4.092c-3.913-5.263-5.991-11.665-6.687-18.136c0.697-19.785,3.883-42.155,19.474-55.917
			c7.866-6.942,21.567-11.818,32.024-9.922c12.84,2.329,20.336,17.012,24.611,27.961
			C171.516,419.735,171.524,445.712,151.799,459.376z"/>
		<path fill="#98f698" d="M143.604,386.53c-7.063-3.307-14.75-2.284-21.661,0.812c-15.214,6.816-23.909,25.102-20.438,41.124
			c0.124,0.569,0.341,1.034,0.609,1.428c2.627,8.421,7.326,15.566,15.786,19.288c7.225,3.177,14.937,2.227,21.928-1.037
			c15.146-7.068,23.232-25.657,19.452-41.569C157.307,398.261,151.405,390.182,143.604,386.53z M150.985,406.904
			c-3.661,1.178-7.304,2.411-10.981,3.523c3.172-2.296,6.346-4.587,9.537-6.854C150.092,404.632,150.571,405.747,150.985,406.904z
			 M148.551,401.834c-3.718,2.641-7.417,5.302-11.107,7.978c-0.195-0.45-0.403-0.818-0.702-1.21
			c2.811-3.644,5.953-7.03,8.581-10.807C146.521,398.985,147.609,400.335,148.551,401.834z M139.983,394.029
			c1.366,0.628,2.653,1.449,3.854,2.424c-1.753,2.563-3.758,4.939-5.747,7.327C139.027,400.577,139.819,397.351,139.983,394.029z
			 M137.999,393.268c-0.096,4.752-1.534,9.366-2.95,13.972c-0.501-0.2-1.041-0.282-1.593-0.292
			c0.218-4.801-0.086-9.598-0.625-14.376C134.62,392.518,136.354,392.756,137.999,393.268z M130.853,392.763
			c0.539,4.834,0.838,9.688,0.592,14.543c-0.117,0.056-0.219,0.136-0.329,0.202c-2.047-4.257-3.554-8.771-5.477-13.096
			C127.401,393.566,129.146,393.026,130.853,392.763z M123.883,395.359c1.95,4.377,3.47,8.943,5.552,13.251
			c-0.052,0.026-0.11,0.04-0.16,0.069c-2.489-3.984-5.003-7.953-7.585-11.88C122.401,396.292,123.132,395.809,123.883,395.359z
			 M120.092,398.006c2.641,4.021,5.21,8.086,7.758,12.166c-0.142,0.266-0.234,0.542-0.309,0.823
			c-3.963-2.822-8.021-5.921-10.783-9.833C117.793,400.037,118.903,398.975,120.092,398.006z M115.413,402.714
			c2.866,3.886,6.907,6.996,10.891,9.843c-5.027-0.934-10.02-2.104-14.981-3.312C112.4,406.917,113.787,404.724,115.413,402.714z
			 M110.538,411.107c5.612,1.344,11.234,2.627,16.915,3.633c0.006,0.033,0.018,0.065,0.023,0.099
			c-0.438,0.144-0.873,0.292-1.311,0.438c-5.49-0.288-10.973-0.757-16.477-0.553c-0.108,0.004-0.194,0.039-0.284,0.067
			C109.699,413.54,110.077,412.309,110.538,411.107z M109.066,416.508c0.156,0.133,0.355,0.225,0.625,0.215
			c3.802-0.142,7.594,0.04,11.386,0.26c-4.104,1.396-8.209,2.79-12.392,3.938C108.688,419.434,108.822,417.96,109.066,416.508z
			 M109.219,425.672c-0.054-0.197-0.132-0.365-0.203-0.542c-0.12-0.721-0.198-1.439-0.255-2.158
			c5.979-1.614,11.799-3.734,17.676-5.684c0.225,0.012,0.449,0.021,0.673,0.03c-5.559,4.044-11.128,8.075-16.735,12.052
			C109.931,428.148,109.548,426.907,109.219,425.672z M112.698,432.767c-0.316,0-0.555,0.123-0.716,0.306
			c-0.302-0.588-0.589-1.186-0.852-1.795c5.525-3.917,11.014-7.889,16.491-11.873c-2.414,2.396-4.816,4.804-7.271,7.162
			c-1.351,1.297-2.821,2.479-4.262,3.672c-1.064,0.881-2.154,1.729-3.267,2.552C112.781,432.786,112.745,432.767,112.698,432.767z
			 M113.234,435.215c2.603-1.372,5.36-4.45,7.076-5.933c1.931-1.666,3.781-3.428,5.604-5.222c-3.468,4.812-6.642,9.9-10.043,14.463
			C114.866,437.536,114.005,436.413,113.234,435.215z M117.375,439.835c4.104-5.457,7.837-11.688,12.156-17.282
			c-2.315,6.761-4.664,13.653-9.253,19.021C119.227,441.089,118.256,440.511,117.375,439.835z M125.949,443.061
			c-1.23-0.114-2.464-0.361-3.688-0.733c3.87-4.783,6.151-10.615,8.221-16.5C128.973,431.572,127.254,437.261,125.949,443.061z
			 M127.985,443.134c1.635-7.008,3.911-13.851,5.524-20.858c0.926,6.175,1.06,12.431,1.872,18.635
			c0.021,0.173,0.084,0.316,0.166,0.442C133.133,442.468,130.576,443.082,127.985,443.134z M137.562,440.291
			c-0.078,0.047-0.158,0.087-0.237,0.133c-0.751-5.993-0.933-12.031-1.782-18c2.552,3.996,5.15,7.961,7.87,11.85
			c0.241,0.344,0.59,0.466,0.922,0.438C142.332,436.899,140.042,438.796,137.562,440.291z M145.288,433.611
			c-0.024-0.113-0.069-0.23-0.148-0.349c-0.251-0.376-0.501-0.753-0.752-1.129c-0.035-0.053-0.074-0.096-0.113-0.138
			c-3.031-4.391-5.935-8.863-8.781-13.373c0.087-0.013,0.181-0.018,0.267-0.029c0.802-0.125,1.586-0.75,2.103-1.421
			c3.681,3.748,7.299,7.558,10.854,11.425C147.729,430.368,146.588,432.056,145.288,433.611z M149.685,426.705
			c-2.717-2.947-5.479-5.852-8.271-8.729c3.307,1.459,6.583,2.98,9.942,4.313C150.918,423.796,150.357,425.274,149.685,426.705z
			 M151.845,420.343c-3.354-1.332-6.63-2.854-9.934-4.312c3.594,0.077,7.199,0.25,10.412,1.192
			C152.231,418.272,152.065,419.313,151.845,420.343z M138.625,414.177c-0.021-0.168-0.035-0.336-0.073-0.506
			c-0.036-0.165-0.078-0.333-0.114-0.499c0.046-0.072,0.062-0.147,0.083-0.224c4.394-1.26,8.718-2.742,13.072-4.142
			c0.583,2.122,0.845,4.276,0.828,6.425C148.004,414.125,143.198,414.392,138.625,414.177z"/>
		<path fill="#98f698" d="M432.394,351.823c-10.562-1.916-22.556,2.108-31.688,7.229c-22.34,12.524-27.604,40.968-28.661,64.656
			c-0.125,0.435-0.186,0.916-0.131,1.473c0.016,0.149,0.036,0.298,0.053,0.447c-0.019,0.52-0.037,1.038-0.053,1.553
			c-0.025,0.902,0.207,1.639,0.595,2.226c3.575,19.556,18.165,33.818,38.726,35.485c19.537,1.584,41.485-8.37,51.509-25.391
			c11.989-20.36,6.003-47.149-4.857-66.563C452.349,363.041,443.983,353.926,432.394,351.823z M444.351,447.82
			c-16.927,11.725-44.304,13.924-57.699-4.091c-3.913-5.264-5.991-11.666-6.687-18.138c0.697-19.783,3.883-42.153,19.474-55.916
			c7.865-6.942,21.567-11.818,32.024-9.921c12.84,2.328,20.336,17.012,24.611,27.959
			C464.067,408.177,464.076,434.156,444.351,447.82z"/>
		<path fill="#98f698" d="M436.156,374.974c-7.063-3.308-14.75-2.284-21.661,0.812c-15.214,6.816-23.909,25.102-20.438,41.124
			c0.124,0.569,0.341,1.035,0.609,1.428c2.627,8.42,7.326,15.567,15.786,19.287c7.226,3.178,14.937,2.228,21.928-1.037
			c15.146-7.067,23.232-25.655,19.452-41.568C449.858,386.706,443.957,378.625,436.156,374.974z M443.537,395.347
			c-3.661,1.179-7.304,2.411-10.981,3.522c3.172-2.294,6.346-4.585,9.537-6.852C442.644,393.076,443.123,394.191,443.537,395.347z
			 M441.103,390.279c-3.718,2.639-7.417,5.301-11.107,7.977c-0.195-0.45-0.403-0.818-0.702-1.21
			c2.811-3.643,5.953-7.03,8.581-10.806C439.072,387.429,440.161,388.78,441.103,390.279z M432.535,382.472
			c1.366,0.628,2.653,1.449,3.854,2.425c-1.753,2.562-3.758,4.938-5.747,7.327C431.579,389.021,432.371,385.795,432.535,382.472z
			 M430.552,381.712c-0.096,4.752-1.534,9.367-2.95,13.972c-0.501-0.199-1.041-0.281-1.593-0.292
			c0.218-4.801-0.086-9.599-0.625-14.375C427.173,380.961,428.906,381.201,430.552,381.712z M423.404,381.208
			c0.539,4.834,0.838,9.688,0.592,14.543c-0.117,0.057-0.219,0.136-0.329,0.203c-2.047-4.258-3.554-8.771-5.477-13.097
			C419.953,382.011,421.698,381.47,423.404,381.208z M416.435,383.802c1.95,4.379,3.47,8.945,5.552,13.252
			c-0.052,0.026-0.11,0.041-0.16,0.069c-2.489-3.983-5.003-7.954-7.585-11.879C414.953,384.736,415.684,384.252,416.435,383.802z
			 M412.644,386.45c2.641,4.021,5.21,8.086,7.758,12.167c-0.142,0.265-0.234,0.542-0.309,0.823
			c-3.963-2.823-8.021-5.921-10.783-9.834C410.345,388.481,411.455,387.418,412.644,386.45z M407.966,391.159
			c2.866,3.884,6.907,6.995,10.891,9.842c-5.027-0.933-10.02-2.104-14.981-3.311C404.952,395.36,406.34,393.167,407.966,391.159z
			 M403.091,399.55c5.612,1.345,11.234,2.628,16.915,3.634c0.007,0.033,0.018,0.065,0.023,0.1c-0.438,0.142-0.873,0.292-1.31,0.438
			c-5.491-0.288-10.974-0.758-16.478-0.554c-0.108,0.004-0.194,0.039-0.284,0.068C402.252,401.983,402.63,400.752,403.091,399.55z
			 M401.618,404.953c0.156,0.132,0.355,0.225,0.625,0.214c3.802-0.141,7.594,0.04,11.386,0.261
			c-4.104,1.396-8.209,2.789-12.392,3.938C401.239,407.878,401.374,406.405,401.618,404.953z M401.771,414.117
			c-0.054-0.198-0.132-0.366-0.203-0.542c-0.12-0.721-0.198-1.44-0.255-2.16c5.979-1.612,11.799-3.733,17.676-5.682
			c0.225,0.012,0.449,0.019,0.673,0.03c-5.559,4.044-11.128,8.073-16.735,12.052C402.482,416.592,402.1,415.35,401.771,414.117z
			 M405.25,421.21c-0.316,0-0.555,0.123-0.716,0.307c-0.302-0.588-0.589-1.186-0.852-1.795c5.525-3.917,11.014-7.89,16.491-11.872
			c-2.414,2.396-4.816,4.804-7.271,7.161c-1.35,1.298-2.821,2.479-4.262,3.672c-1.064,0.881-2.154,1.729-3.267,2.553
			C405.333,421.229,405.298,421.21,405.25,421.21z M405.786,423.659c2.603-1.372,5.36-4.45,7.076-5.932
			c1.931-1.667,3.781-3.429,5.604-5.224c-3.468,4.813-6.642,9.901-10.043,14.464C407.419,425.98,406.557,424.856,405.786,423.659z
			 M409.929,428.28c4.104-5.458,7.836-11.688,12.155-17.284c-2.315,6.761-4.664,13.654-9.253,19.021
			C411.778,429.534,410.808,428.955,409.929,428.28z M418.502,431.505c-1.23-0.113-2.464-0.36-3.688-0.732
			c3.87-4.783,6.151-10.616,8.221-16.501C421.524,420.016,419.806,425.705,418.502,431.505z M420.537,431.578
			c1.635-7.008,3.911-13.851,5.524-20.857c0.926,6.174,1.06,12.431,1.872,18.634c0.021,0.173,0.084,0.316,0.166,0.442
			C425.685,430.913,423.129,431.526,420.537,431.578z M430.114,428.735c-0.078,0.047-0.158,0.087-0.237,0.133
			c-0.751-5.995-0.933-12.032-1.782-18.001c2.552,3.997,5.15,7.962,7.87,11.849c0.241,0.346,0.589,0.468,0.922,0.44
			C434.885,425.343,432.595,427.241,430.114,428.735z M437.841,422.054c-0.024-0.113-0.069-0.229-0.148-0.35
			c-0.251-0.376-0.501-0.752-0.752-1.128c-0.035-0.052-0.074-0.095-0.113-0.138c-3.031-4.391-5.935-8.862-8.781-13.372
			c0.087-0.013,0.181-0.019,0.267-0.031c0.802-0.124,1.586-0.749,2.103-1.42c3.682,3.748,7.299,7.558,10.854,11.424
			C440.281,418.812,439.14,420.5,437.841,422.054z M442.236,415.148c-2.717-2.947-5.479-5.853-8.271-8.729
			c3.307,1.459,6.583,2.982,9.942,4.314C443.47,412.241,442.909,413.718,442.236,415.148z M444.396,408.788
			c-3.354-1.333-6.63-2.854-9.934-4.312c3.594,0.076,7.199,0.25,10.412,1.191C444.783,406.716,444.617,407.757,444.396,408.788z
			 M431.179,402.623c-0.021-0.169-0.036-0.337-0.074-0.506c-0.036-0.165-0.078-0.333-0.114-0.5c0.046-0.072,0.062-0.146,0.083-0.223
			c4.394-1.261,8.718-2.742,13.072-4.144c0.583,2.122,0.845,4.278,0.828,6.426C440.556,402.569,435.75,402.836,431.179,402.623z"/>
		<path fill="#98f698" d="M270.695,307.069h-18c-5.159,0-5.159,8,0,8h18C275.854,315.069,275.854,307.069,270.695,307.069z"/>
		<path fill="#98f698" d="M400.695,296.069c-7.685,0.084-15.384,1.062-23,2c-5.052,0.622-5.112,8.63,0,8c7.616-0.938,15.315-1.916,23-2
			C405.851,304.013,405.856,296.013,400.695,296.069z"/>
	</g>
</g>
<g>
</g>
<g>
</g>
<g>
</g>
<g>
</g>
<g>
</g>
<g>
</g>
<g>
</g>
<g>
</g>
<g>
</g>
<g>
</g>
<g>
</g>
<g>
</g>
<g>
</g>
<g>
</g>
<g>
</g>
</svg>
