<?xml version="1.0" encoding="iso-8859-1"?>
<!-- Generator: Adobe Illustrator 16.0.0, SVG Export Plug-In . SVG Version: 6.00 Build 0)  -->
<!DOCTYPE svg PUBLIC "-//W3C//DTD SVG 1.1//EN" "http://www.w3.org/Graphics/SVG/1.1/DTD/svg11.dtd">
<svg version="1.1" id="Capa_1" xmlns="http://www.w3.org/2000/svg" xmlns:xlink="http://www.w3.org/1999/xlink" x="0px" y="0px"
	 width="501.422px" height="501.422px" viewBox="0 0 501.422 501.422" style="enable-background:new 0 0 501.422 501.422;"
	 xml:space="preserve">
<g>
	<g>
		<path fill="#98f698" d="M490.319,251.741c-11.703-10.099-27.964-14.417-42.853-17.031c-6.763-1.188-13.617-1.955-20.472-2.336
			c-10.85-0.604-21.507,0.821-32.205-1.256c-8.374-26.539-21.716-50.805-35.282-74.969c3.495,1.835,7.276,3.351,11.062,4.303
			c1.219,1.969,4.132,2.301,5.931,0.996c3.38,0.252,6.638-0.088,9.56-1.218c13.146-5.084,9.037-27.416,7.354-37.716
			c-1.806-11.049-4.426-28.418-18.786-28.573c-7.606-0.083-15.247,4.909-20.654,9.782c-5.441,4.904-9.841,11.152-13.61,17.492
			c-2.029-3.927-4.007-7.877-5.912-11.861c-0.227-0.471-0.508-0.832-0.814-1.133c2.346-3.959,3.648-8.41,3.293-12.838
			c-0.962-12.004-16.334-17.733-26.381-13.182c-8.491,3.846-13.001,13.975-11.999,22.971c0.493,4.432,2.312,8.033,5.011,10.639
			c-0.024,0.033-0.052,0.062-0.075,0.097c-2.591,3.673-1.749,8.696,0,12.487c1.704,3.693,5.443,7.021,9.553,7.596
			c4.982,0.699,8.973-1.592,12.186-4.958c31.496,43.717,36.067,102.72,22.548,153.85c-2.867,10.849-6.16,24.193-14.545,32.267
			c-5.404,5.203-13.881,5.475-20.901,6.061c-13.176,1.098-26.202,3.117-39.325,4.664c-14.917,1.758-29.118,0.254-43.93-1.518
			c-7.57-0.904-15.262-1.187-22.67,0.748c-8.395-22.013-15.271-45.232-18.996-68.498c-1.459-9.116-2.834-18.25-4.704-27.294
			c-0.915-4.424-1.81-9.725-3.882-14.145c1.729-1.422,3.133-3.281,4.039-5.73c3.709-10.02-1.893-18.182-10.918-22.469
			c-10.195-4.842-21.938-3.914-32.8-2.455c-13.069,1.756-25.947,5.084-39.14,5.861c-6.037,0.355-12.156-0.789-18.222-0.594
			c-5.896,0.191-11.596,1.859-16.649,4.889c-8.021,4.807-11.469,13.934-4.984,21.463c0.977,1.135,2.225,2.072,3.543,2.891
			c0.588,1.191,1.689,2.154,3.312,2.352c0.519,0.062,1.037,0.103,1.557,0.15c0.139,0.102,0.264,0.211,0.425,0.303
			c4.001,2.297,8.552,5.5,7.388,10.701c-1.084,4.844-5.344,8.885-8.758,12.197c-6.884,6.677-15.258,11.832-22.189,18.447
			c-3.852-3.754-7.855-7.365-12.402-10.254c-1.498-0.951-3.627-0.621-4.848,0.627C12.872,271.176,0.351,295.185,0,317.374
			c-0.025,1.635,1.227,3.572,2.938,3.857c4.906,0.813,9.809,1.59,14.76,1.944c0.068,0.133,0.143,0.263,0.209,0.396
			c0.45,0.889,1.57,0.483,1.795-0.273c0.017,0,0.033,0.002,0.05,0.002c-1.905,10.789-2.784,21.793-2.828,32.742
			c-0.041,0.156-0.094,0.303-0.12,0.479c-0.163,1.104-0.172,2.242-0.334,3.332c-0.388,2.623,1.033,4.937,3.857,5.064
			c6.461,0.295,12.748-1.053,19.091-1.945c3.823,17.019,9.463,34.5,24.109,45.246c17.166,12.596,42.981,15.285,63.219,10.002
			c0.37-0.098,0.689-0.238,0.982-0.397c25.953-6.925,41.565-35.181,46.097-60.214c5.871,0.076,11.75,0.171,17.638,0.259
			c31.399,0.469,62.83,0.313,94.154-2.125c13.049-1.019,26.091-2.453,39.027-4.445c4.762-0.732,9.518-1.469,14.317-1.894
			c2.083-0.184,4.171-0.247,6.261-0.182c0.741,0.023,1.406,0.121,2.126,0.277c0.136,0.028,9.397,2.182,9.651-4.125
			c0.921-22.861,13.863-42.818,32.38-55.605c12.916-8.92,29.722-14.993,45.882-14.432c0.366,0.301,0.9,0.295,1.269,0.057
			c3.636,0.205,7.233,0.75,10.739,1.687c13.697,3.656,28.652,9.059,43.002,6.812c6.136-0.961,10.341-5.065,11.056-11.213
			C502.267,264.558,496.031,256.67,490.319,251.741z M383.061,152.855c-0.896,0.347-1.852,0.525-2.832,0.602
			c2.072-1.625,4.111-3.289,6.062-5.052C385.708,150.464,384.726,152.211,383.061,152.855z M386.91,145.081
			c-2.802,2.751-5.848,5.22-8.95,7.628c-0.011-0.729-0.022-1.457-0.04-2.186c1.729-1.738,3.463-3.473,5.232-5.17
			c1.213-1.165,2.538-2.575,3.969-3.788C387.104,142.611,387.048,143.832,386.91,145.081z M387.104,139.125
			c-1.503,1.123-2.874,2.488-4.183,3.697c-1.733,1.604-3.414,3.266-5.081,4.939c-0.021-0.59-0.036-1.18-0.06-1.768
			c2.473-2.5,4.981-5.043,7.666-7.232c0.502-0.409,1.054-0.86,1.604-1.338C387.072,137.99,387.086,138.557,387.104,139.125z
			 M386.906,134.833c-0.911,0.917-2.005,1.765-2.874,2.515c-2.191,1.893-4.301,3.93-6.38,5.983c-0.034-0.648-0.053-1.3-0.095-1.946
			c2.852-3.174,5.922-6.179,9.164-8.955C386.799,133.229,386.85,134.031,386.906,134.833z M386.466,130.033
			c-3.209,2.659-6.271,5.539-9.119,8.596c-0.048-0.583-0.085-1.169-0.141-1.751c0.055-0.043,0.113-0.068,0.165-0.129
			c2.611-3.077,5.6-6.142,8.839-8.759C386.305,128.67,386.384,129.352,386.466,130.033z M385.857,125.713
			c-3.251,2.507-6.259,5.472-8.932,8.509c-0.078-0.679-0.157-1.357-0.247-2.033c3.039-2.602,5.949-5.348,8.941-8.002
			C385.707,124.695,385.776,125.205,385.857,125.713z M385.24,121.873c-3.002,2.612-5.902,5.34-8.896,7.961
			c-0.136-0.871-0.272-1.742-0.432-2.607c3.045-2.561,5.884-5.363,8.919-7.93C384.983,120.218,385.116,121.081,385.24,121.873z
			 M384.444,117.05c-3.079,2.542-5.932,5.352-8.963,7.953c-0.192-0.93-0.385-1.859-0.606-2.78c0.346,0.206,0.792,0.229,1.162-0.142
			c1.521-1.521,3.057-3.029,4.653-4.473c0.84-0.758,2.066-2.072,3.312-2.771C384.166,115.584,384.311,116.324,384.444,117.05z
			 M383.548,112.92c-1.135,0.57-2.157,1.476-3.083,2.241c-2.061,1.705-3.952,3.617-5.842,5.506c-0.051,0.051-0.068,0.106-0.105,0.16
			c-0.267-1.021-0.546-2.036-0.854-3.045c2.928-2.936,5.816-5.905,8.54-9.031C382.738,110.064,383.177,111.482,383.548,112.92z
			 M381.278,106.778c-2.642,3.075-5.449,5.989-8.305,8.862c-0.225-0.661-0.453-1.321-0.698-1.977
			c2.519-3.023,5.037-6.045,7.556-9.066C380.368,105.236,380.845,105.976,381.278,106.778z M375.542,102.035
			c1.066,0.153,2.005,0.574,2.84,1.188l-6.938,8.326c-0.401-0.969-0.82-1.932-1.271-2.887
			C371.9,106.402,373.645,104.142,375.542,102.035z M372.36,102.283c0.127-0.035,0.247-0.054,0.371-0.084
			c-1.216,1.455-2.375,2.963-3.527,4.471c-0.464-0.896-0.946-1.787-1.46-2.669C369.211,103.312,370.747,102.732,372.36,102.283z
			 M345.45,128.393c4.096-7.267,8.988-14.791,15.522-20.085c7.496,13.232,8.775,28.14,8.983,43.188
			c-0.262-0.092-0.516-0.184-0.771-0.275c-0.781-2.16-1.646-4.285-2.66-6.352c-0.569-1.156-2.294-0.143-1.728,1.01
			c0.709,1.442,1.331,2.916,1.907,4.409c-0.942-0.373-1.888-0.769-2.827-1.208c-0.675-1.715-1.136-3.506-1.586-5.305
			c-0.312-1.25-2.242-0.72-1.929,0.531c0.293,1.17,0.598,2.332,0.952,3.478c-0.345-0.187-0.69-0.365-1.029-0.559
			c-0.859-1.978-1.673-3.961-1.994-6.115c-0.188-1.273-2.116-0.73-1.929,0.531c0.192,1.297,0.566,2.536,1.019,3.75
			c-0.195-0.137-0.406-0.257-0.6-0.397c-0.568-1.806-0.886-3.663-1.157-5.552c-0.183-1.271-2.109-0.729-1.929,0.533
			c0.14,0.973,0.3,1.937,0.489,2.893c-0.118-0.109-0.246-0.211-0.362-0.321c-0.106-0.102-0.219-0.175-0.328-0.261
			c-0.523-1.828-0.918-3.689-1.167-5.577c-0.167-1.259-2.169-1.276-2,0c0.202,1.532,0.476,3.046,0.831,4.54
			c-2.192-3.944-4.364-7.897-6.495-11.869C344.953,129.107,345.224,128.795,345.45,128.393z M328.998,96.248
			c0.089,1.102-0.01,2.21-0.252,3.305c-2.698-3.264-4.924-6.877-7.08-10.534C325.424,89.949,328.693,92.437,328.998,96.248z
			 M319.118,88.628c2.702,4.587,5.411,9.178,8.914,13.185c-0.477,1.16-1.101,2.291-1.844,3.363
			c-4.131-5.151-8.167-10.366-11.66-15.969C315.931,88.72,317.52,88.536,319.118,88.628z M306.858,98.552
			c2.992,4.397,6.224,8.615,9.571,12.746c-0.775-0.086-1.552-0.146-2.319-0.158c-2.688-3.448-4.875-7.27-7.672-10.641
			C306.531,99.847,306.682,99.197,306.858,98.552z M306.513,104.81c-0.079-0.4-0.129-0.809-0.165-1.221
			c1.871,2.499,3.529,5.155,5.368,7.678c-0.28,0.033-0.564,0.049-0.842,0.098C308.708,110.195,307.158,108.107,306.513,104.81z
			 M310.404,124.373c-0.102-0.267-0.194-0.536-0.278-0.809c-0.102-0.336-0.177-0.68-0.246-1.023
			c-0.002-0.009-0.003-0.014-0.005-0.021c-0.003-0.053-0.008-0.115-0.013-0.191c-0.02-0.256,0.056-1.035,0.064-1.295
			c0.045-0.182,0.083-0.364,0.139-0.543c0.021-0.039,0.047-0.084,0.075-0.139c0.03-0.057,0.071-0.106,0.104-0.161
			c0.049-0.045,0.199-0.225,0.334-0.374c0.8,0.23,1.63,0.398,2.478,0.523c-0.961,1.303-1.832,2.684-2.626,4.095
			C310.422,124.414,310.413,124.394,310.404,124.373z M312.77,127.416c-0.08-0.059-0.171-0.125-0.252-0.188
			c-0.309-0.268-0.592-0.562-0.863-0.865c0.956-1.779,2.012-3.538,3.234-5.148c0.57,0.176,1.218,0.21,1.926,0.064
			C315.493,123.341,314.131,125.379,312.77,127.416z M316.865,127.679c-0.071,0.041-0.33,0.154-0.486,0.225
			c-0.288,0.098-0.581,0.18-0.876,0.251c-0.033,0.009-0.058,0.015-0.082,0.021c-0.063,0.002-0.142,0.004-0.247,0.01
			c-0.099,0.004-0.315-0.01-0.503-0.021c1.312-1.963,2.624-3.927,3.896-5.917c0.151,0.326,0.343,0.646,0.601,0.955
			c0.392,0.471,0.761,0.955,1.146,1.43C319.199,126.048,318.101,126.986,316.865,127.679z M319.268,111.623
			c-4.083-4.971-8.013-10.053-11.572-15.416c0.36-0.809,0.792-1.582,1.273-2.312c3.91,5.602,8.501,10.69,12.441,16.267
			C320.714,110.695,319.997,111.188,319.268,111.623z M322.938,108.879c-4.052-5.686-8.756-10.881-12.695-16.65
			c0.724-0.815,1.525-1.535,2.402-2.112c0.022-0.015,0.048-0.028,0.069-0.042c3.649,5.877,7.898,11.332,12.229,16.725
			C324.319,107.533,323.647,108.229,322.938,108.879z M166.833,195.445c3.448,1.236,6.787,3.359,8.662,6.561
			c1.614,2.756,0.63,6.219-1.459,8.475c-2.53-4.994-4.647-10.201-7.378-15.094C166.716,195.408,166.776,195.424,166.833,195.445z
			 M163.83,194.541c3.267,5.396,5.607,11.269,8.449,16.885c-0.73,0.196-1.407,0.611-1.949,1.182
			c-3.73-5.533-6.465-12.314-8.791-18.572C162.308,194.178,163.07,194.349,163.83,194.541z M159.285,193.681
			c2.43,6.579,5.242,13.664,9.123,19.588c-0.941,0.199-1.9,0.34-2.869,0.436c-3.797-6.627-7.435-13.322-10.367-20.363
			C156.549,193.396,157.922,193.507,159.285,193.681z M152.998,193.297c2.904,7.118,6.525,13.887,10.335,20.573
			c-1.376,0.068-2.749,0.092-4.08,0.136c-4.729-5.964-7.567-13.401-10.204-20.594C150.365,193.334,151.683,193.298,152.998,193.297z
			 M146.982,193.56c2.619,7.115,5.41,14.467,9.866,20.562c-1.545,0.084-3.088,0.185-4.631,0.303
			c-4.139-6.368-7.246-13.289-10.074-20.334C143.747,193.88,145.362,193.699,146.982,193.56z M137.017,194.839
			c1.023-0.161,2.059-0.318,3.098-0.469c2.789,6.984,5.82,13.873,9.832,20.23c-1.929,0.154-3.857,0.311-5.789,0.437
			c-3.939-6.293-7.24-12.977-10.537-19.632C134.751,195.214,135.883,195.019,137.017,194.839z M131.564,195.754
			c3.253,6.561,6.485,13.167,10.312,19.41c-1.97,0.105-3.94,0.201-5.911,0.266c-3.832-5.787-6.122-12.521-9.13-18.836
			C128.412,196.31,129.987,196.029,131.564,195.754z M124.808,196.959c3.017,6.154,5.271,12.733,8.835,18.523
			c-1.704,0.043-3.408,0.09-5.112,0.111c-3.251-5.814-6.43-11.666-9.395-17.631C121.028,197.638,122.918,197.298,124.808,196.959z
			 M117.083,198.31c2.889,5.857,5.988,11.604,9.17,17.308c-1.449,0.011-2.898,0.019-4.348,0.019
			c-4.701-4.041-7.873-10.681-10.65-16.422C113.203,198.943,115.144,198.632,117.083,198.31z M105.862,199.888
			c1.108-0.115,2.213-0.252,3.318-0.393c2.676,5.469,5.629,11.678,9.876,16.125c-1.459-0.006-2.918-0.01-4.377-0.023
			c-3.452-5.096-6.53-10.429-9.815-15.63C105.198,199.943,105.533,199.923,105.862,199.888z M102.564,200.08
			c3.28,5.135,6.329,10.416,9.702,15.494c-1.417-0.016-2.834-0.033-4.25-0.051c-0.005-0.004-0.009-0.008-0.014-0.012
			c-2.84-1.907-4.524-6.059-6.072-8.977c-1.14-2.148-2.207-4.338-3.318-6.503C99.942,200.086,101.261,200.107,102.564,200.08z
			 M96.315,199.918c1.497,2.827,2.877,5.72,4.375,8.543c1.205,2.273,2.508,4.983,4.33,7.025c-0.255-0.004-0.51-0.008-0.766-0.01
			c-0.706-0.01-1.418,0.002-2.128,0.004c-4.062-4.693-6.685-10.293-9.485-15.798C93.869,199.763,95.095,199.846,96.315,199.918z
			 M90.33,199.543c2.845,5.48,5.414,11.102,9.229,15.951c-1.271,0.02-2.544,0.049-3.82,0.085
			c-4.02-4.899-6.959-10.663-10.107-16.187C87.185,199.39,88.754,199.455,90.33,199.543z M83.357,199.451
			c3.171,5.46,6.069,11.186,9.898,16.203c-0.835,0.027-1.669,0.057-2.505,0.085c-0.016-0.024-0.027-0.048-0.047-0.071
			c-3.932-4.909-6.602-10.613-9.725-16.039C81.765,199.542,82.56,199.489,83.357,199.451z M78.853,199.939
			c3.139,5.316,5.801,10.912,9.494,15.877c-0.908,0.031-1.816,0.062-2.725,0.088c-3.209-5.068-6.32-10.196-9.347-15.375
			C77.123,200.282,77.983,200.097,78.853,199.939z M74.33,201.161c2.907,4.983,5.893,9.919,8.965,14.8
			c-0.919,0.019-1.838,0.033-2.756,0.039c-3.172-4.47-6.192-9.04-9.026-13.732C72.459,201.841,73.408,201.488,74.33,201.161z
			 M70.621,215.719c-3.199-1.621-7.598-4.125-5.504-8.192c0.26-0.506,0.578-0.975,0.935-1.414c1.828,3.375,3.903,6.625,6.212,9.695
			C71.715,215.776,71.166,215.76,70.621,215.719z M74.917,215.945c-2.793-3.537-5.253-7.344-7.371-11.32
			c0.666-0.545,1.405-1.021,2.175-1.454c2.64,4.378,5.44,8.649,8.378,12.833C77.037,215.995,75.976,215.98,74.917,215.945z
			 M31.558,263.618c3.024,2.238,5.795,4.816,8.481,7.465c-0.784,0.988-1.526,2.019-2.249,3.062
			c-1.992-3.55-3.994-7.086-6.348-10.396C31.481,263.706,31.519,263.661,31.558,263.618z M30.101,265.282
			c2.393,3.408,4.414,7.066,6.454,10.711c-0.708,1.1-1.396,2.215-2.053,3.355c-0.937-1.423-1.745-2.957-2.504-4.166
			c-1.457-2.326-2.853-4.689-4.271-7.039C28.504,267.163,29.298,266.213,30.101,265.282z M26.429,269.833
			c1.586,2.633,3.15,5.279,4.797,7.873c0.682,1.072,1.408,2.316,2.23,3.492c-0.526,0.971-1.044,1.949-1.536,2.943
			c-1.115-1.445-2.124-2.992-3.136-4.427c-1.58-2.237-3.099-4.521-4.592-6.819C24.92,271.853,25.669,270.834,26.429,269.833z
			 M22.972,274.678c1.336,2.031,2.693,4.054,4.086,6.048c1.219,1.743,2.47,3.688,3.896,5.418c-0.751,1.612-1.466,3.246-2.138,4.897
			c-0.334-0.434-0.654-0.879-0.971-1.32c-1.261-1.752-2.436-3.567-3.63-5.364c-1.218-1.834-2.42-3.832-3.794-5.658
			C21.244,277.333,22.095,275.991,22.972,274.678z M19.354,280.499c2.202,2.914,4.03,6.262,6.009,9.152
			c0.404,0.592,1.412,2.336,2.566,3.604c-0.416,1.086-0.818,2.174-1.203,3.269c-2.894-4.56-5.649-9.205-8.688-13.67
			C18.463,282.062,18.906,281.278,19.354,280.499z M10.248,314.303c-0.562-0.985-1.168-1.946-1.816-2.883
			c0.133-1.055,0.287-2.11,0.47-3.168c1.392,2.121,2.751,4.258,4.056,6.429C12.052,314.567,11.149,314.43,10.248,314.303z
			 M15.444,314.959c-1.8-3.053-3.692-6.051-5.66-9.014c-0.104-0.156-0.232-0.267-0.371-0.34c0.201-0.939,0.424-1.879,0.663-2.818
			c1.372,2.545,2.927,4.986,4.604,7.393c1.179,1.693,2.398,3.355,3.613,5.021C17.342,315.135,16.393,315.055,15.444,314.959z
			 M21.362,315.355c-0.224-0.006-0.445-0.025-0.668-0.033c-0.338-0.584-0.624-1.084-0.789-1.312
			c-1.166-1.612-2.343-3.217-3.498-4.838c-2.091-2.938-3.993-5.969-5.555-9.188c0.31-1.045,0.65-2.084,1.004-3.123
			c2.533,5.729,6.213,10.893,10.109,15.826C21.75,313.571,21.564,314.465,21.362,315.355z M22.58,310.25
			c-3.883-4.996-7.479-10.274-9.717-16.174c0.339-0.891,0.697-1.775,1.066-2.658c3.225,4.908,6.32,9.926,9.779,14.658
			C23.314,307.476,22.935,308.87,22.58,310.25z M14.875,289.232c0.661-1.476,1.373-2.929,2.109-4.367
			c3.082,4.615,5.904,9.399,8.914,14.063c-0.523,1.578-1.021,3.158-1.49,4.732C21.071,298.976,18.058,294.03,14.875,289.232z
			 M47.555,362.792c3.974-0.008,8.084,0.104,12.185,0.096c-3.881,0.711-7.747,1.488-11.569,2.474
			C47.961,364.502,47.749,363.645,47.555,362.792z M48.644,367.303c7.43-1.916,15.02-3.055,22.563-4.447
			c0.391,0.625,0.788,1.259,1.203,1.906c-2.752,0.494-5.57,0.84-8.129,1.56c-4.943,1.387-9.701,3.33-14.599,4.864
			C49.316,369.893,48.974,368.598,48.644,367.303z M50.247,373.118c4.896-1.5,9.669-3.357,14.566-4.869
			c2.799-0.863,5.802-1.217,8.73-1.758c0.371,0.562,0.73,1.117,1.118,1.686c-3.703,1.394-7.353,2.92-11.048,4.353
			c-4.058,1.571-8.104,3.024-11.91,5.09C51.178,376.131,50.702,374.627,50.247,373.118z M52.397,379.51
			c4.22-2.338,8.78-3.904,13.283-5.647c3.4-1.318,6.753-2.722,10.16-3.996c0.41,0.576,0.819,1.151,1.248,1.723
			c-3.522,2.064-7.298,3.604-10.968,5.424c-4.099,2.033-8.052,4.408-11.886,6.918C53.573,382.487,52.966,381.006,52.397,379.51z
			 M57.83,390.59c-0.988-1.553-1.867-3.182-2.696-4.842c3.896-2.516,7.905-4.81,11.997-7.01c3.253-1.75,6.65-3.088,9.878-4.82
			c-2.506,2.484-5.346,4.617-8.141,6.795C64.96,383.756,61.696,387.518,57.83,390.59z M62.243,396.43
			c-1.195-1.319-2.286-2.725-3.304-4.182c3.578-2.848,6.654-6.254,10.173-9.187c3.465-2.889,7.107-5.43,10.188-8.649
			c0.024,0.029,0.047,0.059,0.071,0.088c-2.688,4.109-5.97,7.729-8.916,11.654C67.814,389.672,65.29,393.266,62.243,396.43z
			 M63.62,397.881c2.785-2.883,5.127-6.111,7.525-9.336c3.141-4.221,6.665-8.115,9.591-12.482c0.273,0.302,0.541,0.607,0.82,0.9
			c-4.413,8.305-9.981,15.973-13.407,24.771C66.508,400.559,65.008,399.264,63.62,397.881z M69.846,402.875
			c3.281-8.717,8.785-16.281,13.189-24.439c0.844,0.8,1.711,1.56,2.609,2.254c-3.312,8.462-8.279,16.205-11.239,24.828
			C72.829,404.715,71.315,403.823,69.846,402.875z M76.221,406.385c2.869-8.529,7.733-16.188,11.086-24.508
			c0.791,0.525,1.596,1.014,2.428,1.434c-1.35,3.625-3.297,7.021-4.768,10.609c-1.887,4.604-3.264,9.414-4.821,14.143
			C78.809,407.551,77.505,406.983,76.221,406.385z M82.021,408.745c1.602-4.773,3.077-9.586,4.875-14.293
			c1.36-3.562,3.286-6.818,4.654-10.336c0.388,0.149,0.771,0.309,1.167,0.432c0.135,0.076,0.267,0.154,0.401,0.229
			c-1.527,4.147-2.876,8.352-4.043,12.608c-0.002,0.006-0.006,0.01-0.008,0.017c-1.12,4.157-2.428,8.301-3.485,12.477
			C84.378,409.536,83.194,409.151,82.021,408.745z M92.397,403.622c-0.579,2.506-1.294,4.979-1.823,7.498
			c-1.028-0.215-2.05-0.451-3.064-0.711c0.711-2.808,1.529-5.599,2.335-8.39c0,0.002-0.001,0.007-0.001,0.007
			c0.002-0.007,0.004-0.015,0.005-0.021c0.017-0.059,0.034-0.117,0.051-0.178c-0.007,0.022-0.013,0.041-0.021,0.062
			c0.267-1.059,0.691-2.408,0.97-3.434c0.048-0.176,0.1-0.351,0.146-0.525c0.005-0.018-0.001-0.03,0.003-0.051
			c1.131-4.117,2.441-8.178,3.91-12.191c0.712,0.343,1.437,0.652,2.17,0.947c-0.866,3.693-2.022,7.303-3.017,10.965
			c-0.385,1.412-0.829,2.802-1.212,4.195c-0.033,0.072-0.309,1.195-0.419,1.678c-0.011,0.049-0.024,0.097-0.035,0.146
			C92.396,403.62,92.397,403.62,92.397,403.622z M96.074,412.077c-1.187-0.156-2.368-0.344-3.544-0.556
			c0.472-2.207,1.663-6.747,1.679-6.842c0.169-0.705,0.471-2.186,0.474-2.219c0.51-1.973,1.198-3.926,1.714-5.824
			c0.846-3.11,1.82-6.17,2.57-9.303c0.721,0.242,1.455,0.451,2.194,0.645c-1.395,6.207-4.452,20.408-4.605,21.314
			C96.399,410.225,96.214,411.145,96.074,412.077z M98.04,412.307c0.276-1.895,1.264-5.598,1.269-5.639
			c1.175-6.1,2.438-12.182,3.8-18.242c1.046,0.207,2.116,0.346,3.196,0.449c-0.116,6.232-2.33,22.07-2.685,23.824
			C101.757,412.637,99.896,412.502,98.04,412.307z M106.094,412.917c0.182-0.926,0.514-4.539,0.588-5.012
			c0.002-0.004,0.002-0.009,0.003-0.011c0.001-0.004,0-0.006,0.001-0.01c0.994-6.252,1.491-12.547,1.616-18.883
			c1.094,0.037,2.2,0.035,3.328-0.045c0.551-0.039,1.093-0.094,1.631-0.16c-0.059,7.174-0.093,14.221,0.372,21.385
			c0,0.013-0.006,0.021-0.006,0.031c0.008,0.479,0.125,1.971,0.128,2.174C111.085,412.649,108.82,412.936,106.094,412.917z
			 M115.729,411.645c-0.582-7.778-0.529-15.395-0.467-23.168c0.202-0.039,0.4-0.086,0.6-0.129c0.963,7.625,2.285,15.486,4.104,22.9
			C118.534,411.452,117.118,411.596,115.729,411.645z M121.944,410.926c-1.838-7.442-3.182-15.393-4.139-23.051
			c0.633-0.178,1.248-0.391,1.863-0.607c1.937,3.492,4.082,6.89,6.117,10.312c1.733,2.914,4.746,6.646,6.34,10.008
			C128.957,409.083,125.567,410.227,121.944,410.926z M133.891,406.704c-1.452-2.918-3.831-5.854-5.33-8.375
			c-2.33-3.918-4.794-7.801-7.014-11.795c1.088-0.463,2.134-1,3.159-1.576c4.593,6.174,9.729,12.51,13.281,19.281
			C136.667,405.127,135.305,405.956,133.891,406.704z M139.636,403.081c-3.553-6.721-8.654-13.019-13.217-19.15
			c0.619-0.397,1.224-0.819,1.818-1.258c5.686,5.148,11.327,10.469,17.18,15.402C143.602,399.883,141.685,401.573,139.636,403.081z
			 M146.817,396.649c-5.783-4.877-11.361-10.129-16.979-15.219c0.993-0.813,1.943-1.686,2.861-2.596
			c6.32,3.955,12.032,8.875,18.629,12.352C149.917,393.098,148.42,394.932,146.817,396.649z M152.503,389.545
			c-6.525-3.408-12.181-8.238-18.394-12.182c0.74-0.81,1.443-1.654,2.128-2.517c3.907,1.906,7.676,4.838,11.417,6.961
			c2.113,1.197,4.479,3.484,6.906,4.56C153.898,387.444,153.22,388.51,152.503,389.545z M155.586,384.629
			c-2.781-1.047-5.881-3.957-8.193-5.268c-3.306-1.875-6.529-4.318-9.937-6.095c0.636-0.868,1.239-1.766,1.821-2.676
			c2.957,0.918,5.844,2.012,8.747,3.113c3.687,1.397,7.649,2.151,11.331,3.543C158.217,379.77,156.97,382.245,155.586,384.629z
			 M160.151,375.444c-2.74-0.992-5.626-1.605-8.39-2.511c-3.852-1.258-7.569-2.825-11.41-4.084c0.427-0.723,0.837-1.457,1.231-2.196
			c4.803,0.793,9.503,1.965,14.193,3.286c1.947,0.55,3.829,1.509,5.785,1.964C161.115,373.09,160.649,374.272,160.151,375.444z
			 M162.213,370.118c-2.541-0.404-5.498-1.99-7.652-2.599c-3.968-1.118-7.971-2.053-12.031-2.733c0.61-1.246,1.164-2.51,1.687-3.781
			c4.437,0.117,8.84,0.494,13.253,1.014c2.188,0.257,4.784,0.103,7.049,0.576C163.856,365.108,163.097,367.624,162.213,370.118z
			 M165.004,360.717c-1.908-0.375-3.946-0.383-5.823-0.531c-4.755-0.373-9.444-0.965-14.2-1.161
			c0.147-0.556,0.165-1.068,0.084-1.537c6.881-0.05,13.763-0.033,20.652,0.03C165.5,358.583,165.263,359.649,165.004,360.717z
			 M165.185,349.553c-0.04-0.145-0.107-0.287-0.23-0.42c-2.846-3.092-3.087-7.698-6.295-10.651
			c-0.947-0.873-2.365,0.539-1.414,1.414c2.846,2.618,3.355,6.604,5.492,9.643c-1.469-0.008-2.938-0.023-4.406-0.027
			c-2.121-2.938-3.686-6.256-5.967-9.092c-0.809-1.006-2.215,0.418-1.414,1.414c1.919,2.385,3.328,5.115,4.994,7.674
			c-1.182,0-2.363-0.006-3.544-0.004c-1.722-2.912-3.228-5.946-5.362-8.6c-0.809-1.006-2.215,0.418-1.414,1.414
			c1.777,2.211,3.086,4.729,4.479,7.192c-2.076,0.006-4.152,0-6.227,0.021c-1.481-2.377-2.455-5.281-3.945-7.457
			c-0.723-1.057-2.457-0.06-1.727,1.01c1.351,1.971,2.288,4.316,3.465,6.471c-0.982,0.01-1.963,0.017-2.945,0.029
			c-1.275-2.076-2.748-4.029-4.119-6.057c-0.718-1.062-2.451-0.062-1.727,1.01c1.154,1.707,2.381,3.362,3.503,5.082
			c-0.923,0.016-1.845,0.022-2.768,0.043c-1.7-2.271-3.188-4.68-4.233-7.35c-0.465-1.187-2.4-0.67-1.93,0.53
			c0.969,2.476,2.264,4.73,3.756,6.869c-0.932,0.021-1.863,0.031-2.795,0.059c-2.18-2.653-3.678-5.883-6.068-8.385
			c-0.893-0.934-2.305,0.482-1.414,1.414c2.003,2.099,3.371,4.697,5.043,7.049c-1.073,0.035-2.146,0.064-3.221,0.105
			c-2.141-2.336-3.812-4.969-5.094-7.881c-0.518-1.178-2.241-0.16-1.727,1.01c1.111,2.525,2.517,4.861,4.241,6.979
			c-1.147,0.047-2.294,0.091-3.44,0.146c-1.856-2.058-3.482-4.262-4.885-6.68c-0.646-1.115-2.375-0.109-1.727,1.01
			c1.199,2.068,2.568,3.992,4.085,5.807c-1.762,0.092-3.523,0.183-5.286,0.293c-1.928-2.746-3.538-5.707-5.305-8.562
			c-0.676-1.094-2.406-0.092-1.727,1.01c1.592,2.572,3.072,5.205,4.744,7.713c-1.814,0.123-3.63,0.236-5.446,0.381
			c-2.511-2.18-4.177-5.286-5.802-8.135c-0.64-1.121-2.367-0.113-1.727,1.01c1.445,2.529,2.941,5.183,4.924,7.353
			c-1.648,0.139-3.298,0.274-4.945,0.43c-1.924-2.812-3.486-5.869-5.672-8.51c-0.823-0.994-2.23,0.43-1.414,1.414
			c1.875,2.266,3.292,4.842,4.873,7.309c-1.496,0.144-2.994,0.283-4.491,0.432c-1.396-1.946-2.623-4.022-4.294-5.764
			c-0.895-0.932-2.308,0.484-1.414,1.414c1.332,1.387,2.381,2.99,3.461,4.574c-0.923,0.092-1.846,0.18-2.768,0.272
			c-1.85-2.58-3.068-5.688-4.449-8.481c-0.572-1.156-2.297-0.143-1.727,1.01c1.252,2.533,2.387,5.271,3.93,7.701
			c-0.559,0.059-1.116,0.111-1.674,0.17c-0.008,0-0.015,0-0.022,0.002c-2.024-2.746-4.109-5.447-5.833-8.397
			c-0.65-1.111-2.379-0.105-1.727,1.01c1.551,2.655,3.397,5.106,5.227,7.571c-0.787,0.043-1.577,0.068-2.369,0.084
			c-2.635-3.252-4.932-6.76-7.426-10.116c-0.76-1.023-2.498-0.027-1.727,1.01c2.238,3.014,4.326,6.139,6.617,9.113
			c-1.141-0.017-2.283-0.043-3.427-0.091c-2.47-3.096-4.516-6.503-6.307-10.032c-0.583-1.15-2.31-0.139-1.727,1.01
			c1.58,3.113,3.375,6.104,5.446,8.906c-0.678-0.033-1.354-0.068-2.029-0.104c-1.377-2.037-2.52-4.211-3.627-6.424
			c-0.577-1.151-2.303-0.141-1.727,1.01c0.912,1.822,1.871,3.592,2.936,5.299c-0.588-0.024-1.176-0.053-1.76-0.071
			c-0.553-0.019-1.105-0.031-1.658-0.049c-1.684-2.113-3.322-4.263-4.57-6.672c-0.594-1.146-2.318-0.134-1.727,1.01
			c1.035,2,2.338,3.828,3.713,5.602c-2.775-0.053-5.551-0.059-8.312,0.037c0.238-16.338,5.418-32.231,16.271-44.744
			c11.33-13.061,27.773-20.075,44.936-20.28c16.877-0.201,33.677,5.217,45.293,17.771c10.836,11.713,15.377,28.226,17.314,43.756
			C168.246,349.563,166.715,349.563,165.185,349.553z M492.439,274.495c-0.582,0.621-1.338,1.072-2.188,1.412
			c-1.88-2.949-4.139-5.617-6.62-8.125c-0.908-0.918-2.32,0.498-1.414,1.414c2.241,2.266,4.276,4.66,6.012,7.285
			c-1.705,0.301-3.633,0.301-5.529,0.157c-1.442-3.237-3.22-6.295-5.045-9.336c-0.662-1.104-2.393-0.1-1.728,1.011
			c1.587,2.646,3.173,5.305,4.493,8.096c-2.038-0.256-3.915-0.604-5.28-0.82c-0.31-0.049-0.616-0.112-0.926-0.166
			c-1.242-2.756-2.689-5.414-4.057-8.119c-0.582-1.151-2.308-0.139-1.728,1.011c1.128,2.231,2.321,4.43,3.396,6.684
			c-1.511-0.289-3.02-0.6-4.521-0.94c-1.116-2.011-2.119-4.091-3.284-6.07c-0.652-1.111-2.383-0.105-1.727,1.01
			c0.854,1.451,1.621,2.957,2.409,4.447c-1.437-0.349-2.868-0.707-4.296-1.082c-0.74-1.769-1.331-3.592-1.738-5.5
			c-0.269-1.26-2.196-0.728-1.929,0.531c0.315,1.483,0.745,2.924,1.262,4.327c-1.402-0.379-2.803-0.762-4.201-1.146
			c-0.376-1.248-0.785-2.486-1.266-3.713c-0.465-1.187-2.399-0.67-1.929,0.531c0.334,0.854,0.636,1.713,0.918,2.575
			c-2.052-0.52-4.104-0.94-6.158-1.276c-0.339-0.836-0.674-1.674-1.009-2.513c-0.475-1.182-2.408-0.666-1.93,0.531
			c0.219,0.545,0.437,1.09,0.654,1.633c-1.158-0.149-2.315-0.278-3.473-0.375c-0.543-2.166-0.953-4.364-1.388-6.559
			c-0.25-1.266-2.178-0.729-1.929,0.531c0.389,1.965,0.759,3.936,1.222,5.881c-1.29-0.07-2.578-0.117-3.865-0.121
			c-0.922-1.422-1.972-2.764-3.182-4.006c-0.9-0.926-2.313,0.49-1.414,1.414c0.806,0.826,1.528,1.701,2.192,2.612
			c-0.862,0.025-1.723,0.058-2.583,0.109c-0.711-1.443-1.413-2.891-2.027-4.379c-0.484-1.174-2.421-0.66-1.929,0.533
			c0.562,1.36,1.199,2.686,1.847,4.006c-1.997,0.178-3.986,0.434-5.97,0.762c-1.079-1.758-1.971-3.646-2.909-5.539
			c-0.572-1.153-2.299-0.141-1.727,1.011c0.826,1.666,1.629,3.323,2.54,4.903c-0.712,0.138-1.423,0.281-2.133,0.438
			c-0.641-1.463-1.284-2.926-2.09-4.308c-0.647-1.112-2.378-0.106-1.727,1.011c0.703,1.205,1.274,2.475,1.832,3.75
			c-1.731,0.422-3.454,0.897-5.168,1.43c-0.366-0.695-0.72-1.398-1.07-2.1c-0.577-1.154-2.303-0.142-1.727,1.01
			c0.285,0.569,0.574,1.141,0.87,1.705c-0.769,0.258-1.535,0.516-2.299,0.793c-0.85-1.111-1.646-2.261-2.298-3.508
			c-0.596-1.146-2.32-0.134-1.727,1.01c0.599,1.149,1.321,2.213,2.094,3.24c-1.566,0.608-3.129,1.243-4.676,1.938
			c-1.111-1.574-2.186-3.174-3.188-4.824c-0.668-1.102-2.397-0.098-1.727,1.01c0.971,1.601,2.008,3.15,3.082,4.677
			c-0.537,0.26-1.078,0.51-1.61,0.778c-1.114-1.92-2.411-3.698-3.989-5.305c-0.905-0.922-2.318,0.494-1.414,1.414
			c1.438,1.465,2.613,3.074,3.634,4.814c-1.721,0.926-3.41,1.907-5.066,2.942c-0.169-0.168-0.325-0.326-0.459-0.451
			c-0.982-0.928-1.907-1.95-2.672-3.065c-0.724-1.058-2.458-0.06-1.727,1.01c0.896,1.311,1.969,2.498,3.124,3.59
			c-1.236,0.814-2.452,1.658-3.646,2.533c-1.061-1.475-2.118-2.951-3.205-4.406c-0.762-1.021-2.499-0.024-1.727,1.01
			c1.134,1.519,2.237,3.06,3.344,4.599c-1.156,0.889-2.298,1.797-3.407,2.74c-1.072-1.125-2.103-2.291-2.98-3.578
			c-0.723-1.058-2.456-0.06-1.728,1.01c0.948,1.389,2.048,2.652,3.197,3.871c-0.776,0.69-1.546,1.391-2.296,2.106
			c-0.711-0.901-1.358-1.854-1.9-2.897c-0.595-1.146-2.32-0.133-1.727,1.01c0.616,1.188,1.366,2.271,2.188,3.295
			c-1.562,1.566-3.067,3.188-4.504,4.867c-1.017-1.162-1.956-2.393-2.772-3.721c-0.674-1.097-2.404-0.093-1.728,1.01
			c0.943,1.533,2.021,2.947,3.203,4.266c-0.953,1.17-1.882,2.357-2.77,3.576c-0.502-0.672-0.979-1.356-1.434-2.035
			c-0.715-1.063-2.447-0.063-1.727,1.011c0.615,0.915,1.257,1.831,1.946,2.706c-1.975,2.854-3.769,5.828-5.355,8.906
			c-0.564-0.797-1.135-1.59-1.68-2.399c-0.716-1.064-2.449-0.064-1.728,1.01c0.771,1.146,1.574,2.271,2.377,3.396
			c-1.2,2.504-2.271,5.07-3.193,7.693c-1.234-1.613-2.479-3.217-3.746-4.805c-0.805-1.008-2.21,0.416-1.414,1.414
			c1.492,1.871,2.95,3.768,4.398,5.672c-0.793,2.506-1.462,5.055-1.982,7.646c-1.418-1.889-2.836-3.778-4.254-5.67
			c-0.764-1.02-2.501-0.022-1.728,1.01c1.832,2.441,3.664,4.886,5.497,7.328c-0.281,1.742-0.503,3.5-0.655,5.273
			c-0.723-0.199-1.49-0.328-2.275-0.426c-1.577-1.759-3-3.648-4.246-5.689c-0.67-1.1-2.399-0.094-1.727,1.01
			c0.958,1.568,2.011,3.066,3.154,4.486c-2.914-0.025-5.933,0.369-8.444,0.727c-1.323-1.483-2.647-2.967-4.044-4.381
			c-0.907-0.918-2.321,0.496-1.414,1.414c1.057,1.07,2.066,2.183,3.071,3.301c-0.101,0.015-0.207,0.027-0.304,0.041
			c-1.52,0.191-3.037,0.396-4.555,0.601c-1.33-1.564-2.756-3.045-4.499-4.148c-1.093-0.69-2.096,1.039-1.01,1.728
			c1.186,0.75,2.156,1.717,3.064,2.748c-1.761,0.239-3.52,0.481-5.277,0.727c-1.388-1.656-2.724-3.354-4.071-5.045
			c-0.806-1.008-2.21,0.418-1.414,1.414c1.053,1.32,2.098,2.645,3.164,3.951c-1.486,0.205-2.973,0.414-4.458,0.614
			c-1.178-1.276-2.33-2.579-3.426-3.936c-0.812-1.004-2.218,0.42-1.414,1.414c0.784,0.971,1.603,1.912,2.433,2.842
			c-1.525,0.205-3.051,0.41-4.578,0.604c-1.492-1.56-3.089-3.015-4.821-4.334c-1.025-0.783-2.02,0.955-1.01,1.727
			c1.176,0.896,2.29,1.875,3.355,2.906c-1.403,0.172-2.806,0.354-4.21,0.51c-1.919-2.666-3.82-5.348-6.111-7.713
			c-0.898-0.928-2.311,0.488-1.414,1.414c1.954,2.018,3.625,4.27,5.269,6.543c-0.215,0.022-0.428,0.049-0.641,0.07
			c-1.188,0.121-2.379,0.227-3.567,0.338c-1.467-1.658-2.862-3.379-4.416-4.957c-0.905-0.922-2.319,0.494-1.414,1.414
			c1.185,1.205,2.279,2.492,3.383,3.771c-1.762,0.154-3.524,0.303-5.287,0.443c-1.159-1.316-2.284-2.666-3.341-4.064
			c-0.768-1.014-2.505-0.02-1.728,1.011c0.836,1.104,1.711,2.178,2.603,3.237c-1.898,0.143-3.797,0.297-5.696,0.422
			c-1.482-1.686-2.805-3.522-4.038-5.352c-0.718-1.062-2.451-0.062-1.727,1.01c1.029,1.527,2.115,3.049,3.294,4.496
			c-1.177,0.072-2.354,0.149-3.531,0.219c-1.704-2.069-3.438-4.11-4.852-6.405c-0.677-1.095-2.406-0.091-1.728,1.01
			c1.214,1.971,2.662,3.75,4.124,5.522c-1.899,0.103-3.802,0.207-5.703,0.295c-1.137-1.506-2.344-2.959-3.666-4.303
			c-0.904-0.922-2.318,0.494-1.414,1.414c0.938,0.951,1.812,1.957,2.646,2.996c-1.339,0.059-2.677,0.129-4.017,0.18
			c-0.942-1.514-1.721-3.127-2.41-4.832c-0.478-1.178-2.412-0.664-1.929,0.533c0.618,1.529,1.299,2.99,2.085,4.383
			c-1.864,0.066-3.728,0.127-5.591,0.18c-1.152-1.793-2.262-3.614-3.525-5.333c-0.754-1.027-2.491-0.031-1.727,1.01
			c1.041,1.416,1.975,2.899,2.914,4.381c-1.431,0.037-2.861,0.076-4.293,0.106c-1.33-2.021-2.816-3.934-4.547-5.698
			c-0.904-0.924-2.317,0.492-1.414,1.414c1.331,1.358,2.503,2.809,3.572,4.327c-1.946,0.037-3.893,0.072-5.839,0.099
			c-1.382-1.818-2.571-3.844-3.66-5.639c-0.667-1.101-2.397-0.097-1.727,1.01c0.91,1.502,1.889,3.11,2.971,4.653
			c-1.792,0.021-3.585,0.043-5.378,0.056c-1.477-1.806-2.822-3.703-4.045-5.719c-0.667-1.101-2.396-0.097-1.727,1.01
			c0.994,1.639,2.059,3.215,3.211,4.723c-0.896,0.004-1.793,0.016-2.688,0.018c-1.958-2.812-4.061-5.561-6.448-7.995
			c-0.904-0.922-2.318,0.492-1.414,1.414c1.986,2.024,3.763,4.27,5.424,6.581c-1.705,0.003-3.41,0.011-5.116,0.005
			c-2.312-2.267-4.36-4.783-6.391-7.318c-0.806-1.008-2.212,0.418-1.414,1.414c1.614,2.019,3.243,4.02,5.005,5.896
			c-1.887-0.01-3.773-0.021-5.66-0.034c-1.648-2.035-3.034-4.293-4.59-6.394c-0.758-1.022-2.496-0.026-1.727,1.011
			c1.295,1.748,2.478,3.602,3.775,5.358c-1.232-0.012-2.467-0.021-3.699-0.035c-0.248-0.002-0.494-0.008-0.742-0.01
			c-0.926-1.104-1.723-2.32-2.378-3.598c-0.588-1.148-2.313-0.138-1.727,1.01c0.451,0.881,0.974,1.737,1.554,2.555
			c-1.104-0.016-2.209-0.029-3.313-0.045c-0.744-1.697-1.635-3.334-2.647-4.883c-0.703-1.074-2.436-0.072-1.727,1.01
			c0.804,1.229,1.529,2.516,2.164,3.844c-1.551-0.021-3.104-0.039-4.655-0.061c-0.383-1.783-0.309-3.627,0.229-5.385
			c0.379-1.236-1.551-1.762-1.928-0.533c-0.582,1.9-0.691,3.936-0.344,5.891c-1.631-0.022-3.268-0.043-4.898-0.063
			c0.607-4.076,1.302-8.127,2.399-12.109c0.343-1.244-1.587-1.772-1.929-0.53c-0.865,3.141-1.475,6.327-1.995,9.532
			c-0.555-3.838-1.258-7.653-2.147-11.416c0.045-2.387,0.182-4.764,0.619-7.127c0.232-1.26-1.694-1.799-1.929-0.531
			c-0.108,0.587-0.181,1.175-0.259,1.763c-0.567-1.906-1.182-3.797-1.865-5.658c0.004-4.283,0.205-8.447,1.326-12.609
			c0.336-1.248-1.593-1.774-1.928-0.532c-0.756,2.803-1.114,5.61-1.277,8.452c-0.698-1.604-1.441-3.186-2.246-4.739
			c0.008-0.099,0.021-0.193,0-0.306c-0.727-3.627-1.43-7.256-2.045-10.903c-0.214-1.271-2.141-0.73-1.929,0.53
			c0.306,1.814,0.634,3.625,0.976,5.433c-0.646-1.027-1.311-2.047-2.016-3.043c0.24-0.285,0.347-0.689,0.142-1.113
			c-1.224-2.535-1.944-5.221-2.625-7.938c-0.313-1.253-2.241-0.722-1.929,0.53c0.373,1.488,0.77,2.957,1.24,4.402
			c-0.449-0.539-0.89-1.086-1.359-1.613c-0.234-0.264-0.482-0.508-0.721-0.764c0.072-0.228,0.072-0.484-0.059-0.752
			c-1.463-2.976-2.615-6.058-3.307-9.303c-0.27-1.261-2.197-0.728-1.929,0.53c0.454,2.133,1.128,4.191,1.931,6.203
			c-1.557-1.393-3.182-2.686-4.871-3.877c-1.203-2.928-2.484-5.809-4.092-8.549c-0.652-1.111-2.381-0.104-1.727,1.01
			c1.054,1.797,1.959,3.654,2.802,5.543c-1.585-0.971-3.213-1.869-4.882-2.688c-1.063-2.398-1.865-4.904-3.009-7.271
			c-0.561-1.162-2.285-0.146-1.727,1.01c0.792,1.64,1.417,3.347,2.077,5.039c-2.176-0.944-4.406-1.774-6.68-2.489
			c-1.004-2.127-2.016-4.25-3.212-6.285c-0.653-1.111-2.382-0.105-1.727,1.01c0.864,1.471,1.631,2.988,2.37,4.518
			c-1.839-0.504-3.697-0.946-5.573-1.315c-0.427-1.072-0.81-2.164-1.103-3.291c-0.326-1.246-2.256-0.717-1.93,0.531
			c0.206,0.789,0.443,1.565,0.71,2.334c-0.613-0.103-1.226-0.207-1.842-0.297c-0.675-1.494-1.283-3.017-1.71-4.613
			c-0.333-1.244-2.262-0.715-1.929,0.533c0.348,1.299,0.816,2.551,1.335,3.784c-1.256-0.147-2.514-0.278-3.773-0.372
			c-0.853-1.57-1.762-3.111-2.578-4.705c-0.586-1.148-2.312-0.138-1.727,1.01c0.613,1.199,1.299,2.365,1.966,3.539
			c-0.997-0.049-1.993-0.09-2.987-0.109c-1.234-2.272-2.408-4.58-3.567-6.896c-0.577-1.152-2.302-0.142-1.727,1.01
			c0.986,1.973,1.983,3.938,3.02,5.883c-1.601,0.021-3.195,0.092-4.78,0.232c-1.52-2.902-2.861-5.896-4.232-8.879
			c-0.537-1.17-2.261-0.154-1.727,1.01c1.249,2.717,2.475,5.44,3.832,8.1c-1.654,0.201-3.3,0.445-4.928,0.771
			c-1.451-2.648-2.751-5.365-3.743-8.236c-0.419-1.211-2.351-0.691-1.929,0.531c0.977,2.828,2.238,5.518,3.643,8.139
			c-1.479,0.344-2.945,0.73-4.395,1.174c-1.205-2.096-2.544-4.116-3.736-6.223c-0.635-1.123-2.362-0.115-1.727,1.01
			c1.121,1.98,2.368,3.888,3.517,5.851c-1.313,0.442-2.616,0.914-3.899,1.438c-1.158-1.953-2.307-3.912-3.504-5.842
			c-0.679-1.094-2.409-0.09-1.727,1.01c1.151,1.857,2.258,3.742,3.372,5.621c-1.942,0.861-3.847,1.814-5.704,2.853
			c-1.014-2.031-2.191-3.984-3.311-5.974c-0.631-1.125-2.359-0.117-1.727,1.01c1.115,1.984,2.309,3.929,3.314,5.962
			c-1.142,0.682-2.27,1.389-3.371,2.135c-1.266-2.633-2.682-5.189-4.182-7.703c-0.658-1.105-2.389-0.103-1.727,1.01
			c1.523,2.555,2.99,5.148,4.268,7.834c-1.471,1.062-2.908,2.174-4.295,3.351c-1.095-2.197-2.244-4.369-3.057-6.691
			c-0.424-1.209-2.356-0.688-1.93,0.531c0.916,2.614,2.221,5.049,3.438,7.524c-1.345,1.211-2.658,2.461-3.908,3.779
			c-1.043-1.77-1.954-3.613-2.965-5.408c-0.632-1.123-2.359-0.115-1.727,1.01c1.107,1.968,2.1,3.99,3.275,5.912
			c-1.076,1.209-2.098,2.455-3.074,3.73c-0.75-1.154-1.42-2.357-1.982-3.635c-0.52-1.179-2.242-0.158-1.727,1.01
			c0.676,1.535,1.517,2.957,2.455,4.32c-0.941,1.311-1.846,2.643-2.688,4.012c-0.085-0.139-0.173-0.277-0.257-0.416
			c-0.944-1.545-1.801-3.141-2.695-4.715c-0.637-1.121-2.365-0.113-1.727,1.01c1.152,2.029,2.26,4.086,3.537,6.039
			c-0.734,1.281-1.432,2.582-2.085,3.904c-1.14-1.74-2.217-3.521-3.235-5.341c-0.629-1.125-2.356-0.116-1.727,1.011
			c1.232,2.203,2.541,4.352,3.958,6.434c-0.448,0.984-0.88,1.978-1.286,2.98c-1.01-1.726-1.998-3.463-3.051-5.16
			c-0.677-1.094-2.408-0.09-1.727,1.01c1.328,2.146,2.549,4.355,3.852,6.516c-0.379,1.033-0.746,2.072-1.08,3.121
			c-1.229-2.051-2.467-4.088-4.008-5.936c-0.826-0.992-2.233,0.43-1.414,1.414c1.822,2.184,3.188,4.678,4.65,7.104
			c-0.369,1.312-0.711,2.631-1.014,3.959c-1.677-2.062-3.277-4.186-4.873-6.312c-0.764-1.019-2.502-0.023-1.727,1.01
			c1.977,2.635,3.957,5.266,6.073,7.791c-0.156,0.801-0.304,1.605-0.437,2.414c-1.034-1.645-2.133-3.244-3.365-4.75
			c-0.816-0.998-2.223,0.426-1.414,1.414c1.641,2.006,3.024,4.205,4.33,6.441c-0.119,0.938-0.225,1.877-0.312,2.815
			c-1.491-1.406-2.805-3.024-4.358-4.354c-0.975-0.834-2.396,0.573-1.414,1.414c1.971,1.688,3.578,3.764,5.581,5.405
			c-0.083,1.305-0.146,2.609-0.169,3.916c-1.842-1.541-3.599-3.184-5.401-4.771c-0.964-0.851-2.384,0.559-1.414,1.413
			c1.802,1.589,3.563,3.22,5.399,4.763c-3.945,0.559-7.84,1.418-11.641,2.77c0.043-16.217,2.015-32.379,6.389-48.028
			c2.4-8.586,5.641-17.383,10.277-25.226c0.656-0.047,1.26-0.7,0.854-1.407c1.524-2.445,3.186-4.793,5.017-6.994
			c1.117-0.519,2.021-1.525,2.383-2.697c1.324-1.393,2.725-2.717,4.208-3.957c9.337-7.801,19.886-14.666,26.869-24.849
			c4.935-7.195,4.233-14.219,0.02-19.825c2.198-0.083,4.396-0.185,6.591-0.253c8.128-0.257,16.291,0.05,24.42,0.139
			c15.367,0.168,30.511-0.849,45.834-1.507c4.34-0.188,9.438-0.298,13.979-1.495c2.234,4.365,2.854,10.955,3.695,15.137
			c1.743,8.664,3.023,17.416,4.42,26.14c3.729,23.291,10.819,46.61,19.276,68.596c0.632,1.643,0.825,4.188,2.11,5.102
			c1.778,1.263,3.592,0.365,5.811-0.307c13.67-4.143,28.83,0.412,42.697,1.465c14.954,1.136,29.856-1.776,44.623-3.67
			c16.271-2.088,37.373,0.4,48.246-14.516c7.332-10.06,10.761-23.193,13.782-35.068c3.757-14.766,5.677-30.01,6.499-45.204
			c1.438-26.542-3.334-54.134-13.145-78.786c-6.056-15.219-14.433-29.294-24.914-41.875c1.188-0.814,2.329-1.727,3.402-2.72
			c19.198,39.701,45.562,76.208,58.887,118.579c0.02,0.062,0.05,0.109,0.071,0.168c-0.438,1.887,0.301,4.012,2.722,4.626
			c13.139,3.332,26.339,1.406,39.657,2.303c9.324,0.628,18.584,2.129,27.643,4.425c9.672,2.451,19.615,6.057,27.431,12.438
			c1.616,1.32,4.494,4.158,6.572,7.297c-0.563-0.377-1.125-0.756-1.673-1.156c-1.041-0.766-2.036,0.972-1.01,1.728
			c1.479,1.086,3.033,2.057,4.58,3.041C493.981,270.605,494.008,272.819,492.439,274.495z"/>
		<path fill="#98f698" d="M421.856,293.928c-31.228,6.188-52.521,32.867-55.689,63.729c-0.175,0.485-0.136,2.942,0.053,3.432
			c2.887,20.394,15.253,37.574,33.905,46.668c18.059,8.805,40.604,8.625,58.018-1.66c26.759-15.803,43.549-54.604,31.537-84.282
			C478.936,295.269,447.439,288.858,421.856,293.928z M484.188,329.726c0.438,1.723,0.759,3.483,0.981,5.274
			c-7.93,4.588-17.718,8.262-26.909,8.605c-0.104-0.336-0.198-0.677-0.312-1.011c8.638-4.432,17.114-9.313,26.175-12.829
			C484.15,329.756,484.164,329.737,484.188,329.726z M481.813,323.028c0.722,1.555,1.344,3.154,1.849,4.799
			c-0.024,0.008-0.045,0.002-0.069,0.012c-9.116,3.537-17.649,8.404-26.338,12.869c-0.09-0.225-0.188-0.447-0.281-0.672
			c8.131-5.885,16.825-10.957,24.837-17.006C481.811,323.028,481.812,323.028,481.813,323.028z M480.067,319.704
			c0.302,0.5,0.577,1.014,0.854,1.527c-0.04,0.021-0.08,0.041-0.12,0.071c-7.95,6.002-16.572,11.043-24.649,16.871
			c-0.146-0.309-0.283-0.621-0.438-0.924c8.008-5.785,15.464-12.35,24.057-17.283C479.897,319.894,479.991,319.801,480.067,319.704z
			 M476.349,314.661c0.986,1.117,1.9,2.271,2.72,3.477c-0.103,0.021-0.203,0.043-0.31,0.104
			c-8.571,4.922-16.016,11.469-24.003,17.246c-0.216-0.375-0.443-0.744-0.671-1.111c3.598-3.68,8.138-6.176,12.104-9.461
			C469.902,321.84,472.794,317.896,476.349,314.661z M474.964,313.192c-3.204,2.869-5.98,6.242-9.042,9.248
			c-3.973,3.901-8.997,6.344-12.952,10.221c-0.071-0.104-0.139-0.211-0.211-0.314c5.413-7.903,12.16-15.454,19.358-21.75
			C473.14,311.418,474.072,312.293,474.964,313.192z M464.331,305.726c1.03,0.502,2.048,1.026,3.034,1.604
			c1.102,0.644,2.14,1.324,3.13,2.035c-7.044,6.191-13.631,13.549-19.003,21.285c-0.035-0.045-0.068-0.09-0.104-0.133
			c-0.54-0.677-1.106-1.287-1.688-1.873c4.808-7.65,10.433-14.773,14.6-22.818C464.319,305.792,464.317,305.758,464.331,305.726z
			 M462.536,304.887c-4.097,7.886-9.583,14.892-14.323,22.378c-0.573-0.484-1.156-0.947-1.758-1.361
			c3.046-7.896,7.437-15.221,10.499-23.092C458.862,303.401,460.726,304.094,462.536,304.887z M455.034,302.254
			c-2.993,7.699-7.266,14.883-10.302,22.578c-0.646-0.361-1.302-0.695-1.971-0.988c1.659-7.707,6.062-14.555,6.361-22.606
			c0.004-0.109-0.025-0.195-0.048-0.285C451.094,301.284,453.081,301.726,455.034,302.254z M447.332,300.678
			c-0.113,0.148-0.199,0.324-0.208,0.56c-0.289,7.787-4.573,14.438-6.242,21.887c-0.948-0.313-1.908-0.586-2.887-0.777
			c0.929-7.37,4.174-14.342,2.925-21.887c-0.022-0.141-0.074-0.25-0.134-0.348C442.983,300.189,445.169,300.383,447.332,300.678z
			 M439.31,300.071c-0.23,0.221-0.383,0.529-0.317,0.92c1.182,7.143-1.996,14.041-2.958,21.059c-1.001-0.112-2.01-0.176-3.025-0.176
			c0.822-7.154,1.141-14.506-0.333-21.574C434.881,300.118,437.098,300.042,439.31,300.071z M430.676,300.491
			c1.51,7.016,1.149,14.35,0.324,21.457c-0.947,0.065-1.896,0.168-2.843,0.322c-0.353-4.357-0.918-8.691-1.615-13.009
			c-0.407-2.522-0.78-5.313-1.553-7.901C426.865,300.993,428.766,300.704,430.676,300.491z M423.02,301.78
			c0.662,2.211,0.987,4.6,1.379,6.75c0.847,4.664,1.427,9.391,1.793,14.117c-0.852,0.188-1.699,0.397-2.539,0.651
			c-1.963-6.713-3.867-13.438-5.559-20.227C419.707,302.577,421.355,302.157,423.02,301.78z M416.185,303.683
			c1.694,6.793,3.602,13.526,5.566,20.245c-0.344,0.125-0.69,0.238-1.03,0.373c-2.816-6.166-5.433-12.414-7.877-18.735
			c-0.088-0.228-0.236-0.373-0.404-0.484C413.663,304.575,414.916,304.116,416.185,303.683z M410.859,305.762
			c0.002,0.105,0.009,0.214,0.056,0.334c2.476,6.404,5.124,12.73,7.973,18.979c-0.254,0.115-0.508,0.229-0.759,0.35
			c-4.398-4.944-6.844-12.422-9.425-18.651C409.411,306.42,410.132,306.088,410.859,305.762z M406.941,307.689
			c2.6,6.221,5.033,13.565,9.36,18.67c-0.37,0.199-0.729,0.414-1.094,0.627c-4.935-4.424-7.902-11.797-10.481-18.037
			C405.455,308.517,406.19,308.094,406.941,307.689z M403.02,309.999c2.588,6.24,5.543,13.502,10.419,18.076
			c-0.248,0.162-0.484,0.336-0.729,0.502c-3.248-5.91-9.066-11.152-12.997-16.312C400.785,311.48,401.885,310.721,403.02,309.999z
			 M398.128,313.487c2.091,2.84,4.404,5.521,6.642,8.244c1.987,2.418,4.433,5.153,6.166,8.125c-0.379,0.289-0.764,0.573-1.128,0.877
			c-0.345,0.285-0.677,0.59-1.012,0.889c-1.218-1.326-2.438-2.508-3.136-3.309c-3.521-4.052-7.467-7.853-10.762-12.099
			C395.943,315.276,397.012,314.358,398.128,313.487z M393.446,317.551c2.567,3.248,5.511,6.236,8.267,9.312
			c1.841,2.055,3.658,4.131,5.418,6.256c0.011,0.014,0.025,0.029,0.037,0.043c-0.512,0.514-1.006,1.049-1.489,1.594
			c-5.188-4.633-10.313-9.41-14.297-15.133C392.053,318.918,392.74,318.228,393.446,317.551z M390.003,321.144
			c4.053,5.696,9.185,10.491,14.392,15.141c-0.521,0.652-1.012,1.324-1.487,2.008c-5.045-4.789-10.34-9.313-15.836-13.578
			C388.005,323.491,388.979,322.297,390.003,321.144z M385.895,326.312c5.525,4.278,10.837,8.85,15.896,13.676
			c-0.453,0.731-0.879,1.479-1.278,2.24c-4.762-5.062-10.86-9.08-16.486-13.132C384.625,328.153,385.243,327.221,385.895,326.312z
			 M382.979,330.793c5.691,4.082,11.935,8.115,16.607,13.33c-0.159,0.354-0.298,0.713-0.445,1.068
			c-2.067-1.48-4.529-2.818-5.506-3.519c-3.917-2.812-8.206-5.451-11.926-8.596C382.124,332.312,382.534,331.542,382.979,330.793z
			 M380.772,334.875c2.78,2.26,5.854,4.24,8.733,6.297c2.237,1.599,4.478,3.193,6.696,4.816c0.359,0.262,1.25,0.793,2.125,1.381
			c-0.134,0.399-0.253,0.807-0.371,1.213c-6.381-3.209-12.624-6.656-18.71-10.404C379.729,337.064,380.231,335.959,380.772,334.875z
			 M378.476,340.049c6.169,3.787,12.497,7.271,18.967,10.506c-0.02,0.082-0.031,0.166-0.05,0.25
			c-6.82-2.201-13.603-4.452-20.697-5.569C377.224,343.478,377.806,341.743,378.476,340.049z M376.142,347.151
			c7.172,1.075,14.022,3.405,20.903,5.639c-0.028,0.201-0.062,0.402-0.088,0.604c-7.383-0.041-14.765-0.235-22.147-0.284
			C375.162,351.09,375.615,349.106,376.142,347.151z M374.495,355.108c7.434,0.043,14.865,0.241,22.299,0.284
			c-0.012,0.236-0.029,0.472-0.035,0.705c-7.432,1.326-15.235,0.447-22.648,2.138C374.211,357.184,374.346,356.143,374.495,355.108z
			 M374.12,360.288c7.397-1.814,15.203-0.939,22.663-2.172c0.02,0.377,0.047,0.756,0.082,1.133c-2.074,0.539-4.238,0.91-6.206,1.473
			c-5.224,1.494-10.431,2.986-15.546,4.806C374.692,363.811,374.356,362.065,374.12,360.288z M375.626,367.444
			c5.134-1.798,10.369-3.168,15.564-4.793c1.911-0.599,3.954-0.978,5.947-1.472c0.012,0.06,0.021,0.117,0.031,0.176
			c-6.73,3.271-13.469,6.785-20.679,8.837C376.176,369.288,375.892,368.37,375.626,367.444z M377.19,372.075
			c7.102-2.039,13.771-5.474,20.402-8.707c0.081,0.324,0.151,0.656,0.241,0.973c-6.803,2.738-13.086,6.967-19.332,10.799
			C378.031,374.135,377.598,373.112,377.19,372.075z M379.39,376.94c6.153-3.778,12.36-7.987,19.061-10.694
			c0.243,0.67,0.505,1.324,0.791,1.957c-4.896,4.893-12.444,7.778-18.506,11.192C380.264,378.59,379.818,377.77,379.39,376.94z
			 M383.641,383.87c-0.656-0.9-1.281-1.824-1.881-2.767c6.039-3.438,13.313-6.312,18.401-11.073c0.058,0.104,0.11,0.211,0.169,0.313
			C394.84,374.944,389.026,379.149,383.641,383.87z M384.854,385.465c5.328-4.693,11.084-8.873,16.541-13.416
			c0.169,0.25,0.331,0.504,0.509,0.746c-4.386,5.266-8.524,12.654-14.715,15.441C386.377,387.34,385.601,386.415,384.854,385.465z
			 M388.615,389.754c6.092-3.111,10.14-10.104,14.541-15.369c0.225,0.265,0.44,0.533,0.676,0.787
			c-4.008,5.844-8.189,11.545-12.962,16.773C390.094,391.239,389.348,390.502,388.615,389.754z M392.376,393.258
			c4.736-5.197,8.899-10.854,12.889-16.649c0.645,0.594,1.312,1.155,2.008,1.684c-3.483,6.07-7.529,11.949-12.535,16.861
			C393.93,394.545,393.146,393.909,392.376,393.258z M399.191,398.182c-0.959-0.582-1.894-1.198-2.812-1.838
			c4.979-4.938,9.046-10.838,12.535-16.901c0.161,0.104,0.319,0.217,0.482,0.317C407.155,386.364,403.249,392.483,399.191,398.182z
			 M400.919,399.188c4.056-5.707,7.924-11.813,10.238-18.414c0.123,0.066,0.242,0.138,0.366,0.201
			c-1.948,6.857-3.658,13.781-5.786,20.586C404.086,400.85,402.479,400.055,400.919,399.188z M412.579,403.973
			c-1.698-0.469-3.358-1.024-4.984-1.653c2.126-6.767,3.833-13.652,5.765-20.478c0.696,0.301,1.402,0.586,2.125,0.838
			c-0.753,3.441-1.326,6.908-1.775,10.406c-0.08,0.621-0.538,9.246-0.632,9.281C412.339,402.639,412.255,403.475,412.579,403.973z
			 M413.656,404.266c1.519-0.623,1.354-3.153,1.476-4.502c0.5-5.559,1.094-11.031,2.264-16.483c0.879,0.248,1.766,0.475,2.667,0.651
			c-0.312,7.111-0.779,14.244-2.005,21.256C416.588,404.936,415.12,404.637,413.656,404.266z M420.027,405.493
			c1.212-7.006,1.699-14.125,2.02-21.228c0.615,0.086,1.233,0.16,1.854,0.215c-0.168,7.07-0.702,14.451,0.438,21.451
			C422.905,405.846,421.467,405.69,420.027,405.493z M426.391,406.012c-1.214-6.961-0.672-14.352-0.493-21.408
			c0.292,0.011,0.585,0.005,0.878,0.009c0.359,4.94,0.451,9.895,0.872,14.834c0.144,1.694,0.148,4.278,0.622,6.563
			C427.645,406.016,427.02,406.028,426.391,406.012z M430.096,405.958c-0.794-3.082-0.564-7.838-0.699-9.736
			c-0.275-3.875-0.341-7.766-0.623-11.641c0.312-0.014,0.623-0.041,0.936-0.062c2.094,6.89,3.742,13.927,4.604,21.076
			C432.914,405.766,431.51,405.895,430.096,405.958z M436.282,405.313c-0.866-7.114-2.477-14.118-4.543-20.981
			c0.796-0.096,1.587-0.226,2.375-0.371c1.691,6.965,3.308,13.994,6.33,20.512C439.07,404.805,437.682,405.088,436.282,405.313z
			 M442.398,403.956c-3.072-6.457-4.652-13.48-6.327-20.41c0.753-0.182,1.498-0.393,2.236-0.619
			c1.886,6.82,3.776,13.771,6.907,20.129C444.284,403.379,443.347,403.686,442.398,403.956z M447.089,402.348
			c-3.147-6.326-5.009-13.274-6.886-20.078c0.848-0.312,1.676-0.67,2.495-1.047c2.757,6.474,5.352,13.013,8.133,19.474
			C449.602,401.29,448.357,401.852,447.089,402.348z M452.606,399.799c-2.782-6.455-5.374-12.99-8.128-19.457
			c0.454-0.242,0.89-0.52,1.331-0.781c4.541,5.365,7.414,11.767,10.768,17.888C455.282,398.292,453.96,399.081,452.606,399.799z
			 M458.23,396.323c-3.353-6.097-6.255-12.438-10.724-17.834c0.455-0.312,0.899-0.636,1.338-0.968
			c4.247,5.412,8.302,10.979,12.165,16.673C460.102,394.934,459.179,395.651,458.23,396.323z M462.541,392.899
			c-3.861-5.674-7.913-11.221-12.148-16.62c0.664-0.572,1.295-1.187,1.906-1.818c4.234,5.432,8.021,11.188,12.031,16.785
			C463.743,391.811,463.147,392.364,462.541,392.899z M465.754,389.817c-4.025-5.632-7.847-11.408-12.113-16.865
			c0.547-0.66,1.041-1.344,1.514-2.037c3.876,5.729,8.519,10.881,13.232,15.936C467.527,387.883,466.649,388.877,465.754,389.817z
			 M469.653,385.278c-4.783-5.125-9.5-10.347-13.353-16.218c0.238-0.418,0.464-0.844,0.678-1.271
			c4.603,5.152,10.349,9.068,15.379,13.748C471.48,382.827,470.585,384.086,469.653,385.278z M473.477,379.846
			c-5.003-4.6-10.676-8.481-15.207-13.602c-0.146-0.164-0.308-0.24-0.472-0.279c0.235-0.574,0.447-1.154,0.645-1.738
			c5.636,3.998,12.792,6.054,18.044,10.502C475.536,376.491,474.531,378.2,473.477,379.846z M477.42,372.913
			c-5.479-4.416-12.767-6.408-18.376-10.711c0.151-0.592,0.279-1.189,0.395-1.791c7.035,2.002,14.396,2.61,21.353,4.895
			C479.791,367.909,478.664,370.456,477.42,372.913z M481.464,363.422c-7.072-2.348-14.566-2.936-21.72-5.002
			c0.006-0.051,0.017-0.1,0.021-0.148c7.819-0.532,15.666,0.847,23.447-0.37C482.712,359.764,482.109,361.602,481.464,363.422z
			 M483.714,356.02c-0.182-0.092-0.388-0.146-0.632-0.104c-7.667,1.289-15.432-0.142-23.148,0.346
			c0.05-0.961,0.06-1.924,0.024-2.891c7.894,0.365,16.79,0.008,24.166-2.672c1.202-0.438,0.684-2.371-0.531-1.931
			c-7.276,2.646-15.979,2.968-23.768,2.597c-0.081-0.873-0.186-1.744-0.329-2.613c8.997-0.047,17.36-3.713,26.035-5.844
			C485.402,347.247,484.766,351.663,483.714,356.02z M459.107,346.743c-0.088-0.389-0.193-0.775-0.291-1.164
			c9.091-0.457,18.619-3.918,26.564-8.391c0.096,1.213,0.163,2.432,0.173,3.662C476.735,342.958,468.256,346.792,459.107,346.743z"
			/>
	</g>
</g>
<g>
</g>
<g>
</g>
<g>
</g>
<g>
</g>
<g>
</g>
<g>
</g>
<g>
</g>
<g>
</g>
<g>
</g>
<g>
</g>
<g>
</g>
<g>
</g>
<g>
</g>
<g>
</g>
<g>
</g>
</svg>
