<?xml version="1.0" encoding="iso-8859-1"?>
<!-- Generator: Adobe Illustrator 16.0.0, SVG Export Plug-In . SVG Version: 6.00 Build 0)  -->
<!DOCTYPE svg PUBLIC "-//W3C//DTD SVG 1.1//EN" "http://www.w3.org/Graphics/SVG/1.1/DTD/svg11.dtd">
<svg version="1.1" id="Capa_1" xmlns="http://www.w3.org/2000/svg" xmlns:xlink="http://www.w3.org/1999/xlink" x="0px" y="0px"
	 width="506.4px" height="506.4px" viewBox="0 0 506.4 506.4" style="enable-background:new 0 0 506.4 506.4;" xml:space="preserve"
	>
<g>
	<path fill="#98f698" d="M504.102,279.857c-2.793-3.439-7.256-4.832-10.832-5.662c-4.734-1.097-10.014-1.629-16.137-1.629
		c-5.588,0-11.231,0.438-17.005,0.928c-7.218,0.611-14.192,1.525-20.938,2.41c-4.065,0.533-8.27,1.084-12.501,1.566
		c-4.115,0.469-8.152,0.975-11.386,1.389c-2.053-3.676-4.079-7.524-6.044-11.254c-6.779-12.879-13.782-26.181-23.865-36.726
		c3.479-3.609,4.525-9.153,2.64-14.589c-1.955-5.634-6.559-9.273-11.728-9.273c-0.865,0-1.747,0.099-2.635,0.294
		c-13.914-17.971-23.533-39.104-32.842-59.551c-2.629-5.774-5.347-11.744-8.121-17.557c-1.647-6.32-3.961-12.258-6.88-17.666
		c0.692-0.809,1.286-1.621,1.803-2.463c3.019-4.914,2.163-11.088-2.229-16.111c-4.54-5.192-11.265-7.825-19.986-7.825
		c-8.504,0-17.394,2.394-24.536,4.317l-1.04,0.279c-4.68,1.256-9.38,2.689-13.925,4.075c-1.565,0.478-3.132,0.955-4.699,1.427
		c-4.88-9.287-7.982-19.509-10.986-29.406c-2.143-7.059-4.354-14.345-7.209-21.317c4.368-2.742,6.998-7.736,6.792-13.095
		c-0.265-6.916-6.153-12.542-13.128-12.542c-0.575,0-1.157,0.04-1.728,0.119c-6.665,0.921-9.927,7.135-9.705,12.795
		c0.211,5.381,3.504,9.742,8.495,11.395c0.04,0.229,0.098,0.456,0.173,0.678c-2.335-0.749-4.666-1.539-6.94-2.311
		c-1.05-0.356-2.101-0.712-3.152-1.065c-4.327-1.451-8.99-2.859-13.947-2.613c-2.434,0.123-4.93,0.771-7.848,2.032
		c-0.276,0.09-0.536,0.206-0.776,0.347c-0.48,0.219-0.957,0.443-1.43,0.675c-3.661,1.798-7.446,3.656-11.657,4.823
		c-1.071,0.296-2.231,0.447-3.447,0.447c-4.481,0-9.174-1.95-13.712-3.836c-1.498-0.622-2.913-1.21-4.301-1.719
		C162.227,40,158.25,39.2,154.55,39.2c-4.255,0-8.184,1.096-11.678,3.257c-1.342,0.83-2.069,2.21-1.947,3.692
		c0.131,1.594,1.223,3.037,2.781,3.678c2.975,1.223,5.798,3.322,9.027,6.734c-5.828,5.17-11.688,10.624-14.863,18.406
		c-0.45,1.104-0.287,2.363,0.448,3.457c1.072,1.597,3.093,2.327,4.687,1.662c4.161-1.739,7.752-2.422,11.626-2.17
		c3.157,0.204,6.396,1.145,9.529,2.055c0.976,0.283,1.944,0.564,2.907,0.823c4.071,1.098,8.301,2.242,13.028,2.034
		c3.487-0.149,6.425-1.773,9.265-3.345c0.412-0.228,0.822-0.454,1.231-0.675c1.411-0.761,2.896-1.13,4.54-1.13
		c3.587,0,7.383,1.786,11.055,3.515c1.888,0.889,3.841,1.808,5.719,2.451c2.922,1.001,6.256,1.509,9.91,1.509
		c3.919,0,8.231-0.564,13.134-1.721c-0.099,5.782-0.002,12.335,0.952,18.928l-2.307,0.459c-12.623,2.51-25.677,5.104-38.138,9.479
		l-0.979,0.342c-7.173,2.499-18.011,6.275-19.387,15.507c-0.754,5.059,2.036,10.053,6.785,12.146
		c2.746,1.209,5.58,1.364,7.743,1.364c1.148,0,2.302-0.051,3.417-0.1l0.046-0.002c0.239,0.141,0.494,0.256,0.764,0.342
		c3.072,6.758,0.339,16.132-1.673,23.029l-0.042,0.142c-1.967,6.745-4.575,13.37-7.01,19.175c-0.083-0.099-0.166-0.196-0.248-0.294
		c-3.669-4.368-7.527-8.584-10.478-11.768c-3.46-3.734-7.034-7.47-10.49-11.082c-3.353-3.506-6.819-7.13-10.172-10.741
		c-2.439-2.628-4.824-5.399-7.131-8.079c-3.842-4.464-7.814-9.08-12.21-13.24c-4.027-3.812-10.006-8.881-15.398-8.881
		c-2.737,0-5.064,1.319-6.73,3.815c-2.951,4.421-1.865,10.388-0.435,14.614c2.076,6.131,5.785,11.744,9.484,16.896l0.022,0.031
		c0.333,2.562,0.355,5.322,0.376,7.771l0.015,1.486c0.119,8.346-0.497,17.146-1.885,26.9c-1.427,10.039-3.27,18.024-5.798,25.133
		c-3.472,9.757-6.214,11.062-7.231,11.169c-0.454,0.048-0.883,0.161-1.282,0.339c-1.778-0.979-3.656-1.998-5.542-2.967
		c-9.692-4.977-20.988-10.285-32.401-10.285c-1.334,0-2.659,0.075-3.937,0.223c-4.285,0.498-10.044,2.152-13.137,7.215
		c-2.474,4.048-1.38,9.179,3,14.076c3.517,3.931,8.228,6.721,15.186,8.973c0.105,3.963-0.346,8.009-0.785,11.932
		c-0.254,2.278-0.516,4.616-0.673,6.96c-4.38-1.817-10.259-3.938-16.349-4.771c-1.422-0.192-2.594-0.283-3.689-0.283
		c-2.818,0-5.051,0.619-6.826,1.895c-4.125,2.961-4.215,8.139-2.475,11.955c2.369,5.198,8.696,8.209,13.316,10.407l0.355,0.17
		c0.24,0.114,0.48,0.229,0.719,0.349c-10.791,20.569-16.412,42.473-16.306,63.535c-7.483-0.056-14.764,1.803-21.776,3.602
		c-3.256,0.834-6.622,1.699-9.946,2.35c-1.425,0.279-2.736,1.602-2.987,3.01c-1.616,9.107-1.694,19.098-0.247,31.438
		c1.37,11.688,3.705,21.855,7.109,31.072c-0.258,0.568,0.076,1.189,0.564,1.4c0.863,1.645,2.467,2.467,4.516,2.174
		c2.041-0.295,4.082-0.598,6.123-0.9c11.385-1.689,23.156-3.438,34.84-3.5c0.163,0,0.323-0.01,0.48-0.027
		c10.188,20.256,29.288,38.383,53.937,51.15c13.14,6.807,27.38,11.281,42.323,13.303c18.001,2.436,37.173,3.697,56.982,3.756
		l1.399,0.002c37.82,0,75.81-4.439,112.911-13.189c27.256-6.43,64.584-15.234,86.763-41.781c4.872-5.832,8.704-12.502,12.413-18.953
		c0.522-0.91,1.047-1.82,1.57-2.729c5.268-9.09,9.576-17.316,13.175-25.15c6.63-14.432,10.633-27.777,12.199-40.709
		c2.472,1.518,5.593,2.552,9.048,2.979c0.767,0.094,1.553,0.143,2.335,0.143h0.001c5.792,0,11.778-2.573,16.423-7.061
		c5.013-4.843,7.627-11.898,7.173-19.361c-0.447-7.342-3.733-13.954-9.055-18.279c0.922-0.137,1.831-0.275,2.729-0.413l1.484-0.228
		c8.661-1.317,20.525-3.123,26.306-10.735C507.171,287.9,506.894,283.297,504.102,279.857z M165.644,49.928
		c2.151,3.278,4.271,6.577,6.384,9.88c-0.075,1.047-0.154,2.09-0.233,3.121c-0.033,0.435-0.066,0.874-0.1,1.311
		c-4.283-4.83-7.973-10.336-11.049-15.969C162.27,48.714,163.928,49.284,165.644,49.928z M172.41,52.495
		c-0.03,1.312-0.093,2.629-0.167,3.945c-1.132-1.772-2.284-3.532-3.428-5.297C170,51.601,171.201,52.061,172.41,52.495z
		 M158.068,47.684c3.587,6.843,8.084,13.625,13.428,19.32c-0.093,1.342-0.177,2.689-0.237,4.042
		c-3.316-3.906-6.151-8.181-9.088-12.38c0.713-1.503,0.313-3.332-0.722-4.555c-2.303-2.72-4.479-4.928-6.675-6.758
		C155.867,47.367,156.963,47.489,158.068,47.684z M166.115,72.084c-0.27-0.074-0.523-0.138-0.787-0.208
		c-2.366-3.086-4.543-6.298-6.275-9.814c-0.031-0.063-0.077-0.097-0.115-0.147c0.641-0.557,1.276-1.112,1.906-1.67
		c3.143,4.512,6.212,9.078,9.864,13.196c-0.606-0.178-1.213-0.357-1.808-0.538C167.958,72.618,167.029,72.337,166.115,72.084z
		 M159.569,70.583c-1.45-1.834-2.789-3.739-3.877-5.816c0.573-0.513,1.146-1.021,1.724-1.524c1.385,2.781,3.047,5.379,4.858,7.876
		C161.334,70.909,160.442,70.736,159.569,70.583z M154.17,66.15c0.762,1.404,1.629,2.739,2.571,4.024
		c-0.755-0.085-1.492-0.146-2.217-0.186c-0.638-0.776-1.271-1.559-1.91-2.336C153.125,67.145,153.641,66.643,154.17,66.15z
		 M151.229,69.103c0.232,0.283,0.468,0.563,0.698,0.849c-0.515,0.01-1.031,0.017-1.536,0.05
		C150.661,69.695,150.952,69.403,151.229,69.103z M199.258,61.605c-0.153,2.738-0.31,5.554-0.381,8.358
		c-3.697-0.786-6.909-0.548-10.062,0.714c-1.251,0.5-2.418,1.154-3.547,1.787c-1.82,1.021-3.54,1.984-5.428,2.227
		c-0.177,0.022-0.356,0.041-0.539,0.057c0.04-3.861,0.341-7.793,0.633-11.597c0.211-2.754,0.428-5.586,0.549-8.415
		c3.171,0.547,6.095,0.571,8.93,0.08c3.736-0.647,7.055-2.27,10.258-3.874C199.653,54.501,199.453,58.102,199.258,61.605z
		 M375.476,224.527c1.202,0,2.271-0.471,3.006-1.326c0.636-0.739,0.984-1.716,0.984-2.749c0-2.323-1.716-4.075-3.99-4.075
		c-0.114,0-0.222,0.024-0.332,0.033c0.277-0.17,0.572-0.32,0.891-0.437c0.471-0.174,0.899-0.421,1.269-0.73
		c1.816,0.511,2.913,2.433,3.318,4.059c0.481,1.929,0.304,4.627-1.625,6.27c-1.398-0.305-2.955,0.227-3.969,1.304
		c-1.993-0.278-2.584-2.36-2.75-3.291c-0.045-0.251-0.07-0.509-0.088-0.769C372.896,223.863,374.078,224.527,375.476,224.527z
		 M332.882,200.9l0.305-2.654c1.491-12.932,3.152-27.323,2.887-41.521c8.824,19.18,18.205,38.691,31.322,55.711
		c-2.814,3.262-4.019,7.713-3.314,12.423c0.885,5.929,5.688,10.069,11.684,10.069c0.667,0,1.339-0.053,2.007-0.158
		c10.438,10.201,17.539,23.742,24.411,36.846c1.447,2.762,2.938,5.6,4.439,8.373l-2.229,0.293
		c-11.829,1.562-24.062,3.176-36.119,4.201c-9.353,0.797-17.784,1.6-26.289,3.366c-7.459,1.55-15.88,3.866-21.785,9.29
		c-0.33,0.305-0.649,0.618-0.96,0.947c-2.299-2.272-4.433-4.799-6.505-7.254c-0.728-0.861-1.452-1.721-2.185-2.569
		c4.438-8.58,6.631-18.248,8.754-27.608c0.968-4.268,1.969-8.679,3.157-12.839c0.643-2.243,1.3-4.482,1.955-6.721
		c1.797-6.123,3.654-12.453,5.157-18.792C331.257,215.2,332.083,207.93,332.882,200.9z M312.455,325.197
		c0.003,3.229,0.005,6.277-0.248,9.094c-1.478,16.443-16.579,27.029-27.604,34.76c-12.822,8.988-28.208,13.357-47.038,13.357
		c-1.029,0-2.058-0.012-3.091-0.037c-9.812-0.246-19.584-1.629-27-2.807c-7.419-1.178-14.134-3.322-19.959-6.375
		c-10.275-5.391-18.108-14.686-22.65-26.882c-1.958-5.259-3.379-11.099-4.329-17.812c1.067-0.125,2.093-0.295,3.062-0.508
		c3.165-0.691,5.58-2.332,6.982-4.746c1.435-2.467,1.67-5.604,0.663-8.828c-1.376-4.405-5.015-7-8.304-8.646
		c1.947-1.844,3.7-3.872,5.407-5.849c0.679-0.786,1.359-1.574,2.053-2.352c1.232-1.382,2.62-2.693,3.962-3.964l0.165-0.155
		c16.176,2.56,32.619,2.901,48.531,3.232c7.896,0.165,16.062,0.335,24.092,0.773c4.379,0.24,8.934,0.652,13.34,1.05
		c7.226,0.653,14.697,1.327,22.049,1.327c9.449,0,17.192-1.102,24.258-3.457c2.531,2.949,5.153,5.955,8.069,8.686
		C312.443,311.228,312.449,318.324,312.455,325.197z M151.667,373.283c3.705,5.635,8.037,10.717,12.906,15.143
		c-2.778,0.654-5.894,0.723-8.899,0.723l-2.414-0.004c-0.571,0-1.13,0.002-1.673,0.012c-7.642,0.135-15.387,0.701-22.876,1.248
		l-1.912,0.139c-18.719,1.361-35.683,3.467-51.808,6.436c-0.134-0.408-0.266-0.816-0.397-1.225
		c-2.111-6.561-3.815-12.605-5.192-18.418c5.645-0.184,11.289-0.383,16.934-0.582c8.212-0.291,16.703-0.59,25.053-0.832
		c2.521-0.072,5.101-0.102,7.596-0.129c4.699-0.051,9.558-0.104,14.327-0.455c2.761-0.203,5.523-0.598,8.195-0.979
		C144.833,373.881,148.265,373.391,151.667,373.283z M171.929,394.33c1.852,1.311,3.729,2.523,5.592,3.613
		c7.455,4.363,15.907,7.703,25.215,9.969c-4.985,0.664-10.005,1.377-15.003,2.133c-7.482,1.131-15.081,2.354-22.429,3.533
		c-24.7,3.971-50.237,8.074-75.637,9.447c-0.78-0.699-1.43-1.314-2.019-1.912c-4.99-5.066-7.932-11.217-9.933-16.365
		c15.649-2.836,32.596-4.879,51.734-6.238c7.343-0.52,16.026-1.076,24.752-1.25l1.136-0.021
		C160.812,397.145,166.974,397.039,171.929,394.33z M213.937,414.539c15.538-1.963,31.448-3.055,46.835-4.111
		c5.565-0.383,11.133-0.764,16.692-1.186c21.149-1.605,39.916-3.914,57.373-7.059c5.072-0.912,10.267-1.93,15.288-2.91
		c18.217-3.562,37.055-7.242,55.623-7.242c1.868,0,3.727,0.037,5.546,0.111c-3.742,6.537-10.109,13.102-19.381,19.986
		c-0.266,0.021-0.522,0.064-0.784,0.137c-6.877,1.914-14.237,1.918-21.356,1.922c-2.023,0-4.043,0.002-6.052,0.045
		c-8.436,0.178-16.869,1.678-25.026,3.129c-1.48,0.264-2.957,0.525-4.433,0.781c-22.422,3.871-44.894,7.096-61.966,9.471
		c-42.601,5.928-85.185,12.16-126.365,18.186l-3.591,0.525c-4.662-1.525-9.38-3.139-13.945-4.699
		c-1.742-0.596-3.485-1.191-5.229-1.785c-8.378-2.848-16.001-5.578-22.877-9.375c23.167-1.855,46.386-5.6,68.888-9.229
		C183.833,418.873,198.988,416.428,213.937,414.539z M287.518,398.043c8.878-4.145,17.534-9.623,25.74-16.283
		c4.766,0.371,9.606,0.551,14.779,0.551c16.109,0,32.602-1.852,47.15-3.484c3.348-0.377,6.735-0.82,10.013-1.25
		c4.188-0.551,8.518-1.119,12.782-1.545l1.069-0.107c3.471-0.352,7.06-0.713,10.604-0.713c2.669,0,5.013,0.209,7.119,0.635
		c-0.571,3.104-1.242,5.85-2.038,8.338c-2.646-0.174-5.392-0.26-8.179-0.26c-13.938,0-27.922,2.15-39.936,4.166
		c-6.838,1.148-13.759,2.461-20.451,3.73c-10.868,2.061-22.106,4.195-33.241,5.664c-10.716,1.414-21.537,2.438-31.496,3.248
		C283.473,399.881,285.502,398.984,287.518,398.043z M331.618,363.811c1.499-1.768,2.935-3.58,4.274-5.4
		c0.204-0.008,0.41-0.031,0.615-0.068c5.188-0.949,10.891-1.393,17.946-1.393c3.923,0,7.931,0.133,11.808,0.26
		c3.899,0.129,7.933,0.262,11.901,0.262c1.942,0,3.721-0.029,5.437-0.094c5.439-0.201,10.931-0.986,16.239-1.748
		c6.439-0.922,13.098-1.879,19.597-1.758c-0.291,3.012-0.583,6.021-0.911,9.025c-0.177,1.607-0.356,3.236-0.556,4.873
		c-2.37-0.438-4.973-0.65-7.901-0.65c-3.507,0-6.988,0.299-10.354,0.588l-0.151,0.014c-5.302,0.455-10.646,1.16-15.814,1.844
		c-2.719,0.357-5.438,0.719-8.159,1.043c-15.116,1.807-31.206,3.57-47.105,3.57c-2.201,0-4.383-0.033-6.521-0.102
		C325.371,370.801,328.609,367.357,331.618,363.811z M394.258,311.908c12.03-1.371,24.43-2.783,36.639-4.646
		c-2.52,3.494-4.526,7.742-6.096,12.889c-0.029,0.006-0.061,0.012-0.09,0.018c-16.454,3.404-33.56,4.533-50.103,5.623
		c-8.517,0.562-17.301,1.142-25.945,2.025c0.281-3.296,0.183-6.56-0.298-9.742C363.57,315.406,379.163,313.63,394.258,311.908z
		 M375.219,333.88c15.627-1.048,31.762-2.128,47.47-5.04c-0.142,0.715-0.276,1.438-0.407,2.164
		c-0.943,5.234-1.575,10.49-2.028,14.729c-0.683-0.021-1.376-0.031-2.075-0.031c-6.527,0-13.117,0.929-19.489,1.826
		c-5.386,0.76-10.952,1.545-16.38,1.744c-1.787,0.066-3.652,0.1-5.7,0.1c-3.756,0-7.583-0.111-11.283-0.219
		c-3.714-0.107-7.555-0.221-11.338-0.221c-4.646,0-8.641,0.17-12.332,0.527c2.462-4.463,4.309-8.928,5.504-13.314
		C356.477,335.136,365.998,334.498,375.219,333.88z M376.062,422.207c-7.061,3.789-14.911,7.217-23.828,10.41
		c-28.434,10.182-59.005,14.754-85.431,18.24c-9.193,1.215-18.552,2.393-27.602,3.533c-4.14,0.521-8.28,1.043-12.42,1.57
		c-7.705,0.979-15.424,1.477-22.943,1.477c-10.428,0-20.759-0.955-30.708-2.836c-3.913-0.74-7.98-1.658-12.302-2.781
		c36.957-5.404,73.219-10.676,109.482-15.744l3.363-0.469c19.294-2.693,39.244-5.479,58.8-8.904
		c1.793-0.312,3.591-0.641,5.392-0.969c8.138-1.482,16.553-3.016,24.835-3.32c2.581-0.096,5.216-0.117,7.764-0.137
		C372.307,422.262,374.178,422.25,376.062,422.207z M77.872,295.658c0.629,0.22,1.254,0.435,1.871,0.638
		c4.373,1.438,8.979,3.135,14.078,5.184c7.847,3.152,17.613,7.074,25.872,12.212c2.067,1.286,3.918,2.814,5.877,4.434
		c0.959,0.793,1.939,1.604,2.954,2.388c-1.877-0.047-3.778-0.183-5.628-0.313l-0.359-0.025c-3.257-0.23-6.631-0.346-10.316-0.346
		c-2.454,0-5.059,0.052-7.962,0.154c-2.771,0.098-5.546,0.155-8.321,0.213c-3.66,0.075-7.445,0.153-11.172,0.33
		c-0.809,0.038-1.618,0.082-2.429,0.123c-2.561,0.135-5.208,0.272-7.788,0.272c-2.241,0-4.254-0.106-6.104-0.325
		C70.54,312.048,73.707,303.672,77.872,295.658z M74.885,329.035c2.909,0,5.847-0.145,8.849-0.305
		c4.002-0.212,8.089-0.297,12.041-0.378c2.815-0.058,5.727-0.118,8.594-0.224c6.85-0.254,13-0.168,19.009,0.26
		c1.957,0.141,4.269,0.282,6.567,0.282c2.5,0,4.739-0.171,6.793-0.517c0.397,4.811,1.104,9.549,2.105,14.121
		c-0.955,0.327-2.481,0.492-4.558,0.492c-0.902,0-1.799-0.027-2.622-0.054c-0.729-0.022-1.405-0.043-1.984-0.043l-0.245,0.001
		c-2.809,0.031-5.618-0.004-8.427-0.04c-2.062-0.026-4.126-0.054-6.237-0.054c-16.64,0.002-32.951,0.127-49.401,1.57
		c0.103-5.217,0.584-10.445,1.438-15.584C69.262,328.882,71.921,329.035,74.885,329.035z M116.021,350.73l0.046-1.5v1.5
		c1.974,0,3.948,0.023,5.923,0.049c3,0.037,6.002,0.072,9.006,0.025l0.615-0.004c0.398,0,0.817,0.004,1.252,0.008
		c2.48,0.023,5.475,0.055,8.045-0.643c1.635,5.338,3.71,10.463,6.188,15.279c-2.231,0.225-4.454,0.537-6.62,0.842
		c-2.099,0.295-4.268,0.602-6.39,0.816c-4.765,0.484-9.717,0.514-14.506,0.539c-2.299,0.014-4.676,0.027-7.005,0.092
		c-8.919,0.244-17.98,0.566-26.744,0.879c-6.054,0.217-12.108,0.432-18.164,0.625c-0.554-2.926-0.998-5.67-1.352-8.354
		c-0.373-2.824-0.641-5.705-0.799-8.586C81.909,350.855,98.116,350.732,116.021,350.73z M161.596,287.99
		c0.208-1.346,0.415-2.691,0.614-4.039c2.605,0.967,5.002,1.752,7.28,2.383c0.237,0.066,0.479,0.131,0.723,0.193
		c-1.1,1.096-2.263,2.147-3.401,3.18c-0.495,0.447-0.988,0.895-1.472,1.34c-1.661,1.529-3.091,3.216-4.475,4.845
		c-0.164,0.194-0.327,0.388-0.49,0.577C160.727,293.619,161.166,290.773,161.596,287.99z M325.044,132.999
		c5.151,20.347,2.501,43.312,0.163,63.578l-0.182,1.569c-0.922,8.013-1.794,15.581-3.611,23.249
		c-1.418,5.985-3.201,12.005-4.925,17.827c-0.631,2.131-1.263,4.261-1.878,6.396c-1.223,4.239-2.221,8.714-3.188,13.042
		c-2.205,9.89-4.485,20.115-9.642,28.611c-0.137,0.227-0.242,0.456-0.332,0.688c-0.275-0.284-0.688-0.391-1.111-0.073
		c-1.131,0.849-2.264,1.698-3.356,2.597c-3.157,0.59-6.528,0.965-10.15,1.141c1.647-1.153,3.314-2.28,4.956-3.444
		c1.043-0.739,0.045-2.476-1.01-1.728c-2.49,1.767-5.028,3.459-7.479,5.272c-0.432,0.005-0.855,0.017-1.296,0.017
		c-2.633,0-5.29-0.094-7.952-0.244c0.976-0.623,1.95-1.246,2.916-1.883c1.07-0.707,0.07-2.44-1.01-1.728
		c-1.73,1.144-3.484,2.245-5.205,3.397c-2.923-0.209-5.839-0.471-8.723-0.738c1.62-0.969,3.249-1.924,4.896-2.846
		c1.125-0.629,0.117-2.356-1.01-1.728c-2.444,1.368-4.852,2.802-7.24,4.261c-1.816-0.17-3.646-0.336-5.478-0.49
		c1.394-0.67,2.781-1.352,4.166-2.043c1.153-0.576,0.142-2.303-1.01-1.728c-2.386,1.192-4.777,2.371-7.208,3.462
		c-0.61-0.042-1.223-0.087-1.827-0.123c-1.474-0.088-2.953-0.154-4.433-0.223c0.848-0.453,1.689-0.916,2.525-1.391
		c1.122-0.635,0.114-2.363-1.01-1.727c-1.825,1.034-3.678,2.016-5.555,2.945c-3.317-0.121-6.632-0.217-9.921-0.288
		c2.633-1.255,5.268-2.503,7.879-3.8c1.155-0.573,0.142-2.299-1.01-1.727c-3.74,1.857-7.527,3.615-11.286,5.436
		c-0.764-0.016-1.535-0.031-2.294-0.047c-1.644-0.03-3.294-0.062-4.949-0.098c1.844-1.113,3.712-2.182,5.674-3.087
		c1.17-0.539,0.153-2.263-1.01-1.728c-2.918,1.347-5.633,3.047-8.358,4.731c-3.764-0.09-7.549-0.21-11.341-0.381
		c4.609-2.084,9.016-4.628,13.538-6.927c1.149-0.584,0.138-2.311-1.01-1.727c-5.691,2.893-11.186,6.202-17.172,8.412
		c-2.69-0.158-5.38-0.354-8.066-0.594c5.83-2.411,11.477-5.245,17.402-7.426c1.2-0.441,0.682-2.375-0.531-1.93
		c-4.637,1.707-9.1,3.812-13.613,5.805c0.815-1.393,1.047-3.027,0.659-4.77c-0.334-1.498-0.972-2.902-1.82-4.225
		c1.841-0.864,3.683-1.729,5.505-2.633c1.155-0.572,0.142-2.299-1.01-1.727c-1.883,0.934-3.786,1.825-5.688,2.719
		c-1.716-2.107-3.944-3.989-6.298-5.688c0.836-0.322,1.67-0.65,2.479-1.042c1.161-0.562,0.146-2.284-1.01-1.728
		c-1.113,0.537-2.271,0.967-3.423,1.414c-0.435-0.293-0.87-0.58-1.304-0.859c-1.98-1.28-4.04-2.436-6.138-3.516
		c0.52-0.187,1.048-0.348,1.594-0.471c1.259-0.281,0.725-2.21-0.531-1.929c-1.199,0.271-2.331,0.707-3.436,1.214
		c-3.185-1.535-6.433-2.921-9.649-4.261c3.514-1.538,7.017-3.1,10.509-4.688c1.173-0.532,0.155-2.256-1.01-1.727
		c-4.001,1.818-8.015,3.607-12.047,5.354l-0.131-0.054c-1.376-0.573-2.791-1.174-4.31-1.829c6.729-4.671,13.148-9.763,20.366-13.696
		c1.133-0.617,0.123-2.345-1.01-1.727c-6.428,3.502-12.219,7.925-18.162,12.151c2.763-2.937,5.413-6.052,7.946-9.334
		c6.163-3.824,11.958-8.193,17.643-12.722c1.009-0.804-0.416-2.209-1.414-1.414c-4.187,3.336-8.44,6.569-12.857,9.562
		c2.152-3.048,4.207-6.223,6.159-9.521c3.556-1.909,6.942-4.089,10.025-6.756c0.978-0.845-0.443-2.253-1.414-1.414
		c-2.089,1.807-4.331,3.372-6.671,4.782c1.366-2.473,2.659-4.986,3.892-7.523c3.379-2.264,6.652-4.689,10.206-6.685
		c1.124-0.632,0.116-2.359-1.01-1.727c-2.603,1.461-5.053,3.154-7.505,4.846c1.206-2.6,2.364-5.21,3.497-7.812
		c3.482-2.335,6.847-4.844,10.277-7.26c1.046-0.736,0.048-2.471-1.01-1.727c-2.6,1.831-5.167,3.707-7.771,5.529
		c0.274-0.639,0.551-1.278,0.823-1.914c0.638-1.485,1.275-2.971,1.918-4.454c0.226-0.52,0.446-1.037,0.67-1.556
		c3.542-2.612,7.033-5.293,10.629-7.831c1.045-0.736,0.047-2.472-1.01-1.727c-2.726,1.924-5.393,3.928-8.065,5.924
		c1.246-2.939,2.458-5.878,3.605-8.835c3.238-2.228,6.413-4.544,9.497-6.993c1.01-0.802-0.415-2.207-1.414-1.414
		c-2.235,1.775-4.521,3.477-6.844,5.125c0.86-2.332,1.672-4.684,2.428-7.059c2.343-1.556,4.716-3.069,7.062-4.624
		c1.069-0.708,0.069-2.441-1.01-1.727c-1.707,1.131-3.426,2.242-5.14,3.361c0.205-0.699,0.418-1.394,0.611-2.098
		c0.229-0.835,0.454-1.686,0.671-2.545l10.127-6.076c1.104-0.662,0.1-2.392-1.01-1.727l-8.479,5.087
		c0.346-1.582,0.646-3.189,0.867-4.808c2.988-1.822,6.036-3.544,9.099-5.246c1.127-0.626,0.119-2.354-1.01-1.727
		c-2.627,1.46-5.239,2.938-7.817,4.479c0.135-1.639,0.18-3.278,0.096-4.902c2.555-1.422,5.157-2.754,7.775-4.063
		c1.153-0.577,0.141-2.302-1.01-1.727c-2.341,1.171-4.668,2.362-6.962,3.615c-0.163-1.292-0.407-2.571-0.766-3.825
		c4.213-0.762,8.318-2.017,12.305-3.235c2.705-0.826,5.502-1.682,8.276-2.363c3.704-0.909,8.606-2.048,13.679-2.788
		c2.171-0.316,4.414-0.549,6.583-0.772c2.976-0.309,6.053-0.627,9.062-1.171c4.305-0.778,8.627-1.75,12.807-2.69
		c4.993-1.123,10.156-2.284,15.276-3.108c3.915-0.631,7.969-0.835,11.888-1.033c4.857-0.246,9.881-0.5,14.823-1.554
		c2.841-0.605,6.877-1.757,10.882-3.888c0.004,0.008,0.008,0.015,0.012,0.022C320.127,123.042,322.482,127.69,325.044,132.999z
		 M177.388,202.136c-0.949-0.899-1.909-1.791-2.876-2.674c1.418-0.015,2.829-0.123,4.236-0.445
		C178.295,200.056,177.846,201.099,177.388,202.136z M243.195,72.927c0.019-0.499,0.037-1,0.055-1.503
		c2.755,9.071,5.648,18.383,9.982,27.081c-2.86,0.743-5.905,1.461-9.372,2.212C242.513,91.538,242.86,82.084,243.195,72.927z
		 M234.333,34.802c1.117-2.326,2.319-4.608,3.81-6.714c0.453,0.145,0.877,0.374,1.265,0.668c-1.754,2.036-3.372,4.164-4.783,6.446
		C234.518,35.076,234.428,34.937,234.333,34.802z M236.242,36.39c1.331-2.174,2.853-4.201,4.514-6.142
		c0.377,0.601,0.657,1.266,0.807,1.94c-1.362,1.479-2.704,2.975-3.986,4.52C237.092,36.677,236.649,36.562,236.242,36.39z
		 M241.331,35.409c-0.278,0.767-0.712,1.475-1.29,2.088c-0.112-0.078-0.234-0.144-0.354-0.21
		C240.227,36.654,240.771,36.026,241.331,35.409z M235.722,28.153c-0.849,1.319-1.612,2.685-2.328,4.08
		c-0.002-0.016-0.007-0.031-0.008-0.046C233.317,31.421,233.306,28.997,235.722,28.153z M222.391,76.812h-0.005
		c-5.253-6.082-10.027-12.545-14.771-19.033c0.057-1.145,0.105-2.294,0.142-3.448c5.455,5.175,10.373,10.86,15.215,16.611
		C222.805,72.911,222.611,74.873,222.391,76.812z M215.597,76.094c-3.046-3.594-5.909-7.311-8.355-11.344
		c0.052-1,0.106-1.997,0.162-2.982c0.016-0.279,0.03-0.564,0.046-0.846c3.94,5.37,7.938,10.693,12.229,15.783
		C218.264,76.594,216.907,76.389,215.597,76.094z M207.812,51.657c0.017-1.396,0.014-2.793-0.032-4.188
		c0.045-0.013,0.086-0.019,0.131-0.03c5.104,5.529,10.357,10.918,15.46,16.448c-0.036,1.403-0.104,2.808-0.193,4.213
		C218.325,62.367,213.354,56.739,207.812,51.657z M222.409,49.602c0.234,1.249,0.411,2.517,0.559,3.793
		c-1.983-1.813-3.962-3.631-5.869-5.523c1.104,0.321,2.203,0.689,3.29,1.055L222.409,49.602z M213.753,47.1
		c0.033,0.169,0.099,0.338,0.245,0.493c2.921,3.099,6.137,5.885,9.249,8.783c0.102,1.522,0.14,3.06,0.148,4.602
		c-4.371-4.691-8.823-9.306-13.188-14.003c0.394-0.042,0.795-0.069,1.21-0.069C212.19,46.906,212.97,46.979,213.753,47.1z
		 M211.258,74.712c-0.966-0.407-1.933-0.841-2.902-1.275c-0.464-0.207-0.929-0.415-1.394-0.621c0.017-0.148,0.024-0.299,0.025-0.451
		c0.007-1.365,0.048-2.744,0.099-4.123c1.571,2.359,3.28,4.617,5.065,6.82C211.852,74.948,211.553,74.837,211.258,74.712z
		 M235.223,74.221l-0.026,0.742c-1.585,0.409-3.091,0.746-4.549,1.018c0.771-7.214,1.311-15.38,0.403-23.481
		c1.342,0.438,2.778,0.893,4.26,1.332C235.719,60.584,235.468,67.511,235.223,74.221z M193.837,133.397
		c3.378-1.85,6.625-3.938,9.997-5.805c1.128-0.624,0.119-2.352-1.01-1.727c-4.515,2.501-8.806,5.396-13.488,7.588
		c-0.051,0.023-0.076,0.061-0.119,0.089c-1.54-0.043-2.706-0.223-3.576-0.509c2.708-1.505,5.316-3.186,8.077-4.598
		c1.148-0.587,0.137-2.312-1.01-1.727c-3.069,1.568-5.947,3.474-8.987,5.094c-0.484-0.634-0.617-1.384-0.628-2.156
		c-0.003-0.225,0.025-0.443,0.065-0.66c0.143-0.008,0.291-0.044,0.443-0.13c2.904-1.633,5.946-3.003,8.852-4.637
		c1.124-0.632,0.116-2.359-1.01-1.727c-1.804,1.015-3.659,1.931-5.504,2.868c2.465-1.79,5.957-3.099,8.085-3.892l0.651-0.244
		c12.957-4.883,26.734-7.646,40.059-10.32c3.826-0.768,7.784-1.562,11.673-2.396c7.487-1.606,14.937-3.85,22.14-6.02
		c11.513-3.467,23.416-7.052,35.577-8.035c0.594-0.048,1.204-0.072,1.813-0.072c4.797,0,11.062,1.593,14.261,6.062
		c0.979,1.368,1.297,2.672,0.971,3.983c-0.634,2.549-3.798,5.354-8.91,7.9c-0.196,0.099-0.398,0.186-0.6,0.278
		c1.188-1.132,2.397-2.239,3.656-3.297c0.987-0.831-0.435-2.238-1.414-1.414c-2.363,1.986-4.563,4.142-6.745,6.323
		c-0.024,0.024-0.03,0.052-0.051,0.077c-0.874,0.249-1.762,0.463-2.655,0.65c0.829-0.731,1.644-1.483,2.435-2.265
		c0.92-0.906-0.495-2.32-1.414-1.414c-1.56,1.539-3.197,2.969-4.899,4.321c-3.396,0.433-6.871,0.584-10.307,0.71
		c1.204-0.897,2.402-1.804,3.554-2.773c0.986-0.833-0.436-2.24-1.414-1.414c-1.812,1.527-3.733,2.915-5.635,4.328
		c-0.601,0.025-1.209,0.044-1.804,0.075c-1.18,0.061-2.356,0.168-3.533,0.293c0.969-0.622,1.938-1.243,2.91-1.862
		c1.084-0.689,0.082-2.421-1.01-1.727c-2.186,1.391-4.364,2.789-6.526,4.213c-3.729,0.613-7.43,1.445-11.07,2.305
		c1.556-1.046,3.131-2.066,4.697-3.104c1.068-0.709,0.068-2.442-1.011-1.727c-2.988,1.981-6.006,3.906-8.863,6.058
		c-1.583,0.372-3.172,0.739-4.739,1.074c-1.31,0.28-2.635,0.525-3.964,0.753c1.502-1.096,3.008-2.186,4.447-3.364
		c0.999-0.817-0.426-2.224-1.414-1.414c-2.322,1.901-4.812,3.581-7.185,5.417c-1.941,0.273-3.877,0.52-5.794,0.755
		c1.358-0.83,2.721-1.653,4.074-2.493c1.093-0.679,0.09-2.409-1.01-1.727c-2.581,1.602-5.203,3.134-7.737,4.804
		c-2.627,0.338-5.279,0.714-7.919,1.187c1.567-0.94,3.189-1.8,4.863-2.578c1.169-0.543,0.152-2.267-1.01-1.727
		c-3.213,1.493-6.245,3.281-9.048,5.396c-1.335,0.324-2.669,0.678-3.995,1.062c0.049-0.03,0.095-0.064,0.144-0.095
		c1.098-0.673,0.094-2.402-1.01-1.727c-1.894,1.16-3.698,2.446-5.481,3.763c-3.16,0.989-6.377,1.977-9.618,2.71
		c1.857-1.16,3.714-2.321,5.571-3.48c1.091-0.682,0.088-2.413-1.01-1.728c-3.264,2.039-6.526,4.079-9.789,6.118
		c-0.374,0.045-0.747,0.099-1.12,0.133c-0.58-0.322-1.245-0.49-1.955-0.49h-0.048C195.233,133.319,194.555,133.356,193.837,133.397z
		 M120.607,138.651c-0.138-0.292-0.247-0.566-0.371-0.85c0.725,0.936,1.471,1.854,2.298,2.702c0.901,0.925,2.314-0.491,1.414-1.414
		c-1.887-1.936-3.384-4.209-5.058-6.323c-0.103-0.13-0.216-0.219-0.333-0.273c-0.29-1.877-0.092-3.338,0.633-4.238
		c1.243,2.242,2.066,4.68,3.188,6.988c0.562,1.16,2.287,0.146,1.727-1.01c-0.754-1.553-1.374-3.162-2.076-4.731
		c0.734,0.458,1.628,1.078,2.72,1.93c6.468,5.048,11.929,11.572,17.209,17.882l1.745,2.083c4.334,5.153,9.112,10.062,13.734,14.809
		c1.8,1.85,3.599,3.697,5.373,5.56c4.453,4.676,8.074,8.586,11.396,12.308c1.706,1.911,3.509,3.998,5.511,6.382l0.353,0.409
		c0.303,0.35,0.592,0.682,0.813,1.021c0.115,0.364,0.286,0.718,0.511,1.056l-0.82,1.893c-0.349,0.805-0.702,1.605-1.051,2.409
		c-0.218-0.214-0.521-0.34-0.906-0.24c-2.095,0.546-4.214,0.507-6.345,0.441c-1.678-1.501-3.359-2.979-5.03-4.437
		c0.991,0.238,1.972,0.546,2.944,0.866c1.229,0.404,1.751-1.527,0.531-1.929c-2.027-0.667-4.128-1.286-6.263-1.38
		c-1.714-1.496-3.43-2.99-5.125-4.508c-0.603-0.539-1.193-1.088-1.783-1.637c1.556,0.277,3.102,0.601,4.631,1.022
		c1.245,0.344,1.773-1.586,0.531-1.929c-2.533-0.698-5.111-1.133-7.705-1.516c-1.293-1.265-2.546-2.539-3.766-3.811
		c1.271,0.247,2.534,0.538,3.773,0.933c1.232,0.392,1.756-1.54,0.531-1.929c-2.149-0.684-4.36-1.08-6.584-1.416
		c-1.503-1.616-2.937-3.205-4.299-4.739c0.919,0.18,1.841,0.342,2.765,0.496c1.261,0.211,1.802-1.717,0.531-1.929
		c-1.88-0.313-3.763-0.633-5.589-1.166l-0.396-0.449c-1.199-1.362-2.407-2.74-3.615-4.13c1.191,0.329,2.378,0.673,3.589,0.93
		c1.258,0.268,1.793-1.66,0.531-1.929c-2.14-0.454-4.207-1.176-6.354-1.602c-0.986-1.158-1.958-2.329-2.921-3.509
		c1.734,0.686,3.516,1.229,5.372,1.56c1.261,0.226,1.8-1.702,0.531-1.929c-2.572-0.459-5.001-1.282-7.349-2.428
		c-0.291-0.143-0.572-0.138-0.812-0.045c-0.593-0.761-1.196-1.516-1.77-2.286c-0.051-0.271-0.118-0.514-0.175-0.775
		c1.701,0.778,3.401,1.561,5.119,2.304c1.171,0.507,2.19-1.216,1.01-1.728c-2.282-0.987-4.533-2.043-6.802-3.061
		c-0.236-0.708-0.497-1.381-0.794-2.006c0.778,0.457,1.565,0.901,2.371,1.313c1.146,0.585,2.159-1.141,1.01-1.727
		c-2.646-1.351-5.118-2.991-7.587-4.637c-0.318-0.213-0.629-0.207-0.883-0.08C121.781,141.017,121.159,139.828,120.607,138.651z
		 M120.386,222.866c3.996-9.387,5.879-19.438,7.192-28.031c1.519-9.93,2.294-19.5,2.308-28.466c2.129,2.528,4.299,5.023,6.418,7.461
		c1.258,1.447,2.517,2.895,3.768,4.349c6.242,7.258,13.483,13.607,20.486,19.747c4.419,3.874,8.983,7.876,13.24,12.06
		c-2.126,4.479-4.065,8.214-6.065,11.687c-5.911,10.262-13.111,19.427-21.412,27.255c-2.897-1.331-5.507-2.564-7.952-3.76
		l-4.444-2.165c-5.355-2.604-10.893-5.298-16.267-8.072c-1.258-0.648-2.505-1.316-3.712-1.974
		C116.981,230.22,118.958,226.221,120.386,222.866z M67.113,236.093c-0.334-1.329-0.493-2.696-0.513-4.099
		c-0.018-1.289-2.018-1.291-2,0c0.014,1.021,0.098,2.022,0.257,3.005c-0.65-0.362-1.313-0.768-1.964-1.21
		c-0.426-1.369-0.701-2.798-0.965-4.243c-0.231-1.267-2.158-0.729-1.929,0.532c0.104,0.57,0.215,1.138,0.332,1.702
		c-1.553-1.421-2.678-2.945-2.722-4.269c-0.012-0.399-0.053-1.615,2.441-2.939c1.934-1.027,4.289-1.548,7-1.548
		c5.042,0,10.398,1.712,15.023,3.316c6.543,2.27,13.318,5.5,21.967,10.474c8.189,4.71,16.812,8.894,25.149,12.938l2.877,1.396
		c4.048,1.967,8.233,4,12.395,5.914c0.523,0.394,1.116,0.662,1.735,0.789c2.546,1.151,4.837,2.146,6.999,3.04l1.328,0.549
		c6.696,2.764,13.621,5.62,19.982,9.248c3.073,1.752,5.529,3.538,7.509,5.461l0.315,0.301c1.857,1.754,2.632,2.723,2.951,3.242
		c-0.44,0.088-1.237,0.178-2.669,0.178h-0.084c-0.517-1.256-1.087-2.484-1.795-3.654c-0.667-1.102-2.396-0.098-1.727,1.01
		c0.433,0.715,0.801,1.457,1.146,2.209c-0.834-0.473-1.809-0.652-2.721-0.518c-0.449-1.262-0.872-2.532-1.234-3.826
		c-0.347-1.239-2.276-0.712-1.928,0.531c0.348,1.24,0.751,2.459,1.179,3.668c-0.383-0.064-0.767-0.127-1.146-0.2
		c-0.454-0.087-0.91-0.183-1.372-0.287c-0.566-1.5-1.058-3.032-1.642-4.53c-0.463-1.188-2.397-0.671-1.928,0.532
		c0.438,1.125,0.825,2.267,1.228,3.403c-0.573-0.16-1.156-0.33-1.754-0.518c-0.4-1.677-0.753-3.363-1.092-5.055
		c-0.253-1.264-2.181-0.729-1.928,0.531c0.253,1.264,0.512,2.523,0.793,3.779c-0.872-0.307-1.771-0.637-2.715-1.004
		c-0.398-1.545-0.743-3.104-1.06-4.672c-0.255-1.264-2.182-0.727-1.928,0.532c0.201,0.999,0.417,1.993,0.646,2.983
		c-0.419-0.301-0.902-0.518-1.437-0.629c-0.631-1.754-1.251-3.51-1.645-5.342c-0.27-1.261-2.198-0.726-1.928,0.532
		c0.293,1.367,0.713,2.691,1.169,4.005c-0.753-0.33-1.507-0.66-2.255-0.992c-0.21-1.826-0.456-3.646-0.805-5.453
		c-0.243-1.267-2.171-0.729-1.928,0.531c0.255,1.324,0.453,2.654,0.622,3.989c-0.649-0.286-1.298-0.571-1.942-0.854
		c-0.16-1.215-0.25-2.438-0.261-3.674c-0.012-1.289-2.012-1.289-2,0c0.008,0.926,0.067,1.85,0.154,2.769
		c-0.109-0.046-0.22-0.097-0.329-0.142c-0.59-0.248-1.182-0.504-1.772-0.752c-0.367-1.705-0.634-3.432-0.998-5.141
		c-0.269-1.261-2.196-0.727-1.928,0.531c0.259,1.216,0.465,2.441,0.694,3.662c-1.078-0.459-2.154-0.911-3.233-1.373
		c-0.229-1.504-0.523-2.994-0.987-4.457c-0.389-1.225-2.319-0.7-1.928,0.531c0.313,0.986,0.541,1.985,0.732,2.99
		c-0.887-0.38-1.771-0.763-2.657-1.146c-0.303-1.168-0.644-2.327-1.057-3.467c-0.436-1.203-2.369-0.685-1.928,0.531
		c0.229,0.635,0.434,1.274,0.625,1.92c-0.916-0.396-1.831-0.791-2.746-1.188c-0.378-1.513-0.756-3.024-1.134-4.536
		c-0.312-1.251-2.241-0.721-1.928,0.531c0.25,0.998,0.5,1.998,0.749,2.996c-0.983-0.428-1.968-0.855-2.948-1.283
		c-0.183-1.109-0.333-2.225-0.473-3.342c-0.158-1.262-2.16-1.277-2,0c0.101,0.803,0.207,1.604,0.32,2.402
		c-0.813-0.354-1.614-0.707-2.425-1.062c-0.351-1.245-0.633-2.509-0.805-3.796c-0.169-1.259-2.171-1.275-2,0
		c0.127,0.943,0.302,1.869,0.506,2.789c-0.581-0.254-1.167-0.512-1.747-0.766c-0.507-1.205-1.006-2.415-1.432-3.654
		c-0.415-1.213-2.348-0.691-1.928,0.531c0.229,0.668,0.482,1.325,0.744,1.979c-0.637-0.278-1.274-0.556-1.911-0.833
		c-0.285-1.209-0.58-2.414-0.996-3.587c-0.428-1.207-2.36-0.687-1.928,0.531c0.238,0.673,0.433,1.358,0.612,2.047
		c-0.671-0.293-1.342-0.585-2.013-0.878c-0.321-1.029-0.646-2.058-1.035-3.063c-0.459-1.189-2.394-0.673-1.928,0.531
		c0.188,0.484,0.353,0.976,0.52,1.467c-0.602-0.263-1.204-0.526-1.806-0.788c-0.197-0.587-0.392-1.175-0.604-1.756
		c-0.438-1.2-2.372-0.682-1.928,0.532c0.017,0.047,0.032,0.094,0.049,0.141c-1.011-0.439-2.02-0.885-3.031-1.323
		c-0.09-0.69-0.165-1.385-0.235-2.083c-0.128-1.271-2.129-1.283-2,0c0.022,0.221,0.045,0.44,0.068,0.661
		c-0.375-0.222-0.78-0.381-1.197-0.48c-0.266-1.324-0.502-2.656-0.726-3.992c-0.212-1.27-2.139-0.729-1.928,0.531
		c0.167,1.001,0.343,1.999,0.529,2.995c-0.755-0.323-1.51-0.646-2.265-0.968c-0.312-1.604-0.444-3.271-0.7-4.741
		c-0.22-1.269-2.147-0.729-1.928,0.532c0.138,0.792,0.252,1.602,0.373,2.414c-0.348-0.237-0.727-0.438-1.154-0.567
		c-0.098-0.029-0.197-0.054-0.295-0.082c-0.271-1.493-0.543-2.985-0.814-4.479c-0.23-1.268-2.157-0.729-1.928,0.532
		c0.203,1.116,0.406,2.232,0.609,3.349c-1.039-0.284-2.067-0.562-3.1-0.825c-0.408-1.437-0.689-2.903-0.728-4.426
		c-0.032-1.287-2.032-1.29-2,0c0.034,1.323,0.232,2.605,0.53,3.864c-1.219-0.307-2.445-0.618-3.673-0.944
		c-0.466-2.065-0.896-4.139-1.438-6.186c-0.33-1.246-2.26-0.717-1.929,0.531c0.442,1.673,0.812,3.363,1.185,5.052
		c-0.777-0.222-1.553-0.454-2.323-0.698c-0.428-1.879-0.688-3.797-1.023-5.703c-0.224-1.269-2.15-0.729-1.929,0.531
		c0.26,1.479,0.475,2.968,0.757,4.438C69.042,236.89,68.071,236.505,67.113,236.093z M140.543,274.781
		c-2.155,2.164-4.363,4.308-6.513,6.395c-0.36,0.35-0.721,0.697-1.08,1.048c0.844-3.321,1.711-6.485,2.62-9.556
		C137.227,273.375,138.885,274.08,140.543,274.781z M139.892,286.848c2.875-2.785,5.839-5.658,8.685-8.6l0.372,0.164
		c1.832,0.81,3.671,1.621,5.519,2.414c-0.302,2.238-0.649,4.494-0.986,6.686c-0.697,4.527-1.415,9.189-1.766,13.876
		c-3.485-1.378-6.967-2.903-10.351-4.385c-2.687-1.179-5.454-2.39-8.222-3.527C135.373,291.229,137.664,289.01,139.892,286.848z
		 M108.265,265.654c0.161-1.535,0.326-3.105,0.469-4.681l8.732,3.834c-2.171,4.364-5.721,9.022-10.067,13.228
		C107.401,273.898,107.84,269.721,108.265,265.654z M124.875,268.048c1.051,0.458,2.102,0.915,3.153,1.37
		c-1.811,6.014-3.504,12.566-5.153,19.943c-3.628-1.445-7.343-2.93-11.02-4.429C116.178,280.914,121.357,275.136,124.875,268.048z
		 M99.265,279.604c-4.408-2.004-8.786-4.161-13.039-6.258c-0.747-0.368-1.493-0.735-2.241-1.104
		c0.827-1.308,1.638-2.631,2.429-3.924c2.766-4.521,5.619-9.186,9.191-13.082c1.76,0.764,3.519,1.529,5.277,2.299
		c-0.037,0.184-0.062,0.371-0.075,0.563c-0.168,2.413-0.427,4.875-0.677,7.257C99.64,270.009,99.138,274.797,99.265,279.604z
		 M75.247,268c0.037-3.377,0.425-6.842,0.8-10.19c0.366-3.274,0.743-6.642,0.811-10.02c0.503,0.124,1.004,0.246,1.503,0.368
		c1.549,0.377,3.08,0.751,4.576,1.144c0.384,0.492,0.907,0.885,1.545,1.155c1.092,0.463,2.182,0.929,3.272,1.396
		c-3.104,3.796-5.694,8.009-8.209,12.101c-0.957,1.559-1.94,3.158-2.942,4.717c-0.45-0.215-0.902-0.43-1.355-0.643
		C75.247,268.018,75.247,268.009,75.247,268z M45.038,267.873c0.004-0.004,0.381-0.383,2.104-0.383c0.938,0,2.086,0.115,3.412,0.34
		c4.816,0.818,9.512,2.609,13.906,4.375c5.4,2.168,10.698,4.822,15.822,7.389c1.953,0.979,3.906,1.957,5.872,2.913
		c11.255,5.479,23.046,10.164,34.449,14.694c6.754,2.685,13.737,5.459,20.52,8.363l2.382,1.026
		c3.864,1.668,7.858,3.394,11.951,4.847c3.536,1.256,7.307,2.872,8.209,6.172c-0.234,0.221-0.478,0.424-0.737,0.604
		c-0.616-0.716-1.298-1.388-1.978-2.062c-0.916-0.91-2.33,0.504-1.414,1.414c0.521,0.516,1.056,1.025,1.552,1.562
		c-0.858,0.292-1.779,0.47-2.737,0.548c-0.788-1.466-1.538-2.949-2.494-4.32c-0.731-1.051-2.466-0.052-1.727,1.01
		c0.744,1.067,1.361,2.205,1.971,3.351c-1.535-0.056-3.07-0.248-4.457-0.446c-0.38-0.615-0.739-1.244-1.037-1.914
		c-0.522-1.177-2.245-0.158-1.727,1.01c0.083,0.188,0.183,0.362,0.273,0.545c-0.481-0.069-0.965-0.139-1.445-0.209
		c-0.704-1.508-1.433-2.984-2.508-4.297c-0.817-0.998-2.225,0.426-1.414,1.414c0.631,0.771,1.123,1.627,1.565,2.514
		c-1.224-0.2-2.443-0.42-3.656-0.688c-0.571-1.28-1.167-2.552-1.839-3.786c-0.616-1.134-2.344-0.123-1.727,1.01
		c0.385,0.705,0.738,1.426,1.083,2.149c-0.28-0.079-0.561-0.155-0.84-0.241c-0.215-0.065-0.404-0.055-0.569,0.002
		c-0.113-0.061-0.227-0.121-0.34-0.184c-0.603-1.938-1.399-3.811-2.007-5.748c-0.384-1.227-2.315-0.701-1.928,0.531
		c0.379,1.209,0.839,2.391,1.277,3.578c-0.936-0.643-1.854-1.328-2.771-2.045c-0.58-1.838-1.035-3.713-1.579-5.564
		c-0.362-1.234-2.292-0.709-1.928,0.531c0.28,0.957,0.539,1.919,0.802,2.879c-1.076-0.863-2.176-1.729-3.311-2.562l-0.813-2.848
		c-0.354-1.238-2.283-0.711-1.928,0.531l0.156,0.546c-0.847-0.537-1.71-1.052-2.586-1.545c-0.339-1.603-0.774-3.181-1.143-4.782
		c-0.288-1.257-2.217-0.725-1.928,0.531c0.229,1.001,0.5,1.994,0.753,2.992c-1.281-0.662-2.58-1.293-3.886-1.9
		c-0.241-0.712-0.494-1.419-0.79-2.111c-0.498-1.166-2.171-0.188-1.736,0.963c-0.637-0.285-1.271-0.567-1.906-0.848
		c-0.262-0.871-0.516-1.746-0.757-2.627c-0.341-1.242-2.271-0.714-1.928,0.531c0.096,0.348,0.196,0.693,0.294,1.041
		c-0.298-0.133-0.596-0.264-0.893-0.396c-0.499-1.434-1.145-2.806-1.824-4.166c-0.576-1.152-2.302-0.141-1.727,1.01
		c0.334,0.67,0.657,1.338,0.958,2.018c-0.573-0.254-1.151-0.505-1.729-0.756c-0.371-1.025-0.771-2.037-1.252-3.021
		c-0.565-1.158-2.29-0.145-1.727,1.01c0.146,0.302,0.282,0.605,0.413,0.912c-0.639-0.27-1.282-0.531-1.925-0.797
		c-0.307-0.849-0.521-1.727-0.661-2.636c-0.194-1.271-2.121-0.729-1.928,0.531c0.059,0.383,0.134,0.761,0.218,1.135
		c-1.069-0.428-2.147-0.846-3.227-1.261c-0.34-1.109-0.63-2.234-0.777-3.391c-0.161-1.26-2.163-1.275-2,0
		c0.109,0.86,0.292,1.697,0.498,2.524c-0.984-0.368-1.972-0.733-2.962-1.091c-0.482-1.217-0.871-2.471-1.322-3.699
		c-0.44-1.199-2.374-0.682-1.928,0.531c0.277,0.755,0.534,1.518,0.798,2.275c-0.219-0.078-0.434-0.154-0.652-0.234
		c-0.633-0.229-1.27-0.46-1.909-0.689c-0.376-1.32-0.809-2.619-1.409-3.871c-0.558-1.162-2.281-0.147-1.727,1.01
		c0.318,0.662,0.571,1.348,0.803,2.039c-0.88-0.303-1.765-0.598-2.654-0.877c-0.541-1.515-1.151-2.998-1.922-4.422
		c-0.613-1.135-2.34-0.125-1.727,1.01c0.476,0.879,0.875,1.783,1.244,2.699c-0.652-0.181-1.307-0.353-1.963-0.508
		c-0.282-0.978-0.542-1.959-0.703-2.963c-0.205-1.271-2.133-0.729-1.93,0.531c0.101,0.623,0.245,1.234,0.402,1.845
		c-0.451-0.253-0.899-0.509-1.35-0.764c-0.369-1.455-0.668-2.931-1.123-4.362c-0.391-1.225-2.321-0.701-1.93,0.531
		c0.26,0.816,0.464,1.646,0.662,2.479c-0.715-0.406-1.438-0.815-2.162-1.226c-0.274-1.062-0.515-2.133-0.753-3.205
		c-0.28-1.258-2.208-0.726-1.929,0.532c0.1,0.449,0.201,0.896,0.304,1.345c-0.517-0.286-1.03-0.571-1.55-0.854
		c-0.238-1.069-0.476-2.139-0.713-3.209c-0.28-1.258-2.209-0.725-1.93,0.531c0.107,0.481,0.215,0.963,0.321,1.443
		c-0.809-0.422-1.625-0.83-2.444-1.232c-0.227-1.041-0.422-2.086-0.529-3.148c-0.129-1.271-2.13-1.283-2,0
		c0.07,0.693,0.176,1.382,0.299,2.064c-0.537-0.252-1.172-0.553-1.863-0.899c-0.187-0.966-0.372-1.933-0.603-2.89
		c-0.302-1.254-2.23-0.723-1.929,0.531c0.09,0.372,0.168,0.746,0.247,1.12c-0.362-0.214-0.72-0.437-1.069-0.667
		c-0.119-0.734-0.238-1.472-0.408-2.199c-0.275-1.181-1.973-0.771-1.936,0.323C45.268,270.156,44.686,269.021,45.038,267.873z
		 M45.262,365.496c-0.291,3.254-0.29,6.324,0.004,9.307c-1.071,0.09-2.199,0.133-3.412,0.133c-2.682,0-5.439-0.217-8.117-0.436
		c0.092-2.463,0.035-4.928-0.023-7.326c1.767-0.154,3.521-0.553,5.229-0.939C38.942,366.234,44.209,365.623,45.262,365.496z
		 M49.473,390.457c0.161,1.338,0.393,2.658,0.62,3.947c0.146,0.83,0.295,1.678,0.423,2.523c-1.775,0.15-3.533,0.41-5.246,0.662
		c-2.121,0.312-4.149,0.611-6.204,0.719c0.013-0.998,0.006-1.99-0.001-2.963c-0.01-1.531-0.021-3.105,0.047-4.656
		c1.32-0.191,2.623-0.223,3.768-0.223c0.697,0,1.396,0.014,2.096,0.027C44.975,390.494,48.848,390.494,49.473,390.457z
		 M39.827,410.98c0.201-0.201,0.422-0.375,0.671-0.508c1.138-0.607,0.128-2.334-1.01-1.729c-1.028,0.549-1.693,1.529-2.312,2.506
		c-2.052,0.221-4.099,0.463-6.139,0.729c0.554-0.555,1.108-1.107,1.663-1.662c0.912-0.912-0.502-2.326-1.414-1.414
		c-1.172,1.172-2.344,2.344-3.516,3.516c-2.095,0.289-4.182,0.588-6.256,0.895c1.54-1.686,3.08-3.371,4.686-4.996
		c0.907-0.918-0.507-2.332-1.414-1.414c-2.205,2.23-4.287,4.576-6.415,6.877c-0.113,0.018-0.228,0.033-0.341,0.051l-2.837,0.42
		c1.193-1.174,2.448-2.281,3.805-3.275c1.028-0.756,0.032-2.49-1.01-1.729c-1.272,0.936-2.458,1.959-3.593,3.035
		c-0.527-1.654-1.023-3.348-1.49-5.08c2.578-2.65,5.508-4.961,8.295-7.385c0.975-0.848-0.445-2.256-1.414-1.414
		c-2.514,2.186-5.09,4.285-7.457,6.6c-0.307-1.229-0.595-2.479-0.871-3.742c1.416-1.797,2.967-3.484,4.742-4.941
		c0.998-0.818-0.426-2.227-1.414-1.414c-1.406,1.154-2.684,2.449-3.863,3.828c-0.285-1.436-0.547-2.898-0.795-4.375
		c2.281-1.973,4.432-4.098,6.87-5.883c1.028-0.754,0.032-2.49-1.01-1.729c-2.211,1.619-4.185,3.518-6.233,5.324
		c-0.168-1.098-0.326-2.207-0.473-3.326c-0.096-0.736-0.172-1.438-0.256-2.156c2.033-1.854,4.186-3.568,6.472-5.113
		c1.062-0.719,0.062-2.451-1.01-1.729c-2.005,1.355-3.911,2.844-5.735,4.428c-0.157-1.535-0.281-3.023-0.383-4.479l5.628-4.221
		c1.019-0.766,0.023-2.502-1.01-1.729l-4.771,3.58c-0.103-2.041-0.135-3.994-0.12-5.896c2.027-1.547,4.103-3.029,6.103-4.613
		c1.012-0.801-0.414-2.205-1.414-1.414c-1.52,1.203-3.082,2.348-4.635,3.506c0.049-1.355,0.125-2.68,0.236-3.977
		c1.172-0.871,2.43-1.67,3.61-2.459c1.065-0.715,0.065-2.447-1.01-1.729c-0.759,0.51-1.546,1.023-2.327,1.553
		c0.052-0.43,0.093-0.867,0.152-1.293c2.424-0.543,4.846-1.17,7.197-1.779c6.414-1.66,13.046-3.377,19.721-3.377
		c0.193,0,0.386,0,0.582,0.004c0.068,0.893,0.146,1.777,0.232,2.646c-2.14,0.516-4.344,0.844-5.803,0.326
		c-2.229-0.789-4.432,0.488-4.994,2.777c-0.182,0.475-0.271,0.984-0.267,1.52c0.011,1.414,0.062,2.836,0.113,4.258
		c0.108,2.996,0.22,6.092-0.083,9.061c-0.441,1.066-0.426,2.324,0.052,3.422s1.351,1.893,2.465,2.246
		c0.812,0.35,1.71,0.455,2.515,0.297l1.961,0.141c1.396,0.102,2.812,0.205,4.238,0.287c-0.987,0.176-1.928,0.682-2.984,0.822
		c-3.513,0.473-2.645,4.678-2.646,4.703c-0.236,2.354-0.215,4.709-0.195,6.986c0.02,2.338,0.039,4.547-0.191,6.771
		c-0.252,2.408,1.816,3.973,3.888,4.219c0.958,0.115,1.931,0.172,2.976,0.172c2.763,0,5.494-0.404,8.135-0.795
		c1.204-0.18,2.439-0.361,3.665-0.502c0.515,1.682,1.091,3.365,1.726,5.037C47.345,410.354,43.579,410.621,39.827,410.98z
		 M472.793,331.178c-2.589,4.646-8.024,7.768-13.526,7.768c-2.479,0-4.854-0.64-6.875-1.852c-1.644-0.984-2.094-2.691-2.216-3.621
		c-0.242-1.852,0.329-3.748,1.493-4.951c0.692-0.715,2.149-1.644,3.432-1.996c-0.663,0.904-1.283,1.842-1.902,2.77
		c-0.718,1.076,1.016,2.076,1.727,1.01c0.694-1.041,1.39-2.092,2.154-3.084c0.311,0.828,0.831,1.497,1.504,1.955
		c-0.129,0.182-0.261,0.359-0.411,0.52c-0.886,0.938,0.526,2.354,1.414,1.414c0.359-0.38,0.654-0.812,0.928-1.261
		c0.134,0.013,0.266,0.03,0.403,0.03c1.38,0,2.705-0.646,3.456-1.689c0.562-0.779,0.764-1.712,0.623-2.682
		c1.363-0.148,2.753-0.127,4.12-0.127c1.29-0.001,1.29-2.001,0-2c-1.581,0-3.193-0.014-4.77,0.195
		c-0.251-0.543-0.527-1.059-0.852-1.522c1.452-0.558,2.776-1.272,3.918-2.386c0.925-0.902-0.491-2.315-1.414-1.414
		c-1.084,1.057-2.352,1.669-3.772,2.15c-0.062,0.021-0.1,0.061-0.151,0.088c-1.229-1.08-2.724-1.795-4.45-2.053
		c-0.036-0.31-0.092-0.623-0.19-0.949c-0.375-1.229-2.307-0.705-1.929,0.531c0.035,0.114,0.058,0.223,0.08,0.332
		c-1.605,0.071-3.291,0.479-4.909,1.219c-0.229,0.105-0.439,0.231-0.663,0.347c-0.389-0.472-0.765-0.952-1.11-1.464
		c-0.719-1.061-2.453-0.062-1.728,1.011c0.348,0.512,0.721,0.998,1.104,1.476c-1.517,1.025-2.785,2.264-3.771,3.687
		c-0.538-0.209-1.074-0.423-1.622-0.608c-1.225-0.416-1.745,1.516-0.53,1.93c0.377,0.127,0.746,0.277,1.117,0.418
		c-0.465,0.951-0.823,1.959-1.063,3.021c-0.006,0.005-0.01,0.012-0.015,0.016h-4.593c-1.29,0-1.29,2,0,2h3.296
		c-0.091,0.342-0.152,0.699-0.154,1.078c-0.01,1.397-0.062,2.803-0.138,4.211c-1.102,0.073-2.185,0.229-3.27,0.574
		c-1.225,0.391-0.701,2.32,0.531,1.93c0.879-0.28,1.743-0.418,2.621-0.49c-0.086,1.144-0.194,2.291-0.322,3.443
		c-1.21,0.433-2.479,1.066-3.77,1.104c-1.286,0.037-1.29,2.037,0,2c1.215-0.035,2.354-0.46,3.486-0.882
		c-0.192,1.426-0.412,2.857-0.671,4.302h-2.213c-1.29,0-1.29,1.999,0,1.999h1.825c-0.309,1.539-0.646,3.088-1.028,4.652
		c-1.071,0.061-2.096,0.238-3.107,0.711c-1.168,0.543-0.152,2.268,1.01,1.727c0.507-0.234,1.036-0.35,1.574-0.406
		c-0.399,1.51-0.823,3.027-1.293,4.564h-3.195c-1.29,0-1.29,2,0,2h2.557c-0.494,1.527-1.011,3.066-1.575,4.625h-2.788
		c-1.289,0-1.289,2,0,2h2.04c-0.427,1.131-0.871,2.271-1.336,3.42h-1.907c-1.29,0-1.29,2,0,2h1.099
		c-0.591,1.412-1.217,2.844-1.862,4.285c-0.589-0.188-1.16-0.438-1.742-0.729c-1.149-0.574-2.163,1.148-1.01,1.727
		c0.643,0.32,1.278,0.59,1.928,0.812c-0.733,1.594-1.489,3.201-2.29,4.834c-0.296-0.16-0.577-0.352-0.835-0.592
		c-0.937-0.887-2.354,0.525-1.413,1.412c0.412,0.393,0.868,0.699,1.358,0.963c-0.679,1.355-1.37,2.703-2.072,4.047
		c-0.895-0.375-1.926,0.82-1.094,1.615c0.052,0.049,0.113,0.094,0.168,0.143c-0.894,1.678-1.799,3.334-2.708,4.969
		c-0.507-0.105-1.023-0.184-1.569-0.193c-1.29-0.025-1.288,1.975,0,2c0.185,0.004,0.355,0.031,0.532,0.051
		c-0.609,1.084-1.219,2.152-1.824,3.209c-0.605-0.303-1.212-0.605-1.816-0.908c-1.15-0.574-2.163,1.15-1.01,1.727
		c0.608,0.307,1.218,0.609,1.825,0.914c-0.69,1.191-1.376,2.365-2.05,3.51c-0.559-0.324-1.088-0.699-1.575-1.176
		c-0.924-0.9-2.339,0.514-1.413,1.414c0.607,0.596,1.271,1.066,1.976,1.475c-0.286,0.48-0.576,0.973-0.856,1.443
		c-0.316,0.533-0.65,1.08-0.982,1.627c-0.624-0.465-1.244-0.934-1.936-1.297c-1.141-0.602-2.15,1.125-1.01,1.727
		c0.676,0.355,1.284,0.814,1.896,1.27c-0.494,0.791-1.006,1.59-1.534,2.396c-1.082-0.564-1.904-1.367-2.763-2.227
		c-0.913-0.912-2.327,0.502-1.414,1.414c0.942,0.943,1.894,1.846,3.071,2.48c-1.041,1.529-2.158,3.068-3.345,4.602
		c-1.296-0.707-2.616-1.369-3.936-2.027c-1.15-0.574-2.163,1.148-1.011,1.727c1.231,0.615,2.465,1.23,3.679,1.885
		c-1.443,1.771-2.998,3.512-4.677,5.195c-1.336-0.996-2.621-2.061-3.812-3.23c-0.92-0.904-2.335,0.51-1.414,1.414
		c1.185,1.166,2.465,2.23,3.792,3.232c-1.757,1.658-3.613,3.252-5.591,4.785c-1.196-0.857-2.351-1.766-3.411-2.809
		c-0.921-0.902-2.336,0.51-1.414,1.414c0.987,0.969,2.053,1.83,3.156,2.646c-1.407,1.035-2.873,2.041-4.396,3.021
		c-0.581-0.414-1.168-0.818-1.764-1.217c-1.076-0.717-2.076,1.016-1.01,1.727c0.314,0.213,0.626,0.426,0.937,0.641
		c-1.647,1.008-3.364,1.99-5.152,2.945c-0.817-0.693-1.634-1.393-2.399-2.145c-0.921-0.904-2.335,0.51-1.414,1.414
		c0.613,0.602,1.26,1.168,1.912,1.727c-1.479,0.756-2.998,1.498-4.574,2.225c-0.601-0.824-1.235-1.623-1.946-2.354
		c-0.899-0.928-2.312,0.488-1.414,1.414c0.54,0.557,1.024,1.158,1.489,1.775c-1.821,0.807-3.709,1.596-5.661,2.367
		c-0.314-0.467-0.588-0.961-0.78-1.504c-0.43-1.205-2.361-0.686-1.929,0.531c0.219,0.615,0.507,1.178,0.836,1.707
		c-1.171,0.447-2.371,0.891-3.59,1.326c-0.532-0.533-1.063-1.064-1.597-1.598c-0.913-0.912-2.327,0.502-1.414,1.414
		c0.307,0.307,0.612,0.611,0.918,0.92c-0.264,0.09-0.519,0.184-0.783,0.273c-1.286,0.439-2.574,0.865-3.863,1.283
		c-0.759-1.098-1.152-2.441-1.188-3.785c-0.033-1.287-2.033-1.291-2,0c0.041,1.584,0.468,3.098,1.246,4.406
		c-1.607,0.51-3.214,1.004-4.817,1.48c-0.45-0.592-0.835-1.225-1.089-1.938c-0.429-1.207-2.361-0.688-1.928,0.531
		c0.258,0.725,0.61,1.379,1.02,1.994c-1.14,0.33-2.274,0.654-3.408,0.971c-0.849-0.84-1.771-1.607-2.767-2.287
		c-1.068-0.73-2.067,1.004-1.01,1.727c0.529,0.361,1.03,0.764,1.517,1.184c-1.265,0.346-2.521,0.68-3.771,1.006
		c-1.054-1.053-2.105-2.104-3.158-3.156c-0.913-0.914-2.327,0.5-1.414,1.414c0.774,0.773,1.549,1.549,2.324,2.322
		c-1.777,0.453-3.538,0.891-5.274,1.309c-0.933-1.098-1.851-2.211-2.86-3.238c-0.905-0.922-2.318,0.494-1.414,1.414
		c0.734,0.748,1.417,1.543,2.095,2.344c-1.698,0.4-3.373,0.785-5.017,1.154c-1.096-1.297-2.292-2.506-3.493-3.707
		c-0.912-0.914-2.327,0.5-1.414,1.414c0.912,0.91,1.831,1.826,2.701,2.785c-1.438,0.316-2.846,0.619-4.229,0.914
		c-1.446-1.281-2.906-2.551-4.284-3.91c-0.918-0.906-2.333,0.508-1.414,1.414c1.057,1.043,2.162,2.027,3.272,3.01
		c-1.664,0.348-3.289,0.682-4.853,0.998c-0.428,0.086-0.856,0.166-1.284,0.252c-1.831-1.371-3.607-2.818-5.561-4.023
		c-1.101-0.68-2.104,1.051-1.01,1.729c1.378,0.852,2.666,1.828,3.949,2.811c-1.97,0.381-3.94,0.75-5.915,1.107
		c-2.012-1.969-3.874-4.092-5.854-6.092c-0.908-0.918-2.322,0.496-1.414,1.414c1.656,1.674,3.235,3.426,4.881,5.109
		c-1.384,0.242-2.77,0.475-4.154,0.705c-1.572-1.412-3.225-2.734-4.731-4.217c-0.92-0.906-2.335,0.508-1.414,1.414
		c1.148,1.129,2.381,2.168,3.6,3.221c-1.92,0.309-3.844,0.605-5.769,0.893c-2.123-1.953-4.396-3.729-6.654-5.527
		c-0.996-0.795-2.422,0.609-1.413,1.414c1.851,1.477,3.714,2.934,5.496,4.484c-1.76,0.252-3.521,0.494-5.285,0.727
		c-0.001,0-0.001,0-0.001,0c-1.528-1.492-3.293-2.717-4.818-4.217c-0.92-0.904-2.335,0.51-1.414,1.414
		c1.146,1.127,2.427,2.098,3.641,3.145c-2.201,0.275-4.405,0.541-6.613,0.789c-1.761-1.451-3.269-3.158-4.488-5.146
		c-0.673-1.096-2.403-0.092-1.727,1.012c1.004,1.635,2.186,3.107,3.526,4.42c-1.989,0.211-3.98,0.412-5.975,0.598
		c-1.254-1.229-2.553-2.385-4.014-3.375c-1.071-0.727-2.07,1.008-1.01,1.727c0.848,0.574,1.627,1.219,2.377,1.896
		c-1.685,0.15-3.37,0.285-5.057,0.418c-1.505-1.305-3.119-2.498-4.539-3.885c-0.923-0.902-2.338,0.512-1.414,1.414
		c0.976,0.953,2.043,1.814,3.104,2.684c-1.363,0.098-2.726,0.193-4.09,0.281c-1.539-1.293-2.921-2.768-4.225-4.379
		c-0.811-1.004-2.217,0.42-1.414,1.414c0.896,1.107,1.831,2.154,2.828,3.129c-1.652,0.094-3.305,0.184-4.958,0.262
		c-1.418-1.811-2.848-3.611-4.284-5.406c-0.806-1.008-2.211,0.416-1.414,1.414c1.092,1.365,2.186,2.729,3.271,4.1
		c-1.682,0.07-3.364,0.133-5.047,0.188c-1.199-1.342-2.324-2.744-3.277-4.295c-0.674-1.096-2.404-0.092-1.727,1.01
		c0.732,1.191,1.566,2.297,2.446,3.365c-2.024,0.053-4.05,0.094-6.075,0.123c-1.283-1.861-2.538-3.74-3.678-5.701
		c-0.647-1.115-2.376-0.107-1.727,1.01c0.939,1.617,1.965,3.174,3.013,4.717c-1.47,0.014-2.938,0.027-4.407,0.027
		c-1.121,0-2.252-0.027-3.378-0.035c-1.098-1.371-2.195-2.742-3.292-4.113c-0.806-1.008-2.211,0.416-1.414,1.414
		c0.713,0.891,1.427,1.781,2.14,2.674c-2.186-0.027-4.36-0.064-6.546-0.119c-1.171-1.539-2.167-3.223-3.057-4.973
		c-0.585-1.148-2.311-0.137-1.727,1.01c0.688,1.354,1.445,2.652,2.283,3.885c-1.504-0.045-3.014-0.076-4.51-0.137
		c-0.902-1.084-1.832-2.145-2.827-3.152c-0.907-0.92-2.32,0.496-1.414,1.414c0.523,0.529,1.028,1.074,1.522,1.627
		c-1.348-0.059-2.692-0.117-4.034-0.18c-1.223-1.68-2.246-3.494-3.044-5.432c-0.483-1.176-2.419-0.66-1.928,0.531
		c0.688,1.674,1.498,3.271,2.453,4.773c-1.351-0.068-2.697-0.143-4.04-0.221c-1.336-2.172-2.768-4.27-4.57-6.129
		c-0.898-0.928-2.312,0.488-1.414,1.414c1.36,1.402,2.493,2.949,3.535,4.562c-1.751-0.113-3.495-0.236-5.23-0.375
		c-1.302-2.012-2.631-4.008-3.961-6.002c-0.711-1.066-2.444-0.066-1.727,1.01c1.061,1.592,2.123,3.184,3.171,4.783
		c-2.019-0.178-4.024-0.379-6.02-0.602c-0.977-1.703-2.028-3.354-3.409-4.793c-0.895-0.932-2.307,0.484-1.414,1.414
		c0.905,0.943,1.656,1.99,2.339,3.084c-1.807-0.223-3.603-0.467-5.387-0.736c-0.79-1.434-1.633-2.832-2.608-4.16
		c-0.755-1.027-2.491-0.031-1.727,1.01c0.651,0.887,1.235,1.811,1.794,2.746c-1.314-0.221-2.622-0.459-3.924-0.711
		c-1.466-2.361-3.003-4.668-4.73-6.859c-0.798-1.014-2.203,0.412-1.414,1.414c1.239,1.57,2.362,3.219,3.438,4.898
		c-1.751-0.373-3.485-0.785-5.208-1.227c-1.412-2.365-2.77-4.758-3.887-7.295c-0.519-1.178-2.241-0.158-1.727,1.012
		c0.842,1.91,1.817,3.742,2.851,5.543c-1.47-0.416-2.939-0.867-4.408-1.352c-0.932-2.033-1.999-3.98-3.34-5.805
		c-0.755-1.027-2.492-0.031-1.727,1.01c0.912,1.24,1.699,2.541,2.405,3.887c-1.293-0.461-2.585-0.939-3.875-1.449
		c-0.538-1.863-1.114-3.717-1.521-5.615c-0.27-1.262-2.197-0.729-1.928,0.531c0.298,1.393,0.692,2.762,1.093,4.127
		c-1.25-0.525-2.497-1.08-3.743-1.652c-0.883-2.207-1.766-4.412-2.648-6.619c-0.473-1.182-2.407-0.668-1.928,0.531
		c0.646,1.613,1.291,3.229,1.937,4.842c-1.295-0.631-2.589-1.281-3.88-1.961c-0.749-1.725-1.451-3.473-2.15-5.219
		c-0.473-1.184-2.407-0.668-1.928,0.531c0.423,1.057,0.848,2.111,1.279,3.166c-1.062-0.592-2.121-1.201-3.179-1.828
		c-0.393-1.617-0.672-3.271-0.99-4.881c-0.25-1.266-2.178-0.729-1.928,0.531c0.193,0.977,0.378,1.957,0.579,2.938
		c-1.062-0.656-2.122-1.326-3.179-2.018c-0.498-2.49-0.996-4.982-1.495-7.475c-0.253-1.264-2.181-0.727-1.928,0.533
		c0.358,1.793,0.718,3.586,1.076,5.379c-0.244-0.166-0.488-0.326-0.731-0.492c-0.791-0.545-1.559-1.104-2.331-1.662
		c-0.536-2.898-1.19-5.758-2.107-8.574c-0.396-1.221-2.328-0.697-1.928,0.531c0.674,2.072,1.2,4.168,1.65,6.285
		c-0.943-0.713-1.878-1.43-2.791-2.162c-1.277-3.428-1.839-7.094-3.656-10.312c-0.634-1.123-2.361-0.115-1.727,1.01
		c1.228,2.176,1.841,4.578,2.529,6.957c-1.498-1.275-2.934-2.584-4.339-3.908c-0.293-1.771-0.516-3.551-0.543-5.359
		c-0.02-1.289-2.02-1.291-2,0c0.016,1.049,0.105,2.086,0.221,3.119c-1.44-1.436-2.818-2.896-4.148-4.381
		c0.76-1.898,1.52-3.799,2.279-5.699c0.479-1.197-1.455-1.713-1.929-0.531c-0.608,1.521-1.217,3.043-1.825,4.562
		c-0.546-0.635-1.081-1.273-1.606-1.916c0.554-1.219,1.055-2.465,1.646-3.684c0.562-1.154-1.163-2.17-1.727-1.01
		c-0.471,0.971-0.886,1.957-1.314,2.938c-0.771-0.986-1.518-1.979-2.24-2.98c0.739-1.678,1.379-3.389,1.77-5.207
		c0.27-1.258-1.658-1.793-1.929-0.531c-0.285,1.328-0.7,2.594-1.192,3.83c-0.723-1.059-1.418-2.123-2.086-3.195
		c0.314-1.043,0.646-2.08,0.992-3.115c0.408-1.227-1.523-1.748-1.93-0.531c-0.148,0.449-0.285,0.898-0.43,1.348
		c-0.621-1.07-1.215-2.146-1.779-3.229c0.692-1.352,1.33-2.727,1.729-4.211c0.336-1.248-1.594-1.775-1.929-0.531
		c-0.234,0.871-0.559,1.701-0.93,2.512c-0.61-1.266-1.178-2.535-1.712-3.812c0.394-1.645,1.307-3.104,2.507-4.352
		c0.895-0.928-0.519-2.344-1.414-1.414c-0.883,0.916-1.619,1.934-2.18,3.033c-0.3-0.809-0.594-1.615-0.862-2.428
		c0.109-0.23,0.22-0.461,0.336-0.689c0.313-0.377,0.559-0.818,0.712-1.312c0.795-1.375,1.71-2.674,2.806-3.812
		c0.895-0.93-0.519-2.346-1.414-1.414c-0.435,0.451-0.841,0.924-1.226,1.414c-0.158-1.594-0.429-3.158-0.697-4.686
		c-0.494-2.807-0.959-5.459-0.727-8.139c0.129-1.496-0.508-2.803-1.712-3.527c-0.985-0.76-2.269-0.947-3.541-0.502
		c-0.429,0.15-0.872,0.279-1.339,0.387c0.848-0.381,1.494-1.033,1.838-1.875c0.879-0.961,1.238-2.232,0.992-3.555
		c-0.679-3.635-0.76-7.477-0.246-11.723c0.03-2.201,0.456-5.793-0.84-6.367c-2.333-1.029-4.965-1.387-8.062-1.113
		c-0.026-0.256-0.038-0.516-0.062-0.771c0.259,0.031,0.534-0.039,0.776-0.281c0.602-0.604,1.204-1.205,1.807-1.807
		c0.912-0.912-0.502-2.326-1.414-1.414c-0.447,0.445-0.896,0.895-1.343,1.342c-0.114-1.586-0.197-3.18-0.237-4.785
		c1.139-1.183,2.221-2.405,3.15-3.775c0.726-1.07-1.008-2.07-1.727-1.01c-0.443,0.652-0.936,1.259-1.445,1.851
		c0.007-1.834,0.053-3.677,0.154-5.53c0.996-0.85,2.098-1.582,3.261-2.179c1.147-0.588,0.136-2.313-1.01-1.728
		c-0.712,0.365-1.401,0.789-2.067,1.248c0.143-1.823,0.33-3.653,0.562-5.489c1.998-0.821,3.754-2.067,5.125-3.822
		c0.785-1.003-0.62-2.43-1.414-1.413c-0.963,1.232-2.098,2.168-3.391,2.866c0.328-2.229,0.725-4.467,1.184-6.706
		c1.215-0.671,2.474-1.264,3.783-1.716c1.211-0.419,0.69-2.353-0.531-1.929c-0.924,0.318-1.823,0.703-2.707,1.123
		c0.639-2.819,1.375-5.641,2.215-8.455c1.977-0.377,3.893-1.071,5.84-1.579c1.248-0.325,0.719-2.255-0.531-1.929
		c-1.542,0.401-3.076,0.953-4.638,1.336c0.703-2.219,1.466-4.43,2.292-6.635c0.068,0.012,0.126,0.039,0.203,0.036
		c2.301-0.044,4.582-0.708,6.527-1.942c1.084-0.688,0.082-2.42-1.01-1.728c-1.492,0.947-3.189,1.489-4.945,1.619
		c0.779-1.985,1.597-3.968,2.476-5.937c0.209,0.168,0.487,0.244,0.831,0.123c1.871-0.662,3.551-1.75,5.42-2.408
		c1.207-0.428,0.688-2.359-0.531-1.93c-1.645,0.582-3.148,1.477-4.755,2.137c0.833-1.787,1.699-3.567,2.613-5.336
		c1.944,0.967,3.892,1.926,5.838,2.889c0.206,0.102,0.409,0.209,0.612,0.316c0.158,0.104,0.325,0.192,0.498,0.273
		c1.158,0.646,2.293,1.339,3.516,1.838c-7.838,15.863-11.995,32.342-12.35,49.012c-0.332,15.635,2.527,32.188,9.271,53.678
		c2.299,7.326,4.905,15.629,9.725,22.875c3.515,5.283,8.333,10.078,14.32,14.252c9.791,6.828,21.348,10.662,32.523,14.371
		c2.113,0.701,4.217,1.398,6.296,2.113c15.396,5.289,33.371,11.141,51.869,13.617c6.835,0.914,13.769,1.357,21.198,1.357
		c9.583,0,19.623-0.729,31.596-2.301c5.393-0.707,10.789-1.387,16.185-2.068c22.075-2.783,44.901-5.662,67.091-10.379
		c23.58-5.01,53.824-13.104,78.599-31.395c11.808-8.719,19.599-17.072,23.816-25.537c0.301-0.605,0.602-1.252,0.932-2.012
		c0.963-0.783,1.479-2.076,1.36-3.443c2.643-7.518,3.643-15.871,4.447-22.602c0.463-3.867,0.83-7.828,1.186-11.656
		c0.985-10.607,2.004-21.578,5.153-31.824c1.924-6.258,4.604-10.832,8.188-13.981c0.637-0.56,1.343-1.069,2.106-1.524
		c0.456,0.195,0.962,0.299,1.489,0.299c1.605,0,3.115-0.907,3.876-2.272c0.119-0.046,0.241-0.088,0.363-0.127
		c2.489-0.47,5.335-0.554,8.44-0.246c0.852,0.082,1.583-0.069,2.228-0.425c2.92,0.67,6.06,2.131,9.122,4.25
		C476.122,313.507,476.656,324.244,472.793,331.178z M483.863,292.502c-0.023-0.051-0.049-0.102-0.084-0.151
		c-1.646-2.37-3.945-3.989-6.314-5.569c-1.075-0.719-2.075,1.015-1.01,1.727c1.935,1.291,3.884,2.609,5.307,4.47
		c-1.706,0.369-3.442,0.698-5.212,0.984c-1.493-1.632-2.712-3.496-3.938-5.333c-0.712-1.066-2.444-0.066-1.728,1.01
		c1.058,1.584,2.108,3.195,3.313,4.678c-1.726,0.24-3.476,0.438-5.242,0.6c-1.493-1.727-3.067-3.377-4.689-5
		c-0.912-0.912-2.327,0.502-1.414,1.414c1.239,1.24,2.463,2.494,3.641,3.789c-2.057,0.143-4.134,0.223-6.222,0.256
		c-1.08-1.383-2.222-2.719-3.45-3.971c-0.905-0.92-2.318,0.494-1.414,1.414c0.812,0.827,1.575,1.697,2.315,2.586
		c-0.267,0-0.531-0.002-0.798-0.004c-0.628-0.008-1.269-0.021-1.898-0.053c-0.102-0.048-0.206-0.079-0.311-0.118
		c-1.331-1.372-2.614-2.79-3.694-4.366c-0.725-1.058-2.458-0.059-1.728,1.01c0.752,1.099,1.599,2.119,2.479,3.111
		c-0.955-0.055-1.865,0.199-2.615,0.764c-0.907,0.188-1.821,0.355-2.73,0.537c-1.533-1.222-3.125-2.373-4.698-3.547
		c-1.035-0.772-2.03,0.965-1.01,1.727c1.042,0.777,2.091,1.546,3.125,2.33c-1.903,0.363-3.812,0.709-5.727,1.043
		c-1.257-1.502-2.382-3.1-3.477-4.741c-0.712-1.065-2.445-0.065-1.728,1.01c0.943,1.414,1.916,2.798,2.961,4.125
		c-1.428,0.241-2.856,0.468-4.287,0.692c-1.058-1.381-2.091-2.775-2.901-4.338c-0.595-1.146-2.32-0.135-1.728,1.01
		c0.684,1.314,1.523,2.512,2.402,3.682c-2.066,0.315-4.134,0.617-6.203,0.909c-1.559-1.286-2.862-2.847-4.308-4.313
		c-0.906-0.92-2.319,0.496-1.414,1.414c1.07,1.088,2.073,2.221,3.146,3.268c-1.456,0.199-2.912,0.386-4.367,0.575
		c-1.306-1.3-2.746-2.47-4.064-3.769c-0.92-0.904-2.334,0.51-1.414,1.414c0.943,0.928,1.976,1.787,2.969,2.686
		c-0.803,0.102-1.602,0.195-2.402,0.296c-0.032-0.028-0.062-0.058-0.1-0.084c-1.98-1.368-3.344-3.354-5.009-5.056
		c-0.903-0.922-2.317,0.492-1.414,1.414c1.312,1.34,2.456,2.795,3.809,4.06c-2.062,0.251-4.121,0.495-6.176,0.735
		c-1.169-1.754-2.338-3.508-3.508-5.263c-0.712-1.065-2.444-0.065-1.727,1.011c1.003,1.504,2.006,3.01,3.009,4.514
		c-1.516,0.176-3.022,0.348-4.531,0.521c-1.191-1.484-2.31-3.027-3.451-4.556c-0.762-1.021-2.5-0.024-1.727,1.01
		c0.947,1.271,1.876,2.558,2.841,3.812c-0.257,0.029-0.516,0.06-0.771,0.089c-1.214,0.139-2.438,0.278-3.656,0.418
		c-0.91-1.118-1.789-2.265-2.798-3.298c-0.902-0.924-2.315,0.492-1.414,1.414c0.664,0.681,1.267,1.414,1.862,2.152
		c-1.953,0.225-3.913,0.452-5.877,0.686c-1.169-1.17-2.337-2.338-3.506-3.508c-0.913-0.912-2.327,0.502-1.414,1.414
		c0.798,0.799,1.597,1.598,2.396,2.396c-1.917,0.229-3.836,0.465-5.76,0.707c-0.602-0.794-1.228-1.567-1.922-2.281
		c-0.899-0.927-2.312,0.489-1.414,1.414c0.362,0.372,0.7,0.765,1.031,1.163c-1.658,0.213-3.317,0.432-4.977,0.657
		c-0.638-0.884-1.334-1.722-2.086-2.49c-0.902-0.925-2.315,0.491-1.414,1.414c0.431,0.44,0.832,0.909,1.219,1.392
		c-1.608,0.225-3.216,0.457-4.823,0.694c-0.793-1.073-1.531-2.19-2.271-3.298c-0.712-1.066-2.444-0.066-1.728,1.01
		c0.584,0.875,1.172,1.756,1.779,2.621c-1.167,0.18-2.333,0.361-3.498,0.549c-0.923-1.07-1.723-2.255-2.51-3.436
		c-0.712-1.066-2.444-0.066-1.728,1.01c0.64,0.957,1.286,1.9,1.983,2.796c-1.788,0.298-3.573,0.606-5.354,0.929
		c-0.854-1.02-1.605-2.135-2.348-3.244c-0.712-1.067-2.445-0.067-1.727,1.01c0.601,0.9,1.208,1.79,1.857,2.639
		c-0.476,0.09-0.955,0.169-1.431,0.26c-1.175,0.225-2.089,0.885-2.606,1.808c-1.548-1.032-3.095-2.063-4.643-3.097
		c-1.077-0.717-2.077,1.017-1.01,1.728c1.731,1.155,3.465,2.312,5.195,3.465c0.061,1.031,0.484,1.995,1.154,2.729
		c-1.965,0.603-3.854,1.367-5.606,2.502c-1.077,0.697-0.076,2.43,1.011,1.727c1.82-1.178,3.779-1.917,5.83-2.504
		c0.168,1.124,0.281,2.261,0.329,3.411c-2.077,0.522-4.148,1.067-6.186,1.731c-1.221,0.398-0.698,2.33,0.531,1.93
		c1.867-0.608,3.765-1.115,5.667-1.6c-0.03,1.443-0.154,2.903-0.372,4.377c-2.063,0.485-4.181,0.469-6.306,0.469
		c-1.29,0.002-1.29,2.002,0,2c1.847,0,3.696-0.004,5.513-0.283c-0.206,0.712-0.263,1.466-0.108,2.183
		c-0.115,0.435-0.265,0.875-0.396,1.313h-5.009c-1.29,0-1.29,2,0,2h4.362c-0.592,1.686-1.287,3.387-2.104,5.104
		c-1.978,0.29-3.958,0.34-5.981,0.34c-1.29,0.002-1.29,2.002,0,2c1.657,0,3.288-0.055,4.911-0.215
		c-0.977,1.859-2.083,3.734-3.314,5.623c-2.227-0.158-4.389-0.871-6.542-1.416c-1.251-0.316-1.781,1.611-0.531,1.93
		c1.92,0.486,3.84,1.076,5.803,1.359c-0.76,1.096-1.56,2.193-2.403,3.297c-2.538-0.172-5.052-0.619-7.601-0.666
		c-1.29-0.023-1.288,1.977,0,2c2.056,0.037,4.087,0.342,6.127,0.553c-1.011,1.256-2.052,2.504-3.141,3.734
		c-0.071-0.07-0.143-0.143-0.248-0.193c-1.841-0.92-3.635-1.586-5.716-1.627c-1.29-0.025-1.288,1.975,0,2
		c1.688,0.033,3.125,0.574,4.611,1.309c-1.278,1.396-2.607,2.775-3.983,4.137c-1.923-0.008-3.726-0.119-5.574-0.707
		c-1.232-0.395-1.756,1.537-0.531,1.928c1.363,0.434,2.722,0.625,4.105,0.711c-1.833,1.729-3.738,3.426-5.722,5.084
		c-1.499-0.396-3.067-0.559-4.554-1.023c-1.234-0.385-1.759,1.547-0.531,1.93c0.995,0.311,2.062,0.459,3.108,0.65
		c-0.049,0.064-0.103,0.121-0.146,0.189c-2.235,1.795-4.565,3.541-6.964,5.234c-0.073-0.182-0.201-0.346-0.438-0.457
		c-1.438-0.67-3.037-0.822-4.468-1.488c-1.16-0.541-2.178,1.182-1.01,1.727c1.355,0.631,2.851,0.816,4.214,1.393
		c-2.13,1.461-4.3,2.889-6.524,4.254c-0.398,0.242-0.81,0.473-1.21,0.711c-2.17-1.049-4.538-1.645-6.875-2.229
		c-1.251-0.312-1.782,1.615-0.531,1.93c1.778,0.443,3.576,0.883,5.28,1.551c-1.019,0.576-2.051,1.131-3.087,1.678
		c-2.345-0.105-4.614-0.863-6.874-1.436c-1.251-0.316-1.781,1.611-0.531,1.93c1.424,0.359,2.848,0.773,4.289,1.082
		c-2.003,0.979-4.035,1.904-6.099,2.771c-0.094-0.258-0.29-0.479-0.638-0.57c-2.848-0.768-5.341-2.299-7.95-3.621
		c-1.146-0.582-2.159,1.143-1.01,1.727c2.39,1.211,4.692,2.576,7.221,3.449c-2.781,1.1-5.61,2.094-8.476,2.988
		c-2.315-1.186-4.578-2.467-6.467-4.285c-0.928-0.896-2.344,0.518-1.414,1.414c1.546,1.488,3.312,2.65,5.165,3.684
		c-1.449,0.416-2.904,0.812-4.368,1.174c-2.284-1.502-4.602-2.836-7.27-3.551c-1.247-0.336-1.776,1.594-0.531,1.928
		c1.832,0.492,3.473,1.307,5.059,2.256c-1.739,0.389-3.484,0.748-5.239,1.062c-1.415-1.092-2.78-2.246-4.058-3.5
		c-0.92-0.904-2.335,0.51-1.414,1.414c0.898,0.883,1.848,1.711,2.818,2.514c-1.607,0.25-3.217,0.471-4.831,0.652
		c-1.634-1.475-3.203-3.021-4.762-4.58c-0.913-0.912-2.327,0.502-1.414,1.414c1.163,1.164,2.335,2.312,3.529,3.434
		c-2.537,0.23-5.076,0.385-7.615,0.449c-1.768-2.004-3.707-3.812-5.87-5.453c-1.028-0.779-2.023,0.959-1.01,1.729
		c1.517,1.148,2.918,2.414,4.228,3.771c-0.104,0-0.209,0.006-0.313,0.006c-1.918,0-3.826-0.055-5.726-0.152
		c-1.567-1.262-3.03-2.646-4.265-4.25c-0.774-1.006-2.514-0.012-1.727,1.01c0.844,1.098,1.785,2.088,2.769,3.029
		c-1.473-0.119-2.937-0.273-4.394-0.451c-1.443-1.734-2.84-3.512-4.25-5.279c-0.805-1.008-2.21,0.418-1.414,1.414
		c0.925,1.16,1.847,2.32,2.775,3.477c-1.35-0.203-2.69-0.43-4.023-0.682c-1.385-2.021-2.758-4.051-3.882-6.238
		c-0.589-1.148-2.314-0.137-1.727,1.01c0.833,1.621,1.807,3.152,2.816,4.66c-1.923-0.418-3.822-0.889-5.699-1.41
		c-1.476-2.797-3.018-5.561-4.225-8.488c-0.484-1.174-2.42-0.66-1.928,0.531c1.018,2.469,2.25,4.822,3.493,7.176
		c-1.753-0.543-3.482-1.129-5.186-1.764c-1.358-3.154-2.907-6.197-4.669-9.16c-0.658-1.107-2.388-0.102-1.727,1.01
		c1.382,2.322,2.644,4.693,3.775,7.133c-2.183-0.887-4.32-1.846-6.403-2.885c-0.131-2.947-1.041-5.582-2.347-8.236
		c-0.569-1.156-2.294-0.143-1.727,1.012c0.987,2.008,1.714,3.982,1.98,6.141c-1.353-0.73-2.675-1.506-3.966-2.32
		c-0.203-1.689-0.58-3.359-0.618-5.068c-0.029-1.289-2.029-1.291-2,0c0.027,1.219,0.226,2.418,0.411,3.619
		c-1.239-0.852-2.445-1.742-3.622-2.672v-6.16c0-1.289-2-1.289-2,0v4.52c-0.817-0.697-1.62-1.41-2.403-2.146
		c0.076-1.703,0.242-3.393,0.645-5.084c0.299-1.254-1.63-1.785-1.928-0.531c-0.3,1.26-0.477,2.518-0.593,3.781
		c-1.113-1.127-2.188-2.295-3.227-3.502c0.276-1.438,0.828-2.855,1.28-4.215c0.409-1.229-1.522-1.75-1.928-0.533
		c-0.312,0.938-0.647,1.889-0.926,2.854c-0.521-0.65-1.029-1.309-1.527-1.979c0.973-1.195,1.66-2.672,2.147-4.064
		c0.428-1.219-1.505-1.74-1.928-0.531c-0.339,0.969-0.81,2.012-1.445,2.908c-0.873-1.244-1.714-2.518-2.516-3.826
		c0.486-1.248,0.988-2.492,1.421-3.762c0.417-1.225-1.515-1.746-1.928-0.531c-0.242,0.711-0.509,1.412-0.78,2.111
		c-0.521-0.916-1.019-1.85-1.505-2.793c0.626-1.254,1.253-2.506,1.879-3.76c0.575-1.15-1.15-2.162-1.727-1.01
		c-0.421,0.842-0.842,1.686-1.264,2.527c-0.49-1.031-0.963-2.076-1.413-3.137c0.862-1.732,1.647-3.486,2.271-5.32
		c0.416-1.226-1.516-1.746-1.928-0.533c-0.391,1.15-0.854,2.26-1.359,3.355c-0.575-1.486-1.11-3-1.609-4.539
		c1.113-1.431,1.763-3.107,2.562-4.744c0.563-1.154-1.161-2.17-1.727-1.011c-0.536,1.097-0.987,2.25-1.59,3.31
		c-0.38-1.299-0.734-2.612-1.061-3.946c0.654-1.226,1.507-2.327,2.144-3.563c0.589-1.146-1.137-2.156-1.727-1.011
		c-0.315,0.612-0.686,1.19-1.058,1.769c-0.316-1.487-0.605-2.992-0.855-4.519c0.665-0.664,1.33-1.329,1.994-1.994
		c0.913-0.911-0.502-2.327-1.414-1.413c-0.316,0.315-0.633,0.633-0.949,0.949c-0.259-1.867-0.47-3.76-0.629-5.68
		c2.583,0.511,5.098,0.854,7.505,1.023c1.876,13.717,5.617,24.732,11.422,33.643c6.737,10.34,17.182,18.096,30.205,22.43
		c7.619,2.535,15.695,3.518,23.506,4.465l0.649,0.08c7.2,0.877,13.789,1.303,20.145,1.303c2.313,0,4.619-0.061,6.852-0.176
		c9.126-0.475,17.795-2.15,25.768-4.984c8.565-3.043,15.985-7.945,22.726-12.789c11.269-8.098,24.465-19.561,26.526-36.479
		c0.382-3.137,0.363-6.55,0.345-10.161c-0.032-6.029-0.065-12.257,1.839-17.31c0.616-0.313,1.154-0.813,1.562-1.459
		c0.513-0.815,0.756-1.769,0.701-2.7c1.013-1.326,2.217-2.43,3.667-3.361c6.736-4.328,16.273-5.717,23.938-6.832
		c5.739-0.834,11.645-1.324,17.354-1.798c3.083-0.255,6.271-0.521,9.404-0.836c5.485-0.553,11.017-1.378,16.364-2.176
		c4.266-0.636,8.677-1.294,13.021-1.808c3.896-0.459,7.795-0.892,11.692-1.322c6.376-0.706,12.971-1.436,19.446-2.283
		c8.984-1.176,18.275-2.391,27.58-2.938c3.37-0.199,6.425-0.297,9.338-0.297c2.591,0,5.106,0.08,7.478,0.237
		c4.273,0.283,8.717,0.804,12.259,2.673c1.312,0.692,2.095,1.436,2.043,1.941c-0.039,0.376-0.356,0.818-0.891,1.295
		c-0.318-0.423-0.62-0.861-0.872-1.354c-0.588-1.147-2.312-0.135-1.727,1.01c0.278,0.545,0.615,1.037,0.973,1.512
		c-1.291,0.785-2.992,1.592-4.9,2.311c-1.673-2.297-3.29-4.631-4.769-7.064c-0.668-1.102-2.396-0.096-1.727,1.01
		c1.407,2.319,2.942,4.544,4.531,6.734c-0.354,0.111-0.708,0.221-1.067,0.324C486.482,291.851,485.182,292.185,483.863,292.502z"/>
</g>
<g>
</g>
<g>
</g>
<g>
</g>
<g>
</g>
<g>
</g>
<g>
</g>
<g>
</g>
<g>
</g>
<g>
</g>
<g>
</g>
<g>
</g>
<g>
</g>
<g>
</g>
<g>
</g>
<g>
</g>
</svg>
