<?xml version="1.0" encoding="iso-8859-1"?>
<!-- Generator: Adobe Illustrator 16.0.0, SVG Export Plug-In . SVG Version: 6.00 Build 0)  -->
<!DOCTYPE svg PUBLIC "-//W3C//DTD SVG 1.1//EN" "http://www.w3.org/Graphics/SVG/1.1/DTD/svg11.dtd">
<svg version="1.1" id="Capa_1" xmlns="http://www.w3.org/2000/svg" xmlns:xlink="http://www.w3.org/1999/xlink" x="0px" y="0px"
	 width="436.562px" height="436.562px" viewBox="0 0 436.562 436.562" style="enable-background:new 0 0 436.562 436.562;"
	 xml:space="preserve">
<g>
	<g>
		<path fill="#98f698" d="M434.938,121.607c-5.98-9.246-21.347-7.858-30.482-6.31c-12.519,2.123-24.875,7.632-35.841,13.914
			c-17.72,10.15-36.834,26.472-43.075,46.86c-8.993,3.129-19.719,1.314-28.877,0.477c-12.224-1.117-24.24-0.104-36.484,0.136
			c-23.514,0.46-47.033,0.115-70.554,0.344c3.401-23.295,3.849-46.988,6.311-70.389c1.415-13.45,3.079-26.872,4.358-40.337
			c1.045-10.992,2.232-22.224,1.411-33.271c-0.531-7.149-2.454-14.017-7.286-19.459c-5.582-6.286-14.306-7.323-22.159-7.997
			c-14.914-1.278-34.025-1.193-43.308,12.375c-7.688-3.886-16.952-4.814-24.896-1.028c-7.869,3.75-12.179,10.944-13.271,19.129
			c-16.728-2.45-33.23,10.229-33.435,26.945c-7.711,1.907-15.159,5.114-21.141,10.416c-6.883,6.101-8.215,14.443-6.08,22.598
			c-15.055,7.902-25.096,24.308-18.133,40.221c-0.49,0.847-0.697,1.891-0.564,2.909c-10.627,11.118-14,31.238-9.464,45.216
			c0.249,0.768,0.661,1.345,1.153,1.784c-1.95,36.367,16.698,69.397,40.789,95.378c-17.959,12.421-30.403,32.726-35.405,53.735
			c-5.715,23.999,2.121,47.636,17.909,66.034c15.634,18.219,39.301,29.566,63.433,28.205c24.059-1.357,45.767-15.434,59.021-35.154
			c9.274-13.8,14.16-30.963,13.358-47.554c-0.035-0.729-0.101-1.451-0.16-2.175c10.423,2.209,22.19,1.084,32.547-1.452
			c-1.049,13.392,4.901,28.438,9.947,39.416c1.941,4.224,4.136,8.351,6.577,12.323c-0.784,0.6,0.017,1.914,1.029,1.63
			c2.382,3.726,4.981,7.308,7.832,10.676c7.061,8.344,17.405,14.24,27.384,18.352c24.519,10.101,51.364,7.3,73.046-8.059
			c17.912-12.687,27.074-34.676,29.771-55.894c2.681-21.105-2.306-40.455-14.333-57.993c-7.812-11.388-18.375-20.685-30.679-26.521
			c8.68-16.248,15.988-33.176,24.094-49.712c1.742,2.799,3.877,5.22,6.464,6.845c12.979,8.152,15.52-22.209,16.343-28.36
			c1.46-10.915,5.771-20.846,11.347-30.308c6.794-11.526,15.827-22.66,28.628-27.578c10.812-4.153,23.042-3.836,33.618-8.533
			C432.382,136.464,439.946,129.353,434.938,121.607z M189.255,95.151c-0.132,0.021-0.27,0.077-0.408,0.182
			c-3.47,2.614-6.854,5.348-9.947,8.403c-0.919,0.907,0.496,2.32,1.414,1.414c2.7-2.667,5.627-5.088,8.641-7.394
			c-0.206,1.776-0.406,3.553-0.606,5.329c-3.944,1.687-7.366,4.203-10.29,7.426c0.075-3.15,0.181-6.303,0.314-9.459
			c3.641-3.762,7.201-7.595,11.441-10.706C189.625,91.949,189.441,93.55,189.255,95.151z M180.544,162.297
			c-0.163-1.255-0.319-2.511-0.466-3.767c0.079-0.044,0.16-0.079,0.234-0.152c1.163-1.145,2.418-2.13,3.742-3.018
			c-0.121,1.433-0.249,2.865-0.382,4.296C182.682,160.598,181.65,161.485,180.544,162.297z M183.383,162.593
			c-0.35,3.466-0.742,6.927-1.212,10.378c-0.496-2.812-0.929-5.623-1.32-8.435c0.003-0.002,0.008-0.003,0.011-0.005
			C181.746,163.931,182.577,163.276,183.383,162.593z M179.807,156.146c-0.15-1.397-0.3-2.795-0.432-4.192
			c0.222,0.065,0.478,0.027,0.734-0.168c1.523-1.158,2.986-2.409,4.513-3.565c-0.114,1.547-0.238,3.093-0.361,4.639
			C182.676,153.813,181.193,154.904,179.807,156.146z M179.195,149.986c-0.053-0.595-0.115-1.188-0.164-1.783
			c0.107-0.03,0.219-0.08,0.33-0.165c1.932-1.469,3.753-3.07,5.612-4.626c-0.052,0.736-0.108,1.473-0.161,2.209
			C182.871,146.973,181.082,148.546,179.195,149.986z M178.854,145.911c-0.061-0.809-0.121-1.617-0.176-2.427
			c2.312-1.771,4.449-3.751,6.677-5.624c-0.064,0.949-0.131,1.898-0.194,2.848C183.043,142.423,181.004,144.235,178.854,145.911z
			 M178.523,141.07c-0.084-1.455-0.16-2.911-0.226-4.366c0.355,0.267,0.855,0.336,1.265-0.067c1.906-1.882,3.944-3.564,6.211-4.918
			c-0.08,1.15-0.157,2.302-0.235,3.452C183.159,137.089,180.908,139.16,178.523,141.07z M178.234,135.14
			c-0.029-0.723-0.064-1.445-0.089-2.168c2.664-2.132,5.328-4.263,7.992-6.395c-0.067,0.928-0.133,1.855-0.197,2.782
			C183.092,130.879,180.576,132.843,178.234,135.14z M178.082,130.478c-0.029-1.107-0.064-2.214-0.084-3.322
			c0.271,0.045,0.561-0.016,0.815-0.266c2.353-2.302,4.892-4.094,7.718-5.461c-0.066,0.812-0.123,1.625-0.187,2.438
			C183.59,126.071,180.836,128.275,178.082,130.478z M177.967,124.953c-0.026-2.389-0.024-4.778-0.01-7.17
			c1.938-0.672,3.838-1.455,5.354-2.888c0.025-0.023,0.031-0.051,0.054-0.075c1.254-0.852,2.598-1.686,3.953-2.18
			c-0.219,2.164-0.409,4.331-0.596,6.499C183.497,120.556,180.607,122.48,177.967,124.953z M179.85,114.825
			c-0.058,0.038-0.105,0.081-0.152,0.125c-0.556,0.27-1.132,0.503-1.717,0.714c0.01-0.905,0.013-1.811,0.028-2.716
			c0.271,0.05,0.561-0.017,0.804-0.302c2.648-3.094,5.711-5.562,9.274-7.272c-0.188,1.71-0.367,3.419-0.546,5.129
			C184.761,111.28,182.118,113.313,179.85,114.825z M190.004,88.708c-0.273-0.315-0.711-0.448-1.157-0.122
			c-3.802,2.781-7.078,6.097-10.335,9.454c0.11-2.281,0.229-4.563,0.365-6.849c0.232,0.005,0.473-0.072,0.687-0.285
			c3.509-3.507,7.122-7.113,11.253-9.926c0.021,0.032,0.043,0.063,0.066,0.094C190.595,83.619,190.301,86.164,190.004,88.708z
			 M191.177,78.363c-4.506,2.774-8.403,6.519-12.138,10.24c0.072-1.133,0.142-2.266,0.22-3.4c0.104-1.526,0.187-3.047,0.256-4.565
			c0.263,0.037,0.543-0.022,0.798-0.228c2.094-1.688,4.139-3.436,6.287-5.055c0.924-0.696,3.562-2.981,5.245-3.142
			C191.635,74.264,191.403,76.313,191.177,78.363z M192.039,70.27c-1.723,0.066-3.503,1.323-4.822,2.197
			c-2.685,1.779-5.127,3.913-7.617,5.952c0.041-1.123,0.086-2.247,0.108-3.366c1.932-1.885,3.912-3.721,5.936-5.505
			c1.303-1.147,2.631-2.271,4.016-3.318c0.541-0.409,1.101-0.79,1.68-1.144c0.031-0.02,0.046-0.034,0.074-0.053
			c0.156,0.429,0.621,0.678,1.07,0.637C192.343,67.204,192.191,68.737,192.039,70.27z M192.715,62.916
			c-1.252-0.185-3.663,1.282-4.449,1.877c-2.989,2.263-5.809,4.799-8.521,7.412c0.003-0.582,0.013-1.165,0.011-1.745
			c3.88-3.975,8.039-8.657,13.102-10.884c0.063-0.029,0.1-0.073,0.151-0.108C192.919,60.617,192.813,61.766,192.715,62.916z
			 M193.1,58.167c-0.283-0.336-0.749-0.541-1.255-0.318c-4.627,2.034-8.522,6.05-12.131,9.78c-0.019-1.012-0.028-2.026-0.063-3.034
			c2.623-2.186,5.253-4.362,7.93-6.482c1.459-1.156,3.783-3.543,5.83-4.253C193.321,55.297,193.206,56.732,193.1,58.167z
			 M193.527,51.764c-2.184,0.343-4.517,2.719-6.163,3.998c-2.65,2.061-5.241,4.193-7.822,6.338
			c-0.042-0.817-0.086-1.636-0.142-2.451c0.378,0.088,0.799-0.017,1.067-0.432c3.501-5.402,8.479-9.313,13.336-13.408
			C193.734,47.795,193.636,49.78,193.527,51.764z M193.885,43.516c-0.247-0.02-0.508,0.045-0.742,0.245
			c-5.016,4.268-10.159,8.284-13.907,13.749c-0.152-1.836-0.324-3.667-0.547-5.487c2.478-1.709,4.743-3.716,7.03-5.669
			c1.279-1.094,2.562-2.182,3.871-3.239c0.439-0.354,2.558-2.359,3.244-2.181c0.559,0.146,0.959-0.166,1.136-0.577
			C193.945,41.431,193.914,42.488,193.885,43.516z M193.988,39.507c-0.104-0.229-0.305-0.418-0.623-0.501
			c-1.98-0.516-4.349,2.016-5.707,3.113c-3.119,2.519-6.031,5.328-9.283,7.679c-0.113-0.808-0.213-1.617-0.34-2.421
			c2.229-2.496,4.707-4.777,7.19-7.009c1.458-1.308,2.95-2.577,4.472-3.812c0.664-0.539,1.346-1.055,2.041-1.554
			c0.479-0.345,1.544-0.621,0.855-0.916c0.53,0.228,1.02-0.009,1.297-0.374C194.015,35.65,194.021,37.599,193.988,39.507z
			 M193.797,32.494c-0.062-0.046-0.108-0.099-0.191-0.134c-2.091-0.897-5.553,2.956-6.917,4.098
			c-3.143,2.628-6.265,5.406-9.075,8.421c-0.303-1.672-0.633-3.338-1.005-4.994c4.858-4.895,9.655-11.039,15.621-14.742
			C193.1,27.443,193.562,29.943,193.797,32.494z M191.416,23.291c-5.872,3.558-10.605,9.381-15.356,14.294
			c-0.306-1.235-0.623-2.467-0.973-3.693c4.407-4.499,9.812-10.183,15.767-11.627C191.048,22.593,191.235,22.937,191.416,23.291z
			 M179.82,14.61c3.922,0.946,7.317,2.689,9.838,5.905c-5.696,1.659-10.905,6.811-15.229,11.199c-0.506-1.648-1.037-3.29-1.627-4.92
			c3.836-2.945,7.833-5.699,11.807-8.451c1.052-0.729,0.054-2.464-1.011-1.727c-3.872,2.683-7.759,5.374-11.514,8.227
			c-0.429-1.115-0.872-2.229-1.344-3.335c2.775-2.19,5.599-4.316,8.62-6.164C179.667,15.157,179.797,14.887,179.82,14.61z
			 M174.429,13.766c1.059,0.095,2.09,0.224,3.099,0.389c-2.642,1.677-5.152,3.541-7.611,5.474c-0.983-2.181-2.051-4.345-3.21-6.488
			C169.425,13.309,172.039,13.552,174.429,13.766z M134.612,23.978c4.558-8.137,13.546-10.576,22.796-10.98
			c0.883,1.456,1.721,2.927,2.524,4.41c-0.149-0.107-0.33-0.186-0.568-0.179c-0.702,0.021-1.388,0.14-2.065,0.312
			c-0.545,0.139-1.122,0.407-1.684,0.438c-1.282,0.068-1.289,2.068,0,2c1.285-0.068,2.453-0.713,3.749-0.75
			c0.656-0.019,0.975-0.548,0.962-1.058c0.627,1.181,1.229,2.371,1.805,3.569c-0.09,0.027-0.181,0.063-0.272,0.123
			c-2.168,1.403-4.406,2.074-6.991,2.112c-1.288,0.02-1.29,2.02,0,2c2.919-0.043,5.547-0.798,8.001-2.386
			c0.031-0.02,0.055-0.043,0.082-0.064c0.635,1.386,1.225,2.789,1.794,4.199h-6.129c-1.29,0-1.29,2,0,2h6.923
			c0.514,1.355,0.992,2.724,1.445,4.103c-1.263,0.352-2.543,0.613-3.869,0.645c-1.288,0.029-1.291,2.029,0,2
			c1.535-0.036,3.014-0.335,4.472-0.742c0.575,1.876,1.085,3.777,1.55,5.698c-1.483,0.312-2.985,0.516-4.522,0.54
			c-1.288,0.021-1.29,2.021,0,2c1.684-0.027,3.337-0.251,4.969-0.595c0.349,1.586,0.66,3.186,0.934,4.803
			c-1.078,0.066-2.166,0.263-3.168,0.575c-1.229,0.382-0.704,2.312,0.531,1.929c0.963-0.3,1.94-0.451,2.946-0.511h0.004
			c0.327,2.248,0.569,4.508,0.747,6.776c-1.756-0.039-3.507-0.179-5.197-0.697c-1.236-0.379-1.761,1.552-0.531,1.929
			c1.9,0.583,3.887,0.732,5.867,0.771c0.082,1.331,0.14,2.665,0.179,4c-1.64-0.419-3.296-0.711-5.029-0.737
			c-1.291-0.021-1.289,1.979,0,2c1.76,0.027,3.42,0.352,5.07,0.809c0.021,1.34,0.006,2.681-0.007,4.021
			c-1.188-0.076-2.381-0.083-3.564-0.083c-1.29-0.001-1.29,1.999,0,2c1.185,0,2.376,0.001,3.56,0.083
			c-0.024,1.328-0.065,2.657-0.116,3.984c-1.144-0.066-2.294-0.069-3.442-0.07c-1.29,0-1.29,2,0,2
			c1.124,0.001,2.245-0.001,3.356,0.065c-0.082,1.841-0.183,3.678-0.294,5.511c-1.016-0.083-2.046-0.079-3.062-0.079
			c-1.29-0.001-1.29,1.999,0,2c0.939,0,1.947-0.036,2.937,0.036c-0.088,1.348-0.174,2.695-0.271,4.036
			c-0.031,0.44-0.055,0.881-0.084,1.322c-1.525-0.44-3.056-0.868-4.564-1.361c-1.229-0.402-1.752,1.529-0.531,1.929
			c1.643,0.536,3.308,0.995,4.965,1.477c-0.061,0.904-0.104,1.808-0.157,2.712c-0.599-0.218-1.189-0.471-1.787-0.77
			c-1.15-0.574-2.164,1.15-1.01,1.728c0.891,0.444,1.771,0.828,2.678,1.113c-0.041,0.757-0.093,1.515-0.131,2.271h-3.541
			c-1.29,0-1.29,2,0,2h3.453c-0.062,1.325-0.106,2.649-0.156,3.974c-1.781-0.068-3.443-0.339-5.041-1.339
			c-1.098-0.687-2.1,1.044-1.01,1.727c1.869,1.171,3.862,1.521,5.973,1.607c-0.019,0.569-0.021,1.138-0.038,1.706
			c-1.23-0.081-2.438-0.253-3.665-0.644c-1.231-0.392-1.756,1.539-0.531,1.929c1.38,0.438,2.753,0.63,4.152,0.717
			c-0.031,1.355-0.072,2.711-0.092,4.066h-3.045c-1.29,0-1.29,2,0,2h3.019c-0.01,1.083-0.011,2.165-0.012,3.248h-3.757
			c-1.289,0-1.289,2,0,2h3.762c0.005,1.083,0.029,2.165,0.045,3.247h-3.807c-1.289,0-1.289,2,0,2h3.835
			c0.007,0.376,0.007,0.752,0.016,1.128c-0.979,0.116-1.938,0.338-2.855,0.758c-1.17,0.536-0.153,2.26,1.01,1.727
			c0.599-0.274,1.242-0.423,1.901-0.507c0.048,1.741,0.109,3.482,0.183,5.223c-0.555,0.234-1.232,0.167-1.839,0.168
			c-1.29,0-1.29,2,0,2c0.673,0,1.324-0.013,1.937-0.141c0.195,4.065,0.455,8.128,0.812,12.186
			c-6.792-15.39-13.499-30.796-18.922-46.788c-8.541-25.188-14.843-51.046-19.562-77.206
			C133.394,25.458,134.095,24.9,134.612,23.978z M98.491,40.625c-0.14-15.142,13.724-21.593,26.161-15.868
			c-0.067,0.335-0.08,0.695-0.062,1.066c-1.793,0.804-3.371,2.021-5.227,2.687c-1.205,0.432-0.687,2.365,0.53,1.929
			c1.789-0.642,3.317-1.784,5.019-2.585c0.354,1.968,0.738,3.929,1.111,5.893c-1.649,0.118-3.228,0.693-4.896,0.726
			c-1.289,0.024-1.291,2.024,0,2c1.789-0.034,3.479-0.7,5.248-0.75c0,0,0.012-0.004,0.021-0.004
			c0.696,3.602,1.438,7.193,2.202,10.779c-0.153-0.002-0.312,0.023-0.479,0.105c-1.5,0.75-3,1.5-4.499,2.249
			c-1.153,0.577-0.141,2.302,1.01,1.727c1.46-0.729,2.919-1.459,4.379-2.188c0.317,1.465,0.649,2.926,0.979,4.388
			c-1.398,0.669-2.771,1.154-4.361,1.186c-1.289,0.025-1.291,2.025,0,2c1.738-0.034,3.275-0.504,4.807-1.189
			c0.182,0.793,0.371,1.583,0.557,2.375c-1.407,0.622-2.962,0.795-4.368,1.449c-1.168,0.544-0.152,2.268,1.01,1.727
			c1.218-0.566,2.552-0.781,3.812-1.237c0.157,0.675,0.326,1.348,0.487,2.022c-1.254,0.452-2.588,0.667-3.811,1.237
			c-1.168,0.544-0.152,2.268,1.01,1.727c1.041-0.485,2.171-0.703,3.267-1.04c0.201,0.832,0.412,1.663,0.618,2.495
			c-0.91,0.326-1.737,0.849-2.646,1.316c-1.146,0.59-0.135,2.315,1.01,1.727c0.707-0.363,1.38-0.834,2.116-1.117
			c0.255,1.014,0.532,2.021,0.793,3.033c-0.848,0.382-1.725,0.686-2.664,0.719c-1.286,0.045-1.29,2.045,0,2
			c1.122-0.039,2.163-0.354,3.172-0.775c0.288,1.101,0.595,2.197,0.891,3.297c-1.052,0.418-2.117,0.702-3.312,0.726
			c-1.287,0.025-1.29,2.025,0,2c1.372-0.026,2.618-0.326,3.836-0.787c0.278,1.022,0.57,2.042,0.854,3.063
			c-1.371,0.66-2.758,1.265-4.205,1.757c-1.214,0.413-0.693,2.345,0.53,1.929c1.447-0.491,2.844-1.083,4.22-1.733
			c0.385,1.369,0.78,2.734,1.178,4.101c-0.766,0.569-1.715,0.89-2.663,0.917c-1.287,0.037-1.29,2.037,0,2
			c1.14-0.033,2.259-0.355,3.243-0.919c0.37,1.259,0.764,2.512,1.143,3.768c-1.045,0.41-2.089,0.822-3.151,1.184
			c-1.213,0.414-0.692,2.346,0.53,1.929c1.08-0.367,2.142-0.786,3.201-1.202c0.476,1.547,0.958,3.092,1.446,4.636
			c-1.069,0.712-2.091,1.505-3.169,2.236c-1.061,0.72-0.062,2.453,1.01,1.727c0.94-0.639,1.844-1.359,2.784-2.018
			c0.432,1.343,0.863,2.685,1.312,4.023c0.14,0.41,0.288,0.815,0.429,1.225c-1.008,0.461-1.914,1.146-2.736,1.946
			c-0.926,0.9,0.489,2.313,1.414,1.414c0.598-0.581,1.25-1.112,1.979-1.477c0.358,1.032,0.738,2.056,1.107,3.083
			c-1.072,0.631-2.086,1.338-3,2.227c-0.926,0.9,0.488,2.313,1.414,1.414c0.699-0.681,1.466-1.232,2.271-1.729
			c0.455,1.243,0.928,2.479,1.396,3.717c-1.126,0.562-2.253,1.126-3.38,1.689c-1.153,0.577-0.142,2.303,1.01,1.727
			c1.025-0.513,2.05-1.024,3.075-1.537c0.411,1.07,0.833,2.136,1.253,3.203c-0.095,0.041-0.191,0.072-0.285,0.12
			c-0.868,0.441-1.578,1.213-2.256,1.892c-0.914,0.912,0.5,2.326,1.414,1.414c0.646-0.646,1.216-1.16,1.883-1.502
			c0.576,1.445,1.179,2.88,1.77,4.32c-0.658,0.373-1.334,0.699-2.11,0.723c-1.286,0.038-1.29,2.038,0,2
			c1.081-0.032,1.975-0.421,2.861-0.889c0.358,0.87,0.729,1.734,1.094,2.603c-0.799,0.246-1.571,0.609-2.211,0.921
			c-1.158,0.564-0.146,2.289,1.01,1.727c0.577-0.281,1.164-0.514,1.777-0.703c0.051-0.016,0.129-0.039,0.215-0.065
			c0.647,1.534,1.318,3.06,1.977,4.591c-0.793,0.626-1.507,1.43-2.182,2.104c-0.913,0.913,0.501,2.327,1.414,1.414
			c0.527-0.527,1.061-1.052,1.613-1.555c0.635,1.47,1.286,2.934,1.926,4.401c-0.351,0.377-0.747,0.676-1.247,0.694
			c-1.286,0.048-1.29,2.048,0,2c0.805-0.029,1.468-0.322,2.079-0.794c1.504,3.445,3,6.894,4.521,10.333
			c-2.522-3.298-4.996-6.625-7.506-9.941c-8.271-10.928-15.618-22.323-22.766-34.001c-13.083-21.372-26.89-42.569-36.789-65.649
			c-0.021-0.193-0.045-0.386-0.065-0.579c0.022-0.147,0.009-0.305-0.047-0.468c-0.176-1.741-0.313-3.489-0.472-5.229
			C98.431,41.479,98.496,41.075,98.491,40.625z M88.555,43.845c0.264,0.674,0.541,1.34,0.811,2.01c-1.8,0.766-3.45,1.73-4.927,3.153
			c-0.932,0.896,0.484,2.31,1.413,1.414c1.282-1.235,2.704-2.062,4.258-2.721c0.504,1.225,1.024,2.441,1.549,3.655
			c-1.281,0.407-2.422,1.127-3.471,2.15c-0.927,0.901,0.489,2.314,1.413,1.414c0.877-0.855,1.802-1.423,2.866-1.718
			c0.544,1.23,1.102,2.454,1.664,3.675c-1.335,0.727-2.586,1.546-3.696,2.626c-0.926,0.9,0.49,2.313,1.414,1.414
			c0.945-0.918,2.003-1.613,3.131-2.233c0.592,1.257,1.218,2.496,1.828,3.744c-1.227,0.592-2.355,1.331-3.373,2.323
			c-0.926,0.901,0.49,2.314,1.414,1.414c0.855-0.836,1.812-1.438,2.841-1.934c0.637,1.28,1.302,2.548,1.957,3.819
			c-1.327,0.961-2.402,2.22-3.369,3.649c-0.726,1.071,1.008,2.071,1.727,1.01c0.737-1.09,1.555-2.096,2.555-2.878
			c0.455,0.87,0.927,1.731,1.389,2.598c-0.623,0.375-1.22,0.798-1.766,1.317c-0.936,0.891,0.481,2.303,1.414,1.414
			c0.396-0.378,0.831-0.696,1.285-0.982c0.927,1.716,1.867,3.425,2.818,5.127c-0.97,0.873-1.904,1.767-2.675,2.89
			c-0.731,1.067,1.002,2.066,1.727,1.01c0.56-0.815,1.236-1.494,1.944-2.14c0.776,1.376,1.58,2.738,2.37,4.107
			c-0.633,0.407-1.264,0.817-1.936,1.162c-1.146,0.59-0.135,2.315,1.01,1.728c0.668-0.343,1.296-0.75,1.925-1.155
			c0.355,0.611,0.721,1.22,1.079,1.83c-0.815,0.73-1.536,1.575-2.514,2.097c-1.138,0.607-0.127,2.334,1.01,1.728
			c0.984-0.525,1.707-1.371,2.521-2.101c0.371,0.628,0.738,1.258,1.111,1.885c-1.061,0.981-1.948,2.16-2.75,3.346
			c-0.726,1.072,1.009,2.071,1.727,1.01c0.614-0.908,1.289-1.805,2.07-2.582c0.347,0.579,0.7,1.153,1.049,1.731
			c-0.812,1.477-2.335,2.301-3.738,3.231c-1.068,0.709-0.068,2.441,1.01,1.727c1.451-0.962,2.832-1.848,3.845-3.116
			c0.657,1.092,1.323,2.178,1.984,3.268c-0.88,1.023-1.976,1.866-3.09,2.62c-1.062,0.718-0.062,2.451,1.01,1.727
			c1.114-0.754,2.22-1.589,3.163-2.565c0.612,1.005,1.23,2.006,1.844,3.011c-0.916,0.889-1.878,1.73-3.018,2.326
			c-1.145,0.597-0.133,2.322,1.01,1.727c1.142-0.596,2.142-1.422,3.078-2.306c0.758,1.239,1.519,2.479,2.276,3.717
			c-0.583,0.749-1.044,1.604-1.477,2.468c-0.575,1.15,1.148,2.163,1.728,1.01c0.275-0.551,0.555-1.11,0.88-1.63
			c0.354,0.577,0.706,1.156,1.062,1.732c0.176,0.284,0.352,0.567,0.525,0.852c-0.779,0.74-1.453,1.595-1.943,2.534
			c-0.598,1.142,1.129,2.153,1.728,1.01c0.345-0.66,0.789-1.258,1.298-1.794c0.733,1.187,1.467,2.37,2.202,3.553
			c-0.318,0.605-0.591,1.262-0.83,1.97c-0.414,1.225,1.518,1.746,1.929,0.531c0.054-0.161,0.11-0.316,0.168-0.473
			c0.608,0.973,1.228,1.938,1.839,2.908c-0.73,0.888-1.295,1.919-1.687,3.03c-0.431,1.219,1.503,1.739,1.929,0.531
			c0.224-0.633,0.542-1.205,0.908-1.74c0.76,1.195,1.531,2.384,2.299,3.574c-0.699,1.216-1.631,2.191-2.629,3.19
			c-0.913,0.913,0.501,2.327,1.414,1.414c0.873-0.873,1.715-1.747,2.414-2.742c0.77,1.183,1.549,2.359,2.332,3.534
			c-0.918,1.026-1.787,2.092-2.568,3.244c-0.727,1.071,1.008,2.071,1.728,1.01c0.609-0.9,1.28-1.741,1.987-2.551
			c1.033,1.534,2.087,3.059,3.146,4.578c-0.638,0.664-1.193,1.406-1.613,2.211c-0.598,1.142,1.129,2.153,1.728,1.01
			c0.291-0.56,0.665-1.064,1.076-1.536c0.877,1.238,1.765,2.472,2.662,3.699c-0.392,0.383-0.708,0.823-0.968,1.325
			c-0.594,1.143,1.131,2.154,1.728,1.01c0.122-0.236,0.276-0.479,0.441-0.688c0.872,1.184,1.74,2.37,2.609,3.555
			c-0.744,0.484-1.32,1.219-1.78,2.121c-0.584,1.146,1.142,2.159,1.728,1.01c0.336-0.659,0.682-1.226,1.236-1.525
			c0.91,1.235,1.827,2.466,2.749,3.691c-0.256,0.432-0.781,0.843-1.059,1.12c-0.912,0.913,0.502,2.327,1.414,1.414
			c0.299-0.298,0.602-0.603,0.873-0.928c0.83,1.086,1.66,2.172,2.514,3.241c1.298,1.625,2.641,3.242,3.938,4.896
			c-1.856-1.267-3.442-2.253-4.17-2.751c-13.084-8.963-24.216-19.742-35.314-31.003c-20.999-21.305-41.153-42.879-58.718-67.107
			c0.522-1.389,0.139-3.136-0.925-4.332C65.011,51.523,76.959,42.794,88.555,43.845z M58.697,70.931
			c1.24,1.727,2.51,3.429,3.772,5.137c-1.553,0.802-3.004,1.695-4.271,2.928c-0.926,0.9,0.49,2.313,1.414,1.414
			c1.196-1.164,2.58-1.968,4.053-2.715c0.496,0.664,1.006,1.315,1.504,1.977c-1.354,0.844-2.638,1.91-3.378,3.275
			c-0.615,1.134,1.112,2.144,1.727,1.01c0.618-1.14,1.721-2,2.866-2.688c0.908,1.192,1.836,2.369,2.754,3.553
			c-0.821,0.519-1.623,1.069-2.489,1.516c-1.146,0.59-0.136,2.315,1.01,1.727c0.943-0.485,1.811-1.099,2.711-1.654
			c0.604,0.772,1.223,1.533,1.832,2.302c-0.938,0.891-1.574,2.056-2.162,3.232c-0.576,1.149,1.147,2.163,1.727,1.01
			c0.476-0.949,0.949-1.929,1.688-2.669c0.763,0.954,1.539,1.898,2.31,2.847c-0.793,0.747-1.478,1.609-1.975,2.561
			c-0.597,1.143,1.129,2.153,1.727,1.01c0.394-0.752,0.906-1.429,1.509-2.016c0.782,0.956,1.576,1.904,2.366,2.854l-1.696,1.698
			c-0.912,0.912,0.502,2.326,1.414,1.414l1.564-1.565c1.202,1.435,2.437,2.844,3.654,4.265c-0.438,0.647-0.846,1.318-1.386,1.884
			c-0.892,0.933,0.521,2.349,1.414,1.414c0.504-0.527,0.893-1.146,1.297-1.751c0.344,0.397,0.696,0.787,1.042,1.184
			c-0.435,0.571-0.781,1.207-1.013,1.844c-0.439,1.216,1.493,1.734,1.93,0.532c0.086-0.236,0.233-0.537,0.428-0.847
			c1.293,1.475,2.604,2.936,3.913,4.397c-0.337,0.536-0.635,1.104-0.921,1.675c-0.575,1.15,1.149,2.163,1.727,1.01
			c0.189-0.376,0.379-0.756,0.583-1.126c0.69,0.765,1.391,1.521,2.085,2.281c-0.415,0.464-0.814,0.948-1.239,1.382
			c-0.901,0.922,0.512,2.337,1.414,1.414c0.412-0.421,0.799-0.864,1.188-1.307c0.951,1.031,1.922,2.045,2.881,3.068
			c-0.92,0.874-1.58,2.09-1.99,3.263c-0.426,1.221,1.506,1.741,1.93,0.532c0.263-0.752,0.723-1.736,1.396-2.373
			c1.032,1.093,2.072,2.178,3.113,3.264c-0.862,0.546-1.682,1.153-2.433,1.885c-0.926,0.9,0.489,2.313,1.414,1.414
			c0.744-0.725,1.566-1.303,2.433-1.822c0.812,0.84,1.635,1.67,2.455,2.505c-1.097,0.648-2.084,1.435-2.709,2.604
			c-0.607,1.137,1.118,2.147,1.727,1.01c0.539-1.01,1.447-1.625,2.42-2.146c0.082,0.082,0.161,0.166,0.242,0.248
			c0.907,0.909,1.811,1.823,2.714,2.736l-1.698,1.698c-0.912,0.912,0.502,2.326,1.414,1.414c0.564-0.563,1.127-1.128,1.691-1.691
			c0.528,0.535,1.056,1.071,1.584,1.607c-0.317,0.299-0.629,0.606-0.941,0.919c-0.913,0.912,0.501,2.326,1.414,1.414
			c0.312-0.311,0.62-0.613,0.934-0.907c1.137,1.154,2.275,2.306,3.415,3.458c-0.28,0.462-0.451,1.04-0.67,1.485
			c-0.24,0.489-0.138,1.078,0.357,1.368c0.444,0.26,1.128,0.13,1.368-0.358c0.158-0.321,0.299-0.649,0.443-0.977
			c1.039,1.048,2.084,2.09,3.127,3.133c-0.642,0.352-1.312,0.659-1.939,0.974c-1.154,0.576-0.141,2.302,1.01,1.727
			c0.79-0.396,1.604-0.792,2.374-1.254c0.709,0.704,1.424,1.402,2.138,2.103c-0.544,0.443-1.118,0.838-1.772,1.173
			c-1.148,0.588-0.136,2.313,1.01,1.727c0.806-0.411,1.521-0.919,2.196-1.488c0.93,0.905,1.878,1.793,2.816,2.689
			c-0.575,0.575-1.151,1.151-1.728,1.727c-0.913,0.913,0.501,2.327,1.414,1.414c0.587-0.586,1.173-1.173,1.759-1.759
			c0.74,0.698,1.486,1.39,2.231,2.082c-0.315,0.481-0.848,0.796-1.454,1.105c-1.148,0.585-0.137,2.311,1.01,1.727
			c0.776-0.396,1.433-0.875,1.908-1.474c1.062,0.974,2.129,1.941,3.209,2.895c3.518,3.104,7.43,5.898,11.327,8.607
			c-19.372-9.073-37.102-22.234-54.878-33.773c-10.974-7.122-20.453-16.124-31.242-23.401c-9.435-6.363-20.282-10.511-28.432-18.648
			C33.941,81.104,47.019,74.068,58.697,70.931z M128.701,174.595c4.615,1.042,9.212,2.172,13.774,3.477
			c-4.591,0.123-9.182,0.252-13.772,0.381c0.1-0.146,0.174-0.317,0.174-0.541C128.877,176.784,128.864,175.677,128.701,174.595z
			 M34.509,102.741c0.21,0.008,0.423-0.013,0.636-0.045c0.092,0.078,0.189,0.147,0.281,0.226c-1.935,1.343-3.752,2.795-5.121,4.765
			c-0.737,1.062,0.997,2.062,1.727,1.01c1.307-1.879,3.146-3.213,5.021-4.475c0.63,0.493,1.276,0.96,1.923,1.43
			c-1.673,0.794-3.034,1.879-4.171,3.534c-0.732,1.067,1.002,2.065,1.727,1.01c1.128-1.643,2.558-2.536,4.376-3.188
			c0.42,0.286,0.849,0.562,1.272,0.841c-1.032,1.131-2.01,2.305-2.878,3.586c-0.726,1.071,1.008,2.071,1.728,1.01
			c0.853-1.259,1.825-2.399,2.853-3.5c0.592,0.373,1.197,0.727,1.797,1.091c-1.403,0.907-2.607,2.177-3.377,3.648
			c-0.598,1.142,1.129,2.153,1.728,1.01c0.756-1.447,1.941-2.633,3.39-3.39c0.064-0.033,0.099-0.081,0.149-0.121
			c0.883,0.521,1.771,1.034,2.661,1.546c-0.945,1.488-2.37,2.615-3.82,3.596c-1.062,0.719-0.062,2.452,1.01,1.727
			c1.729-1.17,3.438-2.53,4.546-4.327c0.649,0.371,1.298,0.744,1.947,1.116c-1.209,1.29-2.363,2.627-3.363,4.092
			c-0.729,1.068,1.004,2.068,1.728,1.01c1.004-1.47,2.186-2.8,3.415-4.083c0.675,0.389,1.341,0.789,2.011,1.184
			c-1.162,1.294-2.151,2.68-2.756,4.378c-0.434,1.219,1.5,1.738,1.93,0.532c0.539-1.52,1.504-2.733,2.582-3.875
			c0.027,0.016,0.056,0.031,0.083,0.048c0.642,0.389,1.271,0.793,1.893,1.206c-1.367,1.699-2.202,3.771-3.388,5.599
			c-0.703,1.086,1.029,2.087,1.728,1.01c1.147-1.771,1.936-3.852,3.311-5.466c0.861,0.614,1.701,1.255,2.537,1.901
			c-1.996,1.713-3.376,3.934-4.574,6.303c-0.582,1.147,1.145,2.16,1.728,1.01c1.143-2.258,2.438-4.48,4.448-6.05
			c1.035,0.829,2.06,1.674,3.084,2.519c-0.826,1.347-1.643,2.701-2.514,4.021c-0.713,1.08,1.021,2.081,1.727,1.01
			c0.814-1.232,1.578-2.496,2.35-3.756c0.479,0.395,0.966,0.784,1.447,1.178c-0.764,0.976-1.497,1.978-2.367,2.866
			c-0.903,0.922,0.511,2.337,1.414,1.414c0.918-0.938,1.685-2.002,2.493-3.027c0.839,0.666,1.69,1.312,2.538,1.966
			c-0.551,0.944-1.163,1.84-1.947,2.646c-0.899,0.925,0.514,2.34,1.414,1.414c0.841-0.864,1.518-1.82,2.124-2.829
			c0.638,0.482,1.295,0.939,1.938,1.416c-0.878,1.316-1.756,2.633-2.634,3.95c-0.718,1.076,1.016,2.077,1.727,1.01
			c0.841-1.261,1.682-2.521,2.521-3.782c0.637,0.463,1.281,0.914,1.922,1.373c-0.859,1.178-1.616,2.43-2.422,3.648
			c-0.714,1.079,1.02,2.08,1.727,1.01c0.771-1.167,1.488-2.376,2.314-3.501c0.902,0.639,1.821,1.255,2.729,1.885
			c-0.598,0.639-1.125,1.342-1.522,2.105c-0.597,1.143,1.129,2.153,1.727,1.01c0.382-0.731,0.875-1.395,1.455-1.971
			c0.477,0.324,0.942,0.662,1.422,0.981c0.771,0.517,1.547,1.039,2.32,1.56c-1.152,1.05-1.996,2.403-2.527,3.907
			c-0.43,1.219,1.504,1.739,1.931,0.531c0.464-1.318,1.254-2.444,2.334-3.273c1.001,0.675,2.005,1.354,3.01,2.032l-1.768,1.768
			c-0.913,0.913,0.501,2.327,1.413,1.414l2.041-2.041c0.509,0.345,1.021,0.689,1.531,1.034c-0.583,0.648-1.062,1.403-1.395,2.044
			c-0.594,1.144,1.133,2.155,1.727,1.01c0.315-0.608,0.695-1.158,1.156-1.665c0.071-0.079,0.147-0.156,0.225-0.232
			c1.167,0.788,2.343,1.574,3.515,2.362c-0.541,0.44-1.113,0.832-1.766,1.166c-1.147,0.587-0.136,2.312,1.011,1.727
			c0.919-0.471,1.729-1.057,2.484-1.729c0.342,0.229,0.687,0.455,1.027,0.684c-0.075,0.074-0.151,0.15-0.228,0.225
			c-0.914,0.912,0.5,2.326,1.414,1.414c0.137-0.135,0.305-0.33,0.49-0.524c1.248,0.829,2.5,1.654,3.755,2.476
			c-0.154,0.144-0.302,0.274-0.411,0.384c-0.912,0.913,0.502,2.327,1.414,1.414c0.229-0.229,0.46-0.463,0.679-0.705
			c0.792,0.514,1.591,1.018,2.385,1.527c-0.042,0.072-0.097,0.141-0.135,0.215c-0.599,1.142,1.129,2.152,1.727,1.01
			c0.027-0.053,0.062-0.097,0.091-0.146c2.297,1.46,4.604,2.906,6.934,4.311c-13.936-3.183-28.065-5.58-42.047-8.652
			c-22.092-4.855-43.694-12.886-64.915-20.777c-0.011-0.018-0.017-0.034-0.027-0.052C12.338,122.843,21.723,109.355,34.509,102.741z
			 M17.987,143.915c0.117,0.043,0.234,0.085,0.352,0.128c-1.318,2.117-2.338,4.284-2.414,6.88c-0.038,1.291,1.962,1.287,2,0
			c0.069-2.346,1.104-4.281,2.329-6.181c0.646,0.237,1.296,0.47,1.943,0.706c-1.066,1.921-1.728,3.983-1.774,6.225
			c-0.026,1.291,1.974,1.288,2,0c0.042-2.02,0.685-3.827,1.678-5.533c0.558,0.202,1.118,0.4,1.677,0.603
			c-0.83,1.812-0.855,3.715-0.856,5.681c-0.001,1.289,1.999,1.289,2,0c0.001-1.591-0.081-3.268,0.612-4.743
			c0.046-0.096,0.055-0.188,0.07-0.28c0.668,0.24,1.337,0.475,2.005,0.714c-0.108,0.149-0.189,0.326-0.189,0.561v4.498
			c0,1.29,2,1.29,2,0v-4.414c0.831,0.296,1.665,0.586,2.498,0.88v6.533c0,1.29,2,1.29,2,0v-5.83
			c0.862,0.303,1.728,0.599,2.592,0.898c-0.058,0.124-0.094,0.267-0.094,0.434c0.001,1.992,0.022,3.919,0.887,5.753
			c0.55,1.166,2.272,0.149,1.728-1.01c-0.662-1.406-0.619-2.993-0.614-4.517c1.083,0.373,2.168,0.738,3.252,1.107
			c0.016,2.178,0.131,4.328,0.782,6.429c0.381,1.228,2.312,0.703,1.929-0.531c-0.531-1.715-0.664-3.449-0.699-5.213
			c0.854,0.286,1.706,0.567,2.56,0.851c-0.039,0.198-0.04,0.411,0.062,0.635c0.809,1.782,0.815,3.894,1.397,5.758
			c0.384,1.228,2.313,0.703,1.93-0.531c-0.524-1.678-0.67-3.459-1.191-5.13c1.597,0.524,3.198,1.028,4.798,1.54
			c0.44,1.866,0.642,3.782,1.213,5.621c0.381,1.228,2.312,0.703,1.929-0.531c-0.446-1.434-0.662-2.916-0.942-4.385
			c1.009,0.318,2.021,0.624,3.029,0.937c-0.182,0.161-0.304,0.398-0.303,0.715c0.002,2.589,0.229,5.008,1.636,7.252
			c0.684,1.09,2.413,0.087,1.728-1.01c-1.223-1.952-1.36-3.998-1.362-6.242c0-0.077-0.028-0.135-0.042-0.203
			c1.939,0.595,3.885,1.178,5.833,1.751c-0.176,0.16-0.295,0.392-0.295,0.701c0.003,2.589,0.231,5.008,1.637,7.252
			c0.682,1.09,2.413,0.087,1.728-1.01c-1.223-1.952-1.361-3.998-1.363-6.242c0-0.085-0.028-0.148-0.045-0.222
			c2.233,0.648,4.475,1.28,6.72,1.896c-0.282,2.198-0.058,4.31,1.208,6.327c0.684,1.089,2.414,0.086,1.727-1.01
			c-0.979-1.561-1.174-3.136-0.991-4.796c1.473,0.397,2.948,0.783,4.427,1.166c0.171,2.34,0.823,4.582,2.492,6.341
			c0.89,0.938,2.302-0.479,1.414-1.414c-1.167-1.23-1.667-2.779-1.856-4.399c1.551,0.388,3.105,0.756,4.66,1.116
			c0.037,1.948,0.188,3.872,0.771,5.755c0.382,1.229,2.312,0.704,1.93-0.531c-0.486-1.568-0.642-3.152-0.689-4.762
			c1.283,0.289,2.568,0.559,3.854,0.835c-0.582,2.234-0.536,4.475,0.154,6.707c0.381,1.229,2.312,0.704,1.93-0.531
			c-0.604-1.95-0.643-3.813-0.127-5.752c1.387,0.292,2.772,0.572,4.16,0.854c0.002,1.962,0.034,3.86,0.887,5.668
			c0.549,1.166,2.271,0.15,1.727-1.01c-0.624-1.324-0.622-2.81-0.615-4.251c1.833,0.367,3.666,0.73,5.499,1.092
			c0.007,1.932,0.078,3.885,0.887,5.669c0.53,1.173,2.254,0.155,1.727-1.01c-0.588-1.299-0.631-2.814-0.621-4.267
			c1.337,0.264,2.674,0.528,4.011,0.794c0.02,2.235,0.198,4.449,1.787,6.184c0.872,0.953,2.283-0.465,1.414-1.414
			c-1.088-1.188-1.196-2.812-1.205-4.368c1.282,0.258,2.562,0.526,3.843,0.791c-0.561,1.606-0.463,3.166,0.291,4.789
			c0.542,1.169,2.267,0.152,1.727-1.01c-0.521-1.121-0.526-2.251-0.04-3.372c1.301,0.273,2.601,0.558,3.899,0.843
			c0.318,1.221,0.273,2.528,0.273,3.784c0,0.248,0.089,0.433,0.209,0.585c-39.228,1.104-78.452,2.338-117.695,2.765
			C5.971,169.382,8.973,152.892,17.987,143.915z M11.908,204.06c-0.678-4.858-1-9.801-0.902-14.821
			c56.488-0.646,112.941-2.948,169.42-4.103c28.489-0.582,56.998,0.181,85.478-0.585c6.249-0.168,12.502-0.788,18.751-0.769
			c5.57,0.018,11.144,0.694,16.686,1.19c7.555,0.677,15.312,1.187,22.702-0.354c0.016,0.06,0.04,0.113,0.059,0.171
			c-1.263,5.442-1.656,11.104-1.452,16.714c-4.582,3.089-9.24,5.74-14.917,6.088c-4.189,0.258-7.083-4.431-9.833-6.92
			c-8.623-7.803-19.296-8.288-29.424-3.417c-8.477,4.076-17.354,13.301-27.171,8.033c-7.492-4.021-13.59-10.213-22.866-8.397
			c-5.285,1.034-9.513,4.315-13.32,7.964c-4.068,3.896-8.875,10.124-15.258,7.28c-4.535-2.021-8.156-6.026-12.535-8.427
			c-4.095-2.247-8.998-3.342-13.624-2.444c-8.046,1.561-13.729,8.226-21.646,10.042c-10.841,2.486-17.411-10.516-28.085-10.701
			c-10.104-0.176-15.104,11.834-25.173,11.302c-8.466-0.447-15.634-8.237-23.264-11.294c-9.282-3.719-17.796,1.671-24.408,7.859
			c-3.442,3.223-6.602,7.33-11.699,7.409c-6.556,0.103-12.558-5.755-16.144-10.607C12.88,204.734,12.412,204.338,11.908,204.06z
			 M53.052,285.22c0.388-0.107,0.771-0.214,1.154-0.321c6.385,15.416,13.803,30.361,21.727,45.038
			c-12.528-11.083-25.18-22.011-36.236-34.607C43.758,291.428,48.229,288.006,53.052,285.22z M104.785,284.185
			c4.329,1.62,8.559,3.602,12.567,5.903c-0.489,0.725-0.955,1.454-1.416,2.132c-2.668,3.929-5.282,7.885-7.978,11.795
			c-6.96,10.101-13.71,20.345-21.317,29.974c-0.367-0.073-0.737-0.145-1.118-0.192c2.729-6.141,5.517-12.254,8.342-18.374
			c4.594-9.954,8.973-20.188,10.924-31.03C104.802,284.316,104.785,284.255,104.785,284.185z M149.651,340.773
			c-4.334,1.046-8.61,2.28-12.969,3.235c-11.823,2.593-24.569,3.971-36.739,2.932c-0.212-0.701-0.445-1.396-0.73-2.073
			c5.572-1.043,11.119-2.205,16.618-3.546c11.826-2.884,23.437-6.584,35.229-9.594c0.812,2.663,1.457,5.374,1.937,8.118
			C151.839,340.145,150.689,340.523,149.651,340.773z M153.295,341.728c0.394,2.71,0.61,5.45,0.67,8.208
			c-7.438,1.385-16.744,0.159-23.754-0.807c-3.04-0.419-6.1-0.62-9.165-0.741c3.522-0.368,7.038-0.824,10.544-1.3
			c5.447-0.735,10.771-2.445,16.085-3.771C149.371,342.896,151.366,342.156,153.295,341.728z M117.106,338.939
			c-6.202,1.596-12.481,2.903-18.788,4.061c-0.22-0.403-0.456-0.797-0.703-1.183c3.127-1.553,6.198-3.221,9.43-4.565
			c5.281-2.196,10.627-4.225,15.877-6.497c5.062-2.191,9.955-4.779,14.854-7.307c2.619-1.351,5.689-2.275,8.348-3.716
			c1.711,3.259,3.162,6.63,4.328,10.09C139.285,332.673,128.267,336.067,117.106,338.939z M136.765,321.722
			c-4.899,2.535-9.813,5.052-14.854,7.306c-5.062,2.265-10.269,4.202-15.398,6.296c-3.457,1.411-6.721,3.219-10.062,4.865
			c-0.289-0.362-0.585-0.718-0.896-1.06c14.86-9.885,31.636-16.414,46.854-25.677c0.988,1.49,1.91,3.014,2.778,4.562
			C142.576,319.463,139.308,320.405,136.765,321.722z M94.103,337.704c-0.465-0.406-0.94-0.801-1.448-1.155
			c8.062-7.056,16.247-14.004,24.428-20.902c3.553-2.996,7.154-5.931,10.672-8.97c1.547-1.338,3.822-2.922,5.169-4.764
			c3.106,3.084,5.896,6.396,8.354,9.888C125.938,321.115,109.034,327.679,94.103,337.704z M125.469,306.014
			c-3.226,2.787-6.534,5.479-9.802,8.218c-8.329,6.979-16.597,14.081-24.787,21.241c-0.684-0.357-1.404-0.656-2.146-0.915
			c6.351-8.107,12.148-16.619,17.944-25.133c2.705-3.975,5.51-7.881,8.152-11.896c1.237-1.881,2.521-4.408,4.06-6.521
			c3.604,2.176,7.02,4.603,10.132,7.287c0.839,0.724,1.649,1.468,2.45,2.221C130.079,302.645,127.215,304.507,125.469,306.014z
			 M102.859,283.859c-2.9,16.122-10.483,31.229-17.62,46.217c1.568-16.53,4.575-33.073,8.042-49.294
			c3.248,0.714,6.499,1.637,9.707,2.756C102.933,283.632,102.883,283.729,102.859,283.859z M82.91,333.682
			c-0.126,0.004-0.253,0.002-0.378,0.008c-1.145-18.001-2.167-36.015-5.065-53.831c4.52-0.406,9.109-0.322,13.856,0.531
			C87.58,297.919,84.371,315.818,82.91,333.682z M80.386,330.862c-6.216-15.826-11.588-32.337-14.025-49.152
			c3.031-0.694,6.063-1.273,9.124-1.644C78.24,296.873,79.328,313.87,80.386,330.862z M77.191,328.113
			c-7.685-14.26-14.872-28.785-21.069-43.747c2.788-0.774,5.55-1.525,8.308-2.198C66.741,297.86,71.521,313.26,77.191,328.113z
			 M38.275,296.734c11.744,13.381,25.285,24.879,38.57,36.68c-0.174,0.113-0.348,0.233-0.516,0.383
			c-0.53,0.472-1.045,0.969-1.547,1.483c-15.092-9.387-30.381-18.444-46.027-26.896C31.572,304.213,34.76,300.294,38.275,296.734z
			 M27.644,310.056c15.56,8.4,30.765,17.4,45.772,26.729c-0.548,0.646-1.06,1.326-1.549,2.021
			c-15.69-8.081-31.637-15.631-48.046-22.148C24.996,314.406,26.27,312.199,27.644,310.056z M22.918,318.439
			c16.347,6.479,32.224,13.998,47.849,22.045c-0.727,1.207-1.363,2.466-1.882,3.764c-6.034-1.967-11.898-4.353-17.893-6.733
			c-10.363-4.117-21.359-6.424-31.922-9.973C20.168,324.454,21.455,321.41,22.918,318.439z M16.943,334.45
			c0.433-1.68,0.939-3.351,1.485-5.014c10.601,3.591,21.548,6.059,32.032,10.006c4.744,1.786,9.363,3.653,14.041,5.342
			c-4.842-0.57-9.742-1.729-14.27-2.242c-11.483-1.305-23.136-1.258-34.687-1.252C15.892,339.009,16.356,336.728,16.943,334.45z
			 M15.279,343.292c11.66,0.006,23.342,0.088,34.954,1.25c5.643,0.564,11.795,2.158,17.744,2.465
			c-0.062,0.237-0.132,0.474-0.185,0.713c-7.252,0.887-14.527,1.559-21.831,1.891c-10.474,0.475-20.93,0.91-31.153,3.247
			C14.732,349.688,14.891,346.493,15.279,343.292z M14.888,354.889c10.775-2.519,21.826-2.86,32.861-3.361
			c6.593-0.299,13.163-0.945,19.714-1.76c-0.058,0.5-0.073,1.004-0.089,1.508c-2.147,0.666-4.338,1.199-6.52,1.73
			c-6.296,1.535-12.648,2.839-19.002,4.111c-8.556,1.716-17.378,3.862-26.147,4.955C15.306,359.7,15.021,357.305,14.888,354.889z
			 M16.066,364.042c9.869-1.215,19.795-3.665,29.422-5.621c6.543-1.33,13.09-2.712,19.551-4.406c0.531-0.141,1.42-0.302,2.393-0.53
			c0.009,0.091,0.004,0.182,0.015,0.271c-6.736,4.524-14.667,7.718-21.879,11.166c-8.481,4.057-17.124,7.74-25.394,12.206
			C18.336,372.9,16.969,368.52,16.066,364.042z M21.002,378.957c8.843-4.803,18.111-8.739,27.188-13.08
			c5.557-2.656,11.438-5.199,16.864-8.345C52.282,367.864,39,377.445,24.528,385.482C23.22,383.358,22.051,381.18,21.002,378.957z
			 M30.371,393.609c-0.062-0.073-0.127-0.145-0.188-0.218c-1.662-2.007-3.187-4.083-4.585-6.214
			c15.253-8.467,29.263-18.619,42.687-29.605c0.099,0.282,0.21,0.559,0.329,0.83c-5.598,4.937-10.294,11.213-15.233,16.708
			C46.802,382.427,38.521,388.147,30.371,393.609z M31.68,395.128c7.317-4.943,14.476-10.114,20.846-16.264
			c5.01-4.834,9.192-10.616,14.021-15.672c-3.722,5.859-8.354,11.331-12.159,16.927c-5.135,7.55-10.465,14.94-14.727,23.021
			C36.818,400.646,34.155,397.957,31.68,395.128z M41.227,404.461c4.553-8.714,10.348-16.653,15.867-24.772
			c4.196-6.171,9.292-12.065,13.008-18.618c0.305,0.433,0.622,0.854,0.969,1.259c-7.07,16.191-14.383,32.277-20.692,48.784
			C47.18,409.119,44.127,406.882,41.227,404.461z M52.121,412.169c6.219-16.352,13.392-32.31,20.412-48.331
			c0.435,0.396,0.895,0.771,1.368,1.124c-2.353,8.647-4.29,17.35-6.523,26.037c-2.204,8.572-5.327,16.794-6.521,25.55
			C57.859,415.288,54.94,413.825,52.121,412.169z M62.758,417.316c1.086-8.842,4.2-17.207,6.549-25.786
			c2.308-8.424,4.125-16.949,6.365-25.396c1.039,0.61,2.134,1.133,3.269,1.547c-3.744,17.47-3.793,35.31-3.783,53.118
			C70.922,420.058,66.775,418.871,62.758,417.316z M77.156,421.116c-0.014-17.716-0.013-35.464,3.699-52.849
			c0.887,0.227,1.782,0.399,2.685,0.497c0.698,5.788,1.475,11.565,2.257,17.317c0.84,6.188,1.769,12.361,2.822,18.518
			c0.896,5.229,3.205,11.249,3.205,16.524c0,0.088,0.029,0.154,0.047,0.23C86.906,421.914,81.981,421.797,77.156,421.116z
			 M96.042,420.747c-0.74,0.141-1.479,0.25-2.219,0.359c-0.005-4.296-1.829-9.142-2.621-13.381
			c-1.145-6.122-2.087-12.281-2.965-18.446c-0.965-6.773-1.888-13.585-2.696-20.408c1.255-0.006,2.496-0.149,3.697-0.439
			c6.938,16.05,12.375,32.729,16.89,49.613C102.862,419.188,99.494,420.097,96.042,420.747z M108.008,417.336
			c-4.514-16.854-9.962-33.49-16.873-49.519c1.99-0.761,3.664-1.807,5.021-3.08c9.424,14.733,19.339,29.409,25.442,45.66
			C117.353,413.182,112.794,415.505,108.008,417.336z M123.306,409.243c-6.297-16.406-16.491-31.001-25.869-45.879
			c0.833-1.023,1.5-2.149,2.022-3.341c13.034,11.714,24.498,25.791,34.653,39.928C130.818,403.391,127.211,406.519,123.306,409.243z
			 M135.501,398.471c-9.486-13.173-20.073-26.259-32.013-37.45c7.306,5.262,14.46,10.719,21.274,16.619
			c5.265,4.557,12.259,7.521,17.442,12.214C140.183,392.896,137.941,395.776,135.501,398.471z M143.311,388.134
			c-5.521-4.97-12.935-8.272-18.494-13.087c-7.708-6.672-15.951-12.709-24.279-18.581c0.14-0.738,0.248-1.485,0.296-2.244
			c15.061,9.753,30.032,19.646,45.085,29.389C145.105,385.154,144.231,386.66,143.311,388.134z M146.823,381.814
			c-15.354-9.938-30.621-20.03-45.985-29.972c-0.011-0.173-0.037-0.346-0.053-0.519c17.4,5.406,31.424,18.788,49.074,23.382
			C148.972,377.141,147.954,379.511,146.823,381.814z M150.713,372.222c-0.063,0.197-0.137,0.393-0.202,0.59
			c-14.155-3.651-25.988-12.987-39.093-19.35c8.078,2.407,16.123,5.011,23.937,7.924c4.041,1.507,7.991,3.235,12.059,4.681
			c1.348,0.479,2.971,1.114,4.615,1.496C151.643,369.118,151.211,370.673,150.713,372.222z M152.453,365.694
			c-2.43-0.497-5.03-1.733-6.857-2.407c-3.53-1.302-6.979-2.812-10.506-4.126c-9.563-3.566-19.505-6.631-29.411-9.453
			c2.441,0.121,4.892,0.14,7.357,0.141c6.372,0.003,12.503,0.729,18.818,1.51c6.649,0.822,15.083,1.819,22.118,0.609
			C153.933,356.521,153.447,361.114,152.453,365.694z M203.108,340.487c0.339-0.181,0.65-0.419,0.938-0.698
			c8.995-1.565,18.487,0.686,27.396,1.838c7.532,0.976,15.19,1.44,22.843,1.824c-2.575,0.359-5.195,0.496-7.817,0.624
			c-4.962,0.241-9.875,0.853-14.81,1.41c-9.681,1.097-19.348,2.297-28.991,3.666C202.447,346.188,202.545,343.262,203.108,340.487z
			 M275.893,278.345c4.747,0.134,9.47,0.776,14.061,1.876c-2.644,17.781-9.004,34.594-15.063,51.449
			c-0.565,0.046-1.128,0.104-1.686,0.19c0.41-5.816,0.865-11.631,1.385-17.446C275.659,302.435,276.67,290.373,275.893,278.345z
			 M271.969,326.093c-1.073-15.832-4.527-31.757-9.131-46.858c3.649-0.598,7.353-0.915,11.059-0.917
			C274.95,294.142,273.447,310.154,271.969,326.093z M270.112,328.457c-6.782-15.25-13.846-30.378-21.378-45.271
			c3.893-1.602,7.961-2.801,12.117-3.611C265.662,295.322,269.233,311.962,270.112,328.457z M269.811,332.651
			c-1.693,0.531-3.307,1.251-4.792,2.139c-2.187-3.048-4.384-6.076-6.256-9.226c-7.189-12.088-14.729-23.985-20.095-37.017
			c0.605-0.403,1.198-0.82,1.825-1.203c2.062-1.257,4.203-2.373,6.404-3.365C254.996,299.979,262.566,316.246,269.811,332.651z
			 M254.246,321.927c2.886,4.789,5.858,9.442,9.028,14.038c-1.255,0.929-2.399,1.979-3.388,3.148
			c-9.973-14.381-20.195-28.58-31.127-42.271c2.513-2.61,5.249-5.017,8.245-7.171C241.709,300.961,247.938,311.462,254.246,321.927z
			 M258.638,340.785c-0.174,0.26-0.351,0.519-0.51,0.786l-0.164-0.009c-0.557-0.15-1.111-0.308-1.668-0.461
			c-13.832-8.835-24.894-21.172-36.737-32.463c2.357-3.647,4.942-7.12,7.839-10.316
			C238.372,312.072,248.631,326.338,258.638,340.785z M250.181,339.339c-13.396-4.026-26.521-8.969-39.435-14.354
			c2.314-5.02,4.839-9.955,7.724-14.625C228.832,320.256,238.625,330.907,250.181,339.339z M249.039,341.077
			c-6.776-0.391-13.549-0.884-20.233-1.802c-7.687-1.056-15.705-2.647-23.472-1.698c1.459-3.586,2.974-7.202,4.586-10.788
			C222.737,332.133,235.754,337.05,249.039,341.077z M202.856,351.132c11.488-1.63,23.01-3.002,34.542-4.293
			c6.3-0.703,12.913-0.497,19.167-1.747c-0.289,0.934-0.504,1.896-0.631,2.891c-1.255,0.601-2.513,1.191-3.773,1.775
			c-15.698,3.954-31.548,7.396-47.206,11.399C204.026,357.917,203.258,354.518,202.856,351.132z M205.527,363.074
			c12.233-3.136,24.562-5.954,36.842-8.933c-11.579,5.033-23.303,9.757-34.687,15.229
			C206.957,367.402,206.215,365.289,205.527,363.074z M208.392,371.243c14.74-7.106,30.061-12.941,44.9-19.814
			c0.829-0.211,1.66-0.418,2.488-0.633c0.021,0.55,0.077,1.107,0.15,1.67c-14.737,9.063-28.801,19.191-43.562,28.227
			C210.902,377.542,209.587,374.366,208.392,371.243z M213.242,382.503c14.606-8.928,28.525-18.932,43.085-27.927
			c0.092,0.369,0.19,0.739,0.307,1.112c0.285,0.921,0.804,1.569,1.425,2.021c-5.162,4.044-10.266,8.16-15.059,12.752
			c-7.87,7.54-15.71,15.161-25.009,20.771C216.261,388.411,214.688,385.476,213.242,382.503z M228.844,404.948
			c-3.694-3.494-6.936-7.599-9.79-12.021c8.514-5.124,15.848-11.912,23.046-18.825c5.107-4.905,10.478-9.392,15.929-13.774
			c-10.15,14.609-20.117,29.344-29.084,44.711C228.912,405.008,228.877,404.979,228.844,404.948z M230.465,406.4
			c8.986-15.438,18.981-30.241,29.175-44.909c0.458,0.881,1.027,1.688,1.658,2.45c-8.415,15.771-16.462,31.765-22.701,48.53
			C235.734,410.66,233.007,408.642,230.465,406.4z M240.331,413.533c6.146-16.617,14.101-32.461,22.426-48.083
			c0.639,0.562,1.313,1.093,2.077,1.547c-6.163,16.835-7.92,34.881-12.357,52.226C248.251,417.714,244.178,415.808,240.331,413.533z
			 M266.38,422.706c-4.071-0.605-8.097-1.556-12.009-2.831c4.416-17.246,6.108-35.252,12.238-51.991
			c0.786,0.335,1.611,0.632,2.509,0.854c-0.375,7.173-0.741,14.345-1.052,21.517C267.598,401.062,268.301,412.034,266.38,422.706z
			 M268.356,422.968c1.637-9.163,1.438-18.592,1.583-27.875c0.133-8.652,0.624-17.317,1.128-25.978
			c0.55,0.077,1.105,0.134,1.668,0.172c1.83,18.216,8.694,35.697,9.054,54.075C277.325,423.644,272.819,423.509,268.356,422.968z
			 M283.787,423.199c-0.393-18.16-7.095-35.432-8.993-53.412c5.939,17.454,13.658,34.233,20.47,51.359
			C291.515,422.15,287.675,422.843,283.787,423.199z M297.188,420.611c-6.813-17.137-14.536-33.926-20.479-51.391
			c0.42-0.038,0.839-0.077,1.26-0.139c10.523,15.477,21.128,30.897,32.363,45.865C306.19,417.356,301.771,419.231,297.188,420.611z
			 M312.034,413.904c-11.082-14.764-21.554-29.965-31.94-45.226c2.099-0.481,4.145-1.226,6.046-2.212
			c12.139,12.952,24.664,25.546,37.433,37.875C320.11,408.097,316.224,411.274,312.034,413.904z M325.276,402.414
			c-0.123,0.146-0.253,0.286-0.377,0.432c-12.61-12.18-24.98-24.615-36.979-37.401c1.286-0.818,2.474-1.768,3.537-2.831
			c4.923,5.095,10.488,9.462,16.321,13.549c3.834,2.688,7.77,5.229,11.661,7.829c3.381,2.262,7.933,4.693,11.043,7.676
			c-0.255,0.513-0.14,1.227,0.574,1.423c0.213,0.06,0.411,0.138,0.612,0.212C329.753,396.548,327.626,399.615,325.276,402.414z
			 M332.834,391.243c-2.285-2.504-5.874-4.496-8.552-6.37c-3.819-2.673-7.739-5.2-11.612-7.793
			c-7.105-4.756-13.953-9.832-19.862-15.965c0.928-1.153,1.722-2.417,2.333-3.797c7.758,4.683,15.562,9.281,23.565,13.54
			c3.595,1.914,7.257,3.64,10.953,5.341c2.421,1.114,5.849,2.33,8.095,4.218C336.359,384.168,334.723,387.804,332.834,391.243z
			 M338.475,378.404c-4.263-3.438-10.802-5.207-15.356-7.507c-9.335-4.713-18.339-10.06-27.28-15.482
			c0.659-2.156,0.851-4.332,0.644-6.446c8.209,2.645,16.28,5.7,24.533,8.214c3.865,1.177,7.808,2.241,11.759,3.094
			c3.138,0.677,6.495,1.039,9.599,2.01C341.585,367.74,340.273,373.175,338.475,378.404z M342.637,360.242
			c-6.176-2.07-13.14-2.748-19.348-4.479c-9.197-2.565-18.091-6.098-27.181-9.01c-0.115-0.491-0.244-0.98-0.4-1.463
			c15.771,0.188,31.541-0.699,46.967-4.015C343.445,347.397,343.407,353.819,342.637,360.242z M342.397,339.296
			c-15.595,3.378-31.53,4.225-47.473,3.992c-0.604-1.321-1.374-2.57-2.263-3.733c2.395-0.881,4.78-1.783,7.153-2.736
			c7.841-3.148,15.813-5.953,23.609-9.22c4.003-1.678,7.989-3.452,11.734-5.654c0.509-0.299,1.085-0.645,1.656-1.027
			C339.51,326.862,341.428,333.077,342.397,339.296z M327.178,304.939c3.439,4.429,6.423,9.241,8.848,14.269
			c-1.562,1.163-3.713,2.059-4.894,2.674c-4.321,2.257-8.873,4.09-13.396,5.896c-7.889,3.15-15.854,6.161-23.784,9.206
			c-0.875,0.336-1.757,0.649-2.636,0.977c-0.821-0.874-1.717-1.684-2.682-2.406c7.746-6.283,15.553-12.496,23.475-18.548
			c3.38-2.581,6.786-5.124,10.098-7.794C323.715,307.995,325.719,306.594,327.178,304.939z M325.972,303.425
			c-1.753,2.305-5.165,4.373-7.052,5.871c-3.557,2.823-7.229,5.499-10.807,8.3c-7.097,5.557-14.212,11.113-21.245,16.768
			c-0.944-0.566-1.938-1.052-2.97-1.456c11.869-12.201,24.176-24.127,33.001-38.812C320.162,296.91,323.207,300.039,325.972,303.425
			z M315.359,292.784c-8.925,14.971-21.529,27.019-33.577,39.434c-0.47-0.123-0.941-0.24-1.423-0.327
			c4.331-6.137,8.667-12.27,12.934-18.448c5.622-8.143,11.085-16.59,14.882-25.764C310.662,289.202,313.062,290.914,315.359,292.784
			z M305.618,286.185c0.283,0.155,0.562,0.32,0.842,0.479c-3.96,9.707-9.909,18.547-15.838,27.136
			c-4.123,5.973-8.312,11.899-12.502,17.829c-0.363-0.021-0.726-0.031-1.088-0.036c5.993-16.685,12.181-33.305,14.853-50.892
			C296.682,282.005,301.311,283.823,305.618,286.185z M323.704,220.606c-8.821,17.735-16.569,35.998-25.967,53.444
			c-3.521-1.203-7.156-2.133-10.887-2.755c-20.15-3.36-42.097,1.887-58.11,14.585c-13.323,10.563-21.326,26.289-27.924,41.844
			c-0.672,0.289-1.29,0.786-1.779,1.549c-1.045,1.626-1.875,3.332-2.537,5.095c-11.066,3.201-24.48,4.903-35.736,1.65
			c-2.844-12.936-9.448-24.795-17.969-35.013c-10.848-13.013-25.288-20.917-41.186-26.126c-8.458-2.771-17.106-4.062-25.988-3.181
			c-8.2,0.814-16.132,3.357-24.042,5.611c-0.127,0.007-0.257,0.035-0.388,0.06c4.005-3.82,8.459-7.124,12.674-10.705
			c0.983-0.836-0.438-2.243-1.414-1.413c-4.235,3.598-8.711,6.914-12.73,10.76c-1.229-1.325-2.438-2.676-3.635-4.038
			c2.713-2.337,5.635-4.415,8.445-6.643c1.011-0.801-0.414-2.205-1.414-1.413c-2.775,2.197-5.658,4.25-8.342,6.55
			c-1.427-1.655-2.818-3.341-4.188-5.047c2.803-1.311,5.634-2.562,8.408-3.934c1.156-0.571,0.143-2.297-1.01-1.727
			c-2.86,1.415-5.781,2.702-8.67,4.057c-1.23-1.569-2.432-3.161-3.607-4.771c2.692-1.384,5.499-2.486,8.381-3.458
			c1.216-0.409,0.694-2.343-0.531-1.929c-3.104,1.046-6.131,2.241-9.025,3.75c-1.529-2.146-3.004-4.332-4.422-6.548
			c2.934-1.582,5.997-2.681,9.312-3.273c1.269-0.228,0.729-2.153-0.531-1.929c-3.504,0.627-6.75,1.819-9.848,3.506
			c-1.46-2.349-2.85-4.735-4.166-7.156c3.299-0.55,6.597-1.106,9.878-1.754c1.265-0.249,0.728-2.178-0.531-1.929
			c-3.429,0.677-6.876,1.254-10.323,1.829c-1.356-2.587-2.626-5.212-3.801-7.873c2.459-0.024,4.916-0.142,7.322-0.694
			c1.256-0.289,0.724-2.218-0.531-1.929c-2.508,0.577-5.08,0.625-7.643,0.63c-0.525-1.25-1.021-2.51-1.502-3.774
			c0.607,0.093,1.212,0.22,1.811,0.407c1.234,0.387,1.758-1.544,0.531-1.929c-1.026-0.32-2.072-0.49-3.129-0.586
			c-0.733-2.05-1.408-4.119-2.014-6.209c5.784,4.476,12.799,7.16,20.064,4.8c9.412-3.057,13.992-15.838,24.704-15.591
			c3.923,0.091,7.772,2.967,10.94,4.977c4.047,2.567,8.067,4.992,12.643,6.511c4.444,1.475,9.361,1.434,13.709-0.276
			c4.805-1.889,8.39-5.695,12.662-8.453c5.045-3.255,9.41-0.258,13.609,2.853c4.631,3.428,8.629,5.704,14.401,6.422
			c8.838,1.098,15.812-4.739,23.042-8.69c9.979-5.452,16.995,3.92,25.098,8.293c11.127,6.007,19.455-3.585,26.932-10.379
			c9.841-8.943,17.16-0.013,26.224,4.407c10.35,5.048,20.083-1.035,28.925-6.345c5.115-3.071,10.479-5.828,16.596-4.521
			c5.867,1.254,9.287,5.987,13.51,9.709c7.479,6.593,17.593,3.134,25.449-1.476c0.01,0.069,0.018,0.14,0.026,0.209
			c0.372,2.552,1.004,5.387,1.925,8.216C324.736,219.174,324.138,219.734,323.704,220.606z M340.915,222.855
			c-0.359,1.239-0.799,2.42-1.401,3.559c-0.166,0.312-0.302,0.511-0.396,0.635c-1.796-0.987-3.573-4.561-4.776-7.438
			c2.36,0.604,4.759,0.902,7.211,0.867C341.354,221.274,341.145,222.067,340.915,222.855z M342.018,218.466
			c-2.942,0.083-5.791-0.335-8.602-1.198c-0.124-0.333-0.233-0.634-0.319-0.873c-0.395-1.09-0.73-2.215-1.038-3.354
			c3.292,1.592,6.836,2.324,10.524,2.523C342.404,216.533,342.229,217.504,342.018,218.466z M342.944,213.577
			c-4.096-0.191-7.954-1.047-11.509-3.139c-0.354-1.697-0.611-3.434-0.791-5.189c4.292,1.269,8.689,2.162,12.914,3.675
			c0.032,0.012,0.06,0.004,0.092,0.013C343.431,210.486,343.203,212.034,342.944,213.577z M343.93,206.941
			c-4.407-1.561-9.001-2.462-13.463-3.832c-0.093-1.486-0.104-2.982-0.075-4.479c4.527,1.949,9.301,2.907,14.147,3.84
			C344.334,203.959,344.134,205.449,343.93,206.941z M344.838,200.499c-4.934-0.939-9.796-1.918-14.378-4.036
			c0.117-2.081,0.354-4.151,0.694-6.188c4.451,2.844,9.523,4.434,14.711,5.355C345.456,197.246,345.105,198.87,344.838,200.499z
			 M346.385,193.697c-5.255-0.922-10.38-2.579-14.827-5.574c0.413-1.987,0.942-3.925,1.566-5.801
			c4.527,3.281,9.953,4.421,15.582,4.609C347.827,189.159,347.039,191.416,346.385,193.697z M349.519,184.952
			c-5.679-0.101-11.197-1.106-15.688-4.603c0.171-0.444,0.335-0.893,0.52-1.327c0.38-0.9,0.4-1.7,0.186-2.379
			c4.957,3.103,10.717,4.4,16.566,4.817C350.553,182.614,350.019,183.775,349.519,184.952z M352.061,179.525
			c-6.137-0.338-12.289-1.608-17.359-5.142c0.579-1.397,1.23-2.768,1.933-4.114c4.906,3.636,10.372,6.255,16.352,7.473
			C352.674,178.334,352.361,178.927,352.061,179.525z M353.967,175.919c-6.003-1.101-11.51-3.743-16.376-7.408
			c1.408-2.479,3.032-4.857,4.797-7.154c4.165,4.331,8.854,7.862,14.415,9.703C355.828,172.641,354.877,174.26,353.967,175.919z
			 M357.871,169.343c-5.551-1.714-10.167-5.298-14.243-9.577c0.888-1.089,1.814-2.151,2.77-3.195
			c0.021,0.031,0.027,0.065,0.055,0.096c3.705,4.255,7.914,7.855,12.858,10.488C358.828,167.884,358.336,168.613,357.871,169.343z
			 M360.419,165.477c-4.836-2.565-8.931-6.064-12.554-10.226c-0.042-0.048-0.09-0.064-0.134-0.103
			c0.726-0.757,1.462-1.506,2.217-2.239c3.143,4.435,7.83,7.443,12.979,9.006C362.065,163.093,361.231,164.283,360.419,165.477z
			 M364.185,160.238c-5.085-1.389-9.823-4.343-12.784-8.72c1.252-1.163,2.547-2.282,3.859-3.38c3.531,3.48,7.336,6.595,11.885,8.426
			C366.125,157.762,365.139,158.989,364.185,160.238z M368.532,154.972c-4.536-1.66-8.242-4.703-11.711-8.107
			c1.937-1.557,3.927-3.037,5.943-4.453c2.948,3.229,6.232,6.119,9.991,8.274C371.289,152.046,369.878,153.475,368.532,154.972z
			 M374.324,149.284c-3.747-2.035-6.997-4.866-9.905-8.017c1.239-0.84,2.488-1.65,3.739-2.438c2.312,3.292,4.636,6.572,7.487,9.38
			C375.204,148.565,374.756,148.913,374.324,149.284z M377.217,146.988c-2.829-2.718-5.103-5.971-7.354-9.196
			c1.567-0.953,3.137-1.864,4.698-2.734c2.324,3.114,4.838,6.059,7.685,8.673C380.494,144.698,378.822,145.796,377.217,146.988z
			 M384.122,142.759c-2.913-2.583-5.466-5.543-7.803-8.665c0.759-0.408,1.517-0.806,2.27-1.189c0.873-0.445,1.758-0.882,2.646-1.313
			c1.842,3.476,3.896,6.782,6.735,9.497C386.675,141.594,385.392,142.147,384.122,142.759z M390.062,140.308
			c-3.054-2.619-5.175-6.028-7.037-9.576c1.738-0.813,3.507-1.59,5.297-2.326c2.062,3.715,4.603,7.044,7.465,10.159
			C393.862,139.083,391.949,139.645,390.062,140.308z M397.988,137.998c-2.998-3.166-5.65-6.543-7.798-10.34
			c1.979-0.771,3.983-1.478,6.01-2.117c2.165,4.057,4.756,7.855,8.052,11.056C402.154,137.036,400.062,137.487,397.988,137.998z
			 M406.663,136.095c-3.528-3.168-6.253-6.99-8.51-11.135c2.226-0.645,4.473-1.193,6.734-1.63c2.11,3.676,4.282,7.322,6.896,10.669
			c0.793,1.016,2.198-0.41,1.414-1.414c-2.352-3.012-4.317-6.305-6.22-9.621c1.851-0.296,3.709-0.502,5.571-0.625
			c0.812,4.104,2.33,7.979,4.566,11.495C413.644,134.679,410.148,135.383,406.663,136.095z M419.123,133.316
			c-2.245-3.344-3.777-7.127-4.579-11.076c0.702-0.021,1.405-0.033,2.108-0.025c0.683,0.009,1.842,0.074,3.169,0.236
			c1.057,3.207,2.562,6.302,4.697,8.905C422.735,132.225,420.694,132.879,419.123,133.316z M426.294,130.336
			c-1.872-2.207-3.248-4.795-4.244-7.531c3.189,0.627,6.46,1.86,6.521,4.203C428.603,128.3,427.658,129.406,426.294,130.336z"/>
		<path fill="#98f698" d="M55.115,75.912c1.054-1.023,2.271-1.913,3.791-1.956c1.287-0.035,1.291-2.035,0-2c-2.064,0.058-3.76,1.138-5.205,2.542
			C52.775,75.398,54.191,76.811,55.115,75.912z"/>
		<path fill="#98f698" d="M121.635,43.832c1.534-0.765,3.007-1.328,4.744-1.362c1.287-0.025,1.29-2.025,0-2c-2.096,0.041-3.899,0.711-5.754,1.636
			C119.471,42.681,120.484,44.406,121.635,43.832z"/>
	</g>
</g>
<g>
</g>
<g>
</g>
<g>
</g>
<g>
</g>
<g>
</g>
<g>
</g>
<g>
</g>
<g>
</g>
<g>
</g>
<g>
</g>
<g>
</g>
<g>
</g>
<g>
</g>
<g>
</g>
<g>
</g>
</svg>
