<?xml version="1.0" encoding="iso-8859-1"?>
<!-- Generator: Adobe Illustrator 16.0.0, SVG Export Plug-In . SVG Version: 6.00 Build 0)  -->
<!DOCTYPE svg PUBLIC "-//W3C//DTD SVG 1.1//EN" "http://www.w3.org/Graphics/SVG/1.1/DTD/svg11.dtd">
<svg version="1.1" id="Capa_1" xmlns="http://www.w3.org/2000/svg" xmlns:xlink="http://www.w3.org/1999/xlink" x="0px" y="0px"
	 width="524.425px" height="524.425px" viewBox="0 0 524.425 524.425" style="enable-background:new 0 0 524.425 524.425;"
	 xml:space="preserve">
<g>
	<g>
		<path fill="#98f698" d="M520.645,298.789c2.646-6.033,5.802-14.899,2.07-21.188c-3.51-5.919-10.537-8.335-16.691-10.573
			c-6.622-2.407-13.665-4.856-20.741-5.171c-7.11-0.316-13.56,3.185-18.935,7.495c-6.99,5.606-13.478,11.78-20.518,17.347
			c-6.176,4.882-12.249,10.026-16.61,16.597c-12.129-3.386-24.61-5.381-36.895-8.102c-1.381-0.306-2.754-0.636-4.122-0.977
			c0.021-0.208,0.049-0.412,0.04-0.641c-0.187-5.205-2.092-10.895-3.17-16.023c-1.387-6.592-2.963-13.144-4.525-19.694
			c-3.331-13.961-6.604-27.928-8.646-42.145c-0.93-6.467-1.755-12.938-2.636-19.4c5.618-1.748,11.034-4.055,16.486-6.277
			c7.497-3.059,15.242-5.505,22.928-8.039c13.979-4.609,27.822-9.924,42.29-12.74c8.875-1.729,21.191-3.2,26.76-11.381
			c3.263-4.793,2.13-10.444-1.176-14.867c-9.053-12.111-25.998-18.666-39.479-24.273c-19.881-8.27-41.081-12.99-61.717-18.963
			c-12.014-3.478-24.012-7.011-36.001-10.57c-9.827-2.917-19.348-4.987-29.632-3.397c-8.879,1.372-17.062,4.739-24.97,8.81
			c-0.723-0.537-1.637,0.111-1.616,0.834c-8.494,4.492-16.693,9.717-25.111,14.077c-0.663,0.344-1.127,0.788-1.453,1.28
			c-18.511,11.487-39.612,18.865-59.48,27.595c-21.098,9.27-40.777,21.595-62.7,28.978c-11.081,3.73-22.142,5.028-33.788,5.179
			c-11.318,0.146-22.575,0.427-33.882,0.87c-6.366,0.249-11.64,3.385-8.582,10.312c3.507,7.943,13.829,12.344,21.386,15.693
			c0.063,6.107,0.478,12.207,0.65,18.314c-5.916-1.34-11.807-2.768-17.664-4.225c-0.443-0.109-0.854-0.129-1.248-0.109
			c-1.295-0.945-2.778-1.656-4.453-2.051c-4.509-1.062-9.176,0.219-13.494,2.275c1.031-4.582,2.06-9.166,3.076-13.752
			c3.139-14.146,10.427-33.33,1.85-46.76c-1.491-2.334-4.246-2.46-6.283-0.81c-12.584,10.199-17.084,26.966-20.039,42.194
			c-3.189,16.432-3.876,33.844-9.988,49.57c-0.148,0.381-0.217,0.736-0.253,1.08c-2.022,0.143-4.031,0.674-5.787,1.516
			c-5.337,2.555-6.212,8.012-3.7,12.961c1.238,2.441,3.217,4.568,5.511,6.289c-6.662,23.523-6.579,48.683-7.544,72.96
			c-0.257,6.473-0.779,14.938,3.708,20.196c4.932,5.779,11.951-0.32,13.772-5.375c2.863-7.951,2.811-17.39,3.326-25.729
			c0.427-6.907,1.349-13.511,2.492-20.188c3.742,4.496,8.405,8.257,14.462,8.388c2.9,0.062,5.481-0.998,7.742-2.634
			c22.792,9.737,47.291,13.62,71.392,18.895c-2.666,8.254-5.521,16.427-7.936,24.707c-22.716,0.977-39.405,31.718-26.406,50.831
			c5.636,8.288,16.18,14.604,26.047,16.23c4.502,0.742,8.518,0.032,11.261-2.003c1.5,3.09,3.427,5.977,5.96,8.536
			c6.214,6.279,15.23,8.312,23.769,8.424c18.519,0.244,37.331-8.984,39.811-28.953c0.396-3.19,0.354-6.362-0.057-9.469
			c0.038-0.038,0.078-0.062,0.116-0.103c22.907-24.494,57.932-31.29,84.404-50.802c0.206-0.01,0.405-0.041,0.603-0.087
			c1.078,0.237,2.146,0.453,3.161,0.689c6.83,1.592,13.88,2.333,20.861,2.845c13.88,1.017,27.822,0.445,41.725,0.628
			c12.194,0.16,24.381-0.033,36.562-0.417c0.256,0.135,0.537,0.249,0.848,0.338c14.605,4.207,29.541,7.955,44.423,11.054
			c10.914,2.271,23.96,0.672,33.819,6.542c0.004,0.002,0.009,0.003,0.013,0.006c3.283,4.488,7.058,8.974,8.35,14.403
			c0.501,2.104,2.147,2.938,3.804,2.843c1.532,0.47,3.221,0.039,4.107-1.888c2.923-6.347,6.234-12.486,9.792-18.497
			c8.97,1.888,18.61,2.468,26.869-0.539c7.047-2.564,11.574-9.829,5.56-16.019c-2.733-2.812-6.759-4.062-10.664-4.939
			c1.653-6.321,3.055-12.655,5.197-18.907C512.439,318.011,516.454,308.348,520.645,298.789z M371.976,256.391
			c1.562,6.564,3.141,13.126,4.607,19.712c0.663,2.977,1.281,5.963,1.879,8.953c0.43,2.153,1.271,4.701,1.621,6.995
			c-1.985-0.558-3.968-1.124-5.949-1.688c-2.717-22.092-11.886-42.767-15.462-64.714c-3.968-24.346-7.395-48.666-9.65-73.217
			c0.831-0.035,1.664-0.044,2.497-0.049c4.296,7.082,5.149,16.445,6.614,24.352c2.411,13.016,3.998,26.105,5.788,39.217
			C365.783,229.593,368.793,243.007,371.976,256.391z M294.394,226.343c-0.845-6.076-1.769-12.135-2.915-18.141
			c-5.109-26.77-12.488-52.8-15.279-80.002c1.243-0.553,2.62-0.604,4.035-0.409c5.187,8.952,6.098,20.21,7.445,30.243
			c1.871,13.925,4.921,27.66,7.07,41.543c2.273,14.688,4.205,29.383,6.973,43.996c1.443,7.617,3.045,15.205,4.737,22.771
			c0.839,3.753,1.724,7.495,2.623,11.233c0.458,1.906,1.225,4.014,1.711,6.087c-2.183,0.133-4.365,0.294-6.547,0.476
			c-5.116-18.112-7.013-36.942-9.551-55.616C294.861,227.686,294.729,226.953,294.394,226.343z M206.903,232.516
			c-0.332-1.297-0.689-2.586-1.055-3.873c11.247,0.205,22.457,0.73,33.66-0.807c2.729-0.373,3.416-3.832,2.391-5.875
			c-1.721-3.432-0.512-5.473,1.919-6.691c0.587,0.279,1.117-0.064,1.321-0.549c3.956-1.354,9.794-1.244,12.713-1.254
			c8.917-0.031,18.243,0.857,26.93,2.971c0.036,0.008,0.068,0.006,0.104,0.014c0.639,3.691,1.203,7.396,1.732,11.109
			c-2.057,5.426-4.006,10.842-6.48,16.047c-0.478-1.924-0.87-3.701-1.236-5.092c-0.521-1.98-2.054-2.824-3.628-2.828
			c-3.454-0.613-6.928-0.707-10.43-0.709c-0.121,0-0.225,0.025-0.34,0.033c-0.417-0.027-0.854-0.01-1.323,0.109
			c-5.321,1.346-9.565,5.488-14.573,7.617c-12.148-0.404-24.312-3.879-36.215-6.057c-1.935-0.354-3.867-0.824-5.8-1.348
			C207.017,234.559,207.186,233.61,206.903,232.516z M190.619,207.362c0.412-1.266,0.838-2.529,1.244-3.797
			c8.23,6.672,17.635,11.664,26.52,17.418c-3.424-0.057-6.848-0.164-10.269-0.258C202.188,216.396,196.562,211.671,190.619,207.362z
			 M204.665,220.641c-0.387-0.008-0.774-0.023-1.161-0.029c-0.002-0.006-0.004-0.012-0.006-0.018
			c-0.136-0.473-0.331-0.885-0.555-1.264C203.516,219.77,204.089,220.205,204.665,220.641z M196.375,224.733
			c0.816,2.77,1.64,5.539,2.39,8.328c-0.892-0.262-1.783-0.518-2.678-0.764c0.094-0.344,0.16-0.709,0.16-1.119
			C196.248,229.041,196.212,226.875,196.375,224.733z M191.887,217.095c-1.067-1.246-2.116-2.51-3.244-3.701
			c0.452-1.344,0.882-2.695,1.324-4.043c3.366,2.455,6.638,5.035,9.919,7.604C197.423,216.117,194.271,216.444,191.887,217.095z
			 M166.562,204.505c-0.83,2.041-1.607,4.105-2.336,6.191c-5.075-3.539-9.274-8.215-13.888-12.363
			c-0.066-1.902-0.161-3.803-0.282-5.701C155.136,197.064,160.771,201.186,166.562,204.505z M149.847,189.783
			c-0.114-1.402-0.241-2.803-0.397-4.203c-0.068-0.602-0.251-1.123-0.502-1.581c6.323,5.374,12.533,10.886,19.196,15.845
			c0.123,0.092,0.245,0.146,0.363,0.172c-0.03,0.064-0.06,0.129-0.09,0.191c-0.374,0.809-0.733,1.621-1.085,2.439
			C161.139,199.065,155.147,194.585,149.847,189.783z M163.244,212.442c0.111,0.078,0.222,0.123,0.329,0.15
			c-0.764,2.273-1.485,4.564-2.181,6.863c-0.266-0.182-0.562-0.33-0.887-0.445c-0.041-0.15-0.111-0.301-0.25-0.439
			c-3.109-3.107-6.264-6.223-9.742-8.922c-0.004-2.869-0.027-5.738-0.096-8.605C154.62,204.94,158.547,209.175,163.244,212.442z
			 M157.44,218.589c-2.408-0.396-4.834-1.371-6.941-2.518c0.006-1.295,0.01-2.59,0.014-3.883
			C152.94,214.182,155.212,216.375,157.44,218.589z M159.227,226.776c-0.533,1.832-1.067,3.66-1.611,5.479
			c-0.014,0.049-0.029,0.098-0.043,0.148c-2.344-0.254-4.67-0.596-6.984-1.002c-0.055-2.176-0.082-4.354-0.094-6.533
			C153.309,225.966,156.304,226.688,159.227,226.776z M158.53,260.907c0.356-2.586,0.958-5.133,1.469-7.689
			c1.889-9.449,5.293-18.824,8.115-28.033c2.862-9.332,5.846-18.303,10.146-27.086c3.84-7.84,7.772-15.658,10.039-24.105
			c1.438-0.057,2.858,0.371,3.756,1.533c-5.394,18.336-11.018,36.602-17.8,54.484c-0.331,0.873-0.673,1.74-1.021,2.605
			c-0.177,0.307-0.314,0.629-0.395,0.971c-2.564,6.291-5.441,12.455-7.674,18.861c-1.398,4.018-3.363,10.345-6.889,13.373
			c-0.01-0.136-0.021-0.286-0.031-0.466C158.16,263.889,158.33,262.358,158.53,260.907z M183.467,228.11
			c1.602-0.551,3.204-0.932,4.851-1.135c-0.039,1.191-0.062,2.383-0.066,3.58c-1.83-0.279-3.668-0.451-5.515-0.463
			C182.985,229.436,183.223,228.771,183.467,228.11z M186.713,219.104c0.411-1.18,0.798-2.369,1.2-3.553
			c0.746,0.832,1.472,1.682,2.194,2.533c-0.251,0.227-0.485,0.473-0.667,0.752C188.525,218.888,187.617,218.977,186.713,219.104z
			 M230.162,212.128c0.111,0.178,0.271,0.332,0.52,0.416c0.124,0.041,0.25,0.082,0.374,0.125c0.264,0.156,0.522,0.318,0.786,0.475
			c0.289,0.168,0.568,0.174,0.808,0.084c0.396,0.152,0.784,0.32,1.164,0.504c-0.819,1.545-1.179,3.357-0.974,5.475
			c-11.244-10.129-25.154-17.24-38.03-25.109c0.419-1.359,0.851-2.715,1.265-4.076C207.625,197.097,218.541,205.162,230.162,212.128
			z M196.669,188.042c0.631-2.089,1.248-4.182,1.871-6.272c12.819,9.392,24.605,20.175,37.857,28.935
			c-0.533,0.428-1.029,0.881-1.455,1.377c-0.963-0.494-1.988-0.875-3.022-1.227C219.878,203.705,208.623,195.332,196.669,188.042z
			 M231.52,220.71c-3.147,0.221-6.304,0.307-9.465,0.307c-9.773-6.617-20.445-11.939-29.548-19.494
			c0.575-1.814,1.128-3.637,1.692-5.457C206.852,203.766,220.503,210.77,231.52,220.71z M288.797,243.85
			c0.23,1.771,0.482,3.539,0.723,5.309c-0.981-0.188-1.966-0.359-2.953-0.492C287.354,247.078,288.094,245.473,288.797,243.85z
			 M285.588,250.562c1.415,0.162,2.815,0.404,4.216,0.682c0.155,1.121,0.299,2.244,0.459,3.363c-2.024-0.506-4.05-1.012-6.075-1.52
			C284.674,252.253,285.138,251.412,285.588,250.562z M290.57,256.744c0.103,0.697,0.193,1.396,0.301,2.094
			c-2.57-0.02-4.535-1.434-6.086-3.539C286.714,255.78,288.642,256.264,290.57,256.744z M305.949,220.837
			c-0.251-1.625-0.488-3.25-0.733-4.875c13.895-4.549,27.887-8.779,41.864-13.062c0.928,6.367,1.906,12.73,2.937,19.094
			c1.966,12.133,4.718,23.811,8.197,35.6c2.004,6.788,4.058,13.604,5.667,20.511c-5.941-2.91-11.361-6.835-16.729-10.69
			c-5.342-3.837-10.689-7.385-15.754-11.565c-3.094-2.555-7.105-5.33-11.027-6.625C323.31,237.039,320.038,219.869,305.949,220.837z
			 M312.701,233.787c0.257,0.865,0.438,1.803,0.55,2.785h-4.694c-0.228-1.27-0.437-2.541-0.654-3.812
			C309.5,233.108,311.1,233.455,312.701,233.787z M307.537,230.638c-0.104-0.613-0.215-1.225-0.315-1.838
			c2.099,0.086,3.548,1.133,4.518,2.738C310.338,231.237,308.937,230.942,307.537,230.638z M328.65,200.184
			c-3.2,0.984-6.397,1.98-9.595,2.98c-6.567-6.359-12.624-13.225-18.972-19.805c-0.646-3.544-1.304-7.086-1.946-10.63
			C307.414,182.774,318.564,190.94,328.65,200.184z M297.477,169.024c-0.496-2.822-0.974-5.648-1.407-8.482
			c12.653,12.754,25.21,25.609,38.345,37.871c-1.184,0.363-2.364,0.727-3.547,1.09C319.838,189.27,307.314,180.458,297.477,169.024z
			 M316.876,203.839c-2.246,0.705-4.484,1.434-6.727,2.148c-2.776-2.033-5.321-4.596-7.505-7.311
			c-0.061-0.408-0.119-0.818-0.182-1.227c-0.523-3.521-1.122-7.025-1.742-10.527C306.087,192.583,311.308,198.384,316.876,203.839z
			 M307.843,206.727c-1.275,0.41-2.556,0.807-3.829,1.223c-0.273-1.865-0.551-3.73-0.826-5.596
			C304.635,203.927,306.189,205.405,307.843,206.727z M336.619,197.737c-14.078-13.094-27.479-26.883-41.031-40.513
			c-0.076-0.546-0.163-1.089-0.236-1.636c-0.375-2.802-0.735-5.672-1.162-8.551c15.942,16.799,34.48,30.823,51.562,46.424
			c0.063,0.475,0.123,0.947,0.188,1.422C342.833,195.837,339.726,196.787,336.619,197.737z M293.629,143.505
			c-0.433-2.514-0.943-5.017-1.584-7.473c16.56,15.434,35.482,28.131,51.93,43.717c0.438,3.552,0.894,7.102,1.367,10.648
			C328.057,174.807,309.445,160.648,293.629,143.505z M290.896,132.188c-0.851-2.56-1.889-5.038-3.174-7.397
			c18.264,15.366,37.191,29.941,55.175,45.645c0.237,2.081,0.462,4.164,0.712,6.244C326.72,161.043,307.461,148.177,290.896,132.188
			z M310.28,245.768c0.862-0.018,1.721-0.072,2.571-0.18c-0.265,1.518-0.6,2.922-0.961,4.09c-0.239,0.152-0.477,0.314-0.706,0.5
			C310.886,248.708,310.576,247.239,310.28,245.768z M309.896,243.774c-0.336-1.732-0.649-3.469-0.968-5.203h4.47
			c0.048,1.637-0.049,3.33-0.243,4.959C312.08,243.708,310.995,243.761,309.896,243.774z M315.502,257.44
			c1.758-4.734,14.423,8.032,16.924,9.592c11.13,6.94,20.949,15.788,33.315,20.549c0.024,0.165,0.046,0.33,0.07,0.495
			c-4.74-1.235-9.524-2.325-14.423-3.052c-10.773-1.599-21.604-2.025-32.438-1.72c-0.755-5.129-2.798-10.488-3.922-15.33
			c-0.628-2.707-1.218-5.426-1.81-8.14C314.198,259.439,315.046,258.669,315.502,257.44z M368.122,188.278
			c-0.157-1.062-0.332-2.125-0.497-3.187c0.935,0.62,1.887,1.216,2.843,1.798c0.184,0.111,0.398,0.236,0.625,0.367
			C370.107,187.61,369.118,187.953,368.122,188.278z M373.523,186.352c-1.032-0.711-2.214-1.285-3.245-1.924
			c-0.94-0.582-1.871-1.18-2.771-1.823c-0.107-0.077-0.204-0.169-0.309-0.25c-0.42-2.585-0.861-5.167-1.352-7.745
			c-0.211-1.11-0.411-2.248-0.609-3.397c4.608,4.229,9.184,8.499,14.101,12.376c0.184,0.144,0.379,0.213,0.572,0.229
			C377.786,184.679,375.661,185.535,373.523,186.352z M385.268,181.662c-1.485,0.584-2.965,1.182-4.441,1.783
			c0.332-0.354,0.418-0.883-0.074-1.271c-5.618-4.431-10.788-9.371-16.076-14.183c-0.555-3.153-1.164-6.363-2.013-9.474
			c8.306,7.061,16.241,14.629,23.238,22.906C385.689,181.504,385.478,181.579,385.268,181.662z M461.416,140.067
			c3.672,2.44,10.386,6.84,10.344,11.775c-0.006,0.699-0.357,1.364-0.876,1.971c-13.488-10.552-27.663-20.153-41.817-29.783
			C440.361,128.25,451.466,133.453,461.416,140.067z M420.05,120.856c0.552,0.182,1.104,0.379,1.655,0.564
			c16.073,10.994,32.329,21.744,47.679,33.741c-0.654,0.479-1.331,0.884-1.871,1.188c-2.407,1.355-5.096,2.277-7.864,2.997
			c-22.268-15.559-46.45-28.574-66.982-46.358C401.835,115.48,411.045,117.901,420.05,120.856z M382.729,110.229
			c1.845,0.529,3.694,1.047,5.547,1.559c20.78,18.844,45.721,32.261,68.771,48.184c-2.465,0.533-4.948,0.959-7.325,1.408
			c-28.626-19.682-60.213-34.99-87.19-57.014C369.26,106.332,375.991,108.291,382.729,110.229z M357.769,102.972
			c27.286,23.213,59.706,38.922,89.214,58.955c-3.153,0.662-6.279,1.434-9.384,2.289c-9.211-5.265-17.646-11.873-25.936-18.449
			c-8.619-6.838-17.465-12.928-26.846-18.699c-16.006-9.848-32.469-19.039-47.598-30.156
			C344.064,98.944,350.916,100.963,357.769,102.972z M331.954,95.439c15.359,11.865,32.297,21.5,48.897,31.553
			c10.757,6.513,20.901,13.451,30.75,21.264c7.471,5.926,15.091,11.844,23.307,16.729c-5.483,1.594-10.91,3.396-16.324,5.238
			c-0.872-0.629-1.743-1.261-2.61-1.896c-2.964-2.172-5.92-4.365-8.749-6.712c-9.208-7.638-19.399-14.454-29.027-21.595
			c-21.379-15.856-43.284-30.984-65.015-46.352C319.361,93.186,325.578,93.849,331.954,95.439z M310.194,93.994
			c22.904,16.229,46.006,32.187,68.555,48.91c9.914,7.354,19.952,14.605,29.659,22.211c2.578,2.02,5.219,3.963,7.863,5.895
			c-3.237,1.104-6.475,2.209-9.72,3.273c-1.427,0.469-2.854,0.937-4.282,1.406c-29.883-31.054-68.349-52.185-101.436-79.482
			C303.961,95.148,307.076,94.426,310.194,93.994z M296.115,98.048c0.852-0.377,1.701-0.727,2.551-1.056
			c33.003,27.394,71.482,48.501,101.493,79.397c-4.114,1.365-8.222,2.764-12.276,4.287c-7.832-9.377-16.881-17.846-26.32-25.695
			c-1.093-3.104-2.51-6.037-4.464-8.621c-0.841-1.111-1.972-1.616-3.106-1.686c-0.452-0.182-0.962-0.295-1.547-0.295
			c-1.827,0-3.641,0.061-5.445,0.217c-17.964-15.52-37.793-28.736-55.76-44.242C292.85,99.558,294.47,98.778,296.115,98.048z
			 M289.312,101.324c17.55,15.219,36.917,28.203,54.607,43.256c-1.202,0.102-2.312,0.67-2.881,1.73
			c-0.843,1.02-1.193,2.492-0.853,3.733c0.156,0.567,0.414,1.051,0.744,1.452c0.049,0.543,0.106,1.084,0.157,1.626
			c-20.533-15.153-39.707-32.046-60.201-47.247C283.669,104.307,286.473,102.778,289.312,101.324z M279.001,106.94
			c20.915,15.436,40.412,32.684,61.339,48.104c0.343,0.252,0.68,0.23,0.941,0.064c0.398,4.135,0.824,8.266,1.281,12.391
			c-22.608-19.587-46.623-37.5-68.859-57.525C275.469,108.962,277.232,107.946,279.001,106.94z M271.874,111.018
			c3.375,3.047,6.793,6.043,10.24,9.004c-3.43-0.557-6.918-0.328-9.919,1.195l-6.656-6.656
			C267.665,113.405,269.771,112.215,271.874,111.018z M262.665,116.436c0.384-0.248,0.698-0.529,0.956-0.832
			c0.04-0.021,0.079-0.043,0.119-0.064c0.035,0.051,0.052,0.104,0.1,0.15c2.204,2.203,4.407,4.406,6.61,6.609
			c-0.646,0.478-1.261,1.021-1.832,1.653c-0.795,0.876-1.094,1.848-1.062,2.781c-2.96-2.573-5.866-5.202-8.594-8.017
			C260.207,117.977,261.443,117.221,262.665,116.436z M257.19,119.757c3.521,3.678,7.353,7.029,11.221,10.349
			c0.387,3.536,0.837,7.056,1.347,10.562c-6.643-5.457-12.553-11.749-19.062-17.367C252.886,122.167,255.052,120.988,257.19,119.757
			z M248.782,124.285c7.068,6.033,13.385,12.914,20.656,18.703c0.223,0.178,0.466,0.24,0.698,0.23
			c0.321,2.1,0.654,4.195,1.011,6.287c-8.288-8.274-17.375-15.691-26.283-23.293C246.179,125.585,247.482,124.939,248.782,124.285z
			 M242.892,127.146c9.818,8.395,19.876,16.543,28.866,25.836c0.564,3.16,1.159,6.314,1.782,9.461
			c-11.561-11.918-25.32-21.629-38.458-31.787C237.702,129.52,240.307,128.352,242.892,127.146z M232.996,131.549
			c13.648,10.588,28.021,20.626,39.943,33.139c0.34,0.356,0.754,0.369,1.089,0.199c0.938,4.646,1.92,9.281,2.928,13.915
			c-17.231-14.582-34.128-29.556-51.379-44.115C228.054,133.651,230.528,132.606,232.996,131.549z M223.508,135.55
			c18.181,15.326,35.962,31.12,54.146,46.444c0.973,4.44,1.958,8.882,2.932,13.329c-23.71-16.754-45.576-35.9-66.794-55.678
			C217.019,138.259,220.264,136.903,223.508,135.55z M205.9,143.137c1.952-0.896,3.918-1.765,5.89-2.624
			c22.017,20.545,44.722,40.422,69.425,57.699c0.704,3.242,1.397,6.488,2.072,9.744c-1.167-0.221-2.471-0.441-3.871-0.658
			c-25.872-19.732-54.276-37.97-74.852-63.535C205.012,143.557,205.455,143.342,205.9,143.137z M202.723,144.626
			c20.006,24.943,47.301,42.98,72.676,62.109c-4.113-0.518-8.761-0.93-13.439-1.055c-22.086-19.772-46.281-37.024-68.525-56.606
			C196.518,147.564,199.614,146.083,202.723,144.626z M191.502,150.026c21.843,19.292,45.601,36.293,67.417,55.617
			c-3.914,0.006-7.771,0.236-11.271,0.807c-22.53-16.455-42.971-35.613-65.842-51.609
			C185.035,153.23,188.267,151.622,191.502,150.026z M179.767,155.858c22.724,15.748,43.003,34.682,65.218,51.107
			c-2.596,0.594-4.906,1.422-6.811,2.521c-13.706-8.936-25.807-20.098-39.029-29.738c0.219-0.742,0.445-1.484,0.664-2.227
			c0.535-0.773,0.821-1.703,0.664-2.605c0.104-1.434-0.594-2.559-1.62-3.248c-3.247-4.736-9.071-7.199-14.868-4.946
			c-0.002,0.001-0.005,0.003-0.008,0.003c-0.688,0.127-1.324,0.443-1.832,0.964c-3.037-2.909-6.352-5.508-9.492-8.304
			C175.025,158.216,177.397,157.041,179.767,155.858z M170.718,160.333c3.446,3.116,7.144,5.95,10.467,9.202
			c-0.506,2.235-1.148,4.417-1.884,6.562c-5.388-3.889-10.432-8.229-15.646-12.348C166.018,162.628,168.369,161.483,170.718,160.333
			z M156.771,166.951c5.174,6.213,11.71,11.58,18.373,16.093c1.071,0.726,2.071-1.008,1.01-1.727
			c-6.323-4.283-12.518-9.381-17.508-15.235c1.001-0.461,2.003-0.921,3.002-1.389c5.661,4.438,11.105,9.16,16.955,13.351
			c-1.166,3.13-2.514,6.187-3.94,9.214c-7.656-6.049-15.764-11.508-23.065-18.002C153.329,168.504,155.052,167.733,156.771,166.951z
			 M149.61,170.11c0.043,0.059,0.068,0.121,0.131,0.177c7.586,6.821,16.076,12.472,24.042,18.813
			c-0.395,0.82-0.797,1.639-1.196,2.455c-8.736-6.556-18.405-12.303-25.939-20.227C147.637,170.925,148.63,170.526,149.61,170.11z
			 M144.702,172.13c7.819,8.369,17.896,14.322,27.001,21.238c-0.799,1.633-1.598,3.266-2.378,4.906
			c-0.05-0.057-0.106-0.109-0.172-0.158c-10.175-7.574-19.306-16.424-29.387-24.113C141.423,173.408,143.067,172.78,144.702,172.13z
			 M137.53,174.788c2.664,1.99,5.26,4.067,7.818,6.188c-2.393-0.607-4.958-0.598-7.412-0.597c-1.084-1.542-2.096-3.134-3.12-4.717
			C135.723,175.375,136.63,175.095,137.53,174.788z M142.55,229.778c-1.102-0.244-2.202-0.494-3.302-0.752
			c0.004-13.545,0.097-27.172,2.318-40.553c0.059,0.004,0.116,0.01,0.175,0.014C142.987,202.208,142.284,216.016,142.55,229.778z
			 M132.875,176.27c0.994,1.516,1.958,3.053,2.974,4.555c-0.86,0.446-1.548,1.195-1.911,2.1c-1.638-1.834-3.226-3.711-4.798-5.604
			C130.393,176.996,131.635,176.64,132.875,176.27z M121.844,178.903c1.723-0.298,3.433-0.668,5.136-1.067
			c2.263,2.728,4.537,5.442,6.949,8.036c-0.495,2.881-0.889,5.77-1.215,8.666c-5.048-5.008-10.265-9.84-15.141-15.016
			C118.999,179.347,120.422,179.148,121.844,178.903z M115.097,179.809c5.247,5.693,10.956,10.922,16.446,16.379
			c0.305,0.305,0.662,0.334,0.975,0.225c-0.176,1.73-0.336,3.461-0.466,5.195c-7.713-7.49-16.116-14.209-24.208-21.281
			C110.266,180.214,112.683,180.049,115.097,179.809z M104.938,180.436c8.854,7.836,18.179,15.141,26.604,23.451
			c0.105,0.105,0.22,0.172,0.335,0.219c-0.039,0.621-0.063,1.242-0.099,1.863c-11.759-6.551-21.859-15.602-30.967-25.459
			C102.188,180.489,103.564,180.477,104.938,180.436z M98.143,180.552c9.773,10.76,20.687,20.686,33.518,27.645
			c-0.019,0.396-0.046,0.795-0.062,1.191c-0.68-0.156-1.358-0.32-2.037-0.479c-0.037-0.045-0.055-0.094-0.104-0.135
			c-11.785-10.17-26.844-16.689-37.424-28.194C94.07,180.574,96.106,180.567,98.143,180.552z M101.595,208.423
			c9.541,4.102,19.635,6.822,29.752,9.111c-0.059,3.201-0.084,6.404-0.093,9.605c-5.8-1.357-11.619-2.619-17.539-3.336
			c-3.899-0.471-7.79-1.053-11.674-1.701C101.539,217.546,101.587,212.983,101.595,208.423z M101.395,199.582
			c-0.026-0.416-0.072-0.832-0.107-1.248c0.707,0.77,1.447,1.502,2.205,2.217C102.79,200.233,102.087,199.917,101.395,199.582z
			 M89.418,180.602c9.911,11.385,23.978,17.939,35.757,27.23c-5.614-1.426-11.186-3.076-16.58-5.152
			c-0.043-0.07-0.072-0.141-0.139-0.207c-2.291-2.258-4.87-4.232-6.844-6.797c-0.182-0.236-0.417-0.359-0.66-0.4
			c-0.074-0.545-0.135-1.09-0.228-1.635c-0.065-1.52-0.921-2.979-2.812-3.518c-2.938-0.838-5.889-1.584-8.89-1.902
			c-2.563-2.435-5.041-4.959-7.57-7.431C84.104,180.689,86.757,180.628,89.418,180.602z M93.901,220.641
			c-1.898-0.367-3.797-0.744-5.69-1.139c-0.153-7.787-0.789-15.562-0.682-23.35c1.923,0.148,3.799,0.523,5.693,1
			C94.284,204.923,93.266,212.826,93.901,220.641z M78.692,180.905c2.462,2.355,4.852,4.787,7.291,7.166
			c-0.775,0.002-1.552,0.027-2.334,0.107c-0.577,0.059-1.125,0.211-1.623,0.436c-2.887-2.393-5.661-4.918-8.436-7.443
			C75.294,181.07,76.994,180.983,78.692,180.905z M79.901,190.809c-2.002-0.963-3.98-1.969-5.922-3.061
			c-1.814-1.02-3.547-2.178-5.148-3.506c-0.777-0.676-1.492-1.412-2.146-2.209c-0.183-0.236-0.366-0.474-0.548-0.711
			c1.454-0.181,3.008-0.146,4.518-0.12c3.232,2.918,6.433,5.869,9.772,8.661C80.212,190.146,80.03,190.46,79.901,190.809z
			 M43.461,161.953c0.413,1.465,0.647,2.98,0.753,4.527c-0.905-0.699-1.836-1.366-2.799-1.986
			C42.062,163.621,42.734,162.768,43.461,161.953z M40.262,166.13c1.401,0.899,2.738,1.886,4.014,2.957
			c-0.018,0.877-0.067,1.76-0.147,2.647c-1.681-1.258-3.411-2.425-5.273-3.38C39.302,167.6,39.774,166.859,40.262,166.13z
			 M37.864,170.08c2.143,1.076,4.099,2.47,6,3.947c-0.109,0.783-0.23,1.567-0.372,2.352c-2.318-1.232-4.589-2.549-6.903-3.781
			C36.99,171.743,37.421,170.905,37.864,170.08z M35.769,174.423c2.452,1.312,4.858,2.713,7.327,4.002
			c-0.248,1.195-0.518,2.385-0.799,3.562c-2.615-1.414-5.188-2.91-7.904-4.107C34.816,176.71,35.28,175.561,35.769,174.423z
			 M33.737,179.762c2.776,1.229,5.396,2.796,8.073,4.231c-0.272,1.108-0.546,2.203-0.806,3.277c-2.748-1.424-5.487-2.877-8.336-4.08
			C33,182.039,33.36,180.896,33.737,179.762z M32.136,185.125c2.87,1.224,5.625,2.715,8.398,4.148
			c-0.187,0.814-0.365,1.619-0.52,2.4c-2.891-1.109-5.813-2.131-8.703-3.244C31.569,187.326,31.845,186.224,32.136,185.125z
			 M30.869,190.393c2.905,1.117,5.845,2.143,8.749,3.264c-0.249,1.26-0.495,2.52-0.756,3.777c-2.893-1.312-5.733-2.73-8.62-4.051
			C30.439,192.388,30.649,191.391,30.869,190.393z M29.852,195.382c2.873,1.328,5.702,2.75,8.593,4.043
			c-0.317,1.502-0.635,3.002-0.962,4.502c-2.811-1.35-5.638-2.662-8.453-4C29.291,198.429,29.563,196.912,29.852,195.382z
			 M28.69,201.97c2.785,1.318,5.578,2.621,8.352,3.961c-0.184,0.828-0.357,1.656-0.543,2.484c-2.664-1.49-5.447-2.762-8.182-4.121
			C28.439,203.518,28.566,202.746,28.69,201.97z M27.985,206.356c2.706,1.328,5.447,2.592,8.057,4.094
			c-0.426,1.873-0.857,3.744-1.292,5.617c-2.603-1.191-5.149-2.477-7.613-3.928C27.416,210.207,27.694,208.276,27.985,206.356z
			 M26.829,214.274c2.419,1.385,4.915,2.619,7.464,3.768c-0.104,0.439-0.205,0.881-0.308,1.32c-0.743,0.805-1.048,1.783-1.024,2.748
			c-2.187-1.32-4.461-2.477-6.754-3.596C26.419,217.102,26.625,215.688,26.829,214.274z M25.878,220.578
			c2.365,1.166,4.701,2.385,6.936,3.799c-0.31,1.33-0.617,2.658-0.927,3.988c-2.258-1.113-4.466-2.328-6.702-3.482
			C25.434,223.451,25.653,222.013,25.878,220.578z M24.812,226.938c2.199,1.15,4.377,2.346,6.611,3.424
			c-0.371,1.604-0.75,3.207-1.117,4.811c-2.337-0.6-4.485-1.662-6.569-2.854C24.132,230.535,24.48,228.739,24.812,226.938z
			 M23.269,234.345c2.093,1.17,4.257,2.195,6.593,2.777c-0.175,0.773-0.356,1.547-0.529,2.322c-0.293,1.312-0.575,2.629-0.863,3.945
			c-2.3-0.982-4.551-2.076-6.742-3.281C22.298,238.207,22.805,236.283,23.269,234.345z M21.11,242.042
			c2.254,1.217,4.564,2.324,6.926,3.32c-0.298,1.373-0.602,2.744-0.899,4.115c-2.376-1.381-4.808-2.662-7.259-3.904
			C20.32,244.407,20.725,243.229,21.11,242.042z M26.689,251.526c-0.31,1.43-0.629,2.857-0.938,4.287
			c-0.616-0.262-1.229-0.529-1.838-0.805c-0.201-1.637-0.698-3.268-1.577-4.84c-0.364-0.65-0.792-1.225-1.263-1.738
			C22.97,249.417,24.85,250.438,26.689,251.526z M10.591,349.236c-0.3,1.306-0.664,2.599-1.32,3.77
			c-0.02,0.034-0.038,0.044-0.057,0.069c-1.194-1.625-1.117-5.309-1.109-7.515c0.848,1.062,1.711,2.11,2.594,3.144
			C10.66,348.881,10.631,349.061,10.591,349.236z M11.204,346.224c-1.062-1.282-2.097-2.591-3.134-3.896
			c-0.006-2.061,0.057-4.126,0.148-6.192c1.265,1.353,2.531,2.702,3.857,3.99C11.85,342.169,11.57,344.204,11.204,346.224z
			 M12.335,337.546c-1.343-1.371-2.656-2.771-3.979-4.165c0.073-1.302,0.158-2.602,0.24-3.901c1.278,1.438,2.627,2.805,4.043,4.104
			C12.552,334.905,12.454,336.229,12.335,337.546z M12.803,330.982c-1.418-1.384-2.761-2.842-4.034-4.377
			c0.1-1.641,0.199-3.278,0.271-4.911c1.33,1.279,2.688,2.529,4.086,3.732C13.02,327.277,12.914,329.126,12.803,330.982z
			 M13.278,322.913c-1.404-1.262-2.773-2.562-4.121-3.886c0.055-1.256,0.11-2.512,0.166-3.769c1.477,1.234,2.898,2.532,4.281,3.877
			C13.48,320.396,13.362,321.653,13.278,322.913z M13.882,316.646c-1.434-1.352-2.898-2.663-4.443-3.885
			c0.065-1.39,0.137-2.778,0.21-4.168c1.626,1.336,3.219,2.711,4.749,4.154C14.21,314.046,14.037,315.345,13.882,316.646z
			 M14.768,310.352c-1.612-1.459-3.285-2.851-4.977-4.217c0.102-1.744,0.219-3.488,0.345-5.23c1.786,1.559,3.618,3.065,5.472,4.554
			C15.313,307.086,15.024,308.717,14.768,310.352z M16.016,303.23c-1.936-1.565-3.846-3.156-5.693-4.821
			c0.081-1.005,0.168-2.009,0.261-3.012c2.08,1.454,4.079,3.021,6.065,4.605C16.438,301.079,16.216,302.151,16.016,303.23z
			 M17.079,297.807c-2.042-1.622-4.112-3.21-6.272-4.672c0.099-0.958,0.216-1.912,0.327-2.868c2.216,1.493,4.292,3.152,6.212,5.048
			c0.065,0.063,0.137,0.092,0.205,0.134C17.393,296.235,17.235,297.018,17.079,297.807z M18,293.197
			c-2.045-1.921-4.253-3.616-6.605-5.138c0.156-1.222,0.328-2.438,0.51-3.656c2.238,1.767,4.46,3.554,6.826,5.145
			C18.485,290.766,18.244,291.98,18,293.197z M19.208,287.15c-0.018,0.09-0.036,0.181-0.054,0.271
			c-2.376-1.646-4.618-3.475-6.896-5.259c0.247-1.512,0.523-3.021,0.818-4.529c2.426,1.491,4.702,3.223,7.084,4.793
			C19.845,284.001,19.52,285.574,19.208,287.15z M20.589,280.311c-2.361-1.593-4.641-3.304-7.086-4.748
			c0.073-0.348,0.137-0.694,0.213-1.041c0.291-1.308,0.629-2.602,0.979-3.892c2.388,1.164,4.763,2.355,7.168,3.483
			C21.438,276.178,21.007,278.242,20.589,280.311z M22.275,272.11c-1.694-0.807-3.378-1.634-5.059-2.466
			c0.994-0.376,1.724-1.221,2.098-2.239c0.351-0.219,0.688-0.519,1.003-0.912c0.748-0.936,1.393-1.932,1.932-2.965
			c0.574,0.196,1.146,0.399,1.718,0.605C23.403,266.793,22.829,269.449,22.275,272.11z M24.385,262.164
			c-0.437-0.156-0.874-0.312-1.312-0.463c0.545-1.449,0.862-2.953,0.933-4.471c0.438,0.191,0.881,0.373,1.321,0.559
			C25.014,259.248,24.696,260.705,24.385,262.164z M39.733,307.765c-0.22,0.115-0.441,0.209-0.662,0.285
			c0.726-1.54,1.562-3.016,2.581-4.4c0.766-1.041-0.972-2.037-1.727-1.01c-1.281,1.741-2.258,3.627-3.112,5.594
			c-0.653-0.106-1.304-0.335-1.943-0.665c0.574-1.668,1.797-2.978,2.782-4.419c0.729-1.068-1.004-2.067-1.727-1.011
			c-0.979,1.435-2.099,2.729-2.769,4.312c-0.688-0.538-1.353-1.161-1.986-1.826c0.791-1.133,1.9-1.993,3.123-2.618
			c1.148-0.587,0.137-2.312-1.01-1.727c-1.345,0.687-2.513,1.658-3.446,2.836c-0.722-0.873-1.385-1.762-1.964-2.583
			c1.719-0.869,3.359-1.874,4.92-3.026c1.025-0.757,0.029-2.494-1.01-1.727c-1.588,1.173-3.264,2.231-5.032,3.111
			c-0.186-0.278-0.356-0.537-0.509-0.768c-0.252-0.38-0.537-0.69-0.844-0.946c0.008-0.042,0.016-0.084,0.023-0.126
			c2.049-0.837,4.068-1.74,5.871-3.046c1.034-0.748,0.037-2.483-1.01-1.727c-1.373,0.994-2.873,1.743-4.412,2.417
			c0.179-0.938,0.366-1.876,0.548-2.813c2.282-0.578,4.455-1.488,6.374-2.877c1.034-0.748,0.037-2.483-1.01-1.727
			c-1.522,1.101-3.178,1.884-4.94,2.428c0.108-0.554,0.222-1.105,0.33-1.66c0.04-0.018,0.079-0.017,0.12-0.041
			c2.316-1.361,4.816-2.419,7-4c1.033-0.748,0.037-2.483-1.01-1.727c-1.752,1.268-3.704,2.205-5.605,3.227
			c0.197-0.985,0.407-1.969,0.605-2.955c2.333-0.527,4.475-1.523,6.212-3.2c0.929-0.897-0.486-2.311-1.414-1.414
			c-1.249,1.206-2.731,1.953-4.351,2.433c0.158-0.781,0.326-1.561,0.486-2.341c0.025-0.011,0.051-0.008,0.076-0.021
			c1.74-0.883,3.378-1.919,5-3c1.067-0.711,0.066-2.443-1.01-1.727c-1.16,0.773-2.33,1.521-3.539,2.209
			c0.227-1.099,0.463-2.194,0.692-3.292c1.855-0.612,3.637-1.495,5.059-2.847c0.937-0.891-0.479-2.303-1.414-1.414
			c-0.909,0.863-2.003,1.484-3.161,1.959c0.212-1.009,0.43-2.018,0.644-3.025c1.443-0.728,2.876-1.479,4.229-2.363
			c1.074-0.701,0.074-2.435-1.01-1.727c-0.867,0.566-1.768,1.079-2.683,1.565c0.255-1.198,0.522-2.396,0.779-3.593
			c1.492-0.529,2.985-1.055,4.413-1.746c1.16-0.562,0.146-2.287-1.01-1.727c-0.943,0.457-1.921,0.83-2.907,1.184
			c0.247-1.148,0.503-2.295,0.751-3.443c1.346-0.752,2.783-1.332,4.166-2.014c1.156-0.57,0.143-2.295-1.01-1.727
			c-0.857,0.422-1.738,0.803-2.604,1.211c0.241-1.113,0.488-2.223,0.73-3.336c1.277-0.58,2.621-1.037,3.883-1.648
			c1.16-0.562,0.146-2.287-1.01-1.727c-0.765,0.371-1.56,0.682-2.352,0.998c0.367-1.684,0.749-3.365,1.119-5.049
			c1.46-0.395,2.846-1.025,4.242-1.723c1.154-0.576,0.141-2.301-1.01-1.727c-0.908,0.453-1.809,0.877-2.736,1.209
			c0.307-1.393,0.619-2.783,0.926-4.178c1.494-0.475,2.987-0.957,4.32-1.805c1.085-0.689,0.082-2.422-1.01-1.727
			c-0.879,0.559-1.834,0.932-2.807,1.262c0.354-1.604,0.711-3.205,1.066-4.807c1.504-0.377,3.007-0.752,4.511-1.129
			c1.251-0.312,0.72-2.24-0.531-1.928c-1.165,0.291-2.331,0.584-3.496,0.875c0.142-0.635,0.279-1.271,0.423-1.906
			c4.003-2.689,9.158-5.846,13.734-5.072c3.728,0.629,4.713,5.016,5.329,8.141c2.124,10.77-0.319,22.816-1.962,33.5
			c-1.77,11.519-3.92,23.018-8.559,33.789C47.398,299.372,44.626,305.176,39.733,307.765z M115.464,323.865
			c1.43-1.006,2.783-2.121,4.032-3.348c0.921-0.904-0.493-2.318-1.414-1.414c-1.634,1.604-3.43,3.005-5.376,4.187
			c-1.136-0.237-2.27-0.478-3.406-0.711c1.154-1.309,2.207-2.697,3.02-4.264c0.593-1.145-1.133-2.155-1.727-1.01
			c-0.936,1.803-2.198,3.346-3.567,4.807c-1.603-0.327-3.206-0.654-4.81-0.981c1.538-1.537,3.076-3.074,4.613-4.612
			c0.913-0.913-0.501-2.327-1.414-1.414c-1.849,1.85-3.697,3.697-5.547,5.548c-1.494-0.308-2.987-0.614-4.479-0.926
			c1.411-1.241,2.771-2.539,4.107-3.875c0.913-0.912-0.501-2.327-1.414-1.414c-1.655,1.653-3.333,3.277-5.132,4.771
			c-1.014-0.216-2.028-0.428-3.041-0.646c1.134-1.088,2.179-2.264,3.076-3.578c0.73-1.068-1.004-2.067-1.727-1.01
			c-1.039,1.521-2.325,2.851-3.713,4.062c-1.59-0.354-3.182-0.706-4.766-1.078c1.77-1.623,3.404-3.382,4.872-5.308
			c0.782-1.026-0.956-2.021-1.727-1.01c-1.603,2.103-3.452,4.029-5.472,5.746c-1.513-0.366-3.027-0.724-4.533-1.112
			c1.512-1.168,2.824-2.572,3.731-4.29c0.603-1.141-1.124-2.15-1.727-1.01c-1.051,1.986-2.684,3.464-4.542,4.637
			c-1.375-0.37-2.747-0.751-4.115-1.146c1.555-0.984,2.904-2.29,4.228-3.611c0.913-0.912-0.501-2.326-1.414-1.414
			c-1.671,1.67-3.371,3.372-5.606,4.195c-0.958-0.291-1.917-0.577-2.87-0.884c1.392-1.179,2.585-2.573,3.891-3.897
			c0.905-0.919-0.508-2.334-1.414-1.414c-1.567,1.591-2.943,3.308-4.774,4.554c-1.072-0.359-2.146-0.716-3.213-1.097
			c1.674-0.81,3.111-1.975,4.225-3.578c0.736-1.063-0.998-2.062-1.727-1.01c-1.298,1.87-3.19,2.942-5.355,3.525
			c-0.476-0.18-0.955-0.346-1.43-0.53c1.989-1.232,3.698-2.725,5.178-4.652c0.786-1.023-0.953-2.019-1.727-1.011
			c-1.551,2.022-3.472,3.453-5.672,4.64c0.445-0.628,0.872-1.258,1.267-1.878c7.826-12.287,10.597-27.594,12.789-41.751
			c2.017-13.024,5.024-27.712,1.572-40.751c14.404,3.434,28.907,6.404,43.569,8.539c14.959,2.178,29.488,6.838,44.48,8.707
			c-1.795,6.139-3.446,12.314-4.449,18.637c-0.834,5.266-1.648,14.462,5.574,15.577c6.22,0.961,10.093-5.648,12.514-10.331
			c3.344-6.471,5.578-13.639,8.418-20.336c0.763-1.799,1.486-3.611,2.219-5.422c10.955-1.74,22.822,4.857,33.43,6.594
			c11.557,1.891,23.023,5.303,34.77,5.846c0.596,0.24,1.295,0.281,2.076,0.068c0.01,0,0.021,0.002,0.03,0.002
			c1.303,0.02,2.274-0.477,2.919-1.229c1.907-0.908,3.746-1.936,5.579-3.018c2.045-1.207,4.195-2.836,6.505-3.555
			c2.333,0.002,4.703-0.021,7.029,0.252c2.937,10.824,7.7,24.925,20.31,23.603c1.077,6.076,2.354,12.111,3.977,18.074
			c-11.778,1.258-23.514,3.055-35.134,4.878c-15.172,2.38-30.316,4.89-45.604,6.406c-12.889,1.277-27.35,2.221-38.933,8.514
			c-7.751,4.212-8.538,12.206-1.784,17.715c7.335,5.981,17.394,8.852,26.282,11.604c12.27,3.799,24.985,6.604,37.697,8.521
			c-1.051,0.724-2.119,1.42-3.219,2.072c-0.16,0.015-0.32,0.021-0.48,0.052c-1.156,0.215-2.328,0.274-3.502,0.304
			c0.158-0.098,0.308-0.21,0.473-0.297c1.142-0.602,0.131-2.328-1.01-1.727c-1.045,0.551-1.952,1.318-2.812,2.133
			c-0.178,0.012-0.354,0.021-0.531,0.038c-0.679-0.008-1.356-0.037-2.035-0.053c0.557-0.801-0.336-2.097-1.287-1.451
			c-0.633,0.429-1.231,0.894-1.817,1.372c-2.157-0.077-4.312-0.177-6.464-0.309c0.498-0.497,0.995-0.995,1.493-1.493
			c0.913-0.912-0.501-2.327-1.414-1.414c-0.912,0.912-1.823,1.823-2.735,2.735c-1.936-0.139-3.869-0.292-5.801-0.473
			c0.875-0.943,1.711-1.93,2.617-2.85c0.904-0.921-0.509-2.334-1.414-1.414c-1.267,1.286-2.389,2.766-3.71,4.011
			c-0.895-0.092-1.79-0.171-2.684-0.271c0.574-0.868,1.05-1.798,1.397-2.767c0.438-1.217-1.496-1.736-1.928-0.531
			c-0.385,1.07-0.985,2.108-1.722,3.04c-1.263-0.152-2.525-0.313-3.786-0.484c0.731-0.752,1.4-1.57,2.002-2.451
			c0.729-1.068-1.005-2.067-1.727-1.01c-0.809,1.184-1.773,2.21-2.852,3.104c-0.059-0.008-0.115-0.015-0.174-0.023
			c-0.701-0.446-1.535-0.62-2.419-0.375c-1.236-0.19-2.472-0.395-3.706-0.6c1.533-1.668,3.115-3.29,4.721-4.896
			c0.912-0.913-0.502-2.327-1.414-1.414c-1.93,1.93-3.83,3.88-5.645,5.912c-1.254-0.219-2.508-0.438-3.761-0.674
			c-0.058-0.011-0.114-0.022-0.171-0.033c0.539-0.609,1.086-1.212,1.656-1.791c0.905-0.921-0.508-2.335-1.414-1.414
			c-0.869,0.885-1.686,1.816-2.496,2.755c-1.859-0.375-3.713-0.768-5.559-1.186c0.773-0.998,1.532-2.008,2.292-3.024
			c0.772-1.034-0.964-2.03-1.727-1.011c-0.894,1.195-1.78,2.385-2.702,3.542c-1.469-0.344-2.935-0.694-4.396-1.059
			c0.677-0.632,1.343-1.278,2.002-1.938c0.914-0.912-0.501-2.327-1.414-1.414c-0.953,0.954-1.912,1.894-2.922,2.774
			c-1.859-0.475-3.715-0.962-5.566-1.459l2.569-2.568c0.913-0.913-0.501-2.327-1.414-1.414l-3.38,3.381
			c-1.703-0.463-3.403-0.931-5.104-1.402l1.897-1.896c0.913-0.913-0.501-2.327-1.414-1.414l-2.696,2.695
			c-1.762-0.49-3.521-0.983-5.284-1.476c0.571-0.599,1.167-1.173,1.858-1.65c1.054-0.728,0.055-2.462-1.01-1.727
			c-1.148,0.793-2.082,1.771-2.993,2.781c-1.48-0.411-2.962-0.822-4.446-1.228c1.551-1.55,3.102-3.101,4.652-4.65
			c0.912-0.913-0.502-2.327-1.414-1.414c-1.82,1.819-3.641,3.641-5.461,5.46c-0.271-0.072-0.541-0.148-0.812-0.222
			c-1.989-0.531-3.989-1.03-5.993-1.52c1.092-1.114,1.947-2.493,2.604-4.08c0.493-1.191-1.443-1.706-1.929-0.531
			c-0.708,1.712-1.694,3.089-3.048,4.043c-1.79-0.423-3.58-0.844-5.378-1.243c1.12-1.297,2.228-2.604,3.431-3.826
			c0.904-0.921-0.51-2.335-1.414-1.414c-1.49,1.516-2.834,3.162-4.238,4.755C117.496,324.306,116.481,324.081,115.464,323.865z
			 M181.855,405.312c0.013,0.405,0.01,0.802,0.005,1.196c-6.262-1.196-12.579-1.815-18.966-1.975
			c0.184-0.849,0.252-1.717,0.198-2.576c5.403-2.633,10.875-4.993,16.669-6.548C181.014,398.728,181.751,402.099,181.855,405.312z
			 M162.725,399.917c-0.148-0.47-0.328-0.931-0.564-1.371c4.14-4.044,8.777-8.206,13.807-10.67c1.169,1.828,2.189,3.732,3.037,5.669
			C173.354,395.079,168.001,397.365,162.725,399.917z M158.944,412.796c3.096,4.841,6.609,9.401,9.961,14.074
			c-3,1.563-6.342,2.689-9.829,3.396C159.934,424.561,159.423,418.644,158.944,412.796z M158.646,393.569
			c-0.248-0.123-0.509-0.229-0.793-0.283c-0.783-0.154-1.561-0.219-2.322-0.211c1.922-6.239,4.228-12.354,6.379-18.521
			c2.215,1.161,4.318,2.618,6.273,4.299c-0.076,0.02-0.15,0.021-0.229,0.061c-2.471,1.202-4.111,4.926-5.396,7.145
			C161.148,388.493,159.842,391.007,158.646,393.569z M148.751,431.171c-2.802-0.061-5.625-0.396-8.305-1.157
			c3.494-6.626,7.932-13.008,11.523-19.716c0.9,0.409,1.884,0.641,2.88,0.692c-1.78,6.505-5.273,13.014-6.454,19.207
			C148.314,430.621,148.488,430.952,148.751,431.171z M135.55,428.005c5.161-6.096,9.863-12.61,13.899-19.502
			c0.265,0.261,0.541,0.51,0.833,0.742c-3.648,6.857-8.236,13.372-11.762,20.134C137.499,428.995,136.505,428.541,135.55,428.005z
			 M133.065,426.358c-1.578-1.242-2.938-2.695-4.098-4.297c6.34-3.013,11.862-7.459,17.261-12.067
			c-3.676,5.954-7.848,11.606-12.38,16.936C133.585,426.744,133.321,426.56,133.065,426.358z M124.054,410.092
			c7.647-2.015,15.047-4.787,22.483-7.46c0.135,1.25,0.53,2.457,1.144,3.556c-6.211,5.375-12.462,10.8-19.816,14.2
			C125.965,417.254,124.73,413.692,124.054,410.092z M152.696,393.45c-0.011,0.004-0.022,0.005-0.033,0.008
			c-2.357-7.059-4.385-14.227-6.922-21.225c1.564-0.396,3.171-0.646,4.791-0.674c0.296,0.002,0.59,0.022,0.885,0.035
			C151.71,378.886,152.463,386.156,152.696,393.45z M143.824,372.797c2.56,7.067,4.602,14.306,6.989,21.429
			c-0.311,0.174-0.612,0.361-0.899,0.573c-3.782-6.555-7.329-13.231-10.153-20.267C141.044,373.867,142.41,373.276,143.824,372.797z
			 M148.41,363.463c-4.576,0.337-8.931,1.773-12.891,4.038c3.206-9.335,7.283-18.397,9.695-27.979
			c3.098,0.856,6.193,1.717,9.294,2.562C152.222,349.131,150.188,356.27,148.41,363.463z M138.018,375.513
			c2.912,7.18,6.544,13.999,10.415,20.698c-0.122,0.15-0.23,0.317-0.341,0.479c-0.021-0.01-0.043-0.019-0.064-0.026
			c-4.891-5.933-9.424-12.146-14.187-18.182C135.035,377.475,136.444,376.454,138.018,375.513z M131.98,380.207
			c0.122-0.127,0.26-0.258,0.391-0.388c3.965,5.02,7.776,10.155,11.754,15.164c-5.548-2.444-11.039-5.018-16.643-7.336
			C128.77,384.64,130.296,381.957,131.98,380.207z M126.739,389.488c5.577,2.302,11.042,4.857,16.56,7.296
			c-6.27-0.165-12.56,0.229-18.858,0.334C125.003,394.639,125.785,392,126.739,389.488z M123.457,405.144
			c-0.082-1.539,0.129-3.654,0.568-6.021c7.656-0.114,15.318-0.745,22.936-0.207c-0.038,0.111-0.083,0.218-0.117,0.333
			c-0.127,0.416-0.207,0.833-0.267,1.25c-7.562,2.712-15.077,5.551-22.846,7.612C123.6,407.116,123.507,406.124,123.457,405.144z
			 M154.532,389.612c-0.316-5.95-0.863-11.892-1.109-17.844c2.293,0.312,4.527,0.977,6.677,1.918
			C158.253,379,156.285,384.271,154.532,389.612z M169.134,355.374c-0.102,0.353-0.162,0.71-0.154,1.072
			c-0.58,4.035-1.177,8.062-1.44,12.123c-1.988-1.181-4.062-2.207-6.202-3.059c-1.62-0.644-3.232-1.125-4.83-1.473
			c1.689-6.691,3.604-13.331,5.735-19.894c2.687,0.694,5.383,1.362,8.09,1.996c-0.102,0.311-0.179,0.64-0.21,1.002
			C169.89,349.899,169.522,352.64,169.134,355.374z M163.341,388.758c1.259-2.331,3.102-6.892,5.623-8.118
			c0.312-0.15,0.457-0.387,0.494-0.639c1.989,1.873,3.801,3.973,5.388,6.217c-5.031,2.551-9.688,6.664-13.853,10.691
			c-0.084-0.09-0.168-0.182-0.257-0.268c-0.077-0.565-0.271-1.122-0.561-1.615C161.164,392.903,162.231,390.815,163.341,388.758z
			 M192.814,350.344c2.641,0.38,5.285,0.733,7.936,1.037c-7.797,5.479-16.737,9.365-24.96,14.239c0.213-2.138,0.501-4.271,0.8-6.4
			C182.016,356.335,187.809,353.906,192.814,350.344z M177.855,349.619c0.066-0.601,0.148-1.199,0.204-1.801
			c0.387,0.078,0.771,0.163,1.159,0.238c0.428,0.084,0.859,0.155,1.289,0.237C179.626,348.741,178.742,349.183,177.855,349.619z
			 M177.061,375.286c-0.19,0.065-0.351,0.157-0.52,0.241c-0.196-0.193-0.4-0.378-0.602-0.565
			c10.928-7.254,23.418-12.075,33.68-20.322c0.856-0.688,1.269-1.486,1.354-2.283c2.576,0.195,5.155,0.366,7.736,0.485
			c-2.17,1.02-4.312,2.068-6.383,3.205C200.587,362.488,189.804,370.832,177.061,375.286z M106.851,365.572
			c-0.978,4.018-1.798,8.075-2.397,12.195c-0.955-3.441-1.661-6.96-2.418-10.461C103.602,366.534,105.215,365.938,106.851,365.572z
			 M100.212,368.307c1.037,4.774,2.027,9.547,3.656,14.145c-0.03,0.277-0.06,0.562-0.088,0.846
			c-2.512-4.099-4.547-8.471-6.773-12.736C98.037,369.729,99.106,368.971,100.212,368.307z M95.453,371.896
			c2.27,4.372,4.355,8.847,6.98,13.012c-3.338-3.242-6.889-6.264-10.25-9.487C93.193,374.164,94.282,372.976,95.453,371.896z
			 M90.968,377.024c4.033,3.852,8.318,7.431,12.178,11.457c-4.836-2.51-10.153-4.302-14.604-7.441
			C89.248,379.653,90.06,378.307,90.968,377.024z M87.695,382.851c4.079,2.771,8.765,4.537,13.196,6.729
			c-0.138,0.052-0.276,0.104-0.415,0.155c-4.765-0.789-9.483-2.066-13.74-4.281C87.012,384.578,87.33,383.708,87.695,382.851z
			 M86.196,387.433c3.358,1.698,6.98,2.848,10.685,3.648c-3.673,1.381-7.351,2.75-11.03,4.109
			C85.464,392.655,85.604,390.031,86.196,387.433z M87.544,400.468c-0.557-1.066-0.976-2.174-1.285-3.304
			c4.816-1.778,9.625-3.579,14.433-5.382c0.714,0.111,1.427,0.209,2.142,0.305c-4.792,3.309-9.803,6.311-14.59,9.628
			C87.998,401.304,87.764,400.889,87.544,400.468z M89.344,403.378c4.733-3.274,9.684-6.244,14.421-9.512
			c0.054,0.33,0.119,0.653,0.188,0.979c-4.406,3.431-7.978,7.854-12.537,11.1C90.672,405.119,89.976,404.265,89.344,403.378z
			 M92.814,407.403c4.235-3.112,7.625-7.223,11.709-10.502c0.197,0.568,0.415,1.129,0.682,1.665c0.042,0.086,0.09,0.16,0.135,0.242
			c-1.176,1.503-2.422,2.955-3.658,4.405c-1.936,2.268-3.936,4.496-5.781,6.841C94.817,409.231,93.781,408.347,92.814,407.403z
			 M97.516,411.215c2.23-2.853,4.7-5.536,7.035-8.298c0.521-0.617,1.242-1.358,1.97-2.161c-0.929,4.538-2.319,8.938-3.83,13.312
			C100.915,413.279,99.169,412.331,97.516,411.215z M106.997,415.606c-0.428-0.109-0.835-0.224-1.19-0.335
			c-0.422-0.133-0.842-0.299-1.264-0.452c1.475-4.258,2.846-8.532,3.789-12.938c0.229,0.119,0.465,0.22,0.705,0.312
			C108.167,406.636,107.429,411.1,106.997,415.606z M111.462,416.187c-0.815,0.023-1.673-0.047-2.504-0.175
			c0.416-4.507,1.158-8.964,2.028-13.405c0.261,0.019,0.524,0.014,0.79,0.007C111.294,407.135,111.19,411.662,111.462,416.187z
			 M113.44,415.878c-0.25-4.467-0.135-8.937,0.349-13.401c0.007-0.059-0.013-0.101-0.015-0.152c0.422-0.109,0.842-0.237,1.26-0.404
			c-0.109,3.088,0.1,6.181,0.521,9.275C116.148,413.977,115.105,415.328,113.44,415.878z M112.108,394.529
			c-0.509-1.221-0.483-2.879-0.544-4.105c-0.227-4.615,0.354-9.311,1.062-13.862c2.267-14.562,7.732-28.39,12.254-42.354
			c1.95,0.46,3.896,0.933,5.837,1.425c2.266,0.576,4.523,1.174,6.777,1.779c-3.404,13.512-10.125,25.995-13.013,39.671
			c-3.761,4.698-6.597,10.229-8.142,16.005C116.19,393.612,112.565,394.293,112.108,394.529z M150.093,431.181
			c0.105-0.113,0.193-0.254,0.231-0.452c1.24-6.506,4.721-13.084,6.487-19.76c0.527,6.563,1.309,13.285,0.203,19.66
			c-1.168,0.18-2.347,0.319-3.531,0.409C152.371,431.123,151.235,431.171,150.093,431.181z M170.648,425.882
			c-3.803-5.295-7.819-10.44-11.191-16.023c0.319-0.205,0.629-0.43,0.911-0.688c5.662,3.578,11.264,7.237,16.431,11.511
			C175.081,422.723,172.994,424.452,170.648,425.882z M178.012,419.093c-5.159-4.251-10.735-7.91-16.377-11.483
			c0.218-0.353,0.416-0.714,0.588-1.088c6.583,0.133,13.09,0.749,19.54,2.003C181.398,412.635,180.059,416.147,178.012,419.093z
			 M187.205,391.719c-1.312-3.448-3.074-6.731-5.211-9.768c12.229-4.824,22.957-12.554,34.369-18.997
			c11.162-6.303,23.8-9.957,33.256-18.981c0.073-0.07,0.12-0.146,0.187-0.219c5.233,0.438,10.522,0.953,15.423,2.506
			C240.13,362.926,209.198,370.604,187.205,391.719z M397.927,339.148c0.955,1.879,2.083,3.608,3.395,5.218
			c-0.985,0.051-1.972,0.103-2.956,0.152c-1.781-1.537-3.312-3.42-4.11-5.642c-0.433-1.204-2.366-0.686-1.929,0.531
			c0.723,2.009,1.895,3.737,3.328,5.248c-0.467,0.022-0.932,0.048-1.396,0.071c-1.316-1.265-2.341-2.883-3.104-4.591
			c-0.525-1.176-2.248-0.156-1.728,1.011c0.586,1.312,1.339,2.579,2.245,3.709c-0.658,0.032-1.315,0.066-1.976,0.099
			c-2.243-1.825-3.854-4.119-5.043-6.816c-0.521-1.179-2.242-0.159-1.728,1.01c0.998,2.265,2.312,4.236,3.974,5.934
			c-1.443,0.065-2.887,0.133-4.329,0.194c-1.336-1.382-2.514-2.9-3.417-4.638c-0.597-1.146-2.322-0.134-1.728,1.01
			c0.704,1.353,1.571,2.586,2.543,3.733c-1.059,0.042-2.117,0.091-3.176,0.13c-1.43-1.442-2.686-3.038-3.641-4.873
			c-0.597-1.146-2.322-0.134-1.728,1.01c0.749,1.438,1.682,2.746,2.729,3.955c-1.33,0.046-2.661,0.099-3.991,0.138
			c-1.275-1.294-2.258-2.901-3.011-4.603c-0.521-1.178-2.244-0.158-1.728,1.01c0.579,1.309,1.296,2.549,2.151,3.661
			c-1.411,0.037-2.822,0.085-4.234,0.112c-1.229-1.097-2.307-2.346-3.189-3.783c-0.674-1.098-2.404-0.094-1.728,1.01
			c0.629,1.023,1.362,1.952,2.15,2.826c-1.075,0.017-2.15,0.049-3.228,0.06c-1.865-1.421-3.366-3.241-4.854-5.098
			c-0.807-1.007-2.212,0.418-1.414,1.414c1.034,1.292,2.085,2.562,3.248,3.703c-1.154,0.005-2.309,0.014-3.463,0.012
			c-2.17-1.861-4.234-3.909-5.114-6.688c-0.388-1.225-2.319-0.7-1.929,0.531c0.779,2.462,2.308,4.407,4.091,6.146
			c-0.722-0.004-1.443-0.007-2.166-0.01c-2.507-1.021-4.216-3.142-5.597-5.407c-0.67-1.101-2.399-0.096-1.728,1.01
			c1.006,1.652,2.169,3.17,3.59,4.384c-1.214-0.005-2.427-0.009-3.64-0.014c-1.801-1.516-3.404-3.254-4.88-5.082
			c-0.812-1.004-2.217,0.421-1.414,1.414c1.042,1.291,2.149,2.511,3.33,3.655c-1.218-0.006-2.435-0.007-3.651-0.014
			c-1.394-1.28-2.611-2.734-3.607-4.354c-0.676-1.097-2.405-0.093-1.728,1.01c0.74,1.203,1.591,2.306,2.528,3.327
			c-1.446-0.01-2.894-0.015-4.338-0.025c-0.781-1.088-1.409-2.286-1.863-3.572c-0.426-1.208-2.358-0.688-1.929,0.531
			c0.373,1.056,0.844,2.068,1.405,3.024c-0.731-0.007-1.466-0.008-2.197-0.017c-1.659-1.204-3.131-2.641-4.38-4.278
			c-0.771-1.012-2.51-0.018-1.728,1.01c0.889,1.166,1.854,2.247,2.911,3.229c-1.227-0.017-2.454-0.026-3.681-0.047
			c-1.597-1.51-2.967-3.181-4.004-5.191c-0.593-1.146-2.317-0.136-1.728,1.01c0.791,1.534,1.772,2.894,2.893,4.138
			c-0.818-0.018-1.636-0.044-2.452-0.07c-1.744-1.357-3.167-3.06-4.213-5.076c-0.595-1.146-2.319-0.135-1.728,1.01
			c0.754,1.456,1.709,2.774,2.82,3.941c-0.611-0.028-1.225-0.054-1.834-0.085c-2.716-1.923-4.886-4.294-6.26-7.366
			c-0.525-1.176-2.249-0.157-1.728,1.01c1.078,2.412,2.652,4.422,4.547,6.145c-0.59-0.04-1.181-0.063-1.771-0.108
			c-2.491-2.057-4.729-4.367-6.55-7.045c-0.722-1.061-2.455-0.061-1.728,1.01c1.436,2.108,3.096,4.013,4.938,5.75
			c-0.861-0.08-1.725-0.152-2.584-0.243c0.033-0.332-0.093-0.67-0.484-0.875c-2.477-1.292-4.458-3.309-5.541-5.902
			c-0.489-1.172-2.425-0.657-1.929,0.531c0.979,2.344,2.487,4.326,4.46,5.825c-1.43-0.202-2.854-0.428-4.272-0.69
			c-2.022-1.982-3.426-4.417-4.259-7.165c-0.373-1.231-2.304-0.706-1.929,0.53c0.659,2.175,1.643,4.21,2.975,6
			c-0.296-0.062-0.592-0.12-0.887-0.184c-0.354-0.076-0.857-0.184-1.432-0.305c-1.598-1.63-2.963-3.46-4.328-5.282
			c-0.765-1.02-2.502-0.023-1.728,1.01c0.896,1.193,1.795,2.391,2.744,3.545c-0.228-0.053-0.453-0.104-0.67-0.156
			c-0.593-0.328-1.664-0.844-2.849-1.359c-0.046-0.081-0.081-0.164-0.155-0.24c-0.856-0.879-1.354-1.906-1.743-3.059
			c-0.412-1.216-2.345-0.693-1.93,0.53c0.181,0.529,0.392,1.031,0.622,1.521c-1.018-0.333-2.052-0.62-3.095-0.882
			c-1.128-2.103-2.139-4.268-3.199-6.408c-0.572-1.155-2.297-0.143-1.727,1.01c0.794,1.604,1.554,3.224,2.359,4.819
			c-0.958-0.192-1.921-0.37-2.891-0.522c-0.831-1.386-1.586-2.816-2.242-4.307c-0.519-1.178-2.241-0.159-1.727,1.01
			c0.444,1.009,0.945,1.981,1.472,2.938c-1.479-0.19-2.963-0.354-4.447-0.498c-1.014-1.604-1.824-3.32-2.197-5.211
			c-0.249-1.266-2.177-0.729-1.928,0.53c0.312,1.591,0.92,3.061,1.685,4.452c-0.914-0.082-1.826-0.163-2.733-0.245
			c-1.982-2.021-3.393-4.479-3.487-7.473c-0.04-1.286-2.041-1.29-2,0c0.088,2.782,1.095,5.157,2.643,7.203
			c-0.722-0.073-1.442-0.148-2.156-0.23c-1.233-0.143-2.469-0.315-3.703-0.49c-1.63-2.834-3.202-5.702-4.92-8.486
			c-0.676-1.095-2.406-0.091-1.727,1.01c1.438,2.331,2.775,4.721,4.128,7.102c-1.156-0.183-2.312-0.362-3.469-0.566
			c-1.174-1.661-2.305-3.353-3.433-5.044c-0.712-1.067-2.444-0.067-1.727,1.01c0.786,1.18,1.577,2.355,2.38,3.522
			c-0.748-0.144-1.495-0.282-2.242-0.435c-1.527-2.33-3.019-4.683-4.411-7.099c-0.644-1.116-2.372-0.109-1.727,1.01
			c1.077,1.868,2.216,3.695,3.381,5.507c-1.165-0.253-2.331-0.501-3.493-0.771c-1.305-1.855-2.523-3.771-3.661-5.744
			c-0.644-1.116-2.372-0.11-1.727,1.01c0.794,1.378,1.635,2.722,2.506,4.041c-0.325-0.08-0.651-0.156-0.976-0.238
			c-1.64-2.298-2.904-4.833-4.304-7.312c-0.634-1.123-2.361-0.115-1.727,1.01c1.055,1.87,2.046,3.759,3.159,5.565
			c-0.867-0.229-1.734-0.456-2.6-0.693c-1.396-1.858-2.535-3.896-3.232-6.143c-0.381-1.229-2.312-0.704-1.928,0.53
			c0.527,1.698,1.287,3.289,2.201,4.788c-1.287-0.367-2.572-0.739-3.851-1.125c-1.569-2.169-2.933-4.458-4.023-6.934
			c-0.519-1.178-2.241-0.159-1.727,1.01c0.771,1.749,1.682,3.403,2.699,4.989c-0.355-0.11-0.715-0.216-1.069-0.327
			c-1.647-2.268-2.891-4.78-3.803-7.433c-0.416-1.212-2.349-0.691-1.928,0.53c0.72,2.096,1.639,4.072,2.752,5.949
			c-0.354-0.114-0.713-0.224-1.065-0.34c-0.448-0.146-0.891-0.308-1.337-0.461c-1.744-2.046-2.58-4.659-3.422-7.18
			c-0.406-1.218-2.338-0.695-1.928,0.53c0.626,1.878,1.261,3.774,2.188,5.51c-0.465-0.177-0.931-0.345-1.393-0.525
			c-1.346-1.786-2.146-3.876-2.867-6.015c-0.408-1.216-2.341-0.694-1.928,0.53c0.483,1.438,1.006,2.853,1.67,4.185
			c-0.445-0.194-0.894-0.383-1.336-0.585c-1.157-1.882-1.993-3.927-2.406-6.13c-0.236-1.268-2.164-0.729-1.928,0.53
			c0.275,1.478,0.744,2.871,1.352,4.203c-2.557-1.252-6.741-3.531-6.352-5.275c0.363-1.631,4.053-2.947,5.301-3.547
			c3.076-1.478,6.75-2.137,10.055-2.892c7.308-1.669,14.799-2.455,22.245-3.208c28.45-2.877,56.486-8.912,84.945-11.668
			c0.914,0.218,1.898,0.111,2.764-0.248c1.124-0.1,2.248-0.206,3.373-0.295c15.43-1.217,31.046-1.146,46.352,1.315
			c13.734,2.208,26.767,7.328,40.349,10.271c11.86,2.571,24.482,4.54,36.469,8.037c0.323,0.139,0.658,0.239,1.001,0.295
			c10.594,3.178,20.655,7.603,29.209,14.769c3.163,2.648,6.408,5.193,9.521,7.906c1.01,0.882,6.215,5.396,5.422,5.954
			c-0.702,0.494-1.557,0.809-2.479,1.021c-1.751-1.066-3.12-2.659-4.194-4.41c-0.675-1.097-2.404-0.093-1.728,1.01
			c0.872,1.421,1.899,2.688,3.106,3.749c-1.398,0.057-2.828-0.005-4.131-0.062c-1.355-1.315-2.442-2.888-3.249-4.697
			c-0.524-1.176-2.247-0.157-1.728,1.01c0.589,1.32,1.332,2.537,2.21,3.636c-0.854,0.005-1.707,0.014-2.561,0.026
			c-1.313-1.375-2.421-2.939-3.423-4.672c-0.646-1.115-2.374-0.108-1.728,1.01c0.769,1.328,1.603,2.571,2.531,3.717
			c-1.222,0.035-2.441,0.071-3.663,0.121c-1.145-1.322-2.011-2.882-2.541-4.607c-0.377-1.229-2.308-0.705-1.929,0.531
			c0.463,1.506,1.152,2.911,2.03,4.183c-1.854,0.084-3.711,0.172-5.562,0.258c-1.11-1.544-1.97-3.377-2.64-4.711
			c-0.579-1.152-2.306-0.14-1.728,1.01c0.592,1.179,1.286,2.524,2.104,3.803c-1.196,0.052-2.394,0.1-3.587,0.139
			c-0.197,0.007-0.396,0.016-0.595,0.021c-1.364-1.556-2.529-3.331-3.695-4.972c-0.74-1.042-2.477-0.044-1.728,1.01
			c0.967,1.361,1.924,2.75,2.96,4.055c-1.162,0.043-2.323,0.082-3.485,0.129c-1.658-1.687-3.047-3.629-4.247-5.692
			c-0.648-1.113-2.378-0.106-1.728,1.01c0.992,1.705,2.106,3.319,3.375,4.794c-1.078,0.048-2.156,0.092-3.234,0.14
			c-1.217-1.646-2.109-3.584-2.913-5.442c-0.512-1.181-2.233-0.161-1.728,1.01c0.661,1.53,1.401,3.097,2.303,4.539
			c-1.146,0.054-2.291,0.102-3.437,0.155c-1.379-1.227-2.583-2.648-3.64-4.204c-0.722-1.06-2.454-0.061-1.728,1.01
			c0.801,1.18,1.677,2.296,2.639,3.324c-1.309,0.063-2.616,0.121-3.926,0.188c-1.368-1.506-2.537-3.169-3.485-5.021
			c-0.59-1.146-2.314-0.136-1.728,1.01c0.756,1.477,1.642,2.86,2.655,4.142c-1.062,0.054-2.122,0.105-3.185,0.161
			c-1.849-1.707-3.425-3.648-4.744-5.812c-0.672-1.099-2.401-0.095-1.728,1.01c1.088,1.781,2.35,3.434,3.771,4.94
			c-0.945,0.049-1.893,0.098-2.838,0.146c-1.688-1.84-3.064-3.851-4.206-6.097C399.068,336.989,397.343,338.001,397.927,339.148z
			 M470.909,357.003c-1.136-0.389-2.268-0.793-3.396-1.212c-0.925-1.884-1.712-3.82-2.374-5.807c0.853-0.046,1.701-0.1,2.553-0.153
			C468.581,352.308,469.59,354.729,470.909,357.003z M464.843,354.771c-0.961-0.378-1.921-0.762-2.877-1.154
			c-0.42-1.142-0.835-2.285-1.247-3.43c0.779-0.027,1.558-0.072,2.336-0.106C463.568,351.675,464.174,353.234,464.843,354.771z
			 M459.458,352.565c-1.695-0.722-3.384-1.461-5.064-2.208c1.411-0.026,2.821-0.059,4.231-0.099
			C458.902,351.028,459.18,351.797,459.458,352.565z M468.767,375.865c-0.688-1.157-1.438-2.282-2.209-3.397
			c0.779-0.625,1.558-1.252,2.272-1.95c0.925-0.901-0.491-2.314-1.414-1.414c-0.632,0.617-1.315,1.178-2.003,1.729
			c-0.854-1.193-1.722-2.379-2.571-3.568c0.555-0.476,1.138-0.916,1.786-1.258c1.142-0.602,0.131-2.328-1.01-1.727
			c-0.696,0.367-1.327,0.838-1.932,1.346c-0.062-0.09-0.128-0.179-0.188-0.27c-0.682-1.003-1.589-1.535-2.539-1.722
			c0.303-0.593,0.034-1.493-0.836-1.492c-0.732,0.001-1.376,0.124-1.967,0.44c-1.291-0.536-2.612-0.998-3.96-1.389
			c0.275-0.514,0.533-1.035,0.79-1.547c0.575-1.15-1.149-2.163-1.728-1.011c-0.329,0.659-0.654,1.368-1.045,2.026
			c-0.896-0.218-1.801-0.411-2.712-0.585c0.31-0.319,0.592-0.671,0.816-1.098c0.602-1.141-1.124-2.15-1.728-1.011
			c-0.38,0.722-0.976,1.199-1.582,1.68c-1.696-0.261-3.406-0.472-5.12-0.652c0.803-0.534,1.565-1.133,2.272-1.813
			c0.931-0.896-0.485-2.31-1.414-1.414c-1.294,1.247-2.777,2.186-4.389,2.879c-1.423-0.134-2.841-0.265-4.244-0.406
			c0.712-0.541,1.405-1.103,2.047-1.726c0.927-0.9-0.489-2.313-1.414-1.414c-1.094,1.062-2.331,1.957-3.593,2.812
			c-0.754-0.092-1.504-0.188-2.246-0.298c-1.274-0.188-2.547-0.417-3.818-0.665c1.109-1.062,2.255-2.078,3.536-2.947
			c1.061-0.719,0.062-2.453-1.01-1.727c-1.793,1.216-3.356,2.674-4.891,4.187c-1.188-0.259-2.378-0.528-3.563-0.816
			c0.488-0.325,0.976-0.65,1.464-0.977c1.067-0.711,0.067-2.443-1.01-1.727c-1.026,0.685-2.054,1.368-3.079,2.053
			c-3.417-0.867-6.821-1.782-10.213-2.586c-0.062-0.015-0.121-0.029-0.183-0.044c9.565-0.469,19.13-0.984,28.694-1.489
			c0.979-0.052,1.959-0.085,2.938-0.124c11.997,5.16,23.75,10.922,36.229,14.867c0.664,0.21,1.34,0.416,2.021,0.619
			C472.193,369.408,470.437,372.612,468.767,375.865z M473.893,357.975c-1.801-2.572-3.06-5.391-4.131-8.298
			c0.474-0.037,0.947-0.068,1.42-0.111c0.48-0.044,0.969-0.114,1.456-0.203c1.278,3.311,2.513,6.614,4.554,9.572
			C476.088,358.631,474.988,358.314,473.893,357.975z M478.962,359.401c0.331-0.273,0.478-0.724,0.149-1.183
			c-2.008-2.809-3.241-5.97-4.469-9.147c0.998,0.143,2.018,0.299,3.027,0.449c1.46,3.764,3.164,7.458,5.327,10.793
			C481.646,360.044,480.301,359.74,478.962,359.401z M485.719,360.81c-0.013-0.021-0.021-0.041-0.036-0.062
			c-2.37-3.314-4.186-7.052-5.729-10.888c0.976,0.15,1.959,0.313,2.94,0.476c1.542,3.675,3.16,7.312,5.087,10.798
			C487.225,361.035,486.471,360.932,485.719,360.81z M490.437,361.401c-1.997-3.433-3.657-7.024-5.214-10.67
			c1.229,0.214,2.458,0.454,3.688,0.688c1.519,3.441,3.164,6.824,4.84,10.193C492.641,361.57,491.536,361.502,490.437,361.401z
			 M496.555,361.662c-0.188,0.002-0.372-0.01-0.559-0.01c-1.616-3.234-3.215-6.479-4.706-9.771c1.076,0.221,2.147,0.452,3.217,0.691
			c1.479,2.964,2.646,6.089,4.132,9.042C497.928,361.64,497.227,361.654,496.555,361.662z M500.84,361.49
			c-1.391-2.597-2.486-5.352-3.708-8.042c0.688,0.303,1.453,0.432,2.203,0.371c1.484,2.394,2.928,4.807,4.258,7.282
			C502.688,361.286,501.764,361.411,500.84,361.49z M505.816,355.694c1.935,0.66,4.813,1.822,2.78,3.338
			c-0.909,0.678-1.934,1.17-3.017,1.538c-1.082-2.047-2.244-4.049-3.449-6.028C503.376,354.905,504.609,355.283,505.816,355.694z
			 M500.165,329.231c-1.749,5.243-2.827,10.588-4.168,15.896c-4.398-0.96-8.788-1.938-13.21-2.765
			c0.713-2.053,0.406-4.451-1.533-7.077c-4.683-6.342-11.74-10.375-17.382-15.737c-6.972-6.627-17.024-10.779-26.541-13.837
			c3.307-4.327,7.454-7.922,11.706-11.396c5.976-4.883,11.938-9.663,17.688-14.816c4.61-4.133,9.716-8.771,16.126-9.553
			c6.236-0.761,12.751,2.029,18.583,3.947c4.797,1.576,13.267,3.542,14.752,9.102c1.729,6.465-4.058,14.978-6.37,20.731
			C506.423,312.164,503.044,320.601,500.165,329.231z"/>
		<path fill="#98f698" d="M116.385,392.787C116.401,392.677,116.41,392.623,116.385,392.787L116.385,392.787z"/>
		<path fill="#98f698" d="M116.341,393.087c0.015-0.096,0.023-0.16,0.032-0.22C116.357,392.975,116.341,393.087,116.341,393.087z"/>
	</g>
</g>
<g>
</g>
<g>
</g>
<g>
</g>
<g>
</g>
<g>
</g>
<g>
</g>
<g>
</g>
<g>
</g>
<g>
</g>
<g>
</g>
<g>
</g>
<g>
</g>
<g>
</g>
<g>
</g>
<g>
</g>
</svg>
