<?xml version="1.0" standalone="no"?>
<!DOCTYPE svg PUBLIC "-//W3C//DTD SVG 20010904//EN"
 "http://www.w3.org/TR/2001/REC-SVG-20010904/DTD/svg10.dtd">
<svg version="1.0" xmlns="http://www.w3.org/2000/svg"
 width="260.000000pt" height="260.000000pt" viewBox="0 0 260.000000 260.000000"
 preserveAspectRatio="xMidYMid meet">
<metadata>
Created by potrace 1.11, written by Peter Selinger 2001-2013
</metadata>
<g transform="translate(0.000000,260.000000) scale(0.100000,-0.100000)"
fill="#000000" stroke="none">
<path d="M260 2300 l0 -220 75 0 75 0 0 -375 0 -375 75 0 75 0 0 -665 0 -665
150 0 150 0 0 70 0 70 75 0 75 0 0 75 0 75 220 0 220 0 0 -145 0 -145 150 0
150 0 0 70 0 70 75 0 75 0 0 75 0 75 75 0 75 0 0 745 0 745 70 0 70 0 0 150 0
150 75 0 75 0 0 220 0 220 -220 0 -220 0 0 -75 0 -75 -595 0 -595 0 0 75 0 75
-225 0 -225 0 0 -220z"/>
</g>
</svg>
