<?xml version="1.0" encoding="UTF-8"?>
<!DOCTYPE svg PUBLIC "-//W3C//DTD SVG 1.1//EN" "http://www.w3.org/Graphics/SVG/1.1/DTD/svg11.dtd">
<svg version="1.1" xmlns="http://www.w3.org/2000/svg" xmlns:xlink="http://www.w3.org/1999/xlink" x="0" y="0" width="573.722" height="573.723" viewBox="0, 0, 573.722, 573.723">
  <g id="Layer_1">
    <path d="M495.583,6.936 C491.128,2.481 485.151,0.027 478.753,0.027 C472.875,0.027 467.257,2.151 462.976,5.969 L296.539,152.971 C295.979,153.47 295.456,153.993 294.954,154.532 L234.21,93.791 C225.908,85.489 214.874,80.918 203.133,80.918 C191.392,80.918 180.358,85.489 172.056,93.791 L93.714,172.136 C76.581,189.272 76.581,217.155 93.714,234.291 L154.464,295.041 C153.944,295.525 153.436,296.027 152.959,296.562 L6.035,462.913 C-2.356,472.309 -1.948,486.651 6.959,495.559 L78.477,567.08 C82.746,571.348 88.367,573.695 94.31,573.695 C100.635,573.695 106.718,570.947 111.033,566.113 L257.959,399.761 C258.155,399.54 258.323,399.306 258.51,399.081 L281.747,422.319 C290.049,430.618 301.087,435.192 312.824,435.192 C324.562,435.192 335.6,430.622 343.902,422.319 L375.503,390.719 L387.308,402.524 C378.789,417.68 380.935,437.258 393.817,450.143 C401.333,457.657 411.321,461.795 421.948,461.795 C432.572,461.795 442.563,457.656 450.076,450.143 C465.584,434.633 465.584,409.397 450.076,393.889 C442.56,386.373 432.572,382.237 421.948,382.237 C414.999,382.237 408.334,384.036 402.443,387.364 L390.65,375.575 L422.251,343.977 C439.387,326.84 439.387,298.957 422.251,281.822 L399.004,258.575 C399.252,258.373 399.509,258.183 399.748,257.97 L566.185,110.97 C570.867,106.79 573.541,101.089 573.715,94.911 C573.89,88.733 571.542,82.889 567.106,78.452 L495.583,6.936 z M95.013,551.892 C94.566,552.394 94.095,552.406 93.621,551.935 L22.102,480.414 C21.291,479.603 21.248,478.033 22.047,477.133 L38.935,458.012 L112.739,531.819 L95.013,551.892 z M126.951,515.731 L53.147,441.924 L87.985,402.477 L161.789,476.282 L126.951,515.731 z M176,460.198 L102.192,386.393 L135.347,348.854 L209.151,422.657 L176,460.198 z M241.936,385.544 L223.362,406.571 L149.558,332.766 L168.974,310.784 C169.203,310.528 169.436,310.401 169.678,310.401 C169.742,310.401 169.806,310.432 169.868,310.45 L242.228,382.811 C242.652,383.655 242.588,384.812 241.936,385.544 z M347.65,306.679 L306.6,347.726 C301.288,353.037 294.225,355.962 286.713,355.962 C279.2,355.962 272.138,353.036 266.823,347.726 L168.309,249.211 C157.342,238.244 157.342,220.401 168.309,209.434 L209.359,168.387 C214.671,163.075 221.734,160.15 229.246,160.15 C236.758,160.15 243.821,163.075 249.136,168.387 L347.65,266.901 C358.614,277.868 358.614,295.71 347.65,306.679 z M385.521,241.953 C384.995,242.425 384.318,242.495 383.966,242.495 C383.651,242.495 382.858,242.431 382.286,241.861 L310.761,170.34 C310.529,170.104 310.415,169.875 310.422,169.639 C310.428,169.4 310.553,169.177 310.761,168.993 L332.787,149.541 L406.591,223.345 L385.521,241.953 z M422.681,209.134 L348.877,135.33 L386.417,102.175 L460.221,175.979 L422.681,209.134 z M476.308,161.769 L402.503,87.965 L441.949,53.124 L515.754,126.931 L476.308,161.769 z M551.957,94.954 L531.838,112.724 L458.034,38.916 L477.198,21.988 C477.728,21.517 478.401,21.446 478.756,21.446 C479.071,21.446 479.864,21.507 480.437,22.082 L551.955,93.601 C552.194,93.84 552.305,94.069 552.298,94.305 C552.291,94.541 552.168,94.767 551.957,94.954 z" fill="#D13A23"/>
    <path d="M78.988,109.663 C83.44,109.663 87.737,108.687 91.669,106.893 L102.789,118.013 L76.385,144.421 C72.202,148.604 72.202,155.385 76.385,159.568 C78.475,161.658 81.217,162.705 83.958,162.705 C86.699,162.705 89.441,161.659 91.532,159.568 L125.507,125.593 L125.51,125.59 L125.513,125.587 L159.489,91.608 C163.672,87.425 163.672,80.644 159.489,76.461 C155.309,72.281 148.525,72.278 144.342,76.461 L117.941,102.866 L106.821,91.746 C108.614,87.811 109.59,83.517 109.59,79.065 C109.59,70.892 106.408,63.208 100.628,57.428 C94.848,51.648 87.164,48.469 78.991,48.469 C70.818,48.469 63.134,51.651 57.354,57.428 C51.573,63.208 48.391,70.892 48.391,79.065 C48.391,87.238 51.573,94.925 57.354,100.702 C63.131,106.48 70.815,109.663 78.988,109.663 z" fill="#4254D1"/>
  </g>
</svg>
