<?xml version="1.0" encoding="UTF-8"?>
<!DOCTYPE svg PUBLIC "-//W3C//DTD SVG 1.1//EN" "http://www.w3.org/Graphics/SVG/1.1/DTD/svg11.dtd">
<svg version="1.1" xmlns="http://www.w3.org/2000/svg" xmlns:xlink="http://www.w3.org/1999/xlink" x="0" y="0" width="573.722" height="573.723" viewBox="0, 0, 573.722, 573.723">
  <g id="Layer_1">
    <path d="M203.132,80.918 L205.325,80.971 C216.373,81.541 226.259,86.218 234.21,93.791 L253.499,113.079 L253.499,134.308 L253.372,134.289 L253.19,134.368 C252.964,134.526 252.908,134.837 253.065,135.064 C256.69,140.301 260.405,144.801 267.022,152.261 C267.532,152.837 268.043,153.412 268.554,153.987 L268.728,155.727 C268.756,156.003 269.001,156.203 269.276,156.175 C269.551,156.148 269.751,155.903 269.724,155.628 L269.702,155.422 C271.902,155.814 274.029,156.514 276.144,157.217 C278.139,157.912 280.205,158.728 282.795,159.821 C283.327,160.045 283.875,160.278 284.538,160.562 C284.968,160.747 284.796,160.673 285.056,160.784 L285.8,162.461 C286.106,162.752 285.951,162.728 286.193,162.722 C283.609,168.139 284.807,165.554 282.583,170.469 L282.58,170.468 C282.305,170.468 282.081,170.692 282.081,170.968 L282.08,173.484 C282.081,173.76 282.305,173.984 282.581,173.984 C282.986,173.816 282.885,173.955 282.999,173.682 C295.396,177.044 305.783,185.133 314.952,193.824 C315.007,193.861 315.062,193.898 315.117,193.934 C315.117,193.934 315.118,193.934 315.118,193.934 C315.115,196.029 315.069,198.123 315.027,200.217 C314.979,202.608 314.96,203.695 314.946,205.038 C314.884,211.127 315.09,215.599 315.753,219.911 C315.795,220.184 316.05,220.371 316.323,220.329 C316.66,220.124 316.62,220.254 316.658,220.097 C327.284,221.669 336.347,227.83 345.066,233.704 C344.853,233.558 349.553,236.767 350.84,237.634 C352.314,238.621 353.788,239.612 355.293,240.552 C355.238,243.964 355.997,247.306 356.781,250.602 C356.933,251.19 357.098,251.803 357.3,252.537 C357.379,252.822 357.459,253.113 357.569,253.507 C357.704,253.994 357.776,254.252 357.84,254.482 C358.243,255.935 358.506,256.915 358.76,257.933 C359.017,258.279 358.862,258.221 359.133,258.262 L359.058,258.439 C359.059,258.715 359.283,258.939 359.559,258.939 C370.081,258.939 378.496,259.175 397.379,259.88 C399.627,259.964 398.613,259.926 400.423,259.994 L422.25,281.821 C439.387,298.957 439.387,326.84 422.251,343.977 L390.649,375.574 L402.442,387.363 C408.334,384.036 414.999,382.237 421.948,382.237 C432.572,382.237 442.56,386.373 450.076,393.889 C465.584,409.397 465.584,434.633 450.076,450.143 C442.563,457.656 432.572,461.795 421.948,461.795 C411.321,461.795 401.333,457.657 393.817,450.143 C380.935,437.258 378.789,417.68 387.308,402.524 L375.502,390.718 L343.901,422.318 C335.6,430.622 324.562,435.192 312.824,435.192 C301.087,435.192 290.049,430.618 281.747,422.319 L258.509,399.08 C258.323,399.306 258.155,399.54 257.959,399.761 L111.032,566.112 C106.718,570.947 100.635,573.695 94.31,573.695 C88.367,573.695 82.746,571.348 78.477,567.08 L6.958,495.558 C-1.948,486.651 -2.356,472.309 6.035,462.913 L152.958,296.561 C153.436,296.027 153.944,295.525 154.464,295.041 L151.591,292.168 C154.765,288.884 157.337,285.081 159.899,281.319 C159.58,281.793 163.892,275.327 165.049,273.663 C166.399,271.75 165.757,272.64 166.969,270.988 L167.937,271.203 C168.205,271.27 168.477,271.107 168.544,270.84 C168.611,270.572 168.448,270.3 168.18,270.233 C161.249,268.401 154.141,267.442 146.98,267.326 C141.261,248.426 145.273,224.355 149.297,205.431 L149.288,205.379 C150.345,204.352 149.806,204.89 150.902,203.764 C151.22,203.434 152.282,202.318 152.415,202.178 C154.97,199.406 157.817,196.927 161.422,195.674 L161.73,195.802 C162.006,195.802 162.23,195.578 162.23,195.302 L162.23,194.137 C162.413,194.093 162.279,194.14 162.488,193.796 C163.844,185.178 164.746,176.485 164.855,167.757 C165.102,167.655 164.966,167.747 165.13,167.351 C164.968,166.957 165.102,167.046 164.865,166.948 L164.867,166.823 C164.867,166.547 164.643,166.323 164.367,166.323 L164.367,166.323 L164.366,166.323 C164.091,166.323 163.867,166.547 163.867,166.823 L163.866,166.85 L162.521,166.85 C162.245,166.851 162.021,167.074 162.021,167.351 L162.072,167.475 C160.215,168.547 158.398,169.69 156.572,170.815 C151.686,173.907 146.614,176.758 140.897,177.916 C135.302,176.799 135.554,176.726 128.31,176.162 C126.884,176.051 125.45,176.124 124.02,176.105 C115.364,176.57 115.454,176.427 104.697,177.976 C102.763,178.255 100.866,178.747 98.951,179.132 C98.397,175.81 97.43,172.568 96.519,169.33 L172.055,93.79 C180.358,85.489 191.392,80.918 203.133,80.918 L203.132,80.918 z M38.934,458.011 L22.046,477.132 C21.248,478.033 21.291,479.603 22.102,480.414 L93.62,551.934 C94.095,552.406 94.566,552.394 95.013,551.892 L112.738,531.818 L38.934,458.011 z M87.984,402.476 L53.146,441.923 L126.95,515.73 L161.788,476.281 L87.984,402.476 z M135.346,348.853 L102.191,386.392 L175.999,460.197 L209.15,422.656 L135.346,348.853 z M169.677,310.4 C169.436,310.401 169.203,310.528 168.974,310.784 L149.557,332.765 L223.361,406.57 L241.935,385.543 C242.588,384.812 242.652,383.655 242.228,382.811 L169.867,310.449 C169.806,310.432 169.742,310.401 169.678,310.401 L169.677,310.4 z M229.245,160.149 C221.734,160.15 214.671,163.075 209.359,168.387 L168.308,209.433 C157.342,220.401 157.342,238.244 168.309,249.211 L266.822,347.725 C272.138,353.036 279.2,355.962 286.713,355.962 C294.225,355.962 301.288,353.037 306.6,347.726 L347.649,306.678 C358.614,295.71 358.614,277.868 347.65,266.901 L249.135,168.386 C243.821,163.075 236.758,160.15 229.246,160.15 L229.245,160.149 z" fill="#D13A23"/>
    <path d="M78.991,48.469 C87.164,48.469 94.848,51.648 100.628,57.428 C106.408,63.208 109.59,70.892 109.59,79.065 C109.59,83.517 108.614,87.811 106.821,91.746 L117.941,102.866 L144.342,76.461 C148.525,72.278 155.309,72.281 159.489,76.461 C163.672,80.644 163.672,87.425 159.489,91.608 L125.513,125.587 L92.84,158.26 C92.522,157.346 92.801,158.147 91.992,155.861 C91.981,155.83 91.981,155.83 91.969,155.798 C89.604,149.019 87.132,142.245 85.583,135.222 L102.789,118.013 L91.669,106.893 C87.737,108.687 83.44,109.663 78.988,109.663 C70.815,109.663 63.131,106.48 57.354,100.702 C51.573,94.925 48.391,87.238 48.391,79.065 C48.391,70.892 51.573,63.208 57.354,57.428 C63.134,51.651 70.818,48.469 78.991,48.469 z" fill="#4254D1"/>
  </g>
</svg>
