<?xml version="1.0" encoding="UTF-8"?>
<!DOCTYPE svg PUBLIC "-//W3C//DTD SVG 1.1//EN" "http://www.w3.org/Graphics/SVG/1.1/DTD/svg11.dtd">
<svg version="1.1" xmlns="http://www.w3.org/2000/svg" xmlns:xlink="http://www.w3.org/1999/xlink" x="0" y="0" width="600.889" height="600.889" viewBox="0, 0, 600.889, 600.889">
  <g id="Layer_1">
    <path d="M89.534,321.19 L89.534,321.19 L89.534,424.083 L57.212,424.083 L-0,567.521 L7.057,567.521 L284.198,567.521 L290.653,567.521 L246.98,424.083 L186.01,424.083 L185.264,360.032 C256.983,403.485 311.901,412.903 376.342,413.725 L387.74,413.87 L233.086,252.388 L289.715,179.971 C293.942,182.218 299.106,183.566 303.906,183.566 C318.765,183.566 331.322,171.288 331.322,156.762 C331.322,141.978 319.426,129.949 304.804,129.949 C290.097,129.949 278.134,141.978 278.134,156.772 C278.134,161.439 279.377,165.942 281.768,170.016 L214.142,226.349 L42.735,56.089 L42.209,66.818 C38.441,143.117 67.225,221.224 121.329,282.128 C107.416,289.385 89.534,303.394 89.534,321.19 z M182.232,318.368 C182.232,329.749 172.976,339.014 161.586,339.014 C150.197,339.014 140.941,329.748 140.941,318.368 C140.941,306.989 150.197,297.723 161.586,297.723 C172.976,297.723 182.232,306.979 182.232,318.368 z" fill="#DE2772"/>
    <path d="M537.201,116.524 C539.803,117.652 542.777,118.302 545.578,118.302 C555.801,118.302 564.435,109.868 564.435,99.875 C564.435,89.72 556.269,81.448 546.218,81.448 C536.12,81.448 527.898,89.719 527.898,99.875 C527.898,102.533 528.519,105.173 529.685,107.621 L490.212,140.497 L382.357,33.368 L381.83,44.097 C379.611,89.27 398.26,137.474 433.162,177.216 C424.795,182.944 417.566,192.956 417.566,203.341 L417.642,261.519 L391.996,261.519 L355.142,366.707 L361.882,366.707 L533.491,366.707 L539.782,366.707 L510.714,262.207 L471.89,262.13 L471.995,229.053 C515.743,254.671 550.866,260.418 589.536,260.915 L600.888,261.059 L503.761,159.037 L537.201,116.524 z M446.617,199.947 C446.617,193.904 451.531,188.988 457.574,188.988 C463.619,188.988 468.533,193.904 468.533,199.947 C468.533,205.99 463.619,210.905 457.574,210.905 C451.531,210.906 446.617,205.991 446.617,199.947 z" fill="#7373DE"/>
  </g>
</svg>
