<?xml version="1.0" encoding="UTF-8"?>
<!DOCTYPE svg PUBLIC "-//W3C//DTD SVG 1.1//EN" "http://www.w3.org/Graphics/SVG/1.1/DTD/svg11.dtd">
<svg version="1.1" xmlns="http://www.w3.org/2000/svg" xmlns:xlink="http://www.w3.org/1999/xlink" x="0" y="0" width="600.889" height="600.889" viewBox="0, 0, 600.889, 600.889">
  <g id="Layer_1">
    <path d="M304.804,129.949 C319.426,129.949 331.322,141.978 331.322,156.762 C331.322,171.288 318.765,183.566 303.906,183.566 C299.106,183.566 293.942,182.218 289.715,179.971 L233.086,252.388 L387.74,413.87 L376.342,413.725 C311.901,412.903 256.983,403.485 185.264,360.032 L186.01,424.083 L246.98,424.083 L290.653,567.521 L0,567.521 L57.212,424.083 L89.534,424.083 L89.534,321.19 C89.534,303.394 107.416,289.385 121.329,282.128 C94.687,252.315 74.528,217.555 60.133,180.376 C66.858,177.475 72.029,170.296 72.403,162.914 C74.779,163.326 76.942,163 79.254,162.481 L79.564,163.061 C82.115,166.911 80.691,165.024 83.873,168.696 L83.79,169.15 L83.716,169.625 L83.666,169.994 C83.616,170.416 83.616,170.416 83.604,170.529 C83.477,172.856 83.477,172.856 83.493,172.778 C83.493,172.933 83.493,172.933 83.493,173.116 C83.493,173.214 83.495,173.996 83.496,174.321 C83.498,175.885 83.5,177.663 83.5,180 L83.5,182.894 C83.23,184.396 83.037,185.916 83.056,187.444 C83.056,191.695 84.046,195.988 87.158,200.344 C91.512,206.44 98.244,209.5 105,209.5 C111.59,209.449 118.122,207.397 123.221,203.142 C123.91,209.437 124.734,215.716 125.658,221.98 C126.301,226.211 126.927,229.714 127.568,232.532 C127.987,234.377 128.427,236.007 128.953,237.541 C130.205,241.196 131.584,243.99 134.797,247.203 C136.906,249.311 139.328,251.074 142.917,252.356 C145.224,253.092 143.845,252.705 147.087,253.385 C151.486,258.463 157.045,262.346 162.677,265.916 C163.583,266.472 164.487,267.015 165.736,267.757 C166.049,267.943 167.109,268.572 167.196,268.624 C167.76,268.959 168.196,269.218 168.617,269.47 C170.798,270.776 172.45,271.807 174.074,272.889 C177.066,274.871 180.467,276.052 184.04,276.415 C185.173,276.53 186.318,276.401 187.457,276.394 C189.541,280.199 192.948,282.729 196.722,284.671 C205.964,288.993 215.888,286.195 221.859,279.595 C224.291,276.906 225.511,274.456 226.397,271.799 C228.473,265.571 228.881,258.474 228.544,248.178 C228.336,241.815 227.951,236.296 226.916,223.369 C226.912,223.312 226.912,223.312 226.907,223.255 L226.353,216.177 L281.768,170.016 C279.377,165.942 278.134,161.439 278.134,156.772 C278.134,141.978 290.097,129.949 304.804,129.949 L304.804,129.949 z M161.586,297.723 C150.197,297.723 140.941,306.989 140.941,318.368 C140.941,329.748 150.197,339.014 161.586,339.014 C172.976,339.014 182.232,329.749 182.232,318.368 C182.232,306.979 172.976,297.723 161.586,297.723 L161.586,297.723 z" fill="#DE2772"/>
    <path d="M60.363,85.253 C59.617,86.789 60.028,86.128 59.197,87.276 L60.363,85.253 z" fill="#DE2772"/>
    <path d="M61.396,82.799 C60.858,84.261 61.108,83.72 60.746,84.464 L61.396,82.799 z" fill="#DE2772"/>
    <path d="M480.96,262.148 L510.714,262.207 L530.581,333.628 C525.232,333.832 519.892,334.205 514.552,334.569 C509.671,334.908 488.697,336.456 483.744,336.808 C471.715,337.665 461.614,338.315 451.972,338.828 C431.025,339.944 413.983,340.302 400.803,339.762 L398.453,339.652 C398.915,336.026 398.743,337.751 398.995,334.48 C399.219,330.998 399.255,328.203 399.247,321.33 C399.246,317.966 399.233,314.601 399.341,311.238 C402.758,310.386 405.396,309.535 408.157,307.189 C408.48,307.501 408.217,307.248 408.95,307.94 C411.697,310.081 411.697,310.081 416.015,311.942 C421.154,313.229 421.154,313.229 426.743,312.723 C431.814,311.32 431.814,311.32 435.308,309.123 C438.017,306.948 438.017,306.948 439.62,305.077 C440.865,303.416 440.865,303.416 441.626,302.12 C442.711,299.982 442.711,299.982 443.196,298.644 C444.1,295.385 444.1,295.385 444.214,294.369 C444.307,293.596 444.307,293.596 444.343,293.154 C444.374,292.771 444.393,292.431 444.408,292.068 C444.425,291.639 444.438,291.157 444.448,290.568 C444.494,287.448 444.494,284.328 444.499,281.207 C444.837,281.558 444.606,281.321 445.2,281.909 C446.456,283.113 446.456,283.113 450.211,285.436 L451.73,286.135 L456.336,287.464 L463.944,287.397 L473.109,283.276 L478.957,276.327 L481.012,270.605 L481.41,267.643 L481.454,266.152 L481.413,264.948 L481.33,263.964 C481.006,262.368 481.132,262.972 480.96,262.148 z" fill="#7373DE"/>
    <path d="M546.218,81.448 C556.269,81.448 564.435,89.72 564.435,99.875 C564.435,109.868 555.801,118.302 545.578,118.302 C542.777,118.302 539.803,117.652 537.201,116.524 L503.761,159.037 L600.888,261.059 L589.536,260.915 C550.866,260.418 515.743,254.671 471.995,229.053 L471.989,230.874 L471.115,227.42 C471.287,226.483 471.528,225.556 471.63,224.609 C471.981,221.322 471.727,218.023 471.382,214.749 C470.876,209.911 469.681,205.186 468.506,200.479 L468.533,199.947 C468.523,197.849 467.939,195.808 466.764,194.069 C465.272,188.888 466.039,191.437 464.469,186.421 C463.663,183.913 462.99,182.042 461.499,178.039 C461.495,178.029 461.495,178.029 461.492,178.019 L461.254,177.379 C461.862,176.583 461.48,177.094 462.376,175.827 C464.01,172.843 464.01,172.843 464.75,170.615 C465.558,167.134 465.558,167.134 465.655,165.226 C465.673,163.732 465.673,163.732 465.612,162.782 C465.467,161.355 465.467,161.355 465.336,160.597 C464.969,158.876 464.969,158.876 464.82,158.381 C464.704,157.983 464.704,157.983 464.625,157.731 C464.548,157.488 464.468,157.241 464.374,156.96 C464.15,156.287 463.916,155.607 463.304,153.841 C462.766,152.288 462.543,151.64 462.397,151.201 C462.017,150.061 461.713,149.158 461.033,147.138 C459.716,143.23 459.143,141.511 458.462,139.399 C455.848,131.298 452.259,119.695 451.563,117.775 C448.193,109.148 444.729,100.558 441.329,91.943 L490.212,140.497 L529.685,107.621 C528.519,105.173 527.898,102.533 527.898,99.875 C527.898,89.719 536.12,81.448 546.218,81.448 z" fill="#7373DE"/>
  </g>
</svg>
