<?xml version="1.0" encoding="UTF-8"?>
<!DOCTYPE svg PUBLIC "-//W3C//DTD SVG 1.1//EN" "http://www.w3.org/Graphics/SVG/1.1/DTD/svg11.dtd">
<svg version="1.1" xmlns="http://www.w3.org/2000/svg" xmlns:xlink="http://www.w3.org/1999/xlink" x="0" y="0" width="600.889" height="600.889" viewBox="0, 0, 600.889, 600.889">
  <g id="Layer_1">
    <path d="M79.254,162.481 L79.564,163.061 C82.115,166.911 80.691,165.024 83.873,168.696 L83.79,169.15 L83.716,169.625 L83.666,169.993 C83.616,170.416 83.616,170.416 83.604,170.529 C83.477,172.856 83.477,172.856 83.493,172.778 C83.493,172.933 83.493,172.933 83.493,173.116 C83.493,173.214 83.495,173.996 83.496,174.321 C83.498,175.885 83.5,177.663 83.5,180 L83.5,182.894 C83.23,184.396 83.037,185.916 83.056,187.444 C83.056,191.695 84.046,195.988 87.158,200.344 C91.512,206.44 98.244,209.5 105,209.5 C111.59,209.449 118.122,207.397 123.221,203.142 C123.91,209.437 124.734,215.716 125.658,221.98 C126.301,226.211 126.927,229.714 127.568,232.532 C127.987,234.377 128.427,236.007 128.953,237.541 C130.205,241.196 131.584,243.99 134.797,247.203 C136.906,249.311 139.328,251.074 142.917,252.356 C145.224,253.092 143.845,252.705 147.087,253.385 C151.486,258.463 157.045,262.346 162.677,265.916 C163.583,266.472 164.487,267.015 165.736,267.757 C166.049,267.943 167.109,268.572 167.196,268.624 C167.76,268.959 168.196,269.218 168.617,269.47 C170.798,270.776 172.45,271.807 174.074,272.889 C177.066,274.871 180.467,276.052 184.04,276.415 L185.188,276.439 C190.984,291.02 188.327,284.442 193.119,296.186 C196.172,303.598 198.786,309.289 204.754,321.834 L204.757,321.84 C207.657,327.936 208.928,330.631 210.46,333.969 C211.861,337.021 212.982,339.467 215.502,344.971 L215.502,344.972 C218.478,351.471 219.802,354.361 221.463,357.976 C221.916,358.962 222.291,359.815 223.155,361.807 C223.157,361.812 223.157,361.812 223.159,361.817 C225.346,366.863 226.436,369.224 228.161,372.361 C229.62,375.013 230.774,376.63 233.145,379.688 L233.16,379.707 C233.794,380.527 233.473,380.108 234.12,380.964 L234.211,381.121 C234.224,381.145 234.224,381.145 234.238,381.169 C234.355,381.373 234.355,381.373 234.49,381.608 C234.604,381.808 234.701,381.977 234.799,382.144 C235.143,382.734 235.437,383.219 235.797,383.767 C236.2,384.38 236.613,384.965 237.158,385.641 C237.72,386.34 238.333,387.026 239.113,387.771 L239.125,387.782 C220.401,380.107 202.627,370.371 185.264,360.032 L186.01,424.082 L246.98,424.082 L290.653,567.521 L0,567.521 L57.212,424.082 L89.534,424.082 L89.534,321.189 C89.534,303.394 107.416,289.385 121.329,282.128 C94.687,252.315 74.528,217.555 60.133,180.376 C66.858,177.475 72.029,170.296 72.403,162.914 C74.779,163.326 76.942,163 79.254,162.481 z M161.586,297.723 C150.197,297.723 140.941,306.989 140.941,318.368 C140.941,329.748 150.197,339.014 161.586,339.014 C172.976,339.014 182.232,329.749 182.232,318.368 C182.232,306.979 172.976,297.723 161.586,297.723 L161.586,297.723 z" fill="#DE2772"/>
    <path d="M268.211,388.346 C268.924,388.929 268.443,388.554 269.704,389.407 C272.755,391.339 276.347,392.651 280.755,392.752 C285.141,392.619 289.591,391.799 293.149,389.037 L297.021,405.954 C282.325,402.805 267.667,398.966 253.627,393.536 C259.053,394.112 264.238,391.9 268.211,388.346 z" fill="#DE2772"/>
  </g>
</svg>
