<?xml version="1.0" encoding="UTF-8"?>
<!DOCTYPE svg PUBLIC "-//W3C//DTD SVG 1.1//EN" "http://www.w3.org/Graphics/SVG/1.1/DTD/svg11.dtd">
<svg version="1.1" xmlns="http://www.w3.org/2000/svg" xmlns:xlink="http://www.w3.org/1999/xlink" x="0" y="0" width="557.969" height="557.969" viewBox="0, 0, 557.969, 557.969">
  <g id="Layer_1">
    <path d="M186.162,123.419 L123.008,186.573 C112.543,197.038 112.543,214.003 123.008,224.464 L274.576,376.032 C285.04,386.497 302.005,386.497 312.466,376.032 L375.62,312.878 C386.085,302.413 386.085,285.448 375.62,274.987 L224.053,123.419 C213.592,112.954 196.627,112.954 186.162,123.419 z" fill="#1ECBDD"/>
    <path d="M82.889,83.296 C65.973,100.212 87.14,125.328 105.521,117.817 L128.842,141.138 C111.975,152.501 90.751,152.578 105.676,167.503 C122.636,184.464 132.302,166.634 149.262,149.673 C166.222,132.713 184.052,123.047 167.092,106.087 C152.163,91.158 152.09,112.386 140.727,129.253 L117.406,105.932 C124.921,87.548 99.805,66.381 82.889,83.296 z" fill="#1ECBDD"/>
    <path d="M553.926,94.186 C559.119,89.547 559.34,81.799 554.414,76.874 L481.39,3.851 C476.466,-1.073 468.265,-1.306 463.068,3.333 L424.728,37.197 L515.586,128.055 L553.926,94.186 z" fill="#FF8080"/>
    <path d="M353.535,100.073 L444.393,190.931 L500.27,141.579 L409.411,50.722 z" fill="#FF8080"/>
    <path d="M293.163,153.395 C287.97,158.034 287.749,165.782 292.674,170.707 L365.702,243.735 C370.626,248.659 378.827,248.892 384.025,244.253 L429.076,204.461 L338.215,113.604 L293.163,153.395 z" fill="#FF8080"/>
    <path d="M391.969,436.958 C404.279,449.269 424.238,449.269 436.547,436.958 C448.857,424.649 448.857,404.69 436.547,392.38 C428.93,384.763 418.383,381.87 408.529,383.683 L363.731,338.884 L338.471,364.148 L383.27,408.945 C381.459,418.794 384.352,429.337 391.969,436.958 z" fill="#1ECBDD"/>
    <path d="M141.584,500.265 L190.936,444.388 L100.078,353.531 L50.726,409.408 z" fill="#FF8080"/>
    <path d="M153.399,293.16 L113.607,338.211 L204.464,429.068 L244.256,384.017 C248.895,378.824 248.663,370.619 243.738,365.693 L170.71,292.67 C165.786,287.746 158.034,287.966 153.399,293.16 z" fill="#FF8080"/>
    <path d="M3.333,463.062 C-1.306,468.257 -1.073,476.462 3.851,481.386 L76.879,554.413 C81.804,559.339 89.556,559.118 94.191,553.925 L128.055,515.585 L37.197,424.722 L3.333,463.062 z" fill="#FF8080"/>
  </g>
</svg>
