<?xml version="1.0" encoding="UTF-8"?>
<!DOCTYPE svg PUBLIC "-//W3C//DTD SVG 1.1//EN" "http://www.w3.org/Graphics/SVG/1.1/DTD/svg11.dtd">
<svg version="1.1" xmlns="http://www.w3.org/2000/svg" xmlns:xlink="http://www.w3.org/1999/xlink" x="0" y="0" width="557.969" height="557.969" viewBox="0, 0, 557.969, 557.969">
  <g id="Layer_1">
    <path d="M187.519,122.192 L187.642,124.762 C188.484,143.833 187.55,157.147 184.039,167.68 L184.006,167.797 C183.951,167.927 183.978,167.849 183.94,168.035 C183.696,168.912 183.779,168.481 183.677,169.325 C183.507,170.157 183.564,169.722 183.519,170.63 C183.496,170.82 183.495,170.737 183.506,170.879 L183.5,171 C183.56,172.195 183.483,171.722 183.627,172.432 C183.676,173.057 183.623,172.701 183.843,173.492 C183.996,174.24 183.889,173.925 184.112,174.453 C184.261,174.987 184.152,174.675 184.498,175.367 C184.811,176.109 184.638,175.813 184.958,176.287 C185.203,176.777 185.036,176.49 185.517,177.115 C185.957,177.768 185.737,177.518 186.124,177.906 C186.473,178.359 186.247,178.101 186.853,178.634 C187.4,179.181 187.138,178.979 187.597,179.289 C188.028,179.668 187.763,179.466 188.424,179.847 C189.105,180.307 188.784,180.143 189.361,180.387 C189.989,180.749 189.564,180.526 190.68,180.961 L190.796,180.993 C190.927,181.049 190.849,181.022 191.037,181.06 C191.912,181.304 191.482,181.221 192.324,181.323 C193.157,181.493 192.722,181.435 193.632,181.481 C193.82,181.504 193.738,181.505 193.879,181.494 L194,181.5 C201.791,181.455 209.571,181.924 217.303,182.889 C218.778,183.073 220.234,183.388 221.7,183.637 C221.265,186.259 220.739,188.864 220.212,191.469 C219.84,193.29 219.689,194.039 219.492,195.038 C218.144,201.893 217.5,206.79 217.5,212 L217.525,212.5 L217.5,213 C217.5,218.799 222.201,223.5 228,223.5 L279.5,223.5 L279.5,260 L279.55,260.999 L279.5,262 C279.5,267.799 284.201,272.5 290,272.5 L312.992,272.5 C302.239,281.338 292.651,291.456 283.935,302.284 C281.657,304.284 280.65,307.033 280.5,310 C280.5,315.799 285.201,320.5 291,320.5 C307.057,320.5 319.979,320.997 349.01,322.486 C354.407,322.765 359.804,323.035 365.201,323.297 L312.466,376.032 C302.005,386.497 285.04,386.497 274.576,376.032 L123.008,224.464 C112.543,214.003 112.543,197.038 123.008,186.573 L186.162,123.419 L187.519,122.192 z" fill="#1ECBDD"/>
    <path d="M82.889,83.296 C65.973,100.212 87.14,125.328 105.521,117.817 L128.842,141.138 C111.975,152.501 90.751,152.578 105.676,167.503 C122.636,184.464 132.302,166.634 149.262,149.673 C166.222,132.713 184.052,123.047 167.092,106.087 C152.163,91.158 152.09,112.386 140.727,129.253 L117.406,105.932 C124.921,87.548 99.805,66.381 82.889,83.296 z" fill="#1ECBDD"/>
    <path d="M391.969,436.958 C404.279,449.269 424.238,449.269 436.547,436.958 C448.857,424.649 448.857,404.69 436.547,392.38 C428.93,384.763 418.383,381.87 408.529,383.683 L363.731,338.884 L338.471,364.148 L383.27,408.945 C381.459,418.794 384.352,429.337 391.969,436.958 z" fill="#1ECBDD"/>
    <path d="M141.584,500.265 L190.936,444.388 L100.078,353.531 L50.726,409.408 z" fill="#FF8080"/>
    <path d="M153.399,293.16 L113.607,338.211 L204.464,429.068 L244.256,384.017 C248.895,378.824 248.663,370.619 243.738,365.693 L170.71,292.67 C165.786,287.746 158.034,287.966 153.399,293.16 z" fill="#FF8080"/>
    <path d="M3.333,463.062 C-1.306,468.257 -1.073,476.462 3.851,481.386 L76.879,554.413 C81.804,559.339 89.556,559.118 94.191,553.925 L128.055,515.585 L37.197,424.722 L3.333,463.062 z" fill="#FF8080"/>
  </g>
</svg>
