<?xml version="1.0" encoding="UTF-8"?>
<!DOCTYPE svg PUBLIC "-//W3C//DTD SVG 1.1//EN" "http://www.w3.org/Graphics/SVG/1.1/DTD/svg11.dtd">
<svg version="1.1" xmlns="http://www.w3.org/2000/svg" xmlns:xlink="http://www.w3.org/1999/xlink" x="0" y="0" width="557.969" height="557.969" viewBox="0, 0, 557.969, 557.969">
  <g id="Layer_1">
    <path d="M187.519,122.192 L187.641,124.762 C188.484,143.833 187.55,157.147 184.039,167.68 L184.005,167.796 C183.951,167.927 183.978,167.849 183.94,168.035 C183.696,168.912 183.779,168.481 183.677,169.325 C183.507,170.157 183.564,169.722 183.519,170.631 C183.496,170.82 183.495,170.737 183.506,170.879 L183.499,171 C183.56,172.195 183.483,171.722 183.627,172.432 C183.676,173.057 183.623,172.701 183.843,173.492 C183.996,174.24 183.889,173.925 184.112,174.453 C184.261,174.987 184.152,174.675 184.498,175.367 C184.811,176.109 184.638,175.813 184.958,176.287 C185.203,176.777 185.036,176.49 185.517,177.115 C185.957,177.768 185.737,177.518 186.124,177.906 C186.473,178.359 186.247,178.101 186.853,178.634 C187.4,179.181 187.138,178.979 187.597,179.289 C188.028,179.668 187.763,179.466 188.424,179.847 C189.105,180.307 188.784,180.143 189.361,180.387 C189.989,180.749 189.564,180.526 190.68,180.961 L190.795,180.993 C190.927,181.049 190.849,181.022 191.037,181.06 C191.912,181.304 191.482,181.221 192.324,181.323 C193.157,181.493 192.722,181.435 193.632,181.481 C193.82,181.504 193.738,181.505 193.879,181.494 L193.999,181.5 C201.791,181.455 209.571,181.924 217.303,182.889 C218.778,183.073 220.234,183.388 221.7,183.637 C221.265,186.259 220.739,188.864 220.212,191.469 C219.84,193.29 219.689,194.039 219.492,195.038 C218.144,201.893 217.5,206.79 217.5,212 L217.524,212.5 L217.499,213 C217.5,218.799 222.201,223.5 228,223.5 L279.499,223.5 L279.499,260 L279.55,260.999 L279.499,262 C279.5,267.799 284.201,272.5 290,272.5 L312.992,272.5 C302.239,281.338 292.651,291.456 283.935,302.284 C281.657,304.284 280.65,307.033 280.5,310 C280.5,315.799 285.201,320.5 291,320.5 C307.057,320.5 319.979,320.997 349.01,322.486 C354.407,322.765 359.804,323.035 365.201,323.297 L312.465,376.031 C308.876,379.556 304.431,382.141 299.472,383.102 C299.444,368.061 298.712,353.035 297.457,338.049 C297.082,335.642 296.103,333.286 294.294,331.604 C292.429,328.878 289.169,327.66 286,327.5 C281.511,327.5 276.882,326.928 270.238,325.675 C268.885,325.42 267.913,325.229 265.246,324.7 C260.36,323.69 255.448,322.835 250.5,322.191 L250.5,280 L250.467,279.346 C250.471,279.144 250.48,279.231 250.454,279.083 C250.43,278.618 250.456,278.978 250.261,278.019 C250.088,277.066 250.196,277.406 250.047,276.97 C250.016,276.821 250.04,276.906 249.96,276.717 L249.749,276.1 L249.526,275.691 C247.946,271.783 244.044,269.704 240,269.5 L239.326,269.534 L239.174,269.529 L239.078,269.546 C238.714,269.565 238.976,269.544 238.3,269.682 C237.854,269.75 237.405,269.808 236.976,269.952 C236.825,269.983 236.908,269.959 236.73,270.034 C236.443,270.131 236.653,270.06 236.1,270.251 C222.361,275.913 207.665,278.118 192.946,279.163 C192.576,275.229 191.967,271.321 191.382,267.415 C191.312,266.947 191.312,266.947 191.242,266.481 C189.968,258.026 189.5,253.737 189.5,249 C189.5,243.201 184.799,238.5 179,238.5 L178,238.55 L177,238.5 C162.902,238.5 151.775,235.449 126.994,226.167 C125.688,225.678 125.334,225.545 124.714,225.313 L123.353,224.81 L123.007,224.464 C112.543,214.003 112.543,197.038 123.008,186.573 L186.161,123.419 L187.519,122.192 z" fill="#1ECBDD"/>
    <path d="M82.889,83.296 C65.973,100.212 87.14,125.328 105.521,117.817 L128.842,141.138 C111.975,152.501 90.751,152.578 105.676,167.503 C122.636,184.464 132.302,166.634 149.262,149.673 C166.222,132.713 184.052,123.047 167.092,106.087 C152.163,91.158 152.09,112.386 140.727,129.253 L117.406,105.932 C124.921,87.548 99.805,66.381 82.889,83.296 z" fill="#1ECBDD"/>
    <path d="M391.969,436.958 C404.279,449.269 424.238,449.269 436.547,436.958 C448.857,424.649 448.857,404.69 436.547,392.38 C428.93,384.763 418.383,381.87 408.529,383.683 L363.731,338.884 L338.471,364.148 L383.27,408.945 C381.459,418.794 384.352,429.337 391.969,436.958 z" fill="#1ECBDD"/>
  </g>
</svg>
