<?xml version="1.0" encoding="UTF-8"?>
<!DOCTYPE svg PUBLIC "-//W3C//DTD SVG 1.1//EN" "http://www.w3.org/Graphics/SVG/1.1/DTD/svg11.dtd">
<svg version="1.1" xmlns="http://www.w3.org/2000/svg" xmlns:xlink="http://www.w3.org/1999/xlink" x="0" y="0" width="102.4" height="102.4" viewBox="0, 0, 32, 32">
  <g id="Ebene_1">
    <g>
      <path d="M27.507,21.991 L27.479,21.991 L27.479,21.318 L27.255,21.318 L27.255,11.807 C27.255,11.779 27.258,11.751 27.258,11.724 C27.258,9.366 24.981,7.31 21.61,6.228 C19.89,6.228 17.915,6.228 16.002,6.228 C14.089,6.228 12.112,6.228 10.393,6.228 C7.021,7.31 4.743,9.366 4.743,11.724 C4.743,11.752 4.746,11.779 4.747,11.807 L4.747,21.318 L4.522,21.318 L4.522,21.991 L4.494,21.991 L4.176,21.991 L4.176,23.842 L5.024,23.842 L5.024,22.917 L6.561,22.917 L6.561,23.842 L7.41,23.842 L7.41,21.991 L7.003,21.991 L7.003,21.318 L6.779,21.318 L6.779,15.36 C7.683,16.087 8.851,16.699 10.203,17.153 C10.013,17.436 9.908,17.737 9.908,18.049 C9.908,19.276 11.489,20.327 13.731,20.764 C12.705,21.069 12.037,21.565 12.037,22.125 C12.037,22.796 12.993,23.373 14.372,23.643 L9.73,23.643 C9.493,23.643 9.275,23.719 9.096,23.846 C8.766,24.065 8.548,24.44 8.548,24.866 L8.548,29.612 C7.605,30.062 6.96,30.961 6.96,32 C9.958,32 8.45,32 12.856,32 C12.856,30.864 12.085,29.895 10.995,29.499 L10.995,25.837 L16.001,25.837 L21.006,25.837 L21.006,29.499 C19.918,29.895 19.147,30.864 19.147,32 C23.552,32 22.045,32 25.043,32 C25.043,30.961 24.397,30.062 23.454,29.613 L23.454,24.867 C23.454,24.441 23.237,24.068 22.907,23.847 C22.727,23.72 22.51,23.644 22.272,23.644 L17.629,23.644 C19.009,23.374 19.964,22.797 19.964,22.126 C19.964,21.565 19.296,21.069 18.27,20.765 C20.513,20.328 22.094,19.277 22.094,18.05 C22.094,17.738 21.989,17.437 21.799,17.154 C23.151,16.7 24.319,16.087 25.223,15.361 L25.223,21.319 L24.999,21.319 L24.999,21.992 L24.592,21.992 L24.592,23.843 L25.44,23.843 L25.44,22.918 L26.977,22.918 L26.977,23.843 L27.825,23.843 L27.825,21.992 L27.507,21.992 z" fill="#7407B4"/>
      <path d="M21.578,5.514 C21.578,2.469 19.109,0 16.064,0 C16.043,0 16.022,0.003 16.001,0.003 C15.979,0.003 15.959,0 15.938,0 C12.892,0 10.423,2.469 10.423,5.514 C14.049,5.514 14.152,5.514 16.001,5.514 C17.85,5.514 17.951,5.514 21.578,5.514 z M14.077,2.926 C14.077,1.784 15.003,0.858 16.145,0.858 C17.287,0.858 18.212,1.784 18.212,2.926 C18.212,4.069 17.285,4.994 16.145,4.994 C15.004,4.994 14.077,4.068 14.077,2.926 z" fill="#DD0000"/>
      <path d="M17.227,2.926 C17.227,2.329 16.743,1.845 16.145,1.845 C16.102,1.845 16.061,1.848 16.02,1.852 C16.098,1.96 16.146,2.09 16.146,2.233 C16.146,2.592 15.855,2.883 15.496,2.883 C15.339,2.883 15.195,2.824 15.083,2.731 C15.071,2.794 15.064,2.86 15.064,2.926 C15.064,3.524 15.548,4.008 16.146,4.008 C16.742,4.007 17.227,3.524 17.227,2.926 z" fill="#8E5E5E"/>
    </g>
  </g>
</svg>
