<?xml version="1.0" encoding="UTF-8"?>
<!DOCTYPE svg PUBLIC "-//W3C//DTD SVG 1.1//EN" "http://www.w3.org/Graphics/SVG/1.1/DTD/svg11.dtd">
<svg version="1.1" xmlns="http://www.w3.org/2000/svg" xmlns:xlink="http://www.w3.org/1999/xlink" x="0" y="0" width="102.4" height="102.4" viewBox="0, 0, 102.4, 102.4">
  <g id="Ebene_1">
    <path d="M69.152,19.93 C79.939,23.392 87.226,29.971 87.226,37.517 C87.226,37.603 87.216,37.693 87.216,37.782 L87.216,68.217 L87.933,68.217 L87.933,70.371 L88.022,70.371 L88.022,70.374 L89.04,70.374 L89.04,76.298 L86.326,76.298 L86.326,73.338 L81.408,73.338 L81.408,76.298 L78.694,76.298 L78.694,70.374 L79.997,70.374 L79.997,68.221 L80.714,68.221 L80.714,49.155 C77.821,51.478 74.083,53.44 69.757,54.893 C70.365,55.798 70.701,56.762 70.701,57.76 C70.701,61.686 65.642,65.05 58.464,66.448 C61.747,67.421 63.885,69.008 63.885,70.803 C63.885,72.95 60.829,74.797 56.413,75.661 L71.27,75.661 C72.032,75.661 72.726,75.904 73.302,76.31 C74.358,77.018 75.053,78.211 75.053,79.574 L75.053,94.761 C78.07,96.198 80.138,99.075 80.138,102.4 L61.27,102.4 C61.27,98.765 63.738,95.664 67.219,94.397 L67.219,82.678 L35.184,82.678 L35.184,94.397 C38.672,95.664 41.139,98.765 41.139,102.4 L22.272,102.4 C22.272,99.075 24.336,96.198 27.354,94.758 L27.354,79.571 C27.354,78.208 28.051,77.008 29.107,76.307 C29.68,75.901 30.378,75.658 31.136,75.658 L45.99,75.658 C41.578,74.794 38.518,72.947 38.518,70.8 C38.518,69.008 40.656,67.421 43.939,66.445 C36.765,65.046 31.706,61.683 31.706,57.757 C31.706,56.758 32.042,55.795 32.65,54.89 L30.83,54.202 C30.859,54.067 30.854,54.154 30.772,53.947 C30.435,53.431 30.099,52.915 29.762,52.399 C29.535,52.05 29.626,52.19 29.489,51.98 L30.692,51.339 L30.717,51.318 C30.757,51.31 30.729,51.319 30.787,51.261 C30.849,51.209 30.838,51.237 30.85,51.198 L30.873,51.175 C30.957,50.969 30.961,51.056 30.934,50.921 C30.974,50.789 30.962,50.875 30.898,50.662 L30.877,50.636 C30.87,50.602 30.878,50.626 30.83,50.577 C30.791,50.529 30.812,50.542 30.779,50.526 L30.734,50.482 L30.167,50.103 L30.489,49.46 C30.611,49.194 30.485,48.96 30.274,48.796 C30.274,48.794 30.274,48.792 30.274,48.79 C30.231,48.74 30.189,48.689 30.146,48.638 C29.627,48.223 29.627,48.223 29.108,47.808 C28.674,47.46 28.902,47.643 28.422,47.259 L28.71,46.684 L28.879,46.345 C29.165,45.774 29.165,45.774 29.451,45.203 C29.511,44.98 29.523,45.074 29.472,44.92 C29.431,44.511 29.517,44.698 29.147,44.396 C29.258,44.43 27.227,43.811 26.955,43.744 C26.342,43.608 25.725,43.488 25.11,43.361 C25.182,43.119 25.256,42.874 25.329,42.631 C25.423,42.317 25.39,42.425 25.426,42.306 C25.596,42.276 25.505,42.312 25.675,42.151 C25.793,41.961 25.798,41.713 25.635,41.542 C25.589,41.085 25.687,41.282 25.305,40.97 C25.178,40.983 25.051,40.996 24.924,41.009 C24.924,41.009 24.923,41.01 24.922,41.011 C23.714,40.161 24.203,40.498 23.461,39.991 C22.62,39.497 23.197,39.834 21.722,38.995 C21.999,38.786 22.277,38.578 22.554,38.37 C22.874,38.131 23.194,37.891 23.513,37.651 C23.835,37.667 23.695,37.707 23.939,37.562 C24.144,37.377 24.16,37.061 23.975,36.856 C23.548,36.385 23.122,35.914 22.696,35.442 C22.39,35.104 22.523,35.252 22.295,35 L23.155,33.984 C23.333,33.774 23.307,33.458 23.096,33.28 L23.07,33.265 L23.06,33.245 C22.645,32.726 22.645,32.726 22.229,32.207 C21.996,31.915 21.763,31.624 21.53,31.333 C21.996,30.618 21.729,31.028 22.333,30.102 C22.726,29.498 22.544,29.778 22.881,29.262 C22.991,29.07 22.991,28.822 22.823,28.657 C22.833,28.445 22.855,28.553 22.728,28.341 C22.161,27.714 21.599,27.083 21.029,26.459 C24.485,23.304 28.893,21.439 33.258,19.93 L69.152,19.93 z" fill="#8638B4"/>
    <path d="M55.126,9.363 C55.126,7.453 53.578,5.904 51.664,5.904 C51.526,5.904 51.395,5.914 51.264,5.926 C51.514,6.272 51.667,6.688 51.667,7.146 C51.667,8.294 50.736,9.226 49.587,9.226 C49.085,9.226 48.624,9.037 48.266,8.739 C48.227,8.941 48.205,9.152 48.205,9.363 C48.205,11.277 49.754,12.826 51.667,12.826 C53.574,12.822 55.126,11.277 55.126,9.363 z" fill="#8E5E5E"/>
    <path d="M69.05,17.645 C69.05,7.901 61.149,0 51.405,0 C51.338,0 51.27,0.01 51.203,0.01 C51.133,0.01 51.069,0 51.002,0 C41.254,0 33.354,7.901 33.354,17.645 C44.957,17.645 45.286,17.645 51.203,17.645 C57.12,17.645 57.443,17.645 69.05,17.645 z M45.046,9.363 C45.046,5.709 48.013,7.146 51.667,7.146 C55.322,7.146 58.278,5.709 58.278,9.363 C58.278,13.021 55.312,15.981 51.664,15.981 C48.013,15.981 45.046,13.018 45.046,9.363 z" fill="#B40202"/>
  </g>
</svg>
