<?xml version="1.0" encoding="UTF-8"?>
<!DOCTYPE svg PUBLIC "-//W3C//DTD SVG 1.1//EN" "http://www.w3.org/Graphics/SVG/1.1/DTD/svg11.dtd">
<svg version="1.1" xmlns="http://www.w3.org/2000/svg" xmlns:xlink="http://www.w3.org/1999/xlink" x="0" y="0" width="102.4" height="102.4" viewBox="0, 0, 102.4, 102.4">
  <g id="Ebene_1">
    <path d="M69.152,19.93 C79.939,23.392 87.226,29.971 87.226,37.517 C87.226,37.603 87.216,37.693 87.216,37.782 L87.216,59.381 C87.002,59.189 87.149,59.321 86.775,58.986 L86.604,58.885 C86.162,58.909 86.329,58.831 86.069,59.024 C85.95,59.227 85.965,59.129 85.974,59.306 C85.449,60.007 84.918,60.704 84.397,61.408 C83.961,62.019 83.531,62.635 83.1,63.25 L81.495,62.543 L81.112,62.535 L80.836,62.8 L80.835,62.81 L80.713,62.911 L80.713,49.155 C77.821,51.478 74.083,53.44 69.757,54.893 C70.365,55.798 70.701,56.762 70.701,57.76 C70.701,61.686 65.642,65.05 58.464,66.448 C61.747,67.421 63.885,69.008 63.885,70.803 C63.885,72.95 60.829,74.797 56.413,75.661 L61.458,75.661 C60.511,76.393 61.043,75.969 59.876,76.951 C59.667,77.132 59.645,77.447 59.826,77.656 C59.992,77.784 59.917,77.773 60.018,77.78 L60.113,77.876 C60.727,78.133 60.727,78.133 61.34,78.391 C61.782,78.576 61.583,78.493 61.938,78.641 C61.64,79.115 61.784,78.886 61.507,79.326 C61.17,79.861 61.17,79.861 60.833,80.396 C60.686,80.629 60.756,80.938 60.99,81.085 C61.188,81.16 61.111,81.17 61.214,81.147 C62.135,81.386 61.674,81.266 62.597,81.506 L62.75,81.545 C62.614,82.061 62.713,81.683 62.452,82.678 L35.184,82.678 L35.184,94.397 C38.672,95.664 41.139,98.765 41.139,102.4 L22.272,102.4 C22.272,99.075 24.336,96.198 27.354,94.758 L27.353,79.571 C27.354,78.208 28.051,77.008 29.107,76.307 C29.68,75.901 30.378,75.658 31.136,75.658 L45.99,75.658 C41.578,74.794 38.518,72.947 38.518,70.8 C38.518,69.008 40.656,67.421 43.939,66.445 C36.765,65.046 31.706,61.683 31.706,57.757 C31.706,56.758 32.042,55.795 32.65,54.89 L30.83,54.202 C30.859,54.067 30.854,54.154 30.772,53.947 C30.435,53.431 30.099,52.915 29.762,52.399 C29.535,52.05 29.626,52.19 29.489,51.98 L30.692,51.339 L30.717,51.318 C30.758,51.31 30.729,51.319 30.787,51.261 C30.849,51.209 30.838,51.237 30.85,51.198 L30.873,51.175 C30.957,50.969 30.961,51.056 30.934,50.921 C30.974,50.789 30.962,50.875 30.898,50.662 L30.877,50.636 C30.87,50.602 30.878,50.626 30.83,50.578 C30.791,50.529 30.812,50.542 30.779,50.526 L30.734,50.482 L30.167,50.103 L30.489,49.46 C30.611,49.194 30.485,48.96 30.274,48.796 C30.274,48.794 30.274,48.792 30.274,48.79 C30.231,48.74 30.189,48.689 30.146,48.638 C29.627,48.223 29.627,48.223 29.108,47.808 C28.674,47.46 28.902,47.643 28.422,47.259 L28.71,46.684 C28.957,46.19 29.204,45.696 29.451,45.203 C29.511,44.98 29.523,45.074 29.472,44.92 C29.431,44.511 29.517,44.698 29.147,44.396 C29.258,44.43 27.227,43.811 26.955,43.744 C26.342,43.608 25.725,43.488 25.11,43.361 C25.182,43.119 25.256,42.874 25.329,42.631 C25.423,42.317 25.39,42.425 25.426,42.306 C25.596,42.276 25.505,42.312 25.675,42.151 C25.793,41.961 25.798,41.713 25.635,41.542 C25.589,41.085 25.687,41.282 25.305,40.97 C25.178,40.983 25.051,40.996 24.924,41.009 C24.924,41.009 24.923,41.01 24.922,41.011 C23.714,40.161 24.203,40.498 23.461,39.991 C22.62,39.497 23.197,39.834 21.722,38.995 C21.999,38.786 22.277,38.578 22.554,38.37 C22.874,38.131 23.194,37.891 23.513,37.651 C23.835,37.667 23.695,37.707 23.939,37.562 C24.144,37.377 24.16,37.061 23.975,36.856 C23.548,36.385 23.122,35.914 22.696,35.442 C22.39,35.104 22.523,35.252 22.295,35 L23.155,33.984 C23.333,33.774 23.307,33.458 23.096,33.28 L23.07,33.265 L23.06,33.245 C22.645,32.726 22.645,32.726 22.229,32.207 C21.996,31.915 21.763,31.624 21.53,31.333 C21.996,30.618 21.729,31.028 22.333,30.102 C22.726,29.498 22.544,29.778 22.881,29.262 C22.991,29.07 22.991,28.822 22.823,28.657 C22.833,28.445 22.855,28.553 22.728,28.341 C22.161,27.714 21.599,27.083 21.029,26.459 C24.485,23.304 28.893,21.439 33.258,19.93 L69.152,19.93 z" fill="#B056E5"/>
    <path d="M55.126,9.363 C55.126,7.453 53.578,5.904 51.664,5.904 C51.526,5.904 51.395,5.914 51.264,5.926 C51.514,6.272 51.667,6.688 51.667,7.146 C51.667,8.294 50.736,9.226 49.587,9.226 C49.085,9.226 48.624,9.037 48.266,8.739 C48.227,8.941 48.205,9.152 48.205,9.363 C48.205,11.277 49.754,12.826 51.667,12.826 C53.574,12.822 55.126,11.277 55.126,9.363 z" fill="#8E5E5E"/>
    <path d="M51.404,0 C61.149,0 69.05,7.901 69.05,17.645 L33.353,17.645 C33.293,14.546 34.174,12.024 35.563,9.322 C36.947,9.044 35.82,9.278 38.906,8.455 L38.927,8.438 L39.006,8.414 C39.526,8.135 39.526,8.135 40.045,7.855 C40.355,7.688 40.665,7.521 40.975,7.354 C41.939,7.423 41.457,7.388 42.423,7.457 C42.989,7.498 42.726,7.479 43.21,7.514 C43.486,7.533 43.725,7.326 43.745,7.05 L43.718,6.972 C44.037,6.84 43.892,6.956 44.066,6.535 L44.066,4.844 L44.427,3.517 L45.804,3.517 C46.081,3.517 46.304,3.293 46.304,3.017 L46.17,2.693 C46.189,2.433 46.175,2.62 46.209,2.13 C46.215,2.041 46.242,1.621 46.248,1.527 C46.271,1.198 46.287,1.051 46.32,0.902 L46.355,0.786 C49.684,0.035 48.13,0.263 51.002,0 C51.069,0 51.133,0.01 51.203,0.01 L51.404,0 z M47.288,10.497 L46.526,10.505 C45.23,10.729 44.919,11.637 44.845,12.826 C44.845,16.48 48.013,15.981 51.664,15.981 C55.312,15.981 58.117,16.483 58.117,12.826 C58.117,9.171 55.535,10.852 51.881,10.852 C46.836,10.609 56.256,11.091 48.049,10.513 L47.288,10.497 z" fill="#B40202"/>
  </g>
</svg>
