<?xml version="1.0" encoding="UTF-8"?>
<!DOCTYPE svg PUBLIC "-//W3C//DTD SVG 1.1//EN" "http://www.w3.org/Graphics/SVG/1.1/DTD/svg11.dtd">
<svg version="1.1" xmlns="http://www.w3.org/2000/svg" xmlns:xlink="http://www.w3.org/1999/xlink" x="0" y="0" width="589.739" height="589.739" viewBox="0, 0, 589.739, 589.739">
  <g id="Layer_1">
    <g>
      <path d="M563.672,227.201 C558.536,227.201 552.139,227.804 544.126,229.047 C539.545,229.755 536.753,228.913 536.533,228.635 C536.17,228.176 535.988,226.971 536.016,225.661 C549.949,214.09 556.623,201.563 554.892,190.098 C553.764,182.687 548.6,172.455 530.393,165.8 C526.855,164.509 523.298,163.849 519.817,163.849 C493.893,163.849 482.648,198.016 479.435,210.323 C462.519,221.454 442.189,230.576 419.937,237.05 L419.937,184.638 C419.937,119.785 373.511,66.838 315.916,65.269 L304.843,42.233 C303.275,38.982 300.023,36.888 296.418,36.821 C292.698,36.84 289.466,38.705 287.783,41.889 L272.646,70.356 C216.256,74.525 171.312,124.585 171.312,184.637 L171.312,219.378 C120.87,229.591 86.35,254.291 73.01,265.24 C52.413,252.082 29.214,255.152 12.766,272.421 C6.12,279.411 -0.401,290.217 0.019,298.594 C0.392,306.091 4.351,318.675 26.602,318.675 C31.833,318.675 38.278,318.072 46.31,316.829 C50.872,316.112 53.616,317.002 53.73,317.154 C54.074,317.594 54.208,318.828 54.16,320.137 C40.103,331.775 33.362,344.359 35.102,355.844 C36.23,363.226 41.375,373.439 59.524,380.066 C63.062,381.357 66.619,382.016 70.1,382.016 C96.015,382.016 107.222,347.85 110.425,335.542 C127.752,324.134 148.55,314.878 171.319,308.413 L171.319,399.123 C171.319,401.581 172.265,403.942 173.948,405.712 C175.019,406.831 184.476,416.202 209.569,424.254 L209.569,505.105 C209.569,505.181 209.616,505.249 209.616,505.325 C198.868,506.444 190.434,515.432 190.434,526.468 L190.434,531.249 L190.434,531.556 L190.434,536.337 C190.434,545.497 197.854,552.918 207.016,552.918 L211.797,552.918 L279.04,552.918 L283.821,552.918 C287.446,552.918 290.811,551.924 293.804,550.326 C296.367,551.942 299.388,552.918 302.639,552.918 L307.42,552.918 L374.664,552.918 L379.445,552.918 C391.225,552.918 400.807,543.336 400.807,531.556 L400.807,526.478 C400.807,515.443 392.372,506.445 381.634,505.335 C381.634,505.249 381.682,505.182 381.682,505.106 L381.682,424.274 C406.774,416.213 416.222,406.851 417.302,405.733 C418.986,403.954 419.932,401.592 419.932,399.134 L419.932,326.24 C470.068,315.864 503.69,291.594 516.79,280.675 C525.444,286.183 534.289,288.966 543.183,288.975 L543.183,288.975 C555.452,288.975 567.453,283.457 576.967,273.446 C583.613,266.466 590.135,255.66 589.714,247.283 C589.271,238.121 584.384,227.201 563.672,227.201 z M291.15,103.28 C340.608,103.28 387.167,151.953 387.167,189.677 C387.167,223.595 352.732,243.036 292.689,243.036 C232.646,243.036 198.211,223.452 198.211,189.314 C198.202,151.389 241.97,103.28 291.15,103.28 z M283.825,514.668 C285.68,514.668 287.383,515.185 288.941,515.959 C288.664,516.438 288.386,516.915 288.147,517.412 C285.527,515.691 282.41,514.668 279.043,514.668 L283.825,514.668 z M295.625,508.682 C292.823,506.818 289.534,505.689 286.015,505.326 C286.015,505.25 286.063,505.182 286.063,505.106 L286.063,436.247 C291.695,436.343 299.555,436.343 305.188,436.247 L305.188,505.106 C305.188,505.182 305.236,505.25 305.236,505.326 C301.717,505.689 298.427,506.818 295.625,508.682 z M391.25,526.468 L391.25,531.249 C391.25,522.089 383.829,514.668 374.669,514.668 L379.45,514.668 C385.952,514.668 391.25,519.966 391.25,526.468 z" fill="#9D00FF"/>
      <path d="M218.905,197.662 C223.715,197.662 227.616,193.761 227.616,188.951 C227.616,168.65 255.338,132.322 282.61,132.322 C287.42,132.322 291.321,128.421 291.321,123.611 C291.321,118.801 287.42,114.9 282.61,114.9 C246.684,114.9 210.184,157.989 210.184,188.952 C210.184,193.751 214.085,197.662 218.905,197.662 z" fill="#D8CEFF"/>
    </g>
  </g>
</svg>
