<?xml version="1.0" encoding="UTF-8"?>
<!DOCTYPE svg PUBLIC "-//W3C//DTD SVG 1.1//EN" "http://www.w3.org/Graphics/SVG/1.1/DTD/svg11.dtd">
<svg version="1.1" xmlns="http://www.w3.org/2000/svg" xmlns:xlink="http://www.w3.org/1999/xlink" x="0" y="0" width="589.739" height="589.739" viewBox="0, 0, 589.739, 589.739">
  <g id="Layer_1">
    <g>
      <path d="M277.434,426.118 L277.517,426.51 C277.651,427.179 277.818,428.108 278.008,429.23 C278.267,430.766 278.634,433.077 278.666,433.322 C278.817,434.455 278.937,435.368 279.031,436.093 C279.095,436.589 279.137,436.917 279.172,437.196 C279.179,437.248 279.179,437.248 279.183,437.28 L279.186,437.302 C279.186,437.306 279.186,437.306 279.187,437.312 C279.188,437.316 279.188,437.316 279.189,437.328 C279.192,437.341 279.192,437.341 279.195,437.353 L279.456,437.659 C279.94,440.171 279.71,438.938 280.146,441.36 C280.607,443.954 281.217,446.379 282.165,449.586 C282.302,450.051 282.447,450.536 282.625,451.123 C282.726,451.458 283.078,452.616 283.093,452.667 L283.347,453.508 L282.981,453.552 L292.059,521.81 C292.069,521.885 292.03,521.959 292.04,522.034 C295.576,521.93 298.985,522.616 302.009,524.094 C305.124,521.703 303.261,522.936 307.767,520.663 C308.908,522.798 308.479,521.864 309.142,523.423 C310.553,527.184 309.669,529.371 306.17,533.406 C305.998,533.604 305.998,533.604 305.826,533.802 C302.922,537.149 301.828,539.014 301.734,541.871 C301.678,543.545 302.655,544.135 305.172,544.717 C305.404,544.77 305.532,544.8 305.635,544.824 C307.288,545.209 308.072,545.55 308.516,546.205 C309.497,547.651 310.147,550.04 310.566,553.284 C310.745,554.671 310.867,556.046 311.002,557.994 C311.021,558.264 311.08,559.139 311.088,559.256 C311.121,559.726 311.146,560.07 311.171,560.384 C311.433,562.966 310.562,565.099 308.398,566.519 C307.073,566.308 308.005,566.497 305.694,565.615 C302.198,567.849 304.329,566.664 299.119,568.821 L298.974,568.835 C298.337,568.89 297.766,568.933 296.72,569.01 C294.124,569.199 293.161,569.282 291.936,569.445 C291.662,569.482 291.47,569.733 291.506,570.007 L291.565,570.108 L220.005,579.625 C210.923,580.833 202.589,574.455 201.382,565.375 L200.081,555.592 C198.626,544.653 205.801,534.631 216.308,532.105 L216.232,531.893 L205.573,451.748 C199.311,450.527 202.435,451.207 196.201,449.708 C200.93,442.517 204.3,434.084 210.146,427.637 L210.704,427.237 C212.16,427.695 211.585,427.289 212.485,428.371 C213.309,429.543 214.095,431.259 215.377,434.492 C215.522,434.858 216.035,436.162 216.132,436.406 C217.688,440.339 218.647,442.424 219.776,444.011 C221.337,446.205 223.03,446.833 224.781,445.438 C231.485,440.098 234.392,439.715 236.69,441.923 C236.833,442.06 237.364,442.602 237.494,442.726 C238.877,444.051 240.087,443.939 242.025,441.87 C243.156,440.663 243.893,439.298 245.208,436.324 C245.294,436.13 245.294,436.13 245.38,435.935 C247.086,432.076 248.063,430.468 249.708,429.417 C253.356,427.085 256.135,428.409 260.975,433.339 C261.139,433.507 261.921,434.308 262.137,434.527 C262.584,434.982 262.944,435.34 263.289,435.672 C266.384,438.646 268.603,439.574 270.979,438.088 C272.903,436.885 273.755,435.224 274.849,431.583 C274.912,431.372 274.912,431.372 274.975,431.162 C275.522,429.404 276.007,427.388 277.434,426.118 z M292.464,531.496 L291.101,531.583 L286.361,532.214 C289.698,531.77 292.923,532.373 295.747,533.734 C295.918,533.209 296.131,532.7 296.342,532.189 C294.241,531.576 295.52,531.876 292.464,531.496 z" fill="#C767FF"/>
      <path d="M419.937,235.868 L419.937,237.05 L419.971,237.039 C417.931,245.854 418.741,241.936 417.426,248.768 C417.215,249.93 417.566,251.154 418.406,252.76 C418.602,253.135 418.8,253.488 419.129,254.058 C420.666,256.726 421.027,257.67 420.619,258.569 C420.34,259.182 419.83,259.725 418.789,260.603 C418.686,260.69 418.574,260.784 418.356,260.967 C416.044,262.904 415.228,264.104 415.625,266.087 C415.947,267.697 417.801,268.697 422.737,270.579 C422.707,270.568 423.586,270.902 423.829,270.995 C424.24,271.152 424.577,271.283 424.892,271.408 C428.194,272.713 429.517,273.628 429.186,274.345 C428.265,276.341 426.428,277.614 421.828,279.923 C421.592,280.042 421.592,280.042 421.355,280.16 C416.681,282.507 414.709,283.83 413.429,286.024 C411.485,289.356 412.61,291.163 416.678,293.985 C416.819,294.083 416.819,294.083 416.96,294.181 C418.944,295.558 419.769,296.307 420.159,297.282 C420.404,297.895 420.1,299.052 419.181,301.366 C419.134,301.484 419.134,301.484 419.086,301.603 C418.14,303.976 417.869,304.791 417.869,305.662 C418.317,312.505 420.325,319.195 422.357,325.712 L419.932,326.24 L419.932,399.134 C419.932,401.592 418.986,403.954 417.302,405.733 C416.222,406.851 406.774,416.213 381.682,424.274 L381.682,505.106 C381.682,505.182 381.634,505.249 381.634,505.335 C392.372,506.445 400.807,515.443 400.807,526.478 L400.807,531.556 C400.807,543.336 391.225,552.918 379.445,552.918 L302.639,552.918 C299.343,552.673 301.013,552.969 297.641,551.961 C299.912,550.651 300.651,548.38 300.921,545.915 C300.938,545.606 300.958,545.265 300.988,544.798 C300.995,544.681 301.052,543.805 301.069,543.535 C301.193,541.568 301.254,540.172 301.259,538.749 C301.273,535.332 300.926,532.751 300.055,531.011 C299.548,529.996 298.662,529.462 296.84,528.773 C296.74,528.736 296.615,528.689 296.394,528.606 C294.406,527.859 293.834,527.4 293.995,526.432 C294.415,523.91 295.635,522.348 298.791,519.558 C298.988,519.384 298.988,519.384 299.185,519.211 C303.432,515.454 304.767,513.103 303.759,508.733 C303.292,507.039 303.603,508.05 302.735,505.727 L305.236,505.326 L305.188,505.106 L305.188,436.247 C299.275,436.332 293.36,436.351 287.447,436.267 L287.278,435.223 C287.269,435.171 287.074,433.977 287.017,433.632 C286.919,433.028 286.839,432.531 286.765,432.054 C286.253,428.783 285.972,426.333 285.86,423.744 C285.742,421.024 285.648,419.464 285.575,418.85 C285.556,418.693 285.538,418.589 285.513,418.509 C285.497,418.461 285.497,418.461 285.456,418.383 L285.449,418.372 C285.453,416.661 285.452,417.576 285.453,415.625 C285.453,415.363 285.394,413.015 285.339,411.446 C285.299,410.3 285.255,409.348 285.21,408.655 C285.183,408.256 285.156,407.946 285.128,407.729 C285.112,407.601 285.094,407.502 285.073,407.423 C285.054,407.354 285.032,407.295 284.994,407.233 C284.868,407.029 284.62,406.888 284.323,407.036 C282.555,407.92 281.657,409.28 280.167,412.586 C280.077,412.787 280.077,412.787 279.987,412.986 C278.52,416.237 277.559,417.622 275.791,418.426 C273.802,419.33 272.101,418.337 269.682,415.304 C269.39,414.938 269.086,414.542 268.708,414.04 C268.525,413.796 267.856,412.899 267.713,412.709 C263.305,406.836 260.36,404.92 255.839,407.03 C253.822,407.971 252.567,409.528 250.259,413.306 C250.148,413.487 250.148,413.487 250.038,413.669 C248.403,416.344 247.533,417.544 246.372,418.494 C244.588,419.954 244.01,419.931 243.182,418.894 C243.082,418.77 242.627,418.164 242.491,417.993 C240.136,415.039 236.658,415.035 228.927,419.674 C227.601,420.469 226.575,419.926 225.552,417.989 C224.694,416.365 224.032,414.218 223.028,410.196 C222.965,409.942 222.628,408.582 222.532,408.198 C221.667,404.743 221.101,402.896 220.389,401.53 C219.858,400.631 219.329,399.81 218.219,399.597 C216.991,399.868 217.492,399.633 216.663,400.17 C210.288,406.332 204.818,413.488 199.581,420.623 C190.63,416.807 180.934,412.775 173.948,405.712 C172.265,403.942 171.319,401.581 171.319,399.123 L171.319,377.694 C176.575,375.176 180.138,370.566 183.005,365.667 C185.463,361.154 186.973,356.938 189.783,347.657 C190.037,346.817 190.161,346.408 190.292,345.976 C193.074,336.816 194.871,332.01 197.642,327.279 C201.213,321.183 205.803,316.908 212.06,314.332 C220.15,311.001 229.516,310.66 242.659,312.412 C245.461,312.786 248.016,313.182 252.529,313.922 C262.824,315.611 266.411,316.116 271.242,316.383 C277.707,316.74 282.836,316.142 287.066,314.329 C290.804,312.727 291.894,310.102 292.871,303.317 C293.076,301.894 293.133,301.512 293.245,300.839 C294.682,292.184 298.299,288.184 308.908,287.368 C310.318,287.26 311.767,287.183 313.272,287.134 C317.388,287.002 320.716,287.061 328.065,287.312 C339.826,287.716 344.93,287.675 351.228,286.794 C359.554,285.629 366.664,282.98 373.163,278.274 C384.033,270.403 393.25,262.06 409.49,246.106 C410.333,245.278 413.528,242.136 414.275,241.402 C416.136,239.573 417.617,238.124 419.046,236.733 L419.937,235.868 z M379.45,514.668 L374.669,514.668 C383.829,514.668 391.25,522.089 391.25,531.249 L391.25,526.468 C391.25,519.966 385.952,514.668 379.45,514.668 z" fill="#9D00FF"/>
      <path d="M253.286,33.711 C256.752,33.341 260.121,34.944 262.013,37.85 L275.383,58.448 C330.813,53.016 381.662,97.837 389.403,159.577 L395.352,207.021 L394.012,208.68 C392.806,210.177 391.559,211.736 389.99,213.702 C389.362,214.491 386.673,217.866 385.963,218.756 C372.319,235.86 364.497,244.884 355.057,253.642 C349.508,258.79 343.145,262.094 335.444,264.165 C329.58,265.742 324.726,266.389 313.454,267.415 C306.353,268.061 303.139,268.407 299.18,269.032 C297.727,269.262 296.333,269.512 294.979,269.787 C284.424,271.937 281.153,276.577 280.79,285.397 C280.763,286.061 280.754,286.435 280.727,287.822 C280.606,294.075 279.944,296.453 276.953,298.193 C273.26,300.341 268.549,301.494 262.441,301.922 C257.824,302.245 254.34,302.196 244.302,301.828 C239.876,301.666 237.372,301.595 234.627,301.577 C221.656,301.488 212.566,302.963 205.022,307.209 C199.134,310.524 195.103,315.309 192.327,321.725 C190.194,326.653 189.031,331.498 187.444,340.624 C187.37,341.052 187.3,341.456 187.156,342.287 C185.58,351.395 184.645,355.548 182.858,360.058 C180.936,364.735 178.156,369.302 173.851,372.196 L165.715,307.308 C144.648,316.201 125.804,327.514 110.546,340.458 C108.943,352.56 102.272,386.433 77.416,389.55 C74.077,389.969 70.587,389.769 67.039,388.965 C48.84,384.839 42.687,375.735 40.724,368.843 C37.684,358.119 42.647,345.329 54.741,332.559 C54.631,331.307 54.355,330.148 53.973,329.771 C53.845,329.64 51.107,329.122 46.817,330.354 C39.261,332.503 33.152,333.852 28.134,334.481 C6.792,337.157 1.493,325.653 0.24,318.561 C-1.163,310.637 3.802,299.565 9.342,292.112 C23.057,273.694 44.942,267.981 66.268,278.031 C77.757,266.003 107.918,238.337 155.081,222.549 L150.934,189.475 C143.766,132.307 180.899,79.245 234.488,68.495 L245.609,39.574 C246.843,36.341 249.72,34.176 253.286,33.711 L253.286,33.711 z M256.166,97.613 C208.995,103.527 172.757,154.59 177.293,190.693 C181.367,223.192 216.733,237.695 274.324,230.474 C331.914,223.253 362.622,200.605 358.573,168.315 C354.071,132.402 303.604,91.665 256.166,97.613 z" fill="#FF0045"/>
      <path d="M534.042,189.821 L536.207,190.067 C539.342,190.56 542.447,191.688 545.441,193.409 C560.848,202.274 563.978,212.668 563.892,219.826 C563.746,230.897 555.873,241.779 541.605,250.729 C541.385,251.962 541.37,253.125 541.628,253.61 C541.785,253.904 544.174,255.095 548.405,255.076 C555.806,255.039 561.657,255.376 566.282,256.105 C584.934,259.042 587.712,270.046 586.749,278.76 C585.882,286.729 578.402,296.008 571.379,301.656 C561.323,309.76 549.694,313.268 538.645,311.528 C530.637,310.259 523.085,306.376 516.111,299.948 C488.555,316.878 456.992,326.855 425.286,329.02 C424.656,322.65 423.389,316.1 424.212,309.656 C424.313,309.013 424.672,308.293 425.792,306.336 C425.853,306.23 425.853,306.23 425.913,306.124 C427.246,303.788 427.716,302.68 427.511,301.707 C427.251,300.479 426.552,299.566 424.835,297.849 C424.723,297.737 424.723,297.737 424.61,297.624 C421.671,294.687 421.108,293.276 422.935,290.94 C424.256,289.251 426.135,288.328 430.513,286.837 C430.743,286.758 430.743,286.758 430.974,286.68 C435.675,285.078 437.623,284.084 438.914,282.073 C439.824,280.657 438.559,279.397 435.198,277.34 C434.929,277.175 434.643,277.003 434.294,276.795 C434.087,276.672 433.345,276.231 433.371,276.246 C429.632,274.023 428.12,272.823 428.086,271.782 C428.039,270.328 428.761,269.525 430.859,268.195 C431.082,268.054 431.199,267.98 431.306,267.912 C432.487,267.158 433.106,266.653 433.548,265.957 C434.298,264.774 434.092,263.718 432.973,260.618 C432.766,260.044 432.643,259.693 432.527,259.326 C432.068,257.875 431.954,256.853 432.231,256.039 C433.757,251.545 434.491,249.863 436.456,244.85 C455.907,242.135 474.95,236.614 492.93,228.222 C499.682,213.622 508.987,195.269 525.869,190.653 C529.491,189.663 530.295,189.886 534.042,189.821 z" fill="#C767FF"/>
      <path d="M257.215,110.227 C261.361,110.288 264.675,113.586 264.616,117.591 C264.557,121.597 261.147,124.796 257.001,124.734 C233.498,124.388 209.162,154.287 208.912,171.192 C208.853,175.198 205.443,178.397 201.298,178.335 C197.144,178.274 193.83,174.968 193.889,170.972 C194.269,145.188 226.254,109.77 257.215,110.227 z" fill="#D8CEFF"/>
    </g>
    <path d="M282.097,139.382 C286.763,157.837 292.489,176.064 299.311,193.803" fill-opacity="0" stroke="#000000" stroke-width="1" stroke-linecap="round" stroke-linejoin="round"/>
    <path d="M296.535,138.272 C302.132,152.815 306.05,167.927 310.973,182.696" fill-opacity="0" stroke="#000000" stroke-width="1" stroke-linecap="round" stroke-linejoin="round"/>
    <path d="M309.862,134.94 C315.356,150.104 314.654,167.95 323.745,181.586" fill-opacity="0" stroke="#000000" stroke-width="1" stroke-linecap="round" stroke-linejoin="round"/>
    <path d="M275.433,152.154 C291.78,152.588 308.035,150.733 324.3,149.378" fill-opacity="0" stroke="#000000" stroke-width="1" stroke-linecap="round" stroke-linejoin="round"/>
    <path d="M285.984,163.261 C299.408,162.722 312.675,163.154 325.966,164.927" fill-opacity="0" stroke="#000000" stroke-width="1" stroke-linecap="round" stroke-linejoin="round"/>
    <path d="M289.315,177.699 C304.124,177.699 318.932,177.699 333.74,177.699" fill-opacity="0" stroke="#000000" stroke-width="1" stroke-linecap="round" stroke-linejoin="round"/>
    <path d="M224.9,203.798 C225.81,207.822 227.932,211.198 230.453,214.349" fill-opacity="0" stroke="#000000" stroke-width="1" stroke-linecap="round" stroke-linejoin="round"/>
    <path d="M231.563,207.13 C231.567,209.938 233.171,212.011 234.34,214.349" fill-opacity="0" stroke="#000000" stroke-width="1" stroke-linecap="round" stroke-linejoin="round"/>
    <path d="M237.672,199.911 C237.178,206.157 240.944,211.274 242.114,217.125" fill-opacity="0" stroke="#000000" stroke-width="1" stroke-linecap="round" stroke-linejoin="round"/>
    <path d="M231.563,204.909 C237.609,205.014 242.923,202.132 248.778,202.132" fill-opacity="0" stroke="#000000" stroke-width="1" stroke-linecap="round" stroke-linejoin="round"/>
    <path d="M226.566,211.572 C232.866,211.572 229.161,211.672 237.672,211.017" fill-opacity="0" stroke="#000000" stroke-width="1" stroke-linecap="round" stroke-linejoin="round"/>
    <path d="M230.453,203.798 C232.304,202.873 234.155,201.947 236.006,201.022" fill-opacity="0" stroke="#000000" stroke-width="1" stroke-linecap="round" stroke-linejoin="round"/>
  </g>
</svg>
