<?xml version="1.0" encoding="UTF-8"?>
<!DOCTYPE svg PUBLIC "-//W3C//DTD SVG 1.1//EN" "http://www.w3.org/Graphics/SVG/1.1/DTD/svg11.dtd">
<svg version="1.1" xmlns="http://www.w3.org/2000/svg" xmlns:xlink="http://www.w3.org/1999/xlink" x="0" y="0" width="583.288" height="583.288" viewBox="0, 0, 583.288, 583.288">
  <g id="Layer_1">
    <g>
      <path d="M581.333,466.766 C561.471,426.421 535.559,430.905 538.104,478.676 C542.413,494.943 515.03,506.923 504.112,513.076 C483.748,524.543 473.869,516.674 452.592,509.445 C421.228,498.749 385.321,513.999 353.78,515.867 C329.784,517.292 317.324,490.82 310.622,458.755 C312.899,462.526 315.223,466.287 317.71,469.906 C345.991,511.15 404.786,505.451 447.862,495.234 C499.101,483.078 513.184,435.272 503.702,388.004 C499.009,364.66 465.962,296.303 494.805,285.671 C510.254,279.979 529.042,280.481 545.274,282.022 C573.298,268.202 576.289,258.242 545.274,237.182 C517.377,234.532 488.582,237.935 463.545,250.827 C461.571,251.843 459.89,252.993 458.174,254.126 C460.532,241.678 461.829,228.839 461.829,215.673 C461.818,107.449 378.163,19.38 275.352,19.38 C172.547,19.38 88.892,107.449 88.892,215.684 C88.892,302.854 143.167,376.84 217.982,402.39 C213.019,410.75 207.758,418.924 203.216,424.518 C188.911,442.139 185.338,432.237 167.525,426.772 C150.15,421.47 134.724,421.143 116.677,423.502 C89.896,427.005 67.009,425.697 68.888,394.157 C69.84,377.914 74.172,361.566 75.93,345.312 C78.99,317.146 67.236,295.8 45.558,279.271 C2.773,263.513 0.776,279.954 22.922,317.986 C51.904,340.079 8.909,407.853 31.651,439.813 C43.789,456.874 57.598,466.962 78.383,470.583 C107.219,475.616 133.435,457.901 161.174,474.179 C192.229,492.396 218.567,476.702 239.043,451.759 C235.838,480.73 230.361,504.762 220.856,506.023 C169.255,512.855 123.089,515.05 77.403,487.294 C53.593,472.826 19.49,482.682 2.798,503.291 C-6.491,544.99 8.193,543.075 34.513,535.006 C49.623,516.334 76.364,541.768 92.864,546.695 C115.664,553.491 138.276,555.523 162.022,555.686 C189.731,555.884 241.578,559.283 258.878,531.398 C265.528,520.678 270.561,508.697 274.496,495.969 C284.935,532.331 306.923,559.679 353.807,560.706 C377.628,561.243 401.251,553.724 424.687,550.688 C452.712,547.032 474.758,570.901 503.952,561.838 C543.896,549.428 593.828,513.73 581.333,466.766 z M294.725,320.883 C287.351,323.078 278.657,323.989 268.562,323.989 C232.55,323.989 187.471,271.069 187.471,271.069 C187.471,271.069 222.765,226.959 255.986,218.411 C263.348,216.222 272.054,215.299 282.137,215.299 C318.155,215.299 363.241,268.226 363.241,268.226 C363.241,268.226 327.951,312.335 294.725,320.883 z M451.799,364.742 C460.604,394.951 475.048,438.763 435.942,451.994 C417.749,458.159 373.761,463.834 358.243,449.168 C346.227,437.795 337.609,421.026 330.895,403.09 C376.657,388.028 414.806,354.805 437.927,311.542 C440.507,330.189 447.314,349.375 451.799,364.742 z M112.807,215.684 C112.807,120.813 185.725,43.628 275.352,43.628 C364.979,43.628 437.903,120.814 437.903,215.684 C437.903,272.038 412.061,322.004 372.382,353.392 C397.383,326.605 412.866,289.53 412.866,248.555 C412.866,166.827 351.316,100.583 275.363,100.583 C199.415,100.583 137.854,166.827 137.854,248.555 C137.854,289.53 153.343,326.605 178.344,353.392 C138.648,322.004 112.807,272.038 112.807,215.684 z" fill="#08B200"/>
      <path d="M273.32,236.633 C253.977,236.633 238.3,252.321 238.3,271.67 C238.3,291.013 253.976,306.708 273.32,306.708 C292.669,306.708 308.345,291.014 308.345,271.67 C308.346,252.321 292.669,236.633 273.32,236.633 z M273.157,292.152 C262.093,292.152 253.125,283.184 253.125,272.126 C253.125,261.062 262.093,252.094 273.157,252.094 C284.215,252.094 293.183,261.062 293.183,272.126 C293.183,283.184 284.215,292.152 273.157,292.152 z" fill="#FF000E"/>
    </g>
  </g>
</svg>
