<?xml version="1.0" encoding="UTF-8"?>
<!DOCTYPE svg PUBLIC "-//W3C//DTD SVG 1.1//EN" "http://www.w3.org/Graphics/SVG/1.1/DTD/svg11.dtd">
<svg version="1.1" xmlns="http://www.w3.org/2000/svg" xmlns:xlink="http://www.w3.org/1999/xlink" x="0" y="0" width="583.288" height="583.288" viewBox="0, 0, 583.288, 583.288">
  <g id="Layer_1">
    <g>
      <path d="M273.32,236.633 C292.669,236.633 308.346,252.321 308.345,271.67 C308.345,291.014 292.669,306.708 273.32,306.708 C253.976,306.708 238.3,291.013 238.3,271.67 C238.3,252.321 253.977,236.633 273.32,236.633 z M273.157,252.094 C262.093,252.094 253.125,261.062 253.125,272.126 C253.125,283.184 262.093,292.152 273.157,292.152 C284.215,292.152 293.183,283.184 293.183,272.126 C293.183,261.062 284.215,252.094 273.157,252.094 z" fill="#810007"/>
      <path d="M454.491,161.166 C459.588,178.875 461.605,197.297 461.829,215.673 C461.829,228.839 460.532,241.678 458.174,254.126 C459.89,252.993 461.571,251.843 463.545,250.827 C488.582,237.935 517.377,234.532 545.274,237.182 C576.289,258.242 573.298,268.202 545.274,282.022 C529.042,280.481 510.254,279.979 494.805,285.671 C465.962,296.303 499.009,364.66 503.702,388.004 C513.184,435.272 499.101,483.078 447.862,495.234 C404.786,505.451 345.991,511.15 317.71,469.906 C315.223,466.287 312.899,462.526 310.622,458.755 C317.324,490.82 329.784,517.292 353.78,515.867 C385.321,513.999 421.228,498.749 452.592,509.445 C473.869,516.674 483.748,524.543 504.112,513.076 C515.03,506.923 542.413,494.943 538.104,478.676 C535.559,430.905 561.471,426.421 581.333,466.766 C593.828,513.73 543.896,549.428 503.952,561.838 C474.758,570.901 452.712,547.032 424.687,550.688 C401.251,553.724 377.628,561.243 353.807,560.706 C306.923,559.679 284.935,532.331 274.496,495.969 C270.561,508.697 265.528,520.678 258.878,531.398 C241.578,559.283 189.731,555.884 162.022,555.686 C149.192,555.463 156.115,555.696 141.256,554.87 C140.757,539.608 141.189,524.335 141.66,509.079 C168.039,512.253 194.655,509.35 220.856,506.023 C230.361,504.762 235.838,480.73 239.043,451.759 C218.567,476.702 192.229,492.396 161.174,474.179 C155.578,470.665 149.478,469.066 143.092,467.778 C143.551,455.451 143.642,443.117 143.318,430.786 C143.115,425.553 143.248,428.324 142.898,422.475 C151.286,422.552 159.51,424.453 167.525,426.772 C185.338,432.237 188.911,442.139 203.216,424.518 C207.758,418.924 213.019,410.75 217.982,402.39 C146.137,376.606 102.369,317.016 90.748,242.717 C98.517,240.686 106.313,238.755 114.106,236.819 C118.953,282.608 142.834,324.479 178.344,353.392 C153.343,326.605 137.854,289.53 137.854,248.555 C137.765,242.615 138.299,236.703 138.856,230.798 C149.958,228.132 161.072,225.516 172.188,222.907 C174.331,222.405 175.66,222.093 180.056,221.064 C200.094,216.372 209.436,214.172 220.795,211.45 C278.132,197.542 335.746,184.834 393.524,172.903 C406.608,195.9 412.557,222.249 412.866,248.555 C412.866,289.53 397.383,326.605 372.382,353.392 C412.061,322.004 437.903,272.038 437.903,215.684 C437.872,198.765 435.611,181.832 430.829,165.592 C451.944,161.609 444.048,163.033 454.491,161.166 z M437.927,311.542 C414.806,354.805 376.657,388.028 330.895,403.09 C337.609,421.026 346.227,437.795 358.243,449.168 C373.761,463.834 417.749,458.159 435.942,451.994 C475.048,438.763 460.604,394.951 451.799,364.742 C447.314,349.375 440.507,330.189 437.927,311.542 z M291.291,244.309 C281.208,244.309 250.105,250.472 242.743,252.661 C209.522,261.209 187.471,271.069 187.471,271.069 C187.471,271.069 233.843,315.033 269.855,315.033 C279.95,315.033 294.459,310.542 301.833,308.347 C335.059,299.799 363.241,268.226 363.241,268.226 C363.241,268.226 327.309,244.309 291.291,244.309 z" fill="#08B200"/>
      <path d="M67.159,471.543 C76.464,473.915 84.609,478.752 91.3,485.588 C104.296,500.003 120.187,511.173 137.442,519.862 C132.652,534.585 128.086,549.382 124.191,564.368 C112.072,559.917 100.794,553.627 89.793,546.95 C75.29,537.667 56.593,505.848 36.923,519.633 C9.398,520.137 -5.245,517.931 15.176,480.406 C30.685,469.747 49.089,467.656 67.159,471.543 z" fill="#08B200"/>
      <path d="M59.078,254.496 C68.162,256.38 76.113,261.412 83.805,266.373 C101.116,287.432 107.662,310.904 98.226,337.618 C92.788,353.036 84.823,367.955 80.172,383.547 C71.111,413.816 93.088,420.337 119.959,423.068 C125.203,423.493 130.364,424.441 135.519,425.445 C134.369,432.042 134.915,429.128 133.927,434.195 C131.56,446.011 128.556,457.687 125.425,469.321 C123.03,468.863 120.654,468.289 118.24,467.949 C101.655,465.615 87.956,466.552 71.89,460.114 C52.489,451.824 41.361,438.838 33.458,419.449 C18.65,383.126 76.04,327.016 52.895,298.866 C50.034,288.05 45.99,276.826 46.793,265.441 C47.08,261.373 48.311,256.593 52.532,254.923 C55.01,253.943 56.443,254.345 59.078,254.496 z" fill="#08B200"/>
      <path d="M237.01,22.282 C304.139,9.798 368.992,36.778 412.84,87.818 C391.095,96.304 398.993,93.151 389.084,97.12 C351.78,56.12 296.076,36.61 241.49,46.112 C161.951,61.031 107.16,137.795 110.508,217.318 C102.711,220.836 94.927,224.383 87.165,227.979 C78.35,131.929 141.819,41.494 237.01,22.282 z" fill="#08B200"/>
      <path d="M238.88,116.224 C269.421,111.023 300.098,118.025 326.784,133.165 C279.033,151.503 231.703,170.908 184.505,190.615 C173.831,195.086 165.017,198.74 146.069,206.563 C141.893,208.288 140.63,208.809 138.592,209.651 L131.95,212.398 C146.848,163.089 188.082,125.215 238.88,116.224 z" fill="#08B200"/>
    </g>
    <path d="M332.233,349.605 C341.686,336.104 352.542,321.831 365.115,310.829" fill-opacity="0" stroke="#000000" stroke-width="1" stroke-linecap="round" stroke-linejoin="round"/>
    <path d="M341.85,345.883 C353.075,334.299 360.217,318.791 372.56,308.347" fill-opacity="0" stroke="#000000" stroke-width="1" stroke-linecap="round" stroke-linejoin="round"/>
    <path d="M347.434,347.434 C354.984,334.334 366.436,323.893 374.732,311.449" fill-opacity="0" stroke="#000000" stroke-width="1" stroke-linecap="round" stroke-linejoin="round"/>
    <path d="M342.47,323.237 C356.055,322.127 369.753,319.307 383.418,320.445" fill-opacity="0" stroke="#000000" stroke-width="1" stroke-linecap="round" stroke-linejoin="round"/>
    <path d="M341.85,330.372 C351.16,330.379 360.47,329.884 369.769,329.441" fill-opacity="0" stroke="#000000" stroke-width="1" stroke-linecap="round" stroke-linejoin="round"/>
    <path d="M336.266,338.748 C345.503,338.177 354.213,338.801 363.254,340.609" fill-opacity="0" stroke="#000000" stroke-width="1" stroke-linecap="round" stroke-linejoin="round"/>
    <path d="M207.53,437.394 C209.403,429.909 215.578,424.33 219.628,417.851" fill-opacity="0" stroke="#000000" stroke-width="1" stroke-linecap="round" stroke-linejoin="round"/>
    <path d="M213.113,431.19 C218.035,427.043 221.453,422.545 225.832,417.541" fill-opacity="0" stroke="#000000" stroke-width="1" stroke-linecap="round" stroke-linejoin="round"/>
    <path d="M223.04,427.467 C225.884,418.647 235.164,421.774 239.791,415.99" fill-opacity="0" stroke="#000000" stroke-width="1" stroke-linecap="round" stroke-linejoin="round"/>
    <path d="M306.796,504.399 C309.982,501.229 312.493,497.642 314.862,493.852" fill-opacity="0" stroke="#000000" stroke-width="1" stroke-linecap="round" stroke-linejoin="round"/>
    <path d="M304.625,496.954 C306.283,493.913 307.471,490.734 308.658,487.648" fill-opacity="0" stroke="#000000" stroke-width="1" stroke-linecap="round" stroke-linejoin="round"/>
    <path d="M301.833,491.681 C305.258,494.703 307.308,498.597 309.278,502.538" fill-opacity="0" stroke="#000000" stroke-width="1" stroke-linecap="round" stroke-linejoin="round"/>
    <path d="M307.106,487.958 C310.202,490.807 312.384,494.17 314.241,497.885" fill-opacity="0" stroke="#000000" stroke-width="1" stroke-linecap="round" stroke-linejoin="round"/>
  </g>
</svg>
