<?xml version="1.0" encoding="UTF-8"?>
<!DOCTYPE svg PUBLIC "-//W3C//DTD SVG 1.1//EN" "http://www.w3.org/Graphics/SVG/1.1/DTD/svg11.dtd">
<svg version="1.1" xmlns="http://www.w3.org/2000/svg" xmlns:xlink="http://www.w3.org/1999/xlink" x="0" y="0" width="583.288" height="583.288" viewBox="0, 0, 583.288, 583.288">
  <g id="Layer_1">
    <g>
      <path d="M560.844,460.906 C561.962,461.224 563.135,461.389 564.198,461.86 C575.159,466.715 580.245,482.925 583.182,493.36 C586.054,541.873 530.002,566.889 488.385,571.078 C468.61,573.265 453.235,560.848 436.804,552.043 C431.406,549.151 430.813,549.05 425.926,547.147 C441.554,539.609 457.252,532.089 472.149,523.159 C480.632,527.084 489.654,525.956 498.273,523.329 C510.199,519.478 539.422,513.204 538.446,496.404 C540.167,486.026 544.598,463.529 557.517,461.013 C558.606,460.801 559.735,460.942 560.844,460.906 z" fill="#08B200"/>
      <path d="M455.865,250.903 C442.992,280.184 431.273,309.952 419.615,339.732 C396.959,369.224 365.994,391.041 330.895,403.09 C337.609,421.026 346.227,437.795 358.243,449.168 C373.761,463.834 417.749,458.159 435.942,451.994 C437.995,451.292 440.031,450.514 441.94,449.477 C444.32,452.228 446.692,454.986 449.07,457.737 C456.855,466.932 465.096,475.707 473.557,484.274 C465.873,489.767 456.904,492.84 447.862,495.234 C404.786,505.451 345.991,511.15 317.71,469.906 C315.223,466.287 312.899,462.526 310.622,458.755 C317.324,490.82 329.784,517.292 353.78,515.867 C385.321,513.999 421.228,498.749 452.592,509.445 C457.298,511.045 461.925,512.864 466.587,514.587 C452.853,526.623 438.212,537.557 423.591,548.477 C420.886,550.454 422.241,549.458 419.525,551.465 C397.675,555.106 376.085,560.752 353.807,560.706 C306.923,559.679 284.935,532.331 274.496,495.969 C270.561,508.697 265.528,520.678 258.878,531.398 C241.578,559.283 189.731,555.884 162.022,555.686 C149.192,555.462 156.115,555.696 141.256,554.87 C140.757,539.608 141.189,524.335 141.66,509.079 C168.039,512.253 194.655,509.35 220.856,506.023 C230.361,504.762 235.838,480.73 239.043,451.759 C218.567,476.702 192.229,492.396 161.174,474.179 C155.578,470.665 149.478,469.066 143.092,467.778 C143.551,455.451 143.642,443.117 143.318,430.786 C143.115,425.553 143.248,428.324 142.898,422.475 C151.286,422.552 159.51,424.453 167.525,426.772 C185.338,432.237 188.911,442.139 203.216,424.518 C207.758,418.924 213.019,410.75 217.982,402.39 C205.249,397.881 193.038,392.015 181.553,384.921 L181.559,384.918 C185.037,383.246 183.443,384.026 186.345,382.587 C188.198,381.685 187.202,382.177 189.332,381.107 C191.523,380.02 190.076,380.741 193.663,378.931 C195.676,377.909 205.926,372.665 208.74,371.244 C214.333,368.42 218.732,366.28 222.816,364.423 C235.4,358.681 229.941,361.193 239.203,356.913 C247.433,353.141 244.123,354.693 249.16,352.312 C287.134,334.741 324.696,316.3 362.175,297.704 C365.86,295.899 363.5,297.06 369.242,294.196 C383.141,287.29 397.024,280.352 410.906,273.411 C406.593,303.273 392.616,331.188 372.382,353.392 C401.645,330.524 421.22,298.409 431.562,263.069 L443.559,257.061 L443.851,256.915 L455.865,250.903 z" fill="#4AB25D"/>
      <path d="M273.32,236.633 C292.669,236.633 308.346,252.321 308.345,271.67 C308.345,291.014 292.669,306.708 273.32,306.708 C253.976,306.708 238.3,291.013 238.3,271.67 C238.3,252.321 253.977,236.633 273.32,236.633 z M273.157,252.094 C262.093,252.094 253.125,261.062 253.125,272.126 C253.125,283.184 262.093,292.152 273.157,292.152 C284.215,292.152 293.183,283.184 293.183,272.126 C293.183,261.062 284.215,252.094 273.157,252.094 z" fill="#000000"/>
      <path d="M393.524,172.903 C406.608,195.9 412.557,222.249 412.866,248.555 C412.844,252.685 412.761,256.823 412.371,260.937 L372.15,281.019 L369.113,282.531 L327.894,302.932 L327.88,302.939 C340.99,292.779 352.574,280.882 363.241,268.226 C363.241,268.226 328.309,260.421 292.291,260.421 C282.208,260.421 245.662,269.481 238.3,271.67 C205.079,280.218 197.451,283.568 197.451,283.568 C197.451,283.568 232.55,323.989 268.562,323.989 C274.994,323.961 281.466,323.695 287.792,322.453 L282.907,324.789 C269.838,331.031 274.939,328.624 267.629,332.063 L236.49,346.6 L235.067,347.257 L218.471,354.865 C214.234,356.791 209.717,358.988 204.007,361.872 C201.163,363.308 190.901,368.558 188.913,369.566 C177.188,375.417 183.077,372.549 171.244,378.171 L171.24,378.173 C125.62,346.762 99.909,296.296 90.747,242.717 C98.517,240.686 106.313,238.755 114.106,236.819 C118.953,282.608 142.834,324.479 178.344,353.392 C153.343,326.605 137.854,289.53 137.854,248.555 C137.764,242.615 138.299,236.703 138.856,230.798 C149.958,228.132 161.072,225.516 172.188,222.907 C174.331,222.405 175.66,222.093 180.056,221.064 C200.094,216.372 209.436,214.172 220.795,211.45 C278.132,197.542 335.746,184.834 393.524,172.903 z" fill="#08B200"/>
      <path d="M454.491,161.166 C459.588,178.875 461.605,197.297 461.829,215.673 C461.742,222.624 461.566,229.595 460.754,236.505 L456.759,238.651 L456.216,238.936 L452.296,240.948 C447.613,243.29 450.343,241.925 444.106,245.045 C443.331,245.433 443.679,245.259 443.061,245.568 C437.449,248.377 440.127,247.037 435.027,249.591 L434.637,249.786 C436.972,238.565 437.739,227.119 437.903,215.684 C437.872,198.765 435.611,181.832 430.829,165.592 C451.944,161.609 444.048,163.033 454.491,161.166 z" fill="#913129"/>
      <path d="M423.622,548.454 C423.658,548.428 423.55,548.507 423.514,548.534 L423.591,548.477 L423.622,548.454 z" fill="#08B200"/>
      <path d="M549.679,226.611 C561.041,228.43 556.19,227.538 564.262,229.12 C592.445,253.842 588.249,263.357 558.735,273.618 C542.817,270.088 524.234,267.274 508.201,271.019 C478.268,278.015 502.638,349.924 504.418,373.668 C506.152,399.887 501.769,428.374 484.109,448.929 C480.701,452.896 476.247,457.282 471.824,460.1 C464.071,450.607 457.178,440.45 450.333,430.295 C448.55,427.624 446.767,424.952 444.985,422.28 C448.896,418.938 449.952,418.487 452.877,414.177 C458.46,405.948 460.21,395.405 460.257,385.644 C460.323,371.672 458.015,357.931 455.778,344.186 C454,333.127 451.711,322.15 450.29,311.033 C449.698,306.396 449.349,301.731 448.879,297.08 C461.079,274.832 473.421,252.651 486.464,230.881 C507.867,224.08 527.658,224.219 549.679,226.611 z" fill="#08B200"/>
      <path d="M50.219,469.729 C55.933,469.619 61.572,470.459 67.159,471.543 C76.464,473.915 84.609,478.752 91.3,485.588 C104.296,500.003 120.187,511.173 137.442,519.862 C132.652,534.585 128.086,549.382 124.191,564.368 C112.072,559.917 100.794,553.627 89.793,546.95 C76.985,537.714 68.081,523.684 53.236,517.316 L50.37,511.074 C46.588,502.928 42.937,495.323 39.423,488.299 C36.765,483.046 34.136,477.774 31.274,472.628 C37.875,470.392 43.379,470.098 50.219,469.729 z" fill="#08B200"/>
      <path d="M21.509,476.712 C24.517,482.051 27.266,487.531 30.032,492.998 C33.498,499.924 37.105,507.438 40.846,515.496 L41.646,517.237 C38.097,518.758 39.648,517.915 36.923,519.633 C9.398,520.137 -5.245,517.931 15.176,480.406 C19.191,477.814 17.085,479.053 21.509,476.712 z" fill="#954225"/>
      <path d="M37.37,377.51 L37.823,377.541 C52.115,378.703 66.55,379.321 80.668,382.016 L80.172,383.547 C71.111,413.816 93.088,420.337 119.959,423.068 C125.203,423.493 130.364,424.441 135.519,425.445 C134.369,432.042 134.915,429.128 133.927,434.195 C131.56,446.011 128.556,457.687 125.425,469.321 C123.03,468.863 120.654,468.289 118.24,467.949 C101.655,465.615 87.956,466.552 71.89,460.114 C52.489,451.824 41.361,438.839 33.458,419.449 C27.98,405.615 32.725,390.829 37.37,377.51 z" fill="#08B200"/>
      <path d="M17.099,258.059 C19.799,257.022 18.513,257.47 20.947,256.688 C30.072,255.015 39.333,256.683 48.326,258.384 C72.291,271.377 87.192,290.659 88.506,318.96 C89.005,331.329 88.296,343.701 88.518,356.072 C74.458,358.934 60.752,363.312 47.134,367.778 C46.728,347.753 52.882,312.434 31.922,300.123 C25.199,291.179 17.228,282.303 13.686,271.453 C12.42,267.577 11.761,262.684 15.043,259.549 C16.151,258.579 15.485,259.102 17.099,258.059 z" fill="#C3293A"/>
      <path d="M165.34,53.837 C166.733,56.302 168.08,58.793 169.378,61.31 C170.734,63.961 171.853,66.355 172.785,68.632 C174.802,73.47 173.76,71.047 175.913,75.899 C132.139,109.807 109.443,162.508 110.508,217.318 C102.711,220.836 94.927,224.383 87.165,227.979 C81.027,160.979 110.906,93.546 165.34,53.837 z" fill="#08B200"/>
      <path d="M268.239,19.262 C325.547,19.419 375.275,45.369 412.84,87.818 C391.095,96.304 398.993,93.151 389.084,97.12 C351.78,56.12 296.076,36.61 241.49,46.112 C220.98,49.726 201.973,58.326 184.596,69.58 C183.444,66.985 184.156,68.62 182.503,64.656 C181.449,62.08 180.208,59.424 178.724,56.526 C177.236,53.6 175.637,50.732 174.033,47.869 C193.102,35.242 214.732,27.062 237.01,22.282 C244.507,21.023 246.98,20.495 255.815,19.799 C259.947,19.473 264.097,19.441 268.239,19.262 z" fill="#056500"/>
      <path d="M201.804,128.715 C203.64,132.572 205.177,136.559 206.744,140.529 C207.974,143.727 209.161,147.143 210.814,152.151 C211.046,152.851 211.283,153.573 211.594,154.522 C211.624,154.611 212.209,156.398 212.381,156.922 C213.031,158.901 213.511,160.35 213.992,161.784 C215.669,166.607 217.242,171.487 219.308,176.163 L184.505,190.615 C173.831,195.086 165.017,198.74 146.069,206.563 C141.893,208.288 140.63,208.809 138.592,209.651 L131.95,212.398 C142.982,176.634 168.103,145.457 201.804,128.715 z" fill="#056600"/>
      <path d="M256.047,114.559 C281.114,113.926 304.939,121.301 326.784,133.165 C293.989,145.639 261.533,158.966 229.04,172.195 C227.089,167.712 225.517,163.069 223.946,158.442 C222.672,154.632 221.434,150.81 220.168,146.998 C219.008,143.568 217.854,140.135 216.544,136.759 C214.92,132.575 213.236,128.408 211.347,124.335 C220.124,120.414 229.479,118.065 238.88,116.224 C248.391,114.84 242.683,115.531 256.047,114.559 z" fill="#08B200"/>
    </g>
    <path d="M308.795,371.761 C320.381,356.963 329.861,336.449 345.022,324.321" fill-opacity="0" stroke="#000000" stroke-width="1" stroke-linecap="round" stroke-linejoin="round"/>
    <path d="M320.87,373.055 C328.687,356.642 339.445,340.68 352.354,327.771" fill-opacity="0" stroke="#000000" stroke-width="1" stroke-linecap="round" stroke-linejoin="round"/>
    <path d="M332.515,376.505 C336.856,359.667 347.015,341.935 361.411,331.652" fill-opacity="0" stroke="#000000" stroke-width="1" stroke-linecap="round" stroke-linejoin="round"/>
    <path d="M321.302,332.946 C337.57,331.156 349.287,343.279 363.136,348.472" fill-opacity="0" stroke="#000000" stroke-width="1" stroke-linecap="round" stroke-linejoin="round"/>
    <path d="M312.676,346.316 C329.154,341.845 338.391,354.499 350.629,361.842" fill-opacity="0" stroke="#000000" stroke-width="1" stroke-linecap="round" stroke-linejoin="round"/>
    <path d="M310.52,362.273 C322.825,362.994 335.377,369.357 345.453,376.074" fill-opacity="0" stroke="#000000" stroke-width="1" stroke-linecap="round" stroke-linejoin="round"/>
    <path d="M201.163,439.394 C211.345,426.988 221.77,414.781 232.378,402.759" fill-opacity="0" stroke="#000000" stroke-width="1" stroke-linecap="round" stroke-linejoin="round"/>
    <path d="M206.799,442.212 C218.75,430.4 228.933,416.572 241.265,405.361" fill-opacity="0" stroke="#000000" stroke-width="1" stroke-linecap="round" stroke-linejoin="round"/>
    <path d="M212.869,445.03 C224.275,433.743 234.679,421.452 246.685,410.78" fill-opacity="0" stroke="#000000" stroke-width="1" stroke-linecap="round" stroke-linejoin="round"/>
    <path d="M208.75,427.038 C215.279,429.523 219.455,433.337 220.672,439.827" fill-opacity="0" stroke="#000000" stroke-width="1" stroke-linecap="round" stroke-linejoin="round"/>
    <path d="M216.77,417.717 C224.693,420.741 225.477,426.861 224.791,434.408" fill-opacity="0" stroke="#000000" stroke-width="1" stroke-linecap="round" stroke-linejoin="round"/>
    <path d="M226.959,409.046 C232.987,413.452 234.329,418.48 234.329,425.52" fill-opacity="0" stroke="#000000" stroke-width="1" stroke-linecap="round" stroke-linejoin="round"/>
    <path d="M287.213,501.834 C295.36,492.721 298.308,476.366 300.081,463.96" fill-opacity="0" stroke="#000000" stroke-width="1" stroke-linecap="round" stroke-linejoin="round"/>
    <path d="M292.291,502.163 C300.835,491.373 306.702,480.187 306.702,466.359" fill-opacity="0" stroke="#000000" stroke-width="1" stroke-linecap="round" stroke-linejoin="round"/>
    <path d="M434.608,509.594 L434.608,509.594" fill-opacity="0" stroke="#000000" stroke-width="1" stroke-linecap="round" stroke-linejoin="round"/>
    <path d="M295.054,473.518 C300.853,475.921 306.651,478.708 311.929,481.955" fill-opacity="0" stroke="#000000" stroke-width="1" stroke-linecap="round" stroke-linejoin="round"/>
    <path d="M289.685,487.836 C296.104,489.488 302.039,493.052 307.838,496.273" fill-opacity="0" stroke="#000000" stroke-width="1" stroke-linecap="round" stroke-linejoin="round"/>
    <path d="M154.249,247.4 C167.715,239.113 158.832,245.06 179.29,227.367" fill-opacity="0" stroke="#000000" stroke-width="1" stroke-linecap="round" stroke-linejoin="round"/>
    <path d="M157.755,254.411 C174.271,246.207 187.878,233.302 200.824,220.356" fill-opacity="0" stroke="#000000" stroke-width="1" stroke-linecap="round" stroke-linejoin="round"/>
    <path d="M163.264,260.421 C179.597,246.73 198.383,235.678 211.842,218.854" fill-opacity="0" stroke="#000000" stroke-width="1" stroke-linecap="round" stroke-linejoin="round"/>
    <path d="M159.758,237.884 C170.111,246.348 177.866,256.669 181.794,269.435" fill-opacity="0" stroke="#000000" stroke-width="1" stroke-linecap="round" stroke-linejoin="round"/>
    <path d="M175.283,228.369 C186.169,234.255 192.319,244.491 193.312,256.414" fill-opacity="0" stroke="#000000" stroke-width="1" stroke-linecap="round" stroke-linejoin="round"/>
  </g>
</svg>
