<?xml version="1.0" encoding="UTF-8"?>
<!DOCTYPE svg PUBLIC "-//W3C//DTD SVG 1.1//EN" "http://www.w3.org/Graphics/SVG/1.1/DTD/svg11.dtd">
<svg version="1.1" xmlns="http://www.w3.org/2000/svg" xmlns:xlink="http://www.w3.org/1999/xlink" x="0" y="0" width="559.502" height="559.503" viewBox="0, 0, 559.502, 559.503">
  <g id="Layer_1">
    <path d="M279.751,559.503 C320.372,559.503 378.011,495.576 418.405,435.753 C471.126,357.674 502.601,278.086 502.601,222.854 C502.602,99.973 402.632,0 279.751,0 C156.871,0 56.901,99.97 56.901,222.854 C56.901,278.087 88.376,357.674 141.097,435.753 C181.492,495.576 239.13,559.503 279.751,559.503 z M282.025,344.709 C293.58,303.576 326.722,266.795 366.46,251.005 C383.657,244.172 403.309,240.408 421.794,240.408 C432.905,240.408 443.224,241.77 452.465,244.456 C456.369,245.591 459.294,248.841 460.014,252.844 C460.733,256.846 459.123,260.913 455.862,263.337 C444.338,271.902 435.798,282.046 428.174,296.232 C426.556,299.243 424.971,302.306 423.382,305.376 C412.467,326.472 400.093,350.382 373.903,361.307 C363.761,365.538 352.473,367.776 341.261,367.776 C336.328,367.776 331.38,367.35 326.546,366.508 C287.255,359.682 285.235,356.475 283.283,353.375 C281.67,350.811 281.205,347.625 282.025,344.709 z M127.92,296.232 C120.292,282.043 111.754,271.899 100.233,263.337 C96.971,260.914 95.361,256.847 96.081,252.844 C96.801,248.841 99.726,245.592 103.63,244.456 C112.871,241.769 123.19,240.408 134.297,240.408 C152.786,240.408 172.437,244.169 189.634,251.005 C229.368,266.795 262.511,303.576 274.069,344.714 C274.889,347.633 274.421,350.818 272.805,353.383 C270.85,356.48 268.833,359.684 229.543,366.511 C224.714,367.349 219.763,367.778 214.831,367.778 C203.616,367.778 192.328,365.541 182.187,361.309 C155.997,350.384 143.622,326.471 132.707,305.375 C131.124,302.304 129.542,299.243 127.92,296.232 z" fill="#00FF00"/>
  </g>
</svg>
