<?xml version="1.0" encoding="UTF-8"?>
<!DOCTYPE svg PUBLIC "-//W3C//DTD SVG 1.1//EN" "http://www.w3.org/Graphics/SVG/1.1/DTD/svg11.dtd">
<svg version="1.1" xmlns="http://www.w3.org/2000/svg" xmlns:xlink="http://www.w3.org/1999/xlink" x="0" y="0" width="559.502" height="559.503" viewBox="0, 0, 559.502, 559.503">
  <g id="Layer_1">
    <path d="M116.923,70.918 C120.358,71.709 118.069,71.201 123.812,72.336 C134.45,74.332 143.463,75.547 162.089,77.713 C175.819,79.31 180.839,79.924 188.008,80.949 C200.121,82.679 212.849,85.184 226.687,88.488 C242.954,92.373 258.072,96.603 283.813,104.243 C285.027,104.603 286.271,104.972 287.908,105.459 C287.888,105.453 291.085,106.404 291.995,106.674 C295.32,107.662 297.751,108.383 300.141,109.09 C306.754,111.038 303.1,109.966 311.106,112.299 L309.909,113.333 C309.013,114.079 308.019,114.865 306.942,115.68 C304.308,117.676 301.981,119.289 298.839,121.383 C275.62,136.862 253.569,151.263 217.899,174.344 C218.024,174.263 217.074,174.875 216.582,175.194 C215.731,175.745 214.841,176.327 213.898,176.95 C211.267,178.686 208.679,180.44 206.25,182.15 C205.502,182.677 204.778,183.193 204.081,183.697 C201.073,185.873 198.627,187.778 196.838,189.382 C195.712,190.391 194.825,191.297 194.154,192.167 C192.685,194.07 191.929,195.889 192.77,198.412 C193.675,201.126 196.022,202.423 198.447,202.423 C199.005,202.423 199.508,202.36 200.037,202.253 C200.32,202.195 200.511,202.149 200.908,202.046 L201.085,202.002 L209.751,202.002 C210.75,202.002 211.578,202.004 213.223,202.011 C217.362,202.027 219.036,202.024 221.237,201.977 C225.88,201.878 229.966,201.578 234.473,200.952 C251.092,198.643 265.368,195.957 293.044,190.239 C293.769,190.09 294.361,189.967 295.677,189.695 C324.468,183.744 337.364,181.281 353.502,178.947 C356.509,178.513 359.265,178.114 364.1,177.414 C381.652,174.874 388.504,173.884 397.787,172.552 C429.626,168.019 461.466,163.474 493.381,159.502 C499.783,179.996 502.329,201.451 502.601,222.854 C502.601,278.086 471.126,357.674 418.405,435.753 C378.011,495.576 320.372,559.503 279.751,559.503 C239.13,559.503 181.492,495.576 141.097,435.753 C88.376,357.674 56.901,278.087 56.901,222.854 C56.62,166.233 79.09,112.534 116.923,70.918 z M134.297,240.408 C123.19,240.408 112.871,241.769 103.63,244.456 C99.726,245.592 96.801,248.841 96.081,252.844 C95.361,256.847 96.971,260.914 100.233,263.337 C111.754,271.899 120.292,282.043 127.92,296.232 C129.542,299.243 131.124,302.304 132.707,305.375 C143.622,326.471 155.997,350.384 182.187,361.309 C192.328,365.541 203.616,367.778 214.831,367.778 C219.763,367.778 224.714,367.349 229.543,366.511 C268.833,359.684 270.85,356.48 272.805,353.383 C274.421,350.818 274.889,347.633 274.069,344.714 C262.511,303.576 229.368,266.795 189.634,251.005 C172.437,244.169 152.786,240.408 134.297,240.408 z M421.794,240.408 C403.309,240.408 383.657,244.172 366.46,251.005 C326.722,266.795 293.58,303.576 282.025,344.709 C281.205,347.625 281.67,350.811 283.283,353.375 C285.235,356.475 287.255,359.682 326.546,366.508 C331.38,367.35 336.328,367.776 341.261,367.776 C352.473,367.776 363.761,365.538 373.903,361.307 C400.093,350.382 412.467,326.472 423.382,305.376 C424.971,302.306 426.556,299.243 428.174,296.232 C435.798,282.046 444.338,271.902 455.862,263.337 C459.123,260.913 460.733,256.846 460.014,252.844 C459.294,248.841 456.369,245.591 452.465,244.456 C443.224,241.77 432.905,240.408 421.794,240.408 z" fill="#FFE90D"/>
    <path d="M279.751,0 C375.314,0.274 457.418,60.25 490.094,149.329 C458.786,153.293 427.534,157.683 396.296,162.158 C387.007,163.492 380.153,164.482 362.597,167.022 C357.761,167.722 355.006,168.121 352,168.555 C335.583,170.929 322.549,173.419 293.551,179.413 C292.235,179.685 291.644,179.807 290.92,179.956 C263.461,185.629 249.351,188.284 233.029,190.551 C228.951,191.118 225.267,191.388 221.013,191.479 C218.932,191.524 217.314,191.527 213.266,191.511 C211.843,191.505 212.528,191.507 211.211,191.504 C211.593,191.23 211.233,191.488 212.293,190.736 C214.628,189.093 217.133,187.396 219.682,185.712 C220.6,185.107 221.466,184.541 222.293,184.005 C222.77,183.696 223.716,183.086 223.603,183.159 C259.311,160.054 281.395,145.632 304.663,130.12 C307.97,127.915 310.436,126.206 313.283,124.049 C314.481,123.142 315.6,122.258 316.628,121.402 C319.564,118.957 321.688,116.821 322.963,114.797 C325.669,110.503 324.737,105.287 319.193,103.703 C314.347,102.319 309.253,100.833 303.117,99.02 C300.732,98.315 298.306,97.596 294.986,96.609 C294.077,96.339 290.88,95.389 290.899,95.394 C289.261,94.907 288.016,94.538 286.8,94.177 C260.888,86.486 245.627,82.216 229.125,78.275 C214.991,74.9 201.951,72.334 189.493,70.554 C182.2,69.512 177.126,68.891 163.302,67.284 C150.705,65.898 138.159,64.143 125.667,62.014 C166.332,21.688 223.044,0.72 279.751,0 z" fill="#FFE90D"/>
    <path d="M127.532,164.801 C152.659,145.832 178.034,126.13 205.565,110.644" fill-opacity="0" stroke="#000000" stroke-width="1" stroke-linecap="round" stroke-linejoin="round"/>
    <path d="M140.343,178.777 C168.544,161.579 191.843,137.301 219.541,119.379" fill-opacity="0" stroke="#000000" stroke-width="1" stroke-linecap="round" stroke-linejoin="round"/>
    <path d="M160.142,182.271 C184.818,165.882 206.834,145.084 227.111,123.455" fill-opacity="0" stroke="#000000" stroke-width="1" stroke-linecap="round" stroke-linejoin="round"/>
    <path d="M149.078,125.785 C164.833,148.359 172.151,175.232 170.042,202.653" fill-opacity="0" stroke="#000000" stroke-width="1" stroke-linecap="round" stroke-linejoin="round"/>
    <path d="M179.359,120.544 C189.232,142.932 192.037,169.795 182.853,192.753" fill-opacity="0" stroke="#000000" stroke-width="1" stroke-linecap="round" stroke-linejoin="round"/>
    <path d="M196.247,99.579 C203.148,122.153 209.051,153.17 197.994,175.283" fill-opacity="0" stroke="#000000" stroke-width="1" stroke-linecap="round" stroke-linejoin="round"/>
  </g>
</svg>
