<?xml version="1.0" encoding="UTF-8"?>
<!DOCTYPE svg PUBLIC "-//W3C//DTD SVG 1.1//EN" "http://www.w3.org/Graphics/SVG/1.1/DTD/svg11.dtd">
<svg version="1.1" xmlns="http://www.w3.org/2000/svg" xmlns:xlink="http://www.w3.org/1999/xlink" x="0" y="0" width="559.502" height="559.503" viewBox="0, 0, 559.502, 559.503">
  <g id="Layer_1">
    <path d="M234.718,438.375 C353.22,464.122 300.992,452.597 391.447,472.735 C372.038,496.999 351.364,520.974 326.282,539.605 C312.786,549.63 297.03,559.084 279.751,559.503 C237.411,557.383 191.282,502.732 167.332,471.802 C189.496,460.073 212.029,449.048 234.718,438.375 z" fill="#FF2600"/>
    <path d="M116.923,70.918 C120.358,71.709 118.069,71.201 123.813,72.336 C134.45,74.332 143.463,75.547 162.089,77.713 C175.819,79.31 180.839,79.924 188.008,80.949 C200.121,82.679 212.849,85.184 226.687,88.488 C242.954,92.373 258.072,96.603 283.813,104.243 C285.027,104.603 286.271,104.972 287.908,105.459 C287.888,105.453 291.085,106.404 291.995,106.674 C295.32,107.662 297.751,108.383 300.141,109.09 C306.754,111.038 303.1,109.966 311.106,112.299 L309.909,113.333 C309.013,114.079 308.019,114.865 306.942,115.68 C304.308,117.676 301.981,119.289 298.839,121.383 C275.62,136.862 253.569,151.263 217.899,174.344 C218.024,174.263 217.074,174.875 216.582,175.194 C215.731,175.745 214.841,176.327 213.898,176.95 C211.267,178.686 208.679,180.44 206.25,182.15 C205.502,182.677 204.778,183.193 204.081,183.697 C201.073,185.873 198.627,187.778 196.838,189.382 C195.712,190.391 194.825,191.297 194.154,192.167 C192.685,194.07 191.929,195.889 192.77,198.412 C193.675,201.126 196.022,202.423 198.447,202.423 C199.005,202.423 199.508,202.36 200.037,202.253 C200.32,202.195 200.511,202.149 200.908,202.046 L201.085,202.001 L209.751,202.001 C210.75,202.002 211.578,202.004 213.223,202.011 C217.362,202.027 219.036,202.024 221.237,201.977 C225.88,201.878 229.966,201.578 234.473,200.952 C251.092,198.643 265.368,195.957 293.044,190.239 C293.769,190.09 294.361,189.967 295.677,189.695 C324.469,183.744 337.364,181.281 353.502,178.947 C356.509,178.513 359.265,178.114 364.1,177.414 C381.652,174.874 388.504,173.884 397.787,172.552 C429.626,168.019 461.466,163.474 493.381,159.502 C499.783,179.996 502.329,201.451 502.601,222.854 C502.052,262.862 488.818,301.4 473.108,337.754 C462.84,341.046 452.516,344.161 442.189,347.26 C441.059,347.598 440.709,347.703 437.964,348.524 C406.505,357.931 392.189,362.46 374.934,368.826 C324.041,387.602 288.313,401.888 253.545,417.987 C246.831,421.091 240.132,424.225 233.44,427.373 C203.014,420.768 226.2,425.78 163.822,412.612 C159.607,411.734 153.106,410.888 139.832,409.386 C138.67,409.254 137.462,409.118 135.816,408.933 C136.188,408.975 132.618,408.574 131.644,408.465 C128.772,408.143 125.901,407.816 123.031,407.487 C90.649,352.279 58.047,288.328 56.901,222.854 C56.62,166.233 79.09,112.534 116.923,70.918 z M134.297,240.408 C123.19,240.408 112.871,241.769 103.63,244.456 C99.726,245.592 96.801,248.841 96.081,252.844 C95.361,256.847 96.971,260.914 100.233,263.337 C111.754,271.899 120.292,282.043 127.92,296.232 C129.542,299.243 131.124,302.304 132.707,305.375 C143.622,326.471 155.997,350.384 182.187,361.309 C192.328,365.541 203.616,367.778 214.831,367.778 C219.763,367.778 224.714,367.349 229.543,366.511 C268.833,359.684 270.85,356.48 272.805,353.383 C274.421,350.818 274.889,347.633 274.069,344.714 C262.511,303.576 229.368,266.795 189.634,251.005 C172.437,244.169 152.786,240.408 134.297,240.408 z M421.794,240.408 C403.309,240.408 383.657,244.172 366.46,251.005 C326.722,266.795 293.58,303.576 282.025,344.709 C281.205,347.625 281.67,350.811 283.283,353.375 C285.235,356.475 287.255,359.682 326.546,366.508 C331.38,367.35 336.328,367.776 341.261,367.776 C352.473,367.776 363.761,365.538 373.903,361.307 C400.093,350.382 412.467,326.472 423.382,305.376 C424.971,302.306 426.556,299.243 428.174,296.232 C435.798,282.046 444.338,271.902 455.862,263.337 C459.123,260.913 460.733,256.846 460.014,252.844 C459.294,248.841 456.369,245.591 452.465,244.456 C443.224,241.77 432.905,240.408 421.794,240.408 z" fill="#FF0400"/>
    <path d="M279.751,0 C375.314,0.274 457.418,60.25 490.094,149.329 C458.786,153.293 427.534,157.683 396.296,162.158 C387.007,163.492 380.153,164.482 362.597,167.022 C357.761,167.722 355.006,168.121 352,168.555 C335.583,170.929 322.549,173.419 293.551,179.413 C292.235,179.685 291.644,179.807 290.92,179.956 C263.461,185.629 249.351,188.284 233.029,190.551 C228.951,191.118 225.267,191.388 221.013,191.479 C218.932,191.524 217.314,191.527 213.266,191.511 C211.843,191.505 212.528,191.507 211.211,191.504 C211.593,191.23 211.233,191.488 212.293,190.736 C214.628,189.093 217.133,187.396 219.682,185.712 C220.6,185.107 221.466,184.541 222.293,184.005 C222.77,183.696 223.716,183.086 223.603,183.159 C259.311,160.054 281.395,145.632 304.663,130.12 C307.97,127.915 310.436,126.206 313.283,124.049 C314.481,123.142 315.6,122.258 316.628,121.402 C319.564,118.957 321.688,116.821 322.963,114.797 C325.669,110.503 324.737,105.287 319.193,103.703 C314.347,102.319 309.253,100.833 303.117,99.02 C300.732,98.315 298.306,97.596 294.986,96.609 C294.077,96.339 290.88,95.389 290.899,95.394 C289.261,94.907 288.016,94.538 286.8,94.177 C260.888,86.486 245.627,82.216 229.125,78.275 C214.991,74.9 201.951,72.334 189.493,70.554 C182.2,69.512 177.126,68.891 163.302,67.284 C150.705,65.898 138.159,64.143 125.667,62.014 C166.332,21.688 223.044,0.72 279.751,0 z" fill="#FFE90D"/>
    <path d="M88.518,175.192 C114.847,152.092 138.953,127.223 166.586,105.73" fill-opacity="0" stroke="#000000" stroke-width="1" stroke-linecap="round" stroke-linejoin="round"/>
    <path d="M105.73,181.954 C136.654,160.493 161.269,131.673 193.019,111.262" fill-opacity="0" stroke="#000000" stroke-width="1" stroke-linecap="round" stroke-linejoin="round"/>
    <path d="M125.401,191.175 C150.015,166.44 175.59,142.348 204.698,122.942" fill-opacity="0" stroke="#000000" stroke-width="1" stroke-linecap="round" stroke-linejoin="round"/>
    <path d="M110.033,132.163 C133.583,143.615 150.449,164.254 167.201,183.798" fill-opacity="0" stroke="#000000" stroke-width="1" stroke-linecap="round" stroke-linejoin="round"/>
    <path d="M134.007,111.877 C150.371,127.179 166.305,145.123 176.422,165.357" fill-opacity="0" stroke="#000000" stroke-width="1" stroke-linecap="round" stroke-linejoin="round"/>
    <path d="M151.833,91.592 C172.175,108.1 187.272,130.45 190.56,156.751" fill-opacity="0" stroke="#000000" stroke-width="1" stroke-linecap="round" stroke-linejoin="round"/>
    <path d="M424.765,141.383 C425.174,108.607 401.564,76.09 368.211,71.921" fill-opacity="0" stroke="#000000" stroke-width="1" stroke-linecap="round" stroke-linejoin="round"/>
    <path d="M443.821,133.392 C437.305,100.986 419.189,67.838 382.964,64.545" fill-opacity="0" stroke="#000000" stroke-width="1" stroke-linecap="round" stroke-linejoin="round"/>
    <path d="M384.194,114.336 C395.138,95.429 413.7,81.018 413.7,57.783" fill-opacity="0" stroke="#000000" stroke-width="1" stroke-linecap="round" stroke-linejoin="round"/>
    <path d="M407.553,125.401 C422.288,111.575 436.444,96.092 436.444,74.995" fill-opacity="0" stroke="#000000" stroke-width="1" stroke-linecap="round" stroke-linejoin="round"/>
    <path d="M242.267,512.35 C263.083,498.964 261.346,469.045 277.261,453.13" fill-opacity="0" stroke="#000000" stroke-width="1" stroke-linecap="round" stroke-linejoin="round"/>
    <path d="M271.878,501.583 C274.975,486.564 284.943,474.052 289.823,459.411" fill-opacity="0" stroke="#000000" stroke-width="1" stroke-linecap="round" stroke-linejoin="round"/>
    <path d="M259.316,471.973 C276.065,465.877 293.918,480.048 308.666,480.048" fill-opacity="0" stroke="#000000" stroke-width="1" stroke-linecap="round" stroke-linejoin="round"/>
    <path d="M238.678,491.713 C257.578,493.036 280.923,492.658 297.002,503.378" fill-opacity="0" stroke="#000000" stroke-width="1" stroke-linecap="round" stroke-linejoin="round"/>
    <path d="M229.705,519.529 C254.326,501.688 287.296,496.688 312.256,480.048" fill-opacity="0" stroke="#000000" stroke-width="1" stroke-linecap="round" stroke-linejoin="round"/>
    <path d="M227.911,494.405 C256.248,486.669 283.438,476.839 312.256,471.075" fill-opacity="0" stroke="#000000" stroke-width="1" stroke-linecap="round" stroke-linejoin="round"/>
  </g>
</svg>
