<?xml version="1.0" encoding="UTF-8"?>
<!DOCTYPE svg PUBLIC "-//W3C//DTD SVG 1.1//EN" "http://www.w3.org/Graphics/SVG/1.1/DTD/svg11.dtd">
<svg version="1.1" xmlns="http://www.w3.org/2000/svg" xmlns:xlink="http://www.w3.org/1999/xlink" x="0" y="0" width="565" height="565" viewBox="0, 0, 565, 565">
  <g id="Layer_1">
    <g>
      <path d="M54.5,51.8 C24.4,51.8 0,76.3 0,106.3 C0,136.3 24.5,160.8 54.5,160.8 C75.4,160.8 94.2,149 103.3,130.5 C126.6,134.7 137.1,155.7 141.5,169.5 C125,196.3 116.3,226.5 116.3,257 L116.3,257 L116.3,463.4 L116.3,463.9 L116.4,464.5 C116.4,464.5 117.2,467.6 117.2,468.9 C117.2,494.4 137.9,512.9 166.4,512.9 C179.7,512.9 192.1,507.099 201.4,496.9 C210.6,507.2 223.8,513.2 237.9,513.2 C253.6,513.2 273.4,511.2 282.6,496.7 C291.1,510.8 309.4,513 325.6,513 C341,513 355.301,505.6 364.5,493.4 C373.6,505.2 387.699,512.2 402.699,512.2 C428.599,512.2 442.801,496.599 442.801,468.4 C442.801,466.599 442,464.2 441.301,462.5 L441.301,257.1 C441.301,216 432.301,183.6 413.699,158.1 C422,142.4 439.099,133.4 461.199,133.3 C470.801,149.9 490,160.9 509.801,160.9 C540.199,160.9 565,136.4 565,106.4 C565,76.4 540.801,51.9 511.1,51.9 C487.7,51.9 467,66.9 459.5,88.8 C429.5,90 404.1,102.9 387.301,125.7 C358,102.7 321.5,90 284.1,90 C243.3,90 204.3,104.8 173.6,131.9 C158.4,106.3 133.8,89.9 105,86.5 C97,65.6 77,51.8 54.5,51.8 z M334.301,388.8 L242.6,388.8 C236.2,388.8 231.1,383.6 231.1,377.3 L231.1,371.7 C231.1,365.3 236.3,360.2 242.6,360.2 L334.301,360.2 C340.699,360.2 345.801,365.4 345.801,371.7 L345.801,377.3 C345.801,383.6 340.6,388.8 334.301,388.8 z M359.5,322.1 C333.699,322.1 312.801,301.201 312.801,275.401 C312.801,249.601 333.699,228.701 359.5,228.701 C385.301,228.701 406.199,249.601 406.199,275.401 C406.1,301.2 385.199,322.1 359.5,322.1 z M280.4,234.1 C254.6,234.1 233.7,213.2 233.7,187.4 C233.7,161.6 254.6,140.7 280.4,140.7 C306.199,140.7 327.1,161.6 327.1,187.4 C327.1,213.2 306.199,234.1 280.4,234.1 z M210.2,228.8 C236,228.8 256.9,249.7 256.9,275.5 C256.9,301.3 236,322.2 210.2,322.2 C184.4,322.2 163.5,301.3 163.5,275.5 C163.5,249.7 184.4,228.8 210.2,228.8 z" fill="#371EFF"/>
      <path d="M308.4,186.9 C308.4,202.364 295.864,214.9 280.4,214.9 C264.936,214.9 252.4,202.364 252.4,186.9 C252.4,171.436 264.936,158.9 280.4,158.9 C295.864,158.9 308.4,171.436 308.4,186.9 z" fill="#FF369A"/>
      <path d="M238.2,274.9 C238.2,290.364 225.664,302.9 210.2,302.9 C194.736,302.9 182.2,290.364 182.2,274.9 C182.2,259.436 194.736,246.9 210.2,246.9 C225.664,246.9 238.2,259.436 238.2,274.9 z" fill="#FF6468"/>
      <path d="M387.5,274.9 C387.5,290.364 374.964,302.9 359.5,302.9 C344.036,302.9 331.5,290.364 331.5,274.9 C331.5,259.436 344.036,246.9 359.5,246.9 C374.964,246.9 387.5,259.436 387.5,274.9 z" fill="#FF6468"/>
    </g>
  </g>
</svg>
