<?xml version="1.0" encoding="UTF-8"?>
<!DOCTYPE svg PUBLIC "-//W3C//DTD SVG 1.1//EN" "http://www.w3.org/Graphics/SVG/1.1/DTD/svg11.dtd">
<svg version="1.1" xmlns="http://www.w3.org/2000/svg" xmlns:xlink="http://www.w3.org/1999/xlink" x="0" y="0" width="565" height="565" viewBox="0, 0, 565, 565">
  <g id="Layer_1">
    <g>
      <path d="M37.778,76.49 C59.192,69.585 82.462,76.582 96.49,94.018 C121.819,88.963 147.04,95.392 167.93,110.129 C163.173,122.222 157.936,134.113 152.309,145.823 C148.959,152.489 150.165,150.283 148.918,152.56 C138.348,141.063 123.928,134.718 108.375,136.417 C105.392,156.817 91.12,173.817 71.229,180.231 C42.676,189.437 11.84,173.638 2.633,145.086 C-6.574,116.534 9.13,85.728 37.778,76.49 z" fill="#371EFF"/>
      <path d="M280.4,158.9 C295.864,158.9 308.4,171.436 308.4,186.9 C308.4,202.364 295.864,214.9 280.4,214.9 C264.936,214.9 252.4,202.364 252.4,186.9 C252.4,171.436 264.936,158.9 280.4,158.9 z" fill="#FF369A"/>
      <path d="M238.2,274.9 C238.2,290.364 225.664,302.9 210.2,302.9 C194.736,302.9 182.2,290.364 182.2,274.9 C182.2,259.436 194.736,246.9 210.2,246.9 C225.664,246.9 238.2,259.436 238.2,274.9 z" fill="#FF6468"/>
      <path d="M387.5,274.9 C387.5,290.364 374.964,302.9 359.5,302.9 C344.036,302.9 331.5,290.364 331.5,274.9 C331.5,259.436 344.036,246.9 359.5,246.9 C374.964,246.9 387.5,259.436 387.5,274.9 z" fill="#FF6468"/>
      <path d="M511.1,51.9 C540.801,51.9 565,76.4 565,106.4 C565,136.4 540.199,160.9 509.801,160.9 C490,160.9 470.801,149.9 461.199,133.3 C439.099,133.4 422,142.4 413.699,158.1 C432.301,183.6 441.301,216 441.301,257.1 L441.301,462.5 C442,464.2 442.801,466.599 442.801,468.4 C442.801,496.599 428.599,512.2 402.699,512.2 C387.699,512.2 373.6,505.2 364.5,493.4 C355.301,505.6 341,513 325.6,513 C309.4,513 291.1,510.8 282.6,496.7 C273.4,511.2 253.6,513.2 237.9,513.2 C223.8,513.2 210.6,507.2 201.4,496.9 C192.1,507.099 179.7,512.9 166.4,512.9 C137.9,512.9 117.2,494.4 117.2,468.9 C117.2,467.6 116.4,464.5 116.4,464.5 L116.3,463.9 L116.3,257 C116.3,226.5 125,196.3 141.5,169.5 L141.228,168.693 C146.25,163.945 143.369,166.74 149.789,160.22 C159.74,149.99 168.943,139.078 178.078,128.126 C208.377,102.961 244.807,90.89 284.1,90 C321.5,90 358,102.7 387.301,125.7 C404.1,102.9 429.5,90 459.5,88.8 C467,66.9 487.7,51.9 511.1,51.9 z M334.301,360.2 L242.6,360.2 C236.3,360.2 231.1,365.3 231.1,371.7 L231.1,377.3 C231.1,383.6 253.1,430.5 259.5,430.5 L334.301,388.8 C340.6,388.8 345.801,383.6 345.801,377.3 L345.801,371.7 C345.801,365.4 340.699,360.2 334.301,360.2 z M210.2,228.8 C184.4,228.8 163.5,249.7 163.5,275.5 C163.5,301.3 184.4,322.2 210.2,322.2 C236,322.2 256.9,301.3 256.9,275.5 C256.9,249.7 236,228.8 210.2,228.8 z M359.5,228.701 C333.699,228.701 312.801,249.601 312.801,275.401 C312.801,301.201 333.699,322.1 359.5,322.1 C385.199,322.1 406.1,301.2 406.199,275.401 C406.199,249.601 385.301,228.701 359.5,228.701 z M279.128,169.74 C253.328,169.74 233.7,161.6 233.7,187.4 C233.7,213.2 254.6,234.1 280.4,234.1 C306.199,234.1 327.1,213.2 327.1,187.4 C327.1,161.6 304.927,169.74 279.128,169.74 z" fill="#5F76FF"/>
    </g>
  </g>
</svg>
