<?xml version="1.0" encoding="UTF-8"?>
<!DOCTYPE svg PUBLIC "-//W3C//DTD SVG 1.1//EN" "http://www.w3.org/Graphics/SVG/1.1/DTD/svg11.dtd">
<svg version="1.1" xmlns="http://www.w3.org/2000/svg" xmlns:xlink="http://www.w3.org/1999/xlink" x="0" y="0" width="565" height="565" viewBox="0, 0, 565, 565">
  <g id="Layer_1">
    <g>
      <path d="M441.301,384.156 L441.301,462.5 C442,464.2 442.801,466.599 442.801,468.4 C442.801,496.599 428.599,512.2 402.699,512.2 C387.699,512.2 373.6,505.2 364.5,493.4 C355.301,505.6 341,513 325.6,513 C310.052,512.913 293.711,511.44 283.568,498.174 C287.312,495.206 291.091,492.281 294.864,489.35 C297.383,487.397 309.689,477.919 311.12,476.775 C352.788,443.583 396.194,412.513 441.301,384.156 z" fill="#5F76FF"/>
      <path d="M280.4,158.9 C295.864,158.9 308.4,171.436 308.4,186.9 C308.4,202.364 295.864,214.9 280.4,214.9 C264.936,214.9 252.4,202.364 252.4,186.9 C252.4,171.436 264.936,158.9 280.4,158.9 z" fill="#000000"/>
      <path d="M210.2,246.9 C225.664,246.9 238.2,259.436 238.2,274.9 C238.2,290.364 225.664,302.9 210.2,302.9 C194.736,302.9 182.2,290.364 182.2,274.9 C182.2,259.436 194.736,246.9 210.2,246.9 z" fill="#FF0000"/>
      <path d="M359.5,246.9 C374.964,246.9 387.5,259.436 387.5,274.9 C387.5,290.364 374.964,302.9 359.5,302.9 C344.036,302.9 331.5,290.364 331.5,274.9 C331.5,259.436 344.036,246.9 359.5,246.9 z" fill="#FF0042"/>
      <path d="M511.1,51.9 C540.801,51.9 565,76.4 565,106.4 C565,136.4 540.199,160.9 509.801,160.9 C490,160.9 470.801,149.9 461.199,133.3 C439.099,133.4 422,142.4 413.699,158.1 C432.301,183.6 441.301,216 441.301,257.1 L441.301,344.029 C388.644,376.203 338.216,411.891 289.88,450.225 C288.736,451.141 276.85,460.296 274.035,462.477 C263.921,470.317 254.833,477.492 246.153,484.552 C243.764,486.496 241.446,488.399 239.2,490.261 C231.947,496.304 224.722,502.395 217.824,508.845 C211.456,506.228 206.079,501.868 201.4,496.9 C192.1,507.099 179.7,512.9 166.4,512.9 C137.9,512.9 117.2,494.4 117.2,468.9 C117.2,467.6 116.4,464.5 116.4,464.5 L116.3,463.9 L116.3,257 C116.211,245.497 117.624,234.171 120.032,222.945 L120.041,222.939 C128.135,218.554 136.068,213.878 143.9,209.042 C145.903,207.846 144.965,208.43 146.722,207.299 C149.536,205.589 152.285,203.779 155.026,201.956 C155.591,201.593 155.272,201.802 155.979,201.323 C158.823,199.432 157.393,200.401 160.269,198.413 C209.797,163.638 239.638,138.819 264.456,109.955 C268.515,105.024 267.153,106.771 268.671,104.817 C269.695,103.569 268.873,104.578 271.067,101.733 C276.322,94.969 274.501,97.458 276.716,94.406 C278.403,92.218 277.356,93.611 279.786,90.175 L284.1,90 C321.5,90 358,102.7 387.301,125.7 C404.1,102.9 429.5,90 459.5,88.8 C467,66.9 487.7,51.9 511.1,51.9 L511.1,51.9 z M334.301,360.2 L242.6,360.2 C236.3,360.2 231.1,365.3 231.1,371.7 L231.1,377.3 C231.1,383.6 253.1,430.5 259.5,430.5 L334.301,388.8 C340.6,388.8 345.801,383.6 345.801,377.3 L345.801,371.7 C345.801,365.4 340.699,360.2 334.301,360.2 z M207.882,265.08 C182.082,265.08 163.5,249.7 163.5,275.5 C163.5,301.3 184.4,322.2 210.2,322.2 C236,322.2 256.9,301.3 256.9,275.5 C256.9,249.7 235.301,264.675 209.501,264.675 z M359.5,228.701 C333.699,228.701 312.801,249.601 312.801,275.401 C312.801,301.201 333.699,322.1 359.5,322.1 C385.199,322.1 406.1,301.2 406.199,275.401 C406.199,249.601 385.301,228.701 359.5,228.701 z M284.886,175.172 C259.086,175.172 233.7,161.6 233.7,187.4 C233.7,213.2 254.6,234.1 280.4,234.1 C306.199,234.1 327.1,213.2 327.1,187.4 C327.1,161.6 306.816,175.326 281.017,175.326 z" fill="#9C6EFF"/>
    </g>
    <g>
      <path d="M357.357,245.692 L362.984,245.692 L362.984,304.122 L357.357,304.122 z" fill="#000000"/>
      <path d="M357.357,245.692 L362.984,245.692 L362.984,304.122 L357.357,304.122 z" fill-opacity="0" stroke="#000000" stroke-width="1"/>
    </g>
    <g>
      <path d="M331.172,272.022 L389.169,272.022 L389.169,277.792 L331.172,277.792 z" fill="#000000"/>
      <path d="M331.172,272.022 L389.169,272.022 L389.169,277.792 L331.172,277.792 z" fill-opacity="0" stroke="#000000" stroke-width="1"/>
    </g>
    <path d="M357.357,212.223 L394.297,181.29" fill-opacity="0" stroke="#000000" stroke-width="1"/>
    <path d="M362.984,218.88 L409.176,186.38" fill-opacity="0" stroke="#000000" stroke-width="1"/>
    <path d="M374.719,223.578 L422.489,196.952" fill-opacity="0" stroke="#000000" stroke-width="1"/>
    <path d="M355.141,190.688 L398.604,223.578" fill-opacity="0" stroke="#000000" stroke-width="1"/>
    <path d="M370.02,178.549 L406.826,212.223" fill-opacity="0" stroke="#000000" stroke-width="1"/>
  </g>
</svg>
