<?xml version="1.0" encoding="UTF-8"?>
<!DOCTYPE svg PUBLIC "-//W3C//DTD SVG 1.1//EN" "http://www.w3.org/Graphics/SVG/1.1/DTD/svg11.dtd">
<svg version="1.1" xmlns="http://www.w3.org/2000/svg" xmlns:xlink="http://www.w3.org/1999/xlink" x="0" y="0" width="209.115" height="209.114" viewBox="0, 0, 209.115, 209.114">
  <g id="Layer_1">
    <g>
      <path d="M56.654,155.214 C47.359,148.529 35.231,148.529 27.929,155.835 C26.019,157.747 26.019,160.836 27.929,162.735 C29.837,164.643 32.922,164.643 34.828,162.735 C39.264,158.296 42.923,163.925 48.632,169.636 C54.34,175.346 59.975,178.997 55.53,183.442 C53.623,185.345 53.623,188.443 55.53,190.342 C57.431,192.25 60.521,192.25 62.431,190.342 C69.576,183.197 69.732,171.407 63.459,162.19 C71.159,156.528 80.559,155.558 85.442,160.435 C87.339,162.346 94.25,155.43 92.343,153.535 C83.682,144.866 68.422,145.892 56.654,155.214 z" fill="#FF4E5C"/>
      <path d="M173.899,179.932 C172.236,165.565 162.798,154.464 151.17,153.667 L151.17,132.359 C151.17,125.202 145.311,119.342 138.149,119.342 L99.121,119.342 C91.962,119.342 86.105,125.201 86.105,132.359 L86.105,171.403 C86.105,178.556 91.962,184.416 99.121,184.416 L138.149,184.416 C145.31,184.416 151.17,178.557 151.17,171.403 L151.17,163.44 C157.501,164.306 162.807,171.207 164.153,180.051 C153.209,182.131 144.99,190.578 144.99,200.681 C144.99,203.374 147.158,205.567 149.867,205.567 C152.564,205.567 154.74,203.382 154.74,200.681 C154.74,194.406 161.32,195.8 169.383,195.8 C177.462,195.8 184.027,194.405 184.027,200.681 C184.027,203.374 186.212,205.567 188.912,205.567 C191.601,205.567 193.794,203.382 193.794,200.681 C193.784,190.371 185.2,181.778 173.899,179.932 z M103.234,169.981 C100.425,169.981 98.154,167.701 98.154,164.903 C98.154,162.098 100.43,159.822 103.234,159.822 C106.035,159.822 108.314,162.098 108.314,164.903 C108.314,167.701 106.043,169.981 103.234,169.981 z M118.632,169.981 C115.839,169.981 113.555,167.701 113.555,164.903 C113.555,162.098 115.839,159.822 118.632,159.822 C121.445,159.822 123.714,162.098 123.714,164.903 C123.714,167.701 121.446,169.981 118.632,169.981 z M134.034,169.981 C131.236,169.981 128.969,167.701 128.969,164.903 C128.969,162.098 131.237,159.822 134.034,159.822 C136.839,159.822 139.111,162.098 139.111,164.903 C139.123,167.701 136.838,169.981 134.034,169.981 z" fill="#FF4E5C"/>
      <path d="M118.632,114.69 C136.196,114.69 151.021,103.037 155.837,87.041 L81.442,87.041 C86.245,103.037 101.076,114.69 118.632,114.69 z" fill="#2136FF"/>
      <path d="M104.557,60.511 C107.085,60.511 109.142,62.563 109.142,65.096 C109.142,67.626 107.085,69.68 104.557,69.68 C102.022,69.68 99.973,67.626 99.973,65.096 C99.973,62.563 102.023,60.511 104.557,60.511 z" fill="#54585D"/>
      <path d="M133.544,60.71 C136.072,60.71 138.12,62.758 138.12,65.287 C138.12,67.813 136.072,69.863 133.544,69.863 C131.011,69.863 128.968,67.813 128.968,65.287 C128.968,62.758 131.011,60.71 133.544,60.71 z" fill="#54585D"/>
      <path d="M76.424,16.246 L93.46,45.746 C81.377,53.863 73.427,67.649 73.427,83.296 L163.832,83.296 C163.832,67.649 155.882,53.863 143.799,45.746 L150.139,34.786 L147.594,33.219 L141.246,44.193 C134.594,40.328 126.895,38.086 118.632,38.086 C110.381,38.086 102.675,40.328 96.021,44.193 L79.015,14.755 C82.045,12.186 82.918,7.75 80.859,4.185 C78.552,0.184 73.419,-1.193 69.414,1.127 C65.413,3.441 64.036,8.559 66.352,12.572 C68.41,16.126 72.688,17.586 76.424,16.246 z M133.544,51.533 C138.609,51.533 142.713,55.631 142.713,60.702 C142.713,65.765 138.609,69.863 133.544,69.863 C128.475,69.863 124.387,65.759 124.387,60.702 C124.387,55.639 128.491,51.533 133.544,51.533 z M112.898,60.703 C112.898,65.766 108.791,69.864 103.737,69.864 C98.672,69.864 94.568,65.76 94.568,60.703 C94.568,55.631 98.672,51.534 103.737,51.534 C108.783,51.533 112.898,55.639 112.898,60.703 z" fill="#2136FF"/>
      <path d="M149.067,35.891 L164.084,27.225 C166.652,30.26 171.085,31.13 174.651,29.076 C178.667,26.76 180.033,21.632 177.733,17.629 C175.417,13.627 170.295,12.251 166.28,14.559 C162.721,16.617 161.251,20.894 162.596,24.632 L147.588,33.3 L149.067,35.891 z" fill="#8080FF"/>
    </g>
  </g>
</svg>
