<?xml version="1.0" encoding="UTF-8"?>
<!DOCTYPE svg PUBLIC "-//W3C//DTD SVG 1.1//EN" "http://www.w3.org/Graphics/SVG/1.1/DTD/svg11.dtd">
<svg version="1.1" xmlns="http://www.w3.org/2000/svg" xmlns:xlink="http://www.w3.org/1999/xlink" x="0" y="0" width="209.115" height="209.114" viewBox="0, 0, 209.115, 209.114">
  <g id="Layer_1">
    <g>
      <path d="M45.859,172.555 C36.564,165.87 24.436,165.87 17.134,173.176 C15.224,175.088 15.224,178.177 17.134,180.076 C19.042,181.984 22.127,181.984 24.033,180.076 C28.469,175.637 32.128,181.266 37.837,186.977 C43.545,192.687 49.18,196.338 44.735,200.783 C42.828,202.686 42.828,205.784 44.735,207.683 C46.636,209.591 49.726,209.591 51.636,207.683 C58.781,200.538 58.937,188.748 52.664,179.531 C60.364,173.869 69.764,172.899 74.647,177.776 C76.544,179.687 83.455,172.771 81.548,170.876 C72.887,162.207 57.627,163.233 45.859,172.555 z" fill="#FF4E5C"/>
      <path d="M173.899,179.932 C172.236,165.565 162.798,154.464 151.17,153.667 L151.17,132.359 C151.17,125.202 145.311,119.342 138.149,119.342 L99.121,119.342 C91.962,119.342 86.105,125.201 86.105,132.359 L86.105,171.403 C86.105,178.556 91.962,184.416 99.121,184.416 L138.149,184.416 C145.31,184.416 151.17,178.557 151.17,171.403 L151.17,163.44 C157.501,164.306 162.807,171.207 164.153,180.051 C153.209,182.131 144.99,190.578 144.99,200.681 C144.99,203.374 147.158,205.567 149.867,205.567 C152.564,205.567 154.74,203.382 154.74,200.681 C154.74,194.406 161.32,195.8 169.383,195.8 C177.462,195.8 184.027,194.405 184.027,200.681 C184.027,203.374 186.212,205.567 188.912,205.567 C191.601,205.567 193.794,203.382 193.794,200.681 C193.784,190.371 185.2,181.778 173.899,179.932 z M103.234,169.981 C100.425,169.981 98.154,167.701 98.154,164.903 C98.154,162.098 100.43,159.822 103.234,159.822 C106.035,159.822 108.314,162.098 108.314,164.903 C108.314,167.701 106.043,169.981 103.234,169.981 z M118.632,169.981 C115.839,169.981 113.555,167.701 113.555,164.903 C113.555,162.098 115.839,159.822 118.632,159.822 C121.445,159.822 123.714,162.098 123.714,164.903 C123.714,167.701 121.446,169.981 118.632,169.981 z M134.034,169.981 C131.236,169.981 128.969,167.701 128.969,164.903 C128.969,162.098 131.237,159.822 134.034,159.822 C136.839,159.822 139.111,162.098 139.111,164.903 C139.123,167.701 136.838,169.981 134.034,169.981 z" fill="#FF4E5C"/>
      <path d="M118.632,114.69 C136.196,114.69 151.021,103.037 155.837,87.041 L81.442,87.041 C86.245,103.037 101.076,114.69 118.632,114.69 z" fill="#2136FF"/>
      <path d="M104.557,51.675 C107.085,51.675 109.142,53.727 109.142,56.26 C109.142,58.79 107.085,60.844 104.557,60.844 C102.022,60.844 99.973,58.79 99.973,56.26 C99.973,53.727 102.023,51.675 104.557,51.675 z" fill="#54585D"/>
      <path d="M133.544,60.71 C136.072,60.71 138.12,62.758 138.12,65.287 C138.12,67.813 136.072,69.863 133.544,69.863 C131.011,69.863 128.968,67.813 128.968,65.287 C128.968,62.758 131.011,60.71 133.544,60.71 z" fill="#54585D"/>
      <path d="M76.424,16.246 L93.46,45.746 C81.377,53.863 73.427,67.649 73.427,83.296 L163.832,83.296 C163.832,67.649 155.882,53.863 143.799,45.746 L150.139,34.786 L147.594,33.219 L141.246,44.193 C134.594,40.328 126.895,38.086 118.632,38.086 C110.381,38.086 102.675,40.328 96.021,44.193 L79.015,14.755 C82.045,12.186 82.918,7.75 80.859,4.185 C78.552,0.184 73.419,-1.193 69.414,1.127 C65.413,3.441 64.036,8.559 66.352,12.572 C68.41,16.126 72.688,17.586 76.424,16.246 z M133.544,51.533 C138.609,51.533 142.713,55.631 142.713,60.702 C142.713,65.765 138.609,69.863 133.544,69.863 C128.475,69.863 124.387,65.759 124.387,60.702 C124.387,55.639 128.491,51.533 133.544,51.533 z M112.898,60.703 C112.898,65.766 108.791,69.864 103.737,69.864 C98.672,69.864 94.568,65.76 94.568,60.703 C94.568,55.631 98.672,51.534 103.737,51.534 C108.783,51.533 112.898,55.639 112.898,60.703 z" fill="#2136FF"/>
      <path d="M155.181,34.372 L171.012,27.301 C173.253,30.584 177.573,31.907 181.332,30.231 C185.565,28.342 187.453,23.382 185.578,19.163 C183.687,14.944 178.734,13.047 174.502,14.929 C170.75,16.609 168.847,20.711 169.799,24.568 L153.977,31.642 L155.181,34.372 z" fill="#8080FF"/>
    </g>
  </g>
</svg>
