<?xml version="1.0" encoding="UTF-8"?>
<!DOCTYPE svg PUBLIC "-//W3C//DTD SVG 1.1//EN" "http://www.w3.org/Graphics/SVG/1.1/DTD/svg11.dtd">
<svg version="1.1" xmlns="http://www.w3.org/2000/svg" xmlns:xlink="http://www.w3.org/1999/xlink" x="0" y="0" width="209.115" height="209.114" viewBox="0, 0, 209.115, 209.114">
  <g id="Layer_1">
    <g>
      <path d="M69.273,90.09 C59.978,83.405 47.85,83.405 40.548,90.711 C38.638,92.623 38.638,95.712 40.548,97.611 C42.456,99.519 45.541,99.519 47.447,97.611 C51.883,93.172 55.542,98.801 61.251,104.512 C66.959,110.222 72.594,113.873 68.149,118.318 C66.242,120.221 66.242,123.319 68.149,125.218 C70.05,127.126 73.14,127.126 75.05,125.218 C82.195,118.073 82.351,106.283 76.078,97.066 C83.778,91.404 93.178,90.434 98.061,95.311 C99.958,97.222 106.869,90.306 104.962,88.411 C96.301,79.742 81.041,80.768 69.273,90.09 z" fill="#FF4E5C"/>
      <path d="M173.899,179.932 C172.236,165.565 162.798,154.464 151.17,153.667 L151.17,132.359 C151.17,125.202 145.311,119.342 138.149,119.342 L99.121,119.342 C91.962,119.342 86.105,125.201 86.105,132.359 L86.105,171.403 C86.105,178.556 91.962,184.416 99.121,184.416 L138.149,184.416 C145.31,184.416 151.17,178.557 151.17,171.403 L151.17,163.44 C157.501,164.306 162.807,171.207 164.153,180.051 C153.209,182.131 144.99,190.578 144.99,200.681 C144.99,203.374 147.158,205.567 149.867,205.567 C152.564,205.567 154.74,203.382 154.74,200.681 C154.74,194.406 161.32,195.8 169.383,195.8 C177.462,195.8 184.027,194.405 184.027,200.681 C184.027,203.374 186.212,205.567 188.912,205.567 C191.601,205.567 193.794,203.382 193.794,200.681 C193.784,190.371 185.2,181.778 173.899,179.932 z M103.234,169.981 C100.425,169.981 98.154,167.701 98.154,164.903 C98.154,162.098 100.43,159.822 103.234,159.822 C106.035,159.822 108.314,162.098 108.314,164.903 C108.314,167.701 106.043,169.981 103.234,169.981 z M118.632,169.981 C115.839,169.981 113.555,167.701 113.555,164.903 C113.555,162.098 115.839,159.822 118.632,159.822 C121.445,159.822 123.714,162.098 123.714,164.903 C123.714,167.701 121.446,169.981 118.632,169.981 z M134.034,169.981 C131.236,169.981 128.969,167.701 128.969,164.903 C128.969,162.098 131.237,159.822 134.034,159.822 C136.839,159.822 139.111,162.098 139.111,164.903 C139.123,167.701 136.838,169.981 134.034,169.981 z" fill="#FF4E5C"/>
      <path d="M126.779,113.919 C144.084,110.914 156.696,96.895 158.703,80.311 L85.406,93.043 C92.875,107.981 109.482,116.924 126.779,113.919 z" fill="#2136FF"/>
      <path d="M104.557,51.675 C107.085,51.675 109.142,53.727 109.142,56.26 C109.142,58.79 107.085,60.844 104.557,60.844 C102.022,60.844 99.973,58.79 99.973,56.26 C99.973,53.727 102.023,51.675 104.557,51.675 z" fill="#54585D"/>
      <path d="M133.544,60.71 C136.072,60.71 138.12,62.758 138.12,65.287 C138.12,67.813 136.072,69.863 133.544,69.863 C131.011,69.863 128.968,67.813 128.968,65.287 C128.968,62.758 131.011,60.71 133.544,60.71 z" fill="#54585D"/>
      <path d="M76.424,16.246 L93.46,45.746 C81.377,53.863 73.427,67.649 73.427,83.296 L163.832,83.296 C163.832,67.649 155.882,53.863 143.799,45.746 L150.139,34.786 L147.594,33.219 L141.246,44.193 C134.594,40.328 126.895,38.086 118.632,38.086 C110.381,38.086 102.675,40.328 96.021,44.193 L79.015,14.755 C82.045,12.186 82.918,7.75 80.859,4.185 C78.552,0.184 73.419,-1.193 69.414,1.127 C65.413,3.441 64.036,8.559 66.352,12.572 C68.41,16.126 72.688,17.586 76.424,16.246 z M133.544,51.533 C138.609,51.533 142.713,55.631 142.713,60.702 C142.713,65.765 138.609,69.863 133.544,69.863 C128.475,69.863 124.387,65.759 124.387,60.702 C124.387,55.639 128.491,51.533 133.544,51.533 z M112.898,60.703 C112.898,65.766 108.791,69.864 103.737,69.864 C98.672,69.864 94.568,65.76 94.568,60.703 C94.568,55.631 98.672,51.534 103.737,51.534 C108.783,51.533 112.898,55.639 112.898,60.703 z" fill="#2136FF"/>
      <path d="M155.181,34.372 L171.012,27.301 C173.253,30.584 177.573,31.907 181.332,30.231 C185.565,28.342 187.453,23.382 185.578,19.163 C183.687,14.944 178.734,13.047 174.502,14.929 C170.75,16.609 168.847,20.711 169.799,24.568 L153.977,31.642 L155.181,34.372 z" fill="#8080FF"/>
    </g>
    <path d="M93.067,133.685 C97.081,130.632 101.355,127.962 105.292,124.812" fill-opacity="0" stroke="#000000" stroke-width="1" stroke-linecap="round" stroke-linejoin="round"/>
    <path d="M97.996,136.248 C102.549,134.381 106.536,131.348 110.418,128.361" fill-opacity="0" stroke="#000000" stroke-width="1" stroke-linecap="round" stroke-linejoin="round"/>
    <path d="M101.545,140.981 C105.58,137.577 109.889,134.604 114.165,131.516" fill-opacity="0" stroke="#000000" stroke-width="1" stroke-linecap="round" stroke-linejoin="round"/>
    <path d="M96.813,128.953 C99.678,132.046 101.428,135.188 102.137,139.206" fill-opacity="0" stroke="#000000" stroke-width="1" stroke-linecap="round" stroke-linejoin="round"/>
    <path d="M104.306,127.77 C107.418,131.237 107.461,135.665 107.461,139.995" fill-opacity="0" stroke="#000000" stroke-width="1" stroke-linecap="round" stroke-linejoin="round"/>
    <path d="M133.685,94.644 C135.301,96.354 136.482,98.158 137.629,100.165" fill-opacity="0" stroke="#000000" stroke-width="1" stroke-linecap="round" stroke-linejoin="round"/>
    <path d="M132.699,98.785 C135.198,96.545 137.968,94.679 140.783,92.87" fill-opacity="0" stroke="#000000" stroke-width="1" stroke-linecap="round" stroke-linejoin="round"/>
    <path d="M146.915,69.916 C148.26,72.133 149.307,74.744 150.184,76.999" fill-opacity="0" stroke="#000000" stroke-width="1" stroke-linecap="round" stroke-linejoin="round"/>
    <path d="M145.281,76.272 C148.05,74.187 150.895,72.193 153.634,70.098" fill-opacity="0" stroke="#000000" stroke-width="1" stroke-linecap="round" stroke-linejoin="round"/>
    <path d="M140.922,72.64 C142.486,73.931 143.256,75.807 144.191,77.544" fill-opacity="0" stroke="#000000" stroke-width="1" stroke-linecap="round" stroke-linejoin="round"/>
    <path d="M138.017,77.907 C140.888,75.603 143.954,73.558 146.915,71.369" fill-opacity="0" stroke="#000000" stroke-width="1" stroke-linecap="round" stroke-linejoin="round"/>
    <path d="M81.539,62.834 C85.503,68.051 86.749,73.902 86.079,80.268" fill-opacity="0" stroke="#000000" stroke-width="1" stroke-linecap="round" stroke-linejoin="round"/>
    <path d="M88.076,62.289 C88.991,67.939 89.648,73.644 89.348,79.36" fill-opacity="0" stroke="#000000" stroke-width="1" stroke-linecap="round" stroke-linejoin="round"/>
    <path d="M79.36,72.822 C84.827,72.23 89.61,68.823 94.614,66.648" fill-opacity="0" stroke="#000000" stroke-width="1" stroke-linecap="round" stroke-linejoin="round"/>
    <path d="M78.452,79.904 C85.103,78.901 90.491,74.727 96.43,71.914" fill-opacity="0" stroke="#000000" stroke-width="1" stroke-linecap="round" stroke-linejoin="round"/>
    <path d="M137.638,174.246 C139.409,177.433 138.999,179.295 137.638,182.018" fill-opacity="0" stroke="#000000" stroke-width="1" stroke-linecap="round" stroke-linejoin="round"/>
    <path d="M140.706,171.179 C142.263,174.762 141.965,177.244 140.604,180.279" fill-opacity="0" stroke="#000000" stroke-width="1" stroke-linecap="round" stroke-linejoin="round"/>
    <path d="M136.104,176.496 C139.024,174.66 141.666,172.573 144.183,170.258" fill-opacity="0" stroke="#000000" stroke-width="1" stroke-linecap="round" stroke-linejoin="round"/>
    <path d="M137.229,178.95 C140.159,177.619 142.695,175.727 145.103,173.633" fill-opacity="0" stroke="#000000" stroke-width="1" stroke-linecap="round" stroke-linejoin="round"/>
    <path d="M166.066,183.961 C165.451,186.481 159.411,191.115 158.703,191.63" fill-opacity="0" stroke="#000000" stroke-width="1" stroke-linecap="round" stroke-linejoin="round"/>
    <path d="M160.237,183.858 C161.884,186.405 162.315,189.212 162.589,192.039" fill-opacity="0" stroke="#000000" stroke-width="1" stroke-linecap="round" stroke-linejoin="round"/>
    <path d="M167.6,183.961 C168.616,186.213 168.842,188.491 168.929,190.914" fill-opacity="0" stroke="#000000" stroke-width="1" stroke-linecap="round" stroke-linejoin="round"/>
    <path d="M163.305,191.119 C166.519,188.541 169.284,185.473 172.61,182.938" fill-opacity="0" stroke="#000000" stroke-width="1" stroke-linecap="round" stroke-linejoin="round"/>
  </g>
</svg>
