<?xml version="1.0" encoding="UTF-8"?>
<!DOCTYPE svg PUBLIC "-//W3C//DTD SVG 1.1//EN" "http://www.w3.org/Graphics/SVG/1.1/DTD/svg11.dtd">
<svg version="1.1" xmlns="http://www.w3.org/2000/svg" xmlns:xlink="http://www.w3.org/1999/xlink" x="0" y="0" width="45.342" height="45.342" viewBox="0, 0, 45.342, 45.342">
  <g id="Layer_1">
    <path d="M40.462,19.193 L39.13,19.193 L39.13,17.321 C39.13,14.3 36.654,11.863 33.634,11.863 L24.659,11.863 L24.659,7.373 C25.839,6.69 26.632,5.414 26.632,3.95 C26.632,1.768 24.861,0 22.681,0 C20.498,0 18.718,1.769 18.718,3.95 C18.718,5.414 19.503,6.69 20.683,7.373 L20.683,11.863 L11.722,11.863 C8.701,11.863 6.274,14.3 6.274,17.321 L6.274,19.193 L4.893,19.193 C3.192,19.193 1.802,20.6 1.802,22.301 L1.802,28.954 C1.802,30.654 3.192,32.049 4.893,32.049 L6.274,32.049 L6.274,33.936 C6.274,36.957 8.701,39.378 11.722,39.378 L14.286,39.378 L14.286,42.262 C14.286,43.963 15.679,45.342 17.38,45.342 L27.976,45.342 C29.677,45.342 31.056,43.963 31.056,42.262 L31.056,39.379 L33.634,39.379 C36.655,39.379 39.13,36.957 39.13,33.936 L39.13,32.05 L40.462,32.05 C42.163,32.05 43.54,30.656 43.54,28.955 L43.54,22.302 C43.54,20.601 42.165,19.193 40.462,19.193 z M10.681,21.271 C10.681,19.272 12.302,17.653 14.3,17.653 C16.298,17.653 17.917,19.272 17.917,21.271 C17.917,23.27 16.298,24.889 14.3,24.889 C12.302,24.889 10.681,23.27 10.681,21.271 z M27.606,34.473 L17.75,34.473 C16.117,34.473 14.793,33.157 14.793,31.522 C14.793,29.889 16.117,28.573 17.75,28.573 L27.607,28.573 C29.24,28.573 30.564,29.889 30.564,31.522 C30.564,33.155 29.239,34.473 27.606,34.473 z M31.056,24.889 C29.058,24.889 27.438,23.27 27.438,21.271 C27.438,19.272 29.058,17.653 31.056,17.653 C33.055,17.653 34.675,19.272 34.675,21.271 C34.675,23.27 33.055,24.889 31.056,24.889 z" fill="#FF0002"/>
  </g>
</svg>
