<?xml version="1.0" encoding="UTF-8"?>
<!DOCTYPE svg PUBLIC "-//W3C//DTD SVG 1.1//EN" "http://www.w3.org/Graphics/SVG/1.1/DTD/svg11.dtd">
<svg version="1.1" xmlns="http://www.w3.org/2000/svg" xmlns:xlink="http://www.w3.org/1999/xlink" x="0" y="0" width="45.342" height="45.342" viewBox="0, 0, 45.342, 45.342">
  <g id="Layer_1">
    <path d="M24.659,11.717 L24.659,11.863 L33.634,11.863 C36.654,11.863 39.13,14.3 39.13,17.321 L39.13,19.193 L40.462,19.193 C42.165,19.193 43.54,20.601 43.54,22.302 L43.54,28.955 C43.54,30.656 42.163,32.05 40.462,32.05 L39.13,32.05 L39.13,33.936 C39.13,36.957 36.655,39.379 33.634,39.379 L31.056,39.379 L31.056,42.262 C31.056,43.963 29.677,45.342 27.976,45.342 L17.38,45.342 C15.679,45.342 14.286,43.963 14.286,42.262 L14.286,39.378 L11.722,39.378 C8.701,39.378 6.274,36.957 6.274,33.936 L6.274,32.049 L4.893,32.049 C3.192,32.049 1.802,30.654 1.802,28.954 L1.802,22.301 C1.802,20.6 3.192,19.193 4.893,19.193 L6.274,19.193 L6.274,17.321 C6.274,14.3 8.701,11.863 11.722,11.863 L20.16,11.863 C20.798,12.153 20.306,11.955 21.725,12.161 C22.73,12.239 23.712,12.029 24.659,11.717 z M27.607,28.573 L17.75,28.573 C16.117,28.573 14.793,29.889 14.793,31.522 C14.793,33.157 16.117,34.473 17.75,34.473 L27.606,34.473 C29.239,34.473 30.564,33.155 30.564,31.522 C30.564,29.889 29.24,28.573 27.607,28.573 z M31.056,17.653 C29.058,17.653 27.438,19.272 27.438,21.271 C27.438,23.27 29.058,24.889 31.056,24.889 C33.055,24.889 34.675,23.27 34.675,21.271 C34.675,19.272 33.055,17.653 31.056,17.653 z M14.3,17.653 C12.302,17.653 10.681,19.272 10.681,21.271 C10.681,23.27 12.302,24.889 14.3,24.889 C16.298,24.889 17.917,23.27 17.917,21.271 C17.917,19.272 16.298,17.653 14.3,17.653 z" fill="#FF0002"/>
    <path d="M24.737,0.786 C26.828,1.404 28.025,3.601 27.406,5.694 C26.991,7.098 25.869,8.097 24.544,8.417 L23.611,11.572 C22.62,11.699 21.644,11.512 20.699,11.231 L19.702,10.77 L20.731,7.29 C19.793,6.3 19.402,4.854 19.817,3.45 C20.435,1.359 22.644,0.167 24.737,0.786 z" fill="#FF0002"/>
    <path d="M22.109,16.56 C22.812,16.082 23.496,15.577 24.19,15.086" fill-opacity="0" stroke="#000000" stroke-width="1" stroke-linecap="round" stroke-linejoin="round"/>
    <path d="M22.542,18.121 C23.696,17.751 24.571,16.924 25.577,16.3" fill-opacity="0" stroke="#000000" stroke-width="1" stroke-linecap="round" stroke-linejoin="round"/>
    <path d="M23.583,19.768 C24.738,19.577 25.655,18.664 26.617,18.034" fill-opacity="0" stroke="#000000" stroke-width="1" stroke-linecap="round" stroke-linejoin="round"/>
    <path d="M23.843,17.514 C24.11,18.245 24.537,18.903 24.883,19.594" fill-opacity="0" stroke="#000000" stroke-width="1" stroke-linecap="round" stroke-linejoin="round"/>
    <path d="M22.195,15.259 C22.708,16.697 23.521,17.997 24.19,19.334" fill-opacity="0" stroke="#000000" stroke-width="1" stroke-linecap="round" stroke-linejoin="round"/>
  </g>
</svg>
