<?xml version="1.0" encoding="UTF-8"?>
<!DOCTYPE svg PUBLIC "-//W3C//DTD SVG 1.1//EN" "http://www.w3.org/Graphics/SVG/1.1/DTD/svg11.dtd">
<svg version="1.1" xmlns="http://www.w3.org/2000/svg" xmlns:xlink="http://www.w3.org/1999/xlink" x="0" y="0" width="430.117" height="430.118" viewBox="0, 0, 430.117, 430.118">
  <g id="Layer_1">
    <path d="M264.576,394.275 C257.058,415.175 237.256,430.118 213.96,430.118 C190.657,430.118 170.861,415.174 163.34,394.275 L264.576,394.275 z" fill="#843AFF"/>
    <path d="M215.059,70.847 C230.2,71.395 247.663,74.31 266.77,81.514 C331.171,105.792 335.321,183.842 335.321,183.842 L335.321,226.663 C352.346,227.797 365.825,242.055 365.825,259.505 L365.825,348.007 C372.741,351.367 377.549,358.447 377.549,366.703 C377.549,378.193 368.308,387.509 356.911,387.509 C345.514,387.509 336.273,378.194 336.273,366.703 C336.273,358.442 341.085,351.367 347.987,348.007 L347.987,288.847 C344.151,290.826 339.847,292.021 335.325,292.329 L335.325,312.891 C335.442,314.553 335.577,316.201 335.577,317.904 C335.577,319.706 335.461,321.488 335.325,323.271 L335.325,323.747 L335.303,323.747 C332.554,358.004 305.975,385.446 272.287,389.189 L272.315,389.656 L157.796,389.656 L157.834,389.189 C124.147,385.446 97.575,358.003 94.826,323.747 L94.807,323.747 L94.807,323.271 C94.679,321.488 94.555,319.706 94.555,317.904 C94.555,316.205 94.683,314.553 94.807,312.891 L94.807,292.332 C90.268,292.02 85.965,290.834 82.129,288.846 L82.129,348.016 C89.043,351.376 93.853,358.452 93.853,366.703 C93.853,378.203 84.614,387.514 73.21,387.514 C61.817,387.512 52.57,378.202 52.57,366.702 C52.57,358.441 57.377,351.366 64.294,348.006 L64.294,259.509 C64.294,242.054 77.77,227.801 94.807,226.671 L94.807,183.846 C94.807,183.846 98.952,105.796 163.341,81.518 C182.467,74.31 199.929,71.395 215.059,70.847 z M288.49,247.84 C282.992,247.84 278.55,252.325 278.55,257.856 C278.55,263.391 282.992,267.881 288.49,267.881 C293.979,267.881 298.422,263.391 298.422,257.856 C298.422,252.331 293.979,247.84 288.49,247.84 z M264.025,247.84 C258.536,247.84 254.085,252.325 254.085,257.856 C254.085,263.391 258.537,267.881 264.025,267.881 C269.513,267.881 273.957,263.391 273.957,257.856 C273.957,252.331 269.514,247.84 264.025,247.84 z M239.57,247.84 C234.072,247.84 229.629,252.325 229.629,257.856 C229.629,263.391 234.072,267.881 239.57,267.881 C245.059,267.881 249.502,263.391 249.502,257.856 C249.502,252.331 245.059,247.84 239.57,247.84 z M216.15,105.791 C215.982,105.791 215.777,105.805 215.599,105.805 C215.427,105.805 215.212,105.791 215.053,105.791 C214.885,105.791 214.675,105.805 214.502,105.805 C214.327,105.805 214.117,105.791 213.954,105.791 L213.954,105.81 C202.162,106.034 172.074,109.805 152.064,127.187 C131.425,145.109 131.425,174.595 131.425,174.595 C131.425,201.186 152.065,202.925 152.065,202.925 C159.248,205.214 174.427,204.078 181.295,202.925 C187.616,201.849 210.81,199.828 214.503,199.499 C214.644,199.513 214.867,199.537 215.054,199.545 C215.25,199.536 215.47,199.513 215.6,199.499 C219.297,199.823 242.483,201.849 248.811,202.925 C255.691,204.078 270.859,205.214 278.046,202.925 C278.046,202.925 298.679,201.191 298.679,174.595 C298.679,174.595 298.679,145.109 278.046,127.187 C258.033,109.805 227.954,106.034 216.15,105.81 L216.15,105.791 z M267.293,156.095 C275.829,156.095 282.76,163.081 282.76,171.704 C282.76,180.324 275.829,187.315 267.293,187.315 C258.733,187.311 251.808,180.32 251.808,171.704 C251.808,163.081 258.734,156.095 267.293,156.095 z M160.668,156.09 C169.206,156.09 176.137,163.077 176.137,171.697 C176.137,180.32 169.207,187.311 160.668,187.311 C152.109,187.311 145.183,180.32 145.183,171.697 C145.183,163.077 152.109,156.09 160.668,156.09 z" fill="#6B70FF"/>
    <path d="M213.96,0 C225.363,0 234.595,9.315 234.595,20.813 C234.595,28.962 229.91,35.934 223.152,39.36 L223.152,60.13 L203.513,60.13 L203.513,38.734 L203.641,38.734 C197.492,35.136 193.315,28.506 193.319,20.813 C193.319,9.315 202.561,0 213.96,0 z" fill="#843AFF"/>
    <g id="Shape">
      <path d="M162.397,183.342 C157.439,183.342 153.42,179.749 153.42,175.318 C153.42,170.886 157.439,167.293 162.397,167.293 C167.354,167.293 171.373,170.886 171.373,175.318 C171.373,179.749 167.354,183.342 162.397,183.342 z" fill="#FF8080"/>
      <path d="M162.397,183.342 C157.439,183.342 153.42,179.749 153.42,175.318 C153.42,170.886 157.439,167.293 162.397,167.293 C167.354,167.293 171.373,170.886 171.373,175.318 C171.373,179.749 167.354,183.342 162.397,183.342 z" fill-opacity="0" stroke="#000000" stroke-width="1"/>
    </g>
    <g id="Shape">
      <path d="M266.037,183.342 C261.08,183.342 257.061,179.749 257.061,175.318 C257.061,170.886 261.08,167.293 266.037,167.293 C270.995,167.293 275.014,170.886 275.014,175.318 C275.014,179.749 270.995,183.342 266.037,183.342 z" fill="#FF8080"/>
      <path d="M266.037,183.342 C261.08,183.342 257.061,179.749 257.061,175.318 C257.061,170.886 261.08,167.293 266.037,167.293 C270.995,167.293 275.014,170.886 275.014,175.318 C275.014,179.749 270.995,183.342 266.037,183.342 z" fill-opacity="0" stroke="#000000" stroke-width="1"/>
    </g>
  </g>
</svg>
