<?xml version="1.0" encoding="UTF-8"?>
<!DOCTYPE svg PUBLIC "-//W3C//DTD SVG 1.1//EN" "http://www.w3.org/Graphics/SVG/1.1/DTD/svg11.dtd">
<svg version="1.1" xmlns="http://www.w3.org/2000/svg" xmlns:xlink="http://www.w3.org/1999/xlink" x="0" y="0" width="430.117" height="430.118" viewBox="0, 0, 430.117, 430.118">
  <g id="Layer_1">
    <path d="M242.929,401.329 C238.581,410.084 226.093,416.943 210.95,417.91 C195.801,418.877 182.547,413.661 177.119,405.53 L242.929,401.329 z" fill="#843AFF"/>
    <path d="M75.409,215.161 C81.135,215.192 91,214.294 95.807,218.027 C101.599,223.58 101.801,234.301 98.276,253.752 C97.98,255.384 97.666,257.049 97.238,259.28 C94.785,272.065 94.265,275.071 93.869,279.944 C93.326,286.619 94.049,291.006 96.451,293.356 C98.82,295.674 102.96,296.46 109.103,296.088 C113.678,295.811 117.402,295.22 128.166,293.251 C130.94,292.744 132.627,292.441 134.416,292.134 C151.729,289.169 161.806,289.247 168.203,293.824 C171.817,296.409 172.77,299.9 171.576,304.635 C170.656,308.283 169.154,311.302 164.769,319.049 C164.211,320.035 163.863,320.653 163.503,321.298 C160.256,327.12 158.542,330.891 157.771,334.522 C156.786,339.162 157.665,342.935 160.787,345.929 C164.837,349.811 171.564,351.68 181.087,352.011 C188.459,352.267 196.249,351.707 209.842,350.214 C210.753,350.114 211.533,350.028 213.087,349.855 C237.678,347.123 247.149,346.816 254.58,349.749 C256.542,350.524 256.821,355.031 256.085,365.158 C256.063,365.468 256.039,365.787 256.008,366.203 C255.305,375.708 255.272,378.751 256.315,380.695 C258.288,384.371 263.164,385.56 270.559,385.161 C272.672,385.047 274.612,384.844 277.733,384.449 C280.883,384.05 281.467,383.983 282.423,383.931 C289.075,383.66 285.299,383.744 293.752,383.811 C286.345,388.829 277.95,391.901 269.272,393.848 L269.341,394.311 L155.261,404.334 L155.258,403.865 C121.373,403.085 92.501,378.073 86.764,344.189 L86.745,344.19 L86.704,343.716 C86.42,341.951 86.141,340.187 85.983,338.392 C85.834,336.7 85.817,335.043 85.795,333.376 L83.996,312.896 C79.447,312.983 75.057,312.178 71.062,310.533 L76.24,369.476 C83.422,372.218 88.833,378.846 89.555,387.065 C90.561,398.521 82.173,408.605 70.812,409.603 C59.463,410.598 49.437,402.133 48.43,390.678 C47.707,382.448 51.876,374.98 58.473,371.027 L50.727,282.87 C49.2,265.482 61.376,250.104 78.249,247.487 L75.409,215.161 z" fill="#3F4297"/>
    <path d="M215.059,70.847 C230.2,71.395 247.663,74.31 266.77,81.514 C331.171,105.792 335.321,183.842 335.321,183.842 L335.321,226.663 L335.993,226.741 C328.926,245.161 326.161,266.188 331.384,285.473 C332.835,290.83 333.26,291.364 335.325,295.97 L335.325,312.891 C335.442,314.553 335.577,316.201 335.577,317.904 C335.577,319.706 335.461,321.488 335.325,323.271 L335.325,323.747 L335.303,323.747 C333.245,348.287 319.802,367.835 299.096,380.511 C294.883,379.78 290.555,379.662 286.289,379.461 C285.296,379.428 284.709,379.444 281.5,379.567 C278.378,379.686 276.448,379.719 274.363,379.649 C267.325,379.41 262.885,377.906 261.45,374.559 C260.699,372.807 261.007,369.696 262.481,360.65 C262.548,360.238 262.599,359.922 262.649,359.614 C264.395,348.806 264.51,344.355 261.958,343.079 C254.595,339.398 245.102,338.873 220.145,339.448 C218.582,339.484 217.797,339.501 216.883,339.521 C203.257,339.818 195.482,339.695 188.224,338.802 C178.989,337.666 172.659,335.293 169.165,331.3 C164.421,325.878 166.311,319.696 174.101,308.222 C174.514,307.613 174.915,307.029 175.555,306.098 C180.66,298.679 182.441,295.769 183.718,292.096 C185.448,287.123 184.725,283.127 181.011,279.944 C174.755,274.581 164.55,273.604 146.769,275.066 C144.955,275.215 143.245,275.37 140.434,275.632 C129.586,276.647 125.84,276.909 121.316,276.786 C115.423,276.626 111.605,275.548 109.683,273.306 C107.751,271.051 107.434,266.867 108.512,260.539 C109.324,255.77 110.103,252.83 113.653,240.354 C114.276,238.166 114.734,236.532 115.173,234.928 C120.483,215.508 121.235,204.609 115.629,198.202 C113.174,195.891 109.715,195.081 106.494,194.467 C99.241,193.376 103.132,193.813 94.807,193.285 L94.807,183.846 C94.807,183.846 98.952,105.796 163.341,81.518 C182.467,74.31 199.929,71.395 215.059,70.847 z M288.49,247.84 C282.992,247.84 278.55,252.325 278.55,257.856 C278.55,263.391 282.992,267.881 288.49,267.881 C293.979,267.881 298.422,263.391 298.422,257.856 C298.422,252.331 293.979,247.84 288.49,247.84 z M264.025,247.84 C258.536,247.84 254.085,252.325 254.085,257.856 C254.085,263.391 258.537,267.881 264.025,267.881 C269.513,267.881 273.957,263.391 273.957,257.856 C273.957,252.331 269.514,247.84 264.025,247.84 z M239.57,247.84 C234.072,247.84 229.629,252.325 229.629,257.856 C229.629,263.391 234.072,267.881 239.57,267.881 C245.059,267.881 249.502,263.391 249.502,257.856 C249.502,252.331 245.059,247.84 239.57,247.84 z M216.15,105.791 C215.982,105.791 215.777,105.805 215.599,105.805 C215.427,105.805 215.212,105.791 215.053,105.791 C214.885,105.791 214.675,105.805 214.502,105.805 C214.327,105.805 214.117,105.791 213.954,105.791 L213.954,105.81 C202.162,106.034 172.074,109.805 152.064,127.187 C131.425,145.109 131.425,174.595 131.425,174.595 C131.425,201.186 152.065,202.925 152.065,202.925 C159.248,205.214 174.427,204.078 181.295,202.925 C187.616,201.849 210.81,199.828 214.503,199.499 C214.644,199.513 214.867,199.537 215.054,199.545 C215.25,199.536 215.47,199.513 215.6,199.499 C219.297,199.823 242.483,201.849 248.811,202.925 C255.691,204.078 270.859,205.214 278.046,202.925 C278.046,202.925 298.679,201.191 298.679,174.595 C298.679,174.595 298.679,145.109 278.046,127.187 C258.033,109.805 227.954,106.034 216.15,105.81 L216.15,105.791 z M267.293,156.095 C275.829,156.095 282.76,163.081 282.76,171.704 C282.76,180.324 275.829,187.315 267.293,187.315 C258.733,187.311 251.808,180.32 251.808,171.704 C251.808,163.081 258.734,156.095 267.293,156.095 z M160.668,156.09 C169.206,156.09 176.137,163.077 176.137,171.697 C176.137,180.32 169.207,187.311 160.668,187.311 C152.109,187.311 145.183,180.32 145.183,171.697 C145.183,163.077 152.109,156.09 160.668,156.09 z" fill="#6B70FF"/>
    <path d="M336.474,227.812 C351.48,227.825 362.293,239.374 364.912,254.642 L375.099,335.778 C381.411,338.114 386.345,344.087 387.296,351.656 C388.618,362.19 381.773,371.725 372.008,372.951 C362.243,374.177 353.253,366.631 351.93,356.096 C350.979,348.523 354.288,341.519 359.815,337.697 L353.005,283.46 C349.946,285.687 346.396,287.246 342.557,288.015 L342.695,289.114 C332.554,270.86 331.922,247.771 336.474,227.812 z" fill="#6B70FF"/>
    <path d="M144.314,555.054 L144.314,555.054" fill="#6B70FF"/>
    <path d="M-355.235,-212.506 L-355.235,-212.506" fill="#6B70FF"/>
    <path d="M156.801,13.903 C167.784,10.833 179.182,17.319 182.277,28.393 C184.471,36.241 181.836,44.217 176.249,49.336 L181.84,69.339 L162.926,74.625 L157.167,54.019 L157.29,53.985 C150.399,52.175 144.592,46.914 142.525,39.504 C139.43,28.43 145.823,16.971 156.801,13.903 z" fill="#843AFF"/>
    <g id="Shape">
      <path d="M159.944,172.193 C154.986,172.193 150.967,168.6 150.967,164.169 C150.967,159.737 154.986,156.144 159.944,156.144 C164.901,156.144 168.92,159.737 168.92,164.169 C168.92,168.6 164.901,172.193 159.944,172.193 z" fill="#FF8080"/>
      <path d="M159.944,172.193 C154.986,172.193 150.967,168.6 150.967,164.169 C150.967,159.737 154.986,156.144 159.944,156.144 C164.901,156.144 168.92,159.737 168.92,164.169 C168.92,168.6 164.901,172.193 159.944,172.193 z" fill-opacity="0" stroke="#000000" stroke-width="1"/>
    </g>
    <g id="Shape">
      <path d="M267.375,186.464 C262.417,186.464 258.398,182.871 258.398,178.439 C258.398,174.007 262.417,170.415 267.375,170.415 C272.333,170.415 276.352,174.007 276.352,178.439 C276.352,182.871 272.333,186.464 267.375,186.464 z" fill="#FF8080"/>
      <path d="M267.375,186.464 C262.417,186.464 258.398,182.871 258.398,178.439 C258.398,174.007 262.417,170.415 267.375,170.415 C272.333,170.415 276.352,174.007 276.352,178.439 C276.352,182.871 272.333,186.464 267.375,186.464 z" fill-opacity="0" stroke="#000000" stroke-width="1"/>
    </g>
    <path d="M150.846,244.994 C171.662,229.855 154.64,242.191 202.341,208.583" fill-opacity="0" stroke="#000000" stroke-width="1" stroke-linecap="round" stroke-linejoin="round"/>
    <path d="M158.128,253.317 C178.532,245.739 198.678,231.176 215.865,217.426" fill-opacity="0" stroke="#000000" stroke-width="1" stroke-linecap="round" stroke-linejoin="round"/>
    <path d="M172.172,258.518 C193.103,250.004 210.864,235.714 230.43,224.708" fill-opacity="0" stroke="#000000" stroke-width="1" stroke-linecap="round" stroke-linejoin="round"/>
    <path d="M157.088,214.825 C169.496,230.608 184.744,243.589 198.18,258.518" fill-opacity="0" stroke="#000000" stroke-width="1" stroke-linecap="round" stroke-linejoin="round"/>
    <path d="M183.096,211.184 C193.99,224.467 202.366,239.66 211.184,254.357" fill-opacity="0" stroke="#000000" stroke-width="1" stroke-linecap="round" stroke-linejoin="round"/>
  </g>
</svg>
