<?xml version="1.0" encoding="UTF-8"?>
<!DOCTYPE svg PUBLIC "-//W3C//DTD SVG 1.1//EN" "http://www.w3.org/Graphics/SVG/1.1/DTD/svg11.dtd">
<svg version="1.1" xmlns="http://www.w3.org/2000/svg" xmlns:xlink="http://www.w3.org/1999/xlink" x="0" y="0" width="430.117" height="430.118" viewBox="0, 0, 430.117, 430.118">
  <g id="Layer_1">
    <path d="M75.409,215.161 C81.135,215.192 91,214.294 95.807,218.027 C101.599,223.58 101.801,234.301 98.276,253.752 C97.98,255.384 97.666,257.049 97.238,259.28 C94.785,272.065 94.265,275.071 93.869,279.944 C93.326,286.619 94.049,291.006 96.451,293.356 C98.82,295.674 102.96,296.46 109.103,296.088 C113.678,295.811 117.402,295.22 128.166,293.251 C130.94,292.744 132.627,292.441 134.416,292.134 C151.729,289.169 161.806,289.247 168.203,293.824 C171.817,296.409 172.77,299.9 171.576,304.635 C170.656,308.283 169.154,311.302 164.769,319.049 C164.211,320.035 163.863,320.653 163.503,321.298 C160.256,327.12 158.542,330.891 157.771,334.522 C156.786,339.162 157.665,342.935 160.787,345.929 C164.837,349.811 171.564,351.68 181.087,352.011 C188.459,352.267 196.249,351.707 209.842,350.214 C210.753,350.114 211.533,350.028 213.087,349.855 C237.678,347.123 247.149,346.816 254.58,349.749 C256.542,350.524 256.821,355.031 256.085,365.158 C256.063,365.468 256.039,365.787 256.008,366.203 C255.305,375.708 255.272,378.751 256.315,380.695 C258.288,384.371 263.164,385.56 270.559,385.161 C272.672,385.047 274.612,384.844 277.733,384.449 C280.883,384.05 281.467,383.983 282.423,383.931 C289.075,383.66 285.299,383.744 293.752,383.811 C286.345,388.829 277.95,391.901 269.272,393.848 L269.341,394.311 L155.261,404.334 L155.258,403.865 C121.373,403.085 92.501,378.073 86.764,344.189 L86.745,344.19 L86.704,343.716 C86.42,341.951 86.141,340.187 85.983,338.392 C85.834,336.7 85.817,335.043 85.795,333.376 L83.996,312.896 C79.447,312.983 75.057,312.178 71.062,310.533 L76.24,369.476 C83.422,372.218 88.833,378.846 89.555,387.065 C90.561,398.521 82.173,408.605 70.812,409.603 C59.463,410.598 49.437,402.133 48.43,390.678 C47.707,382.448 51.876,374.98 58.473,371.027 L50.727,282.87 C49.2,265.482 61.376,250.104 78.249,247.487 L75.409,215.161 z" fill="#3F4297"/>
    <path d="M101.157,152.437 C102.006,152.802 101.445,152.527 102.738,153.443 C106.066,156.216 109.119,161.533 113.167,170.851 C113.835,172.389 114.515,173.994 115.439,176.203 C115.607,176.605 115.778,177.015 116.011,177.574 C116.298,178.263 116.449,178.625 116.587,178.954 C117.053,180.071 117.403,180.907 117.748,181.727 C121.992,191.8 124.957,197.844 128.432,202.806 C132.905,209.195 137.646,212.559 143.059,212.559 C153.909,212.56 163.862,208.008 173.631,203.806 C176.201,203.657 178.753,203.321 181.295,202.925 C187.616,201.849 210.81,199.828 214.503,199.499 C214.644,199.513 214.867,199.537 215.054,199.545 C215.25,199.536 215.47,199.513 215.6,199.499 C219.297,199.823 242.483,201.849 248.811,202.925 C255.691,204.078 270.859,205.214 278.046,202.925 C280.457,202.704 282.683,201.782 284.842,200.753 C299.98,203.842 315.227,206.302 330.652,207.284 C334.431,207.441 332.874,207.411 335.321,207.436 L335.321,226.663 L335.993,226.741 C328.926,245.161 326.161,266.188 331.384,285.473 C332.835,290.83 333.26,291.364 335.325,295.97 L335.325,312.891 C335.442,314.553 335.577,316.201 335.577,317.904 C335.577,319.706 335.461,321.488 335.325,323.271 L335.325,323.747 L335.303,323.747 C333.245,348.287 319.802,367.835 299.096,380.511 C294.883,379.78 290.555,379.662 286.289,379.461 C285.296,379.428 284.709,379.444 281.5,379.567 C278.378,379.686 276.448,379.719 274.363,379.649 C267.325,379.41 262.885,377.906 261.45,374.559 C260.699,372.806 261.007,369.696 262.481,360.65 C262.548,360.238 262.599,359.922 262.649,359.614 C264.395,348.806 264.51,344.355 261.958,343.079 C254.595,339.398 245.102,338.873 220.145,339.448 C218.582,339.484 217.797,339.501 216.883,339.521 C203.257,339.818 195.482,339.695 188.224,338.802 C178.989,337.666 172.659,335.293 169.165,331.3 C164.421,325.878 166.311,319.696 174.101,308.222 C174.514,307.613 174.915,307.029 175.555,306.098 C180.66,298.679 182.441,295.769 183.718,292.096 C185.448,287.123 184.725,283.127 181.011,279.944 C174.755,274.581 164.55,273.604 146.769,275.066 C144.955,275.215 143.245,275.37 140.434,275.632 C129.586,276.647 125.84,276.909 121.316,276.786 C115.423,276.626 111.605,275.548 109.683,273.306 C107.751,271.051 107.434,266.867 108.512,260.539 C109.324,255.77 110.103,252.83 113.653,240.354 C114.276,238.166 114.734,236.532 115.173,234.928 C120.483,215.508 121.235,204.609 115.629,198.202 C113.174,195.891 109.715,195.081 106.494,194.467 C99.241,193.376 103.132,193.813 94.807,193.285 L94.807,183.846 C95.739,173.211 97.769,162.571 101.157,152.437 z M239.57,247.84 C234.072,247.84 229.629,252.325 229.629,257.856 C229.629,263.391 234.072,267.881 239.57,267.881 C245.059,267.881 249.502,263.391 249.502,257.856 C249.502,252.331 245.059,247.84 239.57,247.84 z M264.025,247.84 C258.536,247.84 254.085,252.325 254.085,257.856 C254.085,263.391 258.537,267.881 264.025,267.881 C269.513,267.881 273.957,263.391 273.957,257.856 C273.957,252.331 269.514,247.84 264.025,247.84 z M288.49,247.84 C282.992,247.84 278.55,252.325 278.55,257.856 C278.55,263.391 282.992,267.881 288.49,267.881 C293.979,267.881 298.422,263.391 298.422,257.856 C298.422,252.331 293.979,247.84 288.49,247.84 z" fill="#6B70FF"/>
    <path d="M245.385,37.484 C260.151,40.877 276.751,47.032 294.157,57.71 C352.825,93.696 342.183,171.128 342.183,171.128 L337.923,193.317 C335.558,192.838 337.065,193.157 333.417,192.298 C318.873,188.791 304.936,183.283 291.056,177.792 C301.354,173.564 305.661,165.627 307.942,155.138 C307.942,155.138 313.502,126.181 296.618,104.69 C280.242,83.846 251.414,74.471 239.864,72.025 L239.867,72.007 C239.702,71.975 239.498,71.95 239.323,71.916 C239.154,71.884 238.946,71.83 238.79,71.8 C238.625,71.768 238.416,71.742 238.246,71.71 C238.074,71.677 237.871,71.623 237.711,71.592 L237.707,71.611 C226.084,69.608 195.825,67.638 172.896,80.935 C149.248,94.644 143.688,123.601 143.688,123.601 C138.674,149.715 158.616,155.314 158.616,155.314 C164.171,158.155 170.494,158.886 176.555,159.899 C166.673,162.216 158.259,163.656 148.143,162.095 C143.21,161.148 139.411,157.183 136.342,150.333 C133.903,144.888 132.145,138.445 129.89,127.818 C129.706,126.95 129.52,126.063 129.273,124.879 C129.2,124.531 129.12,124.147 128.968,123.416 C128.844,122.822 128.754,122.388 128.664,121.961 C128.173,119.613 127.807,117.904 127.439,116.262 C125.187,106.195 123.158,100.301 120.278,96.786 C119.016,95.67 119.6,96.122 118.564,95.38 C133.906,66.246 160.042,44.371 192.582,38.211 C212.724,34.739 230.423,35.169 245.385,37.484 z" fill="#6B70FF"/>
    <path d="M283.607,111.425 C292.143,111.425 299.074,118.411 299.074,127.034 C299.074,135.654 292.143,142.645 283.607,142.645 C275.047,142.641 268.122,135.65 268.122,127.034 C268.122,118.411 275.048,111.425 283.607,111.425 z" fill="#6B70FF"/>
    <path d="M144.314,555.054 L144.314,555.054" fill="#6B70FF"/>
    <path d="M-355.235,-212.506 L-355.235,-212.506" fill="#6B70FF"/>
    <g>
      <path d="M283.598,128.527 C288.556,128.527 292.575,127.859 292.575,127.035 C292.575,126.211 288.556,125.543 283.598,125.543 C278.641,125.543 274.622,126.211 274.622,127.035 C274.622,127.859 278.641,128.527 283.598,128.527 z" fill="#FF8080"/>
      <path d="M283.598,128.527 C288.556,128.527 292.575,127.859 292.575,127.035 C292.575,126.211 288.556,125.543 283.598,125.543 C278.641,125.543 274.622,126.211 274.622,127.035 C274.622,127.859 278.641,128.527 283.598,128.527 z" fill-opacity="0" stroke="#000000" stroke-width="1"/>
    </g>
    <path d="M150.846,244.994 C171.662,229.855 154.64,242.191 202.341,208.583" fill-opacity="0" stroke="#000000" stroke-width="1" stroke-linecap="round" stroke-linejoin="round"/>
    <path d="M158.128,253.317 C178.532,245.739 198.678,231.176 215.865,217.426" fill-opacity="0" stroke="#000000" stroke-width="1" stroke-linecap="round" stroke-linejoin="round"/>
    <path d="M172.172,258.518 C193.103,250.004 210.864,235.714 230.43,224.708" fill-opacity="0" stroke="#000000" stroke-width="1" stroke-linecap="round" stroke-linejoin="round"/>
    <path d="M157.088,214.825 C169.496,230.608 184.744,243.589 198.18,258.518" fill-opacity="0" stroke="#000000" stroke-width="1" stroke-linecap="round" stroke-linejoin="round"/>
    <path d="M183.096,211.184 C193.99,224.467 202.366,239.66 211.184,254.357" fill-opacity="0" stroke="#000000" stroke-width="1" stroke-linecap="round" stroke-linejoin="round"/>
    <path d="M141.732,117.752 C160.366,100.088 182.153,91.385 206.514,86.256" fill-opacity="0" stroke="#000000" stroke-width="1" stroke-linecap="round" stroke-linejoin="round"/>
    <path d="M144.237,128.847 C166.969,113.722 191.372,103.075 217.609,95.92" fill-opacity="0" stroke="#000000" stroke-width="1" stroke-linecap="round" stroke-linejoin="round"/>
    <path d="M147.817,142.448 C169.824,124.364 196.202,114.057 223.335,106.657" fill-opacity="0" stroke="#000000" stroke-width="1" stroke-linecap="round" stroke-linejoin="round"/>
    <path d="M147.101,88.404 C162.211,105.558 169.097,134.391 170.723,153.901" fill-opacity="0" stroke="#000000" stroke-width="1" stroke-linecap="round" stroke-linejoin="round"/>
    <path d="M175.018,69.792 C195.799,90.849 194.035,122.317 196.134,149.606" fill-opacity="0" stroke="#000000" stroke-width="1" stroke-linecap="round" stroke-linejoin="round"/>
    <path d="M164.638,73.729 C178.755,96.837 178.955,126.188 178.955,152.469" fill-opacity="0" stroke="#000000" stroke-width="1" stroke-linecap="round" stroke-linejoin="round"/>
    <path d="M319.255,164.996 C321.38,160.116 325.023,156.329 328.561,152.469" fill-opacity="0" stroke="#000000" stroke-width="1" stroke-linecap="round" stroke-linejoin="round"/>
    <path d="M326.055,175.018 C326.175,174.421 326.294,173.825 326.413,173.228 C329.157,168.933 331.901,164.638 334.645,160.343" fill-opacity="0" stroke="#000000" stroke-width="1" stroke-linecap="round" stroke-linejoin="round"/>
    <path d="M323.192,153.543 C327.155,161.164 332.621,167.77 337.151,175.018" fill-opacity="0" stroke="#000000" stroke-width="1" stroke-linecap="round" stroke-linejoin="round"/>
    <path d="M244.516,330.679 C268.866,313.225 290.756,292.853 315.542,275.954" fill-opacity="0" stroke="#000000" stroke-width="1" stroke-linecap="round" stroke-linejoin="round"/>
    <path d="M261.205,333.007 C281.697,315.961 303.692,300.587 323.692,282.94" fill-opacity="0" stroke="#000000" stroke-width="1" stroke-linecap="round" stroke-linejoin="round"/>
    <path d="M273.237,280.999 C287.756,293.955 301.312,307.137 308.556,325.245" fill-opacity="0" stroke="#000000" stroke-width="1" stroke-linecap="round" stroke-linejoin="round"/>
    <path d="M166.504,365.609 C176.021,370.687 184.589,378.377 190.567,387.344" fill-opacity="0" stroke="#000000" stroke-width="1" stroke-linecap="round" stroke-linejoin="round"/>
    <path d="M170.385,376.477 C175.43,371.172 180.476,365.868 185.522,360.564" fill-opacity="0" stroke="#000000" stroke-width="1" stroke-linecap="round" stroke-linejoin="round"/>
    <path d="M198.33,367.938 C204.122,373.386 209.557,379.249 215.795,384.239" fill-opacity="0" stroke="#000000" stroke-width="1" stroke-linecap="round" stroke-linejoin="round"/>
    <path d="M197.165,383.075 C203.654,376.9 210.063,370.614 216.183,364.057" fill-opacity="0" stroke="#000000" stroke-width="1" stroke-linecap="round" stroke-linejoin="round"/>
    <path d="M218.124,365.221 C225.352,371.011 232.583,376.867 238.694,383.851" fill-opacity="0" stroke="#000000" stroke-width="1" stroke-linecap="round" stroke-linejoin="round"/>
    <path d="M220.064,380.746 C224.489,374.8 228.717,368.908 232.484,362.504" fill-opacity="0" stroke="#000000" stroke-width="1" stroke-linecap="round" stroke-linejoin="round"/>
  </g>
</svg>
