<?xml version="1.0" encoding="UTF-8"?>
<!DOCTYPE svg PUBLIC "-//W3C//DTD SVG 1.1//EN" "http://www.w3.org/Graphics/SVG/1.1/DTD/svg11.dtd">
<svg version="1.1" xmlns="http://www.w3.org/2000/svg" xmlns:xlink="http://www.w3.org/1999/xlink" x="0" y="0" width="292.501" height="292.501" viewBox="0, 0, 292.501, 292.501">
  <g id="Layer_1">
    <path d="M237.222,174.997 L216.835,174.997 L113.325,145.309 L204.882,131.301 C207.405,133.044 210.46,134.071 213.752,134.071 C222.382,134.071 229.403,127.051 229.403,118.422 C229.403,109.793 222.382,102.774 213.752,102.774 C213.034,102.774 212.333,102.839 211.64,102.933 L177.112,81.802 C179.045,82.048 180.985,82.313 182.932,82.595 C200.601,86.714 217.24,75.862 216.786,56.846 C216.786,47.536 216.786,42.879 216.786,33.566 C217.241,14.55 200.598,3.703 182.932,7.817 C152.351,12.26 123.737,12.259 93.158,7.817 C75.489,3.703 58.851,14.55 59.302,33.566 C59.302,42.88 59.302,47.536 59.302,56.846 C58.851,75.863 75.49,86.712 93.158,82.595 C105.831,80.753 118.166,79.688 130.445,79.372 C130.97,79.852 131.544,80.293 132.173,80.678 L183.133,111.866 L68.629,129.385 C66.051,127.515 62.892,126.399 59.471,126.399 C50.841,126.399 43.821,133.419 43.821,142.048 C43.821,150.677 50.842,157.697 59.471,157.697 C62.353,157.697 65.047,156.9 67.368,155.536 L135.219,174.996 L55.279,174.996 C24.798,174.997 0,199.793 0,230.274 C0,260.753 24.798,285.551 55.279,285.551 L237.222,285.551 C267.702,285.551 292.501,260.753 292.501,230.274 C292.501,199.793 267.703,174.997 237.222,174.997 z M169.585,25.442 C180.501,25.442 189.35,34.291 189.35,45.207 C189.35,56.123 180.501,64.974 169.585,64.974 C158.669,64.974 149.82,56.123 149.82,45.207 C149.82,34.29 158.669,25.442 169.585,25.442 z M106.503,64.973 C95.587,64.973 86.738,56.122 86.738,45.206 C86.738,34.29 95.587,25.441 106.503,25.441 C117.419,25.441 126.268,34.29 126.268,45.206 C126.269,56.123 117.42,64.973 106.503,64.973 z M213.752,125.273 C209.975,125.273 206.901,122.2 206.901,118.422 C206.901,114.646 209.974,111.572 213.752,111.572 C217.53,111.572 220.604,114.645 220.604,118.422 C220.604,122.2 217.53,125.273 213.752,125.273 z M52.62,142.048 C52.62,138.271 55.694,135.197 59.472,135.197 C63.249,135.197 66.323,138.27 66.323,142.048 C66.323,145.825 63.25,148.899 59.472,148.899 C55.693,148.899 52.62,145.826 52.62,142.048 z M76.53,232.42 C75.471,230.724 73.997,229.252 72.144,228.182 C66.111,224.7 58.396,226.769 54.914,232.802 C51.429,238.834 53.496,246.551 59.529,250.033 C61.496,251.169 63.641,251.704 65.761,251.715 C61.344,254.971 55.893,256.9 49.998,256.9 C44.102,256.9 38.651,254.971 34.235,251.715 C36.355,251.704 38.5,251.169 40.467,250.033 C46.499,246.551 48.566,238.833 45.083,232.802 C41.6,226.768 33.886,224.699 27.852,228.185 C25.999,229.254 24.525,230.724 23.466,232.42 C23.409,231.711 23.372,230.996 23.372,230.274 C23.372,219.65 29.629,210.463 38.649,206.195 C37.846,207.854 37.383,209.709 37.383,211.675 C37.383,218.642 43.031,224.289 49.998,224.289 C56.964,224.289 62.613,218.641 62.613,211.675 C62.613,209.708 62.15,207.854 61.347,206.194 C70.367,210.462 76.624,219.65 76.624,230.274 C76.624,230.998 76.587,231.711 76.53,232.42 z M87.874,230.274 C87.874,216.288 80.248,204.057 68.942,197.497 L127.307,197.497 C116,204.058 108.375,216.288 108.375,230.274 C108.375,244.26 116.001,256.491 127.307,263.051 L68.942,263.051 C80.248,256.491 87.874,244.26 87.874,230.274 z M172.782,232.419 C171.723,230.723 170.249,229.252 168.397,228.182 C162.364,224.7 154.649,226.769 151.167,232.802 C147.684,238.834 149.749,246.551 155.782,250.033 C157.749,251.169 159.894,251.704 162.014,251.715 C157.597,254.971 152.146,256.9 146.251,256.9 C140.356,256.9 134.904,254.971 130.488,251.715 C132.607,251.704 134.753,251.169 136.72,250.033 C142.753,246.551 144.819,238.833 141.336,232.802 C137.853,226.768 130.138,224.699 124.105,228.185 C122.252,229.254 120.778,230.724 119.72,232.42 C119.663,231.711 119.626,230.996 119.626,230.274 C119.626,219.65 125.882,210.463 134.903,206.195 C134.1,207.854 133.636,209.709 133.636,211.675 C133.636,218.642 139.286,224.289 146.251,224.289 C153.217,224.289 158.866,218.641 158.866,211.675 C158.866,209.708 158.403,207.854 157.599,206.195 C166.619,210.464 172.876,219.65 172.876,230.274 C172.876,230.997 172.839,231.711 172.782,232.419 z M184.126,230.274 C184.126,216.288 176.5,204.057 165.194,197.497 L215.187,197.497 C215.21,197.497 215.234,197.5 215.257,197.5 C215.277,197.5 215.297,197.497 215.317,197.497 L223.559,197.497 C212.252,204.058 204.627,216.288 204.627,230.274 C204.627,244.26 212.253,256.491 223.559,263.051 L165.194,263.051 C176.5,256.491 184.126,244.26 184.126,230.274 z M237.587,232.802 C234.104,226.768 226.39,224.699 220.357,228.185 C218.504,229.254 217.03,230.725 215.971,232.421 C215.914,231.712 215.877,230.997 215.877,230.274 C215.877,219.65 222.134,210.462 231.154,206.194 C230.351,207.854 229.887,209.709 229.887,211.675 C229.887,218.642 235.536,224.289 242.502,224.289 C249.47,224.289 255.117,218.641 255.117,211.675 C255.117,209.708 254.654,207.854 253.851,206.195 C262.871,210.464 269.128,219.65 269.128,230.274 C269.128,230.997 269.091,231.712 269.034,232.419 C267.975,230.723 266.501,229.252 264.648,228.182 C258.615,224.7 250.9,226.769 247.418,232.802 C243.935,238.834 246.001,246.551 252.033,250.033 C254,251.169 256.145,251.704 258.264,251.715 C253.848,254.971 248.396,256.9 242.501,256.9 C236.606,256.9 231.154,254.971 226.738,251.715 C228.858,251.704 231.003,251.169 232.97,250.033 C239.005,246.551 241.072,238.833 237.587,232.802 z" fill="#1B1D87"/>
  </g>
</svg>
