<?xml version="1.0" encoding="UTF-8"?>
<!DOCTYPE svg PUBLIC "-//W3C//DTD SVG 1.1//EN" "http://www.w3.org/Graphics/SVG/1.1/DTD/svg11.dtd">
<svg version="1.1" xmlns="http://www.w3.org/2000/svg" xmlns:xlink="http://www.w3.org/1999/xlink" x="0" y="0" width="292.501" height="292.501" viewBox="0, 0, 292.501, 292.501">
  <g id="Layer_1">
    <path d="M142.913,118.02 C139.564,122.244 135.348,126.438 135.957,132.245 C136.395,134.654 139.956,134.955 146.311,134.071 C147.277,133.936 148.287,133.777 149.476,133.576 C149.935,133.498 152.553,133.042 153.189,132.939 C154.361,132.747 155.102,132.655 155.533,132.655 C158.538,132.655 160.034,133.429 162.521,135.697 C162.68,135.843 162.68,135.843 162.841,135.989 C163.941,136.963 163.348,136.468 164.627,137.46 L113.325,145.309 L216.835,174.997 L237.222,174.997 C267.703,174.997 292.501,199.793 292.501,230.274 C292.292,251.183 279.999,272.116 260.336,280.443 C256.563,276.791 251.968,274.436 247,272.88 C236.564,270.242 226.894,270.925 217.333,276.095 C216.231,275.126 216.941,275.723 215.147,274.372 C209.743,270.761 203.825,268.308 197.255,268.031 L195.268,268.026 L193.284,268.079 C190.028,268.308 186.821,269.024 183.751,270.116 C179.812,271.63 176.063,273.597 172.811,276.323 C168.392,275.745 170.357,275.884 166.927,275.762 C162.163,275.871 157.419,276.543 153.022,278.495 C149.143,277.513 144.006,277.809 140.078,278.511 C137.111,279.147 134.198,279.94 131.481,281.346 C127.391,281.578 129.161,281.344 126.15,281.868 C123.929,278.994 121.142,276.598 118.158,274.555 C112.473,270.748 105.703,268.564 98.491,268.564 C91.854,268.752 85.108,270.065 79.453,273.75 C76.443,274.07 77.785,273.928 75.428,274.177 C74.856,274.238 74.299,274.307 73.662,274.393 C72.772,274.514 71.654,274.678 70.332,274.88 C67.807,275.268 64.615,275.784 61.512,276.307 C58.001,276.9 54.796,277.47 52.271,277.956 C50.68,278.263 49.326,278.542 48.139,278.816 C47.217,279.028 46.364,279.243 45.465,279.503 C42.76,280.153 40.276,281.358 37.849,282.676 C15.021,275.659 0.589,253.524 0,230.274 C0,199.793 24.798,174.997 55.279,174.996 L135.219,174.996 L67.368,155.536 C65.047,156.9 62.353,157.697 59.471,157.697 C50.842,157.697 43.821,150.677 43.821,142.048 C43.821,133.419 50.841,126.399 59.471,126.399 C62.892,126.399 66.051,127.515 68.629,129.385 L142.913,118.02 z M127.307,197.497 L68.942,197.497 C80.248,204.057 87.874,216.288 87.874,230.274 C87.874,244.26 80.248,256.491 68.942,263.051 L127.307,263.051 C116.001,256.491 108.375,244.26 108.375,230.274 C108.375,216.288 116,204.058 127.307,197.497 z M215.187,197.497 L165.194,197.497 C176.5,204.057 184.126,216.288 184.126,230.274 C184.126,244.26 176.5,256.491 165.194,263.051 L223.559,263.051 C212.253,256.491 204.627,244.26 204.627,230.274 C204.627,216.288 212.252,204.058 223.559,197.497 L215.317,197.497 C215.297,197.497 215.277,197.5 215.257,197.5 C215.234,197.5 215.21,197.497 215.187,197.497 z M61.347,206.194 C62.15,207.854 62.613,209.708 62.613,211.675 C62.613,218.641 56.964,224.289 49.998,224.289 C43.031,224.289 37.383,218.642 37.383,211.675 C37.383,209.709 37.846,207.854 38.649,206.195 C29.629,210.463 23.372,219.65 23.372,230.274 C23.372,230.996 23.409,231.711 23.466,232.42 C24.525,230.724 25.999,229.254 27.852,228.185 C33.886,224.699 41.6,226.768 45.083,232.802 C48.566,238.833 46.499,246.551 40.467,250.033 C38.5,251.169 36.355,251.704 34.235,251.715 C38.651,254.971 44.102,256.9 49.998,256.9 C55.893,256.9 61.344,254.971 65.761,251.715 C63.641,251.704 61.496,251.169 59.529,250.033 C53.496,246.551 51.429,238.834 54.914,232.802 C58.396,226.769 66.111,224.7 72.144,228.182 C73.997,229.252 75.471,230.724 76.53,232.42 C76.587,231.711 76.624,230.998 76.624,230.274 C76.624,219.65 70.367,210.462 61.347,206.194 z M157.599,206.195 C158.403,207.854 158.866,209.708 158.866,211.675 C158.866,218.641 153.217,224.289 146.251,224.289 C139.286,224.289 133.636,218.642 133.636,211.675 C133.636,209.709 134.1,207.854 134.903,206.195 C125.882,210.463 119.626,219.65 119.626,230.274 C119.626,230.996 119.663,231.711 119.72,232.42 C120.778,230.724 122.252,229.254 124.105,228.185 C130.138,224.699 137.853,226.768 141.336,232.802 C144.819,238.833 142.753,246.551 136.72,250.033 C134.753,251.169 132.607,251.704 130.488,251.715 C134.904,254.971 140.356,256.9 146.251,256.9 C152.146,256.9 157.597,254.971 162.014,251.715 C159.894,251.704 157.749,251.169 155.782,250.033 C149.749,246.551 147.684,238.834 151.167,232.802 C154.649,226.769 162.364,224.7 168.397,228.182 C170.249,229.252 171.723,230.723 172.782,232.419 C172.839,231.711 172.876,230.997 172.876,230.274 C172.876,219.65 166.619,210.464 157.599,206.195 z M231.154,206.194 C222.134,210.462 215.877,219.65 215.877,230.274 C215.877,230.997 215.914,231.712 215.971,232.421 C217.03,230.725 218.504,229.254 220.357,228.185 C226.39,224.699 234.104,226.768 237.587,232.802 C241.072,238.833 239.005,246.551 232.97,250.033 C231.003,251.169 228.858,251.704 226.738,251.715 C231.154,254.971 236.606,256.9 242.501,256.9 C248.396,256.9 253.848,254.971 258.264,251.715 C256.145,251.704 254,251.169 252.033,250.033 C246.001,246.551 243.935,238.834 247.418,232.802 C250.9,226.769 258.615,224.7 264.648,228.182 C266.501,229.252 267.975,230.723 269.034,232.419 C269.091,231.712 269.128,230.997 269.128,230.274 C269.128,219.65 262.871,210.464 253.851,206.195 C254.654,207.854 255.117,209.708 255.117,211.675 C255.117,218.641 249.47,224.289 242.502,224.289 C235.536,224.289 229.887,218.642 229.887,211.675 C229.887,209.709 230.351,207.854 231.154,206.194 z M59.472,135.197 C55.694,135.197 52.62,138.271 52.62,142.048 C52.62,145.826 55.693,148.899 59.472,148.899 C63.25,148.899 66.323,145.825 66.323,142.048 C66.323,138.27 63.249,135.197 59.472,135.197 z" fill="#1B1D87"/>
    <path d="M206.557,19.462 C208.477,19.992 210.445,20.378 212.316,21.052 C223.314,25.014 228.524,35.595 227.525,46.196 L225.414,67.636 C224.129,85.193 207.028,93.6 190.287,88.122 C188.427,87.676 186.572,87.247 184.722,86.836 L216.25,109.59 C216.93,109.57 217.615,109.577 218.31,109.645 C226.669,110.468 232.833,117.602 232.051,125.549 C231.268,133.496 223.831,139.292 215.472,138.469 C212.283,138.155 209.417,136.918 207.132,135.072 L169.068,136.836 C168.132,136.324 167.43,135.508 166.704,134.763 C166.563,134.614 166.563,134.614 166.422,134.464 C164.07,131.982 162.498,131.006 159.299,130.691 C158.811,130.643 158.053,130.658 156.846,130.726 C156.215,130.761 153.634,130.932 153.186,130.959 C152.025,131.031 151.042,131.08 150.105,131.111 C144.537,131.297 141.385,130.729 141.254,129.296 C140.948,125.935 142.832,123.458 149.209,117.391 L149.758,116.863 L187.828,115.099 L141.296,81.515 C140.721,81.101 140.205,80.64 139.74,80.148 C127.818,79.268 115.774,79.072 103.332,79.56 C85.845,81.667 70.712,70.088 72.874,52.617 L74.985,31.177 C76.272,13.621 93.372,5.218 110.113,10.692 C139.329,17.699 167.045,20.429 197.068,19.254 C202.393,18.866 199.231,18.94 206.557,19.462 z M217.512,117.748 C213.853,117.388 210.598,119.926 210.255,123.403 C209.913,126.883 212.611,130.006 216.27,130.366 C219.929,130.727 223.185,128.19 223.528,124.71 C223.87,121.232 221.172,118.108 217.512,117.748 z M182.542,34.213 C171.969,33.172 162.595,40.477 161.605,50.531 C160.615,60.584 168.384,69.579 178.957,70.621 C189.531,71.662 198.904,64.354 199.894,54.301 C200.884,44.247 193.115,35.254 182.542,34.213 z M121.441,28.196 C110.867,27.155 101.494,34.46 100.504,44.514 C99.514,54.567 107.283,63.562 117.856,64.603 C128.43,65.645 137.804,58.338 138.793,48.284 C139.783,38.23 132.014,29.237 121.441,28.196 z" fill="#581187"/>
    <path d="M81.328,34.706 C85.802,29.081 90.04,23.287 95.336,18.398" fill-opacity="0" stroke="#000000" stroke-width="1" stroke-linecap="round" stroke-linejoin="round"/>
    <path d="M84.464,40.769 C89.654,34.374 93.905,27.203 100.145,21.743" fill-opacity="0" stroke="#000000" stroke-width="1" stroke-linecap="round" stroke-linejoin="round"/>
    <path d="M91.782,38.051 C96.261,33.68 99.612,28.472 103.49,23.625" fill-opacity="0" stroke="#000000" stroke-width="1" stroke-linecap="round" stroke-linejoin="round"/>
    <path d="M85.719,20.28 C88.425,26.934 93.083,32.163 97.008,38.051" fill-opacity="0" stroke="#000000" stroke-width="1" stroke-linecap="round" stroke-linejoin="round"/>
    <path d="M90.318,16.517 C93.862,22.639 97.8,28.476 100.772,34.915" fill-opacity="0" stroke="#000000" stroke-width="1" stroke-linecap="round" stroke-linejoin="round"/>
  </g>
</svg>
