<?xml version="1.0" encoding="UTF-8"?>
<!DOCTYPE svg PUBLIC "-//W3C//DTD SVG 1.1//EN" "http://www.w3.org/Graphics/SVG/1.1/DTD/svg11.dtd">
<svg version="1.1" xmlns="http://www.w3.org/2000/svg" xmlns:xlink="http://www.w3.org/1999/xlink" x="0" y="0" width="292.501" height="292.501" viewBox="0, 0, 292.501, 292.501">
  <g id="Layer_1">
    <path d="M126.73,168.89 C129.728,169.266 128.509,168.905 130.467,169.652 C133.409,171.036 134.816,172.785 135.783,175.572 C135.939,176.022 136.01,176.25 136.31,177.244 C137.349,180.689 138.251,182.163 140.737,183.347 C143.188,184.514 148.385,183.38 156.079,180.515 C157.364,180.037 158.707,179.514 160.137,178.938 C162.312,178.062 169.731,174.92 170.802,174.518 C177.406,172.042 182.977,172.912 191.056,176.374 C191.501,176.565 193.976,177.648 194.653,177.934 C195.971,178.489 196.993,178.875 197.938,179.157 C200.288,179.859 202.109,179.878 203.671,179.058 C206.842,177.35 210.08,175.756 213.2,173.954 L216.835,174.997 L237.222,174.997 C267.703,174.997 292.501,199.793 292.501,230.274 C292.292,251.183 279.999,272.116 260.336,280.443 C256.563,276.791 251.968,274.436 247,272.88 C236.564,270.242 226.894,270.925 217.333,276.095 C216.231,275.126 216.941,275.723 215.147,274.372 C209.743,270.761 203.825,268.308 197.255,268.031 L195.268,268.026 L193.284,268.079 C190.028,268.308 186.821,269.024 183.751,270.116 C179.812,271.63 176.063,273.597 172.811,276.323 C168.392,275.745 170.357,275.884 166.927,275.762 C162.163,275.871 157.419,276.543 153.022,278.495 C149.143,277.513 144.006,277.809 140.078,278.511 C137.111,279.147 134.198,279.94 131.481,281.346 C127.391,281.578 129.161,281.344 126.15,281.868 C123.929,278.994 121.142,276.598 118.158,274.555 C112.473,270.748 105.703,268.564 98.491,268.564 C91.854,268.752 85.108,270.065 79.453,273.75 C76.443,274.07 77.785,273.928 75.428,274.177 C74.856,274.238 74.299,274.307 73.662,274.393 C72.772,274.514 71.654,274.678 70.332,274.88 C67.807,275.268 64.615,275.784 61.512,276.307 C58.001,276.9 54.796,277.47 52.271,277.956 C50.68,278.263 49.326,278.542 48.139,278.816 C47.217,279.028 46.364,279.243 45.465,279.503 C42.76,280.153 40.276,281.358 37.849,282.676 C15.021,275.659 0.589,253.524 0,230.274 C0,199.793 24.798,174.997 55.279,174.996 L135.219,174.996 L119.086,170.369 C121.576,169.54 124.132,169.143 126.73,168.89 z M215.187,197.497 L165.194,197.497 C176.5,204.057 184.126,216.288 184.126,230.274 C184.126,244.26 176.5,256.491 165.194,263.051 L223.559,263.051 C212.253,256.491 204.627,244.26 204.627,230.274 C204.627,216.288 212.252,204.058 223.559,197.497 L215.317,197.497 C215.297,197.497 215.277,197.5 215.257,197.5 C215.234,197.5 215.21,197.497 215.187,197.497 z M127.307,197.497 L68.942,197.497 C80.248,204.057 87.874,216.288 87.874,230.274 C87.874,244.26 80.248,256.491 68.942,263.051 L127.307,263.051 C116.001,256.491 108.375,244.26 108.375,230.274 C108.375,216.288 116,204.058 127.307,197.497 z M231.154,206.194 C222.134,210.462 215.877,219.65 215.877,230.274 C215.877,230.997 215.914,231.712 215.971,232.421 C217.03,230.725 218.504,229.254 220.357,228.185 C226.39,224.699 234.104,226.768 237.587,232.802 C241.072,238.833 239.005,246.551 232.97,250.033 C231.003,251.169 228.858,251.704 226.738,251.715 C231.154,254.971 236.606,256.9 242.501,256.9 C248.396,256.9 253.848,254.971 258.264,251.715 C256.145,251.704 254,251.169 252.033,250.033 C246.001,246.551 243.935,238.834 247.418,232.802 C250.9,226.769 258.615,224.7 264.648,228.182 C266.501,229.252 267.975,230.723 269.034,232.419 C269.091,231.712 269.128,230.997 269.128,230.274 C269.128,219.65 262.871,210.464 253.851,206.195 C254.654,207.854 255.117,209.708 255.117,211.675 C255.117,218.641 249.47,224.289 242.502,224.289 C235.536,224.289 229.887,218.642 229.887,211.675 C229.887,209.709 230.351,207.854 231.154,206.194 z M157.599,206.195 C158.403,207.854 158.866,209.708 158.866,211.675 C158.866,218.641 153.217,224.289 146.251,224.289 C139.286,224.289 133.636,218.642 133.636,211.675 C133.636,209.709 134.1,207.854 134.903,206.195 C125.882,210.463 119.626,219.65 119.626,230.274 C119.626,230.996 119.663,231.711 119.72,232.42 C120.778,230.724 122.252,229.254 124.105,228.185 C130.138,224.699 137.853,226.768 141.336,232.802 C144.819,238.833 142.753,246.551 136.72,250.033 C134.753,251.169 132.607,251.704 130.488,251.715 C134.904,254.971 140.356,256.9 146.251,256.9 C152.146,256.9 157.597,254.971 162.014,251.715 C159.894,251.704 157.749,251.169 155.782,250.033 C149.749,246.551 147.684,238.834 151.167,232.802 C154.649,226.769 162.364,224.7 168.397,228.182 C170.249,229.252 171.723,230.723 172.782,232.419 C172.839,231.711 172.876,230.997 172.876,230.274 C172.876,219.65 166.619,210.464 157.599,206.195 z M61.347,206.194 C62.15,207.854 62.613,209.708 62.613,211.675 C62.613,218.641 56.964,224.289 49.998,224.289 C43.031,224.289 37.383,218.642 37.383,211.675 C37.383,209.709 37.846,207.854 38.649,206.195 C29.629,210.463 23.372,219.65 23.372,230.274 C23.372,230.996 23.409,231.711 23.466,232.42 C24.525,230.724 25.999,229.254 27.852,228.185 C33.886,224.699 41.6,226.768 45.083,232.802 C48.566,238.833 46.499,246.551 40.467,250.033 C38.5,251.169 36.355,251.704 34.235,251.715 C38.651,254.971 44.102,256.9 49.998,256.9 C55.893,256.9 61.344,254.971 65.761,251.715 C63.641,251.704 61.496,251.169 59.529,250.033 C53.496,246.551 51.429,238.834 54.914,232.802 C58.396,226.769 66.111,224.7 72.144,228.182 C73.997,229.252 75.471,230.724 76.53,232.42 C76.587,231.711 76.624,230.998 76.624,230.274 C76.624,219.65 70.367,210.462 61.347,206.194 z" fill="#1B1D87"/>
    <path d="M139.765,132.588 C135.878,135.248 131.241,137.671 130.437,142.596 C130.265,144.684 133.297,145.798 139.036,146.618 C139.908,146.743 140.824,146.858 141.906,146.982 C142.324,147.03 144.709,147.292 145.287,147.361 C146.352,147.489 147.018,147.594 147.393,147.698 C150.011,148.43 151.136,149.431 152.781,151.902 C152.887,152.06 152.887,152.06 152.993,152.22 C153.727,153.288 153.325,152.738 154.211,153.864 L107.721,147.833 L187.037,195.056 C184.187,195.66 181.32,196.199 178.456,196.744 C177.176,196.986 175.814,196.591 174.109,195.552 C173.384,195.111 172.607,194.562 171.611,193.802 C171.092,193.407 169.188,191.915 168.84,191.647 C162.432,186.704 157.586,184.546 150.98,184.994 C149.932,185.066 142.732,185.846 140.653,186.035 C139.283,186.161 138,186.263 136.779,186.343 C129.716,186.807 125.026,186.482 123.436,185.156 C121.788,183.781 121.406,182.558 121.301,179.692 C121.268,178.788 121.258,178.578 121.224,178.153 C121.005,175.409 120.08,173.409 117.635,171.389 C114.183,168.775 109.614,169.018 105.513,168.976 L65.341,145.059 C63.005,145.616 60.476,145.616 57.965,144.914 C50.449,142.814 45.948,135.33 47.931,128.232 C49.915,121.135 57.643,117.069 65.16,119.17 C68.14,120.002 70.635,121.689 72.45,123.855 L139.765,132.588 z M63.138,126.407 C59.848,125.487 56.463,127.267 55.595,130.374 C54.727,133.482 56.697,136.758 59.989,137.677 C63.279,138.597 66.663,136.816 67.531,133.71 C68.399,130.602 66.428,127.326 63.138,126.407 z" fill="#1B1D87"/>
    <path d="M181.59,6.466 C188.14,7.148 193.454,10.339 198.199,14.71 C218.459,32.173 239.256,45.681 263.451,57.087 C267.813,58.97 265.286,57.73 270.864,61.144 C272.167,62.346 273.567,63.455 274.773,64.749 C281.865,72.357 281.718,82.756 276.656,90.622 L266.349,106.493 C258.259,119.672 241.36,119.217 230.342,108.068 C229.051,106.957 227.759,105.861 226.463,104.78 L242.203,135.485 C242.748,135.748 243.286,136.035 243.808,136.374 C250.081,140.447 252.076,148.547 248.256,154.43 C244.435,160.313 236.224,161.785 229.951,157.711 C227.558,156.157 225.793,154.015 224.73,151.636 L193.946,137.389 C193.413,136.605 193.188,135.68 192.914,134.801 C192.863,134.626 192.863,134.626 192.811,134.451 C191.954,131.548 191.104,130.141 188.704,128.582 C188.338,128.345 187.733,128.045 186.753,127.602 C186.24,127.371 184.132,126.445 183.767,126.282 C182.821,125.861 182.024,125.497 181.271,125.136 C176.797,122.996 174.535,121.258 175.01,120.086 C176.122,117.336 178.609,116.176 186.092,114.057 L186.739,113.87 L217.527,128.119 L194.297,82.801 C194.01,82.242 193.788,81.67 193.619,81.095 C184.554,75.515 175.117,70.418 165.09,65.692 C150.426,60.159 143.135,44.908 151.883,32.156 L162.191,16.284 C165.374,11.104 170.54,7.434 176.637,6.572 C178.272,6.341 179.939,6.501 181.59,6.466 z M236.612,141.364 C234.555,141.42 233.154,142.269 231.9,143.808 C230.228,146.384 231.101,149.93 233.846,151.713 C236.592,153.496 240.187,152.852 241.86,150.277 C243.532,147.701 242.659,144.155 239.913,142.372 C238.174,141.464 239.241,141.895 236.612,141.364 z M234.809,59.945 C229.775,60.445 225.778,62.9 222.829,66.948 C217.995,74.39 220.508,84.602 228.442,89.755 C236.377,94.907 246.727,93.05 251.561,85.608 C256.394,78.166 253.88,67.956 245.946,62.803 C243.559,61.276 240.869,60.283 238.042,59.982 C236.97,59.868 235.887,59.957 234.809,59.945 z M188.959,30.168 C183.924,30.668 179.928,33.123 176.978,37.171 C172.145,44.613 174.658,54.824 182.592,59.977 C190.527,65.13 200.877,63.274 205.71,55.83 C210.544,48.388 208.03,38.178 200.096,33.025 C197.709,31.499 195.019,30.505 192.192,30.204 C191.12,30.09 190.037,30.18 188.959,30.168 z" fill="#581187"/>
    <path d="M161.066,38.817 C163.417,35.195 165.934,31.65 168.354,28.109" fill-opacity="0" stroke="#000000" stroke-width="1" stroke-linecap="round" stroke-linejoin="round"/>
    <path d="M166.123,40.453 C168.314,37.401 169.888,33.873 171.626,30.637" fill-opacity="0" stroke="#000000" stroke-width="1" stroke-linecap="round" stroke-linejoin="round"/>
    <path d="M162.405,31.529 C164.149,34.809 166.716,37.377 169.097,40.155" fill-opacity="0" stroke="#000000" stroke-width="1" stroke-linecap="round" stroke-linejoin="round"/>
    <path d="M165.528,28.257 C167.302,31.202 168.567,34.359 170.287,37.329" fill-opacity="0" stroke="#000000" stroke-width="1" stroke-linecap="round" stroke-linejoin="round"/>
    <path d="M215.35,48.484 C217.152,51.338 219.371,53.842 221.745,56.217" fill-opacity="0" stroke="#000000" stroke-width="1" stroke-linecap="round" stroke-linejoin="round"/>
    <path d="M214.012,56.068 C215.713,52.614 217.87,49.381 219.812,46.104" fill-opacity="0" stroke="#000000" stroke-width="1" stroke-linecap="round" stroke-linejoin="round"/>
    <path d="M218.027,46.401 C218.045,50.897 217.003,55.207 215.35,59.34" fill-opacity="0" stroke="#000000" stroke-width="1" stroke-linecap="round" stroke-linejoin="round"/>
    <path d="M225.761,49.525 C226.431,51.366 227.574,53.165 228.586,54.73" fill-opacity="0" stroke="#000000" stroke-width="1" stroke-linecap="round" stroke-linejoin="round"/>
    <path d="M223.232,53.094 C223.53,52.697 223.827,52.301 224.125,51.904 C225.513,50.417 226.901,48.93 228.289,47.442" fill-opacity="0" stroke="#000000" stroke-width="1" stroke-linecap="round" stroke-linejoin="round"/>
    <path d="M229.033,44.319 C228.124,47.834 227.157,51.331 226.356,54.879" fill-opacity="0" stroke="#000000" stroke-width="1" stroke-linecap="round" stroke-linejoin="round"/>
    <path d="M207.319,86.854 C207.907,89.529 209.138,92.04 210.145,94.587" fill-opacity="0" stroke="#000000" stroke-width="1" stroke-linecap="round" stroke-linejoin="round"/>
    <path d="M209.996,88.044 C210.239,90.322 211.321,92.441 212.078,94.587" fill-opacity="0" stroke="#000000" stroke-width="1" stroke-linecap="round" stroke-linejoin="round"/>
    <path d="M206.873,90.721 C207.369,90.572 207.864,90.423 208.36,90.275 C210.046,89.531 211.731,88.787 213.417,88.044" fill-opacity="0" stroke="#000000" stroke-width="1" stroke-linecap="round" stroke-linejoin="round"/>
    <path d="M205.534,94.587 C208.928,94.28 211.892,92.468 214.904,91.018" fill-opacity="0" stroke="#000000" stroke-width="1" stroke-linecap="round" stroke-linejoin="round"/>
    <path d="M249.259,95.777 C249.259,98.553 249.259,101.33 249.259,104.106" fill-opacity="0" stroke="#000000" stroke-width="1" stroke-linecap="round" stroke-linejoin="round"/>
    <path d="M254.464,93.398 C254.537,96.644 253.954,99.879 253.423,103.065" fill-opacity="0" stroke="#000000" stroke-width="1" stroke-linecap="round" stroke-linejoin="round"/>
    <path d="M248.366,98.603 C250.653,98.539 252.936,98.626 255.208,98.752" fill-opacity="0" stroke="#000000" stroke-width="1" stroke-linecap="round" stroke-linejoin="round"/>
    <path d="M247.028,102.767 C249.534,102.596 251.909,101.644 254.315,100.983" fill-opacity="0" stroke="#000000" stroke-width="1" stroke-linecap="round" stroke-linejoin="round"/>
    <path d="M268.593,73.915 C270.091,75.737 270.52,77.957 271.121,80.161" fill-opacity="0" stroke="#000000" stroke-width="1" stroke-linecap="round" stroke-linejoin="round"/>
    <path d="M265.172,81.946 C267.266,80.389 269.245,78.683 271.27,77.038" fill-opacity="0" stroke="#000000" stroke-width="1" stroke-linecap="round" stroke-linejoin="round"/>
    <path d="M261.454,76.443 C263.503,78.318 264.842,80.767 266.213,83.136" fill-opacity="0" stroke="#000000" stroke-width="1" stroke-linecap="round" stroke-linejoin="round"/>
    <path d="M259.818,81.5 C260.264,81.153 260.71,80.806 261.157,80.459 C263.09,78.625 265.023,76.79 266.957,74.956" fill-opacity="0" stroke="#000000" stroke-width="1" stroke-linecap="round" stroke-linejoin="round"/>
    <path d="M215.35,134.743 C218.714,135.649 220.589,137.802 222.489,140.245" fill-opacity="0" stroke="#000000" stroke-width="1" stroke-linecap="round" stroke-linejoin="round"/>
    <path d="M215.499,142.922 C218.239,139.285 220.799,135.537 223.084,131.619" fill-opacity="0" stroke="#000000" stroke-width="1" stroke-linecap="round" stroke-linejoin="round"/>
    <path d="M219.514,131.173 C219.556,135.702 217.398,139.826 215.499,143.815" fill-opacity="0" stroke="#000000" stroke-width="1" stroke-linecap="round" stroke-linejoin="round"/>
    <path d="M217.878,130.43 C216.388,133.863 214.398,137.391 212.673,140.84" fill-opacity="0" stroke="#000000" stroke-width="1" stroke-linecap="round" stroke-linejoin="round"/>
  </g>
</svg>
