<?xml version="1.0" encoding="UTF-8"?>
<!DOCTYPE svg PUBLIC "-//W3C//DTD SVG 1.1//EN" "http://www.w3.org/Graphics/SVG/1.1/DTD/svg11.dtd">
<svg version="1.1" xmlns="http://www.w3.org/2000/svg" xmlns:xlink="http://www.w3.org/1999/xlink" x="0" y="0" width="583.393" height="583.393" viewBox="0, 0, 583.393, 583.393">
  <g id="Layer_1">
    <path d="M515.366,286.419 C508.237,249.794 485.329,211.002 451.061,178.836 C408.471,138.863 356.053,115.73 302.403,113 L302.403,99.04 C324.899,94.116 341.803,74.061 341.803,50.11 C341.803,22.482 319.324,0 291.692,0 C264.06,0 241.582,22.482 241.582,50.11 C241.582,74.061 258.485,94.116 280.982,99.04 L280.982,113 C227.331,115.727 174.913,138.86 132.324,178.836 C98.055,211.003 75.148,249.797 68.018,286.419 C33.789,306.744 15.355,332.035 15.355,359.648 C15.355,394.568 44.811,425.789 98.461,447.929 C106.858,459.984 116.766,471.644 127.929,482.626 C125.233,486.22 122.999,490.165 121.332,494.442 C115.334,509.835 117.287,527.075 126.834,542.983 C135.852,558.016 150.732,570.159 168.734,577.172 C179.322,581.301 190.206,583.391 201.088,583.391 C227.851,583.391 249.666,570.807 258.702,550.424 C269.623,552.139 280.642,553.029 291.695,553.029 C302.748,553.029 313.768,552.134 324.688,550.424 C333.721,570.805 355.536,583.391 382.301,583.391 L382.309,583.391 C393.184,583.391 404.067,581.297 414.655,577.172 C432.661,570.158 447.542,558.016 456.559,542.983 C466.106,527.075 468.059,509.835 462.061,494.446 C460.393,490.169 458.157,486.223 455.461,482.628 C466.623,471.646 476.531,459.983 484.928,447.931 C538.578,425.792 568.035,394.574 568.035,359.65 C568.028,332.037 549.597,306.744 515.366,286.419 z M357.036,267.095 C357.208,265.871 357.399,264.656 357.641,263.453 C358.116,261.106 358.741,258.817 359.471,256.577 C359.866,255.375 360.266,254.178 360.729,253.009 C361.668,250.644 362.774,248.376 363.989,246.182 C364.622,245.035 365.276,243.905 365.981,242.813 C374.639,229.361 388.483,219.939 404.844,218.247 C406.586,218.067 408.352,217.975 410.096,217.975 C435.885,217.975 457.805,237.112 463.789,263.563 C464.351,266.054 464.826,268.581 465.096,271.191 C465.123,271.46 465.117,271.727 465.143,271.996 C465.247,273.131 465.289,274.261 465.332,275.384 C465.445,278.385 465.359,281.344 465.059,284.249 C464.981,285.026 464.864,285.791 464.754,286.556 C464.322,289.601 463.692,292.577 462.834,295.458 C456.49,316.786 438.994,333.058 416.949,335.339 C415.209,335.519 413.445,335.61 411.705,335.61 C411.705,335.61 411.701,335.61 411.699,335.61 C383.482,335.608 359.838,312.727 356.701,282.397 C356.161,277.168 356.339,272.049 357.036,267.095 z M244.544,265.832 C245.648,264.351 246.817,262.925 248.054,261.557 C250.349,259.017 252.846,256.673 255.545,254.561 C257.666,252.903 259.899,251.391 262.24,250.033 C267.614,246.911 273.492,244.571 279.761,243.273 C283.617,242.478 287.604,242.052 291.692,242.052 C295.779,242.052 299.768,242.474 303.623,243.273 C309.893,244.57 315.773,246.908 321.144,250.033 C323.503,251.404 325.759,252.928 327.894,254.604 C330.572,256.703 333.05,259.032 335.33,261.557 C336.566,262.928 337.736,264.35 338.84,265.832 C346.16,275.642 350.549,287.76 350.549,300.911 C350.549,333.364 324.143,359.768 291.689,359.768 C259.234,359.768 232.83,333.364 232.83,300.911 C232.834,287.759 237.225,275.642 244.544,265.832 z M118.056,275.385 C118.099,274.259 118.145,273.133 118.246,271.997 C118.27,271.728 118.264,271.461 118.292,271.192 C118.561,268.582 119.036,266.051 119.599,263.564 C125.584,237.113 147.5,217.976 173.293,217.976 C175.037,217.976 176.803,218.068 178.544,218.248 C194.906,219.94 208.746,229.362 217.409,242.814 C218.113,243.91 218.768,245.039 219.401,246.183 C220.616,248.377 221.72,250.644 222.66,253.01 C223.119,254.164 223.514,255.345 223.903,256.532 C224.64,258.787 225.268,261.089 225.748,263.454 C225.99,264.654 226.18,265.869 226.354,267.096 C227.052,272.047 227.229,277.166 226.687,282.399 C223.551,312.735 199.906,335.616 171.687,335.616 C169.943,335.616 168.177,335.524 166.437,335.343 C144.395,333.064 126.898,316.79 120.552,295.462 C119.695,292.579 119.068,289.606 118.633,286.561 C118.532,285.857 118.431,285.157 118.355,284.447 C118.038,281.477 117.94,278.454 118.056,275.385 z M503.833,414.859 C498.806,417.8 493.395,420.63 487.616,423.341 C482.294,425.837 476.657,428.224 470.745,430.507 C424.712,448.259 361.489,459.226 291.693,459.226 C221.894,459.226 158.675,448.259 112.64,430.507 C106.728,428.228 101.095,425.837 95.77,423.341 C89.993,420.632 84.58,417.802 79.555,414.859 C52.548,399.056 36.78,380.074 36.78,359.648 C36.78,343.023 47.266,327.361 65.709,313.586 C65.932,320.475 66.795,326.897 68.221,332.883 C70.078,340.682 72.866,347.742 76.373,354.131 C79.745,360.272 83.775,365.787 88.27,370.746 C102.762,386.738 122.065,396.932 139.626,403.359 C175.413,416.457 223.733,422.558 291.696,422.558 C359.659,422.558 407.98,416.456 443.767,403.359 C461.328,396.933 480.63,386.738 495.122,370.746 C499.608,365.799 503.628,360.293 506.995,354.17 C510.511,347.772 513.307,340.701 515.167,332.883 C516.591,326.901 517.456,320.475 517.681,313.586 C536.122,327.365 546.609,343.024 546.609,359.648 C546.608,380.074 530.841,399.057 503.833,414.859 z" fill="#48A6FF"/>
  </g>
</svg>
