<?xml version="1.0" encoding="UTF-8"?>
<!DOCTYPE svg PUBLIC "-//W3C//DTD SVG 1.1//EN" "http://www.w3.org/Graphics/SVG/1.1/DTD/svg11.dtd">
<svg version="1.1" xmlns="http://www.w3.org/2000/svg" xmlns:xlink="http://www.w3.org/1999/xlink" x="0" y="0" width="583.393" height="583.393" viewBox="0, 0, 583.393, 583.393">
  <g id="Layer_1">
    <path d="M510.764,250.175 C538.086,261.152 563.912,280.093 569.045,309.413 C574.059,342.371 549.177,376.3 498.874,405.329 C492.234,417.976 484.032,430.486 474.482,442.542 C477.685,445.526 480.481,448.911 482.758,452.694 C490.946,466.308 491.475,482.874 484.242,499.334 C477.411,514.889 464.321,528.604 447.378,537.954 C437.416,543.453 426.868,547.079 416.027,548.729 L416.019,548.73 C389.339,552.789 365.785,544.219 353.855,526.355 C343.215,529.625 332.358,532.141 321.34,533.817 C310.322,535.493 299.21,536.325 288.077,536.362 C281.996,556.968 262.056,572.153 235.378,576.211 C224.53,577.861 213.38,577.54 202.233,575.249 C183.281,571.36 166.704,562.157 155.556,549.338 C143.756,535.773 139.334,519.799 143.103,504.363 C144.15,500.074 145.811,496.012 147.982,492.211 C135.278,483.54 123.727,474.039 113.626,463.936 C56.967,451.178 23.121,426.181 18.107,393.226 C13.595,362.955 34.603,337.549 57.202,318.432 L57.44,318.633 C60.513,321.292 62.209,323.631 62.932,326.604 C63.662,329.798 63.715,329.575 63.936,333.711 C63.973,334.412 63.87,335.113 63.837,335.813 C63.177,336.519 63.261,336.41 62.878,337.117 C62.28,338.653 61.684,340.192 60.986,341.685 L60.884,341.707 C60.116,341.993 59.68,342.433 59.337,342.97 C59.202,343.182 59.102,343.385 59.008,343.611 C58.776,344.189 58.604,344.788 58.44,345.388 C46.644,357.861 37.51,372.183 39.465,389.977 C42.398,409.253 60.841,424.776 90.032,435.594 C95.463,437.609 101.266,439.459 107.413,441.139 C113.08,442.687 119.038,444.09 125.259,445.344 C173.697,455.116 238.292,455.878 307.87,445.293 C377.446,434.708 438.895,414.771 482.234,391.037 C487.8,387.985 493.077,384.878 498.024,381.715 C503.395,378.28 508.383,374.789 512.972,371.251 C537.626,352.243 550.617,331.937 547.686,312.66 C544.704,295.23 530.166,282.951 514.637,274.833 C514.107,271.728 514.367,273.242 513.857,270.289 C512.181,260.606 511.536,256.595 510.897,251.376 L510.764,250.175 z" fill="#406CFF"/>
    <path d="M291.692,0 C319.324,0 341.803,22.482 341.803,50.11 C341.803,74.061 324.899,94.116 302.403,99.04 L302.403,113 C356.053,115.73 408.471,138.863 451.061,178.836 C485.329,211.002 508.237,249.794 515.366,286.419 L515.591,286.555 C516.251,290.127 516.714,293.731 517.198,297.329 C517.612,300.445 517.79,301.756 518.041,303.462 C518.235,304.772 518.142,304.146 518.318,305.34 L518.271,305.482 C518.105,306.309 517.988,307.154 517.909,308.041 C517.776,309.544 517.761,310.702 517.793,313.29 L517.797,313.676 L517.681,313.586 C517.456,320.475 516.591,326.901 515.167,332.883 C513.307,340.701 510.511,347.772 506.995,354.17 C503.628,360.293 499.608,365.799 495.122,370.746 C480.63,386.738 461.328,396.933 443.767,403.359 C407.98,416.456 359.659,422.558 291.696,422.558 C223.733,422.558 175.413,416.457 139.626,403.359 C122.065,396.932 102.762,386.738 88.27,370.746 C83.966,366.01 80.179,360.812 77.012,355.253 L76.892,354.641 C76.686,353.598 75.551,348.061 75.527,347.846 C75.068,343.713 74.6,340.021 73.703,333.257 C73.637,332.76 73.637,332.76 73.571,332.263 C73.384,330.856 73.197,329.449 73.013,328.041 C73.023,326.626 73.019,327.33 73.024,325.929 C73.039,318.631 72.812,313.343 72.132,308.129 C71.25,301.635 70.536,295.121 69.861,288.603 L69.877,288.359 C69.849,287.296 69.932,287.773 69.691,286.917 L69.207,281.066 C78.646,241.009 103.59,207.4 132.324,178.836 C174.913,138.86 227.331,115.727 280.982,113 L280.982,99.04 C258.485,94.116 241.582,74.061 241.582,50.11 C241.582,22.482 264.06,0 291.692,0 z M291.692,242.052 C287.604,242.052 283.617,242.478 279.761,243.273 C273.492,244.571 267.614,246.911 262.24,250.033 C259.899,251.391 257.666,252.903 255.545,254.561 C252.846,256.673 250.349,259.017 248.054,261.557 C246.817,262.925 245.648,264.351 244.544,265.832 C237.225,275.642 232.834,287.759 232.83,300.911 C232.83,333.364 259.234,359.768 291.689,359.768 C324.143,359.768 350.549,333.364 350.549,300.911 C350.549,287.76 346.16,275.642 338.84,265.832 C337.736,264.35 336.566,262.928 335.33,261.557 C333.05,259.032 330.572,256.703 327.894,254.604 C325.759,252.928 323.503,251.404 321.144,250.033 C315.773,246.908 309.893,244.57 303.623,243.273 C299.768,242.474 295.779,242.052 291.692,242.052 z M173.293,217.976 C147.5,217.976 125.584,237.113 119.599,263.564 C119.036,266.051 118.561,268.582 118.292,271.192 C118.264,271.461 118.27,271.728 118.246,271.997 C118.145,273.133 118.099,274.259 118.056,275.385 C117.94,278.454 118.038,281.477 118.355,284.447 C118.431,285.157 118.532,285.857 118.633,286.561 C119.068,289.606 119.695,292.579 120.552,295.462 C126.898,316.79 144.395,333.064 166.437,335.343 C168.177,335.524 169.943,335.616 171.687,335.616 C199.906,335.616 223.551,312.735 226.687,282.399 C227.229,277.166 227.052,272.047 226.354,267.096 C226.18,265.869 225.99,264.654 225.748,263.454 C225.268,261.089 224.64,258.787 223.903,256.532 C223.514,255.345 223.119,254.164 222.66,253.01 C221.72,250.644 220.616,248.377 219.401,246.183 C218.768,245.039 218.113,243.91 217.409,242.814 C208.746,229.362 194.906,219.94 178.544,218.248 C176.803,218.068 175.037,217.976 173.293,217.976 z M410.096,217.975 C408.352,217.975 406.586,218.067 404.844,218.247 C388.483,219.939 374.639,229.361 365.981,242.813 C365.276,243.905 364.622,245.035 363.989,246.182 C362.774,248.376 361.668,250.644 360.729,253.009 C360.266,254.178 359.866,255.375 359.471,256.577 C358.741,258.817 358.116,261.106 357.641,263.453 C357.399,264.656 357.208,265.871 357.036,267.095 C356.339,272.049 356.161,277.168 356.701,282.397 C359.838,312.727 383.482,335.608 411.699,335.61 L411.705,335.61 C413.445,335.61 415.209,335.519 416.949,335.339 C438.994,333.058 456.49,316.786 462.834,295.458 C463.692,292.577 464.322,289.601 464.754,286.556 C464.864,285.791 464.981,285.026 465.059,284.249 C465.359,281.344 465.445,278.385 465.332,275.384 C465.289,274.261 465.247,273.131 465.143,271.996 C465.117,271.727 465.123,271.46 465.096,271.191 C464.826,268.581 464.351,266.054 463.789,263.563 C457.805,237.112 435.885,217.975 410.096,217.975 z" fill="#48A6FF"/>
    <path d="M327.266,179.868 C334.754,187.007 342.419,194.622 350.251,201.029" fill-opacity="0" stroke="#000000" stroke-width="1" stroke-linecap="round" stroke-linejoin="round"/>
    <path d="M339.67,169.653 C345.484,179.524 355.934,184.457 363.75,192.273" fill-opacity="0" stroke="#000000" stroke-width="1" stroke-linecap="round" stroke-linejoin="round"/>
    <path d="M324.712,199.935 C338.771,189.104 350.441,172.263 366.304,163.45" fill-opacity="0" stroke="#000000" stroke-width="1" stroke-linecap="round" stroke-linejoin="round"/>
    <path d="M332.738,199.935 C346.625,190.105 359.606,179.17 372.871,168.558" fill-opacity="0" stroke="#000000" stroke-width="1" stroke-linecap="round" stroke-linejoin="round"/>
    <path d="M178.881,523.595 C190.414,513.272 200.508,500.057 210.417,488.798" fill-opacity="0" stroke="#000000" stroke-width="1" stroke-linecap="round" stroke-linejoin="round"/>
    <path d="M205.523,523.052 C216.398,510.405 227.438,497.875 239.234,486.079" fill-opacity="0" stroke="#000000" stroke-width="1" stroke-linecap="round" stroke-linejoin="round"/>
    <path d="M186.493,493.691 C198.981,504.125 213.949,510.937 226.728,520.877" fill-opacity="0" stroke="#000000" stroke-width="1" stroke-linecap="round" stroke-linejoin="round"/>
    <path d="M202.261,487.167 C217.473,492.592 225.744,506.512 241.952,509.459" fill-opacity="0" stroke="#000000" stroke-width="1" stroke-linecap="round" stroke-linejoin="round"/>
    <path d="M383.861,467.049 C390.994,472.994 386.003,468.902 399.085,479.011" fill-opacity="0" stroke="#000000" stroke-width="1" stroke-linecap="round" stroke-linejoin="round"/>
    <path d="M382.23,486.079 C396.495,463.132 391.729,473.263 398.541,456.719" fill-opacity="0" stroke="#000000" stroke-width="1" stroke-linecap="round" stroke-linejoin="round"/>
    <path d="M359.938,469.224 C368.285,477.033 377.881,483.47 387.667,489.341" fill-opacity="0" stroke="#000000" stroke-width="1" stroke-linecap="round" stroke-linejoin="round"/>
    <path d="M369.725,479.555 C376.068,473.574 382.411,467.593 388.755,461.612" fill-opacity="0" stroke="#000000" stroke-width="1" stroke-linecap="round" stroke-linejoin="round"/>
  </g>
</svg>
