<?xml version="1.0" encoding="UTF-8"?>
<!DOCTYPE svg PUBLIC "-//W3C//DTD SVG 1.1//EN" "http://www.w3.org/Graphics/SVG/1.1/DTD/svg11.dtd">
<svg version="1.1" xmlns="http://www.w3.org/2000/svg" xmlns:xlink="http://www.w3.org/1999/xlink" x="0" y="0" width="583.393" height="583.393" viewBox="0, 0, 583.393, 583.393">
  <g id="Layer_1">
    <path d="M510.764,250.175 C538.086,261.152 563.912,280.093 569.045,309.413 C574.059,342.371 549.177,376.3 498.874,405.329 C492.234,417.976 484.032,430.486 474.482,442.542 C477.685,445.526 480.481,448.911 482.758,452.694 C490.946,466.308 491.475,482.874 484.242,499.334 C477.411,514.889 464.321,528.604 447.378,537.954 C437.416,543.453 426.868,547.079 416.027,548.729 L416.019,548.73 C411.577,549.286 413.315,549.162 410.823,549.303 C413.95,541.726 411.779,534.139 406.45,528.242 C402.995,525.12 399.086,523.011 394.378,522.548 L392.482,522.503 L390.591,522.548 C387.842,522.696 385.394,523.808 382.957,524.967 C382.479,520.726 380.294,517.173 377.491,514.071 C374.036,510.949 370.127,508.839 365.419,508.377 L363.523,508.331 L361.633,508.377 C357.049,508.818 352.84,510.87 349.56,514.071 C347.128,516.293 345.89,519.209 344.683,522.182 C343.832,518.332 341.756,515.198 339.29,512.222 C335.835,509.1 331.926,506.991 327.218,506.528 L325.322,506.483 L323.431,506.528 C318.848,506.969 314.639,509.022 311.359,512.222 C309.801,513.947 310.375,513.16 309.503,514.479 C305.932,515.205 302.932,517.219 300.268,519.616 C298.151,521.959 299.285,520.554 297.033,523.959 L295.794,523.78 L293.899,523.735 L292.008,523.78 C287.424,524.221 283.216,526.274 279.936,529.475 C277.704,531.526 276.438,534.189 275.322,536.937 C272.842,537.836 270.78,539.44 268.845,541.181 C266.74,543.511 267.861,542.119 265.64,545.479 C263.093,546.397 260.972,548.02 258.987,549.807 C257.589,551.19 256.53,552.836 255.605,554.555 C252.604,552.094 249.066,550.822 245.27,550.275 L243.375,550.229 L241.484,550.275 C236.9,550.716 232.692,552.768 229.412,555.969 C223.974,561.599 222.106,569.808 225.073,577.114 C217.411,577.665 209.75,576.628 202.233,575.249 C188.882,572.457 176.02,567.038 165.317,558.5 C167.801,557.734 169.807,556.034 171.699,554.325 C179.411,546.612 179.411,534.107 171.699,526.394 C168.244,523.272 164.334,521.162 159.626,520.7 L157.731,520.654 L155.84,520.7 C151.256,521.141 147.048,523.193 143.768,526.394 L143.382,526.82 C141.417,520.358 141.535,513.875 142.492,507.263 C142.633,506.285 142.899,505.329 143.103,504.363 C144.15,500.074 145.811,496.012 147.982,492.211 C135.278,483.54 123.727,474.039 113.626,463.936 C56.967,451.178 23.121,426.181 18.107,393.226 C13.595,362.955 34.603,337.549 57.202,318.432 L57.44,318.633 C60.513,321.292 62.209,323.631 62.932,326.604 C63.662,329.798 63.715,329.575 63.936,333.711 C63.973,334.412 63.87,335.113 63.837,335.813 C63.177,336.519 63.261,336.41 62.878,337.117 C62.28,338.653 61.684,340.192 60.986,341.685 L60.884,341.707 C60.116,341.993 59.68,342.433 59.337,342.97 C59.202,343.182 59.102,343.385 59.008,343.611 C58.776,344.189 58.604,344.788 58.44,345.388 C46.644,357.861 37.51,372.183 39.465,389.977 C42.398,409.253 60.841,424.776 90.032,435.594 C95.463,437.609 101.266,439.459 107.413,441.139 C113.08,442.687 119.038,444.09 125.259,445.344 C173.697,455.116 238.292,455.878 307.87,445.293 C377.446,434.708 438.895,414.771 482.234,391.037 C487.8,387.985 493.077,384.878 498.024,381.715 C503.395,378.28 508.383,374.789 512.972,371.251 C537.626,352.243 550.617,331.937 547.686,312.66 C544.704,295.23 530.166,282.951 514.637,274.833 C514.107,271.728 514.367,273.242 513.857,270.289 C512.181,260.606 511.536,256.595 510.897,251.376 L510.764,250.175 z" fill="#406CFF"/>
    <path d="M309.637,128.312 C311.346,129.313 313.299,129.796 315.197,130.28 C321.376,131.653 326.992,130.794 332.992,128.647 L333.557,128.432 C335.807,131.187 334.63,129.979 337.029,132.115 C343.789,137.523 351.61,138.934 360.506,138.295 C365.535,137.991 370.441,136.834 375.315,135.638 L375.959,136.35 C381.238,141.376 389.355,143.836 396.349,140.996 C396.925,141.625 396.606,141.276 397.305,142.043 C400.342,144.945 403.238,146.406 407.274,147.369 C405.413,154.879 407.078,161.227 412.248,166.947 C414.74,169.292 417.761,171.369 421.185,172.033 C423.368,173.902 426.147,174.724 428.84,175.523 C425.453,181.012 425.689,188.59 428.646,194.185 C429.958,196.669 430.568,197.192 432.171,198.966 C436.86,203.384 443.554,205.768 449.982,204.334 C449.123,208.546 449.318,206.679 449.155,209.904 C449.155,220.812 457.998,229.655 468.905,229.654 L471.04,229.654 C476.679,229.496 479.024,228.236 483.527,225.196 C484.143,228.551 486.275,231.267 488.383,233.831 C491.032,236.434 494.315,238.336 497.975,239.045 C506.002,253.957 511.477,269.984 515.366,286.419 L515.591,286.555 C516.251,290.127 516.714,293.731 517.198,297.329 C517.612,300.445 517.79,301.756 518.041,303.462 C518.235,304.772 518.142,304.146 518.318,305.34 L518.271,305.482 C518.105,306.309 517.988,307.154 517.909,308.041 C517.776,309.544 517.761,310.702 517.793,313.29 L517.797,313.676 L517.681,313.586 C517.456,320.475 516.591,326.901 515.167,332.883 C513.307,340.701 510.511,347.772 506.995,354.17 C503.628,360.293 499.608,365.799 495.122,370.746 C480.63,386.738 461.328,396.933 443.767,403.359 C407.98,416.456 359.659,422.558 291.696,422.558 C223.733,422.558 175.413,416.457 139.626,403.359 C122.065,396.932 102.762,386.738 88.27,370.746 C83.966,366.01 80.179,360.812 77.012,355.253 L76.892,354.641 C76.686,353.598 75.551,348.061 75.527,347.846 C75.068,343.713 74.6,340.021 73.703,333.257 C73.637,332.76 73.637,332.76 73.571,332.263 C73.384,330.856 73.197,329.449 73.013,328.041 C73.023,326.626 73.019,327.33 73.024,325.929 C73.039,318.631 72.812,313.343 72.132,308.129 C70.848,297.799 71.272,301.632 70.732,296.644 C74.387,296.051 77.459,293.888 80.139,291.466 C83.591,287.954 84.776,284.847 85.688,280.142 L86.543,279.37 C90.704,275.118 92.707,269.434 92.237,263.512 C92.166,262.624 91.898,261.763 91.728,260.888 C94.477,260.272 93.043,260.725 95.993,259.414 C98.476,258.102 99,257.492 100.773,255.889 C102.482,254.198 103.857,252.195 104.761,249.969 C106.744,248.802 108.306,247.074 109.744,245.316 C110.658,244.141 111.351,243.017 111.971,241.84 C112.654,240.545 113.209,239.246 113.75,237.801 C114.482,235.863 115.076,233.877 115.657,231.889 L116.214,231.982 C117.293,232.162 116.792,232.078 117.715,232.232 C128.474,234.025 138.65,226.757 140.443,215.998 C140.734,213.472 140.875,213.135 140.533,210.059 C140.445,209.272 140.165,208.519 139.981,207.749 L141.416,206.149 C142.652,204.734 143.917,203.225 145.252,201.583 C146.727,199.753 148.177,197.903 149.632,196.056 L149.689,196.12 C157.402,203.833 169.907,203.833 177.62,196.12 C182.622,190.936 184.666,183.505 182.591,176.531 C181.823,173.951 181.78,173.931 180.937,172.656 L185.69,168.763 L185.978,169.081 C193.69,176.794 206.195,176.794 213.908,169.081 C219.899,162.879 221.403,153.645 217.433,145.931 C216.952,144.995 216.272,144.175 215.692,143.297 L218.127,141.159 L218.928,141.26 C221.894,141.495 224.563,141.178 227.276,140.523 C230.232,139.809 233.057,138.732 236.417,137.217 C237.099,136.909 237.795,136.587 238.544,136.232 C239.378,135.837 242.069,134.538 242.546,134.313 C243.184,134.017 242.913,134.139 243.356,133.942 C244.669,133.508 245.974,133.051 247.279,132.594 C249.295,135.122 251.423,137.269 254.438,138.627 C261.911,142.364 269.868,142.525 278.659,140.642 C284.366,139.419 290.461,137.277 297.166,134.333 C300.664,132.798 304.276,131.064 308.1,129.111 L309.637,128.312 z M291.692,242.052 C287.604,242.052 283.617,242.478 279.761,243.273 C273.492,244.571 267.614,246.911 262.24,250.033 C259.899,251.391 257.666,252.903 255.545,254.561 C252.846,256.673 250.349,259.017 248.054,261.557 C246.817,262.925 245.648,264.351 244.544,265.832 C237.225,275.642 232.834,287.759 232.83,300.911 C232.83,333.364 259.234,359.768 291.689,359.768 C324.143,359.768 350.549,333.364 350.549,300.911 C350.549,287.76 346.16,275.642 338.84,265.832 C337.736,264.35 336.566,262.928 335.33,261.557 C333.05,259.032 330.572,256.703 327.894,254.604 C325.759,252.928 323.503,251.404 321.144,250.033 C315.773,246.908 309.893,244.57 303.623,243.273 C299.768,242.474 295.779,242.052 291.692,242.052 z M173.293,217.976 C147.5,217.976 125.584,237.113 119.599,263.564 C119.036,266.051 118.561,268.582 118.292,271.192 C118.264,271.461 118.27,271.728 118.246,271.997 C118.145,273.133 118.099,274.259 118.056,275.385 C117.94,278.454 118.038,281.477 118.355,284.447 C118.431,285.157 118.532,285.857 118.633,286.561 C119.068,289.606 119.695,292.579 120.552,295.462 C126.898,316.79 144.395,333.064 166.437,335.343 C168.177,335.524 169.943,335.616 171.687,335.616 C199.906,335.616 223.551,312.735 226.687,282.399 C227.229,277.166 227.052,272.047 226.354,267.096 C226.18,265.869 225.99,264.654 225.748,263.454 C225.268,261.089 224.64,258.787 223.903,256.532 C223.514,255.345 223.119,254.164 222.66,253.01 C221.72,250.644 220.616,248.377 219.401,246.183 C218.768,245.039 218.113,243.91 217.409,242.814 C208.746,229.362 194.906,219.94 178.544,218.248 C176.803,218.068 175.037,217.976 173.293,217.976 z M410.096,217.975 C408.352,217.975 406.586,218.067 404.844,218.247 C388.483,219.939 374.639,229.361 365.981,242.813 C365.276,243.905 364.622,245.035 363.989,246.182 C362.774,248.376 361.668,250.644 360.729,253.009 C360.266,254.178 359.866,255.375 359.471,256.577 C358.741,258.817 358.116,261.106 357.641,263.453 C357.399,264.656 357.208,265.871 357.036,267.095 C356.339,272.049 356.161,277.168 356.701,282.397 C359.838,312.727 383.482,335.608 411.699,335.61 L411.705,335.61 C413.445,335.61 415.209,335.519 416.949,335.339 C438.994,333.058 456.49,316.786 462.834,295.458 C463.692,292.577 464.322,289.601 464.754,286.556 C464.864,285.791 464.981,285.026 465.059,284.249 C465.359,281.344 465.445,278.385 465.332,275.384 C465.289,274.261 465.247,273.131 465.143,271.996 C465.117,271.727 465.123,271.46 465.096,271.191 C464.826,268.581 464.351,266.054 463.789,263.563 C457.805,237.112 435.885,217.975 410.096,217.975 z" fill="#619FFF"/>
    <path d="M243.129,134.017 C242.835,134.12 242.975,134.074 242.71,134.155 L243.129,134.017 z" fill="#619FFF"/>
    <path d="M534.479,52.068 C554.93,70.649 556.449,102.405 537.871,122.854 C521.764,140.58 495.767,144.056 475.806,132.573 L468.81,140.273 C463.184,135.829 457.823,130.502 454.713,123.933 L459.952,118.168 C446.612,99.395 447.588,73.185 463.694,55.458 C482.273,35.01 514.028,33.486 534.479,52.068 z" fill="#9A24FF" display="none"/>
    <path d="M327.266,179.868 C334.754,187.007 342.419,194.622 350.251,201.029" fill-opacity="0" stroke="#000000" stroke-width="1" stroke-linecap="round" stroke-linejoin="round"/>
    <path d="M339.67,169.653 C345.484,179.524 355.934,184.457 363.75,192.273" fill-opacity="0" stroke="#000000" stroke-width="1" stroke-linecap="round" stroke-linejoin="round"/>
    <path d="M324.712,199.935 C338.771,189.104 350.441,172.263 366.304,163.45" fill-opacity="0" stroke="#000000" stroke-width="1" stroke-linecap="round" stroke-linejoin="round"/>
    <path d="M332.738,199.935 C346.625,190.105 359.606,179.17 372.871,168.558" fill-opacity="0" stroke="#000000" stroke-width="1" stroke-linecap="round" stroke-linejoin="round"/>
    <path d="M178.881,523.595 C190.414,513.272 200.508,500.057 210.417,488.798" fill-opacity="0" stroke="#000000" stroke-width="1" stroke-linecap="round" stroke-linejoin="round"/>
    <path d="M205.523,523.052 C216.398,510.405 227.438,497.875 239.234,486.079" fill-opacity="0" stroke="#000000" stroke-width="1" stroke-linecap="round" stroke-linejoin="round"/>
    <path d="M186.493,493.691 C198.981,504.125 213.949,510.937 226.728,520.877" fill-opacity="0" stroke="#000000" stroke-width="1" stroke-linecap="round" stroke-linejoin="round"/>
    <path d="M202.261,487.167 C217.473,492.592 225.744,506.512 241.952,509.459" fill-opacity="0" stroke="#000000" stroke-width="1" stroke-linecap="round" stroke-linejoin="round"/>
    <path d="M383.861,467.049 C390.994,472.994 386.003,468.902 399.085,479.011" fill-opacity="0" stroke="#000000" stroke-width="1" stroke-linecap="round" stroke-linejoin="round"/>
    <path d="M382.23,486.079 C396.495,463.132 391.729,473.263 398.541,456.719" fill-opacity="0" stroke="#000000" stroke-width="1" stroke-linecap="round" stroke-linejoin="round"/>
    <path d="M359.938,469.224 C368.285,477.033 377.881,483.47 387.667,489.341" fill-opacity="0" stroke="#000000" stroke-width="1" stroke-linecap="round" stroke-linejoin="round"/>
    <path d="M369.725,479.555 C376.068,473.574 382.411,467.593 388.755,461.612" fill-opacity="0" stroke="#000000" stroke-width="1" stroke-linecap="round" stroke-linejoin="round"/>
    <path d="M331.218,394.124 C348.127,386.878 334.473,393.257 366.523,365.881" fill-opacity="0" stroke="#000000" stroke-width="1" stroke-linecap="round" stroke-linejoin="round"/>
    <path d="M353.685,394.124 C367.846,384.515 384.35,377.01 397.334,365.881" fill-opacity="0" stroke="#000000" stroke-width="1" stroke-linecap="round" stroke-linejoin="round"/>
    <path d="M345.34,364.597 C357.362,375.913 362.372,397.448 379.361,403.111" fill-opacity="0" stroke="#000000" stroke-width="1" stroke-linecap="round" stroke-linejoin="round"/>
    <path d="M365.239,358.178 C374.719,370.263 384.511,381.46 396.05,391.557" fill-opacity="0" stroke="#000000" stroke-width="1" stroke-linecap="round" stroke-linejoin="round"/>
    <path d="M448.685,341.489 C455.48,342.434 461.088,346.762 466.658,350.475" fill-opacity="0" stroke="#000000" stroke-width="1" stroke-linecap="round" stroke-linejoin="round"/>
    <path d="M457.672,358.178 C461.523,348.55 465.375,338.921 469.226,329.293" fill-opacity="0" stroke="#000000" stroke-width="1" stroke-linecap="round" stroke-linejoin="round"/>
    <path d="M474.361,329.293 C479.282,331.646 484.204,334 489.125,336.354" fill-opacity="0" stroke="#000000" stroke-width="1" stroke-linecap="round" stroke-linejoin="round"/>
    <path d="M476.929,333.144 C480.352,326.297 483.776,319.45 487.199,312.603" fill-opacity="0" stroke="#000000" stroke-width="1" stroke-linecap="round" stroke-linejoin="round"/>
    <path d="M446.76,458.956 C449.595,465.778 454.208,471.624 460.24,475.645" fill-opacity="0" stroke="#000000" stroke-width="1" stroke-linecap="round" stroke-linejoin="round"/>
    <path d="M453.821,448.685 C458.742,455.532 463.663,462.379 468.584,469.226" fill-opacity="0" stroke="#000000" stroke-width="1" stroke-linecap="round" stroke-linejoin="round"/>
    <path d="M451.253,468.584 C455.104,465.589 458.956,462.593 462.807,459.598" fill-opacity="0" stroke="#000000" stroke-width="1" stroke-linecap="round" stroke-linejoin="round"/>
    <path d="M448.685,475.645 C455.532,471.794 462.379,467.942 469.226,464.091" fill-opacity="0" stroke="#000000" stroke-width="1" stroke-linecap="round" stroke-linejoin="round"/>
    <path d="M227.873,177.163 C235.58,189.343 247.081,196.964 253.549,209.9" fill-opacity="0" stroke="#000000" stroke-width="1" stroke-linecap="round" stroke-linejoin="round"/>
    <path d="M235.576,202.197 C242.851,191.285 250.126,180.373 257.4,169.461" fill-opacity="0" stroke="#000000" stroke-width="1" stroke-linecap="round" stroke-linejoin="round"/>
    <path d="M252.907,164.967 C260.937,177.88 269.612,190.824 279.225,202.839" fill-opacity="0" stroke="#000000" stroke-width="1" stroke-linecap="round" stroke-linejoin="round"/>
    <path d="M254.191,198.346 C280.677,166.426 269.39,176.782 284.36,163.684" fill-opacity="0" stroke="#000000" stroke-width="1" stroke-linecap="round" stroke-linejoin="round"/>
  </g>
</svg>
