<?xml version="1.0" encoding="UTF-8"?>
<!DOCTYPE svg PUBLIC "-//W3C//DTD SVG 1.1//EN" "http://www.w3.org/Graphics/SVG/1.1/DTD/svg11.dtd">
<svg version="1.1" xmlns="http://www.w3.org/2000/svg" xmlns:xlink="http://www.w3.org/1999/xlink" x="0" y="0" width="60.675" height="60.675" viewBox="0, 0, 60.675, 60.675">
  <g id="Layer_1">
    <path d="M22.825,37.846 C20.66,38.22 15.429,39.148 15.429,39.148 C15.311,39.169 15.209,39.234 15.145,39.331 C15.08,39.428 15.058,39.547 15.083,39.666 L16.167,44.641 C16.212,44.847 16.367,44.932 16.542,44.842 C17.912,44.136 21.173,42.166 23.301,38.516 C23.562,38.069 23.333,37.758 22.825,37.846 z M29.333,22.633 C29.68,22.484 30.061,22.4 30.462,22.4 C30.926,22.4 31.363,22.509 31.753,22.702 C32.216,22.929 32.52,22.821 32.529,22.304 C32.602,17.994 32.676,10.199 32.341,6.557 C32.294,6.043 31.815,5.629 31.298,5.629 L29.592,5.629 C29.075,5.629 28.69,6.046 28.716,6.562 C28.925,10.727 28.726,18.015 28.578,22.194 C28.56,22.711 28.858,22.837 29.333,22.633 z M38.202,48.876 L39.242,48.876 C39.759,48.876 40.227,48.584 40.395,48.268 C40.562,47.952 40.394,47.565 39.937,47.324 C39.384,47.03 38.728,46.651 38.033,46.188 C37.604,45.903 37.267,46.072 37.267,46.588 L37.267,47.942 C37.269,48.458 37.687,48.876 38.202,48.876 z M27.864,47.941 C27.864,48.458 28.282,48.875 28.799,48.875 L28.935,48.875 C29.452,48.875 29.87,48.457 29.87,47.941 L29.87,41.353 C29.87,41.094 30.079,40.885 30.337,40.885 C30.596,40.885 30.805,41.094 30.805,41.353 L30.805,47.941 C30.805,48.458 31.223,48.875 31.74,48.875 L32.057,48.875 C32.574,48.875 32.992,48.457 32.992,47.941 L32.992,40.648 C32.992,40.606 32.999,40.565 33.011,40.527 C33.032,40.463 33.034,40.258 33.011,40.065 C32.996,39.939 32.989,39.82 32.989,39.714 L32.989,37.051 C32.989,36.652 32.776,36.074 32.534,35.815 C32.131,35.383 31.827,34.578 31.827,33.94 L31.827,31.432 C31.827,31.34 31.818,31.26 31.806,31.193 C31.781,31.061 31.31,30.964 30.793,30.964 L30.07,30.964 C29.553,30.964 29.084,31.061 29.058,31.193 C29.045,31.26 29.036,31.34 29.036,31.432 L29.036,33.94 C29.036,34.578 28.732,35.383 28.33,35.814 C28.088,36.075 27.875,36.652 27.875,37.051 L27.875,39.714 C27.875,39.82 27.865,39.941 27.852,40.068 C27.828,40.262 27.828,40.465 27.849,40.529 C27.861,40.566 27.868,40.605 27.868,40.647 L27.868,47.941 L27.864,47.941 z M34.859,48.876 L35.399,48.876 C35.916,48.876 36.334,48.458 36.334,47.942 L36.334,45.858 C36.334,45.341 36.011,44.657 35.635,44.303 C35.237,43.929 34.854,43.528 34.496,43.1 C34.164,42.704 33.925,42.778 33.925,43.294 L33.925,47.941 C33.924,48.458 34.343,48.876 34.859,48.876 z M18.11,34.406 C20.214,34.406 22.962,33.557 24.796,32.342 C25.062,32.166 25.254,31.677 25.169,31.392 C24.801,30.158 23.684,28.074 20.338,27.986 C20.136,27.987 15.037,28.056 14.9,32.068 C14.877,32.711 15.043,33.206 15.407,33.582 C15.928,34.121 16.862,34.406 18.11,34.406 z M25.528,48.876 L25.995,48.876 C26.512,48.876 26.929,48.458 26.929,47.942 L26.929,43.29 C26.929,42.773 26.688,42.698 26.353,43.09 C26.02,43.481 25.665,43.848 25.296,44.19 C24.919,44.542 24.593,45.223 24.593,45.74 L24.593,47.942 C24.594,48.458 25.012,48.876 25.528,48.876 z M26.819,24.469 C27.226,24.786 27.549,24.657 27.569,24.141 C27.698,20.831 28.028,11.371 27.783,6.562 C27.758,6.046 27.305,5.629 26.789,5.629 L22.801,5.629 C18.17,5.629 12.866,8.814 10.493,12.895 C10.234,13.341 10.014,14.139 9.957,14.652 L9.031,23.048 C8.974,23.561 8.792,24.371 8.625,24.86 C8.143,26.264 7.139,29.216 5.975,32.774 C5.814,33.264 5.942,33.333 6.266,32.931 C9.598,28.812 15.295,22.969 21.05,22.615 C23.152,22.485 25.083,23.115 26.819,24.469 z M12.005,28.23 C9.116,30.798 6.708,33.825 5.334,35.691 C5.028,36.107 4.661,36.847 4.505,37.339 C2.737,42.924 0.945,48.975 0.197,52.728 C0.095,53.235 -0.027,53.853 0.006,54.121 C0.036,54.389 0.483,54.487 0.983,54.366 C2.134,54.089 4.312,53.631 7.112,53.352 C7.626,53.301 8.126,52.859 8.228,52.352 C9.202,47.521 11.592,35.452 12.582,28.546 C12.656,28.035 12.39,27.887 12.005,28.23 z M30.462,27.345 C31.567,27.345 32.466,26.445 32.466,25.339 C32.466,24.233 31.567,23.334 30.462,23.334 C29.361,23.334 28.466,24.225 28.458,25.324 C28.46,26.448 29.358,27.345 30.462,27.345 z M40.125,28.28 C36.793,28.367 35.677,30.453 35.31,31.687 C35.225,31.972 35.417,32.46 35.683,32.637 C37.516,33.852 40.265,34.7 42.368,34.7 C43.615,34.7 44.55,34.415 45.072,33.874 C45.435,33.498 45.601,33.004 45.579,32.361 C45.441,28.349 40.343,28.281 40.125,28.28 z M46.572,26.045 C44.5,24.593 42.26,23.541 40.024,23.407 C37.647,23.266 35.486,24.198 33.58,26.178 C33.223,26.55 32.743,27.246 32.352,27.581 C31.842,28.016 31.183,28.279 30.462,28.279 C29.735,28.279 29.075,28.012 28.564,27.573 C28.172,27.237 27.695,26.54 27.335,26.17 C25.502,24.287 23.406,23.405 21.109,23.547 C18.878,23.685 16.624,24.749 14.515,26.232 C14.092,26.528 13.711,27.199 13.643,27.711 C12.763,34.319 10.253,47.033 9.197,52.281 C9.096,52.787 9.43,53.171 9.945,53.15 C11.992,53.065 14.246,53.102 16.606,53.365 C16.893,53.397 17.072,53.59 17.062,53.703 C17.038,54.013 17.147,54.291 17.371,54.488 C17.642,54.727 18.046,54.81 18.477,54.719 C20.192,54.361 24.745,53.531 30.194,53.531 C30.242,53.531 30.29,53.531 30.337,53.531 C35.904,53.546 40.947,54.571 42.858,55.01 C42.962,55.034 43.065,55.046 43.167,55.046 C43.438,55.046 43.697,54.963 43.906,54.805 C44.195,54.587 44.366,54.253 44.385,53.867 L44.406,53.444 C44.422,53.153 44.683,52.869 44.968,52.837 C47.334,52.567 49.54,52.504 51.507,52.555 C52.024,52.568 52.35,52.179 52.238,51.675 C50.988,45.997 48.32,33.619 47.453,27.522 C47.379,27.012 46.994,26.34 46.572,26.045 z M20.349,27.05 C24.297,27.154 25.623,29.648 26.064,31.124 C26.265,31.801 25.921,32.715 25.311,33.119 C23.309,34.448 20.416,35.34 18.11,35.34 C16.603,35.34 15.436,34.956 14.734,34.23 C14.193,33.67 13.934,32.931 13.964,32.034 C14.101,28.103 18.2,27.055 20.349,27.05 z M16.402,45.814 C15.842,45.814 15.381,45.421 15.256,44.839 L14.172,39.864 C14.091,39.494 14.161,39.119 14.368,38.809 C14.576,38.5 14.895,38.292 15.266,38.227 L23.554,36.756 C24.038,36.671 24.402,36.823 24.594,37.134 C24.692,37.293 24.821,37.631 24.581,38.11 C22.368,42.537 18.52,44.872 16.97,45.671 C16.788,45.765 16.597,45.814 16.402,45.814 z M40.541,50.665 C40.249,50.24 39.76,49.811 39.243,49.811 L22.327,49.811 C21.81,49.811 21.321,50.241 21.029,50.665 C20.607,51.277 19.901,51.68 19.103,51.68 C17.814,51.68 16.766,50.632 16.766,49.344 C16.766,48.42 17.306,47.625 18.086,47.249 C18.55,47.024 19.374,46.866 19.843,46.649 C21.448,45.905 24.823,44.081 26.563,41.228 C26.787,40.86 26.937,40.148 26.937,39.714 L26.937,37.051 C26.937,36.413 27.241,35.607 27.644,35.176 C27.886,34.917 28.099,34.339 28.099,33.94 L28.099,31.432 C28.099,30.62 28.497,30.03 29.046,30.03 L31.811,30.03 C32.36,30.03 32.758,30.62 32.758,31.432 L32.758,33.94 C32.758,34.339 32.971,34.917 33.213,35.177 C33.616,35.607 33.92,36.413 33.92,37.051 L33.92,39.714 C33.92,40.147 34.07,40.86 34.294,41.23 C35.994,44.044 39.234,45.929 40.866,46.746 C41.328,46.977 41.873,47.083 42.082,47.044 C42.207,47.02 42.334,47.007 42.466,47.007 C43.754,47.007 44.802,48.055 44.802,49.344 C44.802,50.632 43.754,51.68 42.466,51.68 C41.667,51.679 40.963,51.277 40.541,50.665 z M45.994,40.159 L44.91,45.135 C44.784,45.717 44.323,46.11 43.763,46.11 C43.57,46.11 43.378,46.061 43.196,45.967 C41.644,45.168 37.797,42.833 35.585,38.405 C35.346,37.926 35.474,37.589 35.571,37.429 C35.764,37.118 36.127,36.967 36.613,37.051 L44.898,38.522 C45.271,38.587 45.589,38.794 45.797,39.104 C46.005,39.414 46.075,39.789 45.994,40.159 z M45.743,34.525 C45.041,35.252 43.874,35.635 42.367,35.635 C40.061,35.635 37.169,34.742 35.166,33.415 C34.556,33.009 34.212,32.096 34.414,31.419 C34.853,29.942 36.179,27.447 40.115,27.345 C42.276,27.349 46.377,28.397 46.512,32.328 C46.544,33.226 46.285,33.964 45.743,34.525 z M60.476,51.855 C59.745,48.19 58.006,42.333 56.269,36.86 C56.113,36.368 55.748,35.626 55.445,35.208 C54.296,33.622 51.972,30.634 49.091,28.059 C48.705,27.714 48.443,27.861 48.523,28.37 C49.523,34.805 52.048,46.476 53.208,51.735 C53.319,52.239 53.826,52.673 54.34,52.717 C56.792,52.927 58.659,53.279 59.693,53.509 C60.196,53.62 60.64,53.516 60.671,53.248 C60.699,52.98 60.576,52.361 60.476,51.855 z M37.332,38.132 C36.824,38.042 36.597,38.346 36.855,38.791 C38.99,42.459 42.251,44.43 43.623,45.136 C43.8,45.226 43.953,45.139 43.998,44.935 L45.082,39.959 C45.107,39.84 45.086,39.721 45.021,39.624 C44.956,39.527 44.855,39.463 44.735,39.441 L37.332,38.132 z M42.466,47.941 C43.24,47.941 43.868,48.569 43.868,49.343 C43.868,50.117 43.24,50.745 42.466,50.745 C41.692,50.745 41.064,50.117 41.064,49.343 C41.064,48.569 41.693,47.941 42.466,47.941 z M34.115,24.442 C35.914,23.013 37.906,22.347 40.081,22.474 C45.82,22.817 51.379,28.552 54.485,32.397 C54.81,32.799 54.936,32.731 54.775,32.242 C53.558,28.539 52.5,25.45 52,24.003 C51.831,23.515 51.618,22.708 51.524,22.201 L50.073,14.277 C49.98,13.769 49.696,12.994 49.401,12.57 C46.676,8.671 41.095,5.629 36.465,5.629 L34.109,5.629 C33.592,5.629 33.23,6.044 33.276,6.558 C33.669,10.98 33.504,20.666 33.428,24.119 C33.417,24.634 33.711,24.763 34.115,24.442 z M19.104,47.941 C19.878,47.941 20.506,48.569 20.506,49.343 C20.506,50.117 19.878,50.745 19.104,50.745 C18.33,50.745 17.702,50.117 17.702,49.343 C17.702,48.569 18.33,47.941 19.104,47.941 z M23.659,47.941 L23.659,46.458 C23.659,45.941 23.318,45.769 22.885,46.049 C22.307,46.422 21.751,46.738 21.256,46.999 C20.799,47.239 20.773,47.638 21.048,48.052 C21.323,48.465 21.811,48.876 22.327,48.876 L22.724,48.876 C23.241,48.876 23.659,48.458 23.659,47.941 z" fill="#280050"/>
  </g>
</svg>
