<?xml version="1.0" encoding="UTF-8"?>
<!DOCTYPE svg PUBLIC "-//W3C//DTD SVG 1.1//EN" "http://www.w3.org/Graphics/SVG/1.1/DTD/svg11.dtd">
<svg version="1.1" xmlns="http://www.w3.org/2000/svg" xmlns:xlink="http://www.w3.org/1999/xlink" x="0" y="0" width="60.675" height="60.675" viewBox="0, 0, 60.675, 60.675">
  <g id="Layer_1">
    <path d="M39.143,23.404 L40.024,23.407 C42.26,23.541 44.5,24.593 46.572,26.045 C46.994,26.34 47.379,27.012 47.453,27.522 C49.282,37.697 48.398,33.139 50.035,41.211 C49.482,41.008 49.754,41.112 49.218,40.899 C48.057,40.899 47.425,40.861 46.523,41.723 C45.352,42.895 45.352,44.794 46.523,45.966 L46.529,45.97 C46.159,47.063 46.296,47.822 46.903,48.74 L46.737,48.87 C46.045,49.61 45.743,50.553 45.913,51.565 C45.961,51.85 46.132,52.101 46.241,52.369 C45.622,52.011 45.976,52.184 45.164,51.887 C44.362,51.855 43.502,51.914 42.845,52.421 C41.791,52.431 42.368,52.37 41.126,52.686 L41.058,52.604 C40.287,51.974 40.775,52.296 39.51,51.78 C38.639,51.789 38.979,51.723 38.474,51.852 L38.392,51.751 C37.621,51.121 38.109,51.443 36.843,50.927 C35.682,50.927 35.05,50.889 34.149,51.751 C33.681,52.323 33.841,52.034 33.616,52.586 C32.286,52.925 32.838,52.634 31.909,53.351 L31.718,53.584 C31.126,53.562 31.587,53.58 30.337,53.531 L30.194,53.531 C24.745,53.531 20.192,54.361 18.477,54.719 C18.046,54.81 17.642,54.727 17.371,54.488 C17.147,54.291 17.038,54.013 17.062,53.703 C17.072,53.59 16.893,53.397 16.606,53.365 C14.475,53.174 15.442,53.225 13.707,53.175 C14.445,51.827 14.276,50.571 13.322,49.404 C12.551,48.774 13.039,49.096 11.774,48.58 C11.256,48.527 10.797,48.621 10.306,48.758 C10.306,47.906 10.392,48.284 10.118,47.61 C12.569,34.796 11.383,41.427 13.643,27.711 C13.711,27.199 14.092,26.528 14.515,26.232 C16.624,24.749 18.878,23.685 21.109,23.547 C23.406,23.405 25.502,24.287 27.335,26.17 C27.695,26.54 28.172,27.237 28.564,27.573 C29.075,28.012 29.735,28.279 30.462,28.279 C31.183,28.279 31.842,28.016 32.352,27.581 C32.743,27.246 33.223,26.55 33.58,26.178 C35.307,24.357 36.747,23.821 39.143,23.404 z M31.811,30.03 L29.046,30.03 C28.497,30.03 28.099,30.62 28.099,31.432 L28.099,33.94 C28.099,34.339 27.886,34.917 27.644,35.176 C27.241,35.607 26.937,36.413 26.937,37.051 L26.937,39.714 C26.937,40.148 26.787,40.86 26.563,41.228 C24.823,44.081 21.448,45.905 19.843,46.649 C19.374,46.866 18.55,47.024 18.086,47.249 C17.306,47.625 16.766,48.42 16.766,49.344 C16.766,50.632 17.814,51.68 19.103,51.68 C19.901,51.68 20.607,51.277 21.029,50.665 C21.321,50.241 21.81,49.811 22.327,49.811 L39.243,49.811 C39.76,49.811 40.249,50.24 40.541,50.665 C40.963,51.277 41.667,51.679 42.466,51.68 C43.754,51.68 44.802,50.632 44.802,49.344 C44.802,48.055 43.754,47.007 42.466,47.007 C42.334,47.007 42.207,47.02 42.082,47.044 C41.873,47.083 41.328,46.977 40.866,46.746 C39.234,45.929 35.994,44.044 34.294,41.23 C34.07,40.86 33.92,40.147 33.92,39.714 L33.92,37.051 C33.92,36.413 33.616,35.607 33.213,35.177 C32.971,34.917 32.758,34.339 32.758,33.94 L32.758,31.432 C32.758,30.62 32.36,30.03 31.811,30.03 z M42.466,47.941 C43.24,47.941 43.868,48.569 43.868,49.343 C43.868,50.117 43.24,50.745 42.466,50.745 C41.692,50.745 41.064,50.117 41.064,49.343 C41.064,48.569 41.693,47.941 42.466,47.941 z M19.104,47.941 C19.878,47.941 20.506,48.569 20.506,49.343 C20.506,50.117 19.878,50.745 19.104,50.745 C18.33,50.745 17.702,50.117 17.702,49.343 C17.702,48.569 18.33,47.941 19.104,47.941 z M37.732,46.058 L38.033,46.188 C38.728,46.651 39.384,47.03 39.937,47.324 C40.394,47.565 40.562,47.952 40.395,48.268 C40.227,48.584 39.759,48.876 39.242,48.876 L38.202,48.876 C37.687,48.876 37.269,48.458 37.267,47.942 L37.267,46.588 C37.354,46.118 37.23,46.318 37.732,46.058 z M34.267,42.89 L34.496,43.1 C34.854,43.528 35.237,43.929 35.635,44.303 C36.011,44.657 36.334,45.341 36.334,45.858 L36.334,47.942 C36.334,48.458 35.916,48.876 35.399,48.876 L34.859,48.876 C34.343,48.876 33.924,48.458 33.925,47.941 L33.925,43.294 C33.982,42.886 33.871,43.023 34.267,42.891 z M26.584,42.883 C26.983,43.018 26.871,42.88 26.929,43.29 L26.929,47.942 C26.929,48.458 26.512,48.876 25.995,48.876 L25.528,48.876 C25.012,48.876 24.594,48.458 24.593,47.942 L24.593,45.74 C24.593,45.223 24.919,44.542 25.296,44.19 C25.665,43.848 26.02,43.481 26.353,43.09 L26.584,42.883 z M23.189,45.922 C23.695,46.187 23.571,45.985 23.659,46.458 L23.659,47.941 C23.659,48.458 23.241,48.876 22.724,48.876 L22.327,48.876 C21.811,48.876 21.323,48.465 21.048,48.052 C20.773,47.638 20.799,47.239 21.256,46.999 C21.751,46.738 22.307,46.422 22.885,46.049 L23.189,45.922 z M30.793,30.964 C31.31,30.964 31.781,31.061 31.806,31.193 C31.818,31.26 31.827,31.34 31.827,31.432 L31.827,33.94 C31.827,34.578 32.131,35.383 32.534,35.815 C32.776,36.074 32.989,36.652 32.989,37.051 L32.989,39.714 C32.989,39.82 32.996,39.939 33.011,40.065 C33.034,40.258 33.032,40.463 33.011,40.527 C32.999,40.565 32.992,40.606 32.992,40.648 L32.992,47.941 C32.992,48.457 32.574,48.875 32.057,48.875 L31.74,48.875 C31.223,48.875 30.805,48.458 30.805,47.941 L30.805,41.353 C30.805,41.094 30.596,40.885 30.337,40.885 C30.079,40.885 29.87,41.094 29.87,41.353 L29.87,47.941 C29.87,48.457 29.452,48.875 28.935,48.875 L28.799,48.875 C28.282,48.875 27.864,48.458 27.864,47.941 L27.868,47.941 L27.868,40.647 C27.868,40.605 27.861,40.566 27.849,40.529 C27.828,40.465 27.828,40.262 27.852,40.068 C27.865,39.941 27.875,39.82 27.875,39.714 L27.875,37.051 C27.875,36.652 28.088,36.075 28.33,35.814 C28.732,35.383 29.036,34.578 29.036,33.94 L29.036,31.432 C29.036,31.34 29.045,31.26 29.058,31.193 C29.084,31.061 29.553,30.964 30.07,30.964 L30.793,30.964 z M36.272,37.031 C35.663,37.258 35.87,37.086 35.571,37.429 C35.474,37.589 35.346,37.926 35.585,38.405 C37.797,42.833 41.644,45.168 43.196,45.967 C43.378,46.061 43.57,46.11 43.763,46.11 C44.323,46.11 44.784,45.717 44.91,45.135 L45.994,40.159 C46.075,39.789 46.005,39.414 45.797,39.104 C45.589,38.794 45.271,38.587 44.898,38.522 L36.613,37.051 L36.272,37.031 z M37.332,38.132 L44.735,39.441 C44.855,39.463 44.956,39.527 45.021,39.624 C45.086,39.721 45.107,39.84 45.082,39.959 L43.998,44.935 C43.953,45.139 43.8,45.226 43.623,45.136 C42.251,44.43 38.99,42.459 36.855,38.791 C36.597,38.346 36.824,38.042 37.332,38.132 z M23.894,36.735 L23.554,36.756 L15.266,38.227 C14.895,38.292 14.576,38.5 14.368,38.809 C14.161,39.119 14.091,39.494 14.172,39.864 L15.256,44.839 C15.381,45.421 15.842,45.814 16.402,45.814 C16.597,45.814 16.788,45.765 16.97,45.671 C18.52,44.872 22.368,42.537 24.581,38.11 C24.821,37.631 24.692,37.293 24.594,37.134 C24.296,36.791 24.502,36.963 23.894,36.735 z M22.825,37.846 C23.333,37.758 23.562,38.069 23.301,38.516 C21.173,42.166 17.912,44.136 16.542,44.842 C16.367,44.932 16.212,44.847 16.167,44.641 L15.083,39.666 C15.058,39.547 15.08,39.428 15.145,39.331 C15.209,39.234 15.311,39.169 15.429,39.148 C15.429,39.148 20.66,38.22 22.825,37.846 z M40.115,27.345 C36.179,27.447 34.853,29.942 34.414,31.419 C34.212,32.096 34.556,33.009 35.166,33.415 C37.169,34.742 40.061,35.635 42.367,35.635 C43.874,35.635 45.041,35.252 45.743,34.525 C46.285,33.964 46.544,33.226 46.512,32.328 C46.377,28.397 42.276,27.349 40.115,27.345 z M40.125,28.28 C40.343,28.281 45.441,28.349 45.579,32.361 C45.601,33.004 45.435,33.498 45.072,33.874 C44.55,34.415 43.615,34.7 42.368,34.7 C40.265,34.7 37.516,33.852 35.683,32.637 C35.417,32.46 35.225,31.972 35.31,31.687 C35.677,30.453 36.793,28.367 40.125,28.28 z M20.349,27.05 C18.2,27.055 14.101,28.103 13.964,32.034 C13.934,32.931 14.193,33.67 14.734,34.23 C15.436,34.956 16.603,35.34 18.11,35.34 C20.416,35.34 23.309,34.448 25.311,33.119 C25.921,32.715 26.265,31.801 26.064,31.124 C25.623,29.648 24.297,27.154 20.349,27.05 z M20.338,27.986 C23.684,28.074 24.801,30.158 25.169,31.392 C25.254,31.677 25.062,32.166 24.796,32.342 C22.962,33.557 20.214,34.406 18.11,34.406 C16.862,34.406 15.928,34.121 15.407,33.582 C15.043,33.206 14.877,32.711 14.9,32.068 C15.037,28.056 20.136,27.987 20.338,27.986 z" fill="#280050"/>
    <path d="M12.268,28.063 C12.669,28.283 12.575,28.115 12.582,28.546 C10.371,41.631 11.463,35.67 9.385,46.444 C8.988,46.034 8.448,45.904 7.934,45.7 C6.773,45.7 6.14,45.662 5.239,46.523 C4.332,47.527 3.962,49.202 4.897,50.347 L4.599,50.577 C3.731,51.555 3.49,52.571 3.987,53.789 C1.679,54.191 2.677,53.985 0.983,54.366 C0.483,54.487 0.036,54.389 0.006,54.121 C-0.027,53.853 0.095,53.235 0.197,52.728 C0.945,48.975 2.737,42.924 4.505,37.339 C4.661,36.847 5.028,36.107 5.334,35.691 C6.708,33.825 9.116,30.798 12.005,28.23 L12.268,28.063 z" fill="#280050"/>
    <path d="M48.828,27.89 L49.091,28.059 C51.972,30.634 54.296,33.622 55.445,35.208 C55.748,35.626 56.113,36.368 56.269,36.86 C58.006,42.333 59.745,48.19 60.476,51.855 C60.576,52.361 60.699,52.98 60.671,53.248 C60.64,53.516 60.196,53.62 59.693,53.509 C59.306,53.437 58.925,53.338 58.536,53.276 C59.526,52.037 59.142,50.516 58.234,49.404 C57.463,48.774 57.951,49.096 56.685,48.58 C55.762,48.543 55.015,48.613 54.257,49.199 C54.293,48.196 54.362,48.704 54.009,47.68 C55.037,46.422 54.694,44.901 53.753,43.75 C52.982,43.12 53.47,43.442 52.205,42.926 L51.462,42.933 C51.325,42.618 51.404,42.803 51.225,42.376 C50.21,37.73 49.387,33.046 48.523,28.37 C48.524,27.942 48.433,28.108 48.828,27.89 z" fill="#280050"/>
    <path d="M26.789,5.629 C27.305,5.629 27.758,6.046 27.783,6.562 C28.028,11.371 27.698,20.831 27.569,24.141 C27.549,24.657 27.226,24.786 26.819,24.469 C25.083,23.115 23.152,22.485 21.05,22.615 C15.295,22.969 9.598,28.812 6.266,32.931 C5.942,33.333 5.814,33.264 5.975,32.774 C7.139,29.216 8.143,26.264 8.625,24.86 C8.792,24.371 8.974,23.561 9.031,23.048 L9.206,21.46 C10.354,22.045 11.52,21.623 12.452,20.861 C13.146,20.121 13.443,19.179 13.276,18.167 C13.23,17.89 13.064,17.648 12.959,17.388 C13.48,16.363 13.465,15.156 12.708,14.229 L12.979,13.816 C14.034,13.98 14.842,13.641 15.635,12.993 C16.198,12.444 16.459,11.724 16.459,10.952 C17.034,10.718 16.739,10.883 17.317,10.41 C17.868,9.677 17.687,10.055 17.921,9.306 L17.94,9.329 C19.111,10.5 21.011,10.5 22.182,9.329 C22.862,8.595 23.195,7.641 23.006,6.635 C22.941,6.287 22.739,5.98 22.606,5.653 L22.801,5.629 L26.789,5.629 z" fill="#280050"/>
    <path d="M34.733,5.629 C34.385,6.619 34.942,7.637 35.538,8.368 C36.275,9.055 37.223,9.37 38.233,9.192 C38.543,9.137 38.817,8.954 39.109,8.835 C39.112,8.842 39.115,8.85 39.118,8.858 C39.246,9.015 39.374,9.172 39.503,9.329 C40.674,10.5 42.574,10.5 43.745,9.329 C44.307,8.641 44.053,9.046 44.447,8.079 C46.395,9.242 47.943,10.864 49.401,12.57 C49.696,12.994 49.98,13.769 50.073,14.277 L51.524,22.201 C51.618,22.708 51.831,23.515 52,24.003 C52.5,25.45 53.558,28.539 54.775,32.242 C54.936,32.731 54.81,32.799 54.485,32.397 C51.379,28.552 45.82,22.817 40.081,22.474 C37.906,22.347 35.914,23.013 34.115,24.442 C33.711,24.763 33.417,24.634 33.428,24.119 C33.504,20.666 33.669,10.98 33.276,6.558 C33.23,6.044 33.592,5.629 34.109,5.629 L34.733,5.629 z" fill="#280050"/>
    <path d="M30.462,23.334 C31.567,23.334 32.466,24.233 32.466,25.339 C32.466,26.445 31.567,27.345 30.462,27.345 C29.358,27.345 28.46,26.448 28.458,25.324 C28.466,24.225 29.361,23.334 30.462,23.334 z" fill="#280050"/>
    <path d="M31.298,5.629 C31.815,5.629 32.294,6.043 32.341,6.557 C32.676,10.199 32.602,17.994 32.529,22.304 C32.52,22.821 32.216,22.929 31.753,22.702 C31.363,22.509 30.926,22.4 30.462,22.4 C30.061,22.4 29.68,22.484 29.333,22.633 C28.858,22.837 28.56,22.711 28.578,22.194 C28.726,18.015 28.925,10.727 28.716,6.562 C28.69,6.046 29.075,5.629 29.592,5.629 L31.298,5.629 z" fill="#280050"/>
  </g>
</svg>
