<?xml version="1.0" encoding="UTF-8"?>
<!DOCTYPE svg PUBLIC "-//W3C//DTD SVG 1.1//EN" "http://www.w3.org/Graphics/SVG/1.1/DTD/svg11.dtd">
<svg version="1.1" xmlns="http://www.w3.org/2000/svg" xmlns:xlink="http://www.w3.org/1999/xlink" x="0" y="0" width="60.675" height="60.675" viewBox="0, 0, 60.675, 60.675">
  <g id="Layer_1">
    <path d="M37.758,24.228 L38.636,24.154 C40.876,24.092 43.199,24.945 45.39,26.21 C45.836,26.467 46.278,27.103 46.396,27.605 C49.106,37.582 47.827,33.118 50.163,41.016 C49.594,40.862 49.875,40.942 49.322,40.777 C48.165,40.878 47.532,40.896 46.709,41.833 C45.645,43.102 45.81,44.994 47.08,46.059 L47.086,46.063 C46.813,47.184 47.015,47.928 47.699,48.79 L47.546,48.934 C46.921,49.731 46.702,50.697 46.96,51.69 C47.033,51.97 47.225,52.205 47.357,52.463 C46.709,52.16 47.076,52.301 46.242,52.077 C45.44,52.115 44.588,52.249 43.978,52.811 C42.929,52.913 43.498,52.802 42.289,53.225 L42.215,53.149 C41.392,52.589 41.906,52.867 40.6,52.464 C39.734,52.548 40.067,52.453 39.575,52.625 L39.483,52.532 C38.66,51.972 39.175,52.25 37.869,51.846 C36.713,51.948 36.08,51.965 35.257,52.902 C34.841,53.513 34.975,53.211 34.799,53.781 C33.504,54.234 34.028,53.896 33.165,54.691 L32.995,54.941 C32.404,54.97 32.864,54.947 31.615,55.008 L31.472,55.021 C26.044,55.496 21.581,56.72 19.904,57.226 C19.482,57.355 19.073,57.307 18.782,57.093 C18.542,56.916 18.409,56.649 18.406,56.338 C18.406,56.224 18.211,56.048 17.922,56.041 C15.783,56.037 16.75,56.003 15.017,56.104 C15.635,54.697 15.357,53.461 14.305,52.381 C13.482,51.821 13.996,52.099 12.691,51.696 C12.17,51.688 11.721,51.822 11.244,52.001 C11.169,51.152 11.288,51.521 10.956,50.874 C12.28,37.895 11.677,44.604 12.732,30.743 C12.755,30.227 13.076,29.526 13.471,29.194 C15.443,27.532 17.595,26.276 19.806,25.944 C22.082,25.602 24.247,26.297 26.237,28.013 C26.628,28.351 27.164,29.003 27.584,29.304 C28.131,29.696 28.812,29.905 29.536,29.841 C30.254,29.779 30.888,29.459 31.358,28.981 C31.718,28.613 32.136,27.878 32.459,27.476 C34.021,25.512 35.408,24.852 37.758,24.228 z M31.033,31.468 L28.278,31.709 C27.731,31.757 27.386,32.38 27.457,33.189 L27.676,35.687 C27.711,36.085 27.549,36.679 27.331,36.958 C26.967,37.423 26.734,38.252 26.79,38.888 L27.022,41.54 C27.06,41.973 26.973,42.695 26.782,43.081 C25.297,46.075 22.094,48.187 20.56,49.068 C20.112,49.325 19.305,49.554 18.863,49.819 C18.118,50.262 17.65,51.101 17.73,52.021 C17.843,53.304 18.978,54.257 20.262,54.144 C21.057,54.075 21.725,53.612 22.092,52.965 C22.346,52.517 22.796,52.046 23.311,52.001 L40.162,50.525 C40.677,50.48 41.202,50.865 41.53,51.263 C42.004,51.835 42.74,52.175 43.536,52.106 C44.819,51.993 45.772,50.858 45.659,49.575 C45.547,48.291 44.412,47.338 43.128,47.451 C42.997,47.462 42.872,47.486 42.749,47.521 C42.544,47.578 41.992,47.52 41.512,47.33 C39.815,46.659 36.423,45.064 34.484,42.409 C34.228,42.06 34.016,41.362 33.979,40.931 L33.746,38.278 C33.691,37.643 33.317,36.866 32.878,36.473 C32.615,36.235 32.352,35.678 32.317,35.281 L32.098,32.782 C32.028,31.973 31.58,31.42 31.033,31.468 z M43.21,48.381 C43.981,48.314 44.661,48.884 44.729,49.655 C44.796,50.426 44.226,51.107 43.455,51.174 C42.684,51.242 42.003,50.671 41.936,49.9 C41.868,49.129 42.44,48.449 43.21,48.381 z M19.937,50.42 C20.708,50.352 21.388,50.923 21.456,51.694 C21.524,52.465 20.953,53.145 20.182,53.213 C19.411,53.28 18.73,52.71 18.663,51.939 C18.595,51.167 19.166,50.487 19.937,50.42 z M38.33,46.918 L38.641,47.022 C39.374,47.422 40.06,47.742 40.637,47.987 C41.113,48.187 41.314,48.558 41.175,48.887 C41.036,49.217 40.595,49.549 40.08,49.594 L39.044,49.685 C38.531,49.729 38.078,49.35 38.031,48.836 L37.913,47.487 C37.958,47.011 37.852,47.221 38.33,46.918 z M34.601,44.065 L34.848,44.254 C35.242,44.649 35.658,45.015 36.088,45.353 C36.493,45.673 36.874,46.326 36.92,46.841 L37.101,48.917 C37.146,49.431 36.766,49.884 36.251,49.929 L35.714,49.976 C35.199,50.021 34.746,49.641 34.701,49.126 L34.296,44.497 C34.317,44.086 34.218,44.231 34.601,44.065 z M26.947,44.728 C27.357,44.828 27.233,44.7 27.326,45.103 L27.732,49.738 C27.777,50.252 27.398,50.705 26.883,50.75 L26.418,50.79 C25.904,50.835 25.451,50.456 25.405,49.942 L25.213,47.748 C25.168,47.233 25.433,46.526 25.778,46.143 C26.116,45.77 26.437,45.373 26.735,44.955 L26.947,44.728 z M23.83,48.052 C24.358,48.272 24.216,48.081 24.345,48.545 L24.475,50.022 C24.52,50.537 24.14,50.99 23.625,51.035 L23.229,51.07 C22.715,51.115 22.193,50.748 21.883,50.36 C21.573,49.972 21.564,49.572 21.999,49.293 C22.469,48.99 22.995,48.627 23.539,48.205 L23.83,48.052 z M30.1,32.487 C30.615,32.442 31.093,32.498 31.129,32.627 C31.147,32.693 31.163,32.772 31.171,32.863 L31.39,35.362 C31.445,35.997 31.819,36.773 32.258,37.168 C32.521,37.405 32.784,37.962 32.819,38.36 L33.051,41.012 C33.06,41.118 33.078,41.236 33.104,41.36 C33.144,41.55 33.159,41.755 33.144,41.82 C33.135,41.859 33.132,41.901 33.136,41.943 L33.772,49.208 C33.817,49.722 33.437,50.175 32.922,50.22 L32.606,50.247 C32.091,50.293 31.639,49.914 31.593,49.399 L31.018,42.836 C30.996,42.578 30.77,42.388 30.511,42.41 C30.254,42.433 30.065,42.659 30.087,42.917 L30.662,49.48 C30.707,49.994 30.327,50.447 29.812,50.492 L29.677,50.504 C29.162,50.549 28.709,50.17 28.664,49.655 L28.668,49.655 L28.031,42.389 C28.027,42.347 28.017,42.309 28.002,42.273 C27.975,42.211 27.958,42.009 27.965,41.813 C27.967,41.686 27.966,41.564 27.957,41.459 L27.724,38.806 C27.69,38.408 27.851,37.815 28.07,37.534 C28.433,37.069 28.665,36.241 28.609,35.605 L28.391,33.107 C28.383,33.015 28.385,32.935 28.392,32.867 C28.406,32.733 28.865,32.596 29.38,32.55 L30.1,32.487 z M36.088,38.053 C35.501,38.332 35.691,38.143 35.424,38.511 C35.341,38.679 35.243,39.026 35.523,39.482 C38.113,43.7 42.149,45.69 43.765,46.351 C43.954,46.429 44.15,46.461 44.342,46.444 C44.9,46.395 45.325,45.963 45.4,45.372 L46.045,40.321 C46.094,39.945 45.991,39.578 45.757,39.287 C45.523,38.996 45.188,38.818 44.811,38.786 L36.429,38.043 L36.088,38.053 z M37.24,39.057 L44.729,39.715 C44.85,39.727 44.956,39.782 45.029,39.873 C45.103,39.964 45.134,40.081 45.119,40.201 L44.474,45.253 C44.447,45.46 44.302,45.56 44.118,45.486 C42.689,44.902 39.269,43.223 36.822,39.756 C36.526,39.335 36.726,39.012 37.24,39.057 z M23.731,38.839 L23.394,38.889 L15.266,41.077 C14.902,41.175 14.603,41.41 14.422,41.736 C14.243,42.062 14.206,42.442 14.319,42.804 L15.833,47.665 C16.008,48.234 16.502,48.585 17.06,48.536 C17.254,48.519 17.44,48.454 17.613,48.344 C19.087,47.413 22.717,44.751 24.535,40.148 C24.733,39.65 24.575,39.325 24.463,39.175 C24.136,38.859 24.357,39.012 23.731,38.839 z M22.763,40.038 C23.261,39.906 23.517,40.196 23.296,40.664 C21.494,44.486 18.418,46.733 17.114,47.556 C16.948,47.661 16.786,47.59 16.723,47.388 L15.209,42.527 C15.174,42.411 15.186,42.29 15.242,42.188 C15.297,42.086 15.393,42.012 15.509,41.981 C15.509,41.981 20.639,40.6 22.763,40.038 z M39.071,28.069 C35.159,28.514 34.055,31.115 33.747,32.625 C33.605,33.317 34.027,34.196 34.67,34.547 C36.781,35.695 39.74,36.332 42.038,36.131 C43.539,35.999 44.668,35.516 45.304,34.73 C45.795,34.124 45.988,33.366 45.878,32.475 C45.401,28.57 41.224,27.884 39.071,28.069 z M39.162,28.999 C39.38,28.981 44.464,28.604 44.952,32.589 C45.03,33.227 44.907,33.734 44.579,34.14 C44.106,34.725 43.199,35.09 41.957,35.199 C39.862,35.383 37.049,34.778 35.117,33.727 C34.837,33.574 34.603,33.105 34.663,32.813 C34.921,31.552 35.851,29.377 39.162,28.999 z M19.354,29.5 C17.214,29.692 13.222,31.094 13.429,35.022 C13.477,35.918 13.8,36.631 14.387,37.142 C15.15,37.804 16.346,38.085 17.847,37.953 C20.145,37.752 22.949,36.611 24.827,35.112 C25.399,34.657 25.662,33.716 25.403,33.059 C24.835,31.627 23.296,29.259 19.354,29.5 z M19.425,30.433 C22.766,30.229 24.061,32.207 24.535,33.404 C24.644,33.681 24.496,34.185 24.246,34.383 C22.525,35.754 19.862,36.839 17.766,37.023 C16.523,37.132 15.567,36.929 15.001,36.438 C14.606,36.095 14.397,35.616 14.364,34.974 C14.15,30.965 19.224,30.452 19.425,30.433 z" fill="#280050"/>
    <path d="M10.687,30.68 C11.022,30.923 10.941,30.734 10.956,31.222 C9.41,46.054 10.184,39.296 8.699,51.512 C8.362,51.055 7.915,50.916 7.486,50.694 C6.528,50.711 6.006,50.678 5.281,51.667 C4.554,52.815 4.284,54.716 5.08,55.997 L4.839,56.261 C4.144,57.38 3.966,58.534 4.402,59.903 C2.507,60.394 3.326,60.145 1.936,60.602 C1.527,60.747 1.156,60.643 1.125,60.34 C1.093,60.037 1.18,59.337 1.253,58.762 C1.791,54.506 3.141,47.635 4.48,41.291 C4.599,40.732 4.886,39.89 5.129,39.414 C6.223,37.283 8.145,33.822 10.473,30.873 L10.687,30.68 z" fill="#280050"/>
    <path d="M48.828,27.89 L49.091,28.059 C51.972,30.634 54.296,33.622 55.445,35.208 C55.748,35.626 56.113,36.368 56.269,36.86 C58.006,42.333 59.745,48.19 60.476,51.855 C60.576,52.361 60.699,52.98 60.671,53.248 C60.64,53.516 60.196,53.62 59.693,53.509 C59.306,53.437 58.925,53.338 58.536,53.276 C59.526,52.037 59.142,50.516 58.234,49.404 C57.463,48.774 57.951,49.096 56.685,48.58 C55.762,48.543 55.015,48.613 54.257,49.199 C54.293,48.196 54.362,48.704 54.009,47.68 C55.037,46.422 54.694,44.901 53.753,43.75 C52.982,43.12 53.47,43.442 52.205,42.926 L51.462,42.933 C51.325,42.618 51.404,42.803 51.225,42.376 C50.21,37.73 49.387,33.046 48.523,28.37 C48.524,27.942 48.433,28.108 48.828,27.89 z" fill="#280050"/>
    <path d="M27.063,8.129 C27.51,8.226 27.819,8.691 27.739,9.165 C27.001,13.588 24.847,22.137 24.081,25.126 C23.962,25.591 23.657,25.648 23.367,25.283 C22.132,23.725 20.586,22.789 18.741,22.512 C13.691,21.754 7.606,26.002 3.909,29.125 C3.549,29.43 3.452,29.343 3.688,28.928 C5.399,25.908 6.851,23.409 7.545,22.222 C7.786,21.808 8.104,21.105 8.254,20.649 L8.72,19.236 C9.597,19.984 10.69,19.819 11.647,19.301 C12.394,18.757 12.837,17.956 12.892,17.003 C12.907,16.743 12.812,16.491 12.771,16.235 C13.425,15.4 13.651,14.299 13.178,13.312 L13.495,12.988 C14.375,13.335 15.141,13.178 15.956,12.737 C16.551,12.343 16.92,11.737 17.072,11.035 C17.616,10.929 17.328,11.024 17.922,10.702 C18.543,10.138 18.312,10.448 18.662,9.81 L18.674,9.835 C19.457,11.121 21.1,11.478 22.346,10.632 C23.079,10.091 23.556,9.285 23.591,8.334 C23.603,8.006 23.489,7.688 23.438,7.365 L23.612,7.38 L27.063,8.129 z" fill="#280050"/>
    <path d="M33.78,3.201 C33.601,4.235 34.318,5.147 35.028,5.769 C35.868,6.324 36.855,6.478 37.821,6.136 C38.118,6.03 38.358,5.805 38.626,5.639 C38.63,5.646 38.635,5.653 38.639,5.661 C38.792,5.794 38.944,5.928 39.096,6.061 C40.445,7.023 42.319,6.709 43.281,5.36 C43.721,4.588 43.537,5.03 43.766,4.011 C45.88,4.836 47.675,6.18 49.394,7.621 C49.755,7.991 50.164,8.708 50.339,9.194 L53.08,16.769 C53.257,17.253 53.6,18.014 53.848,18.467 C54.58,19.812 56.134,22.683 57.947,26.134 C58.186,26.59 58.073,26.678 57.686,26.335 C53.987,23.056 47.557,18.319 41.84,18.93 C39.674,19.164 37.819,20.15 36.281,21.857 C35.936,22.241 35.625,22.162 35.55,21.652 C35.055,18.234 33.616,8.654 32.497,4.358 C32.367,3.859 32.655,3.389 33.165,3.304 L33.78,3.201 z" fill="#280050"/>
    <path d="M30.462,23.334 C31.567,23.334 32.466,24.233 32.466,25.339 C32.466,26.445 31.567,27.345 30.462,27.345 C29.358,27.345 28.46,26.448 28.458,25.324 C28.466,24.225 29.361,23.334 30.462,23.334 z" fill="#280050"/>
    <path d="M31.298,5.629 C31.815,5.629 32.294,6.043 32.341,6.557 C32.676,10.199 32.602,17.994 32.529,22.304 C32.52,22.821 32.216,22.929 31.753,22.702 C31.363,22.509 30.926,22.4 30.462,22.4 C30.061,22.4 29.68,22.484 29.333,22.633 C28.858,22.837 28.56,22.711 28.578,22.194 C28.726,18.015 28.925,10.727 28.716,6.562 C28.69,6.046 29.075,5.629 29.592,5.629 L31.298,5.629 z" fill="#280050"/>
    <path d="M38.277,30.81 C39.48,31.93 39.971,33.276 40.787,34.574" fill="#FF8080"/>
    <path d="M39.742,30.291 C40.91,31.417 41.102,32.859 41.491,34.308" fill="#FF8080"/>
    <path d="M23.624,36.573 C24.745,36.909 24.384,38.146 24.717,38.913" fill="#FF8080"/>
    <path d="M25.051,35.771 C25.609,36.754 25.301,37.932 25.318,39.003" fill="#FF8080"/>
    <path d="M23.112,45.221 C24.049,43.737 25.145,42.356 26.165,40.942" fill="#FF8080"/>
    <path d="M24.159,45.332 C25.249,44.473 25.667,43.144 26.388,42.034" fill="#FF8080"/>
  </g>
</svg>
