<?xml version="1.0" encoding="UTF-8"?>
<!DOCTYPE svg PUBLIC "-//W3C//DTD SVG 1.1//EN" "http://www.w3.org/Graphics/SVG/1.1/DTD/svg11.dtd">
<svg version="1.1" xmlns="http://www.w3.org/2000/svg" xmlns:xlink="http://www.w3.org/1999/xlink" x="0" y="0" width="612" height="612" viewBox="0, 0, 612, 612">
  <g id="Layer_1">
    <g>
      <path d="M4.283,208.326 C-23.732,280.011 88.641,390.915 255.275,456.036 C421.909,521.157 579.703,515.837 607.717,444.152 C625.149,399.546 588.221,339.756 517.69,285.259 C517.201,307.934 512.738,330.203 504.381,351.587 C500.822,360.695 492.684,373.106 474.127,380.51 C463.274,384.84 449.735,387.036 433.885,387.036 C393.127,387.036 334.513,372.374 277.093,347.816 C249.609,336.061 224.126,322.691 203.399,309.151 C179.528,293.557 162.17,277.955 151.807,262.778 C136.408,240.227 138.518,221.824 143,210.357 C151.368,188.945 163.275,169.473 178.185,152.58 C89.396,144.815 21.715,163.723 4.283,208.326 z M546.789,412.194 C554.471,406.546 566.497,409.855 573.65,419.584 C580.803,429.313 580.374,441.778 572.692,447.426 C565.01,453.074 552.983,449.765 545.831,440.036 C538.678,430.307 539.107,417.842 546.789,412.194 z M248.81,406.547 C252.652,396.715 265.79,392.661 278.154,397.493 C290.517,402.325 297.425,414.212 293.582,424.045 C289.74,433.877 276.602,437.932 264.238,433.099 C251.875,428.267 244.969,416.379 248.81,406.547 z M51.312,246.776 C39.458,249.077 28.375,243.354 26.558,233.994 C24.741,224.633 32.879,215.181 44.732,212.88 C56.586,210.579 67.669,216.302 69.486,225.662 C71.303,235.022 63.167,244.475 51.312,246.776 z" fill="#21FF6B"/>
      <path d="M433.885,363.563 C458.789,363.563 476.884,357.457 482.518,343.043 C492.187,318.302 495.68,292.672 493.747,267.853 C488.828,204.677 448.739,146.757 385.76,122.145 C365.367,114.175 344.382,110.4 323.733,110.401 C280.615,110.404 239.015,126.882 207.601,156.024 C189.349,172.956 174.532,194.16 164.863,218.902 C143.296,274.09 338.533,363.563 433.885,363.563 z" fill="#03FF00"/>
    </g>
  </g>
</svg>
