<?xml version="1.0" encoding="UTF-8"?>
<!DOCTYPE svg PUBLIC "-//W3C//DTD SVG 1.1//EN" "http://www.w3.org/Graphics/SVG/1.1/DTD/svg11.dtd">
<svg version="1.1" xmlns="http://www.w3.org/2000/svg" xmlns:xlink="http://www.w3.org/1999/xlink" x="0" y="0" width="612" height="612" viewBox="0, 0, 612, 612">
  <g id="Layer_1">
    <g>
      <path d="M138.222,150.89 C151.568,150.713 164.89,151.534 178.185,152.58 C163.275,169.473 151.368,188.945 143,210.357 C138.518,221.824 136.408,240.227 151.807,262.778 C162.17,277.955 179.528,293.557 203.399,309.151 C224.126,322.691 249.609,336.061 277.093,347.816 C334.513,372.374 393.127,387.036 433.885,387.036 C449.735,387.036 463.274,384.84 474.127,380.51 C492.684,373.106 500.822,360.695 504.381,351.587 C512.738,330.203 517.201,307.934 517.69,285.259 C588.221,339.756 625.149,399.546 607.717,444.152 C597.765,468.686 573.866,483.527 549.431,491.012 C549.133,488.393 547.777,486.198 546.046,484.283 C542.376,480.612 537.691,478.734 532.252,477.964 C528.584,477.446 524.607,477.446 520.135,477.824 C517.366,478.059 514.593,478.418 511.222,478.94 C510.589,479.038 509.961,479.138 509.156,479.267 C509.31,479.242 507.713,479.499 507.319,479.562 C506.038,479.766 505.22,479.888 504.593,479.967 C501.115,480.401 498.434,480.85 492.544,481.92 C492.363,481.953 492.363,481.953 492.182,481.986 C490.826,482.232 490.021,482.377 489.17,482.527 C487.598,482.805 486.394,483.047 483.758,483.598 L483.669,483.617 C480.043,484.375 478.433,484.677 476.612,484.904 C474.472,485.172 472.481,485.299 468.376,485.468 C468.2,485.475 468.2,485.475 468.023,485.483 C466.195,485.558 465.372,485.594 464.321,485.65 C464.3,485.651 463.752,485.654 463.221,485.649 L463.038,485.647 L462.496,485.633 C462.381,485.633 462.381,485.633 462.24,485.634 C462.142,485.627 462.142,485.627 460.942,485.714 C460.49,485.762 460.49,485.762 459.251,486.028 L459.018,486.091 L458.961,486.108 C454.551,480.708 448.152,480.222 441.851,482.255 C439.836,482.988 437.845,483.911 435.833,485.019 C431.235,487.551 428.687,489.436 420.289,496.078 L417.576,498.165 L412.347,497.551 C412.948,494.548 412.716,496.116 413.004,492.841 C412.84,488.952 412.84,488.952 410.84,485.138 C408.298,482.271 408.298,482.271 405.996,481.038 C402.593,479.903 402.593,479.903 401.053,479.87 C399.13,479.947 399.13,479.947 398.419,480.09 C397.901,480.189 397.513,480.291 397.091,480.417 C396.742,480.52 396.4,480.634 395.992,480.777 C395.43,480.973 394.696,481.243 393.77,481.59 C392.245,482.163 390.208,482.946 387.698,483.92 C387.604,483.956 387.604,483.956 387.511,483.993 C385.79,484.661 384.327,485.232 381.767,486.233 C380.617,486.682 380.251,486.825 379.86,486.978 C379.51,487.114 379.654,487.058 379.428,487.146 C377.597,487.732 378.274,487.547 377.418,487.776 L377.622,486.671 C377.7,486.249 378.141,483.91 378.261,483.257 C378.508,481.921 378.691,480.886 378.842,479.931 C379.409,476.357 379.577,474.27 379.046,471.615 C378.229,467.528 375.582,464.343 372.14,462.639 C370.159,461.659 368.276,461.289 366.361,461.228 C364.471,461.169 362.698,461.425 360.7,461.899 C358.243,462.482 355.362,463.441 351.966,464.737 C351.199,465.029 350.41,465.337 349.602,465.66 C346.286,467.012 347.625,466.452 345.578,467.318 C344.272,466.033 344.996,466.658 343.38,465.47 C339.549,462.916 336.164,462.906 332.719,463.806 C331.438,464.141 330.277,464.61 329.053,465.213 C327.466,465.995 325.685,467.061 323.601,468.436 C320.012,470.796 316.578,473.378 313.143,475.955 C293.546,470.246 274.319,463.359 255.275,456.036 C246.657,452.653 238.072,449.177 229.604,445.434 C226.831,441.68 222.778,439.396 218.501,437.778 C216.172,437.073 217.522,437.439 214.427,436.766 C213.945,435.858 214.254,436.412 213.46,435.127 C208.107,427.096 202.44,423.049 190.835,416.982 C190.353,416.731 190.678,416.901 189.858,416.472 C189.952,415.897 190.139,415.329 190.139,414.746 C190.142,412.396 189.944,412.055 189.413,410.138 C188.427,407.208 186.483,404.94 184.095,403.482 C182.655,402.602 181.275,402.124 179.886,401.851 C178.897,401.686 179.299,401.725 178.685,401.681 C178.119,398.612 176.165,395.97 174.074,393.759 C171.499,391.183 168.642,390.13 165.52,389.74 C163.916,389.54 162.289,389.547 160.5,389.694 C157.95,389.904 154.935,390.422 151.203,391.239 C145.623,392.431 140.119,393.944 134.606,395.406 C125.894,389.867 117.301,384.134 108.947,378.066 C109.612,374.476 109.699,370.849 109.148,367.245 C108.151,361.926 104.42,357.946 99.537,356.346 C96.049,355.457 98.147,355.848 93.182,355.565 L91.011,355.791 C86.496,356.667 89.245,356.034 82.849,358.025 C43.382,324.957 -16.31,265.962 4.283,208.326 C26.462,158.554 90.619,152.203 138.222,150.89 z M554.982,409.445 C551.926,409.5 549.307,410.58 546.789,412.194 C539.107,417.842 538.678,430.307 545.831,440.036 C552.983,449.765 565.01,453.074 572.692,447.426 C580.374,441.778 580.803,429.313 573.65,419.584 C569.941,414.7 564.75,410.788 558.594,409.712 C557.405,409.504 556.186,409.534 554.982,409.446 z M266.643,395.471 C258.643,396.075 252.308,399.037 248.81,406.547 C244.969,416.379 251.875,428.267 264.238,433.099 C276.602,437.932 289.74,433.877 293.582,424.045 C297.425,414.212 290.517,402.325 278.154,397.493 C273.925,395.761 271.072,395.686 266.643,395.471 z M51.262,212.403 C46.198,212.565 48.367,212.324 44.732,212.88 C32.879,215.181 24.741,224.633 26.558,233.994 C28.375,243.354 39.458,249.077 51.312,246.776 C63.167,244.475 71.303,235.022 69.486,225.662 C67.062,216.298 60.028,213.551 51.262,212.403 z" fill="#21FF6B"/>
      <path d="M323.733,110.401 C344.382,110.4 365.367,114.175 385.76,122.145 C394.231,125.634 389.698,123.643 399.31,128.229 C399.545,128.623 399.457,128.469 399.579,128.686 C400.118,129.822 400.616,130.899 401.47,132.76 C401.596,133.034 401.596,133.034 401.722,133.309 C408.004,147.001 411.556,153.193 418.447,160.084 C420.155,161.792 421.611,162.741 427.076,166.079 C427.593,166.395 429.456,167.531 429.637,167.641 C430.697,168.288 431.542,168.805 432.375,169.319 C434.506,170.632 436.353,171.795 438.096,172.926 L439.727,173.998 C438.581,174.277 439.461,174.032 437.239,175.15 C432.737,177.871 430.302,182.742 430.677,187.863 C431.024,192.61 433.114,195.897 436.777,199.948 C440.303,203.847 444.207,207.28 454.139,215.583 C454.154,215.596 454.154,215.596 454.17,215.609 C459.507,220.084 465.022,224.47 469.758,229.587 L469.758,229.588 C469.853,229.983 469.94,230.567 470.005,231.325 C470.143,232.933 470.159,234.859 470.087,238.149 C470.08,238.476 470.073,238.757 470.06,239.326 C469.902,245.984 469.941,248.715 470.516,252.242 C471.007,255.259 471.876,257.956 473.411,260.444 C475.651,264.075 479.087,266.745 483.39,267.82 C486.159,268.479 489.046,268.22 491.628,266.997 C492.305,266.676 492.913,266.226 493.555,265.841 L493.747,267.853 C495.68,292.672 492.187,318.302 482.518,343.043 C476.884,357.457 458.789,363.563 433.885,363.563 C338.533,363.563 143.296,274.09 164.863,218.902 C174.532,194.16 189.349,172.956 207.601,156.024 C239.015,126.882 280.615,110.404 323.733,110.401 z" fill="#03FF00"/>
    </g>
    <path d="M89.644,289.975 C94.524,302.935 97.903,316.633 104.795,328.695" fill-opacity="0" stroke="#000000" stroke-width="1" stroke-linecap="round" stroke-linejoin="round"/>
    <path d="M109.004,281.979 C106.984,296.971 115.317,311.458 115.317,326.17" fill-opacity="0" stroke="#000000" stroke-width="1" stroke-linecap="round" stroke-linejoin="round"/>
    <path d="M84.594,306.81 C99.148,305.109 112.934,297.172 127.101,292.922" fill-opacity="0" stroke="#000000" stroke-width="1" stroke-linecap="round" stroke-linejoin="round"/>
    <path d="M88.381,316.49 C99.826,313.194 112.306,306.295 122.471,301.76" fill-opacity="0" stroke="#000000" stroke-width="1" stroke-linecap="round" stroke-linejoin="round"/>
    <path d="M375.696,299.468 C387.562,308.468 397.607,320.212 406.551,332.137" fill-opacity="0" stroke="#000000" stroke-width="1" stroke-linecap="round" stroke-linejoin="round"/>
    <path d="M381.746,329.112 C394.102,316.734 406.264,304.352 420.465,294.023" fill-opacity="0" stroke="#000000" stroke-width="1" stroke-linecap="round" stroke-linejoin="round"/>
    <path d="M423.49,295.838 C428.021,308.736 439.78,316.341 447.085,327.297" fill-opacity="0" stroke="#000000" stroke-width="1" stroke-linecap="round" stroke-linejoin="round"/>
    <path d="M411.39,324.273 C427.174,311.498 441.54,296.9 457.974,284.948" fill-opacity="0" stroke="#000000" stroke-width="1" stroke-linecap="round" stroke-linejoin="round"/>
    <path d="M245.981,165.438 C258.653,153.358 275.652,135.689 294.596,135.689" fill-opacity="0" stroke="#000000" stroke-width="1" stroke-linecap="round" stroke-linejoin="round"/>
    <path d="M259.767,181.402 C275.664,169.375 293.203,149.475 314.913,149.475" fill-opacity="0" stroke="#000000" stroke-width="1" stroke-linecap="round" stroke-linejoin="round"/>
    <path d="M259.042,138.591 C271.572,150.681 287.689,160.156 297.499,174.871" fill-opacity="0" stroke="#000000" stroke-width="1" stroke-linecap="round" stroke-linejoin="round"/>
  </g>
</svg>
