<?xml version="1.0" encoding="UTF-8"?>
<!DOCTYPE svg PUBLIC "-//W3C//DTD SVG 1.1//EN" "http://www.w3.org/Graphics/SVG/1.1/DTD/svg11.dtd">
<svg version="1.1" xmlns="http://www.w3.org/2000/svg" xmlns:xlink="http://www.w3.org/1999/xlink" x="0" y="0" width="612" height="612" viewBox="0, 0, 612, 612">
  <g id="Layer_1">
    <g>
      <path d="M138.222,150.89 C151.568,150.713 164.89,151.534 178.185,152.58 C163.275,169.473 151.368,188.945 143,210.357 C138.518,221.824 136.408,240.227 151.807,262.778 C162.17,277.955 179.528,293.557 203.399,309.151 C224.126,322.691 249.609,336.061 277.093,347.816 C334.513,372.374 393.127,387.036 433.885,387.036 C449.735,387.036 463.274,384.84 474.127,380.51 C492.684,373.106 500.822,360.695 504.381,351.587 C512.738,330.203 517.201,307.934 517.69,285.259 C588.221,339.756 625.149,399.546 607.717,444.152 C597.765,468.686 573.866,483.527 549.431,491.012 C549.133,488.393 547.777,486.198 546.046,484.283 C542.376,480.612 537.691,478.734 532.252,477.964 C528.584,477.446 524.607,477.446 520.135,477.824 C517.366,478.059 514.592,478.418 511.222,478.94 C510.589,479.038 509.96,479.138 509.156,479.267 C509.31,479.242 507.713,479.499 507.319,479.562 C506.038,479.766 505.22,479.888 504.593,479.967 C501.115,480.401 498.434,480.85 492.544,481.92 C492.363,481.953 492.363,481.953 492.182,481.986 C490.826,482.232 490.021,482.377 489.17,482.527 C487.598,482.805 486.394,483.047 483.758,483.598 L483.669,483.616 C480.043,484.375 478.433,484.677 476.612,484.904 C474.472,485.172 472.481,485.299 468.376,485.468 C468.2,485.475 468.2,485.475 468.023,485.483 C466.195,485.558 465.372,485.594 464.321,485.65 C464.3,485.651 463.752,485.654 463.221,485.649 L463.038,485.647 L462.496,485.633 C462.381,485.633 462.381,485.633 462.24,485.634 C462.142,485.627 462.142,485.627 460.942,485.714 C460.49,485.762 460.49,485.762 459.251,486.028 L459.018,486.091 L458.961,486.108 C456.382,483.095 452.464,480.803 448.347,481.209 C448.787,479.955 448.804,478.611 448.899,477.299 L448.885,477.052 C449.302,476.565 449.773,476.119 450.135,475.59 C452.688,471.862 453.002,467.147 451.052,463.089 C448.785,459.074 445.151,456.613 440.501,456.322 C438.372,456.458 436.547,456.563 434.617,457.61 C433.364,458.287 433.956,457.933 432.835,458.662 L434.718,455.315 C435.31,454.229 435.874,453.152 436.409,452.082 C437.017,450.867 437.45,449.712 437.678,448.003 C437.991,445.665 437.748,443.201 436.339,440.559 C434.305,436.748 430.605,434.495 426.684,434.113 C424.61,433.911 422.936,434.211 421.375,434.759 C420.627,435.022 420,435.316 419.411,435.643 C418.802,435.981 418.308,436.311 417.819,436.674 C417.062,437.236 416.587,437.65 415.453,438.674 C415.443,438.684 415.443,438.684 415.432,438.694 C415.004,439.08 414.899,439.175 414.75,439.306 C414.663,439.383 414.63,439.411 414.729,439.334 C414.187,439.751 413.72,440.1 412.643,440.895 L412.626,440.908 C409.726,443.05 408.38,444.096 406.659,445.654 C404.743,447.388 403.356,448.778 400.405,451.838 C400.395,451.849 400.395,451.849 400.385,451.859 C398.475,453.84 397.633,454.697 396.612,455.682 C395.166,457.076 393.952,458.202 391.18,460.738 C391.172,460.745 391.172,460.745 391.163,460.753 L389.917,461.895 L389.953,461.825 C393.365,455.047 395.776,449.418 397.002,444.869 C398.087,440.842 398.421,437.429 397.348,433.744 C395.117,426.086 387.774,422.452 380.494,424.069 C377.393,424.826 378.904,424.408 375.956,425.314 C376,424.76 376.088,424.207 376.086,423.651 C376.078,420.873 376.012,420.779 375.711,418.558 C374.538,411.522 368.523,407.235 362,407.479 C359.212,407.584 356.857,408.377 354.26,409.67 C351.224,411.181 347.601,413.595 343.118,416.969 C336.101,422.253 327.085,429.82 315.681,439.842 C309.621,445.167 304.258,449.278 291.955,458.285 C291.869,458.348 291.869,458.348 291.783,458.411 C288.462,460.844 285.143,463.28 281.859,465.763 C264.785,459.737 273.652,462.964 255.275,456.036 C246.657,452.653 238.072,449.177 229.604,445.434 C228.258,443.79 228.931,444.485 227.64,443.297 C229.523,437.479 231.13,431.577 232.726,425.675 C233.092,424.312 233.471,422.889 233.871,421.377 C234.662,418.387 238.031,405.455 238.799,402.577 C239.805,398.804 242.312,388.836 244.211,380.979 C245.388,376.111 246.346,372.014 247.004,368.993 C247.391,367.217 247.678,365.802 247.865,364.713 C247.999,363.936 248.093,363.277 248.15,362.611 C248.212,361.875 248.231,361.181 248.162,360.314 C247.738,355.035 246.29,351.155 238.882,349.303 C236.68,348.813 234.279,348.612 232.105,349.371 C230.86,348.778 229.65,348.857 228.362,348.869 C230.27,345.098 232.327,341.289 232.662,336.987 C233.145,331.197 230.434,325.632 224.929,322.883 C222.41,321.759 219.981,321.128 217.154,321.274 L214.467,321.548 C210.655,322.145 206.385,323.691 201.397,326.007 C194.084,329.404 184.818,334.757 182.507,337.069 C181.101,338.358 180.319,340.037 179.618,341.764 C178.507,342.707 179.155,342.155 177.675,343.423 C176.184,344.705 174.425,346.226 172.121,348.224 C170.774,349.392 165.795,353.715 165.809,353.702 C165.75,353.754 165.75,353.754 165.69,353.805 C157.06,361.295 152.438,365.258 150.163,367.078 C147.898,368.856 143.754,372.32 140.752,372.562 C140.279,372.601 139.804,372.514 139.33,372.49 C139.321,372.486 139.312,372.482 139.303,372.478 L139.171,372.18 C139.114,372.051 139.114,372.051 139.052,371.91 C138.41,370.442 138.047,369.667 137.452,368.604 C136.494,366.892 135.366,365.341 133.939,363.914 C130.52,360.495 125.959,359.26 121.539,359.957 L120.232,360.238 L116.972,358.828 C115.396,358.171 114.103,357.679 111.54,356.735 C111.452,356.703 111.452,356.703 111.365,356.67 C108.407,355.567 105.38,354.536 102.686,352.859 L102.629,352.776 C102.11,352.002 102.013,351.849 100.246,349.036 C100.12,348.835 100.12,348.835 99.992,348.632 C98.441,346.168 97.436,344.648 96.376,343.254 C95.441,342.023 94.55,341.006 93.455,340.056 C92.351,339.098 91.141,338.287 89.577,337.651 C86.36,336.514 83.068,336.232 79.874,337.704 C77.918,337.054 79.101,337.412 76.298,336.723 C71.985,335.744 71.292,335.393 69.054,332.516 C67.819,330.928 66.484,328.987 64.796,326.353 C64.26,325.516 63.703,324.633 62.96,323.447 C62.971,323.464 61.468,321.06 61.03,320.362 C54.875,310.563 50.852,305.185 45.262,300.527 C38.802,295.428 32.244,293.938 24.727,297.721 C5.606,271.922 -6.342,239.987 4.283,208.326 C26.462,158.554 90.619,152.203 138.222,150.89 z M554.982,409.445 C551.926,409.5 549.307,410.58 546.789,412.194 C539.107,417.842 538.678,430.307 545.831,440.036 C552.983,449.765 565.01,453.074 572.692,447.426 C580.374,441.778 580.803,429.313 573.65,419.584 C569.941,414.7 564.75,410.788 558.594,409.712 C557.405,409.504 556.186,409.534 554.982,409.446 z M266.643,395.471 C258.643,396.075 252.308,399.037 248.81,406.547 C244.969,416.379 251.875,428.267 264.238,433.099 C276.602,437.932 289.74,433.877 293.582,424.045 C297.425,414.212 290.517,402.325 278.154,397.493 C273.925,395.761 271.072,395.686 266.643,395.471 z M51.262,212.403 L51.262,212.403 C46.198,212.565 48.367,212.324 44.732,212.88 C32.879,215.181 24.741,224.633 26.558,233.994 C28.375,243.354 39.458,249.077 51.312,246.776 C63.167,244.475 71.303,235.022 69.486,225.662 C67.062,216.298 60.028,213.551 51.262,212.403 z" fill="#21FF6B"/>
      <path d="M205.78,157.76 C206.069,167.996 206.823,178.214 208.181,188.364 C209.099,194.621 210.27,199.742 211.844,203.844 C214.423,210.564 218.211,215.403 224.89,217.073 C228.518,217.98 232.539,217.926 238.248,217.321 C241.74,216.951 244.214,216.596 252.038,215.402 C252.678,215.304 253.183,215.228 253.669,215.154 C256.785,214.69 255.572,214.86 257.304,214.621 C254.089,218.837 250.818,223.04 248.148,227.632 C246.509,230.467 245.369,233.062 244.78,235.784 C243.686,240.842 244.603,246.056 248.674,250.127 C251.69,253.143 255.186,254.365 259.368,254.885 C261.824,255.19 264.584,255.217 267.739,255.03 C272.731,254.733 278.817,253.884 285.797,252.596 C295.729,250.762 308.158,247.827 312.95,246.412 C319.321,244.533 323.808,243.094 335.934,239.112 C352.836,233.593 369.847,227.871 387.551,225.58 C389.362,226.883 391.314,228.024 393.524,228.492 C397.133,229.352 400.672,228.953 404.867,227.68 C413.16,225.162 422.929,220.912 434.535,215.02 C438.01,213.256 441.627,211.356 445.482,209.277 L446.212,208.881 C448.832,211.142 451.486,213.362 454.139,215.583 C454.154,215.596 454.154,215.596 454.17,215.609 C459.507,220.084 465.022,224.47 469.758,229.587 L469.758,229.588 C469.853,229.983 469.94,230.567 470.005,231.325 C470.143,232.933 470.159,234.859 470.087,238.149 C470.08,238.476 470.073,238.757 470.06,239.326 C469.902,245.984 469.941,248.715 470.516,252.242 C471.007,255.259 471.876,257.956 473.411,260.444 C475.651,264.075 479.087,266.745 483.39,267.82 C486.159,268.479 489.046,268.22 491.628,266.997 C492.305,266.676 492.913,266.226 493.555,265.841 L493.747,267.853 C495.68,292.672 492.187,318.302 482.518,343.043 C476.884,357.457 458.789,363.563 433.885,363.563 C338.533,363.563 143.296,274.09 164.863,218.902 C173.899,195.851 187.855,174.854 205.78,157.76 z" fill="#03FF00"/>
      <path d="M284.403,117.1 C304.565,112.641 325.87,111.798 347.503,115.178 C356.527,116.756 351.671,115.79 362.046,118.193 C362.361,118.527 362.242,118.396 362.408,118.581 C363.179,119.574 363.898,120.518 365.134,122.151 C365.316,122.391 365.316,122.391 365.499,122.633 C374.588,134.646 379.392,139.925 387.609,145.166 C389.645,146.465 391.272,147.078 397.328,149.157 C397.901,149.354 399.966,150.061 400.166,150.13 C401.341,150.532 402.277,150.855 403.202,151.177 C405.566,151.999 407.62,152.735 409.567,153.464 L411.39,154.159 C410.332,154.679 411.138,154.25 409.21,155.821 C405.402,159.449 404.076,164.731 405.547,169.651 L406.035,171.03 C401.076,175.214 403.217,173.432 399.632,176.397 C392.899,181.854 386.084,187.271 378.64,191.742 C374.462,189.89 369.775,190.459 365.57,191.899 C349.339,197.544 336.93,204.066 311.613,219.064 C300.857,225.436 296.909,227.738 291.391,230.785 C287.785,232.776 277.048,237.956 268.512,241.566 C265.743,242.722 267.119,242.16 264.383,243.252 C266.281,239.161 268.212,235.075 269.775,230.84 C272.072,224.61 272.95,220.016 271.454,214.984 C269.488,208.367 264.06,205.028 257.998,204.465 C254.951,204.182 251.801,204.573 248.135,205.449 C243.397,206.582 238.419,208.321 229.791,211.646 C229.323,211.827 228.839,212.014 228.227,212.251 C221.259,214.945 219.058,215.774 216.234,216.72 C214.948,217.14 215.452,216.987 214.732,217.2 C213.387,214.717 212.312,212.1 211.306,209.463 C208.136,201.124 204.788,189.515 201.137,174.696 C200.338,171.442 199.544,168.187 198.789,164.922 C222.919,140.259 250.912,125.347 284.403,117.1 z" fill="#03FF00"/>
    </g>
    <path d="M89.644,289.975 C94.524,302.935 97.903,316.633 104.795,328.695" fill-opacity="0" stroke="#000000" stroke-width="1" stroke-linecap="round" stroke-linejoin="round"/>
    <path d="M109.004,281.979 C106.984,296.971 115.317,311.458 115.317,326.17" fill-opacity="0" stroke="#000000" stroke-width="1" stroke-linecap="round" stroke-linejoin="round"/>
    <path d="M84.594,306.81 C99.148,305.109 112.934,297.172 127.101,292.922" fill-opacity="0" stroke="#000000" stroke-width="1" stroke-linecap="round" stroke-linejoin="round"/>
    <path d="M88.381,316.49 C99.826,313.194 112.306,306.295 122.471,301.76" fill-opacity="0" stroke="#000000" stroke-width="1" stroke-linecap="round" stroke-linejoin="round"/>
    <path d="M375.696,299.468 C387.562,308.468 397.607,320.212 406.551,332.137" fill-opacity="0" stroke="#000000" stroke-width="1" stroke-linecap="round" stroke-linejoin="round"/>
    <path d="M381.746,329.112 C394.102,316.734 406.264,304.352 420.465,294.023" fill-opacity="0" stroke="#000000" stroke-width="1" stroke-linecap="round" stroke-linejoin="round"/>
    <path d="M423.49,295.838 C428.021,308.736 439.78,316.341 447.085,327.297" fill-opacity="0" stroke="#000000" stroke-width="1" stroke-linecap="round" stroke-linejoin="round"/>
    <path d="M411.39,324.273 C427.174,311.498 441.54,296.9 457.974,284.948" fill-opacity="0" stroke="#000000" stroke-width="1" stroke-linecap="round" stroke-linejoin="round"/>
    <path d="M245.981,165.438 C258.653,153.358 275.652,135.689 294.596,135.689" fill-opacity="0" stroke="#000000" stroke-width="1" stroke-linecap="round" stroke-linejoin="round"/>
    <path d="M259.767,181.402 C275.664,169.375 293.203,149.475 314.913,149.475" fill-opacity="0" stroke="#000000" stroke-width="1" stroke-linecap="round" stroke-linejoin="round"/>
    <path d="M259.042,138.591 C271.572,150.681 287.689,160.156 297.499,174.871" fill-opacity="0" stroke="#000000" stroke-width="1" stroke-linecap="round" stroke-linejoin="round"/>
    <path d="M466.127,431.96 C477.381,424.512 486.258,416.211 496.226,406.742" fill-opacity="0" stroke="#000000" stroke-width="1" stroke-linecap="round" stroke-linejoin="round"/>
    <path d="M479.143,433.587 C488.593,423.732 499.609,415.562 509.241,405.929" fill-opacity="0" stroke="#000000" stroke-width="1" stroke-linecap="round" stroke-linejoin="round"/>
    <path d="M471.821,407.556 C480.926,420.283 490.415,432.89 496.226,447.417" fill-opacity="0" stroke="#000000" stroke-width="1" stroke-linecap="round" stroke-linejoin="round"/>
    <path d="M492.158,405.115 C497.667,421.64 493.448,410.136 507.615,438.468" fill-opacity="0" stroke="#000000" stroke-width="1" stroke-linecap="round" stroke-linejoin="round"/>
  </g>
</svg>
